<svg width="122" height="41" viewBox="0 0 122 41" fill="none" xmlns="http://www.w3.org/2000/svg">
<g clip-path="url(#clip0_469_45292)">
<path d="M111.863 0.878906H10.1367C9.76258 0.878906 9.39855 0.878906 9.03451 0.878906C8.72104 0.878906 8.41768 0.878906 8.10421 0.888906C7.42671 0.908906 6.74921 0.948906 6.08182 1.06891C5.40431 1.18891 4.77737 1.38891 4.16054 1.69891C3.55382 2.00891 2.99766 2.40891 2.5224 2.87891C2.03702 3.34891 1.63254 3.89891 1.32918 4.49891C1.01571 5.10891 0.813471 5.72891 0.692128 6.39891C0.570784 7.05891 0.530336 7.72891 0.520224 8.39891C0.520224 8.70891 0.510112 9.00891 0.5 9.31891V32.4389C0.5 32.7489 0.5 33.0489 0.520224 33.3589C0.540448 34.0289 0.580896 34.6989 0.70224 35.3589C0.823583 36.0289 1.01571 36.6589 1.33929 37.2589C1.64265 37.8589 2.04713 38.3989 2.53251 38.8689C3.00777 39.3489 3.56393 39.7489 4.17065 40.0489C4.78748 40.3589 5.41442 40.5589 6.09193 40.6789C6.75932 40.7989 7.44693 40.8389 8.11432 40.8589C8.4278 40.8589 8.73115 40.8689 9.04463 40.8689C9.41877 40.8689 9.7828 40.8689 10.1468 40.8689H111.863C112.227 40.8689 112.591 40.8689 112.955 40.8689C113.259 40.8689 113.582 40.8689 113.886 40.8589C114.563 40.8389 115.241 40.7989 115.908 40.6789C116.586 40.5589 117.213 40.3589 117.839 40.0489C118.446 39.7489 118.992 39.3489 119.478 38.8689C119.963 38.3989 120.357 37.8489 120.671 37.2589C120.984 36.6489 121.187 36.0289 121.298 35.3589C121.419 34.6989 121.46 34.0289 121.49 33.3589C121.49 33.0489 121.49 32.7489 121.49 32.4389C121.49 32.0789 121.49 31.7189 121.49 31.3489V10.4189C121.49 10.0489 121.49 9.68891 121.49 9.32891C121.49 9.01891 121.49 8.71891 121.49 8.40891C121.47 7.73891 121.429 7.06891 121.298 6.40891C121.187 5.73891 120.984 5.11891 120.671 4.50891C120.357 3.90891 119.953 3.35891 119.478 2.88891C119.002 2.41891 118.446 2.01891 117.839 1.70891C117.213 1.39891 116.586 1.19891 115.908 1.07891C115.241 0.958906 114.563 0.918906 113.886 0.898906C113.582 0.898906 113.259 0.888906 112.955 0.888906C112.591 0.888906 112.227 0.888906 111.863 0.888906V0.878906Z" fill="#B7B7B7"/>
<path d="M9.03465 39.9989C8.73129 39.9989 8.42794 39.9989 8.12458 39.9889C7.5583 39.9689 6.89091 39.9389 6.23363 39.8289C5.6168 39.7189 5.07076 39.5389 4.55505 39.2789C4.02922 39.0189 3.55396 38.6689 3.13937 38.2589C2.72478 37.8489 2.38097 37.3889 2.10795 36.8589C1.84503 36.3589 1.66302 35.8089 1.5619 35.1989C1.44055 34.5289 1.41022 33.8389 1.38999 33.3189C1.38999 33.1089 1.37988 32.4089 1.37988 32.4089V9.31893C1.37988 9.31893 1.37988 8.62893 1.38999 8.42893C1.40011 7.90893 1.43044 7.21893 1.5619 6.55893C1.67313 5.94893 1.84503 5.39893 2.10795 4.89893C2.38097 4.37893 2.72478 3.90893 3.13937 3.49893C3.55396 3.08893 4.02922 2.73893 4.55505 2.47893C5.07076 2.21893 5.62692 2.03893 6.22352 1.93893C6.90103 1.81893 7.59875 1.78893 8.12458 1.77893H113.886C114.402 1.78893 115.099 1.81893 115.767 1.93893C116.373 2.04893 116.93 2.21893 117.455 2.48893C117.971 2.74893 118.446 3.09893 118.861 3.50893C119.275 3.91893 119.619 4.38893 119.892 4.90893C120.155 5.41893 120.327 5.95893 120.438 6.55893C120.56 7.18893 120.59 7.83893 120.61 8.44893C120.61 8.72893 120.61 9.03893 120.61 9.33893C120.61 9.71893 120.61 10.0689 120.61 10.4289V31.3389C120.61 31.6989 120.61 32.0589 120.61 32.4189C120.61 32.7489 120.61 33.0389 120.61 33.3489C120.59 33.9389 120.55 34.5889 120.438 35.1989C120.337 35.8089 120.155 36.3589 119.892 36.8689C119.619 37.3889 119.275 37.8589 118.861 38.2589C118.446 38.6789 117.971 39.0189 117.445 39.2789C116.919 39.5389 116.383 39.7189 115.757 39.8289C115.109 39.9489 114.442 39.9789 113.866 39.9889C113.572 39.9889 113.259 39.9989 112.955 39.9989H9.03465Z" fill="black"/>
<path d="M25.5471 21.1789C25.5168 18.4289 27.8223 17.0889 27.9336 17.0289C26.6291 15.1489 24.6067 14.8889 23.8989 14.8689C22.2001 14.6889 20.5518 15.8689 19.6923 15.8689C18.8328 15.8689 17.4778 14.8789 16.0419 14.9089C14.1914 14.9389 12.4622 15.9989 11.5218 17.6389C9.57021 20.9889 11.0263 25.9089 12.897 28.6189C13.8375 29.9489 14.9296 31.4289 16.3655 31.3689C17.771 31.3089 18.2968 30.4889 19.9855 30.4889C21.6743 30.4889 22.1495 31.3689 23.6158 31.3389C25.1224 31.3189 26.073 30.0089 26.9729 28.6689C28.0549 27.1489 28.4897 25.6489 28.51 25.5789C28.4796 25.5689 25.5876 24.4789 25.5573 21.1789H25.5471Z" fill="white"/>
<path d="M22.7867 13.0889C23.5451 12.1589 24.0608 10.8889 23.9091 9.59888C22.8171 9.64888 21.4519 10.3489 20.6632 11.2589C19.9655 12.0589 19.3486 13.3789 19.5104 14.6189C20.734 14.7089 21.998 14.0089 22.7867 13.0889Z" fill="white"/>
<path d="M43.2736 28.0189H38.4906L37.3378 31.3789H35.3154L39.8456 18.9589H41.9489L46.4791 31.3789H44.4162L43.2634 28.0189H43.2736ZM38.9861 26.4689H42.7781L40.9074 21.0189H40.8568L38.9861 26.4689Z" fill="white"/>
<path d="M56.2774 26.8489C56.2774 29.6589 54.7505 31.4689 52.455 31.4689C51.1506 31.4689 50.1192 30.8889 49.5731 29.8889H49.5327V34.3689H47.6519V22.3189H49.472V23.8289H49.5023C50.0282 22.8589 51.1405 22.2289 52.4146 22.2289C54.7404 22.2289 56.2673 24.0489 56.2673 26.8489H56.2774ZM54.346 26.8489C54.346 25.0189 53.3854 23.8089 51.9292 23.8089C50.4731 23.8089 49.5226 25.0389 49.5226 26.8489C49.5226 28.6589 50.4933 29.8989 51.9292 29.8989C53.3651 29.8989 54.346 28.6989 54.346 26.8489Z" fill="white"/>
<path d="M66.3492 26.8489C66.3492 29.6589 64.8222 31.4689 62.5268 31.4689C61.2224 31.4689 60.191 30.8889 59.6449 29.8889H59.6045V34.3689H57.7236V22.3189H59.5438V23.8289H59.5741C60.0999 22.8589 61.2123 22.2289 62.4864 22.2289C64.8121 22.2289 66.339 24.0489 66.339 26.8489H66.3492ZM64.4178 26.8489C64.4178 25.0189 63.4571 23.8089 62.001 23.8089C60.5449 23.8089 59.5943 25.0389 59.5943 26.8489C59.5943 28.6589 60.5651 29.8989 62.001 29.8989C63.4369 29.8989 64.4178 28.6989 64.4178 26.8489Z" fill="white"/>
<path d="M73.0131 27.9189C73.1546 29.1489 74.358 29.9589 76.0163 29.9589C77.6747 29.9589 78.7365 29.1489 78.7365 28.0389C78.7365 27.0789 78.0488 26.4989 76.4208 26.0989L74.7928 25.7089C72.4873 25.1589 71.4154 24.0889 71.4154 22.3589C71.4154 20.2189 73.3063 18.7489 75.986 18.7489C78.6657 18.7489 80.4555 20.2189 80.5162 22.3589H78.6151C78.5039 21.1189 77.4624 20.3689 75.9557 20.3689C74.449 20.3689 73.4074 21.1289 73.4074 22.2289C73.4074 23.1089 74.0647 23.6189 75.6826 24.0189L77.068 24.3589C79.6465 24.9589 80.7184 25.9889 80.7184 27.7989C80.7184 30.1189 78.8477 31.5789 75.8748 31.5789C73.094 31.5789 71.2131 30.1589 71.0918 27.9089H73.0131V27.9189Z" fill="white"/>
<path d="M84.7833 20.1789V22.3189H86.5226V23.7889H84.7833V28.7789C84.7833 29.5589 85.1271 29.9189 85.8957 29.9189C86.0878 29.9189 86.3911 29.8889 86.5125 29.8789V31.3389C86.3001 31.3889 85.8855 31.4289 85.471 31.4289C83.6205 31.4289 82.8924 30.7389 82.8924 28.9889V23.7989H81.5576V22.3289H82.8924V20.1889H84.7833V20.1789Z" fill="white"/>
<path d="M87.5234 26.8489C87.5234 23.9989 89.2223 22.2089 91.8615 22.2089C94.5007 22.2089 96.1995 23.9989 96.1995 26.8489C96.1995 29.6989 94.5209 31.4889 91.8615 31.4889C89.202 31.4889 87.5234 29.7089 87.5234 26.8489ZM94.2985 26.8489C94.2985 24.8989 93.3884 23.7389 91.8716 23.7389C90.3548 23.7389 89.4447 24.8989 89.4447 26.8489C89.4447 28.7989 90.3447 29.9589 91.8716 29.9589C93.3985 29.9589 94.2985 28.8189 94.2985 26.8489Z" fill="white"/>
<path d="M97.7671 22.3189H99.5569V23.8589H99.5974C99.8805 22.8389 100.72 22.2189 101.802 22.2189C102.075 22.2189 102.297 22.2589 102.449 22.2889V24.0289C102.297 23.9689 101.974 23.9189 101.61 23.9189C100.396 23.9189 99.6479 24.7289 99.6479 25.9989V31.3689H97.7671V22.3189Z" fill="white"/>
<path d="M111.105 28.7189C110.852 30.3589 109.234 31.4889 107.161 31.4889C104.502 31.4889 102.843 29.7289 102.843 26.8889C102.843 24.0489 104.502 22.2089 107.08 22.2089C109.659 22.2089 111.206 23.9289 111.206 26.6789V27.3189H104.744V27.4289C104.744 28.9789 105.725 29.9889 107.212 29.9889C108.253 29.9889 109.072 29.4989 109.325 28.7189H111.105ZM104.754 26.0189H109.335C109.295 24.6289 108.395 23.7189 107.09 23.7189C105.786 23.7189 104.856 24.6489 104.754 26.0189Z" fill="white"/>
<path d="M36.5697 15.5789V9.60889H38.9966C40.1291 9.60889 40.8066 10.1789 40.8066 11.0989C40.8066 11.7189 40.3415 12.2789 39.7448 12.3789V12.4489C40.5639 12.5289 41.0999 13.1089 41.0999 13.8789C41.0999 14.9289 40.3313 15.5689 39.037 15.5689H36.5596L36.5697 15.5789ZM37.5101 12.1389H38.6224C39.4516 12.1389 39.8864 11.8389 39.8864 11.2689C39.8864 10.6989 39.4819 10.3989 38.7842 10.3989H37.5101V12.1389ZM38.8651 14.7889C39.7044 14.7889 40.1594 14.4489 40.1594 13.8189C40.1594 13.1889 39.6943 12.8689 38.8145 12.8689H37.5101V14.7889H38.8651Z" fill="white"/>
<path d="M42.0708 14.2989C42.0708 13.4889 42.6775 13.0189 43.7595 12.9589L44.9932 12.8889V12.4989C44.9932 12.0189 44.6797 11.7589 44.0629 11.7589C43.5573 11.7589 43.2135 11.9389 43.1123 12.2589H42.2427C42.3337 11.4889 43.0719 10.9889 44.1033 10.9889C45.246 10.9889 45.8931 11.5489 45.8931 12.4989V15.5789H45.0235V14.9489H44.9527C44.6797 15.3989 44.1842 15.6589 43.5876 15.6589C42.7079 15.6589 42.0708 15.1389 42.0708 14.3089V14.2989ZM44.9932 13.9189V13.5389L43.8808 13.6089C43.2539 13.6489 42.9708 13.8589 42.9708 14.2589C42.9708 14.6589 43.3247 14.8989 43.8101 14.8989C44.4876 14.8989 44.9932 14.4689 44.9932 13.9189Z" fill="white"/>
<path d="M47.1875 9.7389C47.1875 9.4289 47.4302 9.1889 47.774 9.1889C48.1178 9.1889 48.3504 9.4289 48.3504 9.7389C48.3504 10.0489 48.1077 10.2789 47.774 10.2789C47.4403 10.2789 47.1875 10.0389 47.1875 9.7389ZM47.319 11.0689H48.2189V15.5689H47.319V11.0689Z" fill="white"/>
<path d="M51.303 13.9789L50.312 15.5789H49.321L50.8277 13.3389L49.3008 11.0789H50.3524L51.3333 12.6689H51.4041L52.3748 11.0789H53.3759L51.8793 13.2989L53.3961 15.5789H52.3647L51.3737 13.9789H51.303Z" fill="white"/>
<path d="M54.1846 14.2989C54.1846 13.4889 54.7913 13.0189 55.8733 12.9589L57.1069 12.8889V12.4989C57.1069 12.0189 56.7935 11.7589 56.1766 11.7589C55.671 11.7589 55.3272 11.9389 55.2261 12.2589H54.3565C54.4475 11.4889 55.1857 10.9889 56.2171 10.9889C57.3597 10.9889 58.0069 11.5489 58.0069 12.4989V15.5789H57.1373V14.9489H57.0665C56.7935 15.3989 56.298 15.6589 55.7014 15.6589C54.8216 15.6589 54.1846 15.1389 54.1846 14.3089V14.2989ZM57.1069 13.9189V13.5389L55.9946 13.6089C55.3677 13.6489 55.0845 13.8589 55.0845 14.2589C55.0845 14.6589 55.4385 14.8989 55.9238 14.8989C56.6013 14.8989 57.1069 14.4689 57.1069 13.9189Z" fill="white"/>
<path d="M59.4126 11.0689H60.2822V11.7589H60.353C60.4845 11.3189 60.9901 10.9889 61.5867 10.9889C61.7181 10.9889 61.89 10.9989 61.9912 11.0289V11.9089C61.9204 11.8889 61.6473 11.8589 61.4856 11.8589C60.8081 11.8589 60.3227 12.2889 60.3227 12.9189V15.5789H59.4227V11.0789L59.4126 11.0689Z" fill="white"/>
<path d="M65.4395 11.0689H66.3091V11.7889H66.3799C66.6023 11.2889 67.0574 10.9889 67.7349 10.9889C68.7461 10.9889 69.3123 11.5889 69.3123 12.6589V15.5789H68.4124V12.8889C68.4124 12.1689 68.0989 11.8089 67.4315 11.8089C66.7641 11.8089 66.3394 12.2489 66.3394 12.9489V15.5789H65.4395V11.0789V11.0689Z" fill="white"/>
<path d="M70.4346 14.2989C70.4346 13.4889 71.0413 13.0189 72.1233 12.9589L73.3569 12.8889V12.4989C73.3569 12.0189 73.0435 11.7589 72.4266 11.7589C71.921 11.7589 71.5772 11.9389 71.4761 12.2589H70.6065C70.6975 11.4889 71.4357 10.9889 72.4671 10.9889C73.6097 10.9889 74.2569 11.5489 74.2569 12.4989V15.5789H73.3873V14.9489H73.3165C73.0435 15.3989 72.548 15.6589 71.9514 15.6589C71.0716 15.6589 70.4346 15.1389 70.4346 14.3089V14.2989ZM73.3569 13.9189V13.5389L72.2446 13.6089C71.6177 13.6489 71.3345 13.8589 71.3345 14.2589C71.3345 14.6589 71.6884 14.8989 72.1738 14.8989C72.8513 14.8989 73.3569 14.4689 73.3569 13.9189Z" fill="white"/>
</g>
<defs>
<clipPath id="clip0_469_45292">
<rect width="121" height="40" fill="white" transform="translate(0.5 0.878906)"/>
</clipPath>
</defs>
</svg>
