<svg width="2160" height="2340" viewBox="0 0 2160 2340" fill="none" xmlns="http://www.w3.org/2000/svg">
<g clip-path="url(#clip0_3230_11902)">
<path opacity="0.8" fill-rule="evenodd" clip-rule="evenodd" d="M649.513 1421.63L206.407 -1115.88C205.474 -1121.22 209.344 -1126.91 214.543 -1127.83L1169.38 -1298C1173.52 -1298.74 1177.11 -1296.15 1177.85 -1291.9L1387.7 -90.1661C1391.32 -69.4093 1410.37 -58.262 1430.24 -65.2678L2544.34 -458.039C2549.32 -459.794 2553.97 -456.611 2554.28 -451.239L2621.97 727.346C2622.23 731.881 2619.27 736.41 2615.06 737.892L659.331 1427.38C654.745 1429 650.349 1426.42 649.513 1421.63ZM635.674 1426.51C637.905 1439.29 649.626 1446.15 661.855 1441.83L2617.59 752.347C2628.79 748.396 2636.71 736.319 2636.01 724.223L2568.32 -454.361C2567.5 -468.686 2555.09 -477.174 2541.81 -472.494L1427.72 -79.7229C1415.49 -75.4116 1403.77 -82.2715 1401.54 -95.0451L1191.69 -1296.78C1189.71 -1308.12 1180.14 -1315.01 1169.1 -1313.05L214.262 -1142.88C200.399 -1140.41 190.08 -1125.25 192.568 -1111L635.674 1426.51Z" fill="url(#paint0_linear_3230_11902)"/>
</g>
<defs>
<linearGradient id="paint0_linear_3230_11902" x1="639.713" y1="1449.64" x2="2799.41" y2="1072.51" gradientUnits="userSpaceOnUse">
<stop stop-color="#8CD133"/>
<stop offset="0.142857" stop-color="#54D560"/>
<stop offset="0.285714" stop-color="#00D689"/>
<stop offset="0.428571" stop-color="#00D5AF"/>
<stop offset="0.571429" stop-color="#00D1CF"/>
<stop offset="0.714286" stop-color="#00CCE8"/>
<stop offset="0.857143" stop-color="#00C5F6"/>
<stop offset="1" stop-color="#05BDFB"/>
</linearGradient>
<clipPath id="clip0_3230_11902">
<rect width="2160" height="2340" fill="white"/>
</clipPath>
</defs>
</svg>
