<svg width="136" height="41" viewBox="0 0 136 41" fill="none" xmlns="http://www.w3.org/2000/svg">
<path d="M130.5 0.878906H5.5C2.73858 0.878906 0.5 3.11748 0.5 5.87891V35.8789C0.5 38.6403 2.73858 40.8789 5.5 40.8789H130.5C133.261 40.8789 135.5 38.6403 135.5 35.8789V5.87891C135.5 3.11748 133.261 0.878906 130.5 0.878906Z" fill="black"/>
<path d="M130.5 1.67891C132.82 1.67891 134.7 3.55891 134.7 5.87891V35.8789C134.7 38.1989 132.82 40.0789 130.5 40.0789H5.5C3.18 40.0789 1.3 38.1989 1.3 35.8789V5.87891C1.3 3.55891 3.18 1.67891 5.5 1.67891H130.5ZM130.5 0.878906H5.5C2.75 0.878906 0.5 3.12891 0.5 5.87891V35.8789C0.5 38.6289 2.75 40.8789 5.5 40.8789H130.5C133.25 40.8789 135.5 38.6289 135.5 35.8789V5.87891C135.5 3.12891 133.25 0.878906 130.5 0.878906Z" fill="#A6A6A6"/>
<path d="M68.6398 22.6289C66.2898 22.6289 64.3698 24.4189 64.3698 26.8789C64.3698 29.3389 66.2898 31.1289 68.6398 31.1289C70.9898 31.1289 72.9098 29.3289 72.9098 26.8789C72.9098 24.4289 70.9898 22.6289 68.6398 22.6289ZM68.6398 29.4589C67.3498 29.4589 66.2398 28.3989 66.2398 26.8789C66.2398 25.3589 67.3498 24.2989 68.6398 24.2989C69.9298 24.2989 71.0398 25.3489 71.0398 26.8789C71.0398 28.4089 69.9298 29.4589 68.6398 29.4589ZM59.3298 22.6289C56.9798 22.6289 55.0598 24.4189 55.0598 26.8789C55.0598 29.3389 56.9798 31.1289 59.3298 31.1289C61.6798 31.1289 63.5998 29.3289 63.5998 26.8789C63.5998 24.4289 61.6798 22.6289 59.3298 22.6289ZM59.3298 29.4589C58.0398 29.4589 56.9298 28.3989 56.9298 26.8789C56.9298 25.3589 58.0398 24.2989 59.3298 24.2989C60.6198 24.2989 61.7298 25.3489 61.7298 26.8789C61.7298 28.4089 60.6198 29.4589 59.3298 29.4589ZM48.2498 23.9289V25.7289H52.5698C52.4398 26.7489 52.0998 27.4889 51.5898 27.9989C50.9598 28.6289 49.9798 29.3189 48.2598 29.3189C45.5998 29.3189 43.5198 27.1789 43.5198 24.5189C43.5198 21.8589 45.5998 19.7189 48.2598 19.7189C49.6898 19.7189 50.7398 20.2789 51.5098 21.0089L52.7798 19.7389C51.6998 18.7089 50.2698 17.9189 48.2498 17.9189C44.6098 17.9189 41.5498 20.8789 41.5498 24.5289C41.5498 28.1789 44.6098 31.1389 48.2498 31.1389C50.2198 31.1389 51.6998 30.4989 52.8598 29.2889C54.0498 28.0989 54.4198 26.4189 54.4198 25.0689C54.4198 24.6489 54.3898 24.2589 54.3198 23.9389H48.2498V23.9289ZM93.5598 25.3289C93.2098 24.3789 92.1298 22.6189 89.9198 22.6189C87.7098 22.6189 85.9098 24.3389 85.9098 26.8689C85.9098 29.2489 87.7098 31.1189 90.1298 31.1189C92.0798 31.1189 93.2098 29.9289 93.6698 29.2389L92.2198 28.2689C91.7398 28.9789 91.0798 29.4489 90.1298 29.4489C89.1798 29.4489 88.4998 29.0089 88.0698 28.1589L93.7598 25.8089L93.5698 25.3289H93.5598ZM87.7598 26.7489C87.7098 25.1089 89.0298 24.2689 89.9798 24.2689C90.7198 24.2689 91.3498 24.6389 91.5598 25.1689L87.7598 26.7489ZM83.1398 30.8689H85.0098V18.3689H83.1398V30.8689ZM80.0798 23.5689H80.0198C79.5998 23.0689 78.7998 22.6189 77.7798 22.6189C75.6498 22.6189 73.6998 24.4889 73.6998 26.8889C73.6998 29.2889 75.6498 31.1289 77.7798 31.1289C78.7998 31.1289 79.5998 30.6789 80.0198 30.1589H80.0798V30.7689C80.0798 32.3989 79.2098 33.2689 77.8098 33.2689C76.6698 33.2689 75.9598 32.4489 75.6698 31.7589L74.0398 32.4389C74.5098 33.5689 75.7498 34.9489 77.8098 34.9489C79.9998 34.9489 81.8498 33.6589 81.8498 30.5189V22.8789H80.0798V23.5689ZM77.9398 29.4489C76.6498 29.4489 75.5698 28.3689 75.5698 26.8889C75.5698 25.4089 76.6498 24.2989 77.9398 24.2989C79.2298 24.2989 80.2098 25.3989 80.2098 26.8889C80.2098 28.3789 79.2098 29.4489 77.9398 29.4489ZM102.32 18.3689H97.8498V30.8689H99.7198V26.1289H102.33C104.4 26.1289 106.43 24.6289 106.43 22.2489C106.43 19.8689 104.4 18.3689 102.33 18.3689H102.32ZM102.37 24.3989H99.7198V20.1089H102.37C103.77 20.1089 104.56 21.2689 104.56 22.2489C104.56 23.2289 103.77 24.3889 102.37 24.3889V24.3989ZM113.9 22.5989C112.55 22.5989 111.15 23.1989 110.57 24.5089L112.23 25.1989C112.58 24.5089 113.24 24.2789 113.93 24.2789C114.89 24.2789 115.88 24.8589 115.89 25.8889V26.0189C115.55 25.8289 114.83 25.5389 113.94 25.5389C112.15 25.5389 110.34 26.5189 110.34 28.3489C110.34 30.0189 111.8 31.0989 113.44 31.0989C114.69 31.0989 115.39 30.5389 115.82 29.8789H115.88V30.8489H117.68V26.0589C117.68 23.8389 116.02 22.5989 113.88 22.5989H113.9ZM113.67 29.4489C113.06 29.4489 112.21 29.1389 112.21 28.3889C112.21 27.4289 113.27 27.0589 114.19 27.0589C115.01 27.0589 115.4 27.2389 115.89 27.4789C115.75 28.6389 114.75 29.4589 113.67 29.4589V29.4489ZM124.25 22.8689L122.11 28.2889H122.05L119.83 22.8689H117.82L121.15 30.4489L119.25 34.6589H121.2L126.33 22.8689H124.26H124.25ZM107.44 30.8689H109.31V18.3689H107.44V30.8689Z" fill="white"/>
<path d="M10.94 8.41679C10.65 8.72679 10.48 9.20679 10.48 9.81679V31.9368C10.48 32.5568 10.65 33.0368 10.94 33.3368L11.01 33.4068L23.4 21.0168V20.7268L11.01 8.33679L10.94 8.40679V8.41679Z" fill="url(#paint0_linear_469_45346)"/>
<path d="M27.5304 25.1593L23.4004 21.0293V20.7393L27.5304 16.6093L27.6204 16.6593L32.5104 19.4393C33.9104 20.2293 33.9104 21.5293 32.5104 22.3293L27.6204 25.1093L27.5304 25.1593Z" fill="url(#paint1_linear_469_45346)"/>
<path d="M27.6204 25.0984L23.4004 20.8784L10.9404 33.3384C11.4004 33.8284 12.1604 33.8884 13.0204 33.3984L27.6304 25.0984" fill="url(#paint2_linear_469_45346)"/>
<path d="M27.6202 16.6577L13.0102 8.35767C12.1502 7.86767 11.3902 7.92767 10.9302 8.41767L23.3902 20.8777L27.6102 16.6577H27.6202Z" fill="url(#paint3_linear_469_45346)"/>
<path opacity="0.2" d="M27.5295 25.0065L13.0095 33.2565C12.1995 33.7165 11.4695 33.6865 11.0095 33.2665L10.9395 33.3365L11.0095 33.4065C11.4795 33.8265 12.1995 33.8565 13.0095 33.3965L27.6195 25.0965L27.5295 25.0065Z" fill="black"/>
<path opacity="0.12" d="M10.94 33.1956C10.65 32.8856 10.48 32.4056 10.48 31.7956V31.9456C10.48 32.5656 10.65 33.0456 10.94 33.3456L11.01 33.2756L10.94 33.2056V33.1956Z" fill="black"/>
<path opacity="0.12" d="M32.51 22.1784L27.52 25.0084L27.61 25.0984L32.5 22.3184C33.2 21.9184 33.55 21.3984 33.55 20.8784C33.49 21.3484 33.14 21.8184 32.5 22.1784H32.51Z" fill="black"/>
<path opacity="0.25" d="M13.0102 8.49878L32.5102 19.5788C33.1402 19.9388 33.5002 20.3988 33.5602 20.8788C33.5602 20.3588 33.2102 19.8288 32.5102 19.4388L13.0102 8.35878C11.6102 7.56878 10.4702 8.22878 10.4702 9.82878V9.97878C10.4702 8.37878 11.6102 7.71878 13.0102 8.50878V8.49878Z" fill="white"/>
<path d="M41.8398 13.879V7.87897H43.6698C44.5898 7.87897 45.3298 8.15897 45.8798 8.70897C46.4298 9.26897 46.7098 9.98897 46.7098 10.879C46.7098 11.769 46.4298 12.489 45.8798 13.049C45.3298 13.609 44.5898 13.879 43.6698 13.879H41.8398ZM42.6098 13.139H43.6698C44.3598 13.139 44.9098 12.939 45.3198 12.539C45.7298 12.139 45.9298 11.589 45.9298 10.869C45.9298 10.149 45.7298 9.60897 45.3198 9.20897C44.9098 8.80897 44.3698 8.60897 43.6698 8.60897H42.6098V13.139Z" fill="white" stroke="white" stroke-width="0.2" stroke-miterlimit="10"/>
<path d="M47.7998 13.879V7.87897H48.5698V13.879H47.7998Z" fill="white" stroke="white" stroke-width="0.2" stroke-miterlimit="10"/>
<path d="M51.6298 14.0101C51.1898 14.0101 50.7698 13.8701 50.3498 13.5801C49.9298 13.2901 49.6598 12.9001 49.5298 12.3801L50.2298 12.1001C50.3098 12.4301 50.4798 12.7101 50.7398 12.9301C50.9998 13.1601 51.2898 13.2701 51.6198 13.2701C51.9498 13.2701 52.2398 13.1801 52.4798 13.0101C52.7198 12.8401 52.8398 12.6001 52.8398 12.2901C52.8398 11.9601 52.7198 11.7001 52.4798 11.5201C52.2398 11.3401 51.8698 11.1701 51.3498 11.0101C50.8198 10.8401 50.4198 10.6301 50.1398 10.3601C49.8698 10.0901 49.7298 9.76011 49.7298 9.34011C49.7298 8.92011 49.8998 8.54011 50.2398 8.22011C50.5798 7.90011 51.0298 7.74011 51.5698 7.74011C52.0798 7.74011 52.4898 7.87011 52.8098 8.12011C53.1298 8.37011 53.3398 8.65011 53.4298 8.95011L52.7298 9.24011C52.6798 9.05011 52.5598 8.87011 52.3598 8.71011C52.1598 8.55011 51.9098 8.47011 51.5898 8.47011C51.2898 8.47011 51.0398 8.55011 50.8298 8.72011C50.6198 8.88011 50.5198 9.09011 50.5198 9.34011C50.5198 9.56011 50.6198 9.75011 50.8098 9.91011C50.9998 10.0601 51.2898 10.2001 51.6598 10.3201C51.9598 10.4201 52.1998 10.5101 52.3998 10.6001C52.5998 10.6901 52.7998 10.8101 52.9998 10.9601C53.1998 11.1101 53.3598 11.2901 53.4598 11.5101C53.5598 11.7301 53.6198 11.9901 53.6198 12.2801C53.6198 12.5701 53.5598 12.8301 53.4398 13.0601C53.3198 13.2901 53.1598 13.4701 52.9598 13.6001C52.7598 13.7301 52.5498 13.8401 52.3198 13.9101C52.0898 13.9801 51.8598 14.0101 51.6198 14.0101H51.6298Z" fill="white" stroke="white" stroke-width="0.2" stroke-miterlimit="10"/>
<path d="M55.5098 13.879H54.7397V7.87897H56.7797C57.2897 7.87897 57.7297 8.04897 58.0997 8.38897C58.4697 8.72897 58.6598 9.14897 58.6598 9.66897C58.6598 10.189 58.4697 10.609 58.0997 10.949C57.7297 11.289 57.2897 11.459 56.7797 11.459H55.5098V13.889V13.879ZM55.5098 10.709H56.7998C57.1198 10.709 57.3798 10.599 57.5798 10.379C57.7798 10.159 57.8698 9.91897 57.8698 9.65897C57.8698 9.39897 57.7698 9.15897 57.5798 8.93897C57.3798 8.71897 57.1198 8.60897 56.7998 8.60897H55.5098V10.699V10.709Z" fill="white" stroke="white" stroke-width="0.2" stroke-miterlimit="10"/>
<path d="M64.5398 13.1002C63.9498 13.7102 63.2198 14.0102 62.3398 14.0102C61.4598 14.0102 60.7298 13.7102 60.1398 13.1002C59.5498 12.4902 59.2598 11.7502 59.2598 10.8802C59.2598 10.0102 59.5498 9.26018 60.1398 8.66018C60.7298 8.05018 61.4598 7.75018 62.3398 7.75018C63.2198 7.75018 63.9398 8.05018 64.5398 8.66018C65.1298 9.27018 65.4298 10.0102 65.4298 10.8802C65.4298 11.7502 65.1298 12.5002 64.5498 13.1002H64.5398ZM60.7098 12.6002C61.1498 13.0502 61.6998 13.2702 62.3398 13.2702C62.9798 13.2702 63.5298 13.0502 63.9698 12.6002C64.4098 12.1502 64.6398 11.5802 64.6398 10.8802C64.6398 10.1802 64.4198 9.61018 63.9698 9.16018C63.5298 8.71018 62.9798 8.49018 62.3398 8.49018C61.6998 8.49018 61.1498 8.71018 60.7098 9.16018C60.2698 9.61018 60.0398 10.1802 60.0398 10.8802C60.0398 11.5802 60.2598 12.1502 60.7098 12.6002Z" fill="white" stroke="white" stroke-width="0.2" stroke-miterlimit="10"/>
<path d="M66.5098 13.879V7.87897H67.4498L70.3698 12.549H70.3998L70.3698 11.389V7.87897H71.1398V13.879H70.3398L67.2898 8.98897H67.2598L67.2898 10.149V13.889H66.5198L66.5098 13.879Z" fill="white" stroke="white" stroke-width="0.2" stroke-miterlimit="10"/>
<path d="M72.5098 13.8792V7.87923H73.2798V13.8792H72.5098ZM73.2298 7.40923H72.5598L72.9998 6.33923H73.8398L73.2398 7.40923H73.2298Z" fill="white" stroke="white" stroke-width="0.2" stroke-miterlimit="10"/>
<path d="M76.1398 13.879L74.0298 7.87897H74.8798L76.5198 12.749H76.5498L78.2598 7.87897H79.1098L76.9298 13.879H76.1298H76.1398Z" fill="white" stroke="white" stroke-width="0.2" stroke-miterlimit="10"/>
<path d="M83.5 8.61897H80.77V10.519H83.23V11.239H80.77V13.139H83.5V13.879H80V7.87897H83.5V8.61897Z" fill="white" stroke="white" stroke-width="0.2" stroke-miterlimit="10"/>
<path d="M84.6997 13.879V7.87897H85.4697V13.139H88.0697V13.879H84.6997Z" fill="white" stroke="white" stroke-width="0.2" stroke-miterlimit="10"/>
<path d="M91.0498 13.879V7.87897H91.9898L94.9098 12.549H94.9398L94.9098 11.389V7.87897H95.6798V13.879H94.8798L91.8298 8.98897H91.7998L91.8298 10.149V13.889H91.0598L91.0498 13.879Z" fill="white" stroke="white" stroke-width="0.2" stroke-miterlimit="10"/>
<path d="M101.96 13.1002C101.37 13.7102 100.64 14.0102 99.7597 14.0102C98.8797 14.0102 98.1497 13.7102 97.5597 13.1002C96.9697 12.4902 96.6797 11.7502 96.6797 10.8802C96.6797 10.0102 96.9697 9.26018 97.5597 8.66018C98.1497 8.05018 98.8797 7.75018 99.7597 7.75018C100.64 7.75018 101.36 8.05018 101.96 8.66018C102.55 9.27018 102.85 10.0102 102.85 10.8802C102.85 11.7502 102.56 12.5002 101.97 13.1002H101.96ZM98.1297 12.6002C98.5697 13.0502 99.1197 13.2702 99.7597 13.2702C100.4 13.2702 100.95 13.0502 101.39 12.6002C101.83 12.1502 102.06 11.5802 102.06 10.8802C102.06 10.1802 101.84 9.61018 101.39 9.16018C100.95 8.71018 100.4 8.49018 99.7597 8.49018C99.1197 8.49018 98.5697 8.71018 98.1297 9.16018C97.6897 9.61018 97.4597 10.1802 97.4597 10.8802C97.4597 11.5802 97.6797 12.1502 98.1297 12.6002Z" fill="white" stroke="white" stroke-width="0.2" stroke-miterlimit="10"/>
<defs>
<linearGradient id="paint0_linear_469_45346" x1="22.3" y1="9.58679" x2="5.51998" y2="26.3668" gradientUnits="userSpaceOnUse">
<stop stop-color="#00A1FF"/>
<stop offset="0.26" stop-color="#00BEFF"/>
<stop offset="0.51" stop-color="#00D2FF"/>
<stop offset="0.76" stop-color="#00DFFF"/>
<stop offset="1" stop-color="#00E3FF"/>
</linearGradient>
<linearGradient id="paint1_linear_469_45346" x1="34.3304" y1="20.8793" x2="10.1404" y2="20.8793" gradientUnits="userSpaceOnUse">
<stop stop-color="#FFE000"/>
<stop offset="0.41" stop-color="#FFBD00"/>
<stop offset="0.78" stop-color="#FFA500"/>
<stop offset="1" stop-color="#FF9C00"/>
</linearGradient>
<linearGradient id="paint2_linear_469_45346" x1="25.3304" y1="23.1784" x2="2.57043" y2="45.9284" gradientUnits="userSpaceOnUse">
<stop stop-color="#FF3A44"/>
<stop offset="1" stop-color="#C31162"/>
</linearGradient>
<linearGradient id="paint3_linear_469_45346" x1="7.80018" y1="1.05767" x2="17.9602" y2="11.2177" gradientUnits="userSpaceOnUse">
<stop stop-color="#32A071"/>
<stop offset="0.07" stop-color="#2DA771"/>
<stop offset="0.48" stop-color="#15CF74"/>
<stop offset="0.8" stop-color="#06E775"/>
<stop offset="1" stop-color="#00F076"/>
</linearGradient>
</defs>
</svg>
