<?xml version="1.0" encoding="UTF-8"?>
<svg id="Camada_1" data-name="Camada 1" xmlns="http://www.w3.org/2000/svg" width="72" height="48" viewBox="0 0 72 48">
  <rect width="72" height="48" rx="6" ry="6" fill="#e7f374"/>
  <g>
    <path d="m44.37,8c-3.31,0-6.36,1.01-8.91,2.72-.18.12-1.43,1.02-1.48,1.06-2.08,1.56-3.47,1.84-5.39,1.35-.12-.03-.67-.22-.84-.28-1.3-.5-2.73-.77-4.2-.77-6.59,0-11.93,5.34-11.93,11.92s5.34,11.92,11.92,11.92c1.31,0,2.59-.22,3.77-.61,2.86-.86,4.4-.62,6.18.65.36.25,1.22.81,1.39.94,2.65,1.95,5.93,3.12,9.48,3.12,8.84,0,16-7.16,16-16s-7.17-16.01-16-16.01Z" fill="#007858"/>
    <path d="m38.6,26.46c-.53.51-1.24.83-2.03.82-.54-.01-1.05-.17-1.47-.44l-1.07,1.68c.73.46,1.58.73,2.5.75,1.34.02,2.56-.51,3.45-1.37l-1.38-1.43Z" fill="#fff"/>
    <path d="m36.69,19.6c-2.67-.04-4.87,2.09-4.91,4.76-.02,1,.28,1.93.79,2.71l8.75-3.74c-.49-2.11-2.36-3.69-4.63-3.72Zm-2.9,5.13c0-.11-.02-.23-.02-.35.02-1.57,1.31-2.83,2.89-2.8.86,0,1.61.41,2.13,1.01l-5,2.14Z" fill="#fff"/>
    <path d="m44.06,17.42v9.33l1.61.67-.77,1.84-1.6-.67c-.36-.15-.61-.4-.79-.67-.18-.27-.31-.65-.31-1.15v-9.36h1.85Z" fill="#fff"/>
    <path d="m29.98,17.42v9.33l1.61.67-.77,1.84-1.6-.67c-.36-.15-.61-.4-.79-.67-.18-.27-.31-.65-.31-1.15v-9.36h1.85Z" fill="#fff"/>
    <path d="m52.03,21.86c1.41.68,2.01,2.38,1.33,3.79l1.79.86c1.15-2.41.14-5.29-2.26-6.45-1.83-.88-3.93-.51-5.35.79l1.33,1.47c.84-.75,2.07-.98,3.15-.46Z" fill="#c7d540"/>
    <path d="m49.56,27c-1.41-.68-2.01-2.38-1.33-3.79l-1.79-.86c-1.15,2.41-.14,5.3,2.26,6.45,1.83.88,3.93.51,5.35-.79l-1.33-1.47c-.83.75-2.06.98-3.15.46Z" fill="#fff"/>
    <path d="m26.31,27.13v-2.69h0c0-2.16-1.41-3.99-3.37-4.61-.46-.15-.96-.23-1.46-.23s-.99.08-1.43.22c-.76.24-1.43.65-1.97,1.19-.88.88-1.41,2.08-1.41,3.42,0,2.67,2.16,4.82,4.82,4.82.77,0,1.5-.18,2.15-.51l-.78-1.82c-.41.23-.87.35-1.37.35-1.57,0-2.85-1.27-2.85-2.85,0-.49.12-.94.34-1.33.38-.72,1.07-1.24,1.87-1.43.21-.05.42-.08.64-.08.42,0,.82.1,1.17.26.99.45,1.67,1.44,1.67,2.59v2.68c0,.51.13.89.31,1.15.18.27.43.51.79.67l.91.36.77-1.84-.79-.31Z" fill="#fff"/>
  </g>
</svg>