<?xml version="1.0" encoding="UTF-8"?>
<svg id="Camada_1" data-name="Camada 1" xmlns="http://www.w3.org/2000/svg" width="72" height="48" viewBox="0 0 72 48">
  <path d="m0,28.12v13.88c0,3.31,2.69,6,6,6h60c3.31,0,6-2.69,6-6v-12.23c-12.98-4.41-36.06-11.03-72-1.66Z" fill="#efd200"/>
  <path d="m66,0H6C2.69,0,0,2.69,0,6v14.58c35.73-9.67,63.31-1.91,72,1.33V6c0-3.31-2.69-6-6-6Z" fill="#253e8c"/>
  <path d="m15.57,39.26l4.89-7.29h1.81l5.2,7.29h-1.92l-1.49-2.21h-5.32l-1.4,2.21h-1.78Zm3.67-3h4.31l-1.33-2.02c-.4-.61-.7-1.12-.9-1.51-.16.47-.4.94-.68,1.4l-1.4,2.13Zm16.77,3v-.77c-.72.59-1.69.9-2.92.9-.54,0-1.05-.06-1.52-.18-.47-.12-.82-.27-1.04-.45-.23-.18-.39-.41-.49-.67-.06-.18-.1-.46-.1-.84v-3.28h1.57v2.93c0,.47.04.78.1.95.1.23.31.41.62.56.31.14.71.2,1.18.2s.91-.06,1.31-.21c.41-.14.7-.32.87-.56.17-.24.26-.59.26-1.04v-2.84h1.56v5.28h-1.4s0,0,0,0Zm5.18,0v-5.28h1.4v.8c.36-.38.69-.62,1-.74.31-.12.64-.18,1-.18.53,0,1.06.1,1.6.29l-.54.83c-.38-.14-.76-.2-1.14-.2-.34,0-.65.06-.92.18s-.47.28-.58.5c-.17.32-.26.67-.26,1.04v2.76h-1.57Zm13.3-.66c-.58.28-1.13.48-1.67.59-.53.12-1.11.17-1.72.17-1.01,0-1.79-.14-2.33-.42-.54-.29-.82-.65-.82-1.09,0-.26.1-.5.31-.71.21-.22.48-.39.8-.51.33-.13.7-.23,1.12-.3.31-.05.76-.09,1.39-.14,1.26-.09,2.19-.19,2.78-.31,0-.13,0-.2,0-.23,0-.37-.15-.62-.44-.77-.4-.21-.99-.31-1.77-.31-.74,0-1.28.07-1.63.23-.35.15-.61.41-.77.78l-1.52-.12c.14-.37.37-.68.68-.91s.78-.41,1.38-.53c.6-.13,1.3-.19,2.09-.19s1.42.05,1.92.16c.49.11.85.24,1.09.41s.39.36.49.61c.05.15.07.42.07.83v1.2c0,.84.04,1.36.1,1.58.06.23.2.43.4.64h-1.63c-.16-.19-.26-.41-.31-.66h0Zm-.13-2c-.57.14-1.42.24-2.55.34-.64.05-1.1.11-1.36.18-.27.06-.48.16-.61.29-.14.13-.22.27-.22.42,0,.24.16.44.48.59s.77.24,1.38.24,1.13-.07,1.6-.23.81-.36,1.03-.62c.17-.2.25-.5.25-.9v-.32h0Z" fill="#2c328c"/>
  <path d="m49.02,17.06c-1.29-5.63-6.01-9.9-13.09-9.96-7.09-.06-11.17,4.45-12.95,9.68,9.82-.93,18.61-.61,26.04.28Z" fill="#efd200"/>
  <path d="m49.02,17.06c-2.98-.36-6.2-.62-9.6-.74-.74-.03-1.47-.05-2.21-.07-.16,0-.31,0-.47-.01-.7-.01-1.41-.01-2.13,0-3.69,0-7.57.17-11.63.55-7.16.68-14.86,2.01-22.98,4.29v7.04c35.9-9.37,58.95-2.75,71.92,1.66h.08v-7.32c-4-1.55-12.01-4.08-22.98-5.39Z" fill="#dd4739"/>
</svg>