<?xml version="1.0" encoding="UTF-8"?>
<svg id="Camada_1" data-name="Camada 1" xmlns="http://www.w3.org/2000/svg" width="72" height="48" viewBox="0 0 72 48">
  <path d="m6.02,0h59.97c3.32,0,6.02,2.7,6.02,6.01v35.98c0,3.31-2.7,6.01-6.02,6.01H6.02c-3.32,0-6.02-2.7-6.02-6.01V6.01C0,2.7,2.7,0,6.02,0Z" fill="#fcdc33"/>
  <path d="m36,10.79l-13.07,8.76,5.45,3.55,6.49-4.4-2.56-1.66,3.55-2.37,7.67,5.11-12.65,8.38,2.75,1.8,15.68-10.41-.05-.05s-13.26-8.71-13.26-8.71Zm13.03,0l-5.45,3.6,2.75,1.85,2.7-1.85v-3.6Zm-26.19,26.37l5.45-3.6-2.75-1.85-2.7,1.85v3.6Z" fill="#013f80" fill-rule="evenodd"/>
  <path d="m36,37.16l13.07-8.76-5.45-3.55-6.49,4.4,2.61,1.7-3.55,2.37-7.67-5.11,12.6-8.47-2.75-1.8-15.68,10.46h.05l13.26,8.76Z" fill="#013f80" fill-rule="evenodd"/>
</svg>