<?xml version="1.0" encoding="UTF-8"?>
<svg id="Camada_1" data-name="Camada 1" xmlns="http://www.w3.org/2000/svg" width="72" height="48" viewBox="0 0 72 48">
  <rect width="72" height="48" rx="6" ry="6" fill="#d5f0ff"/>
  <path d="m39.68,40c8.75.04,16.74-7.13,16.74-15.86,0-9.55-7.99-16.14-16.74-16.14h-7.53c-8.86,0-16.15,6.6-16.15,16.14,0,8.73,7.29,15.9,16.15,15.86h7.53Z" fill="#0079be"/>
  <path d="m32.18,9.32c-8.09,0-14.65,6.56-14.65,14.65,0,8.09,6.56,14.65,14.65,14.65,8.1,0,14.65-6.56,14.66-14.65,0-8.09-6.56-14.65-14.66-14.65Zm-9.29,14.65c0-3.84,2.38-7.29,5.96-8.66v17.33c-3.59-1.38-5.96-4.82-5.96-8.66Zm12.61,8.67V15.31c3.59,1.38,5.96,4.82,5.97,8.67,0,3.84-2.38,7.29-5.97,8.67h0Z" fill="#fff"/>
</svg>