<?xml version="1.0" encoding="UTF-8"?>
<svg id="Camada_1" data-name="Camada 1" xmlns="http://www.w3.org/2000/svg" width="72" height="48" xmlns:xlink="http://www.w3.org/1999/xlink" viewBox="0 0 72 48">
  <defs>
    <radialGradient id="radial-gradient" cx="-463.96" cy="350.85" fx="-463.96" fy="350.85" r="1" gradientTransform="translate(2331.97 1791.42) scale(4.94 -5.06)" gradientUnits="userSpaceOnUse">
      <stop offset="0" stop-color="#ffefe1"/>
      <stop offset=".1" stop-color="#ffead8"/>
      <stop offset=".25" stop-color="#fedec1"/>
      <stop offset=".43" stop-color="#fdca9e"/>
      <stop offset=".65" stop-color="#faaf72"/>
      <stop offset=".9" stop-color="#f79038"/>
      <stop offset="1" stop-color="#f58220"/>
    </radialGradient>
  </defs>
  <rect width="72" height="48" rx="6" ry="6" fill="#fff"/>
  <path d="m38.01,12c-2.76,0-5.01,2.21-5.01,4.93,0,2.9,2.15,5.07,5.01,5.07s4.99-2.2,4.99-5.01-2.19-4.99-4.99-4.99Z" fill="url(#radial-gradient)"/>
  <path d="m9.66,12.2h0s-2.66,0-2.66,0v9.03h2.64c1.4,0,2.42-.32,3.31-1.04,1.05-.85,1.68-2.14,1.68-3.47,0-2.67-2.04-4.52-4.97-4.52Zm2.11,6.78c-.57.5-1.31.72-2.48.72h-.49v-5.97h.49c1.17,0,1.88.2,2.48.73.62.54,1,1.38,1,2.25s-.37,1.73-1,2.27Z"/>
  <rect x="15.47" y="12.2" width="1.81" height="9.03"/>
  <path d="m21.69,15.67c-1.09-.39-1.4-.65-1.4-1.14,0-.57.57-1,1.35-1,.54,0,.99.22,1.46.73l.94-1.2c-.76-.65-1.72-1.01-2.72-1-1.64,0-2.89,1.11-2.89,2.59,0,1.25.58,1.88,2.28,2.48.71.24,1.07.4,1.25.51.36.23.54.56.54.93,0,.73-.6,1.27-1.41,1.27-.86,0-1.56-.42-1.97-1.2l-1.17,1.1c.83,1.19,1.83,1.72,3.21,1.72,1.88,0,3.19-1.22,3.19-2.97,0-1.43-.61-2.08-2.67-2.82Z"/>
  <path d="m24.92,16.72c0,2.66,2.14,4.71,4.89,4.71.78,0,1.44-.15,2.27-.53v-2.07c-.72.7-1.36.99-2.18.99-1.82,0-3.11-1.29-3.11-3.11,0-1.73,1.33-3.1,3.03-3.1.86,0,1.51.3,2.27,1.02v-2.07c-.79-.39-1.45-.55-2.23-.55-2.74,0-4.93,2.1-4.93,4.72Z"/>
  <polygon points="46.73 18.27 44.25 12.2 42.28 12.2 46.21 21.46 47.19 21.46 51.19 12.2 49.23 12.2 46.73 18.27 46.73 18.27"/>
  <polygon points="52.01 21.23 57.14 21.23 57.14 19.7 53.82 19.7 53.82 17.26 57.01 17.26 57.01 15.74 53.82 15.74 53.82 13.73 57.14 13.73 57.14 12.2 52.01 12.2 52.01 21.23 52.01 21.23"/>
  <path d="m62.18,17.43c1.36-.27,2.11-1.18,2.11-2.56h0c0-1.69-1.19-2.66-3.28-2.66h-2.68v9.03h1.81v-3.63h.24l2.5,3.63h2.22l-2.92-3.8Zm-1.52-1.07h-.53v-2.74h.55c1.13,0,1.74.46,1.74,1.34s-.61,1.39-1.77,1.39Z"/>
  <path d="m65.39,13.1c.11-.03.18-.11.18-.22,0-.16-.11-.24-.31-.24h-.26v.8h.19v-.31l.23.31h.24l-.27-.33Zm-.16-.11h-.04v-.21h.04c.1,0,.15.03.15.1s-.05.11-.15.11Z"/>
  <path d="m65.3,12.33c-.39,0-.71.3-.71.69,0,0,0,0,0,0,0,.39.32.7.71.7.39,0,.7-.31.7-.7,0-.39-.32-.7-.7-.69Zm0,1.27c-.31,0-.57-.25-.57-.57s.25-.57.57-.57c.31.02.55.29.54.6-.02.29-.25.52-.54.54Zm-42.1,10.01l2.42,2.47v-2.34h.35v3.16l-2.42-2.46v2.33h-.35v-3.15h0,0Z"/>
  <path d="m23.17,26.79h.41v-2.28l2.42,2.46v-3.27h-.41v2.29c-.1-.11-2.42-2.47-2.42-2.47v3.26h0Zm.06-3.1c.11.11,2.42,2.47,2.42,2.47v-2.39h.28v3.05l-2.42-2.47v2.38h-.28s0-3.04,0-3.04Zm4.41.05h1.61v.31h-1.26v.9h1.23v.31h-1.23v1.19h1.26v.31h-1.6v-3.02h0Z"/>
  <path d="m27.6,23.7v3.08h1.67v-.38h-1.26v-1.12h1.22v-.37h-1.22v-.83h1.26v-.38h-1.67Zm1.61.06v.25h-1.26v.96h1.23v.25h-1.23v1.25h1.26v.25h-1.54v-2.96h1.54Zm2.47,2.99h-.35v-2.71h-.75v-.31h1.85v.31h-.76v2.71s0,0,0,0Z"/>
  <path d="m30.56,23.7v.38h.75v2.71h.41v-2.71h.76v-.38h-1.92Zm1.85.06v.25h-.76v2.71h-.28v-2.71h-.75v-.25h1.79Zm2.34,2.23l1-2.42,1,2.42.81-2.26h.38l-1.19,3.18-1-2.43-1,2.43-1.19-3.18h.37l.81,2.26Z"/>
  <path d="m35.72,23.57s-.91,2.2-.97,2.34l-.79-2.21h-.44l1.24,3.3,1-2.44c.06.14,1,2.44,1,2.44l1.23-3.3h-.44l-.79,2.21-1-2.42s-.03.07-.03.07Zm-.94,2.44s.92-2.21.97-2.35l1.01,2.42.83-2.32h.31c-.03.08-1.09,2.91-1.14,3.06l-1-2.43-1,2.43c-.05-.15-1.11-2.98-1.14-3.06h.31s.84,2.32.84,2.32l.03-.08h0Zm7.63-.76c0,.87-.73,1.56-1.62,1.56s-1.62-.69-1.62-1.56.73-1.57,1.62-1.57,1.62.7,1.62,1.57h0Zm-2.89,0c0,.68.57,1.25,1.27,1.25s1.27-.57,1.27-1.25-.56-1.25-1.27-1.25c-.7,0-1.27.55-1.27,1.25,0,0,0,0,0,0Z"/>
  <path d="m39.15,25.25c0,.88.74,1.59,1.65,1.59s1.65-.71,1.65-1.59-.74-1.6-1.65-1.6c-.91,0-1.65.71-1.65,1.6h0Zm.06,0c0-.85.71-1.53,1.58-1.53s1.58.69,1.58,1.53-.71,1.53-1.58,1.53c-.87,0-1.58-.68-1.58-1.53Z"/>
  <path d="m39.49,25.25c0,.71.59,1.28,1.3,1.28s1.3-.57,1.3-1.28-.58-1.28-1.3-1.28-1.31.57-1.31,1.28Zm.07,0c0-.68.56-1.22,1.24-1.22.68,0,1.24.55,1.24,1.22s-.55,1.22-1.24,1.22c-.68,0-1.23-.54-1.24-1.22Zm4.35,1.51v-3.02h.45c.59,0,1.13.15,1.13.83,0,.47-.3.79-.78.83l.99,1.35h-.42l-.94-1.33h-.09v1.33s-.35,0-.35,0Zm.35-1.62h.11c.39,0,.79-.07.79-.54,0-.5-.38-.55-.79-.55h-.1s0,1.09,0,1.09Z"/>
  <path d="m43.88,23.7v3.08h.41v-1.33h.05s.91,1.31.91,1.31h.45s.06.01.06.01c0,0-.95-1.3-.99-1.37.46-.06.76-.39.76-.85,0-.58-.38-.86-1.17-.86h-.48Zm.48.06c.75,0,1.1.25,1.1.8,0,.45-.29.76-.75.8h-.06s.99,1.35.99,1.35h-.36s-.91-1.31-.91-1.31h-.11s-.03-.01-.03-.01v1.33h-.28v-2.96c.06,0,.42,0,.42,0h0Z"/>
  <path d="m44.22,24.01v1.15h.14c.38,0,.82-.07.82-.57,0-.53-.42-.58-.82-.58h-.14,0Zm.14.07c.4,0,.76.04.76.51,0,.45-.38.51-.75.51h-.07v-1.02h.07Zm4.47-.35h.47l-1.46,1.41,1.5,1.61h-.48l-1.27-1.39-.09.08v1.3h-.35v-3.02h.35v1.29s1.32-1.29,1.32-1.29Z"/>
  <path d="m49.29,23.7h-.48l-1.28,1.25v-1.25h-.41v3.08h.41v-1.33s.04-.03.05-.04l1.25,1.36h.5s.07.01.07.01c0,0-1.49-1.6-1.53-1.64.04-.04,1.49-1.44,1.49-1.44h-.07s0,0,0,0Zm-.08.06l-1.42,1.38,1.48,1.58h-.4s-1.25-1.38-1.25-1.38l-.02-.03-.11.11v1.29h-.29v-2.96h.28v1.34s1.35-1.32,1.37-1.34c0,0,.37,0,.37,0Z"/>
  <path d="m72,42.2v-14.05c-5.5,3.41-24.8,14.23-55.93,19.85h50.13c3.2,0,5.8-2.6,5.8-5.8Z" fill="#f58220"/>
</svg>