<?xml version="1.0" encoding="UTF-8"?>
<svg id="Camada_1" data-name="Camada 1" xmlns="http://www.w3.org/2000/svg" width="72" height="48" viewBox="0 0 72 48">
  <rect width="72" height="48" rx="6" ry="6" fill="#2d2d2d"/>
  <path d="m18.41,18.92c.56-.18,1.14-.27,1.72-.27,2.63,0,4.82,1.8,5.32,4.18l3.73-.73c-.85-4.06-4.58-7.11-9.05-7.11-.99,0-1.98.15-2.93.46l1.21,3.47Z" fill="#fc0"/>
  <path d="m14.1,30.68l2.51-2.78c-1.16-1-1.83-2.45-1.83-3.97,0-1.58.71-3,1.83-3.97l-2.51-2.78c-1.9,1.65-3.11,4.06-3.11,6.75s1.2,5.1,3.1,6.75Z" fill="#00a0de"/>
  <path d="m25.46,25.02c-.5,2.43-2.69,4.26-5.32,4.26-.59,0-1.17-.09-1.72-.27l-1.21,3.54c.92.3,1.91.46,2.93.46,4.46,0,8.19-3.11,9.04-7.23l-3.72-.75h0Z" fill="#ec3413"/>
  <path d="m33.67,28.08c-.14-.24-.27-.48-.38-.74-.58-1.3-.62-2.77-.12-4.1.54-1.48,1.58-2.6,2.92-3.18,1.68-.72,3.54-.58,5.15.37,1.02.59,1.75,1.49,2.3,2.77.07.17.13.34.19.49l-10.06,4.38Zm3.36-5.84c-1.2.51-1.81,1.63-1.68,2.94l5.06-2.18c-.87-1.02-2-1.36-3.38-.77h0Zm4.01,4.74s0,0,0,0l-.1-.07c-.3.49-.77.89-1.37,1.15-1.13.49-2.18.36-2.93-.3l-.07.1s0,0,0,0l-1.28,1.92c.32.22.66.41,1.02.56,1.42.59,2.87.56,4.3-.06,1.03-.45,1.85-1.13,2.4-2,0,0-1.95-1.3-1.95-1.3Zm6.3-9.72v10.64l1.7.67-.97,2.19-1.88-.76c-.37-.16-.69-.42-.92-.76-.21-.31-.36-.74-.36-1.32v-10.67h2.43Zm4.32,8c0-.91.41-1.73,1.07-2.28l-1.75-1.9c-1.22,1.04-1.93,2.57-1.94,4.18,0,1.61.71,3.14,1.93,4.18l1.75-1.9c-.67-.57-1.06-1.4-1.06-2.28Zm2.98,2.94c-.33,0-.66-.06-.96-.16l-.81,2.43c.56.19,1.15.29,1.77.29,2.69,0,4.94-1.92,5.46-4.48l-2.49-.51c-.28,1.41-1.52,2.43-2.96,2.43Zm0-8.59c-.6,0-1.2.1-1.77.28l.81,2.43c1.59-.53,3.3.33,3.82,1.92.04.12.07.24.1.36l2.5-.51c-.51-2.55-2.76-4.48-5.46-4.48Z" fill="#fff"/>
</svg>