<?xml version="1.0" encoding="UTF-8"?>
<svg id="Camada_1" data-name="Camada 1" xmlns="http://www.w3.org/2000/svg" width="72" height="48" xmlns:xlink="http://www.w3.org/1999/xlink" viewBox="0 0 72 48">
  <defs>
    <clipPath id="clippath">
      <rect width="72" height="48" rx="6" ry="6" fill="none"/>
    </clipPath>
    <clipPath id="clippath-1">
      <rect x="4" y="10" width="65" height="28" fill="none"/>
    </clipPath>
  </defs>
  <g clip-path="url(#clippath)" fill="none">
    <g>
      <rect width="72" height="48" rx="6" ry="6" fill="#c0272d"/>
      <g clip-path="url(#clippath-1)" fill="none">
        <g>
          <path d="m4,37.92h56.08c1.84,0,3.63-1.51,3.99-3.35l4.73-24.56H12.71c-1.84,0-3.63,1.51-3.99,3.35l-4.73,24.57h0Z" fill="#c0272d" fill-rule="evenodd"/>
          <path d="m60.53,26.44c-.48.72-1.1,1.08-1.86,1.08-.5,0-.88-.17-1.14-.5-.26-.33-.39-.82-.39-1.45,0-1.09.23-1.99.72-2.71.48-.73,1.08-1.09,1.8-1.09.52,0,.92.17,1.19.5.28.33.41.8.41,1.43,0,1.1-.24,2.01-.73,2.74h0Zm3.03-9.2c-.12.01-.24.02-.33.02-.06,0-.14,0-.24-.02-.1,0-.23-.03-.41-.06-.08.57-.17,1.13-.28,1.69-.12.66-.24,1.32-.37,1.97l-.33,1.61c-.16-.47-.42-.84-.79-1.11-.37-.27-.79-.4-1.28-.4-1.06,0-1.94.42-2.65,1.26s-1.06,1.88-1.06,3.13c0,.89.22,1.6.67,2.12.45.54,1.04.8,1.78.8.48,0,.92-.09,1.31-.28.39-.19.79-.49,1.18-.9l-.27,1.02c.14-.01.27-.03.38-.03.11,0,.21-.01.29-.01.08,0,.17,0,.27.01.1,0,.21.02.34.03.25-1.85.56-3.69.93-5.51.37-1.82.8-3.62,1.29-5.4-.15.03-.29.05-.42.06h0Zm-7.56,3.75c-.06,0-.12-.01-.18-.01-.34,0-.68.13-1.04.4-.36.27-.7.64-1.01,1.14.03-.26.08-.5.12-.73.05-.23.1-.45.18-.66-.12.02-.24.03-.35.04-.11,0-.22.01-.32.01-.08,0-.17,0-.28-.01-.1-.01-.22-.02-.35-.04-.06.9-.19,1.95-.41,3.16-.23,1.28-.51,2.56-.83,3.82.21-.03.37-.05.46-.06.08-.01.15-.01.21-.01.09,0,.19,0,.3.01.12.01.26.03.41.06.25-2.31.54-3.88.9-4.7.34-.83.85-1.25,1.5-1.25.08,0,.18.01.28.03.1.01.24.04.4.08,0-.2.03-.4.06-.6.03-.21.08-.41.14-.61-.07-.02-.14-.03-.2-.05Zm-6.73,5.02c-.07.38-.29.72-.65,1.02-.36.29-.74.44-1.14.44-.28.01-.55-.1-.74-.3-.19-.19-.28-.46-.28-.77,0-.44.15-.8.46-1.07.31-.27.81-.49,1.48-.64l1.17-.28s-.3,1.61-.3,1.61Zm1.9,1.46c-.09.03-.18.05-.28.07-.06.02-.12.03-.18.03-.12,0-.23-.04-.32-.12-.08-.08-.11-.18-.11-.32,0-.08,0-.17.01-.26.01-.1.03-.2.06-.31l.48-2.47c.06-.28.1-.54.12-.78.03-.24.05-.45.05-.62,0-.57-.19-1.01-.57-1.32-.37-.31-.91-.46-1.61-.46-.4,0-.78.05-1.14.15s-.71.26-1.05.47c0,.04,0,.09,0,.13,0,.06,0,.1,0,.12,0,.13-.01.26-.03.39-.02.13-.05.27-.08.41l.24.05c.19-.37.44-.65.77-.84.34-.2.73-.3,1.13-.3.38,0,.68.1.89.31.21.22.32.5.32.87s-.04.67-.13.86c-.07.18-.22.31-.41.35l-1.19.24c-1.09.21-1.84.5-2.28.87-.43.36-.64.88-.64,1.54,0,.52.16.93.47,1.24.32.3.75.46,1.3.46.38,0,.76-.09,1.1-.26.34-.18.67-.46,1-.84.01.35.1.62.28.81.17.19.41.28.72.28.2,0,.4-.03.6-.09.2-.06.41-.16.63-.28l-.18-.37h0Zm-6.4-6.37c-.43-.1-.86-.15-1.3-.15-1.12,0-2.05.41-2.79,1.23-.74.82-1.12,1.82-1.12,3.02,0,.93.28,1.67.84,2.24.56.56,1.29.84,2.2.84.38,0,.75-.05,1.1-.15.36-.1.71-.25,1.04-.44.04-.17.1-.33.15-.49s.12-.31.19-.46l-.21-.16c-.23.31-.54.56-.89.73-.37.17-.77.26-1.17.26-.61,0-1.09-.2-1.42-.59-.33-.39-.5-.96-.5-1.7,0-1.05.26-1.94.77-2.66.51-.73,1.15-1.1,1.89-1.1.37,0,.69.11.98.33.28.22.5.52.67.91h.21c.04-.21.1-.42.17-.62.07-.21.15-.4.25-.6-.33-.2-.69-.34-1.07-.44Zm-4.96-.11c-.06,0-.12-.01-.19-.01-.33,0-.68.13-1.04.4-.36.27-.7.64-1.01,1.14.05-.47.15-.94.3-1.39-.12.02-.23.03-.34.04-.11,0-.21.01-.32.01-.08,0-.17,0-.28-.01-.1-.01-.22-.02-.35-.04-.06.9-.2,1.95-.41,3.16-.22,1.28-.5,2.56-.83,3.82.22-.03.37-.05.46-.06.09-.01.16-.01.21-.01.08,0,.19,0,.3.01l.41.06c.24-2.31.54-3.88.89-4.7.35-.83.85-1.25,1.49-1.25.09,0,.18.01.28.03.11.01.24.04.4.08.01-.2.03-.4.06-.6.03-.21.08-.41.14-.61-.06-.02-.13-.04-.19-.05h0Zm-5.72,2.54c0,.11-.02.24-.03.4-.12,0-.31,0-.54.01-.61,0-1.01.01-1.22.01-.18,0-.55,0-1.1-.01-.24,0-.42-.01-.56-.01.17-.75.43-1.35.82-1.78.38-.44.82-.65,1.32-.65.41,0,.74.16.98.46.23.31.35.74.35,1.29,0,.08,0,.17,0,.28h0Zm.59-1.85c-.45-.5-1.07-.75-1.86-.75-1.08,0-1.97.41-2.68,1.23-.71.82-1.06,1.83-1.06,3.05,0,.94.28,1.69.82,2.26.55.56,1.29.84,2.21.84.39,0,.77-.06,1.14-.19.41-.14.79-.32,1.15-.56.04-.17.1-.34.16-.5.06-.16.12-.31.19-.45l-.17-.15c-.39.39-.76.68-1.12.85-.34.18-.72.27-1.1.27-.61,0-1.08-.19-1.41-.55-.33-.37-.5-.89-.5-1.57,0-.15,0-.3.01-.46l.04-.46c.39,0,.83,0,1.34-.02.51,0,.81,0,.9,0,.44,0,1.19,0,2.24.03h.33c.01-.19.02-.36.03-.49,0-.14.01-.23.01-.28,0-.89-.23-1.58-.68-2.09h0Zm-7.89,4.67c-.48.73-1.07,1.09-1.78,1.09-.54,0-.94-.17-1.22-.5-.27-.34-.41-.83-.41-1.48,0-1.07.24-1.97.74-2.7.49-.73,1.1-1.09,1.84-1.09.48,0,.86.18,1.13.53.28.35.41.84.41,1.46,0,1.07-.24,1.97-.72,2.68Zm1.36-4.63c-.45-.52-1.07-.78-1.84-.78-.47,0-.9.1-1.3.3-.39.19-.77.5-1.12.9l.27-1.02c-.14.01-.27.02-.38.03-.11,0-.21.01-.28.01s-.17,0-.26-.01c-.1,0-.21-.01-.34-.03-.28,1.97-.62,3.93-1.01,5.88-.34,1.7-.75,3.4-1.21,5.07.14-.03.28-.05.42-.06.12-.01.24-.02.34-.02.06,0,.14,0,.23.02.1.01.24.03.39.06.18-1.1.38-2.19.59-3.28.02-.14.05-.28.08-.42l.32-1.63c.14.46.39.82.76,1.1.35.27.78.42,1.23.42,1.08,0,1.99-.42,2.71-1.25.72-.84,1.08-1.9,1.08-3.16,0-.89-.23-1.59-.68-2.12Zm-7.07-.56c-.12,0-.24.01-.36.01-.11,0-.23,0-.34-.01-.12-.01-.25-.02-.39-.04-.01.73-.13,1.69-.35,2.9-.25,1.37-.55,2.73-.9,4.08.16-.02.31-.04.47-.06.11-.01.19-.01.26-.01.08,0,.17,0,.28.01.1,0,.27.03.48.06.04-.9.17-1.94.37-3.13.21-1.18.51-2.47.88-3.85-.13.02-.26.03-.39.04Zm.5-3.12c-.12-.12-.29-.19-.5-.19s-.38.07-.51.19c-.14.13-.2.31-.2.52s.06.38.2.51c.13.14.3.21.5.21.19,0,.37-.08.5-.22.13-.13.21-.32.2-.5,0-.23-.06-.4-.18-.53Zm-3.05.16c-.11.01-.19.01-.26.01-.09,0-.2,0-.32-.01-.15-.01-.31-.03-.46-.06-.03.39-.07.77-.12,1.16-.06.39-.14.89-.26,1.49l-.33,1.6c-.06,0-.15,0-.26,0-1.24.03-2.13.05-2.68.05-.26,0-.81,0-1.64-.03-.37-.01-.66-.02-.87-.03l.29-1.41.03-.15c.23-1.1.45-2,.66-2.7-.19.03-.35.04-.48.06-.12.01-.23.01-.32.01-.06,0-.15,0-.24-.01-.1,0-.27-.03-.5-.06-.25,1.8-.55,3.58-.9,5.36-.3,1.54-.66,3.07-1.07,4.59.21-.03.37-.05.48-.06.12-.01.21-.01.3-.01s.19,0,.3.01.27.03.45.06c.09-.64.17-1.23.26-1.78.08-.52.17-1.03.26-1.54l.34-1.61c.48,0,.94-.01,1.4-.01h1.37c.17,0,.55,0,1.14,0,.59,0,1.1,0,1.52,0l-.38,1.92c-.06.31-.16.73-.28,1.24-.13.52-.28,1.11-.45,1.78.16-.02.33-.04.5-.06.12-.01.23-.01.32-.01.06,0,.13,0,.22,0,.08,0,.25.03.5.06.13-1.29.37-2.79.71-4.5.37-1.83.79-3.64,1.27-5.44-.24.03-.4.05-.51.06Z" fill="#fff" fill-rule="evenodd"/>
        </g>
      </g>
    </g>
  </g>
</svg>