<?xml version="1.0" encoding="UTF-8"?>
<svg id="Camada_1" data-name="Camada 1" xmlns="http://www.w3.org/2000/svg" width="72" height="48" xmlns:xlink="http://www.w3.org/1999/xlink" viewBox="0 0 72 48">
  <defs>
    <linearGradient id="linear-gradient" x1="44.52" y1="-117.51" x2="58.26" y2="-117.51" gradientTransform="translate(0 -91.12) scale(1 -1)" gradientUnits="userSpaceOnUse">
      <stop offset="0" stop-color="#007940"/>
      <stop offset=".23" stop-color="#00873f"/>
      <stop offset=".74" stop-color="#40a737"/>
      <stop offset="1" stop-color="#5cb531"/>
    </linearGradient>
    <linearGradient id="linear-gradient-2" y1="-113.05" x2="58.26" y2="-113.05" xlink:href="#linear-gradient"/>
    <linearGradient id="linear-gradient-3" x1="44.52" y1="-115.39" x2="58.24" y2="-115.39" xlink:href="#linear-gradient"/>
    <linearGradient id="linear-gradient-4" x1="13.77" y1="-115.37" x2="27.72" y2="-115.37" gradientTransform="translate(0 -91.12) scale(1 -1)" gradientUnits="userSpaceOnUse">
      <stop offset="0" stop-color="#1f286f"/>
      <stop offset=".47" stop-color="#004e94"/>
      <stop offset=".83" stop-color="#0066b1"/>
      <stop offset="1" stop-color="#006fbc"/>
    </linearGradient>
    <linearGradient id="linear-gradient-5" x1="29.07" y1="-115.41" x2="42.62" y2="-115.41" gradientTransform="translate(0 -91.12) scale(1 -1)" gradientUnits="userSpaceOnUse">
      <stop offset="0" stop-color="#6c2c2f"/>
      <stop offset=".17" stop-color="#882730"/>
      <stop offset=".57" stop-color="#be1833"/>
      <stop offset=".86" stop-color="#dc0436"/>
      <stop offset="1" stop-color="#e60039"/>
    </linearGradient>
  </defs>
  <rect width="72" height="48" rx="6" ry="6" fill="#eaeaea"/>
  <path d="m47.25,27.86h3.21c.09,0,.31-.03.4-.03.61-.12,1.13-.67,1.13-1.44s-.52-1.28-1.13-1.44c-.09-.03-.28-.03-.4-.03h-3.21v2.93h0Z" fill="url(#linear-gradient)"/>
  <path d="m51.59,21.93c0-.73-.52-1.22-1.13-1.31-.06,0-.21-.03-.31-.03h-2.9v2.69h2.9c.09,0,.28,0,.31-.03.61-.09,1.13-.58,1.13-1.31h0Z" fill="url(#linear-gradient-2)"/>
  <path d="m50.09,7.6c-3.07,0-5.56,2.49-5.56,5.56v5.78h7.85c.18,0,.4,0,.55.03,1.77.09,3.09,1.01,3.09,2.6,0,1.25-.89,2.32-2.54,2.54v.06c1.8.12,3.18,1.13,3.18,2.69,0,1.68-1.53,2.78-3.55,2.78h-8.62v11.31h8.16c3.07,0,5.56-2.49,5.56-5.56V7.6s-8.13,0-8.13,0Z" fill="url(#linear-gradient-3)"/>
  <path d="m19.34,7.6c-3.07,0-5.56,2.49-5.56,5.56v13.72c1.56.76,3.18,1.25,4.8,1.25,1.93,0,2.97-1.16,2.97-2.75v-6.48h4.77v6.45c0,2.51-1.56,4.55-6.85,4.55-3.21,0-5.72-.7-5.72-.7v11.71h8.16c3.07,0,5.56-2.49,5.56-5.56V7.6s-8.13,0-8.13,0Z" fill="url(#linear-gradient-4)"/>
  <path d="m34.72,7.6c-3.07,0-5.56,2.49-5.56,5.56v7.27c1.41-1.19,3.85-1.96,7.79-1.77,2.11.09,4.37.67,4.37.67v2.35c-1.13-.58-2.47-1.1-4.22-1.22-2.99-.21-4.8,1.25-4.8,3.82s1.8,4.07,4.8,3.82c1.74-.12,3.09-.67,4.22-1.22v2.35s-2.23.58-4.37.67c-3.94.18-6.39-.58-7.79-1.77v12.84h8.16c3.07,0,5.56-2.49,5.56-5.56V7.6h-8.16,0Z" fill="url(#linear-gradient-5)"/>
</svg>