<?xml version="1.0" encoding="UTF-8"?>
<svg id="Camada_1" data-name="Camada 1" xmlns="http://www.w3.org/2000/svg" width="72" height="48" viewBox="0 0 72 48">
  <rect width="72" height="48" rx="6" ry="6" fill="#304989"/>
  <path d="m36.23,34.38c2.91-2.66,4.57-6.43,4.56-10.38,0-4.11-1.76-7.82-4.56-10.38-2.55-2.34-5.87-3.63-9.33-3.62-7.68,0-13.9,6.26-13.9,14s6.22,14,13.9,14c3.59,0,6.87-1.38,9.33-3.62h0Z" fill="#0097d9" fill-rule="evenodd"/>
  <path d="m45.56,10c-3.59,0-6.86,1.37-9.33,3.62-.51.46-.98.96-1.4,1.48h2.81c.38.47.74.97,1.06,1.48h-4.92c-.3.48-.57.97-.8,1.48h6.53c.23.48.42.98.59,1.48h-7.7c-.16.48-.3.98-.4,1.48h8.51c.53,2.46.39,5.02-.4,7.41h-7.7c.17.51.37,1,.59,1.48h6.53c-.24.51-.51,1.01-.8,1.48h-4.92c.32.51.68,1.01,1.06,1.48h2.81c-.44.53-.9,1.02-1.4,1.48,2.55,2.33,5.88,3.63,9.33,3.62,7.68,0,13.9-6.26,13.9-14-.03-7.72-6.26-13.98-13.92-13.98Z" fill="#e40520" fill-rule="evenodd"/>
  <path d="m57.6,31.81c0-.25.2-.45.45-.45s.45.2.45.45c0,.25-.2.45-.45.45,0,0,0,0,0,0-.25,0-.45-.2-.45-.45Zm.45.34c.19,0,.34-.15.34-.34s-.15-.34-.34-.34-.34.15-.34.34.15.34.34.34h0Zm-.06-.15h-.1v-.39h.17s.07,0,.1.02c.03.02.05.06.05.1,0,.05-.03.09-.07.1l.07.17h-.1l-.06-.16h-.07v.16-.22h.05s.04,0,.05,0c.02,0,.03-.03.03-.04,0-.02,0-.03-.03-.04-.02,0-.04,0-.06,0h-.05v.32h.02Z" fill="#e40520" fill-rule="evenodd"/>
  <path d="m54.66,27.03c0-.25.2-.45.44-.45s.45.2.45.45-.2.45-.45.45-.45-.2-.45-.45h0Zm.44.35c.19,0,.34-.15.34-.34s-.15-.34-.34-.34-.34.15-.34.34.16.34.34.34Zm-.06-.15h-.1v-.4h.17s.07,0,.1.02.05.06.05.1c0,.05-.03.09-.07.1l.07.17h-.1l-.06-.16h-.07v.17-.23h.05s.04,0,.05-.01c.02,0,.03-.02.03-.04,0-.02,0-.03-.03-.04-.02,0-.04,0-.06,0h-.05v.33h.02Zm-29.88.25h-1.73l1.03-5.45-2.36,5.45h-1.58l-.3-5.43-1.03,5.43h-1.57l1.34-7.1h2.7l.14,4.4,1.9-4.4h2.81l-1.36,7.1h0Zm19.32-.07c-.47.13-.85.19-1.25.19-.89,0-1.37-.44-1.37-1.27,0-.17.02-.33.05-.51l.1-.57.08-.45.8-4.41h1.72l-.25,1.33h.88l-.24,1.4h-.89l-.45,2.4c-.01.08-.02.16-.03.24,0,.3.18.43.59.43.2,0,.35-.02.47-.05,0,0-.23,1.28-.23,1.28Zm5.05-5.65c-.15-.06-.18-.06-.19-.06-.1-.02-.14-.04-.15-.04-.06-.01-.12-.02-.17-.02-.57,0-.98.25-1.51.94l.16-.87h-1.57l-1.05,5.78h1.73c.62-3.53.89-4.15,1.72-4.15.06,0,.13,0,.22.02l.2.04s.62-1.65.62-1.65Zm-11.91,1.78c0,.73.41,1.23,1.33,1.61.71.29.82.38.82.64,0,.36-.31.52-1,.52-.52,0-1.01-.07-1.57-.23l-.24,1.33h.08s.32.07.32.07c.1.02.25.04.45.05.42.03.74.04.97.04,1.85,0,2.7-.61,2.7-1.93,0-.79-.36-1.25-1.24-1.6-.73-.3-.82-.36-.82-.63,0-.31.29-.47.85-.47.34,0,.81.03,1.25.09l.25-1.33c-.51-.07-1.03-.1-1.54-.11-1.95-.01-2.62.88-2.62,1.94Zm-6.85,3.95h-1.44l.03-.6c-.43.47-1.02.7-1.81.7-.94,0-1.58-.65-1.58-1.58,0-1.4,1.11-2.22,3.04-2.22.2,0,.44.02.71.04.05-.19.07-.27.07-.38,0-.38-.31-.52-1.11-.52-.5,0-1.06.06-1.44.16l-.24.06-.16.03.24-1.3c.86-.23,1.43-.31,2.07-.31,1.49,0,2.27.58,2.27,1.69,0,.29-.03.5-.14,1.14l-.36,2.05-.06.37-.04.3-.03.2-.04.17h0Zm-1.26-2.57c-.18-.02-.26-.03-.38-.03-.98,0-1.47.3-1.47.88,0,.36.24.59.62.59.7,0,1.21-.59,1.24-1.45Zm6.93,2.45c-.58.16-1.17.23-1.77.24-1.93,0-2.94-.89-2.94-2.59,0-1.98,1.28-3.44,3.02-3.44,1.42,0,2.33.82,2.33,2.1,0,.43-.06.84-.21,1.43h-3.44c-.02.09-.02.13-.02.18,0,.67.51,1.01,1.52,1.01.62,0,1.23-.12,1.79-.37,0,0-.29,1.44-.29,1.44Zm-.91-3.43c0-.12.02-.22.02-.3,0-.47-.31-.74-.82-.74-.55,0-.94.37-1.11,1.04h1.91Zm19.38.94c-.26,1.92-1.59,2.77-3.36,2.77-1.96,0-2.74-1.19-2.74-2.66,0-2.05,1.34-3.43,3.41-3.43,1.79,0,2.74,1.14,2.74,2.6,0,.35,0,.37-.04.71Zm-1.78-.74c0-.6-.24-1.18-.95-1.18-.88,0-1.43,1.05-1.43,1.98,0,.78.38,1.31.99,1.3.38,0,1.18-.51,1.33-1.41.03-.21.05-.44.05-.69Z" fill="#fff" fill-rule="evenodd"/>
</svg>