<?xml version="1.0" encoding="UTF-8"?>
<svg id="Camada_1" data-name="Camada 1" xmlns="http://www.w3.org/2000/svg" width="72" height="48" viewBox="0 0 72 48">
  <path d="m6,0h60c3.3,0,6,2.7,6,6v36c0,3.3-2.7,6-6,6H6c-3.3,0-6-2.7-6-6V6C0,2.7,2.7,0,6,0Z" fill="#032d4e"/>
  <path d="m31.1,33.4h10.5V14.6h-10.5v18.8Z" fill="#ff5f00" fill-rule="evenodd"/>
  <path d="m31.8,24c0-3.8,1.8-7.2,4.6-9.4-2-1.6-4.6-2.6-7.4-2.6-6.7,0-12,5.4-12,12s5.3,12,11.9,12c2.8,0,5.4-1,7.4-2.6-2.8-2.2-4.5-5.6-4.5-9.4Z" fill="#eb001b" fill-rule="evenodd"/>
  <path d="m55.7,24c0,6.6-5.3,12-11.9,12-2.8,0-5.4-1-7.4-2.6,2.8-2.2,4.6-5.6,4.6-9.4s-1.8-7.2-4.6-9.4c2-1.6,4.6-2.6,7.4-2.6,6.5,0,11.9,5.4,11.9,12Z" fill="#f79e1b" fill-rule="evenodd"/>
</svg>