<?xml version="1.0" encoding="UTF-8"?>
<svg id="Camada_1" data-name="Camada 1" xmlns="http://www.w3.org/2000/svg" width="72" height="48" viewBox="0 0 72 48">
  <rect x="0" width="72" height="48" rx="6" ry="6" fill="#f37721"/>
  <path d="m63.52,26.32h-.67s-.01,0-.02,0c-3.88,0-7.76,0-11.65,0-.27,0-.54,0-.8-.03-.6-.07-1.18-.22-1.65-.64-.28-.25-.46-.56-.59-.9,0,0,0-.02,0-.04h.11c1.33,0,2.66,0,3.99,0,.75,0,1.49-.13,2.17-.45.93-.43,1.5-1.16,1.71-2.15.04-.2.06-.4.07-.6.02-.19.03-.39.02-.58-.03-.62-.15-1.21-.46-1.76-.41-.72-1.04-1.17-1.82-1.44-.38-.13-.78-.22-1.18-.25-.43-.03-.87-.03-1.3-.04-.28,0-.55,0-.83,0-1.6.07-3.02.59-4.16,1.73-.76.76-1.21,1.68-1.41,2.72-.01.06-.03.08-.09.08-1.11,0-2.22,0-3.33,0-.02,0-.04,0-.07,0,0-.03,0-.06,0-.09v-6.81s0-.05,0-.08h-2.96s0,.07,0,.11c0,2.26,0,4.51,0,6.77v.11h-.12c-1.26,0-2.52-.01-3.78,0-1.02.02-2.01.2-2.93.66-1.29.64-2.08,1.67-2.39,3.05-.04.18-.06.36-.09.54,0,.06-.03.08-.09.08-.13,0-.26,0-.39,0-1.82,0-3.64,0-5.45,0-.2,0-.4,0-.6,0-.68-.06-1.33-.2-1.85-.67-.28-.25-.47-.57-.59-.93h.11c1.3,0,2.6,0,3.9,0,.71,0,1.4-.1,2.06-.36,1.06-.42,1.69-1.19,1.91-2.29.09-.47.11-.94.06-1.41-.06-.57-.21-1.12-.53-1.61-.43-.65-1.04-1.06-1.78-1.3-.35-.12-.72-.19-1.09-.23-.23-.02-.46-.04-.69-.04-.59,0-1.17-.03-1.76.02-1.7.13-3.15.79-4.24,2.12-.54.67-.87,1.44-1.04,2.28,0,.03-.01.07-.02.11h-.11c-.9,0-1.8-.01-2.69,0-.87.02-1.72.19-2.5.6-.39.21-.73.47-1.03.82v-1.21c-.95,0-1.94,0-2.89,0v10.33s0,0,0,0c0,.25.2.45.45.46,0,0,0,0,0,0h2.04s0,0,0,0c.25-.02.45-.22.45-.47v-.2s0-.06,0-.1c0-1.38,0-2.75,0-4.13,0-.7.14-1.37.52-1.98.39-.62.96-1,1.67-1.19.26-.07.53-.11.79-.15.41-.07.82-.06,1.24-.06.67,0,1.34,0,2.01,0,.08,0,.1.02.12.09.23,1.02.69,1.92,1.45,2.65.66.64,1.45,1.06,2.34,1.32.44.13.9.22,1.36.26.32.03.63.04.95.04,2.06,0,4.12,0,6.17,0,.06,0,.1,0,.13.07.41.93,1.11,1.57,2.04,1.98.54.24,1.1.38,1.68.46.23.03.46.07.69.07.95.01,1.9.01,2.85.02,1.97-.17,3.48-1.04,4.34-2.84.3-.62.4-1.29.4-1.98,0-.7,0-1.39,0-2.09,0-.02,0-.04,0-.07h3.33c.11.34.21.69.34,1.01.49,1.21,1.35,2.09,2.54,2.67.64.31,1.31.5,2.02.6.41.06.82.08,1.24.08,4.04,0,8.08,0,12.11,0,.04,0,.07,0,.1,0h.14c.27,0,.48-.21.48-.47v-1.83c0-.26-.22-.47-.48-.47h0Zm-41.94-5.92c.33-.13.67-.19,1.03-.2.55,0,1.1-.01,1.66-.02.22,0,.44.01.64.1.33.13.51.4.51.75,0,.09,0,.18,0,.27-.08.39-.35.58-.71.66-.12.03-.25.04-.38.04-1.33,0-2.65,0-3.98,0-.02,0-.04,0-.07,0,.18-.75.58-1.31,1.32-1.6h0Zm17.02,6.76c-.03.93-.72,1.63-1.66,1.77-.1.01-.21.02-.31.02-.73,0-1.46,0-2.18,0-.43,0-.84-.09-1.23-.27-.57-.27-.89-.73-.98-1.34-.03-.23-.06-.46-.04-.69.08-.81.46-1.41,1.25-1.72.3-.12.61-.19.94-.19,1.07,0,2.13-.01,3.2-.02.3,0,.61,0,.91,0h.1s0,.03,0,.03c0,.81.02,1.61-.01,2.42h0Zm9.45-5.17c.02-.08.04-.15.06-.22.27-.86.87-1.36,1.76-1.52.18-.03.36-.05.55-.05.57-.01,1.14-.02,1.71-.02.26,0,.52.03.74.19.23.16.34.37.34.64,0,.12,0,.25-.03.37-.1.35-.36.51-.7.58-.12.03-.25.04-.38.04-1.32,0-2.64,0-3.96,0-.02,0-.05,0-.08,0h0Z" fill="#fceb05"/>
</svg>