<?xml version="1.0" encoding="UTF-8"?>
<svg id="Camada_1" data-name="Camada 1" xmlns="http://www.w3.org/2000/svg" width="72" height="48" viewBox="0 0 72 48">
  <rect y="8" width="72" height="32" fill="#fff"/>
  <path d="m32.5,31.8h-4.2l2.7-16.5h4.2l-2.7,16.5Zm15.3-16.1c-.8-.3-2.1-.7-3.8-.7-4.2,0-7.1,2.2-7.1,5.4,0,2.4,2.1,3.7,3.7,4.5,1.6.8,2.2,1.3,2.2,2,0,1.1-1.3,1.6-2.5,1.6-1.7,0-2.6-.3-4-.9l-.6-.3-.6,3.7c1,.5,2.8.9,4.7.9,4.4,0,7.3-2.2,7.3-5.6,0-1.9-1.1-3.3-3.5-4.5-1.5-.8-2.4-1.3-2.4-2s.8-1.4,2.4-1.4c1.4,0,2.4.3,3.1.6l.4.2s.7-3.5.7-3.5Zm5.6,10.2c.3-.9,1.7-4.6,1.7-4.6,0,0,.3-1,.6-1.6l.3,1.4s.8,3.9,1,4.8c0,0-3.6,0-3.6,0Zm5.2-10.6h-3.3c-1,0-1.8.3-2.2,1.4l-6.3,15.1h4.4s.7-2,.9-2.5h5.4c.1.6.5,2.5.5,2.5h4s-3.4-16.5-3.4-16.5Zm-33.8,0l-4.1,11.2-.5-2.3c-.8-2.6-3.2-5.5-5.8-6.9l3.8,14.4h4.5l6.6-16.4s-4.5,0-4.5,0Z" fill="#10518d"/>
  <path d="m16.8,15.3h-6.8v.3c5.3,1.4,8.8,4.7,10.2,8.6l-1.5-7.6c-.2-1-.9-1.3-1.9-1.3Z" fill="#f5a73f"/>
  <path d="m66,0H6C2.7,0,0,2.7,0,6v2h72v-2c0-3.3-2.7-6-6-6Z" fill="#10518d"/>
  <path d="m0,42c0,3.3,2.7,6,6,6h60c3.3,0,6-2.7,6-6v-2H0v2Z" fill="#fdaf4b"/>
</svg>