<svg width="235" height="56" viewBox="0 0 235 56" fill="none"
    xmlns="http://www.w3.org/2000/svg">
    <defs>
        <linearGradient id="paint0_linear_1761_26" x1="0.303899" y1="26.3106" x2="14.2102" y2="12.373" gradientUnits="userSpaceOnUse">
            <stop offset="0" stop-color="#8CD133"/>
            <stop offset="1" stop-color="#05BDFB"/>
        </linearGradient>
    </defs>
    <path d="M8.7247 29.0084V43.6729C8.7247 45.9726 9.96914 47.1884 12.3244 47.1884C13.5471 47.1884 15.1036 46.9449 16.7338 46.5016L17.7206 53.0403C15.6734 53.8454 12.0777 54.3799 9.89826 54.3799C3.23718 54.3799 0 51.2737 0 44.8833V29.0084H8.7247Z" fill="#054375"/>
    <path d="M42.4928 16.6232C39.2542 17.6051 35.0043 20.1183 33.1615 21.3449L32.8153 21.5748L32.1802 17.3031H24.8594V53.625H33.5841V29.9848L33.7067 29.9073C36.873 27.8973 39.7327 26.2204 43.3474 24.5966L42.4928 16.6232Z" fill="#054375"/>
    <path d="M49.1162 4.41757V14.3018H57.8409V3.19769L49.1162 4.41757Z" fill="#054375"/>
    <path d="M57.8409 17.3018H49.1162V53.6236H57.8409V17.3018Z" fill="#054375"/>
    <path d="M95.169 28.9186C95.169 20.593 91.6088 16.5457 84.2852 16.5457C80.1648 16.5457 75.9953 17.6677 73.4656 18.7189L73.1017 18.8712V1L64.377 2.21309V53.1409C68.8545 53.9963 74.6432 54.3798 78.4447 54.3798C92.3707 54.3798 95.1676 48.7768 95.1676 39.7385V28.9186H95.169ZM86.4443 40.0404C86.4443 44.3596 85.1821 47.036 78.9013 47.036C76.6619 47.036 74.8395 46.9368 73.3293 46.7314L73.1017 46.7001V26.1035L73.2543 26.0328C75.4801 24.9965 78.81 23.8895 81.4801 23.8895C84.8673 23.8895 86.4443 25.4154 86.4443 28.6915V40.0404Z" fill="#054375"/>
    <path d="M159.089 28.1612V53.6237H167.813V27.1793C167.813 20.0245 165.172 16.5471 159.735 16.5471C155.567 16.5471 149.808 18.0512 145.065 20.3781L144.784 20.5155L143.841 17.3032H137.249V53.6251H145.974V28.1557L146.114 28.0823C149.65 26.2382 153.66 24.9503 155.867 24.9503C158.065 24.9489 159.089 25.9689 159.089 28.1612Z" fill="#054375"/>
    <path d="M190.297 46.9613C184.94 46.9613 183.133 45.3484 183.133 40.5708V30.3575C183.133 25.5786 184.94 23.9657 190.297 23.9657C191.879 23.9657 195.11 24.2118 197.739 24.8837L198.801 17.8268C196.028 16.9429 192.444 16.5471 190.071 16.5471C178.8 16.5471 174.408 20.4407 174.408 30.4323V40.496C174.408 50.4877 178.8 54.3812 190.071 54.3812C193.027 54.3812 196.422 53.8821 198.801 53.1042L197.739 46.0419C195.291 46.643 192.726 46.9613 190.297 46.9613Z" fill="#054375"/>
    <path d="M219.187 54.3798C229.68 54.3798 235 49.5805 235 40.1151V30.8089C235 21.3436 229.68 16.5443 219.187 16.5443C208.695 16.5443 203.375 21.3436 203.375 30.8089V40.1151C203.375 49.5805 208.695 54.3798 219.187 54.3798ZM212.1 30.507C212.1 25.9919 214.351 23.8881 219.187 23.8881C224.023 23.8881 226.275 25.9919 226.275 30.507V40.4184C226.275 44.9335 224.023 47.0373 219.187 47.0373C214.351 47.0373 212.1 44.9335 212.1 40.4184V30.507Z" fill="#054375"/>
    <path d="M0 26.007H19.1505L17.9346 17.3019H8.7247V6.89954L0 8.11263V26.007Z" fill="url(#paint0_linear_1761_26)"/>
    <path d="M115.216 16.5457C111.181 16.5457 106.25 17.2121 102.848 18.2089L103.906 24.7463C107.347 24.0459 110.895 23.661 113.927 23.661C119.67 23.661 121.243 24.6048 121.243 29.1471V30.9939C117.086 31.0579 111.146 31.7569 106.617 33.9192C103.02 35.6368 101.001 38.422 101.001 43.6715C101.001 47.6698 102.218 54.3785 110.369 54.3785C114.218 54.3785 118.674 53.2388 121.82 51.1689L122.124 50.9704L122.849 53.6223H129.968V29.5986C129.967 19.9619 126.106 16.5457 115.216 16.5457ZM121.242 45.5646L121.108 45.6407C119.832 46.3601 116.612 47.5651 113.4 47.5651C110.537 47.5651 109.422 46.4512 109.422 43.5953C109.422 41.5472 109.964 40.0907 111.185 39.4271C113.68 38.0725 116.531 36.99 118.021 36.99C120.218 36.99 121.242 39.2108 121.242 41.4031V45.5646Z" fill="#054375"/>
</svg>
