<svg width="235" height="72" viewBox="0 0 235 72" fill="none"
    xmlns="http://www.w3.org/2000/svg">
    <defs>
        <linearGradient id="paint0_linear_7879_49019" x1="0.749879" y1="25.4971" x2="14.7576" y2="11.5023" gradientUnits="userSpaceOnUse">
            <stop offset="0" stop-color="#8CD133"/>
            <stop offset="1" stop-color="#05BDFB"/>
        </linearGradient>
    </defs>
    <path d="M43.1098 15.7381C39.858 16.7272 35.59 19.2581 33.7399 20.4941L33.3923 20.7255L32.7545 16.4227H25.4043V53.0085H34.1645V29.1965L34.2879 29.1193C37.4668 27.0949 40.3388 25.4057 43.9676 23.7699L43.1098 15.7381Z" fill="#054375"/>
    <path d="M49.7607 3.44421V13.4008H58.521V2.21524L49.7607 3.44421Z" fill="#054375"/>
    <path d="M58.521 16.4227H49.7607V53.0085H58.521V16.4227Z" fill="#054375"/>
    <path d="M96.0042 28.1246C96.0042 19.7379 92.4286 15.661 85.0756 15.661C80.938 15.661 76.7513 16.7917 74.213 17.8495L73.8471 18.0024V0L65.0869 1.22195V52.5217C69.5834 53.3831 75.3959 53.7703 79.2126 53.7703C93.1953 53.7703 96.0042 48.1263 96.0042 39.0226V28.1246ZM87.244 39.3271C87.244 43.6776 85.9769 46.374 79.6709 46.374C77.4227 46.374 75.5936 46.2744 74.0756 46.0668L73.8471 46.0345V25.2879L73.9999 25.2163C76.2341 24.1726 79.5784 23.0572 82.2583 23.0572C85.6587 23.0572 87.2426 24.5948 87.2426 27.8945V39.3271H87.244Z" fill="#054375"/>
    <path d="M158.675 27.3614V53.0085H167.435V26.3709C167.435 19.1641 164.782 15.6609 159.324 15.6609C155.139 15.6609 149.356 17.1761 144.593 19.5204L144.311 19.6593L143.364 16.4227H136.745V53.0085H145.505V27.3544L145.647 27.28C149.197 25.4226 153.223 24.1248 155.439 24.1248C157.648 24.1248 158.675 25.1532 158.675 27.3614Z" fill="#054375"/>
    <path d="M190.011 46.2982C184.633 46.2982 182.818 44.6736 182.818 39.8616V29.5739C182.818 24.7604 184.633 23.1358 190.011 23.1358C191.601 23.1358 194.844 23.3841 197.484 24.0603L198.549 16.9516C195.765 16.0622 192.166 15.6624 189.783 15.6624C178.466 15.6624 174.057 19.5835 174.057 29.6482V39.7844C174.057 49.8491 178.466 53.7703 189.783 53.7703C192.752 53.7703 196.16 53.268 198.549 52.4838L197.484 45.3709C195.027 45.977 192.45 46.2982 190.011 46.2982Z" fill="#054375"/>
    <path d="M219.02 53.7703C229.555 53.7703 234.897 48.9357 234.897 39.4028V30.0298C234.897 20.4955 229.555 15.6624 219.02 15.6624C208.484 15.6624 203.143 20.4969 203.143 30.0298V39.4028C203.143 48.9357 208.486 53.7703 219.02 53.7703ZM211.904 29.724C211.904 25.1756 214.165 23.0572 219.022 23.0572C223.877 23.0572 226.139 25.1756 226.139 29.724V39.7073C226.139 44.2556 223.878 46.374 219.022 46.374C214.166 46.374 211.904 44.2556 211.904 39.7073V29.724Z" fill="#054375"/>
    <path d="M9.20598 28.2144V42.9859C9.20598 45.3022 10.4548 46.5269 12.8208 46.5269C14.0486 46.5269 15.6114 46.2814 17.2486 45.8353L18.2381 52.4207C16.1819 53.2316 12.5727 53.7703 10.3833 53.7703C3.69472 53.7703 0.444336 50.6417 0.444336 44.2051V28.2144H9.20598Z" fill="#054375"/>
    <path d="M0.444336 25.1911H19.6734L18.4526 16.4228H9.20598V5.94565L0.444336 7.1676V25.1911Z" fill="url(#paint0_linear_7879_49019)"/>
    <path d="M115.528 15.6609C111.477 15.6609 106.525 16.3315 103.11 17.336L104.171 23.9214C107.626 23.2172 111.189 22.8285 114.233 22.8285C120.001 22.8285 121.579 23.7783 121.579 28.3547V30.215C117.405 30.2795 111.441 30.9824 106.893 33.1612C103.281 34.891 101.254 37.6968 101.254 42.9845C101.254 47.0123 102.476 53.7703 110.66 53.7703C114.526 53.7703 118.999 52.6213 122.158 50.5365L122.462 50.3359L123.19 53.0071H130.338V28.8078C130.339 19.1023 126.464 15.6609 115.528 15.6609ZM121.58 44.8925L121.446 44.9697C120.165 45.6936 116.93 46.9085 113.706 46.9085C110.831 46.9085 109.711 45.7876 109.711 42.9101C109.711 40.8478 110.255 38.7757 111.482 38.1065C113.986 36.7414 116.85 36.0568 118.345 36.0568C120.552 36.0568 121.579 38.4923 121.579 40.7005V44.8925H121.58Z" fill="#054375"/>
    <path d="M4.86789 69.4228C4.86789 70.2042 4.64362 70.8285 4.19369 71.2957C3.74376 71.7643 3.13826 71.9986 2.37717 71.9986C1.81512 71.9986 1.32735 71.8513 0.912468 71.5581C0.497583 71.2649 0.193426 70.8524 0 70.3221L0.654554 70.0499C0.82275 70.482 1.05261 70.8033 1.34275 71.0151C1.63288 71.227 1.98052 71.3336 2.38699 71.3336C2.91681 71.3336 3.34289 71.1582 3.66527 70.8089C3.98624 70.4596 4.14742 69.9938 4.14742 69.413V65.3375H4.86789V69.4228Z" fill="#054375"/>
    <path d="M13.8722 69.1226C13.8722 69.998 13.627 70.6953 13.1378 71.2172C12.6486 71.7391 11.9912 71.9986 11.1671 71.9986C10.3373 71.9986 9.67853 71.7391 9.19216 71.22C8.70579 70.7023 8.46191 70.0022 8.46191 69.1212V65.3361H9.18238V69.1212C9.18238 69.7904 9.36317 70.3249 9.72619 70.7275C10.0878 71.1302 10.5686 71.3322 11.1671 71.3322C11.7656 71.3322 12.2463 71.1316 12.6094 70.7275C12.971 70.3249 13.1518 69.789 13.1518 69.1212V65.3361H13.8722V69.1226Z" fill="#054375"/>
    <path d="M17.5971 65.3375H18.3176L22.259 70.6588V65.3375H22.9416V71.8962H22.3052L18.2798 66.4346V71.8962H17.5957V65.3375H17.5971Z" fill="#054375"/>
    <path d="M26.2373 65.9842V65.3375H31.6938V65.9842H29.3251V71.8962H28.6046V65.9842H26.2373Z" fill="#054375"/>
    <path d="M40.9416 68.6161C40.9416 69.0847 40.8547 69.5266 40.6795 69.9419C40.5043 70.3572 40.2661 70.7163 39.9633 71.0193C39.6606 71.3224 39.3031 71.5609 38.8911 71.7362C38.479 71.9116 38.0389 71.9986 37.5707 71.9986C37.1026 71.9986 36.661 71.9116 36.2462 71.7362C35.8313 71.5609 35.4725 71.3224 35.1697 71.0193C34.867 70.7163 34.6287 70.3572 34.4535 69.9419C34.2783 69.5266 34.1914 69.0847 34.1914 68.6161C34.1914 68.1475 34.2783 67.7056 34.4535 67.2903C34.6287 66.8751 34.867 66.5159 35.1697 66.2129C35.4725 65.9099 35.8313 65.6714 36.2462 65.496C36.661 65.3206 37.1026 65.2336 37.5707 65.2336C38.0389 65.2336 38.479 65.322 38.8911 65.496C39.3031 65.6714 39.6606 65.9099 39.9633 66.2129C40.2661 66.5159 40.5043 66.8751 40.6795 67.2903C40.8547 67.707 40.9416 68.1475 40.9416 68.6161ZM40.2114 68.6161C40.2114 68.2359 40.1428 67.8782 40.0054 67.5429C39.868 67.209 39.6816 66.9214 39.4475 66.6801C39.2135 66.4402 38.9345 66.2494 38.6107 66.1091C38.2856 65.9688 37.9393 65.8986 37.5721 65.8986C37.1979 65.8986 36.8475 65.9688 36.5237 66.1091C36.1999 66.2494 35.9196 66.4402 35.6869 66.6801C35.4529 66.9214 35.2665 67.209 35.1291 67.5429C34.9917 67.8768 34.923 68.2345 34.923 68.6161C34.923 68.9977 34.9917 69.3541 35.1291 69.6837C35.2665 70.0148 35.4529 70.3024 35.6869 70.5466C35.921 70.7893 36.1999 70.9829 36.5237 71.1232C36.8475 71.2635 37.1979 71.3336 37.5721 71.3336C37.9407 71.3336 38.287 71.2635 38.6107 71.1232C38.9345 70.9829 39.2149 70.7907 39.4475 70.5466C39.6816 70.3024 39.868 70.0148 40.0054 69.6837C40.1428 69.3541 40.2114 68.9977 40.2114 68.6161Z" fill="#054375"/>
    <path d="M43.8711 70.771L44.3491 70.2744C44.6855 70.6307 45.0471 70.9001 45.4297 71.0853C45.8138 71.2705 46.2174 71.3617 46.6421 71.3617C47.1537 71.3617 47.5743 71.2396 47.905 70.9969C48.2358 70.7528 48.4012 70.4441 48.4012 70.0696C48.4012 69.7329 48.2835 69.4733 48.0494 69.2923C47.8153 69.1114 47.4299 68.9767 46.893 68.8897L45.9484 68.7396C45.3176 68.64 44.8537 68.4534 44.5537 68.1826C44.2538 67.9105 44.1052 67.5443 44.1052 67.0813C44.1052 66.537 44.3168 66.0979 44.7415 65.7598C45.1662 65.423 45.7213 65.2533 46.4081 65.2533C46.8636 65.2533 47.3164 65.3276 47.7649 65.4778C48.2148 65.6279 48.6227 65.8425 48.9913 66.1245L48.5792 66.6871C48.2232 66.4191 47.8616 66.2157 47.493 66.0782C47.1243 65.9407 46.7529 65.872 46.3786 65.872C45.9105 65.872 45.5321 65.98 45.2419 66.1947C44.9518 66.4107 44.806 66.6857 44.806 67.0238C44.806 67.3296 44.9083 67.5639 45.1144 67.7267C45.3204 67.8894 45.6596 68.0073 46.1348 68.083L47.071 68.2331C47.7817 68.3524 48.3017 68.5544 48.6297 68.842C48.9577 69.1296 49.1216 69.5266 49.1216 70.0317C49.1216 70.3193 49.06 70.583 48.9394 70.8229C48.8175 71.0628 48.6465 71.2705 48.425 71.4416C48.2036 71.6142 47.9387 71.7475 47.6289 71.8443C47.3205 71.9411 46.9813 71.9902 46.6127 71.9902C46.0955 71.9902 45.5965 71.8864 45.12 71.6759C44.6434 71.4669 44.2271 71.1653 43.8711 70.771Z" fill="#054375"/>
    <path d="M60.0564 71.3336C60.4629 71.3336 60.8483 71.2536 61.217 71.0951C61.5856 70.9352 61.894 70.7149 62.1435 70.4343L62.6116 70.9225C62.2878 71.2593 61.901 71.523 61.4511 71.7138C61.0012 71.9032 60.5302 72 60.0382 72C59.5631 72 59.1188 71.913 58.7039 71.7376C58.289 71.5623 57.9288 71.3238 57.6232 71.0207C57.3177 70.7177 57.0766 70.3586 56.9027 69.9433C56.7275 69.528 56.6406 69.0861 56.6406 68.6175C56.6406 68.1489 56.7275 67.707 56.9027 67.2918C57.078 66.8765 57.3177 66.5173 57.6232 66.2143C57.9288 65.9113 58.289 65.6728 58.7039 65.4974C59.1188 65.322 59.5631 65.235 60.0382 65.235C60.5442 65.235 61.0222 65.3305 61.4749 65.5213C61.9276 65.712 62.3117 65.9758 62.6313 66.3139L62.1533 66.8204C61.8968 66.5328 61.58 66.3083 61.203 66.1455C60.826 65.9828 60.4363 65.9014 60.0382 65.9014C59.664 65.9014 59.3121 65.9716 58.9856 66.1119C58.6576 66.2522 58.3758 66.443 58.139 66.6829C57.9021 66.9242 57.7143 67.2118 57.5769 67.5457C57.4396 67.8796 57.3709 68.2373 57.3709 68.6189C57.3709 69.0005 57.4396 69.3569 57.5769 69.6922C57.7143 70.0275 57.9035 70.3137 58.1432 70.555C58.3829 70.7949 58.6674 70.9857 58.9954 71.126C59.3206 71.2635 59.6752 71.3336 60.0564 71.3336Z" fill="#054375"/>
    <path d="M72.3739 68.6161C72.3739 69.0847 72.287 69.5266 72.1117 69.9419C71.9365 70.3572 71.6983 70.7163 71.3955 71.0193C71.0928 71.3224 70.7354 71.5609 70.3233 71.7362C69.9112 71.9116 69.4711 71.9986 69.0043 71.9986C68.5362 71.9986 68.0947 71.9116 67.6798 71.7362C67.2649 71.5609 66.9061 71.3224 66.6033 71.0193C66.3006 70.7163 66.0623 70.3572 65.8871 69.9419C65.7119 69.5266 65.625 69.0847 65.625 68.6161C65.625 68.1475 65.7119 67.7056 65.8871 67.2903C66.0623 66.8751 66.3006 66.5159 66.6033 66.2129C66.9061 65.9099 67.2649 65.6714 67.6798 65.496C68.0947 65.3206 68.5362 65.2336 69.0043 65.2336C69.4725 65.2336 69.9126 65.322 70.3233 65.496C70.7354 65.6714 71.0928 65.9099 71.3955 66.2129C71.6983 66.5159 71.9365 66.8751 72.1117 67.2903C72.287 67.707 72.3739 68.1475 72.3739 68.6161ZM71.6436 68.6161C71.6436 68.2359 71.575 67.8782 71.4376 67.5429C71.3003 67.209 71.1152 66.9214 70.8811 66.6801C70.6471 66.4402 70.3681 66.2494 70.043 66.1091C69.7178 65.9688 69.3716 65.8986 69.0043 65.8986C68.6301 65.8986 68.2797 65.9688 67.9559 66.1091C67.6321 66.2494 67.3518 66.4402 67.1177 66.6801C66.8837 66.9214 66.6987 67.209 66.5613 67.5429C66.424 67.8768 66.3552 68.2345 66.3552 68.6161C66.3552 68.9977 66.424 69.3541 66.5613 69.6837C66.6987 70.0148 66.8851 70.3024 67.1177 70.5466C67.3518 70.7893 67.6307 70.9829 67.9559 71.1232C68.2797 71.2635 68.6301 71.3336 69.0043 71.3336C69.373 71.3336 69.7192 71.2635 70.043 71.1232C70.3667 70.9829 70.6471 70.7907 70.8811 70.5466C71.1152 70.3024 71.3003 70.0148 71.4376 69.6837C71.575 69.3541 71.6436 68.9977 71.6436 68.6161Z" fill="#054375"/>
    <path d="M79.1601 71.4276L76.5951 66.1708V71.8948H75.9209V65.3361H76.9315L79.1685 69.9924L81.3957 65.3361H82.4063V71.8948H81.7237V66.161L79.1601 71.4276Z" fill="#054375"/>
    <path d="M97.1317 68.6161C97.1317 69.0847 97.0448 69.5266 96.8696 69.9419C96.6944 70.3572 96.4561 70.7163 96.1533 71.0193C95.8506 71.3224 95.4932 71.5609 95.0811 71.7362C94.669 71.9116 94.2289 71.9986 93.7621 71.9986C93.294 71.9986 92.8525 71.9116 92.4376 71.7362C92.0227 71.5609 91.6639 71.3224 91.3612 71.0193C91.0584 70.7163 90.8201 70.3572 90.6449 69.9419C90.4697 69.5266 90.3828 69.0847 90.3828 68.6161C90.3828 68.1475 90.4697 67.7056 90.6449 67.2903C90.8201 66.8751 91.0584 66.5159 91.3612 66.2129C91.6639 65.9099 92.0227 65.6714 92.4376 65.496C92.8525 65.3206 93.294 65.2336 93.7621 65.2336C94.2303 65.2336 94.6704 65.322 95.0811 65.496C95.4932 65.6714 95.8506 65.9099 96.1533 66.2129C96.4561 66.5159 96.6944 66.8751 96.8696 67.2903C97.0434 67.707 97.1317 68.1475 97.1317 68.6161ZM96.4014 68.6161C96.4014 68.2359 96.3327 67.8782 96.1954 67.5429C96.058 67.209 95.873 66.9214 95.639 66.6801C95.4049 66.4402 95.126 66.2494 94.8008 66.1091C94.4756 65.9688 94.1294 65.8986 93.7621 65.8986C93.3879 65.8986 93.0375 65.9688 92.7137 66.1091C92.3899 66.2494 92.1096 66.4402 91.8755 66.6801C91.6415 66.9214 91.4564 67.209 91.3191 67.5429C91.1817 67.8768 91.1131 68.2345 91.1131 68.6161C91.1131 68.9977 91.1817 69.3541 91.3191 69.6837C91.4564 70.0148 91.6429 70.3024 91.8755 70.5466C92.1096 70.7893 92.3885 70.9829 92.7137 71.1232C93.0375 71.2635 93.3879 71.3336 93.7621 71.3336C94.1308 71.3336 94.477 71.2635 94.8008 71.1232C95.1246 70.9829 95.4049 70.7907 95.639 70.5466C95.873 70.3024 96.058 70.0148 96.1954 69.6837C96.3327 69.3541 96.4014 68.9977 96.4014 68.6161Z" fill="#054375"/>
    <path d="M107.111 71.8962L104.424 65.3375H105.2L107.569 71.2214L109.974 65.3375H110.705L107.981 71.8962H107.111Z" fill="#054375"/>
    <path d="M112.07 71.8962L114.794 65.3375H115.664L118.351 71.8962H117.565L116.741 69.8353H113.651L112.819 71.8962H112.07ZM113.905 69.2166H116.488L115.206 66.0123L113.905 69.2166Z" fill="#054375"/>
    <path d="M121.524 71.8962V65.3375H124.332C124.968 65.3375 125.483 65.51 125.877 65.8579C126.269 66.2045 126.467 66.659 126.467 67.2216C126.467 67.6523 126.34 68.0241 126.087 68.3369C125.834 68.6498 125.495 68.8644 125.071 68.9837L126.541 71.8976H125.745L124.34 69.0777H122.244V71.8976H121.524V71.8962ZM124.286 65.9842H122.245V68.4674H124.286C124.722 68.4674 125.075 68.3538 125.343 68.1251C125.61 67.8964 125.745 67.5962 125.745 67.2202C125.745 66.8442 125.61 66.5454 125.343 66.3209C125.075 66.0965 124.722 65.9842 124.286 65.9842Z" fill="#054375"/>
    <path d="M129.977 71.8962V65.3375H134.666V65.9744H130.698V68.2696H133.291V68.8967H130.698V71.2579H134.704V71.8948H129.977V71.8962Z" fill="#054375"/>
    <path d="M142.464 69.4228C142.464 70.2042 142.239 70.8285 141.789 71.2957C141.339 71.7643 140.735 71.9986 139.973 71.9986C139.411 71.9986 138.923 71.8513 138.508 71.5581C138.093 71.2649 137.789 70.8524 137.596 70.3221L138.25 70.0499C138.418 70.482 138.648 70.8033 138.938 71.0151C139.229 71.227 139.576 71.3336 139.983 71.3336C140.512 71.3336 140.939 71.1582 141.261 70.8089C141.582 70.4596 141.743 69.9938 141.743 69.413V65.3375H142.464V69.4228Z" fill="#054375"/>
    <path d="M152.628 68.6161C152.628 69.0847 152.541 69.5266 152.366 69.9419C152.191 70.3572 151.953 70.7163 151.65 71.0193C151.347 71.3224 150.99 71.5609 150.578 71.7362C150.166 71.9116 149.725 71.9986 149.257 71.9986C148.789 71.9986 148.348 71.9116 147.933 71.7362C147.518 71.5609 147.159 71.3224 146.856 71.0193C146.554 70.7163 146.315 70.3572 146.14 69.9419C145.965 69.5266 145.878 69.0847 145.878 68.6161C145.878 68.1475 145.965 67.7056 146.14 67.2903C146.315 66.8751 146.554 66.5159 146.856 66.2129C147.159 65.9099 147.518 65.6714 147.933 65.496C148.348 65.3206 148.789 65.2336 149.257 65.2336C149.725 65.2336 150.166 65.322 150.578 65.496C150.99 65.6714 151.347 65.9099 151.65 66.2129C151.953 66.5159 152.191 66.8751 152.366 67.2903C152.541 67.707 152.628 68.1475 152.628 68.6161ZM151.899 68.6161C151.899 68.2359 151.831 67.8782 151.693 67.5429C151.556 67.209 151.37 66.9214 151.136 66.6801C150.901 66.4402 150.622 66.2494 150.299 66.1091C149.974 65.9688 149.627 65.8986 149.26 65.8986C148.886 65.8986 148.535 65.9688 148.212 66.1091C147.888 66.2494 147.608 66.4402 147.374 66.6801C147.139 66.9214 146.953 67.209 146.816 67.5429C146.678 67.8768 146.61 68.2345 146.61 68.6161C146.61 68.9977 146.678 69.3541 146.816 69.6837C146.953 70.0148 147.139 70.3024 147.374 70.5466C147.608 70.7893 147.887 70.9829 148.212 71.1232C148.535 71.2635 148.886 71.3336 149.26 71.3336C149.629 71.3336 149.975 71.2635 150.299 71.1232C150.622 70.9829 150.903 70.7907 151.136 70.5466C151.37 70.3024 151.556 70.0148 151.693 69.6837C151.829 69.3541 151.899 68.9977 151.899 68.6161Z" fill="#054375"/>
    <path d="M160.604 65.3375H163.262C163.893 65.3375 164.395 65.4904 164.769 65.7962C165.143 66.1021 165.331 66.5117 165.331 67.0238C165.331 67.3605 165.242 67.6551 165.065 67.9048C164.888 68.1546 164.642 68.3454 164.331 68.4758C164.723 68.5951 165.034 68.7929 165.263 69.0707C165.49 69.3485 165.605 69.6753 165.605 70.0499C165.605 70.6125 165.4 71.06 164.992 71.3939C164.583 71.7278 164.045 71.8948 163.377 71.8948H160.606V65.3375H160.604ZM163.225 65.9646H161.324V68.1952H163.225C163.649 68.1952 163.987 68.0942 164.241 67.8908C164.493 67.6874 164.619 67.418 164.619 67.0799C164.619 66.7418 164.493 66.4724 164.241 66.269C163.987 66.067 163.649 65.9646 163.225 65.9646ZM163.319 71.2677C163.787 71.2677 164.162 71.1554 164.447 70.9296C164.73 70.7051 164.873 70.4049 164.873 70.0303C164.873 69.6557 164.731 69.3555 164.447 69.131C164.162 68.9065 163.787 68.7943 163.319 68.7943H161.325V71.2677H163.319Z" fill="#054375"/>
    <path d="M169.169 71.8962V65.3375H171.976C172.613 65.3375 173.127 65.51 173.521 65.8579C173.913 66.2045 174.111 66.659 174.111 67.2216C174.111 67.6523 173.985 68.0241 173.731 68.3369C173.479 68.6498 173.14 68.8644 172.715 68.9837L174.185 71.8976H173.389L171.985 69.0777H169.888V71.8976H169.169V71.8962ZM171.93 65.9842H169.889V68.4674H171.93C172.366 68.4674 172.719 68.3538 172.987 68.1251C173.255 67.8964 173.389 67.5962 173.389 67.2202C173.389 66.8442 173.255 66.5454 172.987 66.3209C172.719 66.0965 172.366 65.9842 171.93 65.9842Z" fill="#054375"/>
    <path d="M177.031 71.8962L179.755 65.3375H180.625L183.312 71.8962H182.526L181.701 69.8353H178.612L177.78 71.8962H177.031ZM178.866 69.2166H181.449L180.167 66.0123L178.866 69.2166Z" fill="#054375"/>
    <path d="M186.055 70.771L186.531 70.2744C186.869 70.6307 187.229 70.9001 187.612 71.0853C187.996 71.2705 188.4 71.3617 188.824 71.3617C189.336 71.3617 189.758 71.2396 190.089 70.9969C190.419 70.7528 190.585 70.4441 190.585 70.0696C190.585 69.7329 190.467 69.4733 190.234 69.2923C190 69.1114 189.615 68.9767 189.078 68.8897L188.133 68.7396C187.503 68.64 187.039 68.4534 186.739 68.1826C186.439 67.9105 186.29 67.5443 186.29 67.0813C186.29 66.537 186.502 66.0979 186.927 65.7598C187.351 65.423 187.906 65.2533 188.593 65.2533C189.049 65.2533 189.501 65.3276 189.95 65.4778C190.4 65.6279 190.808 65.8425 191.176 66.1245L190.764 66.6871C190.408 66.4191 190.047 66.2157 189.678 66.0782C189.309 65.9407 188.939 65.872 188.564 65.872C188.095 65.872 187.717 65.98 187.427 66.1947C187.137 66.4107 186.992 66.6857 186.992 67.0238C186.992 67.3296 187.096 67.5639 187.301 67.7267C187.507 67.8894 187.846 68.0073 188.321 68.083L189.257 68.2331C189.968 68.3524 190.488 68.5544 190.816 68.842C191.143 69.1296 191.307 69.5266 191.307 70.0317C191.307 70.3193 191.246 70.583 191.124 70.8229C191.002 71.0628 190.831 71.2705 190.61 71.4416C190.389 71.6142 190.124 71.7475 189.814 71.8443C189.504 71.9411 189.166 71.9902 188.798 71.9902C188.28 71.9902 187.781 71.8864 187.305 71.6759C186.827 71.4669 186.411 71.1653 186.055 70.771Z" fill="#054375"/>
    <path d="M194.703 71.8962V65.3375H195.424V71.8962H194.703Z" fill="#054375"/>
    <path d="M199.28 71.8962V65.3375H200.001V71.2494H203.904V71.8962H199.28Z" fill="#054375"/>
    <path d="M207.349 71.8962V65.3375H212.039V65.9744H208.069V68.2696H210.662V68.8967H208.069V71.2579H212.075V71.8948H207.349V71.8962Z" fill="#054375"/>
    <path d="M215.53 71.8962V65.3375H216.251V71.8962H215.53Z" fill="#054375"/>
    <path d="M220.107 71.8962V65.3375H222.915C223.551 65.3375 224.066 65.51 224.459 65.8579C224.852 66.2045 225.05 66.659 225.05 67.2216C225.05 67.6523 224.923 68.0241 224.67 68.3369C224.417 68.6498 224.078 68.8644 223.654 68.9837L225.124 71.8976H224.328L222.923 69.0777H220.826V71.8976H220.107V71.8962ZM222.869 65.9842H220.828V68.4674H222.869C223.305 68.4674 223.658 68.3538 223.925 68.1251C224.193 67.8964 224.328 67.5962 224.328 67.2202C224.328 66.8442 224.193 66.5454 223.925 66.3209C223.658 66.0965 223.305 65.9842 222.869 65.9842Z" fill="#054375"/>
    <path d="M235 68.6161C235 69.0847 234.913 69.5266 234.738 69.9419C234.563 70.3572 234.324 70.7163 234.022 71.0193C233.719 71.3224 233.361 71.5609 232.949 71.7362C232.537 71.9116 232.097 71.9986 231.63 71.9986C231.162 71.9986 230.721 71.9116 230.306 71.7362C229.891 71.5609 229.532 71.3224 229.229 71.0193C228.927 70.7163 228.688 70.3572 228.513 69.9419C228.338 69.5266 228.251 69.0847 228.251 68.6161C228.251 68.1475 228.338 67.7056 228.513 67.2903C228.688 66.8751 228.927 66.5159 229.229 66.2129C229.532 65.9099 229.891 65.6714 230.306 65.496C230.721 65.3206 231.162 65.2336 231.63 65.2336C232.099 65.2336 232.539 65.322 232.949 65.496C233.361 65.6714 233.719 65.9099 234.022 66.2129C234.324 66.5159 234.563 66.8751 234.738 67.2903C234.912 67.707 235 68.1475 235 68.6161ZM234.27 68.6161C234.27 68.2359 234.201 67.8782 234.064 67.5429C233.926 67.209 233.741 66.9214 233.507 66.6801C233.273 66.4402 232.994 66.2494 232.669 66.1091C232.344 65.9688 231.998 65.8986 231.63 65.8986C231.256 65.8986 230.906 65.9688 230.582 66.1091C230.258 66.2494 229.978 66.4402 229.744 66.6801C229.51 66.9214 229.325 67.209 229.187 67.5429C229.05 67.8768 228.981 68.2345 228.981 68.6161C228.981 68.9977 229.05 69.3541 229.187 69.6837C229.325 70.0148 229.511 70.3024 229.744 70.5466C229.978 70.7893 230.257 70.9829 230.582 71.1232C230.906 71.2635 231.256 71.3336 231.63 71.3336C231.999 71.3336 232.345 71.2635 232.669 71.1232C232.993 70.9829 233.273 70.7907 233.507 70.5466C233.741 70.3024 233.926 70.0148 234.064 69.6837C234.201 69.3541 234.27 68.9977 234.27 68.6161Z" fill="#054375"/>
</svg>
