<svg width="112" height="277" viewBox="0 0 112 277" fill="none" xmlns="http://www.w3.org/2000/svg">
<mask id="mask0_3153_2652" style="mask-type:alpha" maskUnits="userSpaceOnUse" x="0" y="0" width="112" height="277">
<rect width="112" height="277" fill="#D9D9D9"/>
</mask>
<g mask="url(#mask0_3153_2652)">
<g opacity="0.15">
<path d="M-122.967 22.6719C-82.4928 22.6719 -46.9246 43.385 -26.3809 74.7594H-9.97661C24.6717 74.7594 52.881 102.783 52.881 137.203C52.881 122.887 64.686 111.16 79.0972 111.16C93.5085 111.16 105.313 122.735 105.313 137.203C105.313 73.9979 53.4942 22.6719 -10.1299 22.6719H-126.187C-126.033 22.6719 -125.88 22.6719 -125.727 22.6719L-122.967 22.6719Z" fill="#A5CD39"/>
<path d="M79.2505 111.312C64.8392 111.312 53.0343 123.04 53.0343 137.356C53.0343 171.777 24.825 199.8 -9.82334 199.8H-26.2276C-46.7713 231.175 -82.4929 251.888 -122.814 251.888H-9.67004C53.9541 251.888 105.773 200.41 105.773 137.204C105.62 122.888 93.815 111.312 79.2505 111.312Z" fill="#213871"/>
</g>
</g>
</svg>
