<svg width="68" height="160" viewBox="0 0 68 160" fill="none" xmlns="http://www.w3.org/2000/svg">
<mask id="mask0_3151_2631" style="mask-type:alpha" maskUnits="userSpaceOnUse" x="0" y="0" width="68" height="160">
<rect width="68" height="160" fill="#D9D9D9"/>
</mask>
<g mask="url(#mask0_3151_2631)">
<g opacity="0.15">
<path d="M141.645 151.128C116.556 151.128 94.5083 138.288 81.7738 118.84H71.6053C50.1278 118.84 32.6417 101.469 32.6417 80.1328C32.6417 89.0072 25.3242 96.2766 16.391 96.2766C7.45793 96.2766 0.140381 89.1016 0.140381 80.1328C0.140381 119.312 32.2616 151.128 71.7003 151.128H143.45C143.355 151.128 143.26 151.128 143.165 151.128H141.645Z" fill="#F9A61C"/>
<path d="M16.296 96.2713C25.2291 96.2713 32.5467 89.0019 32.5467 80.1275C32.5467 58.7914 50.0328 41.4203 71.5102 41.4203H81.6788C94.4132 21.9723 116.556 9.13281 141.55 9.13281H71.4152C31.9765 9.13281 -0.144714 41.0427 -0.144714 80.222C0.0453519 89.0019 7.26787 96.2713 16.296 96.2713Z" fill="#0FA8BD"/>
</g>
</g>
</svg>
