<svg width="320" height="240" viewBox="0 0 320 240" fill="none" xmlns="http://www.w3.org/2000/svg">
<path opacity="0.3" d="M250.288 125.099C251.842 123.528 251.842 120.982 250.288 119.412L142.806 10.8023C141.097 9.0757 138.272 9.27407 136.816 11.2229L97.259 64.1738C96.0631 65.7747 96.2176 68.0212 97.6212 69.4395L146.959 119.295C148.513 120.865 148.513 123.411 146.959 124.981L91.3362 181.188C89.6282 182.913 89.8236 185.767 91.7505 187.238L144.255 227.341C145.839 228.551 148.064 228.395 149.468 226.977L250.288 125.099Z" fill="#1090F9"/>
<path opacity="0.3" d="M249.499 128.456C250.664 129.634 250.664 131.543 249.499 132.721L148.679 234.599C147.626 235.663 145.957 235.78 144.769 234.872L92.2646 194.77C90.8194 193.666 90.6729 191.526 91.9539 190.232L147.577 134.025C149.519 132.063 149.519 128.88 147.577 126.917L98.2389 77.0621C97.1862 75.9984 97.0704 74.3135 97.9673 73.1128L137.525 20.1619C138.617 18.7003 140.735 18.5515 142.017 19.8465L249.499 128.456Z" stroke="#05BDFB" stroke-width="2"/>
<path opacity="0.3" d="M192.795 24.215C193.899 24.215 194.795 25.1104 194.795 26.215L194.795 28.8891C194.795 29.7656 194.02 30.4399 193.152 30.319C192.438 30.2196 191.907 29.6095 191.907 28.8891L191.907 28.7055C191.907 27.8189 191.189 27.1001 190.302 27.1001L190.115 27.1001C189.239 27.1001 188.565 26.3258 188.686 25.4583C188.785 24.7455 189.395 24.215 190.115 24.215L192.795 24.215Z" fill="#1090F9"/>
<path opacity="0.3" d="M243.12 80.9464C243.673 81.9028 243.345 83.1255 242.388 83.6775L238.427 85.9626C237.375 86.5694 236.02 86.0855 235.564 84.9604C235.189 84.0358 235.546 82.9604 236.411 82.4618L236.866 82.199C237.823 81.6471 238.151 80.4243 237.598 79.4679L237.333 79.0092C236.725 77.9578 237.188 76.6127 238.313 76.1568L238.352 76.141C239.277 75.7663 240.337 76.1306 240.837 76.9947L243.12 80.9464Z" fill="#1090F9"/>
<path opacity="0.3" d="M155.399 206.212C155.951 207.169 155.624 208.391 154.667 208.943L150.706 211.228C149.654 211.835 148.299 211.351 147.843 210.226C147.468 209.302 147.825 208.226 148.69 207.728L149.145 207.465C150.102 206.913 150.429 205.69 149.877 204.734L149.612 204.275C149.004 203.224 149.467 201.879 150.592 201.423L150.631 201.407C151.556 201.032 152.616 201.396 153.115 202.261L155.399 206.212Z" fill="#1090F9"/>
<path opacity="0.3" d="M240.574 163.884C239.792 163.104 239.792 161.838 240.574 161.057L247.81 153.827C248.691 152.946 250.155 153.076 250.867 154.099L251.549 155.078C252.102 155.872 252.006 156.949 251.321 157.633L248.946 160.007C248.164 160.788 248.164 162.053 248.946 162.834L250.329 164.216C251.171 165.057 251.096 166.442 250.168 167.188L248.083 168.865C247.287 169.504 246.136 169.442 245.414 168.721L240.574 163.884Z" fill="#1090F9"/>
<path d="M109.006 148.591L127.266 191.442C127.563 192.14 128.499 192.265 128.97 191.671L240.359 51L109.006 148.591Z" fill="#BDEEFE" stroke="#054375" stroke-width="2"/>
<path opacity="0.14" d="M117.016 151.169L130.421 189.775L232.219 60.4037L117.016 151.169Z" fill="#054375"/>
<path d="M240.062 51.0264L74.9296 130.427C71.6704 131.994 71.9988 136.738 75.4429 137.841L109.006 148.591L240.062 51.0264Z" fill="#E1F7FF" stroke="#054375" stroke-width="2"/>
<path d="M124.048 172.986L116.502 152.112M129.398 169.218L121.852 148.344M134.695 164.855L127.149 143.982M140.045 161.087L132.499 140.213M145.342 156.724L137.796 135.851M150.665 152.659L143.119 131.785M155.395 148.646L147.849 127.773" stroke="#054375" stroke-linecap="round"/>
<path d="M126.999 152.374L127.862 190.211C127.883 191.148 129.066 191.544 129.646 190.808L159.922 152.433L126.999 152.374Z" fill="#BDEEFE" stroke="#054375" stroke-width="2"/>
<path d="M94.5474 157.43L63.8829 188.151M109.89 177.573L95.5522 192.078L81.2149 206.582M84.6296 183.989L56.1534 212.45" stroke="#0388B5" stroke-width="2" stroke-linecap="round"/>
<rect x="103.37" y="80.2119" width="79.6003" height="54.386" rx="8" transform="rotate(-9.72099 103.37 80.2119)" fill="white"/>
<rect x="102.325" y="82.7958" width="78.2018" height="54.1413" rx="7" transform="rotate(-9.72099 102.325 82.7958)" fill="white" stroke="#054375" stroke-width="2"/>
<path d="M178.434 112.672L115.05 123.655L115.756 127.73L179.14 116.747L178.434 112.672Z" fill="#7CDDFD"/>
<path d="M179.232 117.271L115.847 128.254C115.427 128.327 115.045 128.154 114.995 127.868L114.289 123.793C114.24 123.507 114.541 123.216 114.961 123.143L178.346 112.16C178.767 112.087 179.148 112.26 179.198 112.546L179.904 116.621C179.954 116.907 179.652 117.199 179.232 117.271ZM115.754 127.066L178.873 116.365L178.346 113.327L115.228 124.028L115.754 127.066Z" fill="#054375"/>
<rect x="110.771" y="102.547" width="16.457" height="10.9713" rx="2" transform="rotate(-10.0137 110.771 102.547)" fill="#F5DA57"/>
<path d="M182.898 152.451L126.999 152.374L236.451 54.2631C237.26 53.538 238.482 54.4415 238.026 55.4276L197.442 143.168C194.821 148.835 189.142 152.459 182.898 152.451Z" fill="#E1F7FF" stroke="#054375" stroke-width="2"/>
</svg>
