<svg width="320" height="248" viewBox="0 0 320 248" fill="none" xmlns="http://www.w3.org/2000/svg">
<path opacity="0.3" d="M254.68 129.137C256.233 127.566 256.233 125.02 254.68 123.449L145.394 12.9292C143.686 11.2019 140.862 11.4003 139.407 13.3499L99.1424 67.2889C97.947 68.8903 98.1015 71.1378 99.5044 72.5566L149.711 123.329C151.264 124.9 151.264 127.447 149.711 129.018L93.107 186.26C91.3996 187.987 91.5949 190.841 93.5211 192.314L146.963 233.164C148.547 234.375 150.771 234.219 152.174 232.8L254.68 129.137Z" fill="#1090F9"/>
<path opacity="0.3" d="M253.889 132.632C255.054 133.811 255.054 135.721 253.889 136.899L151.383 240.561C150.33 241.626 148.663 241.743 147.475 240.835L94.0328 199.984C92.5882 198.88 92.4417 196.739 93.7222 195.444L150.326 138.202C152.268 136.238 152.268 133.055 150.326 131.091L100.12 80.3182C99.0674 79.2541 98.9516 77.5685 99.8482 76.3674L140.112 22.4285C141.204 20.9663 143.322 20.8174 144.603 22.1129L253.889 132.632Z" stroke="#05BDFB" stroke-width="2"/>
<path opacity="0.3" d="M196.259 26.6182C197.363 26.6182 198.259 27.5136 198.259 28.6182L198.259 31.3713C198.259 32.2618 197.472 32.9468 196.59 32.8239C195.865 32.7229 195.325 32.1031 195.325 31.3713L195.325 31.1824C195.325 30.2816 194.595 29.5514 193.694 29.5514L193.505 29.5514C192.615 29.5514 191.93 28.7643 192.053 27.8823C192.154 27.1576 192.774 26.6182 193.505 26.6182L196.259 26.6182Z" fill="#1090F9"/>
<path opacity="0.3" d="M246.27 71.322C246.823 72.2786 246.495 73.5018 245.538 74.0541L241.455 76.4119C240.403 77.0191 239.057 76.5566 238.601 75.4312L238.561 75.3316C238.186 74.4067 238.55 73.3471 239.414 72.8481L239.929 72.551C240.885 71.9987 241.213 70.7755 240.661 69.819L240.356 69.2915C239.749 68.2398 240.212 66.8942 241.337 66.438L241.437 66.3976C242.361 66.0227 243.421 66.3868 243.92 67.2511L246.27 71.322Z" fill="#1090F9"/>
<path opacity="0.3" d="M148.407 211.678C148.959 212.634 148.632 213.857 147.675 214.41L143.591 216.767C142.54 217.375 141.194 216.912 140.738 215.787L140.697 215.687C140.323 214.762 140.687 213.703 141.551 213.204L142.066 212.906C143.022 212.354 143.35 211.131 142.798 210.174L142.493 209.647C141.886 208.595 142.348 207.25 143.474 206.793L143.573 206.753C144.498 206.378 145.558 206.742 146.057 207.607L148.407 211.678Z" fill="#1090F9"/>
<path opacity="0.3" d="M244.742 168.593C243.961 167.812 243.961 166.545 244.742 165.764L252.143 158.363C253.024 157.482 254.488 157.612 255.199 158.635L255.93 159.685C256.483 160.48 256.387 161.557 255.702 162.241L253.247 164.697C252.466 165.478 252.466 166.744 253.247 167.525L254.701 168.979C255.542 169.82 255.468 171.205 254.541 171.951L252.371 173.697C251.575 174.337 250.425 174.275 249.703 173.553L244.742 168.593Z" fill="#1090F9"/>
<path d="M124.621 136.067L140.829 174.102C141.127 174.8 142.062 174.926 142.533 174.331L241.728 49.0603L124.621 136.067Z" fill="#BDEEFE" stroke="#054375" stroke-width="2"/>
<path opacity="0.14" d="M131.761 138.366L143.713 172.784L234.47 57.4447L131.761 138.366Z" fill="#054375"/>
<path d="M241.464 49.0842L95.2229 119.401C91.9637 120.968 92.2921 125.712 95.7361 126.815L124.622 136.067L241.464 49.0842Z" fill="#E1F7FF" stroke="#054375" stroke-width="2"/>
<circle cx="173.494" cy="97.0783" r="19.7254" transform="rotate(-5.0925 173.494 97.0783)" fill="#F7E06E"/>
<circle cx="171.364" cy="98.5053" r="18.7979" transform="rotate(-5.0925 171.364 98.5053)" fill="#F9EC76" stroke="#054375" stroke-width="2"/>
<path fill-rule="evenodd" clip-rule="evenodd" d="M170.836 107.417L171.021 109.497C171.051 109.825 171.34 110.068 171.669 110.039L172.263 109.986C172.591 109.956 172.834 109.667 172.805 109.338L172.618 107.249C173.549 107.138 174.722 106.922 175.735 106.386C176.445 106.01 177.112 105.462 177.565 104.659C178.02 103.852 178.218 102.862 178.113 101.676C178.007 100.49 177.637 99.5504 177.046 98.8371C176.458 98.1264 175.705 97.7046 174.94 97.4606C173.847 97.1121 172.655 97.1068 171.72 97.1624L171.136 90.615L175.594 90.2177C175.922 90.1885 176.165 89.8987 176.135 89.5704L176.082 88.976C176.053 88.6477 175.763 88.4053 175.435 88.4346L170.977 88.8318L170.792 86.7515C170.762 86.4232 170.473 86.1808 170.144 86.2101L169.55 86.263C169.222 86.2923 168.979 86.5821 169.009 86.9104L169.195 89.0068C168.223 89.1304 167.103 89.3508 166.139 89.831C165.41 90.1943 164.726 90.7257 164.258 91.5114C163.788 92.3023 163.584 93.2728 163.688 94.4293C163.791 95.5867 164.163 96.5127 164.748 97.2262C165.328 97.9352 166.072 98.379 166.831 98.6521C167.935 99.0489 169.136 99.1064 170.092 99.0731L170.677 105.634L166.219 106.031C165.891 106.06 165.649 106.35 165.678 106.678L165.731 107.273C165.76 107.601 166.05 107.843 166.378 107.814L170.836 107.417ZM172.459 105.464C173.281 105.363 174.167 105.19 174.898 104.803C175.38 104.548 175.759 104.217 176.006 103.779C176.252 103.343 176.409 102.729 176.33 101.835C176.25 100.941 175.986 100.364 175.667 99.9786C175.346 99.5909 174.916 99.3319 174.396 99.1661C173.608 98.9149 172.705 98.9013 171.879 98.9476L172.459 105.464ZM169.933 97.2865L169.355 90.7924C168.504 90.9033 167.646 91.0807 166.938 91.4334C166.43 91.6865 166.045 92.0096 165.797 92.4265C165.552 92.8381 165.395 93.4182 165.471 94.2704C165.547 95.1215 165.807 95.6938 166.133 96.0921C166.463 96.4951 166.907 96.777 167.437 96.9674C168.221 97.2494 169.125 97.3081 169.933 97.2865Z" fill="#054375"/>
<path d="M138.031 157.816L131.304 139.206M142.801 154.456L136.074 135.847M147.524 150.567L140.796 131.957M152.293 147.207L145.566 128.598M157.016 143.318L150.288 124.708M161.762 139.694L155.034 121.084M165.979 136.116L159.251 117.507" stroke="#054375" stroke-linecap="round"/>
<path d="M189.389 139.506L140.663 139.439L237.853 52.3206C238.662 51.5955 239.884 52.499 239.428 53.4851L203.933 130.223C201.311 135.89 195.633 139.515 189.389 139.506Z" fill="#E1F7FF" stroke="#054375" stroke-width="2"/>
<path d="M140.662 139.44L141.424 172.872C141.445 173.809 142.628 174.204 143.209 173.469L170.014 139.492L140.662 139.44Z" fill="#BDEEFE" stroke="#054375" stroke-width="2"/>
<path d="M111.73 143.948L84.3916 171.336M125.409 161.906L112.626 174.837L99.8439 187.769M102.888 167.626L77.5005 193" stroke="#0388B5" stroke-width="2" stroke-linecap="round"/>
</svg>
