<svg width="211" height="285" viewBox="0 0 211 285" fill="none" xmlns="http://www.w3.org/2000/svg">
<path opacity="0.3" d="M174.939 171.276C176.489 169.706 176.489 167.156 174.939 165.586L65.649 55.0763C63.939 53.3463 61.119 53.5463 59.659 55.4963L19.399 109.436C18.199 111.036 18.359 113.286 19.759 114.706L69.969 165.476C71.519 167.046 71.519 169.596 69.969 171.166L13.369 228.406C11.659 230.136 11.859 232.986 13.779 234.456L67.219 275.306C68.799 276.516 71.029 276.356 72.429 274.936L174.939 171.276Z" fill="#1090F9"/>
<path opacity="0.3" d="M64.8617 64.2579L174.152 174.778C175.322 175.958 175.322 177.868 174.152 179.048L71.6417 282.708C70.5917 283.778 68.9217 283.888 67.7317 282.978L14.2917 242.128C12.8517 241.028 12.7017 238.888 13.9817 237.588L70.5817 180.348C72.5217 178.388 72.5217 175.198 70.5817 173.238L20.3717 122.458C19.3217 121.398 19.2017 119.708 20.1017 118.508L60.3617 64.5679C61.4517 63.1079 63.5717 62.9579 64.8517 64.2479L64.8617 64.2579Z" stroke="#6ABBF8" stroke-width="2"/>
<path opacity="0.3" d="M116.52 68.7559C117.62 68.7559 118.52 69.6559 118.52 70.7559V73.5059C118.52 74.3959 117.73 75.0859 116.85 74.9559C116.13 74.8559 115.59 74.2359 115.59 73.5059V73.3159C115.59 72.4159 114.86 71.6859 113.96 71.6859H113.77C112.88 71.6859 112.19 70.8959 112.32 70.0159C112.42 69.2959 113.04 68.7559 113.77 68.7559H116.52Z" fill="#528EF4"/>
<path opacity="0.3" d="M166.529 113.465C167.079 114.425 166.749 115.645 165.799 116.195L161.719 118.555C160.669 119.165 159.319 118.695 158.869 117.575L158.829 117.475C158.449 116.555 158.819 115.495 159.679 114.995L160.189 114.695C161.149 114.145 161.469 112.915 160.919 111.965L160.619 111.435C160.009 110.385 160.479 109.035 161.599 108.585L161.699 108.545C162.619 108.175 163.679 108.535 164.179 109.395L166.529 113.465Z" fill="#528EF4"/>
<path opacity="0.3" d="M68.6649 253.825C69.2149 254.785 68.885 256.005 67.935 256.555L63.855 258.915C62.805 259.525 61.4549 259.065 61.0049 257.935L60.965 257.835C60.595 256.905 60.9549 255.845 61.8149 255.355L62.325 255.055C63.285 254.505 63.605 253.285 63.055 252.325L62.7449 251.795C62.1349 250.745 62.6049 249.395 63.7249 248.945L63.825 248.905C64.755 248.525 65.8149 248.895 66.3049 249.755L68.655 253.825H68.6649Z" fill="#528EF4"/>
<path opacity="0.3" d="M164.999 210.735C164.219 209.955 164.219 208.685 164.999 207.905L172.399 200.505C173.279 199.625 174.749 199.755 175.459 200.775L176.189 201.825C176.739 202.615 176.649 203.695 175.959 204.385L173.499 206.845C172.719 207.625 172.719 208.895 173.499 209.675L174.949 211.125C175.789 211.965 175.719 213.355 174.789 214.095L172.619 215.845C171.819 216.485 170.669 216.425 169.949 215.705L164.989 210.745L164.999 210.735Z" fill="#528EF4"/>
<mask id="mask0_1380_39545" style="mask-type:luminance" maskUnits="userSpaceOnUse" x="0" y="0" width="211" height="254">
<path d="M163.842 182.506L94.0622 253.076L0.242188 95.036L103.922 0.666016L210.482 68.756V147.426L163.842 182.506Z" fill="white"/>
</mask>
<g mask="url(#mask0_1380_39545)">
<mask id="mask1_1380_39545" style="mask-type:luminance" maskUnits="userSpaceOnUse" x="38" y="25" width="161" height="353">
<path d="M198.523 25.3848H38.5234V377.385H198.523V25.3848Z" fill="white"/>
</mask>
<g mask="url(#mask1_1380_39545)">
<path d="M142.167 46.2057C142.987 43.9757 142.297 41.3158 140.657 39.5957C139.007 37.8757 137.577 37.8758 137.817 37.6558C138.587 35.6058 136.907 33.2757 134.837 32.5957C132.757 31.9157 130.497 32.4357 128.417 33.1057C127.627 29.5257 124.537 26.5657 120.937 25.9357C117.337 25.3057 113.427 27.0257 111.467 30.1257C108.447 28.1057 104.157 28.2357 101.247 30.4157C98.3471 32.5957 97.0271 36.6957 98.1171 40.1657C95.7271 41.4057 94.3471 44.3357 94.9171 46.9657C95.4771 49.5957 97.9271 51.7057 100.607 51.8657C100.547 54.8357 101.057 57.8057 102.077 60.5957L137.377 63.4657C137.377 63.4657 138.347 57.3757 138.347 55.2157C138.347 52.5457 138.547 50.0257 138.547 50.0257C138.967 50.0557 141.347 48.4457 142.167 46.2157V46.2057Z" fill="#054375"/>
<path d="M122.749 34.2669L121.809 34.2169C112.349 33.7369 104.109 40.6369 102.879 50.0469C101.739 58.7969 100.579 68.4869 100.409 73.2069C100.039 82.9769 109.719 84.9769 109.719 84.9769L108.309 96.6669L131.999 97.1069L136.199 54.6769C137.569 44.5769 132.849 35.3669 122.749 34.2669Z" fill="#F0FBFF"/>
<path d="M109.64 84.9674C109.64 84.9674 115.85 85.6474 122.6 81.8574C122.6 81.8574 119.25 88.7374 109.57 87.3674L109.64 84.9674Z" fill="#D7DEE5"/>
<path d="M106.92 59.4165C106.85 60.1465 107.43 60.8065 108.19 60.8965C108.96 60.9765 109.62 60.4465 109.69 59.7165C109.76 58.9865 109.18 58.3265 108.42 58.2365C107.65 58.1565 106.98 58.6865 106.92 59.4165Z" fill="#054375"/>
<path d="M104.729 54.9348C104.899 55.1248 105.989 54.3948 107.479 54.4748C108.979 54.5348 110.029 55.3548 110.209 55.1848C110.289 55.1048 110.139 54.7648 109.679 54.4048C109.219 54.0248 108.439 53.6548 107.509 53.6148C106.579 53.5748 105.779 53.8848 105.299 54.2048C104.829 54.5348 104.649 54.8548 104.729 54.9448V54.9348Z" fill="#054375"/>
<path d="M121.209 60.0962C121.139 60.8262 121.719 61.4862 122.479 61.5762C123.249 61.6562 123.909 61.1262 123.979 60.3962C124.039 59.6662 123.469 59.0062 122.709 58.9162C121.939 58.8362 121.269 59.3662 121.209 60.0962Z" fill="#054375"/>
<path d="M119.45 55.9465C119.62 56.1365 120.71 55.4065 122.2 55.4865C123.7 55.5465 124.75 56.3665 124.93 56.1965C125.01 56.1165 124.86 55.7765 124.39 55.4165C123.93 55.0465 123.15 54.6665 122.22 54.6265C121.29 54.5865 120.49 54.8965 120.01 55.2165C119.54 55.5465 119.36 55.8665 119.44 55.9465H119.45Z" fill="#054375"/>
<path d="M113.459 66.7973C113.459 66.7173 112.539 66.5073 111.049 66.2373C110.669 66.1773 110.309 66.0873 110.259 65.8173C110.189 65.5373 110.359 65.1373 110.569 64.6873C110.979 63.7773 111.399 62.8273 111.839 61.8273C113.619 57.7473 114.919 54.3873 114.759 54.3273C114.589 54.2573 113.019 57.5073 111.249 61.5773C110.819 62.5873 110.409 63.5473 110.019 64.4573C109.849 64.8873 109.579 65.3673 109.749 65.9473C109.839 66.2373 110.109 66.4673 110.349 66.5373C110.589 66.6173 110.809 66.6373 110.989 66.6673C112.499 66.8273 113.439 66.8773 113.449 66.7873H113.469L113.459 66.7973Z" fill="#054375"/>
<path d="M118.672 50.9463C118.842 51.3363 120.152 50.9863 121.732 51.0163C123.312 51.0163 124.632 51.3763 124.792 50.9863C124.862 50.8063 124.602 50.4463 124.042 50.1063C123.492 49.7763 122.642 49.4963 121.692 49.4863C120.742 49.4863 119.902 49.7563 119.372 50.0763C118.832 50.4063 118.582 50.7563 118.652 50.9463H118.672Z" fill="#054375"/>
<path d="M104.967 50.0341C105.267 50.3941 106.527 50.1041 108.007 50.1541C109.497 50.1741 110.737 50.5241 111.047 50.1741C111.177 50.0041 111.007 49.6541 110.467 49.3041C109.947 48.9541 109.047 48.6441 108.027 48.6241C107.007 48.6041 106.107 48.8641 105.577 49.1941C105.037 49.5241 104.847 49.8641 104.977 50.0341H104.967Z" fill="#054375"/>
<path d="M134.793 62.5371C134.923 61.0371 136.283 59.9071 137.773 60.1271C139.583 60.3971 141.553 61.5271 141.243 65.2771C140.703 71.9371 134.133 70.0171 134.133 69.8271C134.133 69.6971 134.533 65.3171 134.783 62.5371H134.793Z" fill="#F0FBFF"/>
<path d="M135.789 67.4446C135.789 67.4446 135.899 67.5346 136.089 67.6446C136.269 67.7446 136.599 67.8346 136.959 67.7346C137.679 67.5346 138.369 66.4646 138.499 65.2646C138.569 64.6546 138.479 64.0746 138.309 63.5746C138.139 63.0646 137.859 62.7046 137.509 62.6146C137.159 62.5046 136.889 62.6946 136.799 62.8746C136.689 63.0546 136.729 63.1946 136.689 63.2046C136.669 63.2246 136.559 63.0846 136.629 62.8146C136.669 62.6846 136.759 62.5346 136.929 62.4146C137.099 62.2946 137.339 62.2446 137.589 62.2946C138.099 62.3746 138.519 62.8846 138.709 63.4246C138.929 63.9746 139.029 64.6346 138.959 65.3146C138.809 66.6546 138.019 67.8546 137.039 68.0546C136.569 68.1346 136.179 67.9646 135.989 67.7846C135.799 67.6046 135.769 67.4546 135.799 67.4446H135.789Z" fill="#D7DEE5"/>
<path d="M132.089 36.9343L119.479 31.6543L113.539 34.2043L102.119 41.4243L100.609 44.0843C100.689 44.2643 100.779 44.4243 100.869 44.5843C102.369 47.2443 105.499 48.9243 108.539 48.6243C111.769 48.3043 114.669 45.7943 115.459 42.6343C118.279 44.0143 122.099 42.6643 123.439 39.8243C123.439 39.8243 124.589 45.3643 129.879 42.4743C128.049 44.6043 130.749 49.4643 130.919 51.3543C131.189 54.3443 130.399 56.8443 131.029 59.7743C131.349 61.2943 132.039 64.7143 133.529 65.1143C134.709 65.4343 135.889 63.0043 136.519 61.9443C137.139 60.8843 137.259 59.6143 137.289 58.3843C137.319 57.1543 137.289 55.9043 137.649 54.7343L138.369 54.3643V43.1643L132.099 36.9043V36.9243L132.089 36.9343Z" fill="#054375"/>
<path d="M119.067 69.5873C118.987 69.8173 117.887 69.5873 116.667 70.0273C115.437 70.4273 114.707 71.2773 114.507 71.1573C114.417 71.0973 114.477 70.7773 114.777 70.3573C115.077 69.9373 115.647 69.4773 116.387 69.2173C117.137 68.9573 117.877 68.9873 118.367 69.1273C118.857 69.2673 119.107 69.4973 119.067 69.5973V69.5873Z" fill="#054375"/>
<path d="M106.577 48.0151C106.577 48.0151 106.447 48.0451 106.187 48.0551C105.927 48.0551 105.547 48.0551 105.067 47.9351C104.127 47.7051 102.757 47.0251 101.747 45.5551C101.237 44.8251 100.847 43.9051 100.727 42.8551C100.617 41.8151 100.797 40.6751 101.267 39.5851C102.187 37.4351 104.347 35.5351 107.017 35.0051C109.327 34.5151 111.647 34.9351 113.527 35.7151L113.257 35.8651C113.667 33.9751 115.017 32.5651 116.447 31.9251C117.897 31.2551 119.387 31.3951 120.437 31.7651C121.517 32.1451 122.227 32.7451 122.647 33.1951C122.857 33.4251 122.997 33.6151 123.077 33.7451C123.157 33.8751 123.197 33.9551 123.197 33.9651C123.167 33.9851 122.987 33.7051 122.557 33.2951C122.127 32.8851 121.417 32.3351 120.367 32.0151C119.347 31.6851 117.947 31.5951 116.597 32.2451C115.277 32.8751 114.027 34.2151 113.667 35.9551L113.617 36.1951L113.397 36.1051C111.577 35.3551 109.347 34.9751 107.137 35.4351C104.587 35.9351 102.557 37.7151 101.657 39.7451C101.207 40.7651 101.027 41.8251 101.107 42.8151C101.197 43.7951 101.547 44.6751 102.017 45.3751C102.947 46.8051 104.227 47.5051 105.127 47.7651C106.047 48.0251 106.587 47.9551 106.587 48.0051H106.567L106.577 48.0151Z" fill="black"/>
<path d="M93.0431 187.236C93.0431 187.236 90.4131 197.446 91.3631 209.876C91.7331 214.686 107.943 347.826 107.943 347.826H129.833L123.683 222.696L125.473 223.086C125.473 223.086 137.423 276.456 138.393 285.096C139.263 292.866 149.343 349.286 149.343 349.286L169.353 349.516L162.963 274.876L155.523 203.266L152.723 182.416L93.0331 187.226L93.0431 187.236Z" fill="#054375"/>
<path d="M127.121 209.936C127.121 209.936 126.811 210.156 126.201 210.456C125.591 210.736 124.701 211.176 123.491 211.406C122.881 211.516 122.201 211.546 121.481 211.426C120.761 211.306 119.991 210.996 119.371 210.406C118.751 209.826 118.351 209.016 118.091 208.166C117.831 207.316 117.681 206.436 117.511 205.536C116.811 201.926 116.341 198.626 116.061 196.236C115.921 195.036 115.831 194.066 115.781 193.396C115.731 192.726 115.721 192.356 115.751 192.346C115.781 192.346 115.851 192.716 115.961 193.366C116.081 194.126 116.221 195.066 116.381 196.186C116.741 198.566 117.261 201.846 117.951 205.436C118.301 207.216 118.541 209.026 119.661 210.086C120.771 211.126 122.311 211.236 123.441 211.066C124.611 210.886 125.501 210.506 126.131 210.276C126.751 210.026 127.101 209.896 127.111 209.926V209.946L127.121 209.936Z" fill="black"/>
<path d="M120.537 192.965C120.537 192.965 120.677 192.845 120.987 192.835C121.297 192.805 121.757 192.905 122.207 193.225C122.647 193.545 123.117 194.125 123.127 194.915C123.157 195.715 122.537 196.505 121.727 196.795C120.917 197.115 119.927 196.925 119.427 196.305C118.917 195.695 118.897 194.955 119.007 194.425C119.137 193.885 119.427 193.505 119.677 193.325C119.917 193.135 120.097 193.105 120.097 193.135C120.157 193.195 119.477 193.505 119.327 194.495C119.257 194.965 119.327 195.585 119.747 196.035C120.137 196.495 120.887 196.625 121.557 196.375C122.227 196.125 122.707 195.535 122.697 194.925C122.697 194.315 122.357 193.805 121.997 193.495C121.227 192.845 120.517 193.065 120.527 192.975L120.537 192.965Z" fill="black"/>
<path d="M133.264 135.806C133.354 133.546 136.834 117.356 136.834 117.076C136.834 116.796 133.394 93.0162 133.394 93.0162L132.624 85.5762L115.944 95.5962C115.944 95.5962 108.854 90.2562 109.024 89.9662L105.114 113.536L97.1641 187.206C97.1641 187.206 99.8941 190.536 110.294 192.056C123.264 193.956 142.004 187.206 142.004 187.206C142.004 187.206 133.164 138.066 133.264 135.816V135.806Z" fill="#05BDFB"/>
<g opacity="0.3">
<path d="M94.6172 213.017C94.6172 213.017 97.0672 214.877 98.5672 203.707C100.067 192.537 104.487 145.687 104.487 145.687L107.687 97.1973L98.1372 125.437L94.6172 213.027V213.017Z" fill="black"/>
</g>
<g opacity="0.3">
<path d="M131.781 176.627C131.781 176.627 136.171 219.497 137.821 218.667C139.481 217.837 155.491 211.517 155.491 211.517L153.881 197.657L131.781 176.637V176.627Z" fill="black"/>
</g>
<path d="M111.799 101.827L113.869 104.897H116.979L118.639 101.827L116.809 97.9473L114.339 98.0773L111.789 101.817L111.799 101.827Z" fill="#054375"/>
<path d="M132.109 95.5745C132.109 95.5745 131.859 95.8045 131.379 96.1345C130.809 96.5145 130.119 96.9745 129.289 97.5245C127.519 98.6845 125.049 100.255 122.319 101.985C121.429 102.545 120.559 103.085 119.749 103.595L119.579 103.705L119.469 103.525C118.139 101.365 117.359 99.3245 116.779 97.8845C116.499 97.1645 116.279 96.5945 116.139 96.1945C115.999 95.7945 115.929 95.5745 115.949 95.5645C115.999 95.5445 116.399 96.3745 117.019 97.7845C117.669 99.1745 118.489 101.205 119.819 103.295L119.539 103.225C120.349 102.715 121.209 102.165 122.099 101.605C124.839 99.8845 127.329 98.3545 129.139 97.2545C129.989 96.7545 130.709 96.3245 131.299 95.9745C131.819 95.6845 132.109 95.5345 132.119 95.5545L132.109 95.5745Z" fill="black"/>
<path d="M108.227 98.7073C108.227 98.7073 108.597 99.0873 109.137 99.7973C109.667 100.507 110.397 101.527 111.227 102.707H110.897C111.237 102.227 111.587 101.717 111.957 101.177C113.007 99.5973 113.947 98.1673 114.677 97.1473C115.397 96.1273 115.897 95.5473 115.947 95.5773C115.997 95.6073 115.577 96.2573 114.927 97.3073C114.277 98.3573 113.367 99.8173 112.317 101.397C111.947 101.937 111.597 102.457 111.237 102.927L111.067 103.157L110.907 102.917C110.097 101.717 109.417 100.677 108.947 99.9173C108.477 99.1673 108.217 98.6973 108.257 98.6773V98.6973L108.227 98.7073Z" fill="black"/>
<path d="M113.882 104.896L104.492 175.916L110.462 188.316L120.552 175.246L116.992 104.896H113.882Z" fill="#054375"/>
<path d="M69.9381 85.6056C69.8781 85.5356 74.7081 81.7756 74.7081 82.1356C74.7081 82.4956 83.4581 95.3956 83.4581 95.3956L78.2681 98.9656L69.5781 85.8356" fill="#05BDFB"/>
<path d="M91.8672 211.656C93.5472 212.606 95.6472 211.496 95.8172 209.576L100.977 156.526L108.777 90.9863L106.027 93.3163C106.027 93.3163 91.3772 94.3863 91.0272 94.6163C90.6672 94.8463 87.7372 103.846 86.4372 114.966C85.1372 126.086 86.1372 160.646 86.1372 160.646L80.6172 204.176L91.8572 211.656H91.8672Z" fill="#054375"/>
<path d="M99.5938 157.826C99.5938 157.826 99.5738 157.576 99.5938 157.106C99.5938 156.636 99.6538 155.946 99.6538 155.056C99.6838 153.276 99.7038 150.706 99.6838 147.516C99.6538 141.146 99.5038 132.356 99.2838 122.636C99.1238 116.006 98.9637 109.806 98.8438 104.556V104.436L98.9437 104.386C100.204 103.706 101.384 103.066 102.494 102.466L102.434 102.706C101.554 101.416 100.754 100.246 100.024 99.1761L99.9538 99.0761L100.034 98.9961C102.014 97.1161 103.594 95.6161 104.724 94.5561C105.254 94.0661 105.674 93.6761 105.984 93.3761C106.274 93.1061 106.434 92.9761 106.444 92.9961C106.444 93.0161 106.324 93.1561 106.044 93.4361C105.744 93.7461 105.334 94.1561 104.834 94.6661C103.734 95.7461 102.184 97.2961 100.244 99.1961L100.264 99.0161C101.004 100.076 101.824 101.246 102.714 102.516L102.824 102.666L102.654 102.756C101.544 103.366 100.364 104.016 99.1138 104.706L99.2138 104.536C99.3838 109.776 99.5638 115.986 99.7138 122.616C99.9338 132.326 100.034 141.136 99.9837 147.496C99.9637 150.686 99.9038 153.256 99.8138 155.046C99.7938 155.936 99.7038 156.626 99.6838 157.096C99.6438 157.566 99.6138 157.806 99.6038 157.806L99.5938 157.826Z" fill="black"/>
<path d="M97.9177 188.036C97.9177 188.036 97.9177 188.176 97.9177 188.436C97.8877 188.746 97.8477 189.126 97.8077 189.576C97.6877 190.636 97.5177 192.056 97.3177 193.766C96.8877 197.306 96.2577 202.196 95.5477 207.586C95.2877 209.486 95.0477 211.316 94.8177 213.016L94.7777 213.316L94.5077 213.166C90.9577 211.166 87.8877 209.426 85.6377 208.146C84.5877 207.536 83.7277 207.036 83.0877 206.656C82.4977 206.306 82.1777 206.096 82.1877 206.086C82.1877 206.056 82.5377 206.226 83.1577 206.546C83.8277 206.896 84.6977 207.366 85.7677 207.926C88.0377 209.166 91.1377 210.856 94.7077 212.806L94.3977 212.956C94.6177 211.256 94.8677 209.426 95.1177 207.516C95.8377 202.126 96.5077 197.246 97.0177 193.706C97.2777 191.996 97.4877 190.576 97.6377 189.526C97.7077 189.076 97.7777 188.696 97.8277 188.396C97.8777 188.136 97.9077 188.006 97.9177 188.006L97.9377 188.026L97.9177 188.036Z" fill="black"/>
<path d="M92.0702 94.604C92.0702 94.604 89.6602 94.604 87.9602 96.364C86.3202 98.064 82.8102 101.144 82.8102 101.144L65.6802 108.234L80.6202 97.164L70.5102 83.834C70.5102 83.834 54.0302 95.084 47.7002 99.364C41.3702 103.644 37.7602 110.444 39.0002 114.994C40.2402 119.544 41.4502 121.364 50.4202 123.594C54.1002 124.514 85.5402 127.814 85.5402 127.814L90.7302 104.004L92.0702 94.604Z" fill="#054375"/>
<path d="M58.408 119.497C58.368 119.427 59.018 119.027 59.938 118.247C60.858 117.467 62.038 116.257 63.028 114.697C64.018 113.137 64.618 111.567 64.938 110.387C65.258 109.217 65.358 108.457 65.418 108.467C65.468 108.467 65.478 109.247 65.228 110.457C64.978 111.677 64.408 113.317 63.388 114.927C62.368 116.527 61.118 117.747 60.128 118.477C59.128 119.217 58.428 119.527 58.408 119.487V119.497Z" fill="black"/>
<path d="M87.3372 104.396C87.3372 104.396 87.3572 104.826 87.3172 105.586C87.2672 106.426 87.1972 107.516 87.1172 108.816C86.9472 111.546 86.7172 115.306 86.5272 119.466C86.3472 123.626 86.2372 127.396 86.1672 130.116C86.1372 131.416 86.0972 132.496 86.0772 133.356C86.0472 134.126 86.0172 134.536 85.9972 134.536C85.9672 134.536 85.9372 134.106 85.9172 133.356C85.8972 132.586 85.8772 131.486 85.8672 130.116C85.8672 127.386 85.9172 123.606 86.0972 119.446C86.2772 115.276 86.5672 111.516 86.8172 108.796C86.9372 107.436 87.0572 106.336 87.1472 105.576C87.2372 104.816 87.3072 104.396 87.3372 104.396Z" fill="black"/>
<path d="M133.092 86.2441C133.672 86.6941 140.272 93.0941 140.272 93.0941C140.272 93.0941 155.382 94.7841 155.812 95.2341C156.122 95.5541 156.262 127.264 156.182 127.974C155.322 135.454 152.422 161.134 152.422 161.134L164.842 204.484L138.862 215.184C138.862 215.184 133.582 188.504 131.112 174.064C128.652 159.634 129.372 155.554 129.662 141.564C129.952 127.584 133.002 93.0941 133.002 93.0941L133.072 86.2441H133.092Z" fill="#054375"/>
<path d="M131.127 155.744C131.127 155.744 131.127 155.514 131.187 155.064C131.247 154.624 131.307 153.964 131.447 153.134C131.707 151.454 132.127 149.044 132.707 146.064C133.877 140.114 135.627 131.914 137.677 122.894C139.317 115.654 140.877 108.984 142.157 103.634L142.217 103.814C141.107 102.874 140.097 101.994 139.147 101.194L139.027 101.084L139.147 100.964C140.317 99.854 141.347 98.884 142.257 98.034L142.227 98.154C141.617 96.574 141.117 95.324 140.767 94.424C140.617 94.014 140.497 93.694 140.387 93.434C140.307 93.204 140.267 93.094 140.277 93.084C140.277 93.084 140.347 93.194 140.447 93.414C140.557 93.664 140.697 93.984 140.867 94.384C141.237 95.274 141.777 96.514 142.427 98.064L142.457 98.144L142.397 98.204C141.507 99.074 140.497 100.054 139.337 101.184V100.954C140.287 101.744 141.317 102.614 142.437 103.534L142.517 103.604L142.497 103.714C141.267 109.094 139.747 115.764 138.097 122.984C136.057 132.004 134.247 140.184 133.017 146.114C132.397 149.084 131.927 151.494 131.617 153.154C131.457 153.984 131.367 154.634 131.287 155.084C131.217 155.524 131.167 155.754 131.147 155.754H131.117L131.127 155.744Z" fill="black"/>
<path d="M164.862 204.486C164.862 204.486 164.692 204.576 164.372 204.726C164.012 204.886 163.542 205.096 162.932 205.356C161.632 205.906 159.812 206.676 157.542 207.636C152.892 209.566 146.412 212.266 138.962 215.366L138.732 215.466L138.682 215.216C138.122 212.206 137.522 208.986 136.922 205.666C135.062 195.396 133.362 186.096 132.132 179.336C131.542 175.996 131.062 173.266 130.722 171.346C130.572 170.426 130.452 169.706 130.362 169.166C130.332 168.936 130.302 168.746 130.282 168.596C130.262 168.476 130.252 168.406 130.262 168.396C130.262 168.396 130.282 168.456 130.322 168.586C130.352 168.736 130.392 168.916 130.442 169.146C130.552 169.676 130.702 170.396 130.882 171.306C131.252 173.226 131.772 175.936 132.422 179.266C133.682 186.036 135.422 195.316 137.332 205.576C137.942 208.906 138.532 212.116 139.092 215.126L138.812 214.966C146.292 211.926 152.782 209.276 157.452 207.376C159.752 206.456 161.592 205.726 162.892 205.196C163.502 204.966 163.992 204.766 164.352 204.626C164.682 204.506 164.862 204.446 164.872 204.446V204.466L164.862 204.486Z" fill="black"/>
<path d="M147.654 168.828C147.594 168.828 147.444 167.918 147.284 166.418C147.134 164.928 146.994 162.848 146.964 160.558C146.944 158.268 147.024 156.188 147.134 154.688C147.254 153.188 147.374 152.268 147.434 152.268C147.504 152.268 147.474 153.198 147.434 154.698C147.404 156.198 147.364 158.268 147.394 160.538C147.424 162.818 147.514 164.888 147.594 166.378C147.674 167.868 147.714 168.808 147.654 168.808V168.828Z" fill="black"/>
<path d="M148.531 172.687C148.531 172.687 148.351 172.487 148.091 172.097C147.831 171.697 147.471 171.117 147.061 170.367C146.231 168.897 145.161 166.797 144.161 164.407C143.161 162.017 142.421 159.787 141.961 158.157C141.731 157.337 141.561 156.677 141.461 156.217C141.361 155.747 141.321 155.497 141.341 155.487C141.411 155.467 141.711 156.467 142.251 158.067C142.781 159.667 143.571 161.867 144.561 164.247C145.551 166.627 146.571 168.727 147.321 170.237C148.081 171.747 148.571 172.667 148.521 172.707L148.531 172.687Z" fill="black"/>
<path d="M165.514 157.485L165.224 156.615L160.314 161.545C160.314 161.545 150.014 161.465 148.094 162.145C146.184 162.825 146.414 165.065 147.574 165.715C147.574 165.715 146.124 167.945 147.984 169.355L149.084 170.015C149.084 170.015 147.954 172.465 149.734 173.525C151.504 174.585 151.314 173.895 151.294 174.885C151.274 175.875 151.794 177.235 152.694 177.465C153.594 177.695 163.574 173.875 165.604 172.715C167.634 171.545 171.134 167.695 171.134 167.695L165.524 157.475L165.514 157.485Z" fill="#F0FBFF"/>
<path d="M161.8 98.8659C164.2 102.126 168.16 108.206 168.16 108.206C168.16 108.206 189.29 124.546 194.47 128.776C201.88 134.836 197.87 142.576 196.14 145.056C194.38 147.586 170.35 171.806 170.35 171.806L160.06 159.306L175.44 139.636L175.32 138.306L156.21 127.976L152.99 135.516L152.93 101.586L154.95 95.5859L155.84 95.2559C158.19 95.5859 160.84 97.5659 161.81 98.8759V98.8559L161.8 98.8659Z" fill="#054375"/>
<path d="M157.697 109.166C157.817 109.166 157.407 114.656 156.777 121.386C156.157 128.126 155.557 133.576 155.427 133.566C155.307 133.566 155.717 128.086 156.347 121.346C156.967 114.606 157.567 109.156 157.697 109.166Z" fill="black"/>
<path d="M186.178 133.005C186.218 133.145 183.168 133.535 180.078 135.555C176.968 137.535 175.338 140.155 175.238 140.055C175.198 140.035 175.538 139.345 176.298 138.375C177.058 137.405 178.268 136.195 179.848 135.175C181.428 134.155 183.038 133.545 184.228 133.265C185.418 132.975 186.188 132.945 186.188 132.985L186.178 133.005Z" fill="black"/>
<path d="M161.717 164.444C161.607 164.504 161.197 163.934 160.787 163.174C160.377 162.414 160.127 161.754 160.237 161.694C160.347 161.634 160.757 162.204 161.167 162.964C161.577 163.724 161.827 164.384 161.717 164.444Z" fill="#D7DEE5"/>
<path d="M74.6399 81.6565C74.6399 81.6565 76.4399 79.5965 77.7899 78.6765C79.1499 77.7465 85.5499 75.3765 86.4199 75.2965C87.2899 75.2165 88.6799 75.1565 88.6799 75.1565C88.6799 75.1565 92.1899 73.6165 92.9999 75.6765C92.9999 75.6765 93.2699 76.8565 92.8599 77.2765C92.8599 77.2765 94.4099 77.4465 94.8499 78.7565C94.8499 78.7565 94.9899 79.6065 94.3199 80.5165C94.3199 80.5165 96.2799 82.0665 95.4499 83.7465C95.4499 83.7465 96.9599 85.1465 96.6899 86.4165C96.4199 87.6865 95.7799 87.8665 94.5499 88.3465C93.3299 88.8265 90.9099 89.2065 90.9099 89.2065C90.9099 89.2065 90.0799 89.6765 90.2399 90.7665C90.4099 91.8565 92.5099 91.7265 94.5899 93.9465C96.1999 95.6665 96.6799 96.9965 95.9999 97.5865C95.6299 97.9065 94.5199 98.3165 92.3799 96.6765C89.3499 94.3665 88.0399 95.5965 86.5999 95.1365C85.1599 94.6665 82.0499 93.3065 82.0499 93.3065C82.0499 93.3065 73.9799 84.5665 74.6399 81.6565Z" fill="#F0FBFF"/>
<path d="M92.6368 77.2948C92.6368 77.2948 92.3168 78.0748 91.2468 78.8248C90.7168 79.2048 90.0168 79.5448 89.2168 79.8248C88.8168 79.9648 88.3968 80.0948 87.9568 80.2148C87.7368 80.2748 87.5068 80.3448 87.2768 80.3948C87.0368 80.4648 86.6568 80.4448 86.4168 80.2148C85.9868 79.7948 85.9668 79.2248 86.0868 78.7648C86.2068 78.2948 86.4868 77.9148 86.8068 77.6348C87.4768 77.0648 88.2268 76.9048 88.8368 76.7948L88.7168 76.9048C88.9868 76.1648 89.5368 75.7848 89.9168 75.6348C90.3068 75.4848 90.5468 75.5048 90.5468 75.5348C90.5468 75.5748 90.3268 75.6148 89.9968 75.7948C89.6768 75.9748 89.2168 76.3648 89.0268 76.9948L89.0068 77.0748L88.9068 77.0948C88.3268 77.2248 87.6268 77.4248 87.0868 77.9248C86.8168 78.1648 86.6068 78.5048 86.5168 78.8648C86.4268 79.2248 86.4768 79.6548 86.7268 79.8848C86.9468 80.1248 87.4368 79.8848 87.8668 79.7948C88.3068 79.6748 88.7268 79.5648 89.1168 79.4348C89.8968 79.1848 90.5768 78.8848 91.1068 78.5548C92.1768 77.9148 92.6068 77.2248 92.6668 77.2748L92.6368 77.2948Z" fill="#D7DEE5"/>
<path d="M87.5395 80.075C87.6095 80.095 87.2395 80.595 87.4895 81.355C87.6095 81.715 87.9395 82.095 88.4095 82.285C88.8795 82.465 89.4795 82.415 90.0895 82.265C92.5895 81.625 94.3595 80.405 94.4295 80.525C94.4995 80.605 92.7995 82.015 90.1895 82.695C89.5495 82.865 88.8395 82.925 88.2495 82.665C87.6695 82.415 87.2995 81.915 87.1795 81.455C87.0595 80.995 87.1595 80.605 87.2695 80.375C87.3895 80.145 87.4895 80.055 87.5195 80.075H87.5395Z" fill="#D7DEE5"/>
<path d="M89.3522 82.6461C89.4122 82.7061 88.7722 83.0061 88.4822 83.9261C88.3522 84.3761 88.4122 84.9661 88.7922 85.4361C88.9722 85.6661 89.2322 85.8661 89.5422 85.9561C89.8422 86.0461 90.1922 86.0261 90.5422 85.9361C91.2522 85.7461 91.9522 85.4561 92.5822 85.2561C93.2122 85.0361 93.7922 84.8761 94.2322 84.6561C95.1522 84.2661 95.3922 83.6561 95.4522 83.6761C95.4822 83.6761 95.4522 83.8561 95.3022 84.1061C95.1422 84.3561 94.8322 84.6761 94.3722 84.9261C93.9122 85.1861 93.3522 85.3961 92.7222 85.6261C92.0822 85.8561 91.4322 86.1361 90.6522 86.3461C90.2622 86.4361 89.8322 86.4761 89.4322 86.3461C89.0322 86.2261 88.7122 85.9661 88.5022 85.6661C88.0422 85.0761 88.0222 84.3161 88.2222 83.8161C88.4022 83.2961 88.7322 82.9861 88.9622 82.8161C89.2022 82.6461 89.3622 82.6061 89.3822 82.6361H89.3622L89.3522 82.6461Z" fill="#D7DEE5"/>
<path d="M92.8208 88.8342C92.8208 88.8842 92.4308 89.0642 91.7108 89.1342C91.3508 89.1642 90.9108 89.1742 90.4308 88.9842C89.9208 88.7642 89.5908 88.2842 89.3608 87.7642C89.2408 87.4542 89.2808 87.1042 89.4108 86.8342C89.5508 86.5642 89.7008 86.3742 89.9608 86.2042C90.4108 85.9742 90.7908 85.8642 91.1308 85.7542C91.8008 85.5542 92.2508 85.5242 92.2608 85.5842C92.2608 85.6442 91.8708 85.7742 91.2308 86.0442C90.9208 86.1742 90.5108 86.3342 90.1608 86.5442C89.8708 86.7642 89.5908 87.2242 89.7608 87.5942C89.9408 88.0342 90.2408 88.4542 90.5808 88.6142C90.9508 88.7842 91.3508 88.8142 91.6908 88.8242C92.3608 88.8242 92.8008 88.7642 92.8108 88.8242L92.8208 88.8342Z" fill="#D7DEE5"/>
<path d="M84.1333 82.8574C84.1333 82.8574 84.6533 83.2174 85.1533 84.0874C85.4033 84.5174 85.6533 85.0674 85.8233 85.6974C85.9133 86.0174 85.9433 86.3874 86.0533 86.6474C86.1433 86.9174 86.3833 86.9774 86.7733 87.0774C88.2833 87.5074 89.3133 88.6074 89.7733 89.4774C90.2533 90.3674 90.2633 91.0074 90.2233 91.0074C90.1533 91.0274 90.0233 90.4274 89.5033 89.6274C89.0033 88.8474 88.0233 87.8774 86.6533 87.4874C86.4833 87.4374 86.2933 87.4074 86.0933 87.3074C85.8833 87.2074 85.7233 86.9974 85.6533 86.8074C85.5133 86.4074 85.5133 86.0974 85.4333 85.7974C85.2933 85.1874 85.0833 84.6674 84.8733 84.2274C84.4533 83.3674 84.0633 82.9074 84.1233 82.8574H84.1333Z" fill="#D7DEE5"/>
<path d="M88.5995 86.3654C88.5195 86.4354 87.1695 84.6654 86.0895 82.1654C84.9895 79.6654 84.6195 77.4754 84.7295 77.4554C84.8495 77.4254 85.4195 79.5354 86.4895 81.9954C87.5595 84.4554 88.7195 86.2954 88.6095 86.3754L88.5995 86.3654Z" fill="#D7DEE5"/>
</g>
</g>
<path opacity="0.1" d="M57.9694 78.0023C58.3594 77.8823 58.7394 77.9323 59.1194 78.0223C59.2594 78.0323 59.4094 78.0323 59.5494 78.0323C61.1894 77.7423 62.2894 77.7323 65.6194 76.5223C65.6994 76.4923 65.7694 76.4623 65.8494 76.4323C65.9894 76.3623 66.5893 76.0723 66.8393 75.9623C67.9494 75.4523 69.1194 75.1023 70.2894 74.7223C71.2494 74.4323 72.1394 73.8723 73.1694 73.8223C73.6194 73.8523 74.0994 73.9423 74.4694 74.2023C74.7794 74.3823 75.0994 74.5423 75.4194 74.7023C77.8594 75.8523 80.2694 77.0823 82.6194 78.4023C83.5994 78.9723 84.6093 79.4723 85.6493 79.9123C86.1293 80.1423 86.6994 80.2723 86.9894 80.7523C88.1094 82.0723 86.6994 84.1723 85.0394 83.6623C81.0094 82.0223 77.1993 79.9023 73.2593 78.0623C70.8193 79.2123 68.1393 79.6823 65.6493 80.7223C63.5593 81.3423 61.3794 82.2223 59.1694 81.8623C59.3394 81.8823 59.5193 81.9123 59.6893 81.9323C58.9593 81.9223 58.1494 82.0423 57.4894 81.6523C55.9794 80.8023 56.2794 78.4423 57.9694 78.0023Z" fill="#054375"/>
<path fill-rule="evenodd" clip-rule="evenodd" d="M36.6397 71.3056C30.105 72.086 25.4317 77.9443 26.2015 84.3905L27.9594 99.109L21.8693 99.8363L20.1114 85.1178C18.9453 75.3538 26.0241 66.4802 35.9222 65.298C45.8204 64.1159 54.7898 71.0729 55.9559 80.8369L57.7137 95.5554L51.6236 96.2828L49.8658 81.5643C49.096 75.1181 43.1744 70.5251 36.6397 71.3056Z" fill="#011727"/>
<circle cx="42.4285" cy="119.754" r="28.157" transform="rotate(-6.81058 42.4285 119.754)" fill="white" stroke="#054375" stroke-width="2"/>
<ellipse cx="40.9269" cy="118.885" rx="21.5207" ry="21.8678" transform="rotate(-6.81058 40.9269 118.885)" fill="#D7DEE5"/>
<ellipse cx="42.3878" cy="119.409" rx="21.5207" ry="21.8678" transform="rotate(-6.81058 42.3878 119.409)" fill="#40CDFC"/>
<path fill-rule="evenodd" clip-rule="evenodd" d="M45.3634 116.833C46.6121 115.638 47.3034 113.891 47.0826 112.043C46.7099 108.921 43.8776 106.694 40.7566 107.066C37.6356 107.439 35.4076 110.271 35.7804 113.392C36.0013 115.242 37.0858 116.778 38.5823 117.645L40.0773 130.162C40.301 132.035 42.0003 133.372 43.8729 133.148C45.7456 132.924 47.0823 131.225 46.8587 129.352L45.3634 116.833Z" fill="#054375"/>
<path d="M27.3477 132.742C27.313 132.746 27.2716 132.736 27.2383 132.71C27.1773 132.662 27.166 132.567 27.214 132.506L34.2475 123.569C34.2955 123.508 34.3896 123.497 34.4507 123.545C34.5117 123.593 34.5229 123.687 34.4749 123.748L27.4414 132.685C27.4152 132.719 27.3823 132.738 27.3477 132.742Z" fill="#054375"/>
<path d="M25.551 129.461C25.5178 129.465 25.4782 129.456 25.4464 129.431C25.3881 129.386 25.3775 129.298 25.4236 129.241L29.432 124.142C29.4781 124.085 29.5683 124.074 29.6266 124.119C29.6849 124.164 29.6954 124.252 29.6493 124.31L25.6409 129.408C25.6158 129.439 25.5842 129.457 25.551 129.461Z" fill="#054375"/>
<path d="M29.5744 133.874C29.5412 133.878 29.5016 133.869 29.4698 133.844C29.4115 133.799 29.401 133.711 29.4471 133.654L33.4555 128.555C33.5016 128.498 33.5917 128.487 33.65 128.532C33.7083 128.577 33.7189 128.665 33.6728 128.723L29.6643 133.821C29.6392 133.852 29.6077 133.87 29.5744 133.874Z" fill="#054375"/>
<path d="M57.0035 9.95898C75.1035 9.95898 89.7734 25.199 89.7734 43.999C89.7734 51.779 87.2534 58.939 83.0334 64.669L87.0435 81.139L73.2935 73.529C68.4935 76.389 62.9335 78.039 57.0035 78.039C38.9035 78.039 24.2335 62.799 24.2335 43.999C24.2335 25.199 38.9035 9.95898 57.0035 9.95898Z" fill="white"/>
<path d="M87.0406 82.0101C87.2306 82.0101 87.4106 81.9501 87.5706 81.8301C87.8406 81.6201 87.9706 81.2701 87.8906 80.9301L83.9706 64.8501C88.3306 58.7801 90.6406 51.5801 90.6406 43.9901C90.6406 24.7401 75.5507 9.08008 57.0007 9.08008C38.4507 9.08008 23.3607 24.7401 23.3607 43.9901C23.3607 63.2401 38.4507 78.9001 57.0007 78.9001C62.7007 78.9001 68.3307 77.3901 73.3107 74.5201L86.6306 81.8901C86.7506 81.9801 86.9006 82.0101 87.0406 82.0101ZM57.0007 10.8301C74.5907 10.8301 88.9006 25.7101 88.9006 44.0001C88.9006 51.3501 86.6306 58.3201 82.3306 64.1501C82.1806 64.3601 82.1206 64.6201 82.1906 64.8701L85.7307 79.4101L73.7206 72.7601C73.4506 72.6101 73.1206 72.6101 72.8506 72.7701C68.0406 75.6401 62.5607 77.1601 57.0007 77.1601C39.4107 77.1601 25.1006 62.2801 25.1006 43.9901C25.1006 25.7001 39.4107 10.8301 57.0007 10.8301Z" fill="#054375"/>
<path d="M49.8456 37.9385C49.1296 38.6382 49.1296 39.7726 49.8456 40.4723L54.0492 44.5804L49.8456 48.6885C49.1296 49.3882 49.1296 50.5226 49.8456 51.2223C50.5615 51.922 51.7223 51.922 52.4383 51.2223L56.6419 47.1142L60.8456 51.2223C61.5615 51.922 62.7223 51.922 63.4383 51.2223C64.1542 50.5226 64.1542 49.3882 63.4383 48.6885L59.2346 44.5804L63.4383 40.4723C64.1542 39.7726 64.1542 38.6382 63.4383 37.9385C62.7223 37.2388 61.5615 37.2388 60.8456 37.9385L56.6419 42.0466L52.4383 37.9385C51.7223 37.2388 50.5615 37.2388 49.8456 37.9385Z" fill="#D0333D"/>
<path fill-rule="evenodd" clip-rule="evenodd" d="M76.8086 44.5804C76.8086 33.6958 67.7797 24.8721 56.6419 24.8721C45.5042 24.8721 36.4753 33.6958 36.4753 44.5804C36.4753 55.465 45.5042 64.2887 56.6419 64.2887C67.7797 64.2887 76.8086 55.465 76.8086 44.5804ZM56.6419 28.4554C65.7546 28.4554 73.1419 35.6748 73.1419 44.5804C73.1419 53.486 65.7546 60.7054 56.6419 60.7054C47.5292 60.7054 40.1419 53.486 40.1419 44.5804C40.1419 35.6748 47.5292 28.4554 56.6419 28.4554Z" fill="#D0333D"/>
</svg>
