<svg width="320" height="244" viewBox="0 0 320 244" fill="none" xmlns="http://www.w3.org/2000/svg">
<path opacity="0.3" d="M255.679 127.477C257.232 125.906 257.232 123.36 255.679 121.789L146.393 11.2691C144.685 9.54184 141.861 9.7403 140.406 11.6899L100.142 65.6288C98.9461 67.2303 99.1006 69.4777 100.504 70.8966L150.71 121.669C152.263 123.24 152.263 125.787 150.71 127.358L94.1061 184.6C92.3988 186.327 92.5941 189.181 94.5202 190.654L147.962 231.504C149.546 232.715 151.77 232.559 153.173 231.14L255.679 127.477Z" fill="#1090F9"/>
<path opacity="0.3" d="M254.888 130.972C256.053 132.15 256.053 134.06 254.888 135.238L152.383 238.901C151.33 239.965 149.662 240.082 148.474 239.174L95.0323 198.324C93.5877 197.219 93.4412 195.079 94.7217 193.784L151.326 136.541C153.267 134.578 153.267 131.394 151.326 129.431L101.119 78.6577C100.067 77.5935 99.9511 75.9079 100.848 74.7069L141.112 20.7679C142.203 19.3057 144.321 19.1569 145.602 20.4524L254.888 130.972Z" stroke="#05BDFB" stroke-width="2"/>
<path opacity="0.3" d="M184.438 19C185.543 19 186.438 19.8954 186.438 21L186.438 23.7532C186.438 24.6436 185.651 25.3286 184.769 25.2057C184.045 25.1047 183.505 24.4849 183.505 23.7532L183.505 23.5642C183.505 22.6634 182.775 21.9332 181.874 21.9332L181.685 21.9332C180.795 21.9332 180.11 21.1461 180.233 20.2642C180.334 19.5394 180.953 19 181.685 19L184.438 19Z" fill="#1090F9"/>
<path opacity="0.3" d="M284.313 92.074C284.865 93.0306 284.538 94.2538 283.581 94.806L279.497 97.1638C278.445 97.771 277.1 97.3085 276.644 96.1832L276.603 96.0835C276.228 95.1587 276.592 94.099 277.457 93.6001L277.971 93.303C278.928 92.7507 279.256 91.5275 278.703 90.5709L278.399 90.0434C277.792 88.9918 278.254 87.6461 279.38 87.1899L279.479 87.1495C280.404 86.7746 281.464 87.1388 281.963 88.003L284.313 92.074Z" fill="#1090F9"/>
<path opacity="0.3" d="M67.313 154.074C67.8653 155.031 67.5375 156.254 66.5809 156.806L62.4971 159.164C61.4454 159.771 60.0998 159.309 59.6436 158.183L59.6032 158.084C59.2283 157.159 59.5925 156.099 60.4567 155.6L60.9713 155.303C61.9279 154.751 62.2557 153.527 61.7034 152.571L61.3988 152.043C60.7917 150.992 61.2541 149.646 62.3795 149.19L62.4792 149.15C63.404 148.775 64.4636 149.139 64.9626 150.003L67.313 154.074Z" fill="#1090F9"/>
<path opacity="0.3" d="M240.414 187.92C239.633 187.139 239.633 185.873 240.414 185.092L247.815 177.69C248.696 176.809 250.16 176.94 250.871 177.962L251.602 179.012C252.155 179.807 252.059 180.884 251.374 181.569L248.919 184.024C248.138 184.805 248.138 186.071 248.919 186.852L250.373 188.306C251.214 189.148 251.139 190.533 250.212 191.279L248.043 193.025C247.247 193.665 246.097 193.603 245.375 192.881L240.414 187.92Z" fill="#1090F9"/>
<g clip-path="url(#clip0_4470_1787)">
<path d="M139.309 182.916C128.217 182.916 117.105 178.367 109.341 170.412C109.037 170.097 109.037 169.594 109.351 169.28C109.665 168.976 110.167 168.976 110.481 169.29C119.156 178.168 132.173 182.644 144.457 180.967C144.896 180.904 145.294 181.218 145.357 181.648C145.42 182.088 145.116 182.487 144.677 182.55C142.898 182.791 141.109 182.916 139.309 182.916Z" fill="#054375"/>
<path d="M137.603 186.962C137.279 186.962 136.975 186.763 136.86 186.438C136.703 186.03 136.923 185.568 137.331 185.411C139.56 184.594 141.642 183.451 143.526 182.025C141.422 180.831 139.413 179.457 137.54 177.917C137.206 177.634 137.153 177.13 137.436 176.795C137.718 176.46 138.221 176.407 138.555 176.69C140.648 178.42 142.929 179.94 145.336 181.197C145.566 181.323 145.734 181.554 145.754 181.816C145.786 182.078 145.681 182.34 145.472 182.508C143.201 184.405 140.648 185.883 137.886 186.9C137.792 186.931 137.697 186.952 137.614 186.952L137.603 186.962Z" fill="#054375"/>
<path d="M224.044 91.2837C224.044 91.2837 224.002 91.2837 223.981 91.2837C223.542 91.2523 223.218 90.8645 223.249 90.4242C224.17 79.3134 218.854 68.0349 209.719 61.6724C209.353 61.4208 209.269 60.9282 209.521 60.5613C209.772 60.1945 210.274 60.1106 210.63 60.3622C220.225 67.0391 225.802 78.8837 224.839 90.55C224.808 90.9693 224.452 91.2837 224.044 91.2837Z" fill="#054375"/>
<path d="M212.607 69.5548C212.262 69.5548 211.938 69.3242 211.843 68.9783C211.069 66.2635 210.127 63.5697 209.029 60.9702C208.914 60.6871 208.966 60.3622 209.165 60.1316C209.364 59.901 209.688 59.8067 209.981 59.8905L218.205 62.1965C218.634 62.3118 218.875 62.7521 218.76 63.1818C218.645 63.6116 218.205 63.8527 217.776 63.7374L211.111 61.8716C211.969 64.0518 212.733 66.2949 213.371 68.5486C213.497 68.9678 213.246 69.4186 212.827 69.5339C212.754 69.5548 212.681 69.5653 212.607 69.5653V69.5548Z" fill="#054375"/>
<path d="M235.732 89.8267C235.732 89.8267 235.68 89.8267 235.648 89.8267C235.209 89.7848 234.895 89.3865 234.937 88.9463C235.669 81.9024 234.487 74.7748 231.515 68.3494C231.327 67.9511 231.505 67.4794 231.902 67.2907C232.3 67.102 232.771 67.2802 232.959 67.6785C236.046 74.366 237.281 81.7767 236.517 89.114C236.475 89.5228 236.13 89.8267 235.722 89.8267H235.732Z" fill="#054375"/>
<path d="M124.722 193C124.722 193 124.618 193 124.565 192.99C116.487 191.396 108.88 187.256 103.146 181.344C102.843 181.03 102.843 180.527 103.167 180.212C103.481 179.908 103.983 179.908 104.297 180.233C109.811 185.914 117.126 189.897 124.89 191.428C125.319 191.512 125.601 191.931 125.518 192.361C125.444 192.738 125.109 193 124.733 193H124.722Z" fill="#054375"/>
<path d="M139.309 182.916C128.217 182.916 117.105 178.367 109.341 170.412C109.037 170.097 109.037 169.594 109.351 169.28C109.665 168.976 110.167 168.976 110.481 169.29C119.156 178.168 132.173 182.644 144.457 180.967C144.896 180.904 145.294 181.218 145.357 181.648C145.42 182.088 145.116 182.487 144.677 182.55C142.898 182.791 141.109 182.916 139.309 182.916Z" fill="#7CDDFD"/>
<path d="M137.603 186.962C137.279 186.962 136.975 186.763 136.86 186.438C136.703 186.03 136.923 185.568 137.331 185.411C139.56 184.594 141.642 183.451 143.526 182.025C141.422 180.831 139.413 179.457 137.54 177.917C137.206 177.634 137.153 177.13 137.436 176.795C137.718 176.46 138.221 176.407 138.555 176.69C140.648 178.42 142.929 179.94 145.336 181.197C145.566 181.323 145.734 181.554 145.754 181.816C145.786 182.078 145.681 182.34 145.472 182.508C143.201 184.405 140.648 185.883 137.886 186.9C137.792 186.931 137.697 186.952 137.614 186.952L137.603 186.962Z" fill="#7CDDFD"/>
<path d="M224.044 91.2837C224.044 91.2837 224.002 91.2837 223.981 91.2837C223.542 91.2523 223.218 90.8645 223.249 90.4242C224.17 79.3134 218.854 68.0349 209.719 61.6724C209.353 61.4208 209.269 60.9282 209.521 60.5613C209.772 60.1945 210.274 60.1106 210.63 60.3622C220.225 67.0391 225.802 78.8837 224.839 90.55C224.808 90.9693 224.452 91.2837 224.044 91.2837Z" fill="#7CDDFD"/>
<path d="M212.607 69.5548C212.262 69.5548 211.938 69.3242 211.843 68.9783C211.069 66.2635 210.127 63.5697 209.029 60.9702C208.914 60.6871 208.966 60.3622 209.165 60.1316C209.364 59.901 209.688 59.8067 209.981 59.8905L218.205 62.1965C218.634 62.3118 218.875 62.7521 218.76 63.1818C218.645 63.6116 218.205 63.8527 217.776 63.7374L211.111 61.8716C211.969 64.0518 212.733 66.2949 213.371 68.5486C213.497 68.9678 213.246 69.4186 212.827 69.5339C212.754 69.5548 212.681 69.5653 212.607 69.5653V69.5548Z" fill="#7CDDFD"/>
<path d="M109.382 95.7805C104.621 97.3737 100.405 100.738 98.1444 105.235C95.8947 109.732 95.7587 115.319 98.1444 119.742C101.618 126.178 110.23 129.05 117.052 126.451C124.482 123.61 129.012 114.669 126.836 107.007C124.66 99.3443 115.901 93.6108 109.382 95.791V95.7805ZM118.413 115.885C117.743 117.457 116.226 118.914 114.698 119.658C111.224 121.356 107.279 119.899 105.228 116.744C103.115 113.505 103.418 109.124 105.605 105.979C106.693 104.418 108.064 103.191 109.979 102.824C111.747 102.489 113.516 102.814 114.907 103.935C115.807 104.093 116.665 104.47 117.377 105.057C118.748 106.199 119.334 108.474 119.449 110.193C119.564 112.08 119.156 114.155 118.413 115.885Z" fill="white"/>
<path d="M145.21 110.193C143.233 109.596 141.328 108.558 140.02 106.944C138.2 104.701 137.76 101.525 138.503 98.7259C139.246 95.9272 141.056 93.5059 143.264 91.6401C141.318 88.5375 139.204 85.6235 136.986 82.7934C134.297 84.785 131.723 86.6717 128.74 86.8185C125.863 86.9652 123.08 85.3824 121.29 83.1288C119.501 80.8647 118.612 78.0032 118.256 75.1416C118.151 74.8691 118.005 74.8167 117.9 74.8062C114.886 74.5861 111.862 74.3555 108.849 74.1354C108.305 76.955 107.018 79.4811 105.051 81.305C103.083 83.1288 100.405 84.219 97.7259 84.1351C96.6272 84.1037 95.539 83.873 94.4612 83.6424C92.7033 83.2546 90.8303 82.7829 89.5955 81.4727C87.1994 83.1079 85.0438 84.8479 82.9615 86.6612C84.0288 87.3845 84.4788 88.3907 84.8555 89.3656C85.6612 91.4515 86.2681 93.7365 85.7658 95.9167C85.2426 98.1703 83.5475 100.036 81.5175 101.147C79.4876 102.258 77.1542 102.699 74.8521 102.835C74.2138 106.137 73.8999 109.669 73.7953 113.212C75.7625 113.914 77.625 114.512 79.3097 115.497C80.9839 116.472 82.4907 117.876 83.2336 119.669C84.0707 121.692 83.8719 124.05 82.9929 126.052C82.114 128.054 80.6072 129.731 78.9016 131.115C80.963 134.459 82.9406 137.561 84.9706 140.622C88.1097 138.557 92.065 137.918 95.5076 139.029C96.3656 139.301 97.1922 139.689 97.9038 140.255C98.7827 140.957 99.4315 141.911 99.9442 142.918C101.158 145.328 101.618 148.117 101.231 150.789C104.894 151.523 108.441 151.995 111.998 152.278C111.789 148.567 113.38 144.846 116.31 142.813C119.239 140.779 123.414 140.643 126.365 142.655C127.757 143.609 128.835 144.961 129.871 146.293C133.083 144.018 136.253 141.702 139.225 139.144C137.561 136.555 135.877 133.966 135.803 131.052C135.73 128.012 137.561 125.119 140.104 123.463C142.647 121.807 145.828 121.314 148.841 121.629C149.877 118.096 150.756 114.648 151.489 111.168C149.27 110.99 147.198 110.791 145.21 110.183V110.193ZM126.281 117.96C125.057 120.664 123.069 123.002 120.683 124.763C119.292 125.79 117.754 126.618 116.111 127.153C109.372 129.312 101.472 125.518 98.3432 119.155C96.0621 114.522 96.1668 108.778 98.6048 104.229C101.043 99.6797 105.762 96.4199 110.889 95.77C115.472 95.183 121.28 97.6672 124.586 102.132C127.893 106.608 128.563 112.897 126.281 117.96Z" fill="#7CDDFD"/>
<g opacity="0.13">
<path d="M130.394 110.581C130.32 110.057 130.216 109.533 130.09 109.019C130.027 108.893 129.975 108.778 129.912 108.652C128.96 106.765 127.82 104.984 126.522 103.317C126.313 103.464 126.145 103.684 126.072 103.946C125.936 104.837 126.637 105.665 126.857 106.514C127.642 108.862 128.165 109.994 127.914 112.132C127.945 112.95 126.595 117.499 126.166 118.065C125.654 119.061 125.068 120.025 124.387 120.926C124.178 121.178 124.115 121.283 124.147 121.293C123.812 121.555 123.519 121.901 123.184 122.174C122.483 122.771 121.782 123.369 121.07 123.966C120.882 124.102 120.579 124.354 120.359 124.574C120.474 124.406 120.16 124.7 119.878 124.941C119.721 125.046 119.02 125.528 118.664 125.706C116.194 126.576 113.631 127.058 112.27 127.132C110.46 127.299 108.681 126.838 107.29 126.513C106.296 126.23 105.427 125.245 104.36 125.444C103.899 125.559 103.596 125.905 103.47 126.314C103.575 126.429 103.68 126.534 103.784 126.639C104.151 126.933 104.506 127.237 104.873 127.53C106.191 128.39 107.52 129.26 108.849 130.109C111.046 130.748 113.401 130.874 116.205 130.339C116.153 130.339 116.1 130.35 116.037 130.36C118.988 129.731 119.909 129.343 122.065 128.222C123.948 127.1 125.465 125.465 126.637 123.61C126.669 123.557 126.7 123.505 126.742 123.453C126.742 123.453 126.742 123.453 126.752 123.442C128.123 121.723 129.169 119.763 129.902 117.688C130.645 115.403 130.634 112.939 130.415 110.581H130.394Z" fill="#054375"/>
</g>
<g opacity="0.13">
<path d="M137.582 134.752C137.289 134.773 136.996 134.836 136.745 134.983C136.368 135.192 136.128 135.538 135.887 135.884C135.667 136.167 135.437 136.44 135.238 136.744C134.652 137.498 134.485 137.823 133.188 139.144C132.466 139.92 131.335 140.402 130.865 141.366C130.865 141.387 130.854 141.398 130.844 141.419C130.561 141.576 130.289 141.744 130.007 141.89C129.483 142.215 128.803 142.373 128.437 142.897C127.296 144.249 129.065 146.24 130.561 145.318C132.12 144.49 133.585 143.505 134.904 142.32C134.966 142.257 135.029 142.184 135.102 142.121C136.128 141.293 137.122 140.433 138.043 139.49C138.378 139.134 138.775 138.714 139.1 138.264C138.754 137.572 138.461 136.859 138.189 136.146C137.98 135.685 137.781 135.213 137.603 134.742L137.582 134.752Z" fill="#054375"/>
</g>
<g opacity="0.13">
<path d="M147.743 111C147.146 113.285 146.476 115.549 145.744 117.803C145.409 118.841 145.074 119.899 144.74 120.947C145.137 121.44 145.817 121.723 146.445 121.524C146.476 121.524 146.508 121.492 146.539 121.482C147.083 122.247 148.506 122.153 148.779 121.084C148.915 120.591 149.124 120.098 149.291 119.606C149.396 119.553 149.511 119.49 149.605 119.407C150.254 118.935 150.432 118.044 150.672 117.321C151.028 115.853 151.227 114.344 151.29 112.845C151.29 112.761 151.29 112.667 151.311 112.572C150.118 112.069 148.935 111.545 147.753 111.011L147.743 111Z" fill="#054375"/>
</g>
<path d="M111.998 153.074C111.998 153.074 111.957 153.074 111.936 153.074C108.169 152.781 104.621 152.288 101.074 151.576C100.656 151.492 100.384 151.093 100.446 150.674C100.813 148.169 100.373 145.538 99.2326 143.274C98.699 142.205 98.1026 141.419 97.412 140.874C96.8574 140.423 96.1563 140.066 95.2669 139.783C92.0964 138.756 88.4131 139.312 85.4205 141.282C85.0543 141.523 84.5625 141.419 84.3218 141.052C82.3232 138.033 80.3246 134.909 78.2424 131.524C78.0331 131.178 78.1063 130.738 78.4202 130.486C80.2409 129.019 81.5384 127.415 82.2814 125.727C83.1394 123.778 83.2231 121.671 82.5116 119.962C81.7373 118.107 80.1363 116.881 78.9225 116.168C77.5204 115.35 75.9403 114.795 74.2766 114.208L73.5441 113.946C73.2198 113.83 73 113.516 73.0105 113.17C73.1256 109.281 73.4814 105.738 74.0778 102.667C74.151 102.311 74.4545 102.049 74.8103 102.028C77.4053 101.87 79.4771 101.346 81.1408 100.434C83.1185 99.3443 84.5625 97.5834 84.9915 95.7176C85.4833 93.6107 84.7822 91.3571 84.1125 89.6276C83.7672 88.7366 83.3905 87.8876 82.522 87.2901C82.3232 87.1539 82.1872 86.9233 82.1767 86.6822C82.1663 86.4306 82.2604 86.2 82.4488 86.0323C84.845 83.9359 86.9796 82.2693 89.1561 80.7809C89.4804 80.5608 89.9094 80.6027 90.1815 80.8962C91.2488 82.0178 92.9021 82.458 94.6391 82.8353C95.7482 83.0764 96.7423 83.2861 97.7573 83.3175C100.174 83.3909 102.633 82.437 104.517 80.697C106.317 79.0304 107.541 76.7034 108.075 73.9677C108.148 73.5694 108.504 73.2968 108.912 73.3283L117.963 73.9991C118.434 74.0306 118.821 74.345 119.009 74.8481C119.03 74.911 119.041 74.9634 119.051 75.0263C119.438 78.1499 120.411 80.7075 121.918 82.6152C123.676 84.8269 126.271 86.1267 128.709 86.0009C131.492 85.8541 134.046 83.9569 136.525 82.1226C136.871 81.8605 137.363 81.9339 137.624 82.2693C140.104 85.4558 142.176 88.3698 143.944 91.1789C144.154 91.5143 144.091 91.9546 143.787 92.2166C142.176 93.5793 140.094 95.8329 139.277 98.8936C138.555 101.598 139.079 104.48 140.638 106.399C141.715 107.73 143.369 108.757 145.441 109.386C147.345 109.962 149.333 110.162 151.541 110.34C151.771 110.361 151.98 110.476 152.116 110.654C152.252 110.843 152.305 111.074 152.263 111.294C151.541 114.721 150.672 118.159 149.605 121.817C149.5 122.184 149.145 122.425 148.758 122.383C145.66 122.059 142.741 122.667 140.533 124.092C138.085 125.675 136.536 128.379 136.599 130.989C136.661 133.641 138.2 136.041 139.832 138.578L139.884 138.662C140.104 138.997 140.031 139.438 139.738 139.7C136.661 142.341 133.386 144.72 130.32 146.89C129.975 147.131 129.494 147.068 129.232 146.733C128.301 145.538 127.244 144.175 125.905 143.263C123.299 141.481 119.449 141.555 116.759 143.421C114.143 145.234 112.584 148.672 112.794 152.183C112.804 152.414 112.72 152.634 112.553 152.802C112.406 152.949 112.208 153.033 111.998 153.033V153.074ZM102.1 150.15C105.071 150.716 108.054 151.135 111.182 151.408C111.235 147.634 112.982 144.144 115.86 142.152C119.135 139.888 123.634 139.815 126.815 141.995C128.113 142.886 129.159 144.102 130.027 145.203C132.706 143.295 135.51 141.24 138.179 138.987C136.609 136.524 135.081 133.976 135.008 131.062C134.935 127.918 136.766 124.669 139.675 122.792C142.019 121.272 145.043 120.57 148.255 120.78C149.145 117.709 149.888 114.784 150.515 111.891C148.559 111.723 146.759 111.493 144.98 110.958C142.605 110.235 140.68 109.019 139.403 107.447C137.53 105.13 136.892 101.713 137.739 98.5267C138.419 95.9796 139.968 93.5583 142.228 91.5039C140.669 89.0721 138.943 86.6298 136.839 83.915C134.37 85.7388 131.796 87.4788 128.782 87.636C125.842 87.7933 122.734 86.2524 120.662 83.6424C119.02 81.5775 117.963 78.8627 117.502 75.6028L109.477 75.0054C108.817 77.7831 107.478 80.1625 105.584 81.9129C103.397 83.9359 100.52 85.0575 97.6945 84.9527C96.5435 84.9212 95.4238 84.6906 94.2833 84.4391C92.5882 84.0722 90.8407 83.611 89.5118 82.5104C87.7853 83.7158 86.0588 85.068 84.1753 86.6717C84.8973 87.4264 85.274 88.2964 85.5879 89.093C86.3308 91.0322 87.1156 93.5898 86.5297 96.1159C85.9855 98.4534 84.3009 100.55 81.8942 101.87C80.1572 102.824 78.0645 103.401 75.5113 103.61C75.03 106.304 74.7265 109.344 74.601 112.677L74.7789 112.74C76.5158 113.348 78.1587 113.935 79.6968 114.826C81.1199 115.654 83.0138 117.122 83.9556 119.386C84.8345 121.493 84.7404 124.05 83.7149 126.398C82.951 128.149 81.6849 129.794 79.9375 131.304C81.7373 134.218 83.4638 136.922 85.2008 139.553C88.4654 137.666 92.3475 137.184 95.7378 138.285C96.8051 138.63 97.6735 139.071 98.3851 139.647C99.2536 140.339 99.9965 141.303 100.635 142.582C101.807 144.909 102.319 147.571 102.089 150.171L102.1 150.15Z" fill="#054375"/>
<path d="M111.59 121.136C108.912 121.136 106.191 119.648 104.674 117.247C103.073 114.721 102.822 111.283 103.994 108.296C104.789 106.273 106.16 104.575 107.865 103.516C109.749 102.342 111.988 101.975 113.997 102.52C116.278 103.139 117.984 104.145 119.051 105.529C120.348 107.195 121.06 109.417 121.039 111.807C121.039 113.432 120.694 114.826 120.024 115.958C119.438 116.954 118.622 117.709 117.9 118.327C116.079 119.878 114.447 120.738 112.773 121.031C112.375 121.105 111.967 121.136 111.569 121.136H111.59ZM112.134 103.872C110.962 103.872 109.749 104.218 108.702 104.868C107.29 105.749 106.149 107.174 105.479 108.883C104.485 111.409 104.695 114.291 106.024 116.398C107.426 118.631 110.104 119.889 112.522 119.459C113.903 119.218 115.294 118.474 116.885 117.111C117.502 116.587 118.203 115.937 118.664 115.151C119.187 114.27 119.449 113.138 119.459 111.807C119.459 109.784 118.884 107.908 117.806 106.524C116.948 105.424 115.525 104.596 113.589 104.072C113.118 103.946 112.637 103.883 112.134 103.883V103.872Z" fill="#054375"/>
<path d="M112.166 128.547C106.317 128.547 100.342 125.025 97.6317 119.501C95.2355 114.627 95.3401 108.631 97.9037 103.841C100.467 99.0613 105.406 95.6547 110.785 94.9629C115.818 94.3235 121.887 97.1327 125.225 101.64C128.73 106.378 129.421 112.908 127.003 118.275C125.769 121.031 123.739 123.484 121.144 125.392C119.595 126.524 117.984 127.373 116.341 127.897C114.981 128.327 113.568 128.536 112.155 128.536L112.166 128.547ZM112.281 96.4723C111.841 96.4723 111.412 96.5038 110.983 96.5562C106.107 97.1851 101.629 100.267 99.3059 104.606C96.9829 108.946 96.8783 114.386 99.0547 118.799C102.1 124.983 109.634 128.39 115.86 126.388C117.335 125.916 118.8 125.151 120.202 124.113C122.577 122.373 124.419 120.13 125.549 117.625C127.704 112.845 127.056 106.807 123.938 102.594C121.207 98.9041 116.477 96.4618 112.27 96.4618L112.281 96.4723Z" fill="#054375"/>
<path d="M145.21 110.193C143.233 109.596 141.328 108.558 140.02 106.944C138.2 104.701 137.76 101.525 138.503 98.7259C139.246 95.9272 141.056 93.5059 143.264 91.6401C141.318 88.5375 139.204 85.6235 136.986 82.7934C134.297 84.785 131.723 86.6717 128.74 86.8185C125.863 86.9652 123.08 85.3824 121.29 83.1288C119.501 80.8647 118.612 78.0032 118.256 75.1416C118.151 74.8691 118.005 74.8167 117.9 74.8062C114.886 74.5861 111.862 74.3555 108.849 74.1354C108.305 76.955 107.018 79.4811 105.051 81.305C103.083 83.1288 100.405 84.219 97.7259 84.1351C96.6272 84.1037 95.539 83.873 94.4612 83.6424C92.7033 83.2546 90.8303 82.7829 89.5955 81.4727C87.1994 83.1079 85.0438 84.8479 82.9615 86.6612C84.0288 87.3845 84.4788 88.3907 84.8555 89.3656C85.6612 91.4515 86.2681 93.7365 85.7658 95.9167C85.2426 98.1703 83.5475 100.036 81.5175 101.147C79.4876 102.258 77.1542 102.699 74.8521 102.835C74.2138 106.137 73.8999 109.669 73.7953 113.212C75.7625 113.914 77.625 114.512 79.3097 115.497C80.9839 116.472 82.4907 117.876 83.2336 119.669C84.0707 121.692 83.8719 124.05 82.9929 126.052C82.114 128.054 80.6072 129.731 78.9016 131.115C80.963 134.459 82.9406 137.561 84.9706 140.622C88.1097 138.557 92.065 137.918 95.5076 139.029C96.3656 139.301 97.1922 139.689 97.9038 140.255C98.7827 140.957 99.4315 141.911 99.9442 142.918C101.158 145.328 101.618 148.117 101.231 150.789C104.894 151.523 108.441 151.995 111.998 152.278C111.789 148.567 113.38 144.846 116.31 142.813C119.239 140.779 123.414 140.643 126.365 142.655C127.757 143.609 128.835 144.961 129.871 146.293C133.083 144.018 136.253 141.702 139.225 139.144C137.561 136.555 135.877 133.966 135.803 131.052C135.73 128.012 137.561 125.119 140.104 123.463C142.647 121.807 145.828 121.314 148.841 121.629C149.877 118.096 150.756 114.648 151.489 111.168C149.27 110.99 147.198 110.791 145.21 110.183V110.193ZM126.281 117.96C125.057 120.664 123.069 123.002 120.683 124.763C119.292 125.79 117.754 126.618 116.111 127.153C109.372 129.312 101.472 125.518 98.3432 119.155C96.0621 114.522 96.1668 108.778 98.6048 104.229C101.043 99.6797 105.762 96.4199 110.889 95.77C115.472 95.183 121.28 97.6672 124.586 102.132C127.893 106.608 128.563 112.897 126.281 117.96Z" fill="#7CDDFD"/>
<g opacity="0.13">
<path d="M130.394 110.581C130.32 110.057 130.216 109.533 130.09 109.019C130.027 108.893 129.975 108.778 129.912 108.652C128.96 106.765 127.82 104.984 126.522 103.317C126.313 103.464 126.145 103.684 126.072 103.946C125.936 104.837 126.637 105.665 126.857 106.514C127.642 108.862 128.165 109.994 127.914 112.132C127.945 112.95 126.595 117.499 126.166 118.065C125.654 119.061 125.068 120.025 124.387 120.926C124.178 121.178 124.115 121.283 124.147 121.293C123.812 121.555 123.519 121.901 123.184 122.174C122.483 122.771 121.782 123.369 121.07 123.966C120.882 124.102 120.579 124.354 120.359 124.574C120.474 124.406 120.16 124.7 119.878 124.941C119.721 125.046 119.02 125.528 118.664 125.706C116.194 126.576 113.631 127.058 112.27 127.132C110.46 127.299 108.681 126.838 107.29 126.513C106.296 126.23 105.427 125.245 104.36 125.444C103.899 125.559 103.596 125.905 103.47 126.314C103.575 126.429 103.68 126.534 103.784 126.639C104.151 126.933 104.506 127.237 104.873 127.53C106.191 128.39 107.52 129.26 108.849 130.109C111.046 130.748 113.401 130.874 116.205 130.339C116.153 130.339 116.1 130.35 116.037 130.36C118.988 129.731 119.909 129.343 122.065 128.222C123.948 127.1 125.465 125.465 126.637 123.61C126.669 123.557 126.7 123.505 126.742 123.453C126.742 123.453 126.742 123.453 126.752 123.442C128.123 121.723 129.169 119.763 129.902 117.688C130.645 115.403 130.634 112.939 130.415 110.581H130.394Z" fill="#054375"/>
</g>
<g opacity="0.13">
<path d="M137.582 134.752C137.289 134.773 136.996 134.836 136.745 134.983C136.368 135.192 136.128 135.538 135.887 135.884C135.667 136.167 135.437 136.44 135.238 136.744C134.652 137.498 134.485 137.823 133.188 139.144C132.466 139.92 131.335 140.402 130.865 141.366C130.865 141.387 130.854 141.398 130.844 141.419C130.561 141.576 130.289 141.744 130.007 141.89C129.483 142.215 128.803 142.373 128.437 142.897C127.296 144.249 129.065 146.24 130.561 145.318C132.12 144.49 133.585 143.505 134.904 142.32C134.966 142.257 135.029 142.184 135.102 142.121C136.128 141.293 137.122 140.433 138.043 139.49C138.378 139.134 138.775 138.714 139.1 138.264C138.754 137.572 138.461 136.859 138.189 136.146C137.98 135.685 137.781 135.213 137.603 134.742L137.582 134.752Z" fill="#054375"/>
</g>
<g opacity="0.13">
<path d="M147.743 111C147.146 113.285 146.476 115.549 145.744 117.803C145.409 118.841 145.074 119.899 144.74 120.947C145.137 121.44 145.817 121.723 146.445 121.524C146.476 121.524 146.508 121.492 146.539 121.482C147.083 122.247 148.506 122.153 148.779 121.084C148.915 120.591 149.124 120.098 149.291 119.606C149.396 119.553 149.511 119.49 149.605 119.407C150.254 118.935 150.432 118.044 150.672 117.321C151.028 115.853 151.227 114.344 151.29 112.845C151.29 112.761 151.29 112.667 151.311 112.572C150.118 112.069 148.935 111.545 147.753 111.011L147.743 111Z" fill="#054375"/>
</g>
<path d="M111.998 153.074C111.998 153.074 111.957 153.074 111.936 153.074C108.169 152.781 104.621 152.288 101.074 151.576C100.656 151.492 100.384 151.093 100.446 150.674C100.813 148.169 100.373 145.538 99.2326 143.274C98.699 142.205 98.1026 141.419 97.412 140.874C96.8574 140.423 96.1563 140.066 95.2669 139.783C92.0964 138.756 88.4131 139.312 85.4205 141.282C85.0543 141.523 84.5625 141.419 84.3218 141.052C82.3232 138.033 80.3246 134.909 78.2424 131.524C78.0331 131.178 78.1063 130.738 78.4202 130.486C80.2409 129.019 81.5384 127.415 82.2814 125.727C83.1394 123.778 83.2231 121.671 82.5116 119.962C81.7373 118.107 80.1363 116.881 78.9225 116.168C77.5204 115.35 75.9403 114.795 74.2766 114.208L73.5441 113.946C73.2198 113.83 73 113.516 73.0105 113.17C73.1256 109.281 73.4814 105.738 74.0778 102.667C74.151 102.311 74.4545 102.049 74.8103 102.028C77.4053 101.87 79.4771 101.346 81.1408 100.434C83.1185 99.3443 84.5625 97.5834 84.9915 95.7176C85.4833 93.6107 84.7822 91.3571 84.1125 89.6276C83.7672 88.7366 83.3905 87.8876 82.522 87.2901C82.3232 87.1539 82.1872 86.9233 82.1767 86.6822C82.1663 86.4306 82.2604 86.2 82.4488 86.0323C84.845 83.9359 86.9796 82.2693 89.1561 80.7809C89.4804 80.5608 89.9094 80.6027 90.1815 80.8962C91.2488 82.0178 92.9021 82.458 94.6391 82.8353C95.7482 83.0764 96.7423 83.2861 97.7573 83.3175C100.174 83.3909 102.633 82.437 104.517 80.697C106.317 79.0304 107.541 76.7034 108.075 73.9677C108.148 73.5694 108.504 73.2968 108.912 73.3283L117.963 73.9991C118.434 74.0306 118.821 74.345 119.009 74.8481C119.03 74.911 119.041 74.9634 119.051 75.0263C119.438 78.1499 120.411 80.7075 121.918 82.6152C123.676 84.8269 126.271 86.1267 128.709 86.0009C131.492 85.8541 134.046 83.9569 136.525 82.1226C136.871 81.8605 137.363 81.9339 137.624 82.2693C140.104 85.4558 142.176 88.3698 143.944 91.1789C144.154 91.5143 144.091 91.9546 143.787 92.2166C142.176 93.5793 140.094 95.8329 139.277 98.8936C138.555 101.598 139.079 104.48 140.638 106.399C141.715 107.73 143.369 108.757 145.441 109.386C147.345 109.962 149.333 110.162 151.541 110.34C151.771 110.361 151.98 110.476 152.116 110.654C152.252 110.843 152.305 111.074 152.263 111.294C151.541 114.721 150.672 118.159 149.605 121.817C149.5 122.184 149.145 122.425 148.758 122.383C145.66 122.059 142.741 122.667 140.533 124.092C138.085 125.675 136.536 128.379 136.599 130.989C136.661 133.641 138.2 136.041 139.832 138.578L139.884 138.662C140.104 138.997 140.031 139.438 139.738 139.7C136.661 142.341 133.386 144.72 130.32 146.89C129.975 147.131 129.494 147.068 129.232 146.733C128.301 145.538 127.244 144.175 125.905 143.263C123.299 141.481 119.449 141.555 116.759 143.421C114.143 145.234 112.584 148.672 112.794 152.183C112.804 152.414 112.72 152.634 112.553 152.802C112.406 152.949 112.208 153.033 111.998 153.033V153.074ZM102.1 150.15C105.071 150.716 108.054 151.135 111.182 151.408C111.235 147.634 112.982 144.144 115.86 142.152C119.135 139.888 123.634 139.815 126.815 141.995C128.113 142.886 129.159 144.102 130.027 145.203C132.706 143.295 135.51 141.24 138.179 138.987C136.609 136.524 135.081 133.976 135.008 131.062C134.935 127.918 136.766 124.669 139.675 122.792C142.019 121.272 145.043 120.57 148.255 120.78C149.145 117.709 149.888 114.784 150.515 111.891C148.559 111.723 146.759 111.493 144.98 110.958C142.605 110.235 140.68 109.019 139.403 107.447C137.53 105.13 136.892 101.713 137.739 98.5267C138.419 95.9796 139.968 93.5583 142.228 91.5039C140.669 89.0721 138.943 86.6298 136.839 83.915C134.37 85.7388 131.796 87.4788 128.782 87.636C125.842 87.7933 122.734 86.2524 120.662 83.6424C119.02 81.5775 117.963 78.8627 117.502 75.6028L109.477 75.0054C108.817 77.7831 107.478 80.1625 105.584 81.9129C103.397 83.9359 100.52 85.0575 97.6945 84.9527C96.5435 84.9212 95.4238 84.6906 94.2833 84.4391C92.5882 84.0722 90.8407 83.611 89.5118 82.5104C87.7853 83.7158 86.0588 85.068 84.1753 86.6717C84.8973 87.4264 85.274 88.2964 85.5879 89.093C86.3308 91.0322 87.1156 93.5898 86.5297 96.1159C85.9855 98.4534 84.3009 100.55 81.8942 101.87C80.1572 102.824 78.0645 103.401 75.5113 103.61C75.03 106.304 74.7265 109.344 74.601 112.677L74.7789 112.74C76.5158 113.348 78.1587 113.935 79.6968 114.826C81.1199 115.654 83.0138 117.122 83.9556 119.386C84.8345 121.493 84.7404 124.05 83.7149 126.398C82.951 128.149 81.6849 129.794 79.9375 131.304C81.7373 134.218 83.4638 136.922 85.2008 139.553C88.4654 137.666 92.3475 137.184 95.7378 138.285C96.8051 138.63 97.6735 139.071 98.3851 139.647C99.2536 140.339 99.9965 141.303 100.635 142.582C101.807 144.909 102.319 147.571 102.089 150.171L102.1 150.15Z" fill="#054375"/>
<path d="M111.59 121.136C108.912 121.136 106.191 119.648 104.674 117.247C103.073 114.721 102.822 111.283 103.994 108.296C104.789 106.273 106.16 104.575 107.865 103.516C109.749 102.342 111.988 101.975 113.997 102.52C116.278 103.139 117.984 104.145 119.051 105.529C120.348 107.195 121.06 109.417 121.039 111.807C121.039 113.432 120.694 114.826 120.024 115.958C119.438 116.954 118.622 117.709 117.9 118.327C116.079 119.878 114.447 120.738 112.773 121.031C112.375 121.105 111.967 121.136 111.569 121.136H111.59ZM112.134 103.872C110.962 103.872 109.749 104.218 108.702 104.868C107.29 105.749 106.149 107.174 105.479 108.883C104.485 111.409 104.695 114.291 106.024 116.398C107.426 118.631 110.104 119.889 112.522 119.459C113.903 119.218 115.294 118.474 116.885 117.111C117.502 116.587 118.203 115.937 118.664 115.151C119.187 114.27 119.449 113.138 119.459 111.807C119.459 109.784 118.884 107.908 117.806 106.524C116.948 105.424 115.525 104.596 113.589 104.072C113.118 103.946 112.637 103.883 112.134 103.883V103.872Z" fill="#054375"/>
<path d="M112.166 128.547C106.317 128.547 100.342 125.025 97.6317 119.501C95.2355 114.627 95.3401 108.631 97.9037 103.841C100.467 99.0613 105.406 95.6547 110.785 94.9629C115.818 94.3235 121.887 97.1327 125.225 101.64C128.73 106.378 129.421 112.908 127.003 118.275C125.769 121.031 123.739 123.484 121.144 125.392C119.595 126.524 117.984 127.373 116.341 127.897C114.981 128.327 113.568 128.536 112.155 128.536L112.166 128.547ZM112.281 96.4723C111.841 96.4723 111.412 96.5038 110.983 96.5562C106.107 97.1851 101.629 100.267 99.3059 104.606C96.9829 108.946 96.8783 114.386 99.0547 118.799C102.1 124.983 109.634 128.39 115.86 126.388C117.335 125.916 118.8 125.151 120.202 124.113C122.577 122.373 124.419 120.13 125.549 117.625C127.704 112.845 127.056 106.807 123.938 102.594C121.207 98.9041 116.477 96.4618 112.27 96.4618L112.281 96.4723Z" fill="#054375"/>
<path d="M190.027 62.2908L188.279 56.5363L191.962 51.3478L182.901 45.0796C181.729 46.9873 180.567 48.8845 179.395 50.7922C179.333 50.897 179.27 51.0019 179.165 51.0647C179.029 51.1486 178.862 51.1591 178.694 51.1486C176.675 51.1172 174.655 51.0857 172.636 51.0333C171.642 49.1466 170.679 47.3542 169.591 45.6351C169.507 45.4989 169.403 45.3521 169.246 45.3102C169.089 45.2683 168.932 45.3626 168.796 45.4465C166.399 46.8825 163.993 48.329 161.597 49.765C161.534 49.8069 161.471 49.8384 161.429 49.9013C161.325 50.0585 161.419 50.2576 161.502 50.4149C162.413 52.0081 163.491 53.507 164.715 54.8802C163.627 56.8717 162.486 58.727 161.241 60.5089C160.937 60.9387 160.603 61.3894 160.1 61.5361C159.682 61.6619 159.232 61.5361 158.813 61.4313C157.129 60.9596 155.454 60.4146 153.801 59.8171C152.388 63.1399 152.127 66.9238 153.048 70.4143C153.184 70.6764 159.451 69.7854 159.451 69.7854L163.187 76.2527L160.184 81.1687L167.059 86.1686L170.627 80.9696L176.926 81.0953L179.354 86.5879L188.74 83.349L186.469 77.7202L189.849 72.2591L196.221 71.7455L196.42 63.9994L190.027 62.3223V62.2908ZM179.197 65.2258C179.259 65.4983 179.019 66.0329 178.914 66.2844C178.82 66.5046 178.726 66.7037 178.6 66.9029C178.359 67.2697 178.056 67.6156 177.732 67.9091C177.062 68.5276 176.309 68.9783 175.451 69.3032C175.105 69.429 174.729 69.5129 174.373 69.5758C174.048 69.6282 173.755 69.6596 173.431 69.6282C173.232 69.6072 173.023 69.5443 172.824 69.5443C173.389 69.5443 172.772 69.5443 172.552 69.4919C171.589 69.2194 170.637 68.4332 170.166 67.5528C169.884 67.0287 169.622 66.4312 169.601 65.8232C169.58 65.2782 169.727 64.7122 169.936 64.209C170.24 63.4858 170.585 62.7625 171.035 62.1231C171.537 61.3999 172.165 60.6452 172.971 60.2469C173.787 59.8381 174.666 59.7752 175.451 60.0792C175.775 59.9324 176.152 59.88 176.466 59.9953C177.052 60.2154 177.554 60.4984 177.951 60.9806C178.349 61.4628 178.621 61.924 178.851 62.511C178.925 62.6892 178.987 62.8778 179.029 63.0665C179.061 63.1713 179.071 63.2866 179.092 63.4019C179.113 63.5801 179.144 63.7478 179.165 63.926C179.165 63.8841 179.165 63.8526 179.165 63.8107C179.144 63.664 179.155 63.6535 179.176 63.7898C179.207 63.9679 179.228 64.1357 179.249 64.3138C179.249 64.3977 179.259 64.492 179.259 64.5759C179.259 64.796 179.238 65.0266 179.176 65.2363L179.197 65.2258Z" fill="white"/>
<path d="M162.413 69.2404C162.413 69.2404 162.36 69.2404 162.339 69.2299C162.203 69.188 162.12 69.0412 162.162 68.905C163.951 62.7835 166.075 56.6726 168.461 50.7503C168.513 50.6141 168.67 50.5512 168.806 50.6036C168.942 50.656 169.005 50.8132 168.953 50.9495C166.577 56.8508 164.464 62.9408 162.674 69.0517C162.643 69.167 162.538 69.2404 162.423 69.2404H162.413Z" fill="#054375"/>
<path d="M165.175 70.2362C165.175 70.2362 165.123 70.2362 165.102 70.2362C164.966 70.1942 164.882 70.0475 164.924 69.9112C166.577 64.1252 168.775 58.4545 171.432 53.0564C171.495 52.9201 171.652 52.8677 171.788 52.9306C171.924 52.9935 171.977 53.1507 171.914 53.287C169.266 58.6537 167.09 64.2929 165.437 70.0475C165.405 70.1628 165.301 70.2362 165.186 70.2362H165.175Z" fill="#054375"/>
<path d="M164.139 81.3155C164.139 81.3155 164.066 81.3155 164.035 81.2945C163.899 81.2421 163.836 81.0849 163.888 80.9486L168.45 69.9741C168.503 69.8378 168.66 69.7749 168.796 69.8274C168.932 69.8798 168.994 70.037 168.942 70.1733L164.38 81.1478C164.338 81.2526 164.244 81.3155 164.139 81.3155Z" fill="#054375"/>
<path d="M170.124 78.9676C170.124 78.9676 170.062 78.9676 170.02 78.9466C169.884 78.8942 169.821 78.737 169.873 78.6007L172.416 72.3011C172.468 72.1649 172.625 72.102 172.761 72.1544C172.897 72.2068 172.96 72.364 172.908 72.5003L170.365 78.7999C170.323 78.9047 170.219 78.9676 170.114 78.9676H170.124Z" fill="#054375"/>
<path d="M174.886 58.1924C174.886 58.1924 174.833 58.1924 174.802 58.1819C174.666 58.14 174.582 57.9933 174.624 57.8465L175.838 53.9787C175.88 53.8424 176.026 53.7586 176.173 53.8005C176.309 53.8424 176.392 53.9892 176.35 54.1359L175.137 58.0038C175.105 58.1191 175.001 58.1924 174.886 58.1924Z" fill="#054375"/>
<path d="M179.678 59.1988C179.678 59.1988 179.615 59.1988 179.584 59.1778C179.448 59.1254 179.374 58.9682 179.427 58.8319C180.672 55.5197 182.095 52.2283 183.675 49.0523C183.738 48.9161 183.905 48.8637 184.031 48.937C184.167 48.9999 184.219 49.1572 184.146 49.2934C182.576 52.4485 181.153 55.7293 179.919 59.0206C179.877 59.1254 179.783 59.1883 179.667 59.1883L179.678 59.1988Z" fill="#054375"/>
<path d="M174.875 79.02C174.875 79.02 174.802 79.02 174.76 78.999C174.624 78.9361 174.572 78.7789 174.634 78.6426L186.207 54.1464C186.27 54.0102 186.427 53.9578 186.563 54.0207C186.699 54.0836 186.751 54.2408 186.689 54.3771L175.116 78.8732C175.074 78.9676 174.98 79.0304 174.875 79.0304V79.02Z" fill="#054375"/>
<path d="M179.51 80.0158C179.51 80.0158 179.437 80.0158 179.395 79.9948C179.259 79.9319 179.207 79.7747 179.27 79.6385L187.044 62.9723C187.107 62.836 187.264 62.7836 187.4 62.8465C187.536 62.9094 187.589 63.0666 187.526 63.2029L179.751 79.8691C179.709 79.9634 179.615 80.0263 179.51 80.0263V80.0158Z" fill="#054375"/>
<path d="M187.798 71.6721C187.798 71.6721 187.714 71.6617 187.672 71.6407C187.547 71.5673 187.494 71.4101 187.568 71.2738L190.989 65.079C191.062 64.9532 191.219 64.9008 191.355 64.9742C191.481 65.0476 191.533 65.2048 191.46 65.3411L188.038 71.5359C187.986 71.6197 187.902 71.6721 187.808 71.6721H187.798Z" fill="#054375"/>
<path d="M182.053 83.3909C182.053 83.3909 181.969 83.3909 181.938 83.3595C181.802 83.2966 181.75 83.1289 181.823 83.0031L183.372 79.9109C183.434 79.7852 183.602 79.7223 183.727 79.7957C183.863 79.8585 183.916 80.0263 183.842 80.152L182.294 83.2442C182.252 83.3385 182.158 83.3909 182.053 83.3909Z" fill="#054375"/>
<path d="M155.904 67.8044C155.904 67.8044 155.821 67.8044 155.789 67.7729C155.653 67.71 155.601 67.5528 155.664 67.4165L157.756 63.1085C157.819 62.9722 157.976 62.9198 158.112 62.9827C158.248 63.0456 158.3 63.2028 158.238 63.3391L156.145 67.6471C156.103 67.7415 156.009 67.7939 155.904 67.7939V67.8044Z" fill="#054375"/>
<path d="M164.736 51.5574C164.736 51.5574 164.652 51.5469 164.61 51.526C164.485 51.4526 164.432 51.2954 164.505 51.1591L166.054 48.3919C166.127 48.2661 166.284 48.2137 166.42 48.2871C166.546 48.3604 166.598 48.5177 166.525 48.6539L164.976 51.4212C164.924 51.505 164.84 51.5574 164.746 51.5574H164.736Z" fill="#054375"/>
<g opacity="0.13">
<path d="M181.038 66.3788C180.965 65.4145 179.479 65.3201 179.249 66.253C178.956 67.1649 179.071 67.0077 178.087 67.9406C177.146 68.6953 177.48 68.4752 176.016 69.0097C174.645 69.4185 175.199 69.3347 174.038 69.3347C173.881 69.3032 173.724 69.2613 173.567 69.2194C173.002 69.0097 173.18 69.1146 172.102 68.5171C171.652 68.2865 171.255 67.8882 170.742 67.8567C169.172 67.5737 168.408 69.8378 169.79 70.6135C172.249 72.2906 174.718 73.0453 177.533 71.6617C178.987 70.8755 180.034 69.5338 180.567 67.9825C180.798 67.4794 181.101 66.9448 181.059 66.3788H181.038Z" fill="#054375"/>
</g>
<g opacity="0.13">
<path d="M185.276 81.934C184.355 82.2694 184.031 82.4895 182.294 82.7935C181.467 83.0556 180.473 82.9193 179.772 83.4539C178.297 84.4916 179.521 86.9129 181.237 86.3993C183.298 85.9695 185.663 85.8857 187.264 84.3658C188.53 82.9507 186.929 81.1059 185.286 81.934H185.276Z" fill="#054375"/>
</g>
<g opacity="0.13">
<path d="M197.623 68.8316C197.623 68.8316 197.623 68.8002 197.623 68.7792C197.623 68.8002 197.623 68.8107 197.623 68.8316C197.623 68.4857 197.55 68.1503 197.383 67.8568C196.671 66.5256 194.578 66.7457 194.086 68.1189C194.055 68.1818 194.024 68.2551 193.971 68.3495C193.835 68.622 193.741 68.905 193.637 69.1775C193.542 69.3872 193.417 69.6807 193.333 69.8484C193.155 70.1524 193.071 70.4878 193.061 70.8442C193.082 73.1082 196.294 73.538 196.912 71.3683C197.226 70.666 197.477 69.9427 197.571 69.188C197.592 69.0727 197.613 68.9679 197.613 68.8526L197.623 68.8316Z" fill="#054375"/>
</g>
<path d="M179.28 87.3007C178.956 87.3007 178.663 87.1015 178.537 86.7976C177.878 85.1729 177.198 83.4853 176.183 81.8501C174.237 82.0702 172.29 81.9654 170.438 81.7872C169.894 82.7515 169.371 83.7368 168.817 84.7641C168.492 85.372 168.157 85.9904 167.812 86.6298C167.624 86.9862 167.195 87.133 166.828 86.9967C163.773 85.8123 161.105 83.8941 159.127 81.4518C158.897 81.1688 158.886 80.7705 159.106 80.477C160.132 79.0724 161.168 77.6364 162.287 75.9069C161.115 74.387 160.069 72.5736 159.106 70.3934C158.688 70.4773 158.259 70.5716 157.83 70.6554C156.354 70.9594 154.837 71.2844 153.184 71.5045C152.786 71.5569 152.409 71.3158 152.305 70.928C151.363 67.5109 151.625 63.6535 153.079 59.4608C153.215 59.073 153.623 58.8424 154.021 58.9472C156.093 59.4608 158.164 59.9744 160.351 60.4985C161.23 58.6851 162.298 56.9766 163.428 55.2051C162.423 53.8844 161.304 52.3331 160.299 50.5407C160.121 50.2158 160.184 49.807 160.466 49.5554C162.737 47.5324 165.594 45.761 168.963 44.3145C169.34 44.1572 169.769 44.304 169.968 44.6499C170.983 46.4213 171.903 48.2766 172.709 50.1634C174.791 49.8489 176.895 49.7755 178.998 49.9432C179.95 48.1508 180.944 46.306 182.189 44.3774C182.409 44.0315 182.859 43.9162 183.225 44.0943C185.684 45.3522 188.018 46.8825 190.152 48.6435C190.728 49.1152 191.282 49.6078 191.847 50.1005C192.14 50.352 192.496 50.6665 192.622 51.1591C192.684 51.3793 192.642 51.6203 192.506 51.809C192.025 52.5218 191.523 53.2241 191.01 53.9368C190.33 54.8907 189.629 55.876 188.907 56.9556C189.524 58.4545 190.142 59.9954 190.717 61.5362C192.506 61.7039 194.788 62.0603 197.226 63.0456C197.508 63.1609 197.707 63.4334 197.728 63.7374C197.916 66.8924 197.498 69.775 196.43 72.5422C196.305 72.8566 196.022 73.0768 195.656 73.0558L194.955 73.0244C193.385 72.9615 191.764 72.8986 190.027 73.0244C189.357 74.5862 188.363 76.148 186.94 77.8879C187.871 79.4917 188.813 81.1688 189.639 83.1394C189.796 83.5167 189.639 83.957 189.284 84.1561C186.04 85.8856 182.702 86.9443 179.364 87.2902C179.333 87.2902 179.312 87.2902 179.28 87.2902V87.3007ZM176.581 80.194C176.842 80.194 177.093 80.3302 177.25 80.5503C178.38 82.2589 179.113 83.9674 179.793 85.6341C182.503 85.2777 185.224 84.4182 187.892 83.087C187.086 81.305 186.186 79.7432 185.307 78.2234C185.14 77.9299 185.171 77.5525 185.381 77.301C187.034 75.3513 188.101 73.6637 188.75 71.9866C188.855 71.7036 189.116 71.5045 189.42 71.4835C191.429 71.2948 193.26 71.3682 195.028 71.4416H195.154C195.939 69.2089 196.273 66.8715 196.179 64.3558C193.877 63.4963 191.732 63.2343 190.1 63.098C189.786 63.077 189.524 62.8674 189.42 62.5739C188.76 60.7605 188.018 58.9472 187.296 57.1862C187.191 56.9451 187.222 56.6621 187.369 56.442C188.195 55.2051 188.97 54.0941 189.734 53.0249C190.131 52.4694 190.518 51.9243 190.895 51.3793C190.864 51.3583 190.843 51.3268 190.822 51.3059C190.278 50.8237 189.723 50.3415 189.169 49.8803C187.306 48.3395 185.297 46.9978 183.173 45.8553C182.032 47.6791 181.101 49.4506 180.191 51.1591C180.044 51.4421 179.741 51.6203 179.406 51.5784C177.072 51.3478 174.708 51.4317 172.395 51.83C172.029 51.8929 171.663 51.6937 171.527 51.3478C170.784 49.5449 169.926 47.7735 168.984 46.0649C166.295 47.2808 163.972 48.7169 162.057 50.3206C163.041 51.9872 164.118 53.4337 165.071 54.6706C165.28 54.9326 165.29 55.31 165.112 55.593C163.773 57.6789 162.517 59.6495 161.565 61.7458C161.408 62.0917 161.021 62.2804 160.655 62.1966C158.489 61.683 156.438 61.1693 154.397 60.6662C153.341 63.9994 153.11 67.0706 153.717 69.8064C155.046 69.5968 156.312 69.3347 157.547 69.0832C158.196 68.9469 158.834 68.8211 159.472 68.6953C159.839 68.622 160.215 68.8211 160.362 69.167C161.429 71.7036 162.591 73.7162 163.919 75.3513C164.139 75.6134 164.16 75.9907 163.982 76.2842C162.863 78.0661 161.816 79.5231 160.812 80.9172C162.423 82.762 164.474 84.24 166.807 85.2462C167.038 84.827 167.247 84.4182 167.467 84.0198C168.115 82.8144 168.722 81.6824 169.371 80.5503C169.528 80.2778 169.832 80.1311 170.145 80.152C172.207 80.3617 174.404 80.5189 176.528 80.2044C176.57 80.2044 176.602 80.2044 176.643 80.2044L176.581 80.194Z" fill="#054375"/>
<path d="M173.693 69.8484C172.835 69.8484 171.956 69.6702 171.15 69.3243C170.449 69.0203 169.936 68.643 169.601 68.1608C169.141 67.5109 169.026 66.7353 168.973 66.1378C168.817 64.0624 169.319 62.1652 170.407 60.8025C171.736 59.1359 173.944 58.4126 175.775 59.0206C175.9 59.0625 176.005 59.1359 176.089 59.2198C176.089 59.2198 176.099 59.2198 176.11 59.2198C178.046 59.8591 179.479 61.7668 179.605 63.8527C179.72 65.8653 178.652 67.8673 176.884 68.9574C175.932 69.5444 174.823 69.8379 173.693 69.8379V69.8484ZM174.446 60.4042C173.441 60.4042 172.364 60.9178 171.663 61.7983C170.826 62.8465 170.438 64.3349 170.574 66.012C170.606 66.3998 170.669 66.8925 170.909 67.2279C171.077 67.469 171.37 67.6681 171.799 67.8568C173.19 68.4648 174.823 68.3704 176.068 67.6053C177.324 66.8296 178.108 65.3621 178.025 63.9576C177.941 62.532 176.936 61.1799 175.628 60.7501L175.482 60.7082C175.356 60.6767 175.137 60.6034 174.948 60.4566C174.791 60.4252 174.624 60.4147 174.456 60.4147L174.446 60.4042Z" fill="#054375"/>
<path d="M162.413 69.2404C162.413 69.2404 162.36 69.2404 162.339 69.2299C162.203 69.188 162.12 69.0412 162.162 68.905C163.951 62.7835 166.075 56.6726 168.461 50.7503C168.513 50.6141 168.67 50.5512 168.806 50.6036C168.942 50.656 169.005 50.8132 168.953 50.9495C166.577 56.8508 164.464 62.9408 162.674 69.0517C162.643 69.167 162.538 69.2404 162.423 69.2404H162.413Z" fill="#054375"/>
<path d="M165.175 70.2362C165.175 70.2362 165.123 70.2362 165.102 70.2362C164.966 70.1942 164.882 70.0475 164.924 69.9112C166.577 64.1252 168.775 58.4545 171.432 53.0564C171.495 52.9201 171.652 52.8677 171.788 52.9306C171.924 52.9935 171.977 53.1507 171.914 53.287C169.266 58.6537 167.09 64.2929 165.437 70.0475C165.405 70.1628 165.301 70.2362 165.186 70.2362H165.175Z" fill="#054375"/>
<path d="M164.139 81.3155C164.139 81.3155 164.066 81.3155 164.035 81.2945C163.899 81.2421 163.836 81.0849 163.888 80.9486L168.45 69.9741C168.503 69.8378 168.66 69.7749 168.796 69.8274C168.932 69.8798 168.994 70.037 168.942 70.1733L164.38 81.1478C164.338 81.2526 164.244 81.3155 164.139 81.3155Z" fill="#054375"/>
<path d="M170.124 78.9676C170.124 78.9676 170.062 78.9676 170.02 78.9466C169.884 78.8942 169.821 78.737 169.873 78.6007L172.416 72.3011C172.468 72.1649 172.625 72.102 172.761 72.1544C172.897 72.2068 172.96 72.364 172.908 72.5003L170.365 78.7999C170.323 78.9047 170.219 78.9676 170.114 78.9676H170.124Z" fill="#054375"/>
<path d="M174.886 58.1924C174.886 58.1924 174.833 58.1924 174.802 58.1819C174.666 58.14 174.582 57.9933 174.624 57.8465L175.838 53.9787C175.88 53.8424 176.026 53.7586 176.173 53.8005C176.309 53.8424 176.392 53.9892 176.35 54.1359L175.137 58.0038C175.105 58.1191 175.001 58.1924 174.886 58.1924Z" fill="#054375"/>
<path d="M179.678 59.1988C179.678 59.1988 179.615 59.1988 179.584 59.1778C179.448 59.1254 179.374 58.9682 179.427 58.8319C180.672 55.5197 182.095 52.2283 183.675 49.0523C183.738 48.9161 183.905 48.8637 184.031 48.937C184.167 48.9999 184.219 49.1572 184.146 49.2934C182.576 52.4485 181.153 55.7293 179.919 59.0206C179.877 59.1254 179.783 59.1883 179.667 59.1883L179.678 59.1988Z" fill="#054375"/>
<path d="M174.875 79.02C174.875 79.02 174.802 79.02 174.76 78.999C174.624 78.9361 174.572 78.7789 174.634 78.6426L186.207 54.1464C186.27 54.0102 186.427 53.9578 186.563 54.0207C186.699 54.0836 186.751 54.2408 186.689 54.3771L175.116 78.8732C175.074 78.9676 174.98 79.0304 174.875 79.0304V79.02Z" fill="#054375"/>
<path d="M179.51 80.0158C179.51 80.0158 179.437 80.0158 179.395 79.9948C179.259 79.9319 179.207 79.7747 179.27 79.6385L187.044 62.9723C187.107 62.836 187.264 62.7836 187.4 62.8465C187.536 62.9094 187.589 63.0666 187.526 63.2029L179.751 79.8691C179.709 79.9634 179.615 80.0263 179.51 80.0263V80.0158Z" fill="#054375"/>
<path d="M187.798 71.6721C187.798 71.6721 187.714 71.6617 187.672 71.6407C187.547 71.5673 187.494 71.4101 187.568 71.2738L190.989 65.079C191.062 64.9532 191.219 64.9008 191.355 64.9742C191.481 65.0476 191.533 65.2048 191.46 65.3411L188.038 71.5359C187.986 71.6197 187.902 71.6721 187.808 71.6721H187.798Z" fill="#054375"/>
<path d="M182.053 83.3909C182.053 83.3909 181.969 83.3909 181.938 83.3595C181.802 83.2966 181.75 83.1289 181.823 83.0031L183.372 79.9109C183.434 79.7852 183.602 79.7223 183.727 79.7957C183.863 79.8585 183.916 80.0263 183.842 80.152L182.294 83.2442C182.252 83.3385 182.158 83.3909 182.053 83.3909Z" fill="#054375"/>
<path d="M155.904 67.8044C155.904 67.8044 155.821 67.8044 155.789 67.7729C155.653 67.71 155.601 67.5528 155.664 67.4165L157.756 63.1085C157.819 62.9722 157.976 62.9198 158.112 62.9827C158.248 63.0456 158.3 63.2028 158.238 63.3391L156.145 67.6471C156.103 67.7415 156.009 67.7939 155.904 67.7939V67.8044Z" fill="#054375"/>
<path d="M164.736 51.5574C164.736 51.5574 164.652 51.5469 164.61 51.526C164.485 51.4526 164.432 51.2954 164.505 51.1591L166.054 48.3919C166.127 48.2661 166.284 48.2137 166.42 48.2871C166.546 48.3604 166.598 48.5177 166.525 48.6539L164.976 51.4212C164.924 51.505 164.84 51.5574 164.746 51.5574H164.736Z" fill="#054375"/>
<g opacity="0.13">
<path d="M181.038 66.3788C180.965 65.4145 179.479 65.3201 179.249 66.253C178.956 67.1649 179.071 67.0077 178.087 67.9406C177.146 68.6953 177.48 68.4752 176.016 69.0097C174.645 69.4185 175.199 69.3347 174.038 69.3347C173.881 69.3032 173.724 69.2613 173.567 69.2194C173.002 69.0097 173.18 69.1146 172.102 68.5171C171.652 68.2865 171.255 67.8882 170.742 67.8567C169.172 67.5737 168.408 69.8378 169.79 70.6135C172.249 72.2906 174.718 73.0453 177.533 71.6617C178.987 70.8755 180.034 69.5338 180.567 67.9825C180.798 67.4794 181.101 66.9448 181.059 66.3788H181.038Z" fill="#054375"/>
</g>
<g opacity="0.13">
<path d="M185.276 81.934C184.355 82.2694 184.031 82.4895 182.294 82.7935C181.467 83.0556 180.473 82.9193 179.772 83.4539C178.297 84.4916 179.521 86.9129 181.237 86.3993C183.298 85.9695 185.663 85.8857 187.264 84.3658C188.53 82.9507 186.929 81.1059 185.286 81.934H185.276Z" fill="#054375"/>
</g>
<g opacity="0.13">
<path d="M197.623 68.8316C197.623 68.8316 197.623 68.8002 197.623 68.7792C197.623 68.8002 197.623 68.8107 197.623 68.8316C197.623 68.4857 197.55 68.1503 197.383 67.8568C196.671 66.5256 194.578 66.7457 194.086 68.1189C194.055 68.1818 194.024 68.2551 193.971 68.3495C193.835 68.622 193.741 68.905 193.637 69.1775C193.542 69.3872 193.417 69.6807 193.333 69.8484C193.155 70.1524 193.071 70.4878 193.061 70.8442C193.082 73.1082 196.294 73.538 196.912 71.3683C197.226 70.666 197.477 69.9427 197.571 69.188C197.592 69.0727 197.613 68.9679 197.613 68.8526L197.623 68.8316Z" fill="#054375"/>
</g>
<path d="M179.28 87.3007C178.956 87.3007 178.663 87.1015 178.537 86.7976C177.878 85.1729 177.198 83.4853 176.183 81.8501C174.237 82.0702 172.29 81.9654 170.438 81.7872C169.894 82.7515 169.371 83.7368 168.817 84.7641C168.492 85.372 168.157 85.9904 167.812 86.6298C167.624 86.9862 167.195 87.133 166.828 86.9967C163.773 85.8123 161.105 83.8941 159.127 81.4518C158.897 81.1688 158.886 80.7705 159.106 80.477C160.132 79.0724 161.168 77.6364 162.287 75.9069C161.115 74.387 160.069 72.5736 159.106 70.3934C158.688 70.4773 158.259 70.5716 157.83 70.6554C156.354 70.9594 154.837 71.2844 153.184 71.5045C152.786 71.5569 152.409 71.3158 152.305 70.928C151.363 67.5109 151.625 63.6535 153.079 59.4608C153.215 59.073 153.623 58.8424 154.021 58.9472C156.093 59.4608 158.164 59.9744 160.351 60.4985C161.23 58.6851 162.298 56.9766 163.428 55.2051C162.423 53.8844 161.304 52.3331 160.299 50.5407C160.121 50.2158 160.184 49.807 160.466 49.5554C162.737 47.5324 165.594 45.761 168.963 44.3145C169.34 44.1572 169.769 44.304 169.968 44.6499C170.983 46.4213 171.903 48.2766 172.709 50.1634C174.791 49.8489 176.895 49.7755 178.998 49.9432C179.95 48.1508 180.944 46.306 182.189 44.3774C182.409 44.0315 182.859 43.9162 183.225 44.0943C185.684 45.3522 188.018 46.8825 190.152 48.6435C190.728 49.1152 191.282 49.6078 191.847 50.1005C192.14 50.352 192.496 50.6665 192.622 51.1591C192.684 51.3793 192.642 51.6203 192.506 51.809C192.025 52.5218 191.523 53.2241 191.01 53.9368C190.33 54.8907 189.629 55.876 188.907 56.9556C189.524 58.4545 190.142 59.9954 190.717 61.5362C192.506 61.7039 194.788 62.0603 197.226 63.0456C197.508 63.1609 197.707 63.4334 197.728 63.7374C197.916 66.8924 197.498 69.775 196.43 72.5422C196.305 72.8566 196.022 73.0768 195.656 73.0558L194.955 73.0244C193.385 72.9615 191.764 72.8986 190.027 73.0244C189.357 74.5862 188.363 76.148 186.94 77.8879C187.871 79.4917 188.813 81.1688 189.639 83.1394C189.796 83.5167 189.639 83.957 189.284 84.1561C186.04 85.8856 182.702 86.9443 179.364 87.2902C179.333 87.2902 179.312 87.2902 179.28 87.2902V87.3007ZM176.581 80.194C176.842 80.194 177.093 80.3302 177.25 80.5503C178.38 82.2589 179.113 83.9674 179.793 85.6341C182.503 85.2777 185.224 84.4182 187.892 83.087C187.086 81.305 186.186 79.7432 185.307 78.2234C185.14 77.9299 185.171 77.5525 185.381 77.301C187.034 75.3513 188.101 73.6637 188.75 71.9866C188.855 71.7036 189.116 71.5045 189.42 71.4835C191.429 71.2948 193.26 71.3682 195.028 71.4416H195.154C195.939 69.2089 196.273 66.8715 196.179 64.3558C193.877 63.4963 191.732 63.2343 190.1 63.098C189.786 63.077 189.524 62.8674 189.42 62.5739C188.76 60.7605 188.018 58.9472 187.296 57.1862C187.191 56.9451 187.222 56.6621 187.369 56.442C188.195 55.2051 188.97 54.0941 189.734 53.0249C190.131 52.4694 190.518 51.9243 190.895 51.3793C190.864 51.3583 190.843 51.3268 190.822 51.3059C190.278 50.8237 189.723 50.3415 189.169 49.8803C187.306 48.3395 185.297 46.9978 183.173 45.8553C182.032 47.6791 181.101 49.4506 180.191 51.1591C180.044 51.4421 179.741 51.6203 179.406 51.5784C177.072 51.3478 174.708 51.4317 172.395 51.83C172.029 51.8929 171.663 51.6937 171.527 51.3478C170.784 49.5449 169.926 47.7735 168.984 46.0649C166.295 47.2808 163.972 48.7169 162.057 50.3206C163.041 51.9872 164.118 53.4337 165.071 54.6706C165.28 54.9326 165.29 55.31 165.112 55.593C163.773 57.6789 162.517 59.6495 161.565 61.7458C161.408 62.0917 161.021 62.2804 160.655 62.1966C158.489 61.683 156.438 61.1693 154.397 60.6662C153.341 63.9994 153.11 67.0706 153.717 69.8064C155.046 69.5968 156.312 69.3347 157.547 69.0832C158.196 68.9469 158.834 68.8211 159.472 68.6953C159.839 68.622 160.215 68.8211 160.362 69.167C161.429 71.7036 162.591 73.7162 163.919 75.3513C164.139 75.6134 164.16 75.9907 163.982 76.2842C162.863 78.0661 161.816 79.5231 160.812 80.9172C162.423 82.762 164.474 84.24 166.807 85.2462C167.038 84.827 167.247 84.4182 167.467 84.0198C168.115 82.8144 168.722 81.6824 169.371 80.5503C169.528 80.2778 169.832 80.1311 170.145 80.152C172.207 80.3617 174.404 80.5189 176.528 80.2044C176.57 80.2044 176.602 80.2044 176.643 80.2044L176.581 80.194Z" fill="#054375"/>
<path d="M173.693 69.8484C172.835 69.8484 171.956 69.6702 171.15 69.3243C170.449 69.0203 169.936 68.643 169.601 68.1608C169.141 67.5109 169.026 66.7353 168.973 66.1378C168.817 64.0624 169.319 62.1652 170.407 60.8025C171.736 59.1359 173.944 58.4126 175.775 59.0206C175.9 59.0625 176.005 59.1359 176.089 59.2198C176.089 59.2198 176.099 59.2198 176.11 59.2198C178.046 59.8591 179.479 61.7668 179.605 63.8527C179.72 65.8653 178.652 67.8673 176.884 68.9574C175.932 69.5444 174.823 69.8379 173.693 69.8379V69.8484ZM174.446 60.4042C173.441 60.4042 172.364 60.9178 171.663 61.7983C170.826 62.8465 170.438 64.3349 170.574 66.012C170.606 66.3998 170.669 66.8925 170.909 67.2279C171.077 67.469 171.37 67.6681 171.799 67.8568C173.19 68.4648 174.823 68.3704 176.068 67.6053C177.324 66.8296 178.108 65.3621 178.025 63.9576C177.941 62.532 176.936 61.1799 175.628 60.7501L175.482 60.7082C175.356 60.6767 175.137 60.6034 174.948 60.4566C174.791 60.4252 174.624 60.4147 174.456 60.4147L174.446 60.4042Z" fill="#054375"/>
<path d="M230.605 143.787C228.293 140.15 227.403 135.559 228.523 131.387C229.485 127.844 231.808 124.784 234.623 122.111C231.327 117.184 227.696 112.489 223.741 108.076C223.385 107.688 223.029 107.29 222.6 106.986C221.931 106.503 221.073 106.189 220.225 105.602C216.636 109.512 211.289 111.713 205.921 111.619C198.952 110.749 192.695 105.633 190.309 98.9564C183.56 100.036 176.947 101.954 170.773 104.606C172.05 106.734 172.385 109.313 172.343 111.797C172.301 114.48 171.841 117.205 170.679 119.616C169.507 122.038 167.571 124.134 165.112 125.203C163.689 125.821 162.13 126.073 160.592 126.209C157.913 126.461 155.203 126.388 152.556 126.167C152.556 126.167 147.46 145.108 148.036 145.108C149.689 145.517 151.342 145.978 152.974 146.471C154.785 147.026 156.595 147.645 158.175 148.693C159.755 149.741 161.084 151.261 161.555 153.095C161.869 154.322 161.774 155.611 161.555 156.858C160.791 161.376 158.447 165.6 155.015 168.63C155.015 168.63 167.634 181.176 167.843 181.051C169.277 178.923 171.652 177.665 173.923 176.491C174.886 175.998 175.848 175.495 176.874 175.17C180.609 173.975 184.889 175.202 187.756 177.875C190.623 180.547 192.14 184.489 192.36 188.472C196.838 188.22 201.317 187.885 205.775 187.434C207.731 187.245 209.751 187.004 211.571 185.558C211.456 181.585 212.314 177.581 214.03 173.996C214.868 172.256 215.914 170.6 217.389 169.353C219.587 167.508 222.558 166.764 225.415 166.921C228.272 167.078 231.034 168.084 233.796 169.164C236.726 163.619 239.688 157.969 240.64 151.565C236.59 150.098 232.928 147.414 230.615 143.777L230.605 143.787ZM209.039 144.972C208.725 147.571 207.553 149.972 205.931 151.995C205.115 153.012 204.163 153.882 203.117 154.657C202.091 155.422 200.783 156.146 199.538 156.46C198.199 156.795 196.692 156.649 195.332 156.649C193.898 156.649 192.433 156.638 191.062 156.146C189.755 155.684 188.635 154.835 187.641 153.882C186.668 152.949 185.517 152.089 184.847 150.905C182.221 146.251 182.984 140.077 186.113 135.863C187.787 133.61 190.142 131.901 192.622 130.612C195.29 129.218 198.429 128.725 201.338 129.574C202.227 129.836 202.541 130.612 202.426 131.324C207.208 133.809 209.678 139.72 209.05 144.972H209.039Z" fill="white"/>
<path d="M208.715 126.335C204.644 123.652 199.371 122.625 195.405 123.044C188.53 123.788 183.445 127.289 179.835 133.201C176.225 139.113 175.66 146.817 178.496 153.127C181.342 159.437 187.568 164.143 194.432 164.982C200.176 165.684 206.141 163.724 210.504 159.909C214.857 156.093 216.646 150.527 217.211 144.762C217.494 141.848 216.332 131.335 208.715 126.325V126.335ZM200.93 156.638C195.426 158.504 188.844 156.397 185.391 151.712C184.376 150.328 183.602 148.735 183.319 147.037C183.037 145.339 183.246 143.588 183.665 141.911C184.669 137.834 186.992 133.987 190.487 131.67C193.982 129.354 198.722 128.777 202.447 130.706C207.072 133.096 209.939 138.18 210.148 143.222C210.4 149.039 206.434 154.762 200.93 156.628V156.638Z" fill="#7CDDFD"/>
<g opacity="0.13">
<path d="M218.551 142.593C218.321 141.901 218.09 141.209 217.85 140.528C217.4 139.238 216.877 137.981 216.468 136.681C216.385 136.681 216.312 136.681 216.228 136.712C214.815 137.341 215.579 138.368 215.621 139.658C215.767 140.926 216.05 142.173 216.217 143.431C216.374 144.699 216.416 145.989 216.322 147.267C216.322 147.288 216.301 147.32 216.291 147.372C216.102 148.085 215.778 148.745 215.59 149.458C214.731 152.404 214.397 153.305 212.743 155.632C212.639 155.758 212.482 155.967 212.377 156.125C212.252 156.345 211.77 157.005 211.624 157.215C211.582 157.267 211.551 157.309 211.53 157.33C211.456 157.424 211.383 157.508 211.31 157.603C211.101 157.907 210.054 158.955 210.054 158.997C208.621 160.097 208.757 160.076 207.198 161.219C206.036 161.995 204.791 162.655 203.535 163.252C201.976 163.913 200.051 164.783 197.676 164.919C195.813 164.95 193.95 164.919 192.098 164.709C189.231 164.154 188.562 163.672 186.103 162.299C185.36 161.879 184.648 160.967 183.727 161.135C183.717 161.135 183.706 161.146 183.686 161.156C184.345 161.879 185.014 162.592 185.695 163.294C186.563 164.196 187.453 165.076 188.342 165.946C191.199 167.057 194.264 167.686 197.33 167.56C199.057 167.487 200.804 167.414 202.489 166.963C205.461 166.177 208.223 164.688 210.609 162.749C212.346 161.156 214.261 159.709 215.694 157.823C217.745 154.437 218.708 150.475 218.739 147.53C218.854 146.439 218.77 144.532 218.54 142.593H218.551Z" fill="#054375"/>
</g>
<g opacity="0.13">
<path d="M241.309 151.953C241.09 151.051 239.771 150.873 239.321 151.691C237.354 155.129 235.387 158.577 233.315 161.963C232.457 163.326 231.348 164.552 230.731 166.051C230.532 166.428 230.26 166.795 230.239 167.236C229.977 168.514 231.547 169.531 232.635 168.839C233.054 168.619 233.242 168.2 233.451 167.812C233.629 167.634 233.807 167.445 233.943 167.236C235.952 164.301 236.946 160.8 238.652 157.687C239.499 156.062 240.357 154.427 241.194 152.802C241.341 152.55 241.383 152.246 241.299 151.963L241.309 151.953Z" fill="#054375"/>
</g>
<g opacity="0.13">
<path d="M209.28 182.34C208.495 182.099 207.752 182.539 206.988 182.686C201.924 184.09 198.523 184.164 192.716 183.975C190.089 184.038 190.089 187.895 192.716 187.969C197.131 188.094 201.61 188.147 205.911 187.046C206.926 186.805 207.941 186.585 208.945 186.302C209.552 186.145 210.159 185.851 210.473 185.275C211.142 184.185 210.504 182.665 209.28 182.34Z" fill="#054375"/>
</g>
<path d="M192.015 188.975C191.596 188.975 191.24 188.65 191.219 188.22C191.01 184.436 189.294 180.778 186.532 178.179C185.381 177.099 183.55 175.768 181.373 175.558C179.49 175.369 177.596 176.03 175.806 176.711C173.013 177.791 170.187 179.153 168.419 181.858C168.293 182.046 168.105 182.172 167.885 182.204C167.666 182.246 167.446 182.183 167.268 182.046C161.806 177.875 157.537 173.734 154.22 169.405C153.958 169.07 154.01 168.577 154.345 168.305C157.641 165.569 159.975 161.586 160.739 157.362C161.042 155.705 161.021 154.427 160.665 153.326C160.048 151.397 158.342 149.783 155.454 148.389C152.849 147.131 149.992 146.251 146.979 145.779C146.769 145.748 146.581 145.632 146.456 145.454C146.33 145.276 146.278 145.066 146.319 144.857C147.397 138.421 149.218 131.922 151.74 125.549C151.897 125.151 152.347 124.952 152.744 125.088C156.155 126.304 164.683 126.419 168.147 122.279C173.902 115.413 171.171 107.552 170.198 105.298C170.03 104.9 170.198 104.449 170.585 104.26C173.86 102.688 179.343 101.084 185.14 99.3862C186.929 98.8621 188.76 98.3276 190.581 97.7825C190.864 97.6986 191.157 97.7825 191.366 97.9712C191.575 98.1703 191.659 98.4743 191.575 98.7573C191.24 99.9732 194.4 106.021 199.35 108.568C210.692 114.386 217.892 107.111 219.827 104.742C219.974 104.564 220.183 104.459 220.403 104.449C220.623 104.438 220.853 104.522 221.01 104.69C226.566 110.329 231.285 115.927 235.418 121.807C235.669 122.163 235.586 122.656 235.23 122.918C230.427 126.377 227.947 132.844 229.192 138.641C230.438 144.385 235.335 149.301 241.383 150.873C241.592 150.926 241.77 151.062 241.874 151.251C241.979 151.439 242.01 151.659 241.948 151.869C240.022 158.378 237.26 164.73 233.964 170.244C233.755 170.59 233.326 170.726 232.959 170.569C228.617 168.692 224.4 167.11 220.507 168.451C217.672 169.426 215.307 171.973 213.999 175.453C213.005 178.095 212.691 180.967 212.356 183.996C212.283 184.635 212.21 185.285 212.136 185.946C212.095 186.281 211.843 186.564 211.509 186.627C204.739 188.021 198.366 188.776 192.025 188.943C192.025 188.943 192.015 188.943 192.004 188.943L192.015 188.975ZM180.724 173.933C180.986 173.933 181.258 173.944 181.52 173.975C183.602 174.174 185.705 175.233 187.62 177.015C190.497 179.709 192.339 183.44 192.747 187.35C198.575 187.151 204.435 186.449 210.64 185.201C210.692 184.74 210.745 184.29 210.797 183.839C211.142 180.694 211.477 177.728 212.534 174.908C214.009 170.988 216.73 168.095 220.016 166.963C224.222 165.516 228.701 167.036 232.97 168.85C235.91 163.808 238.4 158.085 240.211 152.204C233.964 150.276 228.973 145.056 227.665 138.997C226.336 132.855 228.805 126.042 233.692 122.121C229.862 116.755 225.53 111.619 220.497 106.451C218.028 109.134 210.201 115.948 198.649 110.015C194.181 107.719 190.613 102.552 190.068 99.6378C188.572 100.089 187.076 100.518 185.6 100.948C180.253 102.51 175.189 103.988 171.966 105.413C173.159 108.547 175.199 116.377 169.371 123.327C165.625 127.803 157.16 127.991 152.954 126.838C150.714 132.624 149.051 138.505 148.025 144.343C150.903 144.867 153.634 145.737 156.155 146.953C159.462 148.557 161.44 150.485 162.193 152.844C162.622 154.196 162.664 155.726 162.308 157.645C161.523 161.974 159.221 166.072 155.946 169.017C158.981 172.843 162.8 176.533 167.582 180.264C169.591 177.644 172.437 176.281 175.241 175.202C176.895 174.562 178.789 173.912 180.735 173.912L180.724 173.933Z" fill="#054375"/>
<path d="M196.054 158.127C191.46 158.127 186.856 155.957 184.083 152.194C182.922 150.611 182.147 148.882 181.865 147.173C181.593 145.559 181.708 143.777 182.221 141.733C183.34 137.184 185.956 133.285 189.378 131.021C193.302 128.432 198.314 128.033 202.144 130.014C206.852 132.446 210.044 137.624 210.274 143.201C210.536 149.322 206.34 155.422 200.511 157.404C199.067 157.896 197.55 158.127 196.043 158.127H196.054ZM196.807 130.35C194.568 130.35 192.255 131.031 190.257 132.352C187.16 134.396 184.795 137.96 183.769 142.121C183.319 143.955 183.215 145.528 183.445 146.922C183.686 148.379 184.355 149.878 185.37 151.251C188.604 155.632 194.892 157.634 200.019 155.894C205.199 154.133 208.924 148.714 208.694 143.274C208.485 138.264 205.628 133.61 201.422 131.44C200.019 130.717 198.439 130.36 196.818 130.36L196.807 130.35Z" fill="#054375"/>
<path d="M196.085 165.936C195.279 165.936 194.484 165.883 193.689 165.789C186.605 164.919 180.107 160.087 177.125 153.473C174.184 146.943 174.718 139.018 178.506 132.803C182.315 126.555 187.756 123.012 194.672 122.268C199.193 121.786 204.623 123.117 208.506 125.685C216.782 131.136 217.599 142.372 217.358 144.867C216.667 151.911 214.386 157.037 210.389 160.538C206.423 164.007 201.223 165.946 196.096 165.946L196.085 165.936ZM196.577 123.757C195.98 123.757 195.405 123.788 194.829 123.851C188.342 124.553 183.445 127.75 179.856 133.631C176.33 139.406 175.838 146.754 178.569 152.812C181.321 158.934 187.337 163.399 193.877 164.206C199.297 164.867 205.073 163.043 209.332 159.322C213.015 156.104 215.119 151.314 215.767 144.699C216.071 141.607 214.7 131.66 207.627 127.006C204.519 124.962 200.344 123.757 196.577 123.757Z" fill="#054375"/>
<path d="M208.715 126.335C204.644 123.652 199.371 122.625 195.405 123.044C188.53 123.788 183.445 127.289 179.835 133.201C176.225 139.113 175.66 146.817 178.496 153.127C181.342 159.437 187.568 164.143 194.432 164.982C200.176 165.684 206.141 163.724 210.504 159.909C214.857 156.093 216.646 150.527 217.211 144.762C217.494 141.848 216.332 131.335 208.715 126.325V126.335ZM200.93 156.638C195.426 158.504 188.844 156.397 185.391 151.712C184.376 150.328 183.602 148.735 183.319 147.037C183.037 145.339 183.246 143.588 183.665 141.911C184.669 137.834 186.992 133.987 190.487 131.67C193.982 129.354 198.722 128.777 202.447 130.706C207.072 133.096 209.939 138.18 210.148 143.222C210.4 149.039 206.434 154.762 200.93 156.628V156.638Z" fill="#7CDDFD"/>
<g opacity="0.13">
<path d="M218.551 142.593C218.321 141.901 218.09 141.209 217.85 140.528C217.4 139.238 216.877 137.981 216.468 136.681C216.385 136.681 216.312 136.681 216.228 136.712C214.815 137.341 215.579 138.368 215.621 139.658C215.767 140.926 216.05 142.173 216.217 143.431C216.374 144.699 216.416 145.989 216.322 147.267C216.322 147.288 216.301 147.32 216.291 147.372C216.102 148.085 215.778 148.745 215.59 149.458C214.731 152.404 214.397 153.305 212.743 155.632C212.639 155.758 212.482 155.967 212.377 156.125C212.252 156.345 211.77 157.005 211.624 157.215C211.582 157.267 211.551 157.309 211.53 157.33C211.456 157.424 211.383 157.508 211.31 157.603C211.101 157.907 210.054 158.955 210.054 158.997C208.621 160.097 208.757 160.076 207.198 161.219C206.036 161.995 204.791 162.655 203.535 163.252C201.976 163.913 200.051 164.783 197.676 164.919C195.813 164.95 193.95 164.919 192.098 164.709C189.231 164.154 188.562 163.672 186.103 162.299C185.36 161.879 184.648 160.967 183.727 161.135C183.717 161.135 183.706 161.146 183.686 161.156C184.345 161.879 185.014 162.592 185.695 163.294C186.563 164.196 187.453 165.076 188.342 165.946C191.199 167.057 194.264 167.686 197.33 167.56C199.057 167.487 200.804 167.414 202.489 166.963C205.461 166.177 208.223 164.688 210.609 162.749C212.346 161.156 214.261 159.709 215.694 157.823C217.745 154.437 218.708 150.475 218.739 147.53C218.854 146.439 218.77 144.532 218.54 142.593H218.551Z" fill="#054375"/>
</g>
<g opacity="0.13">
<path d="M241.309 151.953C241.09 151.051 239.771 150.873 239.321 151.691C237.354 155.129 235.387 158.577 233.315 161.963C232.457 163.326 231.348 164.552 230.731 166.051C230.532 166.428 230.26 166.795 230.239 167.236C229.977 168.514 231.547 169.531 232.635 168.839C233.054 168.619 233.242 168.2 233.451 167.812C233.629 167.634 233.807 167.445 233.943 167.236C235.952 164.301 236.946 160.8 238.652 157.687C239.499 156.062 240.357 154.427 241.194 152.802C241.341 152.55 241.383 152.246 241.299 151.963L241.309 151.953Z" fill="#054375"/>
</g>
<g opacity="0.13">
<path d="M209.28 182.34C208.495 182.099 207.752 182.539 206.988 182.686C201.924 184.09 198.523 184.164 192.716 183.975C190.089 184.038 190.089 187.895 192.716 187.969C197.131 188.094 201.61 188.147 205.911 187.046C206.926 186.805 207.941 186.585 208.945 186.302C209.552 186.145 210.159 185.851 210.473 185.275C211.142 184.185 210.504 182.665 209.28 182.34Z" fill="#054375"/>
</g>
<path d="M192.015 188.975C191.596 188.975 191.24 188.65 191.219 188.22C191.01 184.436 189.294 180.778 186.532 178.179C185.381 177.099 183.55 175.768 181.373 175.558C179.49 175.369 177.596 176.03 175.806 176.711C173.013 177.791 170.187 179.153 168.419 181.858C168.293 182.046 168.105 182.172 167.885 182.204C167.666 182.246 167.446 182.183 167.268 182.046C161.806 177.875 157.537 173.734 154.22 169.405C153.958 169.07 154.01 168.577 154.345 168.305C157.641 165.569 159.975 161.586 160.739 157.362C161.042 155.705 161.021 154.427 160.665 153.326C160.048 151.397 158.342 149.783 155.454 148.389C152.849 147.131 149.992 146.251 146.979 145.779C146.769 145.748 146.581 145.632 146.456 145.454C146.33 145.276 146.278 145.066 146.319 144.857C147.397 138.421 149.218 131.922 151.74 125.549C151.897 125.151 152.347 124.952 152.744 125.088C156.155 126.304 164.683 126.419 168.147 122.279C173.902 115.413 171.171 107.552 170.198 105.298C170.03 104.9 170.198 104.449 170.585 104.26C173.86 102.688 179.343 101.084 185.14 99.3862C186.929 98.8621 188.76 98.3276 190.581 97.7825C190.864 97.6986 191.157 97.7825 191.366 97.9712C191.575 98.1703 191.659 98.4743 191.575 98.7573C191.24 99.9732 194.4 106.021 199.35 108.568C210.692 114.386 217.892 107.111 219.827 104.742C219.974 104.564 220.183 104.459 220.403 104.449C220.623 104.438 220.853 104.522 221.01 104.69C226.566 110.329 231.285 115.927 235.418 121.807C235.669 122.163 235.586 122.656 235.23 122.918C230.427 126.377 227.947 132.844 229.192 138.641C230.438 144.385 235.335 149.301 241.383 150.873C241.592 150.926 241.77 151.062 241.874 151.251C241.979 151.439 242.01 151.659 241.948 151.869C240.022 158.378 237.26 164.73 233.964 170.244C233.755 170.59 233.326 170.726 232.959 170.569C228.617 168.692 224.4 167.11 220.507 168.451C217.672 169.426 215.307 171.973 213.999 175.453C213.005 178.095 212.691 180.967 212.356 183.996C212.283 184.635 212.21 185.285 212.136 185.946C212.095 186.281 211.843 186.564 211.509 186.627C204.739 188.021 198.366 188.776 192.025 188.943C192.025 188.943 192.015 188.943 192.004 188.943L192.015 188.975ZM180.724 173.933C180.986 173.933 181.258 173.944 181.52 173.975C183.602 174.174 185.705 175.233 187.62 177.015C190.497 179.709 192.339 183.44 192.747 187.35C198.575 187.151 204.435 186.449 210.64 185.201C210.692 184.74 210.745 184.29 210.797 183.839C211.142 180.694 211.477 177.728 212.534 174.908C214.009 170.988 216.73 168.095 220.016 166.963C224.222 165.516 228.701 167.036 232.97 168.85C235.91 163.808 238.4 158.085 240.211 152.204C233.964 150.276 228.973 145.056 227.665 138.997C226.336 132.855 228.805 126.042 233.692 122.121C229.862 116.755 225.53 111.619 220.497 106.451C218.028 109.134 210.201 115.948 198.649 110.015C194.181 107.719 190.613 102.552 190.068 99.6378C188.572 100.089 187.076 100.518 185.6 100.948C180.253 102.51 175.189 103.988 171.966 105.413C173.159 108.547 175.199 116.377 169.371 123.327C165.625 127.803 157.16 127.991 152.954 126.838C150.714 132.624 149.051 138.505 148.025 144.343C150.903 144.867 153.634 145.737 156.155 146.953C159.462 148.557 161.44 150.485 162.193 152.844C162.622 154.196 162.664 155.726 162.308 157.645C161.523 161.974 159.221 166.072 155.946 169.017C158.981 172.843 162.8 176.533 167.582 180.264C169.591 177.644 172.437 176.281 175.241 175.202C176.895 174.562 178.789 173.912 180.735 173.912L180.724 173.933Z" fill="#054375"/>
<path d="M196.054 158.127C191.46 158.127 186.856 155.957 184.083 152.194C182.922 150.611 182.147 148.882 181.865 147.173C181.593 145.559 181.708 143.777 182.221 141.733C183.34 137.184 185.956 133.285 189.378 131.021C193.302 128.432 198.314 128.033 202.144 130.014C206.852 132.446 210.044 137.624 210.274 143.201C210.536 149.322 206.34 155.422 200.511 157.404C199.067 157.896 197.55 158.127 196.043 158.127H196.054ZM196.807 130.35C194.568 130.35 192.255 131.031 190.257 132.352C187.16 134.396 184.795 137.96 183.769 142.121C183.319 143.955 183.215 145.528 183.445 146.922C183.686 148.379 184.355 149.878 185.37 151.251C188.604 155.632 194.892 157.634 200.019 155.894C205.199 154.133 208.924 148.714 208.694 143.274C208.485 138.264 205.628 133.61 201.422 131.44C200.019 130.717 198.439 130.36 196.818 130.36L196.807 130.35Z" fill="#054375"/>
<path d="M196.085 165.936C195.279 165.936 194.484 165.883 193.689 165.789C186.605 164.919 180.107 160.087 177.125 153.473C174.184 146.943 174.718 139.018 178.506 132.803C182.315 126.555 187.756 123.012 194.672 122.268C199.193 121.786 204.623 123.117 208.506 125.685C216.782 131.136 217.599 142.372 217.358 144.867C216.667 151.911 214.386 157.037 210.389 160.538C206.423 164.007 201.223 165.946 196.096 165.946L196.085 165.936ZM196.577 123.757C195.98 123.757 195.405 123.788 194.829 123.851C188.342 124.553 183.445 127.75 179.856 133.631C176.33 139.406 175.838 146.754 178.569 152.812C181.321 158.934 187.337 163.399 193.877 164.206C199.297 164.867 205.073 163.043 209.332 159.322C213.015 156.104 215.119 151.314 215.767 144.699C216.071 141.607 214.7 131.66 207.627 127.006C204.519 124.962 200.344 123.757 196.577 123.757Z" fill="#054375"/>
<path d="M235.732 89.8267C235.732 89.8267 235.68 89.8267 235.648 89.8267C235.209 89.7848 234.895 89.3865 234.937 88.9463C235.669 81.9024 234.487 74.7748 231.515 68.3494C231.327 67.9511 231.505 67.4794 231.902 67.2907C232.3 67.102 232.771 67.2802 232.959 67.6785C236.046 74.366 237.281 81.7767 236.517 89.114C236.475 89.5228 236.13 89.8267 235.722 89.8267H235.732Z" fill="#7CDDFD"/>
<path d="M124.722 193C124.722 193 124.618 193 124.565 192.99C116.487 191.396 108.88 187.256 103.146 181.344C102.843 181.03 102.843 180.527 103.167 180.212C103.481 179.908 103.983 179.908 104.297 180.233C109.811 185.914 117.126 189.897 124.89 191.428C125.319 191.512 125.601 191.931 125.518 192.361C125.444 192.738 125.109 193 124.733 193H124.722Z" fill="#7CDDFD"/>
<ellipse cx="175.723" cy="66.0001" rx="9.48603" ry="7.81202" transform="rotate(-14.992 175.723 66.0001)" fill="#F7E06E"/>
<path d="M183.603 63.348C184.055 65.0377 183.585 66.8532 182.364 68.4401C181.143 70.0276 179.191 71.3506 176.787 71.9944C174.383 72.6383 172.031 72.4677 170.18 71.703C168.329 70.9386 167.014 69.6013 166.562 67.9117C166.109 66.222 166.58 64.4065 167.801 62.8197C169.022 61.2321 170.974 59.9091 173.378 59.2653C175.782 58.6215 178.134 58.792 179.985 59.5567C181.835 60.3211 183.15 61.6584 183.603 63.348Z" fill="#F9EC76" stroke="#054375" stroke-width="1.4"/>
<path fill-rule="evenodd" clip-rule="evenodd" d="M175.311 68.933L175.51 69.6757C175.541 69.7929 175.691 69.8547 175.844 69.8137L176.121 69.7395C176.274 69.6985 176.373 69.5702 176.342 69.453L176.142 68.707C176.574 68.5806 177.115 68.3934 177.564 68.104C177.878 67.9013 178.163 67.6394 178.334 67.3041C178.505 66.9675 178.545 66.5875 178.432 66.164C178.318 65.7405 178.093 65.4316 177.777 65.2256C177.462 65.0203 177.084 64.9358 176.711 64.9173C176.177 64.8909 175.615 64.999 175.177 65.1058L174.551 62.7681L176.63 62.2113C176.784 62.1703 176.882 62.0421 176.851 61.9248L176.794 61.7126C176.763 61.5954 176.613 61.5336 176.46 61.5746L174.381 62.1314L174.182 61.3886C174.151 61.2714 174.001 61.2096 173.848 61.2506L173.571 61.3249C173.418 61.3659 173.319 61.4941 173.35 61.6113L173.551 62.3598C173.099 62.4948 172.584 62.6787 172.155 62.9431C171.831 63.1431 171.537 63.4005 171.359 63.7306C171.18 64.0629 171.136 64.4362 171.247 64.8491C171.357 65.2624 171.582 65.5662 171.896 65.7729C172.207 65.9782 172.582 66.0717 172.954 66.1013C173.496 66.1443 174.064 66.0544 174.513 65.9539L175.141 68.2963L173.061 68.8531C172.908 68.8941 172.81 69.0223 172.841 69.1395L172.898 69.3517C172.929 69.469 173.079 69.5307 173.232 69.4897L175.311 68.933ZM175.971 68.0696C176.353 67.957 176.761 67.8119 177.085 67.6032C177.298 67.4656 177.459 67.3097 177.552 67.1267C177.644 66.945 177.686 66.706 177.6 66.3867C177.515 66.0675 177.359 65.8812 177.188 65.7699C177.016 65.6579 176.8 65.6031 176.546 65.5905C176.161 65.5715 175.735 65.6499 175.348 65.7431L175.971 68.0696ZM174.342 65.316L173.722 62.9974C173.327 63.1164 172.932 63.2605 172.617 63.4547C172.391 63.5941 172.227 63.7476 172.133 63.9228C172.04 64.0957 171.997 64.3222 172.078 64.6264C172.16 64.9303 172.313 65.1153 172.488 65.2307C172.665 65.3475 172.889 65.4094 173.149 65.43C173.534 65.4606 173.963 65.3986 174.342 65.316Z" fill="#054375"/>
<circle cx="198.781" cy="143.891" r="22.5352" transform="rotate(-14.992 198.781 143.891)" fill="#F7E06E"/>
<circle cx="194.699" cy="143.699" r="21.6179" transform="rotate(-14.992 194.699 143.699)" fill="#F9EC76" stroke="#054375" stroke-width="2"/>
<path fill-rule="evenodd" clip-rule="evenodd" d="M195.857 153.83L196.474 156.135C196.571 156.499 196.945 156.715 197.309 156.617L197.967 156.441C198.331 156.344 198.547 155.97 198.449 155.606L197.829 153.291C198.855 152.984 200.132 152.51 201.168 151.708C201.893 151.146 202.536 150.398 202.888 149.404C203.242 148.408 203.27 147.254 202.919 145.94C202.567 144.626 201.965 143.642 201.161 142.955C200.359 142.27 199.428 141.944 198.52 141.819C197.222 141.642 195.879 141.87 194.837 142.116L192.894 134.862L197.833 133.539C198.197 133.442 198.413 133.068 198.315 132.705L198.139 132.046C198.042 131.682 197.668 131.466 197.304 131.564L192.365 132.886L191.748 130.582C191.65 130.218 191.277 130.002 190.913 130.099L190.254 130.276C189.891 130.373 189.675 130.747 189.772 131.111L190.394 133.433C189.324 133.763 188.107 134.231 187.117 134.961C186.367 135.513 185.701 136.246 185.33 137.222C184.956 138.204 184.917 139.336 185.261 140.618C185.604 141.9 186.205 142.869 187.003 143.557C187.795 144.241 188.719 144.595 189.628 144.753C190.948 144.983 192.311 144.812 193.381 144.586L195.327 151.855L190.388 153.177C190.025 153.275 189.809 153.649 189.906 154.012L190.083 154.671C190.18 155.035 190.554 155.25 190.917 155.153L195.857 153.83ZM197.3 151.313C198.205 151.039 199.168 150.67 199.915 150.091C200.408 149.709 200.768 149.263 200.96 148.721C201.151 148.182 201.208 147.46 200.943 146.469C200.678 145.478 200.267 144.881 199.833 144.51C199.395 144.137 198.86 143.93 198.242 143.846C197.307 143.718 196.288 143.88 195.366 144.094L197.3 151.313ZM192.851 142.607L190.924 135.412C189.989 135.703 189.057 136.072 188.33 136.608C187.808 136.992 187.438 137.432 187.241 137.949C187.047 138.461 186.983 139.145 187.236 140.089C187.489 141.032 187.894 141.625 188.339 142.009C188.79 142.398 189.345 142.628 189.979 142.738C190.917 142.901 191.945 142.79 192.851 142.607Z" fill="#054375"/>
</g>
<defs>
<clipPath id="clip0_4470_1787">
<rect width="169" height="149" fill="white" transform="translate(73 44)"/>
</clipPath>
</defs>
</svg>
