<svg width="320" height="244" viewBox="0 0 320 244" fill="none" xmlns="http://www.w3.org/2000/svg">
<path opacity="0.3" d="M254.679 127.137C256.232 125.566 256.232 123.02 254.679 121.449L145.393 10.9292C143.685 9.20188 140.861 9.40033 139.406 11.3499L99.1416 65.2889C97.9461 66.8903 98.1006 69.1378 99.5036 70.5566L149.71 121.329C151.263 122.9 151.263 125.447 149.71 127.018L93.1061 184.26C91.3988 185.987 91.5941 188.841 93.5202 190.314L146.962 231.164C148.546 232.375 150.77 232.219 152.173 230.8L254.679 127.137Z" fill="#1090F9"/>
<path opacity="0.3" d="M253.888 130.632C255.053 131.81 255.053 133.72 253.888 134.898L151.383 238.561C150.33 239.625 148.662 239.742 147.474 238.834L94.0323 197.984C92.5877 196.879 92.4412 194.739 93.7217 193.444L150.326 136.201C152.267 134.238 152.267 131.054 150.326 129.091L100.119 78.3177C99.0669 77.2536 98.9511 75.568 99.8477 74.3669L140.112 20.428C141.203 18.9658 143.321 18.8169 144.602 20.1124L253.888 130.632Z" stroke="#05BDFB" stroke-width="2"/>
<path opacity="0.3" d="M196.259 24.6185C197.364 24.6185 198.259 25.514 198.259 26.6185L198.259 29.3717C198.259 30.2622 197.472 30.9472 196.59 30.8243C195.865 30.7233 195.326 30.1035 195.326 29.3717L195.326 29.1828C195.326 28.282 194.596 27.5517 193.695 27.5517L193.506 27.5517C192.615 27.5517 191.93 26.7647 192.053 25.8827C192.154 25.1579 192.774 24.6185 193.506 24.6185L196.259 24.6185Z" fill="#1090F9"/>
<path opacity="0.3" d="M246.27 69.3224C246.823 70.279 246.495 71.5022 245.538 72.0545L241.454 74.4123C240.403 75.0194 239.057 74.557 238.601 73.4316L238.561 73.3319C238.186 72.4071 238.55 71.3475 239.414 70.8485L239.929 70.5514C240.885 69.9991 241.213 68.7759 240.661 67.8193L240.356 67.2918C239.749 66.2402 240.212 64.8945 241.337 64.4383L241.437 64.3979C242.361 64.023 243.421 64.3872 243.92 65.2514L246.27 69.3224Z" fill="#1090F9"/>
<path opacity="0.3" d="M148.408 209.678C148.96 210.634 148.633 211.857 147.676 212.41L143.592 214.767C142.541 215.375 141.195 214.912 140.739 213.787L140.698 213.687C140.323 212.762 140.688 211.703 141.552 211.204L142.066 210.906C143.023 210.354 143.351 209.131 142.798 208.174L142.494 207.647C141.887 206.595 142.349 205.25 143.475 204.793L143.574 204.753C144.499 204.378 145.559 204.742 146.058 205.607L148.408 209.678Z" fill="#1090F9"/>
<path opacity="0.3" d="M244.742 166.593C243.96 165.812 243.96 164.545 244.742 163.764L252.143 156.363C253.024 155.482 254.487 155.612 255.199 156.635L255.929 157.685C256.482 158.48 256.387 159.557 255.702 160.241L253.247 162.696C252.465 163.478 252.465 164.744 253.247 165.525L254.7 166.979C255.542 167.82 255.467 169.205 254.54 169.951L252.37 171.697C251.574 172.337 250.424 172.275 249.702 171.553L244.742 166.593Z" fill="#1090F9"/>
<rect x="131" y="36" width="76" height="142" rx="12" fill="#F0FBFF" stroke="#054375" stroke-width="2"/>
<path d="M153.544 77.0386L149.96 74.8108L150.024 78.9436H147.796L147.861 74.7785L144.212 77.0386L143.018 75.1982L146.892 72.9057L143.082 70.6456L144.309 68.8374L147.861 71.0653L147.796 67.0293H150.024L149.96 71.033L153.479 68.8374L154.738 70.6456L150.928 72.9057L154.803 75.1982L153.544 77.0386Z" fill="#054375"/>
<path d="M173.4 77.0645L169.816 74.8366L169.881 78.9695H167.653L167.717 74.8043L164.069 77.0645L162.874 75.2241L166.749 72.9316L162.939 70.6715L164.166 68.8633L167.717 71.0912L167.653 67.0552H169.881L169.816 71.0589L173.336 68.8633L174.595 70.6715L170.785 72.9316L174.659 75.2241L173.4 77.0645Z" fill="#054375"/>
<path d="M193.258 77.0645L189.675 74.8366L189.739 78.9695H187.511L187.576 74.8043L183.927 77.0645L182.733 75.2241L186.607 72.9316L182.797 70.6715L184.024 68.8633L187.576 71.0912L187.511 67.0552H189.739L189.675 71.0589L193.194 68.8633L194.453 70.6715L190.643 72.9316L194.518 75.2241L193.258 77.0645Z" fill="#054375"/>
<path d="M165.364 107.761C168.834 106.995 172.465 107.345 175.716 108.761C176.64 109.163 177.724 108.757 178.136 107.853C178.548 106.949 178.133 105.89 177.208 105.488C173.236 103.758 168.798 103.329 164.556 104.266C160.314 105.203 156.495 107.454 153.67 110.685C150.844 113.915 149.163 117.952 148.877 122.193C148.591 126.434 149.715 130.651 152.082 134.217C154.449 137.782 157.932 140.504 162.011 141.977C166.091 143.45 170.548 143.594 174.718 142.389C178.888 141.184 182.548 138.694 185.152 135.29C187.756 131.886 189.164 127.751 189.167 123.501V121.852C189.167 120.862 188.346 120.06 187.333 120.06C186.321 120.06 185.5 120.862 185.5 121.852V123.499C185.498 126.976 184.346 130.36 182.215 133.145C180.085 135.93 177.09 137.967 173.678 138.953C170.266 139.939 166.62 139.82 163.282 138.615C159.944 137.41 157.095 135.183 155.158 132.266C153.222 129.349 152.302 125.898 152.536 122.429C152.77 118.959 154.145 115.656 156.457 113.013C158.769 110.37 161.893 108.527 165.364 107.761Z" fill="#26A94D"/>
<path d="M188.63 110.433C189.346 109.733 189.345 108.598 188.629 107.899C187.913 107.2 186.752 107.2 186.036 107.9L168.999 124.567L164.796 120.459C164.08 119.76 162.92 119.76 162.204 120.459C161.488 121.159 161.488 122.293 162.204 122.993L167.704 128.368C168.048 128.704 168.514 128.893 169.001 128.893C169.487 128.893 169.953 128.704 170.297 128.368L188.63 110.433Z" fill="#26A94D"/>
<path d="M181.128 172.782C181.032 172.782 180.923 172.741 180.841 172.659C180.691 172.509 180.691 172.249 180.841 172.099L202.842 150.113C202.993 149.962 203.252 149.962 203.402 150.113C203.552 150.263 203.552 150.522 203.402 150.672L181.401 172.659C181.319 172.741 181.223 172.782 181.128 172.782Z" fill="#054375"/>
<path d="M178.399 164.176C178.304 164.176 178.194 164.135 178.113 164.053C177.962 163.903 177.962 163.643 178.113 163.493L191.206 150.113C191.356 149.962 191.616 149.962 191.766 150.113C191.916 150.263 191.916 150.522 191.766 150.672L178.672 164.053C178.59 164.135 178.495 164.176 178.399 164.176Z" fill="#054375"/>
</svg>
