<svg xmlns="http://www.w3.org/2000/svg" viewBox="0 0 195.42 275.96">
    <path d="m61.5 55.63 109.29 110.52a3.036 3.036 0 0 1 0 4.27L68.28 274.08a2.952 2.952 0 0 1-3.91.27L10.93 233.5c-1.44-1.1-1.59-3.24-.31-4.54l56.6-57.24c1.94-1.96 1.94-5.15 0-7.11l-50.21-50.78a3.04 3.04 0 0 1-.27-3.95L57 55.94a2.967 2.967 0 0 1 4.49-.32Z" style="fill:none;isolation:isolate;opacity:.3;stroke:#6abbf8;stroke-width:2px"/>
    <path d="M145.16 59.13c1.1 0 2 .9 2 2v2.75c0 .89-.79 1.58-1.67 1.45-.72-.1-1.26-.72-1.26-1.45v-.19c0-.9-.73-1.63-1.63-1.63h-.19c-.89 0-1.58-.79-1.45-1.67.1-.72.72-1.26 1.45-1.26h2.75ZM163.17 104.84c.55.96.22 2.18-.73 2.73l-4.08 2.36c-1.05.61-2.4.14-2.85-.98l-.04-.1c-.38-.92-.01-1.98.85-2.48l.51-.3c.96-.55 1.28-1.78.73-2.73l-.3-.53c-.61-1.05-.14-2.4.98-2.85l.1-.04c.92-.37 1.98-.01 2.48.85l2.35 4.07ZM65.3 245.2c.55.96.22 2.18-.73 2.73l-4.08 2.36c-1.05.61-2.4.15-2.85-.98l-.04-.1c-.37-.93 0-1.99.85-2.48l.51-.3c.96-.55 1.28-1.77.73-2.73l-.31-.53c-.61-1.05-.14-2.4.98-2.85l.1-.04c.93-.38 1.99 0 2.48.85l2.35 4.07ZM161.64 202.11c-.78-.78-.78-2.05 0-2.83l7.4-7.4c.88-.88 2.35-.75 3.06.27l.73 1.05c.55.79.46 1.87-.23 2.56l-2.46 2.46c-.78.78-.78 2.05 0 2.83l1.45 1.45c.84.84.77 2.23-.16 2.97l-2.17 1.75c-.8.64-1.95.58-2.67-.14l-4.96-4.96Z" style="fill:#528ef4;isolation:isolate;opacity:.3"/>
    <path style="fill:none" d="m129.71 77.64-.18 1.85.15 1.45.03-3.3zM160.53 145.78l11.52-14.73s.02-.03.03-.05l-.12-1.32-19.11-10.33-.04.09c-.38 3.33-1.15 10.08-1.89 16.63l9.61 9.71Z"/>
    <path d="M82.28 199.52c-1.05-.61-1.91-1.11-2.55-1.49-.59-.35-.91-.56-.9-.57 0-.03.35.14.97.46.67.35 1.54.82 2.61 1.38.8.44 1.71.93 2.7 1.47l-7.85-5.22 5.52-43.53s-.57-19.81-.29-34.26l-.31 1.42s-31.44-3.3-35.12-4.22c-8.97-2.23-10.18-4.05-11.42-8.6-1.24-4.55 2.37-11.35 8.7-15.63 6.33-4.28 19.04-13.42 19.04-13.42l.54.71 1.22-.84c-.17-.41-.07-.89.3-1.16 1.23-.9 3.22-2.26 3.68-2.25.04.02.15.15.29.34.67-.46 1.32-.89 1.73-1.13v-.06s.02.03.04.04c.12-.07.2-.11.27-.14.47-.52 1.87-2.03 2.97-2.78 1.18-.81 6.13-2.69 8-3.23L62.28 46.44a3.95 3.95 0 0 0-5.99.42L16.03 100.8c-1.2 1.6-1.04 3.85.36 5.27l50.21 50.77a4.063 4.063 0 0 1 0 5.69L10 219.77c-1.71 1.73-1.51 4.58.41 6.05l53.44 40.85a3.944 3.944 0 0 0 5.21-.37l23.77-24.04c-2.27-18.85-4.12-34.37-4.67-39.41-2.29-1.29-4.3-2.43-5.89-3.34ZM120.34 214.46l.32-.32-.34-.07.02.39z" style="fill:#1090f9;isolation:isolate;opacity:.3"/>
    <path d="M91.19 79.72c-.47.18-1.12.35-1.74.49-.02.05-.4.23-1.1.29-.14.01-.28.02-.44.01-.22.04-.36.06-.36.06s.79.33.95 1.42c1.61 1.72-2.32 2.91-3 3.5-.37.32-1 .5-2 .5 0 0-.56.46-2 0-.66-.22-1.3-.51-1.81-.77.02.03.03.04.03.04l-2.1 1.43c.03.36-.12.72-.45.93l-2.56 1.63c-.27.17-.59.18-.87.08l-.82.56.56.74-11.17 8.96 17.13-7.09s3.51-3.08 5.15-4.78c.95-.99 2.12-1.41 2.97-1.6.04-.08.07-.13.1-.15.26-.17 8.45-.81 12.62-1.12l-6.96-7.04c-.28 1.23-.91 1.42-2.13 1.89ZM165.51 161.38c-1.08 1.04-2.33 2.16-3.27 2.7-1.25.72-5.53 2.44-8.83 3.61l2.96 10.33 15.21-15.38c1.28-1.29 1.48-3.25.66-4.78a4439.5 4439.5 0 0 1-5.25 5.31l-1.48-1.79ZM149.06 152.5l.15.53c3.54-.15 7.74-.12 7.74-.12l.87-.87-1.12-1.37 3.83-4.9-9.61-9.71-1.86 16.44Z" style="fill:#1090f9;isolation:isolate;opacity:.3"/>
    <path d="m116.93 23.36 1.09.46a5.9 5.9 0 0 0-1.01-.44c-.02 0-.05-.01-.08-.02Z" style="fill:#054375"/>
    <path d="M106.34 76.34h-.06l-.03.87.1-.86h-.02Z" style="fill:#d7dee5"/>
    <path d="M119.24 73.23c-6.4 3.59-12.3 3.17-12.9 3.12h.02l-.1.86-.04 1.53c9.68 1.37 13.03-5.51 13.03-5.51Z" style="fill:#d7dee5"/>
    <path d="M102.28 52.67c.41.04.78-.09 1.05-.33l-1.99-.16c.23.26.56.44.93.49ZM103.78 51.49c.07-.73-.51-1.39-1.27-1.48-.77-.08-1.44.45-1.5 1.18-.04.37.1.72.34.99l1.99.16c.25-.21.41-.51.45-.85ZM116.8 50.69c-.77-.08-1.44.45-1.5 1.18-.07.73.51 1.39 1.27 1.48.77.08 1.43-.45 1.5-1.18.06-.73-.51-1.39-1.27-1.48ZM107.89 52.95c-.43 1.01-.84 1.97-1.23 2.88-.17.43-.44.91-.27 1.49.09.29.36.52.6.59.24.08.46.1.64.13 1.51.16 2.44.21 2.46.12-.06-.09-.96-.29-2.4-.55-.38-.06-.74-.15-.79-.42-.07-.28.1-.68.31-1.13.41-.91.83-1.86 1.27-2.86l.18-.42-.67-.05c-.03.08-.07.15-.1.23ZM110.11 58.16h-.02l.01.01.01-.01zM111.4 45.7c-.17-.07-1.68 3.06-3.41 7.02l.67.05c1.68-3.89 2.89-7.02 2.74-7.08ZM118.37 45.39c1.58 0 2.9.36 3.06-.03.07-.18-.19-.54-.75-.88-.55-.33-1.4-.61-2.35-.62-.95 0-1.79.27-2.32.59-.54.33-.79.68-.72.87h.02c.17.39 1.48.04 3.06.07ZM101.61 44.4c.3.36 1.56.07 3.04.12 1.49.02 2.73.37 3.04.02.13-.17-.04-.52-.58-.87-.52-.35-1.42-.66-2.44-.68-1.02-.02-1.92.24-2.45.57-.54.33-.73.67-.6.84Z" style="fill:#054375"/>
    <path d="M131.22 56.13c-.34.29-.7.45-1.05.35-.71-.19-1.23-1.07-1.63-2.09-.43-1.13-.7-2.45-.87-3.25-.63-2.93.16-5.43-.11-8.42-.17-1.89-2.87-6.75-1.04-8.88-5.29 2.89-6.44-2.65-6.44-2.65-1.34 2.84-5.16 4.19-7.98 2.81-.79 3.16-3.69 5.67-6.92 5.99-1.78.18-3.57-.34-5.07-1.32-.26.89-.47 1.8-.59 2.74-.4 3.09-.81 6.3-1.17 9.37-.66 5.61-1.19 10.74-1.3 13.79-.36 9.57 8.91 11.68 9.29 11.77.6.05 6.5.48 12.9-3.12 0 0-3.35 6.88-13.03 5.51l.04-1.53-.52 4.27c.72.87 6.68 5.36 6.83 5.48h.02v.02-.03l.02.02 16.66-10.01.26 2.55.18-1.85v-.03l1.6-16.21c-.34-.08-.55-.17-.55-.2 0-.1.23-2.63.45-5.06Zm-27.89-3.79c-.27.24-.65.37-1.05.33-.37-.04-.7-.23-.93-.49-.24-.27-.37-.62-.34-.99.06-.73.73-1.26 1.5-1.18.76.09 1.34.75 1.27 1.48-.03.34-.2.64-.45.85Zm-1.72-7.94c-.13-.17.06-.51.6-.84.53-.33 1.43-.59 2.45-.57 1.02.02 1.92.33 2.44.68.54.35.71.7.58.87-.31.35-1.55 0-3.04-.02-1.48-.05-2.74.24-3.04-.12Zm8.49 13.76h-.01c-.02.09-.95.04-2.46-.12-.18-.03-.4-.05-.64-.13a.948.948 0 0 1-.6-.59c-.17-.58.1-1.06.27-1.49.39-.91.8-1.87 1.23-2.88.03-.08.07-.15.1-.23 1.73-3.96 3.24-7.09 3.41-7.02.15.06-1.05 3.19-2.74 7.08l-.18.42c-.44 1-.86 1.95-1.27 2.86-.21.45-.38.85-.31 1.13.05.27.41.36.79.42 1.44.26 2.34.47 2.4.55h.02-.01Zm5.61 2.8c-.09.23-1.18 0-2.4.44-1.23.4-1.96 1.25-2.16 1.13-.09-.06-.03-.38.27-.8.3-.42.87-.88 1.61-1.14.75-.26 1.49-.23 1.98-.09.48.14.72.36.7.46Zm.86-7.62c-.76-.09-1.34-.75-1.27-1.48.06-.73.73-1.26 1.5-1.18.76.09 1.33.75 1.27 1.48-.07.73-.73 1.26-1.5 1.18Zm1.8-7.96c-1.58-.03-2.89.32-3.06-.07h-.02c-.07-.19.18-.54.72-.87.53-.32 1.37-.59 2.32-.59.95.01 1.8.29 2.35.62.56.34.82.7.75.88-.16.39-1.48.03-3.06.03ZM134.5 51.51s-.06-.01-.09-.02c-.22-.03-.43-.03-.63 0-.11.64-.29 1.26-.62 1.82-.21.36-.49.87-.81 1.39-.14.22-.28.44-.43.65l-.6 6.05c1.58.4 6.12.74 6.56-4.75.3-3.69-1.6-4.84-3.38-5.13Zm1.1 5.17c-.15 1.34-.94 2.54-1.92 2.74-.47.08-.86-.09-1.05-.27-.18-.17-.21-.31-.19-.33h.01c.01 0 .11.09.29.19s.51.19.87.09c.72-.2 1.41-1.27 1.54-2.47.07-.61-.02-1.19-.19-1.69-.17-.51-.45-.87-.8-.96-.35-.11-.62.08-.71.26-.11.18-.07.32-.11.33-.02.02-.13-.12-.06-.39a.77.77 0 0 1 .3-.4c.16-.11.39-.16.63-.12h.03c.51.08.93.59 1.12 1.13.22.55.32 1.21.25 1.89Z" style="fill:#f0fbff"/>
    <path d="M131.22 56.13c-.22 2.43-.45 4.97-.45 5.06 0 .03.21.12.55.2l.6-6.05c-.22.3-.45.58-.69.78Z" style="fill:#f0fbff"/>
    <path style="fill:#d7dee5" d="M132.43 58.82h.01-.01zM134.95 54.95c.17.5.26 1.08.19 1.69-.13 1.2-.82 2.27-1.54 2.47-.36.1-.69.01-.87-.09-.18-.1-.28-.19-.29-.19-.02.02.01.16.19.33.19.18.58.35 1.05.27.98-.2 1.77-1.4 1.92-2.74a4.03 4.03 0 0 0-.25-1.89c-.19-.54-.61-1.05-1.12-1.13h-.03c-.02.11-.03.22-.05.32.35.09.63.45.8.96Z"/>
    <path d="M133.57 53.79a.77.77 0 0 0-.3.4c-.07.27.04.41.06.39.04-.01 0-.15.11-.33.09-.18.36-.37.71-.26.02-.1.03-.21.05-.32-.24-.04-.46 0-.63.12Z" style="fill:#d7dee5"/>
    <path d="M135.01 45.74v-.75c0 .25-.01.5-.02.76h.02ZM98.38 36.93A6 6 0 0 1 97.5 35l-.26.46c.08.18.17.34.26.5.62 1.11 1.54 2.03 2.6 2.72 0-.02.01-.04.02-.06a6.01 6.01 0 0 1-1.74-1.69Z" style="fill:#054375"/>
    <path d="M137.3 30.97c-1.65-1.72-3.08-1.72-2.84-1.94.77-2.05-.91-4.38-2.98-5.06-2.08-.68-4.34-.16-6.42.51-.79-3.58-3.88-6.54-7.48-7.17s-7.51 1.09-9.47 4.19c-3.02-2.02-7.31-1.89-10.22.29-2.9 2.18-4.22 6.28-3.13 9.75-2.39 1.24-3.77 4.17-3.2 6.8.56 2.63 3.01 4.74 5.69 4.9-.05 2.56.34 5.11 1.1 7.55.36-3.07.77-6.28 1.17-9.37.12-.94.33-1.85.59-2.74-1.06-.7-1.98-1.62-2.6-2.72-.09-.16-.18-.32-.26-.5l.26-.46c-.06-.25-.11-.51-.14-.77-.11-1.04.07-2.18.54-3.27.92-2.15 3.08-4.05 5.75-4.58 1.71-.36 3.42-.23 4.96.19.47.12.91.28 1.34.45.16-.61.41-1.16.73-1.65.62-.94 1.49-1.65 2.39-2.06 1.45-.67 2.94-.53 3.99-.16.79.28 1.39.68 1.81 1.05.15.13.29.26.4.38.21.23.35.42.43.55.08.13.12.21.12.22-.03.02-.21-.26-.64-.67-.27-.26-.67-.57-1.18-.84l-1.09-.46c-.34-.1-.71-.18-1.11-.21-.8-.07-1.7.04-2.58.46-.65.31-1.29.8-1.81 1.42-.47.56-.84 1.24-1.04 2-.03.09-.06.18-.08.28l-.05.24-.22-.09c-.11-.04-.22-.08-.32-.12-.51-.19-1.04-.35-1.59-.48-1.37-.31-2.86-.38-4.34-.07-2.55.5-4.58 2.28-5.48 4.31-.45 1.02-.63 2.08-.55 3.07 0 .11.03.2.05.31.13.85.44 1.63.86 2.25.46.71 1 1.23 1.54 1.62.56.4 1.11.64 1.57.77.92.26 1.46.19 1.46.24h-.02s-.13.04-.39.05c-.26 0-.64 0-1.12-.12a5.46 5.46 0 0 1-1.58-.69c0 .02-.01.04-.02.06 1.49.98 3.29 1.49 5.07 1.32 3.23-.32 6.13-2.83 6.92-5.99 2.82 1.38 6.64.03 7.98-2.81 0 0 1.15 5.54 6.44 2.65-1.83 2.13.87 6.99 1.04 8.88.27 2.99-.52 5.49.11 8.42.17.8.44 2.11.87 3.25.39 1.03.92 1.9 1.63 2.09.36.1.71-.06 1.05-.35.24-.21.47-.48.69-.78.15-.21.3-.43.43-.65.32-.51.59-1.03.81-1.39.33-.56.51-1.18.62-1.82.21-.02.42-.03.63 0 .03 0 .06.01.09.02.24-1.79.48-3.85.48-4.93v-.84c0-.26 0-.51.02-.76.05-1.99.18-3.59.18-3.59.42.03 2.8-1.58 3.62-3.81.82-2.24.13-4.9-1.51-6.62ZM115.01 60.5c-.49-.14-1.23-.17-1.98.09-.74.26-1.31.72-1.61 1.14-.3.42-.36.74-.27.8.2.12.93-.73 2.16-1.13 1.22-.44 2.31-.21 2.4-.44.03-.1-.22-.32-.7-.46Z" style="fill:#054375"/>
    <path style="fill:#054375" d="M115.71 60.97v-.01h-.01l.01.01z"/>
    <path d="M113.23 23.62c.88-.42 1.78-.53 2.58-.46l.3-.13.81.34s.05.01.08.02c.39.12.72.27 1.01.44l.87.36c-.43-.37-1.02-.77-1.81-1.05-1.05-.37-2.54-.51-3.99.16-.9.4-1.77 1.11-2.39 2.06l.73-.31c.52-.62 1.16-1.11 1.81-1.42ZM97.74 34.19c-.08-.99.1-2.05.55-3.07.9-2.03 2.93-3.81 5.48-4.31 1.48-.31 2.97-.23 4.34.07l.5-.32c-1.54-.41-3.25-.55-4.96-.19-2.67.53-4.83 2.43-5.75 4.58-.47 1.09-.65 2.23-.54 3.27.03.27.08.52.14.77l.29-.51c-.02-.1-.04-.2-.05-.31Z"/>
    <path d="M119.19 24.67c.43.41.61.69.64.67 0-.01-.04-.09-.12-.22-.08-.13-.22-.32-.43-.55a4.99 4.99 0 0 0-.4-.38l-.87-.36c.51.28.91.59 1.18.84ZM100.13 38.61c.02-.08.04-.17.07-.25-.54-.38-1.09-.91-1.54-1.62-.42-.62-.73-1.4-.86-2.25l-.29.51c.18.73.5 1.38.88 1.93.52.76 1.14 1.3 1.74 1.69ZM115.82 23.15c.4.03.77.11 1.11.21l-.81-.34-.3.13ZM109.71 27.35c.22-.11.44-.21.67-.31.2-.76.57-1.44 1.04-2l-.73.31c-.32.49-.57 1.05-.73 1.65.07.03.14.05.2.08l-.27.15c.02-.08.04-.15.07-.23-.43-.17-.88-.32-1.34-.45l-.5.32c.55.12 1.09.28 1.59.48Z"/>
    <path d="M110.16 27.09c-.07-.03-.14-.05-.2-.08-.02.08-.05.15-.07.23l.27-.15ZM110.03 27.48l.22.09.05-.24c.02-.1.05-.19.08-.28-.23.1-.45.2-.67.31.11.04.22.08.32.12ZM101.7 39.31c.48.12.86.12 1.12.12.26-.01.39-.04.39-.04l.02-.01c0-.05-.54.02-1.46-.24-.46-.13-1.01-.38-1.57-.77-.03.08-.05.17-.07.25.57.36 1.12.58 1.58.69Z"/>
    <path d="M89.86 203.37c.4.22.8.44 1.21.66.05-.35.1-.72.14-1.08-.41.26-.87.41-1.36.42Z" style="fill:#054375"/>
    <path d="M123.76 201.31h-.01v.01l.01-.01z"/>
    <path d="M132.55 202.11c-.91-5.89-1.91-14.06-2.69-20.93-5 1.26-11.45 2.51-17.45 2.58h-.03c-1.88.02-3.72-.08-5.45-.33-4.9-.72-8.09-1.83-10.1-2.82-.65 6.26-1.24 11.57-1.63 14.47-1.25 9.31-3.16 9.57-3.76 9.4l-.03.21-.27-.15c-1.04-.59-2.03-1.14-2.98-1.68.56 5.04 2.4 20.56 4.67 39.41l27.5-27.81-.02-.39.33.07 11.89-12.03Zm-8.8-.8.01-.01h-.01Z" style="fill:#054375"/>
    <path d="M116.35 94.49c.76-.48 1.56-.99 2.39-1.51 2.74-1.72 5.23-3.25 7.04-4.35.12-.07.22-.13.33-.19l-12.88-.24c.13.28.27.6.43.96.63 1.35 1.43 3.3 2.69 5.33Z" style="fill:#05bdfb"/>
    <path d="M126.61 88.44c-.22.15-.44.29-.69.46-1.77 1.16-4.24 2.73-6.97 4.46-.89.56-1.76 1.1-2.57 1.61l-.17.11-.11-.18c-1.33-2.16-2.11-4.2-2.69-5.64-.16-.41-.29-.76-.41-1.07l-1.12-.02c-.1.16-.2.33-.32.51-.65 1.05-1.56 2.51-2.61 4.09-.12.17-.24.34-.35.51l18.82 19.03c.97-13.8 2.22-27.85 2.22-27.85l.04-3.53-.15-1.45-.89 8.99-2.02-.04ZM108.3 92.97l.29-.43c1.05-1.58 1.99-3.01 2.72-4.03.09-.13.17-.24.26-.36l-6.62-.12.79-6.56c-.06-.07-.09-.12-.08-.14l-.44 2.68-.62 5.21 3.7 3.74ZM101.13 137.06s-2.2 23.29-4.02 40.94l32.1-2.59c-.18-1.68-.34-3.16-.47-4.34-.36-2.01-.7-3.91-.99-5.63-2.46-14.43-1.74-18.51-1.45-32.5.1-5.06.57-12.8 1.12-20.62L108.6 93.29c-.24.35-.48.7-.73 1.02l-.17.23-.16-.24a96.03 96.03 0 0 1-1.96-3c-.37-.58-.6-.99-.67-1.15-.03-.03-.05-.06-.05-.06h.03v-.03s0 .04.02.09c.11.12.42.46.86 1.03.49.66 1.16 1.6 1.92 2.67.19-.28.4-.57.6-.87l-3.7-3.74-.71 5.96-2.76 41.87Z" style="fill:#05bdfb"/>
    <path d="m113.23 88.19 12.88.24c.7-.41 1.32-.78 1.83-1.09.52-.29.81-.44.82-.42v.02s-.26.23-.74.56c-.4.27-.88.59-1.4.93l2.02.04.89-8.99-.26-2.55-16.66 10.01c.07.07.28.5.62 1.24ZM111.57 88.16c.54-.75.92-1.18 1-1.21-.15-.12-6.11-4.61-6.83-5.48l-.79 6.56 6.62.12ZM113.01 88.19c-.09-.24-.17-.45-.23-.62-.12-.34-.18-.54-.19-.6 0 .08-.27.51-.7 1.2l1.12.02ZM97.11 178c-.09.89-.18 1.76-.27 2.61 2.01.98 5.19 2.1 10.1 2.82 1.73.25 3.57.35 5.45.33v-.04l.02.04c6-.06 12.45-1.31 17.45-2.58-.24-2.08-.46-4.03-.65-5.77L97.11 178Z" style="fill:#05bdfb"/>
    <path d="M112.38 183.76h.03c0-.02-.01-.04-.02-.04v.04Z" style="fill:#05bdfb"/>
    <path d="M94.55 179.39v-.01l.02.02h-.02v.41c-.03.31-.07.69-.11 1.14-.07.65-.17 1.45-.27 2.35l-1.72 17.65c-.06.65-.35 1.19-.75 1.61-.08.62-.17 1.24-.25 1.83v.09c.59.17 2.5-.08 3.75-9.4.39-2.9.98-8.2 1.63-14.47-1.06-.52-1.79-.99-2.27-1.36v.14ZM103.89 95.19l-6.27 52.71-2.95 30.3 2.44-.2c1.82-17.65 4.02-40.94 4.02-40.94l2.76-41.87Z"/>
    <path d="m94.67 178.19-.1 1.06c.48.36 1.21.84 2.27 1.36.09-.85.18-1.73.27-2.61l-2.44.2ZM133.56 197.04c-.42-2.32-.83-4.59-1.23-6.79-.57-2.96-1.17-6.11-1.76-9.25l-.71.18c.79 6.87 1.78 15.04 2.69 20.93l1.64-1.65c-.21-1.13-.42-2.27-.62-3.42ZM129.53 175.39c-.27-1.48-.54-2.92-.79-4.32.13 1.19.28 2.66.47 4.34l.32-.03Z"/>
    <path d="m129.53 175.39-.32.03c.19 1.74.41 3.7.65 5.77.24-.06.48-.12.71-.18-.35-1.89-.71-3.77-1.04-5.61ZM112.59 86.94v.03h.02l-.02-.03ZM116.46 94.66c-.04-.06-.07-.12-.11-.18-.06.04-.12.07-.17.11l.28.07Z"/>
    <path d="m116.11 94.89.11.18.17-.11c.81-.51 1.68-1.05 2.57-1.61 2.73-1.73 5.2-3.3 6.97-4.46.25-.16.46-.31.69-.46h-.51c-.11.06-.21.12-.33.19-1.81 1.1-4.3 2.63-7.04 4.35-.83.52-1.63 1.03-2.39 1.51.04.06.07.12.11.18l-.28-.07a.99.99 0 0 0 .17-.11c-1.26-2.03-2.06-3.98-2.69-5.33-.16-.36-.3-.68-.43-.96h-.22c.12.3.25.66.41 1.06.58 1.44 1.36 3.48 2.69 5.64Z"/>
    <path d="M128.02 87.51c.48-.33.73-.56.73-.56v-.02s-.29.13-.81.42c-.51.3-1.13.67-1.83 1.09h.51c.52-.34 1.01-.66 1.4-.93ZM113.01 88.19h.22c-.34-.73-.55-1.17-.62-1.23h-.02c0 .07.07.27.19.61.06.17.14.39.23.62ZM112.58 86.97v-.02h-.02l.02.01ZM108.95 92.77c1.05-1.58 1.96-3.04 2.61-4.09.11-.18.22-.35.32-.51h-.31c-.08.11-.17.23-.26.35-.73 1.02-1.67 2.45-2.72 4.03l-.29.43.3.31c.12-.17.23-.34.35-.51ZM107.86 94.08c-.06-.08-.11-.16-.17-.24-.05.08-.11.16-.16.24h.33Z"/>
    <path d="M107.86 94.08h-.33c.05-.07.11-.16.16-.24-.76-1.08-1.43-2.01-1.92-2.67-.43-.57-.75-.92-.86-1.03.07.16.3.57.67 1.15.47.76 1.15 1.8 1.96 3l.16.24.17-.23c.24-.32.48-.66.73-1.02l-.3-.31c-.2.3-.41.59-.6.87.06.08.11.15.17.24ZM104.89 90.07h-.03s.03.04.05.07c-.02-.05-.03-.08-.02-.09v.02ZM112.58 86.97s-.01 0-.02-.01c-.08.03-.45.46-1 1.21h.31c.43-.69.7-1.12.7-1.19Z"/>
    <path d="M71.28 73.03s.07-.08.18-.2c-.07.03-.16.07-.27.14.02.02.05.07.09.15v-.09ZM73.74 89.35c-.19-.07-.36-.18-.49-.35l-3.11-4.49c-.1.06-.16.11-.16.11l-.97-1.43.15-.1-3.95-5.7c-.04-.06-.05-.12-.08-.18l-1.22.84 9.01 11.88.82-.56ZM73.73 80.04c.24.29 1.15 1.5 1.02 1.51-.02 0-.1.05-.25.13 1.22 1.86 2.34 3.59 2.98 4.57.09.14.13.3.14.46l2.1-1.43s-.01-.02-.03-.04c-.6-.3-1-.55-1-.55s-1.6-1.74-3.32-3.92c.28.44.44.7.4.73h-.01c-.07.07-1.57-1.58-2.86-3.98-.22-.4-.4-.78-.58-1.15-.6-1.06-1.01-2.04-1.06-2.79-.08-.3-.12-.5-.12-.58-.41.24-1.06.67-1.73 1.13.67.88 2.38 3.44 4.11 6.06l.21-.14Z" style="fill:#f0fbff"/>
    <path d="m74.62 89.27 2.56-1.63c.32-.21.48-.57.45-.93l-3.88 2.64c.28.1.6.09.87-.08ZM69.41 74.12c-.14-.19-.25-.32-.29-.34-.46-.02-2.46 1.35-3.68 2.25-.37.27-.47.75-.3 1.16l1.63-1.12s1.35-1.06 2.65-1.95ZM77.48 86.25c-.64-.98-1.76-2.71-2.98-4.57-.4.24-1.23.78-2.07 1.32.05-.01.1-.03.16-.03.33 0 .59.26.59.58s-.26.58-.59.58-.59-.26-.59-.58c0-.14.05-.25.13-.35-.85.56-1.65 1.08-1.98 1.3l3.11 4.49c.12.18.3.29.49.35l3.88-2.64a.985.985 0 0 0-.14-.46Zm-3.71-.4c-.33 0-.59-.26-.59-.58s.26-.58.59-.58.59.26.59.58-.26.58-.59.58Zm1.37 2c-.33 0-.59-.26-.59-.58s.26-.58.59-.58.59.26.59.58-.26.58-.59.58Z" style="fill:#05bdfb"/>
    <path d="m69.16 83.08 4.36-2.89c-1.73-2.63-3.44-5.18-4.11-6.06-1.3.89-2.68 1.92-2.65 1.95l-1.63 1.12c.03.06.04.13.08.18l3.95 5.7Zm1.66-2.79c.33 0 .59.26.59.58s-.26.58-.59.58-.59-.26-.59-.58.26-.58.59-.58Zm-1.37-2c.33 0 .59.26.59.58s-.26.58-.59.58-.59-.26-.59-.58.26-.58.59-.58Zm-1.18-1.72c.33 0 .59.26.59.58s-.26.58-.59.58-.59-.26-.59-.58.26-.58.59-.58Z" style="fill:#05bdfb"/>
    <path d="m69.01 83.18.97 1.43s.06-.04.16-.11l-.98-1.42-.15.1ZM74.75 81.55c.13 0-.78-1.21-1.02-1.51l-.21.14c.33.5.66 1 .98 1.5.14-.08.23-.13.25-.13Z" style="fill:#0388b5"/>
    <path d="M72.43 83.01c.84-.55 1.67-1.08 2.07-1.32-.32-.49-.65-1-.98-1.5l-4.36 2.89.98 1.42c.33-.22 1.13-.74 1.98-1.3.08-.09.18-.16.3-.2Z" style="fill:#0388b5"/>
    <path style="fill:#054375" d="m104.39 89.02-.09-.09-.07 1.01.16-.92zM104.6 89.23l.62-5.21-.83 5 .21.21z"/>
    <path style="fill:#054375" d="m103.89 95.19.71-5.96-.21-.21-.16.92-.34 5.25zM104.33 88.57l-.1.29.07.07.03-.36z"/>
    <path d="M101.47 86.04c.5-.51.91-.92 1.21-1.23.28-.28.4-.42.4-.44-.01-.02-.17.11-.46.38-.31.3-.73.69-1.26 1.18 0 0-.01.01-.02.01l.11.11.02-.02ZM95.75 96.08s.07-.04.1-.06v-.11l-.1.17ZM99.13 93.84c-.05.03-.11.06-.16.09.04.05.07.1.1.15l.06-.24ZM96.88 90.57l.09-.09c-.02-.03-.05-.06-.07-.09l-.02.18ZM85.1 200.77c-.99-.54-1.9-1.04-2.7-1.47-1.07-.56-1.94-1.03-2.61-1.38-.62-.32-.97-.49-.97-.46-.01 0 .31.22.9.57.64.38 1.5.88 2.55 1.49 1.59.91 3.6 2.04 5.89 3.34v-.05l-3.06-2.04ZM91.26 204.4v-.17l-.22.11c.01-.1.03-.2.04-.3-.41-.22-.82-.45-1.21-.66-.45 0-.92-.09-1.36-.34l-.33-.22v.05c.95.54 1.94 1.1 2.98 1.68l.27.15.03-.21c-.12-.03-.19-.08-.19-.09Z"/>
    <path d="m91.04 204.33.23-.11v-.08a1.14 1.14 0 0 0-.19-.1c-.01.1-.03.2-.04.3Z"/>
    <path d="M91.07 204.03c.06.04.13.07.19.1l.05-1.26s-.06.05-.1.07c-.05.36-.1.73-.14 1.08ZM91.26 204.4v-.01.01zM91.35 204.18s-.05-.03-.08-.04v.08l.08-.04ZM94.45 180.95c.04-.45.08-.83.11-1.14v-.4h.02l-.02-.03v.01l-.38 3.91c.11-.9.2-1.7.27-2.35Z"/>
    <path d="M91.7 202.56c-.12.12-.25.23-.38.32l-.05 1.26s.05.03.08.04l-.08.04v.17s.06.05.18.09v-.09c.09-.59.17-1.21.26-1.83ZM88.12 202.42c-1.07-.59-2.08-1.14-3.02-1.65l3.06 2.04c-.02-.14-.03-.26-.04-.39Z"/>
    <path d="M88.5 203.03c.44.25.9.35 1.36.34-.6-.33-1.18-.64-1.74-.95.01.13.03.25.04.39l.33.22ZM91.22 202.94s.07-.04.1-.07l.04-.97c-.05.36-.09.69-.14 1.04Z"/>
    <path d="M82.74 110.82c.01-.34.03-.67.05-1.01-.14 2.29-.24 5.01-.29 7.95l.05-.23c.03-2.03.09-4.3.2-6.72Z" style="fill:#054375"/>
    <path d="M55.05 110.87v-.01.01z"/>
    <path d="m144.21 157.09-.01-.01v.03l.01-.02ZM129.71 77.64v-.02.02zM130.57 181c.59 3.14 1.19 6.29 1.76 9.25-.59-3.26-1.16-6.37-1.69-9.27-.02 0-.05.01-.07.02ZM129.62 175.38c-.3-1.66-.59-3.23-.85-4.67-.06-.32-.11-.63-.17-.94.04.38.09.81.14 1.3.25 1.39.51 2.84.79 4.32h.09Z" style="fill:#054375"/>
    <path d="M129.62 175.38h-.09c.34 1.85.69 3.73 1.04 5.62.02 0 .05-.01.07-.02-.36-1.97-.7-3.84-1.02-5.6Z" style="fill:#054375"/>
    <path d="M136.92 84.45v.02-.02zM138.9 89.4s-.04.04-.06.05c0 .02.02.04.03.07l.03-.12ZM135.98 92.55s.08-.08.13-.12c-.04-.03-.09-.07-.13-.11v.23ZM138.8 95l-.03.11c.03.03.06.05.09.07l-.06-.18ZM135.45 206.34h.01v-.01l-.01.01zM135.73 206.5v-.03h-.03l.04.03ZM133.56 197.04c.21 1.16.42 2.29.62 3.42l.1-.1c-.54-2.78-1.22-6.28-1.96-10.11.4 2.2.81 4.47 1.23 6.79ZM128.42 168.01V168v.01zM144.2 157.08c-.14-.08-.26-.18-.37-.29.03.32.05.63.08.91.12-.32.25-.54.29-.59v-.03ZM145.16 164.08v-.04.04Z"/>
    <path d="m149.21 153.04 4.2 14.65c3.3-1.16 7.58-2.89 8.83-3.61.94-.54 2.19-1.66 3.27-2.7l-7.69-9.34-.87.87s-4.2-.03-7.74.12Zm8.59 1.3c.41.76.66 1.42.55 1.48-.11.06-.52-.51-.93-1.27-.41-.76-.66-1.42-.55-1.48s.52.51.93 1.27ZM144.73 153.52c-.26.09-.47.22-.66.36.03 1.2.08 2.27.12 3.2l.01.01-.01.02c.01.22.02.45.03.64.08 1.49.12 2.43.06 2.43v.02c-.06 0-.21-.91-.37-2.41v-.09c-.3.76-.55 2.08.71 3.03l1.1.66s-1.13 2.45.65 3.51c1.77 1.06 1.58.37 1.56 1.36-.02.99.5 2.35 1.4 2.58.34.09 2.03-.42 4.08-1.14l-4.2-14.65c-2 .09-3.79.23-4.48.48Z" style="fill:#f0fbff"/>
    <path d="M143.83 156.78c-.06-.75-.11-1.59-.16-2.5-.57.79-.42 1.88.16 2.5ZM144.29 160.2v-.02c.06 0 .02-.94-.06-2.43l-.03-.64c-.03.05-.16.27-.29.59v.09c.16 1.5.31 2.41.37 2.41Z" style="fill:#f0fbff"/>
    <path d="M144.07 153.88c-.16.12-.29.26-.4.4.04.91.09 1.76.16 2.5.11.12.23.22.37.29-.05-.93-.09-2-.12-3.2Z" style="fill:#f0fbff"/>
    <path style="fill:#054375" d="m158.45 90.23-.01.01.01.01v-.02zM152.81 119.44s0-.06.01-.09c0-.05 0-.25.01-.57-.03.27-.06.54-.08.8l.06-.14Z"/>
    <path d="M172.08 131.01s-.02.02-.03.04l.03-.04Z"/>
    <path d="M100.28 84.86c-4.17.31-12.35.95-12.62 1.12-.02.01-.06.06-.1.15-.85.19-2.02.61-2.97 1.6-1.64 1.7-5.15 4.78-5.15 4.78L62.31 99.6l11.17-8.96-.56-.74-9.01-11.88-.54-.71s-12.71 9.14-19.04 13.42c-6.33 4.28-9.94 11.08-8.7 15.63 1.24 4.55 2.45 6.37 11.42 8.6 3.68.92 35.12 4.22 35.12 4.22l.31-1.42c.06-2.94.15-5.66.29-7.95-.02.33-.03.67-.05 1.01-.1 2.41-.16 4.69-.2 6.72l-.05.23c-.29 14.45.29 34.26.29 34.26l-5.52 43.53 7.85 5.22c.93.51 1.94 1.06 3.02 1.65.56.31 1.14.62 1.74.95.49-.01.95-.17 1.36-.42.05-.35.09-.68.14-1.04l-.04.97c.14-.1.27-.2.38-.32.41-.42.7-.96.75-1.61l1.72-17.65.38-3.91v-.14l.12-1.06 2.95-30.3 6.27-52.71.35-5.24.07-1.01-.07-.07.1-.29-.02.36.09.09.83-5 .2-1.66-2.75 2.33s-.96.07-2.38.18Zm-45.23 26v-.01.01Zm40.71-14.79.1-.17v.11c-.04.02-.07.04-.1.06Zm3.32-2c-.04-.05-.07-.1-.1-.15.05-.03.11-.06.16-.09l-.06.24Zm-2.19-3.51.02-.18s.05.06.07.09l-.09.09Zm5.8-5.76c-.3.31-.71.72-1.21 1.23l-.02.02-.11-.11s.01-.01.02-.01c.53-.49.95-.88 1.26-1.18.29-.27.45-.4.46-.38 0 .02-.12.16-.4.44ZM191.11 120.15c-5.18-4.23-26.31-20.57-26.31-20.57s-3.96-6.08-6.36-9.34c-.98-1.31-3.62-3.28-5.96-3.61h-.02v-.02c-.43-.45-15.26-2.11-15.53-2.14 0 0-6.6-6.4-7.18-6.85h-.02v.03l-.04 3.3-.04 3.53s-1.24 14.05-2.22 27.85c-.55 7.82-1.02 15.57-1.12 20.62-.29 13.99-1.01 18.07 1.45 32.5.29 1.72.63 3.63.99 5.63-.05-.48-.1-.92-.14-1.3.05.31.11.62.17.94.26 1.44.55 3.01.85 4.67.32 1.76.66 3.63 1.02 5.6.53 2.9 1.1 6.01 1.69 9.27.73 3.82 1.41 7.33 1.96 10.11l.26-.27 13.38-13.53 2.77-2.8 5.67-5.73-2.96-10.33c-2.05.72-3.73 1.23-4.08 1.14-.9-.23-1.42-1.59-1.4-2.58.02-.99.21-.3-1.56-1.36-1.78-1.06-.65-3.51-.65-3.51l-1.1-.66c-1.25-.95-1-2.27-.71-3.03-.03-.28-.05-.59-.08-.91-.57-.62-.72-1.71-.16-2.5.11-.15.24-.28.4-.4.18-.14.4-.27.66-.36.69-.25 2.48-.39 4.48-.48l-.15-.53 1.86-16.44c.74-6.55 1.51-13.3 1.89-16.63l-.06.14c.03-.26.05-.53.08-.8 0 .32 0 .52-.01.57 0 .03 0 .06-.01.09l.04-.09 19.11 10.33.12 1.32-.03.05-11.52 14.73-3.83 4.9 1.12 1.37 7.69 9.34 1.48 1.79s2.17-2.19 5.25-5.31c7.18-7.28 19.31-19.67 20.54-21.44 1.73-2.48 5.74-10.22-1.67-16.28ZM138.9 89.41l-.03.12s-.02-.04-.03-.07c.02-.02.04-.04.06-.05Zm-2.92 2.92s.09.07.13.11c-.04.04-.08.08-.13.12v-.23Zm2.82 2.68.06.18s-.06-.05-.09-.07c0-.03.02-.07.03-.11Zm-10.38 73Zm16.75-3.95v.02s-.01-.02-.01-.04l.01.02Z" style="fill:#054375"/>
    <path d="M157.43 154.54c.41.76.82 1.33.93 1.27.11-.06-.14-.72-.55-1.48-.41-.76-.82-1.33-.93-1.27s.14.72.55 1.48Z" style="fill:#d7dee5"/>
    <path d="M85.4 68.18c.28-.67.79-1.03 1.15-1.17.39-.15.63-.13.63-.1 0 .04-.22.08-.55.26-.32.18-.78.57-.97 1.2l-.02.08-.1.02c-.35.08-.74.19-1.12.37l1.78 1.8c.58-.21 1.12-.45 1.54-.71 1.07-.64 1.5-1.33 1.56-1.28l-.03.02s-.32.78-1.39 1.53c-.38.27-.85.52-1.37.75l2.06 2.09c1.27-.51 2.15-1.03 2.41-1.12-.02-.01-.02-.02-.02-.02.67-.91.53-1.76.53-1.76-.44-1.31-1.99-1.48-1.99-1.48.41-.42.14-1.6.14-1.6-.81-2.06-4.32-.52-4.32-.52s-1.39.06-2.26.14c-.12.01-.34.06-.63.15l1.73 1.74c.43-.2.86-.31 1.25-.38ZM91.48 75.96l1.84 1.86s0-.02.01-.04c.27-1.26-1.21-2.64-1.24-2.67-.01.07-.06.2-.15.36-.1.15-.26.32-.46.49ZM88.87 73.32l2.44 2.47c.56-.36.73-.76.78-.75 0 0 .01.02 0 .05.7-1.47-.72-2.84-1.06-3.14-.13.17-.91.79-2.17 1.37Z" style="fill:#f0fbff"/>
    <path d="M84.59 71.59c-.16.04-.32.09-.48.13-.07.22-.13.57.02 1.01.12.36.45.74.92.93.47.18 1.07.13 1.68-.02.68-.17 1.29-.39 1.85-.61l-2.06-2.09c-.21.09-.43.18-.66.25-.4.14-.82.27-1.26.39ZM85.81 74.21c-.2.18-.51.52-.69 1.09-.13.45-.07 1.04.31 1.51.18.23.44.43.75.52.3.09.65.07 1-.02.71-.19 1.41-.48 2.04-.68.63-.22 1.21-.38 1.65-.6.17-.07.31-.15.44-.23l-2.44-2.47c-.59.28-1.27.54-2.04.74-.33.09-.67.14-1.01.14Z" style="fill:#f0fbff"/>
    <path d="M71.45 72.83c.08-.03.14-.05.14-.01 0 .33 7.58 11.64 8.1 12.41.51.26 1.15.55 1.81.77 1.44.46 2 0 2 0 1 0 1.63-.18 2-.5.68-.59 4.61-1.78 3-3.5-.16-1.09-.95-1.42-.95-1.42s.14-.02.36-.06c-.26 0-.54-.04-.84-.16-.35-.15-.61-.43-.82-.76-.14-.13-.34-.34-.63-.62-.24-.23-.55-.55-.88-.79-.32-.18-.85-.26-1.12.04-.33.34-.6.78-.62 1.15-.01.41.12.79.24 1.1.26.62.49 1 .44 1.03s-.36-.26-.71-.89c-.17-.32-.35-.72-.36-1.24 0-.56.31-1.05.7-1.46.24-.23.58-.33.88-.32.3.02.54.09.8.26.39.32.64.63.87.9l.09.12c-.03-.24.01-.48.11-.68.09-.17.19-.3.31-.42-.1-.01-.2-.03-.29-.06-.4-.12-.72-.38-.93-.68-.46-.59-.48-1.35-.28-1.85.18-.51.5-.82.73-.99-.24-.02-.48-.06-.71-.16-.58-.25-.95-.75-1.07-1.21-.12-.45-.02-.83.08-1.06-.24.07-.61.04-.84-.18-.43-.42-.45-.99-.33-1.45.12-.47.4-.85.72-1.13.23-.2.47-.33.71-.45l-1.73-1.74c-1.87.54-6.83 2.43-8 3.23-1.11.76-2.51 2.26-2.97 2.78Zm9.91-4.01c.12-.03.69 2.08 1.76 4.54s2.23 4.3 2.12 4.38h-.01c-.08.06-1.43-1.71-2.51-4.21-1.1-2.5-1.47-4.69-1.36-4.71Z" style="fill:#f0fbff"/>
    <path d="M91.01 76.3c-.46.26-1.02.47-1.65.7-.64.23-1.29.51-2.07.72l-.16.03c-.11.05-.22.1-.33.17-.29.22-.57.68-.4 1.05.18.44.48.86.82 1.02.37.17.77.2 1.11.21.67 0 1.11-.06 1.12 0h.01v.02c.62-.14 1.27-.31 1.74-.49 1.22-.47 1.85-.66 2.13-1.89l-1.84-1.86c-.14.12-.28.23-.47.33ZM83.15 70.24c-.09.36-.04.79.21 1.02.22.24.71 0 1.14-.09.44-.12.86-.23 1.25-.36.16-.05.3-.11.45-.17l-1.78-1.8c-.25.12-.49.26-.7.46-.27.24-.48.58-.57.94ZM72.32 76.35c-.55-1.16-.9-2.17-1.06-2.79.05.75.46 1.72 1.06 2.79ZM71.27 73.12c.28.54.96 2.25 2.01 4.18.8 1.48 1.61 2.72 2.08 3.45 1.72 2.18 3.32 3.92 3.32 3.92s.41.25 1 .55c-.52-.77-8.1-12.09-8.1-12.41 0-.03-.06-.02-.14.01l-.18.2v.09Z" style="fill:#f0fbff"/>
    <path d="M87.88 70.2c1.07-.75 1.39-1.53 1.39-1.53l.03-.02c-.06-.05-.49.64-1.56 1.28-.42.26-.95.5-1.54.71l.3.31c.53-.22 1-.47 1.37-.75ZM85.47 68.17s-.05.01-.07.01c-.01.03-.04.06-.05.1l.12-.11Z" style="fill:#d7dee5"/>
    <path d="m85.54 68.47.1-.02.02-.08c.19-.63.65-1.02.97-1.2.33-.18.55-.22.55-.26 0-.03-.24-.05-.63.1-.36.14-.87.5-1.15 1.17.02 0 .05-.01.07-.01l-.12.11.05-.1c-.38.07-.81.18-1.25.38l.27.28c.38-.18.77-.29 1.12-.37Z" style="fill:#d7dee5"/>
    <path d="M84.16 71.45h.02s-.02.11-.07.27c.16-.04.33-.09.48-.13.44-.12.86-.25 1.26-.39.23-.08.45-.17.66-.25l-.3-.31c-.15.06-.29.12-.45.17-.39.13-.81.24-1.25.36-.43.09-.92.33-1.14.09-.25-.23-.3-.66-.21-1.02s.3-.7.57-.94c.21-.2.46-.34.7-.46l-.27-.28c-.24.11-.48.25-.71.45-.32.28-.6.66-.72 1.13-.12.46-.1 1.03.33 1.45.24.23.6.25.84.18v-.02c.12-.23.22-.32.25-.3ZM91.07 71.9s-.04 0-.09.01c.01.01.03.03.05.04.02-.02.04-.05.03-.06Z" style="fill:#d7dee5"/>
    <path d="M88.87 73.32c1.25-.58 2.04-1.2 2.17-1.37-.02-.02-.04-.03-.05-.04-.26.08-1.14.61-2.41 1.12l.29.3ZM86 74.01h.02H86s-.06.09-.18.2c.34 0 .69-.06 1.01-.14.77-.2 1.45-.47 2.04-.74l-.29-.3c-.55.22-1.17.44-1.85.61-.61.15-1.21.2-1.68.02-.47-.19-.8-.57-.92-.93a1.73 1.73 0 0 1-.02-1.01c-.07.02-.13.04-.2.05h-.02c-.11.23-.2.61-.08 1.06.12.46.49.96 1.07 1.21.22.1.46.14.71.16.22-.15.36-.19.4-.18Z" style="fill:#d7dee5"/>
    <path d="M84.11 71.71c.05-.16.1-.26.07-.27h-.02s-.13.07-.25.3v.02h.02c.07-.01.13-.03.2-.05ZM92.09 75.12v-.03s0 .02-.01.03Z" style="fill:#d7dee5"/>
    <path d="M92.09 75.05s-.22.38-.78.75l.17.17c.2-.17.37-.34.46-.49.09-.16.14-.28.15-.36 0 0 0-.02.01-.03v-.05Z" style="fill:#d7dee5"/>
    <path d="M87.77 77.13c.67-.2 1.12-.23 1.13-.17 0 .06-.39.19-1.03.46-.22.09-.48.21-.74.33l.16-.03c.78-.21 1.43-.49 2.07-.72.63-.23 1.19-.44 1.65-.7.19-.1.33-.22.47-.33l-.17-.17c-.13.08-.27.16-.44.23-.44.22-1.02.38-1.65.6-.63.2-1.33.49-2.04.68-.35.09-.7.11-1 .02-.31-.09-.57-.29-.75-.52-.38-.47-.44-1.06-.31-1.51.18-.57.49-.9.69-1.09-.07 0-.15-.01-.22-.02-.23.17-.55.48-.73.99-.2.5-.18 1.26.28 1.85.21.3.53.56.93.68.1.03.19.05.29.06.07-.07.14-.14.24-.21.45-.23.83-.34 1.17-.45Z" style="fill:#d7dee5"/>
    <path d="M85.99 74.02s-.18.02-.4.17c.07 0 .15.02.22.02.12-.11.2-.17.18-.19ZM86 74.01h.02H86zM88.35 80.51c.7-.07 1.08-.24 1.1-.29-.61.14-1.19.24-1.54.31.16 0 .31 0 .44-.01Z" style="fill:#d7dee5"/>
    <path d="M89.46 80.21h-.01c0-.07-.45 0-1.12 0-.34-.01-.74-.04-1.11-.21-.34-.16-.64-.58-.82-1.02-.17-.37.11-.83.4-1.05.1-.06.22-.11.33-.17-.25.05-.51.07-.77.03-.12.12-.22.25-.31.42-.1.2-.14.44-.11.68.38.48.56.83.51.86-.02.01-.1-.05-.2-.15.21.33.47.61.82.76.3.12.58.16.84.16.36-.06.93-.17 1.54-.31Z" style="fill:#d7dee5"/>
    <path d="M87.13 77.75c.26-.13.52-.24.74-.33.64-.27 1.03-.4 1.03-.46-.01-.06-.46-.03-1.13.17-.34.11-.72.22-1.17.45a.98.98 0 0 0-.24.21c.26.03.52.01.77-.03ZM85.94 78.89s-.06-.07-.09-.12c-.23-.27-.48-.58-.87-.9-.26-.17-.49-.24-.8-.26-.3-.01-.64.09-.88.32-.39.42-.7.91-.7 1.46.01.52.19.92.36 1.24.35.64.66.92.71.9.05-.05-.18-.43-.44-1.04-.12-.32-.25-.7-.24-1.1.01-.38.28-.82.62-1.15.27-.3.81-.22 1.12-.04.33.24.64.55.88.79.29.28.49.49.63.62-.09-.15-.18-.3-.25-.46-.03-.08-.05-.16-.06-.25Z" style="fill:#d7dee5"/>
    <path d="M85.94 78.89c.01.08.03.17.06.25.07.16.16.31.25.46.1.1.18.16.2.15.05-.03-.13-.38-.51-.86ZM85.24 77.74h.01c.11-.07-1.05-1.91-2.12-4.37s-1.64-4.57-1.76-4.54c-.11.02.26 2.21 1.36 4.71 1.08 2.5 2.43 4.27 2.51 4.2ZM71.14 72.93v.06c.02 0 .03-.01.04-.02-.01-.01-.03-.04-.04-.04ZM72.9 77.51c1.29 2.4 2.78 4.05 2.86 3.97h.01s-.12-.29-.4-.72c-1.1-1.4-2.24-2.98-3.05-4.4.18.37.36.76.58 1.15Z" style="fill:#d7dee5"/>
    <path d="M71.26 73.57c-.01-.16 0-.31.02-.45a.694.694 0 0 0-.09-.15c-.01 0-.03.01-.04.02 0 .08.04.28.12.58Z" style="fill:#d7dee5"/>
    <path d="M71.27 73.12c-.02.14-.03.29-.02.45.17.62.52 1.62 1.06 2.79.8 1.43 1.94 3 3.05 4.4-.47-.74-1.28-1.97-2.08-3.45-1.05-1.94-1.73-3.65-2.01-4.18Z" style="fill:#d7dee5"/>
    <path d="M70.82 81.44c.33 0 .59-.26.59-.58s-.26-.58-.59-.58-.59.26-.59.58.26.58.59.58ZM69.45 79.44c.33 0 .59-.26.59-.58s-.26-.58-.59-.58-.59.26-.59.58.26.58.59.58ZM68.27 77.72c.33 0 .59-.26.59-.58s-.26-.58-.59-.58-.59.26-.59.58.26.58.59.58ZM75.13 86.69c-.33 0-.59.26-.59.58s.26.58.59.58.59-.26.59-.58-.26-.58-.59-.58ZM73.76 84.69c-.33 0-.59.26-.59.58s.26.58.59.58.59-.26.59-.58-.26-.58-.59-.58ZM71.99 83.55c0 .32.26.58.59.58s.59-.26.59-.58-.26-.58-.59-.58c-.06 0-.11.02-.16.03-.1.07-.2.13-.3.2a.56.56 0 0 0-.13.35Z" style="fill:#d9d9d9"/>
    <path d="M72.13 83.2c.1-.07.2-.13.3-.2-.12.03-.22.1-.3.2Z" style="fill:#d9d9d9"/>
    <path d="M33.64.88c18.1 0 32.77 15.24 32.77 34.04 0 7.78-2.52 14.94-6.74 20.67l4.01 16.47-13.75-7.61c-4.8 2.86-10.36 4.51-16.29 4.51C15.54 68.96.87 53.72.87 34.92S15.54.88 33.64.88Z" style="fill:#fff"/>
    <path d="M63.68 72.93c.19 0 .37-.06.53-.18.27-.21.4-.56.32-.9l-3.92-16.08c4.36-6.07 6.67-13.27 6.67-20.86C67.28 15.66 52.19 0 33.64 0S0 15.66 0 34.91s15.09 34.91 33.64 34.91c5.7 0 11.33-1.51 16.31-4.38l13.32 7.37c.12.09.27.12.41.12ZM33.64 1.75c17.59 0 31.9 14.88 31.9 33.17 0 7.35-2.27 14.32-6.57 20.15-.15.21-.21.47-.14.72l3.54 14.54-12.01-6.65a.872.872 0 0 0-.87.01 30.955 30.955 0 0 1-15.85 4.39c-17.59 0-31.9-14.88-31.9-33.17S16.05 1.75 33.64 1.75Z" style="fill:#054375"/>
    <path d="M31.92 25.51c0-.93.77-1.68 1.72-1.68s1.72.75 1.72 1.68v10.08c0 .64-.37 1.22-.95 1.5l-6.88 3.36c-.85.41-1.88.08-2.31-.75a1.66 1.66 0 0 1 .77-2.25l5.92-2.9v-9.04Z" style="fill:#f3cb3f"/>
    <path d="M33.64 17.11c10.44 0 18.91 8.27 18.91 18.48s-8.46 18.48-18.91 18.48-18.91-8.27-18.91-18.48 8.46-18.48 18.91-18.48Zm15.47 18.48c0-8.35-6.93-15.12-15.47-15.12s-15.47 6.77-15.47 15.12 6.93 15.12 15.47 15.12 15.47-6.77 15.47-15.12Z" style="fill:#f3cb3f;fill-rule:evenodd"/>
    <path d="M112.42 184.77c.05.67.14 1.64.28 2.84.28 2.39.75 5.69 1.45 9.3.17.9.32 1.78.58 2.63.26.85.66 1.66 1.28 2.24.62.59 1.39.9 2.11 1.02s1.4.09 2.01-.02c1.21-.23 2.1-.67 2.71-.95.58-.29.88-.5.91-.51v-.02s-.36.1-.98.35c-.63.23-1.52.61-2.69.79-1.13.17-2.67.06-3.78-.98-1.12-1.06-1.36-2.87-1.71-4.65-.69-3.59-1.21-6.87-1.57-9.25-.16-1.12-.3-2.06-.42-2.82-.09-.55-.16-.89-.19-.98h-.03c-.02.09 0 .43.04 1.01ZM118.85 184.6c-.45-.32-.91-.42-1.22-.39-.31.01-.45.13-.45.13-.01.1.7-.12 1.47.53.36.31.7.82.7 1.43.01.61-.47 1.2-1.14 1.45s-1.42.12-1.81-.34c-.42-.45-.49-1.07-.42-1.54.15-.99.83-1.3.77-1.36 0-.03-.18 0-.42.19-.25.18-.54.56-.67 1.1-.11.53-.09 1.27.42 1.88.5.62 1.49.81 2.3.49.81-.29 1.43-1.08 1.4-1.88-.01-.79-.48-1.37-.92-1.69ZM95.86 96.02s-.07.04-.1.06l.1-.17v.11c1.21-.67 2.36-1.3 3.44-1.89l.17-.09-.11-.15-2.38-3.4-.09.09.02-.18s.05.06.07.09c1.89-1.85 3.41-3.37 4.49-4.43l-.11-.11c-1.13 1.06-2.7 2.55-4.67 4.43l-.08.08.07.1c.7 1.03 1.47 2.15 2.31 3.38.05-.03.11-.06.16-.09l-.06.24c-.04-.05-.07-.1-.1-.15-1.06.58-2.19 1.18-3.39 1.83l-.1.05v.12c.12 5.1.27 11.11.43 17.53l.4-1.19c-.14-5.93-.3-11.49-.46-16.25Z"/>
    <path d="M96.32 138.89c.02 3.19 0 5.76-.03 7.54 0 .89-.06 1.58-.06 2.05-.02.47 0 .72 0 .72v-.02s.05-.24.09-.71c.02-.47.11-1.16.13-2.05.09-1.79.15-4.36.17-7.55.05-6.36-.05-15.17-.27-24.88-.01-.58-.03-1.15-.04-1.72l-.4 1.19c0 .18 0 .36.01.55.22 9.72.37 18.51.4 24.88ZM94.28 180.9c-.15 1.05-.36 2.47-.62 4.18-.51 3.54-1.18 8.42-1.9 13.81-.14 1.03-.27 2.04-.4 3.02l-.04.97c.14-.1.27-.2.38-.32.16-1.16.31-2.36.48-3.6.71-5.39 1.34-10.28 1.77-13.82.08-.66.15-1.27.22-1.84l.38-3.91s-.04.13-.09.38c-.05.3-.12.68-.19 1.13ZM61.58 101.76c-.32 1.18-.92 2.75-1.91 4.31s-2.17 2.77-3.09 3.55c-.89.76-1.52 1.15-1.53 1.24.04.03.73-.28 1.72-1.01s2.24-1.95 3.26-3.55c1.02-1.61 1.59-3.25 1.84-4.47.25-1.21.24-1.99.19-1.99-.06-.01-.16.75-.48 1.92ZM82.51 121.49c.01 1.37.03 2.47.05 3.24.02.75.05 1.18.08 1.18.02 0 .05-.41.08-1.18.02-.86.06-1.94.09-3.24.04-1.66.1-3.71.18-6l-.45 2.05c-.02 1.47-.03 2.81-.03 3.95ZM83.62 102.33c.05-.77.09-1.49.13-2.14.08-1.3.15-2.39.2-3.23.04-.76.02-1.19.02-1.19-.03 0-.1.42-.19 1.18s-.21 1.86-.33 3.22c-.23 2.5-.49 5.88-.67 9.64.08-1.31.18-2.49.29-3.47.16-1.37.35-2.71.55-4.01Z"/>
    <path d="M83.62 102.33c-.2 1.3-.39 2.63-.55 4.01-.12.99-.21 2.16-.29 3.47-.02.33-.03.67-.05 1.01-.1 2.41-.16 4.69-.2 6.72l.45-2.05c.05-1.46.11-3.02.18-4.65.14-3.16.31-6.08.46-8.51ZM137.41 85.79c.34.89.84 2.12 1.43 3.66.02-.02.04-.04.06-.05l-.03.12s-.02-.04-.03-.07c-.9.84-1.91 1.79-3.05 2.88l-.12.12.12.11c.92.78 1.91 1.64 2.98 2.55 0-.03.02-.07.03-.11l.06.18s-.06-.05-.09-.07c-1.28 5.33-2.83 11.96-4.45 19.15-.31 1.39-.62 2.74-.92 4.08l.36.36c.32-1.43.65-2.88.98-4.36 1.65-7.22 3.17-13.89 4.4-19.27l.02-.11-.08-.07c-1.07-.88-2.06-1.71-2.97-2.47-.04.04-.08.08-.13.12v-.23s.09.07.13.11c1.1-1.07 2.08-2.02 2.93-2.86l.06-.06-.03-.08c-.65-1.55-1.19-2.79-1.56-3.68-.17-.4-.31-.72-.42-.97-.09-.2-.15-.3-.16-.32 0 .02.03.12.11.34.11.26.23.58.38.99ZM130.51 131.72c.05.32.1.65.16 1 .88-4.1 1.94-8.87 3.09-14.01l-.36-.36c-1.09 4.86-2.06 9.39-2.89 13.37Z"/>
    <path d="M129.35 137.43c-.58 2.98-1 5.39-1.26 7.07-.14.83-.2 1.49-.26 1.93-.06.45-.06.68-.06.68h-.01l.03.01c.02 0 .07-.23.14-.67.08-.45.17-1.1.33-1.93.31-1.66.78-4.07 1.4-7.04.3-1.46.64-3.06 1.01-4.77-.06-.35-.11-.68-.16-1-.43 2.07-.82 4-1.16 5.72ZM128.42 168.01l.16.15c-.43-2.21-.78-4.06-1.06-5.48-.18-.91-.33-1.63-.44-2.16-.05-.23-.09-.41-.12-.56-.04-.13-.06-.19-.06-.19s0 .08.02.2c.02.15.05.34.08.57.09.54.21 1.26.36 2.18.31 1.74.73 4.14 1.24 7.05-.11-1.08-.18-1.71-.18-1.76ZM133.97 196.95c-1.07-5.75-2.09-11.19-3-16.05l-.33.09c.53 2.9 1.1 6.01 1.69 9.27.73 3.82 1.41 7.33 1.96 10.11l.26-.27c-.19-1.04-.38-2.08-.58-3.15Z"/>
    <path d="m129.62 175.38.32-.03c-.31-1.68-.61-3.26-.88-4.72-.17-.87-.33-1.7-.48-2.48l-.16-.15c0 .06.07.69.18 1.76.05.31.11.62.17.94.26 1.44.55 3.01.85 4.67ZM130.97 180.9c-.36-1.95-.71-3.8-1.04-5.54l-.32.03c.32 1.76.66 3.63 1.02 5.6l.33-.09ZM144.07 153.88c-.02-.63-.03-1.29-.04-1.97-.03-2.27.01-4.34.04-5.84.04-1.5.07-2.43 0-2.43-.06 0-.18.92-.3 2.42-.11 1.5-.19 3.58-.17 5.87.01.82.04 1.6.07 2.35.11-.15.24-.28.4-.4ZM141.2 155.62c-.99-2.38-1.78-4.58-2.31-6.18-.54-1.6-.84-2.6-.91-2.58-.02 0 .02.26.12.73.1.46.27 1.12.5 1.94a58.091 58.091 0 0 0 5.1 12.21c.41.75.77 1.33 1.03 1.73.23.35.39.54.43.57-.03-.17-.5-1.05-1.2-2.43-.75-1.51-1.77-3.61-2.76-5.99ZM152.07 124.94c.08 0 .35-2.12.68-5.36l-.45 1.05c-.2 2.63-.3 4.31-.23 4.31ZM152.83 118.77c.18-1.78.38-3.83.58-6.02.63-6.73 1.04-12.22.92-12.22-.13-.01-.73 5.44-1.35 12.18-.05.54-.1 1.06-.15 1.58v4.47Z"/>
    <path d="M152.75 119.57c.03-.26.05-.53.08-.8 0-.8.01-2.4 0-4.47-.22 2.4-.4 4.58-.54 6.33l.45-1.05ZM172.05 131.05c-.13.23-.19.37-.17.38.1.1 1.73-2.52 4.84-4.5 3.09-2.02 6.14-2.41 6.1-2.55v-.02s-.76-.01-1.95.28c-1.19.28-2.8.89-4.38 1.91s-2.79 2.23-3.55 3.2c-.4.52-.69.95-.86 1.25s-.03.05-.03.05Z"/>
</svg>
