<svg width="208" height="160" viewBox="0 0 208 160" fill="none" xmlns="http://www.w3.org/2000/svg">
<path opacity="0.3" d="M176.006 79.6703C177.56 78.0995 177.56 75.5526 176.006 73.9818L106.086 3.27211C104.378 1.54482 101.554 1.74327 100.099 3.69288L75.2295 37.0082C74.0341 38.6096 74.1885 40.8571 75.5915 42.2759L106.866 73.9032C108.419 75.474 108.419 78.0209 106.866 79.5917L71.6451 115.21C69.9378 116.936 70.1331 119.791 72.0592 121.263L105.073 146.499C106.657 147.709 108.881 147.554 110.284 146.134L176.006 79.6703Z" fill="#1090F9"/>
<path opacity="0.3" d="M175.245 80.271C176.41 81.4491 176.41 83.3592 175.245 84.5373L109.523 151.001C108.471 152.066 106.803 152.182 105.615 151.275L72.6011 126.039C71.1565 124.935 71.01 122.794 72.2905 121.499L107.511 85.8809C109.453 83.9173 109.453 80.7338 107.511 78.7703L76.2369 47.143C75.1846 46.0789 75.0688 44.3933 75.9654 43.1922L100.834 9.87687C101.926 8.41467 104.044 8.26583 105.325 9.5613L175.245 80.271Z" stroke="#05BDFB" stroke-width="2"/>
<path opacity="0.3" d="M137.831 11.1719C138.92 11.1719 139.804 12.0554 139.804 13.1452L139.804 14.3027C139.804 14.8892 139.285 15.3404 138.705 15.2594C138.227 15.1929 137.872 14.7847 137.872 14.3027L137.872 14.1782C137.872 13.5849 137.391 13.1039 136.798 13.1039L136.673 13.1039C136.087 13.1039 135.635 12.5855 135.716 12.0046C135.783 11.5272 136.191 11.1719 136.673 11.1719L137.831 11.1719Z" fill="#1090F9"/>
<path opacity="0.3" d="M171.086 40.0268C171.639 40.9834 171.311 42.2065 170.354 42.7588L168.29 43.9504C167.579 44.3609 166.669 44.0482 166.361 43.2872C166.107 42.6619 166.354 41.9453 166.938 41.6079L167.089 41.5208C167.808 41.1055 168.055 40.1856 167.639 39.4662L167.552 39.3154C167.142 38.6042 167.454 37.6943 168.215 37.3858C168.841 37.1323 169.557 37.3786 169.895 37.963L171.086 40.0268Z" fill="#1090F9"/>
<path opacity="0.3" d="M106.627 132.472C107.179 133.429 106.852 134.652 105.895 135.204L103.831 136.396C103.12 136.806 102.21 136.494 101.902 135.733C101.648 135.107 101.894 134.391 102.479 134.053L102.63 133.966C103.349 133.551 103.595 132.631 103.18 131.912L103.093 131.761C102.682 131.05 102.995 130.14 103.756 129.831C104.381 129.578 105.098 129.824 105.435 130.408L106.627 132.472Z" fill="#1090F9"/>
<path opacity="0.3" d="M170.903 105.171C170.122 104.39 170.122 103.123 170.903 102.342L174.945 98.3005C175.708 97.5375 176.975 97.6503 177.591 98.5359C178.07 99.2242 177.987 100.157 177.394 100.75L176.475 101.669C175.711 102.433 175.711 103.673 176.475 104.438C177.299 105.261 177.226 106.617 176.318 107.348L175.923 107.666C175.127 108.306 173.977 108.244 173.255 107.522L170.903 105.171Z" fill="#1090F9"/>
<rect x="66.6663" y="30.6641" width="68.6919" height="99.4725" rx="4.5" fill="white" stroke="#054375"/>
<rect opacity="0.14" x="67.3279" y="33.0703" width="65.0458" height="94.0841" rx="1" fill="#054375"/>
<rect x="59.1163" y="23.1172" width="68.6919" height="99.4725" rx="4.5" fill="white" stroke="#054375"/>
<path d="M69.2402 127.922C69.1995 127.922 69.1531 127.904 69.1182 127.87C69.0543 127.806 69.0543 127.695 69.1182 127.632L72.4518 124.298C72.5157 124.234 72.6261 124.234 72.69 124.298C72.7538 124.362 72.7538 124.472 72.69 124.536L69.3564 127.87C69.3215 127.904 69.2809 127.922 69.2402 127.922Z" fill="#054375"/>
<path d="M101.763 127.922C101.722 127.922 101.676 127.904 101.641 127.87C101.577 127.806 101.577 127.695 101.641 127.632L104.974 124.298C105.038 124.234 105.149 124.234 105.212 124.298C105.276 124.362 105.276 124.472 105.212 124.536L101.879 127.87C101.844 127.904 101.803 127.922 101.763 127.922Z" fill="#054375"/>
<path d="M85.502 127.922C85.4614 127.922 85.4149 127.904 85.3801 127.87C85.3162 127.806 85.3162 127.695 85.3801 127.632L88.7137 124.298C88.7775 124.234 88.8879 124.234 88.9518 124.298C89.0157 124.362 89.0157 124.472 88.9518 124.536L85.6182 127.87C85.5834 127.904 85.5427 127.922 85.502 127.922Z" fill="#054375"/>
<path d="M118.025 127.922C117.984 127.922 117.937 127.904 117.903 127.87C117.839 127.806 117.839 127.695 117.903 127.632L121.236 124.298C121.3 124.234 121.41 124.234 121.474 124.298C121.538 124.362 121.538 124.472 121.474 124.536L118.141 127.87C118.106 127.904 118.065 127.922 118.025 127.922Z" fill="#054375"/>
<path d="M73.3058 127.922C73.2651 127.922 73.2186 127.904 73.1838 127.87C73.1199 127.806 73.1199 127.695 73.1838 127.632L76.5174 124.298C76.5813 124.234 76.6916 124.234 76.7555 124.298C76.8194 124.362 76.8194 124.472 76.7555 124.536L73.4219 127.87C73.3871 127.904 73.3464 127.922 73.3058 127.922Z" fill="#054375"/>
<path d="M105.828 127.922C105.787 127.922 105.741 127.904 105.706 127.87C105.642 127.806 105.642 127.695 105.706 127.632L109.04 124.298C109.104 124.234 109.214 124.234 109.278 124.298C109.342 124.362 109.342 124.472 109.278 124.536L105.944 127.87C105.909 127.904 105.869 127.922 105.828 127.922Z" fill="#054375"/>
<path d="M89.5662 127.922C89.5256 127.922 89.4791 127.904 89.4443 127.87C89.3804 127.806 89.3804 127.695 89.4443 127.632L92.7779 124.298C92.8418 124.234 92.9521 124.234 93.016 124.298C93.0799 124.362 93.0799 124.472 93.016 124.536L89.6824 127.87C89.6476 127.904 89.6069 127.922 89.5662 127.922Z" fill="#054375"/>
<path d="M122.09 127.922C122.049 127.922 122.003 127.904 121.968 127.87C121.904 127.806 121.904 127.695 121.968 127.632L125.302 124.298C125.366 124.234 125.476 124.234 125.54 124.298C125.604 124.362 125.604 124.472 125.54 124.536L122.206 127.87C122.171 127.904 122.131 127.922 122.09 127.922Z" fill="#054375"/>
<path d="M77.3711 127.922C77.3304 127.922 77.2839 127.904 77.2491 127.87C77.1852 127.806 77.1852 127.695 77.2491 127.632L80.5827 124.298C80.6466 124.234 80.7569 124.234 80.8208 124.298C80.8847 124.362 80.8847 124.472 80.8208 124.536L77.4872 127.87C77.4524 127.904 77.4117 127.922 77.3711 127.922Z" fill="#054375"/>
<path d="M109.894 127.922C109.853 127.922 109.807 127.904 109.772 127.87C109.708 127.806 109.708 127.695 109.772 127.632L113.105 124.298C113.169 124.234 113.28 124.234 113.343 124.298C113.407 124.362 113.407 124.472 113.343 124.536L110.01 127.87C109.975 127.904 109.934 127.922 109.894 127.922Z" fill="#054375"/>
<path d="M93.6317 127.922C93.591 127.922 93.5446 127.904 93.5097 127.87C93.4458 127.806 93.4458 127.695 93.5097 127.632L96.8433 124.298C96.9072 124.234 97.0175 124.234 97.0814 124.298C97.1453 124.362 97.1453 124.472 97.0814 124.536L93.7478 127.87C93.713 127.904 93.6723 127.922 93.6317 127.922Z" fill="#054375"/>
<path d="M126.156 127.926C126.115 127.926 126.068 127.909 126.034 127.874C125.97 127.81 125.97 127.7 126.034 127.636L133.707 119.962C133.771 119.898 133.881 119.898 133.945 119.962C134.009 120.026 134.009 120.136 133.945 120.2L126.272 127.874C126.237 127.909 126.196 127.926 126.156 127.926Z" fill="#054375"/>
<path d="M81.4366 127.922C81.396 127.922 81.3495 127.904 81.3146 127.87C81.2508 127.806 81.2508 127.695 81.3146 127.632L84.6482 124.298C84.7121 124.234 84.8225 124.234 84.8864 124.298C84.9502 124.362 84.9502 124.472 84.8864 124.536L81.5528 127.87C81.5179 127.904 81.4773 127.922 81.4366 127.922Z" fill="#054375"/>
<path d="M113.959 127.922C113.918 127.922 113.872 127.904 113.837 127.87C113.773 127.806 113.773 127.695 113.837 127.632L117.171 124.298C117.235 124.234 117.345 124.234 117.409 124.298C117.473 124.362 117.473 124.472 117.409 124.536L114.075 127.87C114.04 127.904 114 127.922 113.959 127.922Z" fill="#054375"/>
<path d="M97.6972 127.922C97.6566 127.922 97.6101 127.904 97.5753 127.87C97.5114 127.806 97.5114 127.695 97.5753 127.632L100.909 124.298C100.973 124.234 101.083 124.234 101.147 124.298C101.211 124.362 101.211 124.472 101.147 124.536L97.8134 127.87C97.7785 127.904 97.7379 127.922 97.6972 127.922Z" fill="#054375"/>
<path d="M130.221 127.922C130.18 127.922 130.134 127.904 130.099 127.87C130.035 127.806 130.035 127.695 130.099 127.632L133.433 124.298C133.496 124.234 133.607 124.234 133.671 124.298C133.735 124.362 133.735 124.472 133.671 124.536L130.337 127.87C130.302 127.904 130.262 127.922 130.221 127.922Z" fill="#054375"/>
<path d="M130.221 120.148C130.18 120.148 130.134 120.131 130.099 120.096C130.035 120.032 130.035 119.922 130.099 119.858L133.433 116.524C133.496 116.461 133.607 116.461 133.671 116.524C133.735 116.588 133.735 116.699 133.671 116.763L130.337 120.096C130.302 120.131 130.262 120.148 130.221 120.148Z" fill="#054375"/>
<path d="M130.221 88.7891C130.18 88.7891 130.134 88.7717 130.099 88.7368C130.035 88.6729 130.035 88.5626 130.099 88.4987L133.433 85.1651C133.496 85.1012 133.607 85.1012 133.671 85.1651C133.735 85.229 133.735 85.3393 133.671 85.4032L130.337 88.7368C130.302 88.7717 130.262 88.7891 130.221 88.7891Z" fill="#054375"/>
<path d="M130.221 62.875C130.18 62.875 130.134 62.8576 130.099 62.8227C130.035 62.7589 130.035 62.6485 130.099 62.5846L133.433 59.251C133.496 59.1872 133.607 59.1872 133.671 59.251C133.735 59.3149 133.735 59.4253 133.671 59.4892L130.337 62.8227C130.302 62.8576 130.262 62.875 130.221 62.875Z" fill="#054375"/>
<path d="M130.221 103.906C130.18 103.906 130.134 103.889 130.099 103.854C130.035 103.79 130.035 103.68 130.099 103.616L133.433 100.282C133.496 100.218 133.607 100.218 133.671 100.282C133.735 100.346 133.735 100.457 133.671 100.52L130.337 103.854C130.302 103.889 130.262 103.906 130.221 103.906Z" fill="#054375"/>
<path d="M130.221 72.5469C130.18 72.5469 130.134 72.5295 130.099 72.4946C130.035 72.4307 130.035 72.3204 130.099 72.2565L133.433 68.9229C133.496 68.859 133.607 68.859 133.671 68.9229C133.735 68.9868 133.735 69.0971 133.671 69.161L130.337 72.4946C130.302 72.5295 130.262 72.5469 130.221 72.5469Z" fill="#054375"/>
<path d="M130.221 47.5703C130.18 47.5703 130.134 47.5529 130.099 47.5181C130.035 47.4542 130.035 47.3438 130.099 47.2799L133.433 43.9464C133.496 43.8825 133.607 43.8825 133.671 43.9464C133.735 44.0102 133.735 44.1206 133.671 44.1845L130.337 47.5181C130.302 47.5529 130.262 47.5703 130.221 47.5703Z" fill="#054375"/>
<path d="M130.221 114.734C130.18 114.734 130.134 114.717 130.099 114.682C130.035 114.618 130.035 114.508 130.099 114.444L133.433 111.11C133.496 111.047 133.607 111.047 133.671 111.11C133.735 111.174 133.735 111.285 133.671 111.349L130.337 114.682C130.302 114.717 130.262 114.734 130.221 114.734Z" fill="#054375"/>
<path d="M130.221 83.375C130.18 83.375 130.134 83.3576 130.099 83.3227C130.035 83.2589 130.035 83.1485 130.099 83.0846L133.433 79.751C133.496 79.6872 133.607 79.6872 133.671 79.751C133.735 79.8149 133.735 79.9253 133.671 79.9892L130.337 83.3227C130.302 83.3576 130.262 83.375 130.221 83.375Z" fill="#054375"/>
<path d="M130.221 58.3984C130.18 58.3984 130.134 58.381 130.099 58.3462C130.035 58.2823 130.035 58.172 130.099 58.1081L133.433 54.7745C133.496 54.7106 133.607 54.7106 133.671 54.7745C133.735 54.8384 133.735 54.9487 133.671 55.0126L130.337 58.3462C130.302 58.381 130.262 58.3984 130.221 58.3984Z" fill="#054375"/>
<path d="M130.221 98.4922C130.18 98.4922 130.134 98.4748 130.099 98.4399C130.035 98.376 130.035 98.2657 130.099 98.2018L133.433 94.8682C133.496 94.8043 133.607 94.8043 133.671 94.8682C133.735 94.9321 133.735 95.0425 133.671 95.1063L130.337 98.4399C130.302 98.4748 130.262 98.4922 130.221 98.4922Z" fill="#054375"/>
<path d="M130.221 67.1328C130.18 67.1328 130.134 67.1154 130.099 67.0806C130.035 67.0167 130.035 66.9063 130.099 66.8424L133.433 63.5089C133.496 63.445 133.607 63.445 133.671 63.5089C133.735 63.5727 133.735 63.6831 133.671 63.747L130.337 67.0806C130.302 67.1154 130.262 67.1328 130.221 67.1328Z" fill="#054375"/>
<path d="M130.221 42.1563C130.18 42.1563 130.134 42.1388 130.099 42.104C130.035 42.0401 130.035 41.9298 130.099 41.8659L133.433 38.5323C133.496 38.4684 133.607 38.4684 133.671 38.5323C133.735 38.5962 133.735 38.7065 133.671 38.7704L130.337 42.104C130.302 42.1388 130.262 42.1563 130.221 42.1563Z" fill="#054375"/>
<path d="M130.221 109.32C130.18 109.32 130.134 109.303 130.099 109.268C130.035 109.204 130.035 109.094 130.099 109.03L133.433 105.696C133.496 105.632 133.607 105.632 133.671 105.696C133.735 105.76 133.735 105.871 133.671 105.934L130.337 109.268C130.302 109.303 130.262 109.32 130.221 109.32Z" fill="#054375"/>
<path d="M130.221 77.9609C130.18 77.9609 130.134 77.9435 130.099 77.9087C130.035 77.8448 130.035 77.7345 130.099 77.6706L133.433 74.337C133.496 74.2731 133.607 74.2731 133.671 74.337C133.735 74.4009 133.735 74.5112 133.671 74.5751L130.337 77.9087C130.302 77.9435 130.262 77.9609 130.221 77.9609Z" fill="#054375"/>
<path d="M130.221 52.9844C130.18 52.9844 130.134 52.967 130.099 52.9321C130.035 52.8682 130.035 52.7579 130.099 52.694L133.433 49.3604C133.496 49.2965 133.607 49.2965 133.671 49.3604C133.735 49.4243 133.735 49.5346 133.671 49.5985L130.337 52.9321C130.302 52.967 130.262 52.9844 130.221 52.9844Z" fill="#054375"/>
<path d="M130.221 93.0781C130.18 93.0781 130.134 93.0607 130.099 93.0259C130.035 92.962 130.035 92.8516 130.099 92.7878L133.433 89.4542C133.496 89.3903 133.607 89.3903 133.671 89.4542C133.735 89.518 133.735 89.6284 133.671 89.6923L130.337 93.0259C130.302 93.0607 130.262 93.0781 130.221 93.0781Z" fill="#054375"/>
<path d="M130.221 36.7422C130.18 36.7422 130.134 36.7248 130.099 36.6899C130.035 36.626 130.035 36.5157 130.099 36.4518L133.433 33.1182C133.496 33.0543 133.607 33.0543 133.671 33.1182C133.735 33.1821 133.735 33.2925 133.671 33.3563L130.337 36.6899C130.302 36.7248 130.262 36.7422 130.221 36.7422Z" fill="#054375"/>
<path d="M72.4689 111.857L72.4689 97.3906C72.4689 96.8383 72.0212 96.3906 71.4689 96.3906L69.4964 96.3906C68.9442 96.3906 68.4964 96.8383 68.4964 97.3906L68.4964 111.857C68.4964 112.41 68.9441 112.857 69.4964 112.857L71.4689 112.857C72.0212 112.857 72.4689 112.41 72.4689 111.857Z" fill="#7CDDFD" stroke="#054375"/>
<path d="M85.6628 111.857L85.6628 97.3906C85.6628 96.8383 85.2151 96.3906 84.6628 96.3906L82.6904 96.3906C82.1381 96.3906 81.6904 96.8383 81.6904 97.3906L81.6904 111.857C81.6904 112.41 82.1381 112.857 82.6904 112.857L84.6628 112.857C85.2151 112.857 85.6628 112.41 85.6628 111.857Z" fill="#7CDDFD" stroke="#054375"/>
<path d="M112.03 111.857L112.03 97.3906C112.03 96.8383 111.582 96.3906 111.03 96.3906L109.058 96.3906C108.505 96.3906 108.058 96.8383 108.058 97.3906L108.058 111.857C108.058 112.41 108.505 112.857 109.058 112.857L111.03 112.857C111.582 112.857 112.03 112.41 112.03 111.857Z" fill="#7CDDFD" stroke="#054375"/>
<path d="M118.637 111.857L118.637 97.3906C118.637 96.8383 118.189 96.3906 117.637 96.3906L115.665 96.3906C115.112 96.3906 114.665 96.8383 114.665 97.3906L114.665 111.857C114.665 112.41 115.112 112.857 115.665 112.857L117.637 112.857C118.189 112.857 118.637 112.41 118.637 111.857Z" fill="#7CDDFD" stroke="#054375"/>
<path d="M79.0557 109.467L79.0557 97.3906C79.0557 96.8383 78.6079 96.3906 78.0557 96.3906L76.1036 96.3906C75.5513 96.3906 75.1036 96.8383 75.1036 97.3906L75.1036 109.467C75.1036 110.019 75.5513 110.467 76.1036 110.467L78.0557 110.467C78.6079 110.467 79.0557 110.019 79.0557 109.467Z" fill="#E1F7FF" stroke="#054375"/>
<path d="M92.2495 109.467L92.2495 97.3906C92.2495 96.8383 91.8018 96.3906 91.2495 96.3906L89.2975 96.3906C88.7452 96.3906 88.2975 96.8383 88.2975 97.3906L88.2975 109.467C88.2975 110.019 88.7452 110.467 89.2975 110.467L91.2495 110.467C91.8018 110.467 92.2495 110.019 92.2495 109.467Z" fill="#E1F7FF" stroke="#054375"/>
<path d="M98.8363 109.467L98.8363 97.3906C98.8363 96.8383 98.3886 96.3906 97.8363 96.3906L95.8843 96.3906C95.332 96.3906 94.8843 96.8383 94.8843 97.3906L94.8843 109.467C94.8843 110.019 95.332 110.467 95.8843 110.467L97.8363 110.467C98.3886 110.467 98.8363 110.019 98.8363 109.467Z" fill="#E1F7FF" stroke="#054375"/>
<path d="M105.423 109.467L105.423 97.3906C105.423 96.8383 104.975 96.3906 104.423 96.3906L102.471 96.3906C101.919 96.3906 101.471 96.8383 101.471 97.3906L101.471 109.467C101.471 110.019 101.919 110.467 102.471 110.467L104.423 110.467C104.975 110.467 105.423 110.019 105.423 109.467Z" fill="#E1F7FF" stroke="#054375"/>
<path d="M117.556 38.4219L87.9393 38.4219C87.387 38.4219 86.9393 38.8696 86.9393 39.4219L86.9393 41.3739C86.9393 41.9262 87.387 42.3739 87.9393 42.3739L117.556 42.3739C118.108 42.3739 118.556 41.9262 118.556 41.3739L118.556 39.4219C118.556 38.8696 118.108 38.4219 117.556 38.4219Z" fill="#7CDDFD" stroke="#054375"/>
<path d="M117.556 58.1875L66.8618 58.1875C66.3095 58.1875 65.8618 57.7398 65.8618 57.1875L65.8618 55.2355C65.8618 54.6832 66.3095 54.2355 66.8618 54.2355L117.556 54.2355C118.108 54.2355 118.556 54.6832 118.556 55.2355L118.556 57.1875C118.556 57.7398 118.108 58.1875 117.556 58.1875Z" fill="#7CDDFD" stroke="#054375"/>
<path d="M112.945 31.8359L87.9393 31.8359C87.387 31.8359 86.9393 32.2837 86.9393 32.8359L86.9393 34.788C86.9393 35.3403 87.387 35.788 87.9393 35.788L112.945 35.788C113.497 35.788 113.945 35.3403 113.945 34.788L113.945 32.8359C113.945 32.2837 113.497 31.8359 112.945 31.8359Z" fill="#E1F7FF" stroke="#054375"/>
<path d="M109.652 64.7734L66.8618 64.7734C66.3095 64.7734 65.8618 64.3257 65.8618 63.7734L65.8618 61.8214C65.8618 61.2691 66.3095 60.8214 66.8618 60.8214L109.652 60.8214C110.204 60.8214 110.652 61.2691 110.652 61.8214L110.652 63.7734C110.652 64.3257 110.204 64.7734 109.652 64.7734Z" fill="#E1F7FF" stroke="#054375"/>
<circle cx="75.0832" cy="37.7713" r="7.90408" fill="#F7E06E"/>
<circle cx="73.7591" cy="37.1005" r="7.39736" fill="#F9EC76" stroke="#054375"/>
<path fill-rule="evenodd" clip-rule="evenodd" d="M73.2339 40.6223V41.4555C73.2339 41.5869 73.3405 41.6935 73.472 41.6935H73.71C73.8415 41.6935 73.948 41.5869 73.948 41.4555V40.6187C74.3219 40.6076 74.7953 40.5633 75.217 40.3862C75.5123 40.2622 75.7967 40.0679 76.0052 39.7647C76.2145 39.4604 76.3284 39.074 76.3284 38.599C76.3284 38.124 76.2145 37.7376 76.0052 37.4333C75.7967 37.1301 75.5123 36.9358 75.217 36.8118C74.7953 36.6347 74.3219 36.5903 73.948 36.5793V33.9572L75.7334 33.9572C75.8648 33.9572 75.9714 33.8506 75.9714 33.7191L75.9714 33.4811C75.9714 33.3496 75.8648 33.2431 75.7334 33.2431L73.948 33.2431V32.4099C73.948 32.2784 73.8415 32.1719 73.71 32.1719H73.472C73.3405 32.1719 73.2339 32.2784 73.2339 32.4099V33.2495C72.8431 33.2641 72.3905 33.3121 71.9905 33.4688C71.6879 33.5873 71.3971 33.7742 71.1836 34.0698C70.9688 34.3674 70.8535 34.7458 70.8535 35.2089C70.8535 35.6725 70.9688 36.0536 71.1757 36.3578C71.3812 36.66 71.6609 36.8627 71.9531 36.9981C72.3776 37.1949 72.8526 37.2602 73.2339 37.2808V39.9082H71.4486C71.3171 39.9082 71.2106 40.0148 71.2106 40.1462V40.3843C71.2106 40.5158 71.3171 40.6223 71.4486 40.6223H73.2339ZM73.948 39.9038C74.2781 39.8929 74.6364 39.8555 74.9405 39.7278C75.1411 39.6435 75.3031 39.5254 75.4168 39.36C75.5299 39.1956 75.6143 38.9571 75.6143 38.599C75.6143 38.2409 75.5299 38.0024 75.4168 37.838C75.3031 37.6726 75.1411 37.5544 74.9405 37.4702C74.6364 37.3425 74.2781 37.3051 73.948 37.2942V39.9038ZM73.2339 36.5653V33.9646C72.8921 33.9785 72.5447 34.0186 72.251 34.1337C72.0401 34.2163 71.8759 34.331 71.7626 34.4879C71.6508 34.6428 71.5676 34.8677 71.5676 35.2089C71.5676 35.5498 71.6507 35.7864 71.7662 35.9562C71.883 36.128 72.0496 36.2557 72.2534 36.3502C72.5551 36.49 72.9119 36.5453 73.2339 36.5653Z" fill="#054375"/>
</svg>
