<svg width="320" height="248" viewBox="0 0 320 248" fill="none" xmlns="http://www.w3.org/2000/svg">
<path opacity="0.3" d="M259.679 129.137C261.232 127.566 261.232 125.02 259.679 123.449L150.393 12.9292C148.685 11.2019 145.861 11.4003 144.406 13.3499L104.141 67.2889C102.946 68.8903 103.1 71.1378 104.503 72.5566L154.71 123.329C156.263 124.9 156.263 127.447 154.71 129.018L98.106 186.26C96.3987 187.987 96.5939 190.841 98.5201 192.314L151.962 233.164C153.546 234.375 155.77 234.219 157.173 232.8L259.679 129.137Z" fill="#1090F9"/>
<path opacity="0.3" d="M258.888 132.632C260.053 133.81 260.053 135.72 258.888 136.898L156.383 240.561C155.33 241.625 153.662 241.742 152.474 240.834L99.0323 199.984C97.5877 198.879 97.4412 196.739 98.7217 195.444L155.326 138.201C157.267 136.238 157.267 133.054 155.326 131.091L105.119 80.3177C104.067 79.2536 103.951 77.568 104.848 76.3669L145.112 22.428C146.203 20.9658 148.321 20.8169 149.602 22.1124L258.888 132.632Z" stroke="#05BDFB" stroke-width="2"/>
<path opacity="0.3" d="M201.259 26.6185C202.364 26.6185 203.259 27.514 203.259 28.6185L203.259 31.3717C203.259 32.2622 202.472 32.9472 201.59 32.8243C200.865 32.7233 200.326 32.1035 200.326 31.3717L200.326 31.1828C200.326 30.282 199.596 29.5517 198.695 29.5517L198.506 29.5517C197.615 29.5517 196.93 28.7647 197.053 27.8827C197.154 27.1579 197.774 26.6185 198.506 26.6185L201.259 26.6185Z" fill="#1090F9"/>
<path opacity="0.3" d="M251.27 71.3223C251.823 72.2789 251.495 73.5021 250.538 74.0544L246.454 76.4122C245.403 77.0194 244.057 76.5569 243.601 75.4315L243.56 75.3319C243.186 74.4071 243.55 73.3474 244.414 72.8484L244.929 72.5513C245.885 71.999 246.213 70.7758 245.661 69.8193L245.356 69.2918C244.749 68.2401 245.211 66.8945 246.337 66.4383L246.436 66.3979C247.361 66.023 248.421 66.3871 248.92 67.2514L251.27 71.3223Z" fill="#1090F9"/>
<path opacity="0.3" d="M153.408 211.678C153.96 212.634 153.632 213.857 152.676 214.41L148.592 216.767C147.54 217.375 146.195 216.912 145.739 215.787L145.698 215.687C145.323 214.762 145.687 213.703 146.552 213.204L147.066 212.907C148.023 212.354 148.351 211.131 147.798 210.174L147.494 209.647C146.887 208.595 147.349 207.25 148.474 206.793L148.574 206.753C149.499 206.378 150.559 206.742 151.058 207.607L153.408 211.678Z" fill="#1090F9"/>
<path opacity="0.3" d="M249.741 168.593C248.96 167.812 248.96 166.545 249.741 165.764L257.143 158.363C258.024 157.482 259.487 157.612 260.199 158.635L260.929 159.685C261.482 160.48 261.386 161.557 260.702 162.241L258.246 164.696C257.465 165.478 257.465 166.744 258.246 167.525L259.7 168.979C260.542 169.82 260.467 171.205 259.54 171.951L257.37 173.697C256.574 174.337 255.424 174.275 254.702 173.553L249.741 168.593Z" fill="#1090F9"/>
<rect x="92.4624" y="56.4624" width="103.806" height="150.538" rx="4" fill="white" stroke="#054375" stroke-width="2"/>
<rect opacity="0.14" x="93.2258" y="59.871" width="98.7527" height="142.839" rx="1" fill="#054375"/>
<rect x="81" y="45" width="103.806" height="150.538" rx="4" fill="white" stroke="#054375" stroke-width="2"/>
<path d="M96.129 203.876C96.0673 203.876 95.9967 203.85 95.9438 203.797C95.8468 203.7 95.8468 203.532 95.9438 203.435L101.005 198.374C101.102 198.277 101.269 198.277 101.366 198.374C101.463 198.471 101.463 198.639 101.366 198.736L96.3054 203.797C96.2525 203.85 96.1907 203.876 96.129 203.876Z" fill="#054375"/>
<path d="M145.505 203.876C145.443 203.876 145.372 203.85 145.32 203.797C145.223 203.7 145.223 203.532 145.32 203.435L150.381 198.374C150.478 198.277 150.645 198.277 150.742 198.374C150.839 198.471 150.839 198.639 150.742 198.736L145.681 203.797C145.628 203.85 145.566 203.876 145.505 203.876Z" fill="#054375"/>
<path d="M120.818 203.876C120.756 203.876 120.686 203.85 120.633 203.797C120.536 203.7 120.536 203.532 120.633 203.435L125.694 198.374C125.791 198.277 125.958 198.277 126.055 198.374C126.152 198.471 126.152 198.639 126.055 198.736L120.994 203.797C120.941 203.85 120.88 203.876 120.818 203.876Z" fill="#054375"/>
<path d="M170.194 203.876C170.132 203.876 170.061 203.85 170.009 203.797C169.912 203.7 169.912 203.532 170.009 203.435L175.07 198.374C175.167 198.277 175.334 198.277 175.431 198.374C175.528 198.471 175.528 198.639 175.431 198.736L170.37 203.797C170.317 203.85 170.255 203.876 170.194 203.876Z" fill="#054375"/>
<path d="M102.301 203.876C102.24 203.876 102.169 203.85 102.116 203.797C102.019 203.7 102.019 203.532 102.116 203.435L107.177 198.374C107.274 198.277 107.442 198.277 107.539 198.374C107.636 198.471 107.636 198.639 107.539 198.736L102.478 203.797C102.425 203.85 102.363 203.876 102.301 203.876Z" fill="#054375"/>
<path d="M151.677 203.876C151.615 203.876 151.545 203.85 151.492 203.797C151.395 203.7 151.395 203.532 151.492 203.435L156.553 198.374C156.65 198.277 156.818 198.277 156.915 198.374C157.012 198.471 157.012 198.639 156.915 198.736L151.853 203.797C151.801 203.85 151.739 203.876 151.677 203.876Z" fill="#054375"/>
<path d="M126.988 203.876C126.926 203.876 126.856 203.85 126.803 203.797C126.706 203.7 126.706 203.532 126.803 203.435L131.864 198.374C131.961 198.277 132.129 198.277 132.226 198.374C132.323 198.471 132.323 198.639 132.226 198.736L127.165 203.797C127.112 203.85 127.05 203.876 126.988 203.876Z" fill="#054375"/>
<path d="M176.366 203.876C176.304 203.876 176.234 203.85 176.181 203.797C176.084 203.7 176.084 203.532 176.181 203.435L181.242 198.374C181.339 198.277 181.506 198.277 181.603 198.374C181.7 198.471 181.7 198.639 181.603 198.736L176.542 203.797C176.489 203.85 176.428 203.876 176.366 203.876Z" fill="#054375"/>
<path d="M108.473 203.876C108.412 203.876 108.341 203.85 108.288 203.797C108.191 203.7 108.191 203.532 108.288 203.435L113.349 198.374C113.446 198.277 113.614 198.277 113.711 198.374C113.808 198.471 113.808 198.639 113.711 198.736L108.65 203.797C108.597 203.85 108.535 203.876 108.473 203.876Z" fill="#054375"/>
<path d="M157.849 203.876C157.788 203.876 157.717 203.85 157.664 203.797C157.567 203.7 157.567 203.532 157.664 203.435L162.725 198.374C162.822 198.277 162.99 198.277 163.087 198.374C163.184 198.471 163.184 198.639 163.087 198.736L158.026 203.797C157.973 203.85 157.911 203.876 157.849 203.876Z" fill="#054375"/>
<path d="M133.161 203.876C133.099 203.876 133.028 203.85 132.975 203.797C132.878 203.7 132.878 203.532 132.975 203.435L138.036 198.374C138.133 198.277 138.301 198.277 138.398 198.374C138.495 198.471 138.495 198.639 138.398 198.736L133.337 203.797C133.284 203.85 133.222 203.876 133.161 203.876Z" fill="#054375"/>
<path d="M182.538 203.876C182.476 203.876 182.406 203.849 182.353 203.796C182.256 203.699 182.256 203.532 182.353 203.435L194.003 191.784C194.1 191.687 194.267 191.687 194.364 191.784C194.461 191.881 194.461 192.049 194.364 192.146L182.715 203.796C182.662 203.849 182.6 203.876 182.538 203.876Z" fill="#054375"/>
<path d="M114.646 203.876C114.584 203.876 114.514 203.85 114.461 203.797C114.364 203.7 114.364 203.532 114.461 203.435L119.522 198.374C119.619 198.277 119.786 198.277 119.883 198.374C119.98 198.471 119.98 198.639 119.883 198.736L114.822 203.797C114.769 203.85 114.708 203.876 114.646 203.876Z" fill="#054375"/>
<path d="M164.022 203.876C163.96 203.876 163.889 203.85 163.836 203.797C163.739 203.7 163.739 203.532 163.836 203.435L168.897 198.374C168.994 198.277 169.162 198.277 169.259 198.374C169.356 198.471 169.356 198.639 169.259 198.736L164.198 203.797C164.145 203.85 164.083 203.876 164.022 203.876Z" fill="#054375"/>
<path d="M139.333 203.876C139.271 203.876 139.2 203.85 139.147 203.797C139.05 203.7 139.05 203.532 139.147 203.435L144.209 198.374C144.306 198.277 144.473 198.277 144.57 198.374C144.667 198.471 144.667 198.639 144.57 198.736L139.509 203.797C139.456 203.85 139.394 203.876 139.333 203.876Z" fill="#054375"/>
<path d="M188.71 203.876C188.649 203.876 188.578 203.85 188.525 203.797C188.428 203.7 188.428 203.532 188.525 203.435L193.586 198.374C193.683 198.277 193.851 198.277 193.948 198.374C194.045 198.471 194.045 198.639 193.948 198.736L188.887 203.797C188.834 203.85 188.772 203.876 188.71 203.876Z" fill="#054375"/>
<path d="M188.71 192.071C188.649 192.071 188.578 192.044 188.525 191.991C188.428 191.894 188.428 191.727 188.525 191.63L193.586 186.569C193.683 186.472 193.851 186.472 193.948 186.569C194.045 186.666 194.045 186.833 193.948 186.93L188.887 191.991C188.834 192.044 188.772 192.071 188.71 192.071Z" fill="#054375"/>
<path d="M188.71 144.458C188.649 144.458 188.578 144.432 188.525 144.379C188.428 144.282 188.428 144.114 188.525 144.017L193.586 138.956C193.683 138.859 193.851 138.859 193.948 138.956C194.045 139.053 194.045 139.221 193.948 139.318L188.887 144.379C188.834 144.432 188.772 144.458 188.71 144.458Z" fill="#054375"/>
<path d="M188.71 105.123C188.649 105.123 188.578 105.096 188.525 105.043C188.428 104.946 188.428 104.779 188.525 104.682L193.586 99.6207C193.683 99.5237 193.851 99.5237 193.948 99.6207C194.045 99.7177 194.045 99.8852 193.948 99.9822L188.887 105.043C188.834 105.096 188.772 105.123 188.71 105.123Z" fill="#054375"/>
<path d="M188.71 167.411C188.649 167.411 188.578 167.385 188.525 167.332C188.428 167.235 188.428 167.067 188.525 166.97L193.586 161.909C193.683 161.812 193.851 161.812 193.948 161.909C194.045 162.006 194.045 162.174 193.948 162.271L188.887 167.332C188.834 167.385 188.772 167.411 188.71 167.411Z" fill="#054375"/>
<path d="M188.71 119.798C188.649 119.798 188.578 119.772 188.525 119.719C188.428 119.622 188.428 119.455 188.525 119.358L193.586 114.297C193.683 114.2 193.851 114.2 193.948 114.297C194.045 114.394 194.045 114.561 193.948 114.658L188.887 119.719C188.834 119.772 188.772 119.798 188.71 119.798Z" fill="#054375"/>
<path d="M188.71 81.8846C188.649 81.8846 188.578 81.8582 188.525 81.8053C188.428 81.7083 188.428 81.5407 188.525 81.4437L193.586 76.3827C193.683 76.2857 193.851 76.2857 193.948 76.3827C194.045 76.4797 194.045 76.6472 193.948 76.7442L188.887 81.8053C188.834 81.8582 188.772 81.8846 188.71 81.8846Z" fill="#054375"/>
<path d="M188.71 183.85C188.649 183.85 188.578 183.824 188.525 183.771C188.428 183.674 188.428 183.506 188.525 183.409L193.586 178.348C193.683 178.251 193.851 178.251 193.948 178.348C194.045 178.445 194.045 178.613 193.948 178.71L188.887 183.771C188.834 183.824 188.772 183.85 188.71 183.85Z" fill="#054375"/>
<path d="M188.71 136.238C188.649 136.238 188.578 136.211 188.525 136.158C188.428 136.061 188.428 135.894 188.525 135.797L193.586 130.736C193.683 130.639 193.851 130.639 193.948 130.736C194.045 130.833 194.045 131 193.948 131.097L188.887 136.158C188.834 136.211 188.772 136.238 188.71 136.238Z" fill="#054375"/>
<path d="M188.71 98.3237C188.649 98.3237 188.578 98.2972 188.525 98.2443C188.428 98.1474 188.428 97.9798 188.525 97.8828L193.586 92.8218C193.683 92.7248 193.851 92.7248 193.948 92.8218C194.045 92.9188 194.045 93.0863 193.948 93.1833L188.887 98.2443C188.834 98.2972 188.772 98.3237 188.71 98.3237Z" fill="#054375"/>
<path d="M188.71 159.192C188.649 159.192 188.578 159.166 188.525 159.113C188.428 159.016 188.428 158.849 188.525 158.752L193.586 153.691C193.683 153.594 193.851 153.594 193.948 153.691C194.045 153.788 194.045 153.955 193.948 154.052L188.887 159.113C188.834 159.166 188.772 159.192 188.71 159.192Z" fill="#054375"/>
<path d="M188.71 111.58C188.649 111.58 188.578 111.553 188.525 111.501C188.428 111.404 188.428 111.236 188.525 111.139L193.586 106.078C193.683 105.981 193.851 105.981 193.948 106.078C194.045 106.175 194.045 106.343 193.948 106.439L188.887 111.501C188.834 111.553 188.772 111.58 188.71 111.58Z" fill="#054375"/>
<path d="M188.71 73.666C188.649 73.666 188.578 73.6396 188.525 73.5867C188.428 73.4897 188.428 73.3222 188.525 73.2252L193.586 68.1641C193.683 68.0671 193.851 68.0671 193.948 68.1641C194.045 68.2611 194.045 68.4286 193.948 68.5256L188.887 73.5867C188.834 73.6396 188.772 73.666 188.71 73.666Z" fill="#054375"/>
<path d="M188.71 175.632C188.649 175.632 188.578 175.605 188.525 175.552C188.428 175.455 188.428 175.288 188.525 175.191L193.586 170.13C193.683 170.033 193.851 170.033 193.948 170.13C194.045 170.227 194.045 170.394 193.948 170.491L188.887 175.552C188.834 175.605 188.772 175.632 188.71 175.632Z" fill="#054375"/>
<path d="M188.71 128.019C188.649 128.019 188.578 127.993 188.525 127.94C188.428 127.843 188.428 127.675 188.525 127.578L193.586 122.517C193.683 122.42 193.851 122.42 193.948 122.517C194.045 122.614 194.045 122.782 193.948 122.879L188.887 127.94C188.834 127.993 188.772 128.019 188.71 128.019Z" fill="#054375"/>
<path d="M188.71 90.1051C188.649 90.1051 188.578 90.0787 188.525 90.0258C188.428 89.9288 188.428 89.7613 188.525 89.6643L193.586 84.6032C193.683 84.5062 193.851 84.5062 193.948 84.6032C194.045 84.7002 194.045 84.8677 193.948 84.9647L188.887 90.0258C188.834 90.0787 188.772 90.1051 188.71 90.1051Z" fill="#054375"/>
<path d="M188.71 150.972C188.649 150.972 188.578 150.945 188.525 150.893C188.428 150.796 188.428 150.628 188.525 150.531L193.586 145.47C193.683 145.373 193.851 145.373 193.948 145.47C194.045 145.567 194.045 145.735 193.948 145.832L188.887 150.893C188.834 150.945 188.772 150.972 188.71 150.972Z" fill="#054375"/>
<path d="M188.71 65.4455C188.649 65.4455 188.578 65.4191 188.525 65.3662C188.428 65.2692 188.428 65.1016 188.525 65.0047L193.586 59.9436C193.683 59.8466 193.851 59.8466 193.948 59.9436C194.045 60.0406 194.045 60.2081 193.948 60.3051L188.887 65.3662C188.834 65.4191 188.772 65.4455 188.71 65.4455Z" fill="#054375"/>
<path d="M101.031 180L101.031 157C101.031 156.448 100.583 156 100.031 156L96 156C95.4478 156 95 156.448 95 157L95 180C95 180.552 95.4478 181 96 181L100.031 181C100.583 181 101.031 180.552 101.031 180Z" fill="#7CDDFD" stroke="#054375" stroke-width="2"/>
<path d="M121.062 180L121.062 157C121.062 156.448 120.614 156 120.062 156L116.031 156C115.479 156 115.031 156.448 115.031 157L115.031 180C115.031 180.552 115.479 181 116.031 181L120.062 181C120.614 181 121.062 180.552 121.062 180Z" fill="#7CDDFD" stroke="#054375" stroke-width="2"/>
<path d="M161.093 180L161.093 157C161.093 156.448 160.645 156 160.093 156L156.062 156C155.51 156 155.062 156.448 155.062 157L155.062 180C155.062 180.552 155.51 181 156.062 181L160.093 181C160.645 181 161.093 180.552 161.093 180Z" fill="#7CDDFD" stroke="#054375" stroke-width="2"/>
<path d="M171.124 180L171.124 157C171.124 156.448 170.676 156 170.124 156L166.093 156C165.541 156 165.093 156.448 165.093 157L165.093 180C165.093 180.552 165.541 181 166.093 181L170.124 181C170.676 181 171.124 180.552 171.124 180Z" fill="#7CDDFD" stroke="#054375" stroke-width="2"/>
<path d="M111.031 176.371L111.031 157C111.031 156.448 110.583 156 110.031 156L106.031 156C105.479 156 105.031 156.448 105.031 157L105.031 176.371C105.031 176.923 105.479 177.371 106.031 177.371L110.031 177.371C110.583 177.371 111.031 176.923 111.031 176.371Z" fill="#E1F7FF" stroke="#054375" stroke-width="2"/>
<path d="M131.062 176.371L131.062 157C131.062 156.448 130.614 156 130.062 156L126.062 156C125.51 156 125.062 156.448 125.062 157L125.062 176.371C125.062 176.923 125.51 177.371 126.062 177.371L130.062 177.371C130.614 177.371 131.062 176.923 131.062 176.371Z" fill="#E1F7FF" stroke="#054375" stroke-width="2"/>
<path d="M141.062 176.371L141.062 157C141.062 156.448 140.614 156 140.062 156L136.062 156C135.51 156 135.062 156.448 135.062 157L135.062 176.371C135.062 176.923 135.51 177.371 136.062 177.371L140.062 177.371C140.614 177.371 141.062 176.923 141.062 176.371Z" fill="#E1F7FF" stroke="#054375" stroke-width="2"/>
<path d="M151.062 176.371L151.062 157C151.062 156.448 150.614 156 150.062 156L146.062 156C145.51 156 145.062 156.448 145.062 157L145.062 176.371C145.062 176.923 145.51 177.371 146.062 177.371L150.062 177.371C150.614 177.371 151.062 176.923 151.062 176.371Z" fill="#E1F7FF" stroke="#054375" stroke-width="2"/>
<path d="M170 68L124 68C123.448 68 123 68.4477 123 69L123 73C123 73.5523 123.448 74 124 74L170 74C170.552 74 171 73.5523 171 73L171 69C171 68.4477 170.552 68 170 68Z" fill="#7CDDFD" stroke="#054375" stroke-width="2"/>
<path d="M170 98L92 98C91.4477 98 91 97.5523 91 97L91 93C91 92.4477 91.4477 92 92 92L170 92C170.552 92 171 92.4477 171 93L171 97C171 97.5523 170.552 98 170 98Z" fill="#7CDDFD" stroke="#054375" stroke-width="2"/>
<path d="M163 58L124 58C123.448 58 123 58.4477 123 59L123 63C123 63.5523 123.448 64 124 64L163 64C163.552 64 164 63.5523 164 63L164 59C164 58.4477 163.552 58 163 58Z" fill="#E1F7FF" stroke="#054375" stroke-width="2"/>
<path d="M158 108L92 108C91.4477 108 91 107.552 91 107L91 103C91 102.448 91.4477 102 92 102L158 102C158.552 102 159 102.448 159 103L159 107C159 107.552 158.552 108 158 108Z" fill="#E1F7FF" stroke="#054375" stroke-width="2"/>
<path fill-rule="evenodd" clip-rule="evenodd" d="M200.5 145.511C193.607 145.511 188.019 150.959 188.019 157.68V173.025H181.595V157.68C181.595 147.5 190.059 139.248 200.5 139.248C210.941 139.248 219.405 147.5 219.405 157.68V173.025H212.981V157.68C212.981 150.959 207.393 145.511 200.5 145.511Z" fill="#011727"/>
<circle cx="200.5" cy="196.467" r="29.5" fill="white" stroke="#054375" stroke-width="2"/>
<ellipse cx="198.988" cy="195.459" rx="22.4339" ry="22.938" fill="#D7DEE5"/>
<ellipse cx="200.5" cy="195.963" rx="22.4339" ry="22.938" fill="#40CDFC"/>
<path fill-rule="evenodd" clip-rule="evenodd" d="M203.91 193.798C205.356 192.712 206.291 190.983 206.291 189.036C206.291 185.748 203.626 183.082 200.338 183.082C197.05 183.082 194.384 185.748 194.384 189.036C194.384 190.984 195.32 192.713 196.766 193.799V206.987C196.766 208.96 198.365 210.559 200.338 210.559C202.311 210.559 203.91 208.96 203.91 206.987V193.798Z" fill="#054375"/>
<path d="M209.472 208.818C209.436 208.818 209.395 208.802 209.365 208.769C209.308 208.71 209.308 208.606 209.365 208.546L217.64 199.789C217.696 199.729 217.794 199.729 217.85 199.789C217.907 199.848 217.907 199.952 217.85 200.012L209.575 208.769C209.544 208.802 209.508 208.818 209.472 208.818Z" fill="#054375"/>
<path d="M209.467 204.785C209.433 204.785 209.393 204.771 209.363 204.741C209.309 204.688 209.309 204.596 209.363 204.543L214.119 199.784C214.174 199.73 214.268 199.73 214.323 199.784C214.377 199.837 214.377 199.929 214.323 199.983L209.566 204.741C209.537 204.771 209.502 204.785 209.467 204.785Z" fill="#054375"/>
<path d="M213.5 208.314C213.466 208.314 213.426 208.299 213.396 208.27C213.342 208.217 213.342 208.125 213.396 208.071L218.153 203.313C218.207 203.259 218.301 203.259 218.356 203.313C218.41 203.366 218.41 203.458 218.356 203.512L213.6 208.27C213.57 208.299 213.535 208.314 213.5 208.314Z" fill="#054375"/>
<circle cx="105" cy="67" r="12" fill="#F7E06E"/>
<circle cx="102.99" cy="65.9898" r="10.9898" fill="#F9EC76" stroke="#054375" stroke-width="2"/>
<path fill-rule="evenodd" clip-rule="evenodd" d="M102.193 71.3363V72.6012C102.193 72.8008 102.354 72.9626 102.554 72.9626H102.915C103.115 72.9626 103.277 72.8008 103.277 72.6012V71.3308C103.844 71.314 104.563 71.2467 105.203 70.9778C105.652 70.7895 106.083 70.4945 106.4 70.0342C106.718 69.5722 106.891 68.9856 106.891 68.2645C106.891 67.5433 106.718 66.9567 106.4 66.4947C106.083 66.0344 105.652 65.7394 105.203 65.5511C104.563 65.2822 103.844 65.2149 103.277 65.1981V61.2173L105.987 61.2173C106.187 61.2173 106.349 61.0555 106.349 60.8559L106.349 60.4945C106.349 60.2949 106.187 60.1331 105.987 60.1331L103.277 60.1331V58.8682C103.277 58.6686 103.115 58.5068 102.915 58.5068H102.554C102.354 58.5068 102.193 58.6686 102.193 58.8682V60.1428C101.599 60.1651 100.912 60.2379 100.305 60.4757C99.8454 60.6557 99.4039 60.9394 99.0798 61.3883C98.7536 61.8401 98.5786 62.4145 98.5786 63.1177C98.5786 63.8215 98.7537 64.4 99.0677 64.8619C99.3797 65.3207 99.8044 65.6284 100.248 65.834C100.893 66.1327 101.614 66.2319 102.193 66.2632V70.2521H99.4821C99.2825 70.2521 99.1207 70.4139 99.1207 70.6135V70.9749C99.1207 71.1745 99.2825 71.3363 99.4821 71.3363H102.193ZM103.277 70.2454C103.778 70.2288 104.322 70.1721 104.783 69.9782C105.088 69.8503 105.334 69.6709 105.507 69.4198C105.678 69.1703 105.806 68.8082 105.806 68.2645C105.806 67.7208 105.678 67.3587 105.507 67.1091C105.334 66.858 105.088 66.6786 104.783 66.5507C104.322 66.3568 103.778 66.3001 103.277 66.2835V70.2454ZM102.193 65.177V61.2285C101.674 61.2497 101.146 61.3105 100.7 61.4852C100.38 61.6106 100.131 61.7848 99.9588 62.023C99.789 62.2581 99.6628 62.5996 99.6628 63.1177C99.6628 63.6352 99.7889 63.9944 99.9642 64.2522C100.142 64.5131 100.395 64.7069 100.704 64.8503C101.162 65.0626 101.704 65.1465 102.193 65.177Z" fill="#054375"/>
</svg>
