<?xml version="1.0" encoding="UTF-8"?>
<svg id="homem" xmlns="http://www.w3.org/2000/svg" width="191.79" height="259.57" viewBox="0 0 191.79 259.57">
  <path d="m186.56,126.24c1.55-1.58,1.55-4.11,0-5.69L77.27,10.04c-1.53-1.55-4.03-1.58-5.59-.04-.15.14-.28.3-.4.46l-40.26,53.94c-1.2,1.6-1.04,3.85.36,5.27l50.21,50.77c1.55,1.58,1.55,4.11,0,5.69l-56.6,57.24c-1.71,1.73-1.51,4.58.41,6.05l53.44,40.85c1.58,1.21,3.82,1.05,5.21-.37l102.51-103.66h0Z" fill="#1090f9" isolation="isolate" opacity=".3"/>
  <path d="m76.49,19.22l109.29,110.52c1.17,1.18,1.17,3.09,0,4.27l-102.51,103.66c-1.05,1.07-2.73,1.18-3.91.27l-53.44-40.85c-1.44-1.1-1.59-3.24-.31-4.54l56.6-57.24c1.94-1.96,1.94-5.15,0-7.11l-50.21-50.78c-1.05-1.07-1.17-2.75-.27-3.95l40.26-53.94c.98-1.32,2.84-1.59,4.15-.61.12.09.23.19.34.29h.01Z" fill="none" isolation="isolate" opacity=".3" stroke="#6abbf8" stroke-width="2"/>
  <path d="m12.23,51.04c1.1,0,2,.9,2,2v2.75c0,.89-.79,1.58-1.67,1.45-.72-.1-1.26-.72-1.26-1.45v-.19c0-.9-.73-1.63-1.63-1.63h-.19c-.89,0-1.58-.79-1.45-1.67.1-.72.72-1.26,1.45-1.26,0,0,2.75,0,2.75,0Zm179.3,31.06c.55.96.22,2.18-.73,2.73l-4.08,2.36c-1.05.61-2.4.14-2.85-.98l-.04-.1c-.38-.92,0-1.98.85-2.48l.51-.3c.96-.55,1.28-1.78.73-2.73l-.3-.53c-.61-1.05-.14-2.4.98-2.85l.1-.04c.92-.37,1.98,0,2.48.85,0,0,2.35,4.07,2.35,4.07Zm-111.24,126.69c.55.96.22,2.18-.73,2.73l-4.08,2.36c-1.05.61-2.4.15-2.85-.98l-.04-.1c-.37-.93,0-1.99.85-2.48l.51-.3c.96-.55,1.28-1.77.73-2.73l-.31-.53c-.61-1.05-.14-2.4.98-2.85l.1-.04c.93-.38,1.99,0,2.48.85l2.35,4.07h.01,0Zm96.33-43.09c-.78-.78-.78-2.05,0-2.83l7.4-7.4c.88-.88,2.35-.75,3.06.27l.73,1.05c.55.79.46,1.87-.23,2.56l-2.46,2.46c-.78.78-.78,2.05,0,2.83l1.45,1.45c.84.84.77,2.23-.16,2.97l-2.17,1.75c-.8.64-1.95.58-2.67-.14l-4.96-4.96h.01Z" fill="#528ef4" isolation="isolate" opacity=".3"/>
  <path d="m69.59,32.97c.39-.12.77-.07,1.15.02.14,0,.29,0,.43,0,1.64-.29,2.74-.3,6.07-1.51.08-.03.15-.06.23-.09.14-.07.74-.36.99-.47,1.11-.51,2.28-.86,3.45-1.24.96-.29,1.85-.85,2.88-.9.45.03.93.12,1.3.38.31.18.63.34.95.5,2.44,1.15,4.85,2.38,7.2,3.7.98.57,1.99,1.07,3.03,1.51.48.23,1.05.36,1.34.84,1.12,1.32-.29,3.42-1.95,2.91-4.03-1.64-7.84-3.76-11.78-5.6-2.44,1.15-5.12,1.62-7.61,2.66-2.09.62-4.27,1.5-6.48,1.14.17.02.35.05.52.07-.73,0-1.54.11-2.2-.28-1.51-.85-1.21-3.21.48-3.65h0Z" fill="#054375" isolation="isolate" opacity=".1"/>
  <path d="m126.07,11.47c-16.15,0-29.24,13.6-29.24,30.37,0,6.94,2.25,13.33,6.01,18.44l-3.58,14.69,12.27-6.79c4.28,2.55,9.24,4.02,14.53,4.02,16.15,0,29.24-13.6,29.24-30.37s-13.09-30.37-29.24-30.37h0Z" fill="#fff"/>
  <path d="m99.26,75.75c-.17,0-.33-.05-.47-.16-.24-.19-.36-.5-.29-.8l3.5-14.35c-3.89-5.42-5.95-11.84-5.95-18.61,0-17.18,13.46-31.15,30.01-31.15s30.01,13.97,30.01,31.15-13.46,31.15-30.01,31.15c-5.09,0-10.11-1.35-14.55-3.91l-11.88,6.58c-.11.08-.24.11-.37.11h0Zm26.8-63.51c-15.69,0-28.46,13.28-28.46,29.59,0,6.56,2.03,12.78,5.86,17.98.13.19.19.42.13.64l-3.16,12.97,10.72-5.93c.24-.13.54-.13.78,0,4.27,2.56,9.16,3.91,14.14,3.92,15.69,0,28.46-13.28,28.46-29.59s-12.77-29.59-28.46-29.59h0Z" fill="#054375"/>
  <path d="m124.76,71.28c-.35-.11-.69-.06-1.03.02h-.38c-1.46-.26-2.45-.27-5.42-1.35-.07-.03-.13-.05-.21-.08-.12-.06-.66-.32-.88-.42-.99-.45-2.03-.77-3.08-1.11-.86-.26-1.65-.76-2.57-.8-.4.03-.83.11-1.16.34-.28.16-.56.3-.85.45-2.18,1.02-4.32,2.12-6.42,3.3-.87.51-1.78.95-2.7,1.35-.43.2-.94.32-1.2.75-1,1.18.26,3.05,1.74,2.6,3.6-1.46,6.99-3.35,10.51-5,2.18,1.03,4.57,1.45,6.79,2.37,1.86.55,3.81,1.34,5.78,1.02-.15.02-.31.05-.46.06.65,0,1.37.1,1.96-.25,1.35-.76,1.08-2.86-.43-3.26h.01Z" fill="none"/>
  <path d="m157.5,91.92c.69,1.74,5.96,6.34,5.96,6.34,3.33-1.52,6.3-4.85,8.4-8.1.37-.58.72-1.15,1.03-1.72,1.63-2.91,2.44-5.47,2.04-6.21-.91-1.67-2.75-.53-2.75-.53,0,0,1.61-3.39.45-4.41-1.04-.92-3.69,1.46-3.69,1.46,0,0,5.43-13.57,3.7-13.56-2.13,0-7.32,11.43-7.48,11.78.92-5.85,3.01-13.47.34-11.17-2.64,2.27-4.67,12.92-4.67,12.92,0,0-1.67-.36-2.83.89s-1.02,5.4-1.02,5.4c-.15,3.25.5,6.92.5,6.92h.02Z" fill="#e0f6fc"/>
  <path d="m164.94,82.25s1.35,3.34-1.39,3.85-5.39-2.37-5.39-2.37c0,0,.98,2.97,3.95,3.34,2.97.37,4.83-1.72,2.83-4.83h0Z" fill="#d7dee5"/>
  <path d="m166.01,86.62c.4,2.02,2.94.84,2.94.84,0,0-.98,2.79,1.11,2.89.73.04,1.32-.06,1.79-.19.37-.58.72-1.15,1.03-1.72-.06.08-1.24,1.58-2.83,1.21-1.6-.38-.07-3.39,0-3.52-.08.05-1.63,1.16-3.03.52-1.4-.65.07-4.24.14-4.39-.08.13-1.55,2.4-1.16,4.36h.01Z" fill="#d7dee5"/>
  <path d="m157.35,91.02s-7.74,7.22-15.82,14.19c-8.08,6.96-21.92,21.73-21.92,21.73-7.85-3.8-23.09-30.69-27.39-38.49-3.42,12.34-3.77,24.4,0,36.07,5.76,7.75,20.04,25.63,28.14,23.88,10.31-2.23,45.1-51.39,45.1-51.39-3.64-.79-6.3-2.84-8.11-5.98h0Z" fill="#053759"/>
  <path d="m30.69,226.88c24.01,11.98,50.48,10.84,73.97-1.47-7.73-39.55-11.18-86.39-12.44-136.99l-24.17-6.49c-6.52-1.75-13.4-1.67-19.88.24l-26.51,7.82,12.68,79.77-3.67,57.11h.02Z" fill="#054375"/>
  <path d="m14.84,227.5s1.99,4.57,3.98,7.82c1.99,3.26,1.22,6.04,2.53,9.04,1.32,3-2.43,3.21-3.53.03-1.1-3.18-.98-4.76-1.67-4.78-.69-.03-1.69,8.15-1.7,10.47-.01,2.31,1.13,7.97.38,8.96s-3.19-1.98-3.24-8c-.05-6.02-.51-5.84-.51-5.84,0,0-.29,2.37-.59,4.93-.3,2.55.06,5.58.37,7.26.31,1.68-1.32,2.73-1.94,1.88s-2.13-6.67-1.71-9.06c.41-2.39.78-6.46.78-6.46,0,0-1.64,5.59-1.87,7.01-.23,1.42,1.04,6.58-.04,7.68-.45.45-2.1.11-2.71-7.38,0,0,.12-3.71.63-6.06,0,0-1.02,1.83-1.35,4.16-.29,2.05-.33,4.18-.27,6.22s-1.72,1.98-2.14-1.58c-.42-3.56-.29-7.56.49-9.57s.93-13.27,3.41-17.69l10.71.97h-.01Z" fill="#def6fc"/>
  <path d="m35.49,108.82s-5.03,36.44-10.56,50.93c0,0-1.66,19.67-9.73,68.43,0,0-6.8,3.68-11.6-1.24,0,0-1.61-51.45,2.48-69.65,0,0,10.48-59.2,15.58-67.29,0,0,11.41,6.52,13.82,18.82h.01Zm11.13-58.41h-5.21c-.44.99-2.65,6.65,4.06,8.08,0,0,1.5,6.16,7.77,3.73-1.71-4.03-4.47-7.99-6.61-11.81h0Z" fill="#054375"/>
  <path d="m53.76,68.59l.29,7.31.1,2.45.36,8.81s8.18,4.97,17.26,1.55l.24-2.29.23-2.24.9-8.51s-19.38-7.08-19.38-7.08Z" fill="#f0fbff"/>
  <path d="m53.76,68.59l.29,7.31.1,2.45c3.88,3.57,9.89,7.52,17.85,8.07l.23-2.24.9-8.51-19.38-7.08s.01,0,0,0Z" fill="#d7dee5"/>
  <path d="m46.36,60.76c.29.85.62,1.69.97,2.52.32.75.66,1.5,1.03,2.23,8.65,17.07,39.27,17,43.32-.79,3.99-17.52,2.78-39.04,2.78-39.04l-49.1-.68s-4.68,19.41.99,35.77h0Z" fill="#f0fbff"/>
  <path d="m63.88,45.98c1.26,0,2.29-1.03,2.29-2.29s-1.03-2.29-2.29-2.29-2.29,1.03-2.29,2.29,1.03,2.29,2.29,2.29Zm20.86-2.29c0,1.26-1.03,2.29-2.29,2.29s-2.29-1.03-2.29-2.29,1.03-2.29,2.29-2.29,2.29,1.03,2.29,2.29Z" fill="#054375"/>
  <path d="m49.36,26.41s2.07,1.79,1.41,5.88c-.66,4.09-1.5,5.27-1.5,5.27,0,0,1.32,3.37.5,6.85l-.04.1c-1.37,1.04-3.25,1.68-3.98-.92,0-.03-.03-.28-.05-.62-.08-1.11-.74-2.1-1.74-2.59-2.72-1.29-8.1-4.64-8.43-11.02-.45-8.56,5.13-9.58,5.13-9.58,0,0-.6-10.33,6.1-12.19,6.7-1.86,10.89,2.1,10.89,2.1,0,0,.94-5.65,7.31-6.21,6.21-.54,7.61,4,7.61,4,0,0,.71-4.72,9.56-5.25,5.25-.31,7.88,4.44,7.88,4.44,0,0,1.3-3.35,9.19-2.32,7.11.93,9.08,13.51,1.27,15.96,0,0,5.14,1.9,2.68,7.37-2.46,5.47-8.2,3.8-8.2,3.8,0,0-6.09.33-8.43-3.91,0,0-2.79,4.02-9.38,2.79-6.59-1.23-8.6-3.8-8.6-3.8,0,0-4.35,4.02-9.27,2.57-4.92-1.45-4.73-4.65-9.9-2.72h0Z" fill="#054375"/>
  <path d="m72.08,58.44s.08,0,.12-.02h-.06s-.06.02-.06.02Z" fill="#32324c"/>
  <path d="m72.2,57.82c-.16-.02-.28-.03-.43-.05l-.25-.02-.33-.04c-.22-.02-.44-.04-.66-.07l-.65-.1c-.87-.14-1.74-.31-2.6-.55-1.73-.46-3.43-1.11-5.19-1.83-.88-.36-1.78-.74-2.71-1.12l-.19-.07c-.1-.04-.2-.08-.31-.11-.21-.07-.43-.12-.65-.17-.47-.09-.95-.12-1.42-.08-.98.07-2.01.46-2.82,1.14-.82.67-1.37,1.6-1.64,2.51-.07.23-.12.45-.16.68l-.07.43c-.04.28-.08.56-.11.83-.12,1.11-.16,2.21-.13,3.31.04,1.09.14,2.18.31,3.26s.4,2.15.71,3.2c.3,1.05.66,2.09,1.09,3.1.1.25.21.51.33.75l.17.38.09.19.04.09.02.05.03.06c.35.69.79,1.3,1.25,1.83.94,1.07,1.98,1.86,3.02,2.5s2.11,1.13,3.17,1.54c2.07.78,4.23,1.29,6.43,1.5,2.15.22,4.31.17,6.47-.06,1.08-.12,2.17-.31,3.26-.58,1.09-.27,2.2-.61,3.31-1.11.56-.25,1.12-.55,1.68-.91.56-.35,1.15-.82,1.63-1.3.97-.97,1.66-2.02,2.21-3.07.55-1.05.94-2.12,1.26-3.18.31-1.06.54-2.12.71-3.18s.26-2.13.3-3.19c.03-1.07,0-2.15-.13-3.26-.07-.56-.16-1.12-.31-1.71-.15-.59-.33-1.2-.74-1.91-.21-.35-.48-.75-.98-1.13-.25-.19-.56-.37-.92-.48-.18-.06-.36-.09-.55-.11-.09,0-.19-.02-.27-.02h-.19c-.38,0-.62.04-.9.07l-.77.09c-1.99.27-3.9.59-5.84.91l-2.88.5-1.44.26-.72.13-.36.06-.14.03h-.04.01Zm-14.69,1.88c0-.21.02-.41.05-.61v-.15c.12,0,1.79.63,2.73.96,1.87.66,3.83,1.3,5.89,1.74,1.02.23,2.07.39,3.12.5l.79.07c.27.02.53.03.79.04l.4.02h1.44c4.32,0,11.93-2.56,12.17-2.64l.06.59c.04.36.07.77.07,1.18,0,.83-.08,1.7-.21,2.56s-.33,1.72-.57,2.56c-.48,1.67-1.17,3.27-2.03,4.52-.43.62-.9,1.15-1.37,1.49-.23.18-.43.29-.71.43-.27.13-.59.26-.93.38-.68.23-1.45.41-2.26.54-.81.13-1.65.21-2.5.25-1.7.09-3.45-.02-5.16-.2-1.71-.19-3.39-.48-4.94-.93-.77-.22-1.5-.5-2.14-.81-.64-.32-1.19-.68-1.56-1.06-.19-.18-.33-.36-.44-.53v-.02l-.03-.03-.04-.07-.08-.14-.15-.28c-.11-.18-.2-.37-.29-.56-.38-.75-.7-1.54-.98-2.34-.28-.8-.52-1.62-.69-2.45-.18-.83-.31-1.67-.39-2.52-.07-.84-.09-1.68-.05-2.51v.02h.01Zm16.39-7.26h.03c.01.12,1.23.05,3.19-.16.23-.04.52-.06.83-.17.31-.09.66-.39.78-.76.22-.75-.13-1.37-.35-1.93-.51-1.18-1.04-2.42-1.59-3.73-2.29-5.27-4.33-9.48-4.55-9.39-.21.08,1.48,4.43,3.78,9.71.57,1.3,1.11,2.53,1.64,3.7.27.58.49,1.1.4,1.46-.06.35-.53.47-1.02.54-1.93.35-3.12.62-3.12.73,0,0-.02,0-.02,0Zm-17.56-13.84c.51.33,1.96-.5,3.81-1,1.85-.54,3.52-.57,3.77-1.12.1-.26-.25-.63-1.05-.86-.78-.24-2.01-.28-3.28.08s-2.29,1.02-2.82,1.63c-.54.61-.65,1.11-.43,1.27Zm24.52-1.98c.28.54,1.95.53,3.81,1.02,1.88.45,3.34,1.25,3.84.89.21-.18.1-.67-.49-1.26-.56-.59-1.61-1.24-2.89-1.55-1.28-.31-2.49-.24-3.26.02-.78.26-1.11.64-1,.89h-.01,0Z" fill="#054375"/>
  <path d="m62.35,63.53c.28-.16,1.17,1.03,2.77,1.66,1.57.68,3.04.48,3.13.77.04.14-.3.4-.97.56-.67.16-1.63.11-2.6-.28-.97-.4-1.68-1.08-2.04-1.64-.36-.57-.41-1.02-.28-1.08h0Z" fill="#054375"/>
  <path d="m45.51,41.02c.32,3.6.84,9.27.84,9.44,0,.25-8.51,2.73-9.21-5.89-.4-4.86,2.15-6.32,4.49-6.67,1.93-.28,3.69,1.18,3.86,3.12,0,0,.02,0,.02,0Z" fill="#f0fbff"/>
  <path d="m44.21,47.37s0,.21-.25.44-.75.45-1.36.35c-1.27-.26-2.29-1.81-2.49-3.55-.09-.88.04-1.74.32-2.45.25-.7.79-1.36,1.45-1.46.32-.06.63,0,.85.16s.34.35.39.52c.09.35-.05.53-.08.51-.05,0,0-.19-.14-.43-.19-.32-.57-.46-.92-.34-.45.12-.82.58-1.04,1.24-.22.65-.34,1.4-.25,2.19.17,1.55,1.06,2.94,1.99,3.2.47.13.89,0,1.13-.12.25-.14.39-.26.39-.26h0,.02Z" fill="#d7dee5"/>
  <path d="m22.68,90.64c4.84,6.26,10.03,12.65,12.69,20.2.4,1.1.38,2.33.32,3.46-.41,4.55-1.22,9.03-2.05,13.52-.84,4.47-1.78,8.93-2.79,13.37.83-4.47,1.64-8.95,2.41-13.43.75-4.48,1.56-8.97,1.93-13.48.36-4.54-2.66-8.57-4.79-12.37-2.4-3.85-5-7.59-7.72-11.24,0,0,0-.03,0-.03Z" fill="#1f2232"/>
  <path d="m105.7,34.86l11.95-11.86,11.56,11.47,16.65-16.53L162.51,1.41l12.18,12.09-45.26,44.91-23.74-23.56h0Z" fill="#7cddfd" stroke="#054375" stroke-width="2"/>
</svg>