<svg width="216" height="261" viewBox="0 0 216 261" fill="none" xmlns="http://www.w3.org/2000/svg">
<defs>
<clipPath id="clip0_1281_36597">
<rect width="215" height="261" fill="white" transform="translate(0.5)"/>
</clipPath>
</defs>
<g clip-path="url(#clip0_1281_36597)">
<path opacity="0.3" d="M133.358 251.771C132.578 250.991 132.578 249.721 133.358 248.941L137.458 244.841C138.228 244.071 139.508 244.181 140.138 245.081C140.618 245.781 140.538 246.721 139.938 247.321L139.008 248.251C138.238 249.021 138.238 250.281 139.008 251.051C139.838 251.881 139.768 253.251 138.848 253.991L138.428 254.321C137.638 254.961 136.478 254.901 135.758 254.181L133.348 251.771H133.358Z" fill="#1090F9"/>
<path opacity="0.3" d="M210.611 139.481C212.161 137.911 212.161 135.361 210.611 133.791L101.321 23.2813C99.6109 21.5513 96.7909 21.7513 95.3309 23.7013L55.0708 77.6413C53.8708 79.2413 54.0308 81.4913 55.4308 82.9113L105.641 133.681C107.191 135.251 107.191 137.801 105.641 139.371L49.0408 196.611C47.3308 198.341 47.5308 201.191 49.4508 202.661L102.891 243.511C104.471 244.721 106.701 244.561 108.101 243.141L210.611 139.481Z" fill="#1090F9"/>
<path opacity="0.3" d="M100.541 32.4591L209.831 142.979C211.001 144.159 211.001 146.069 209.831 147.249L107.321 250.909C106.271 251.979 104.601 252.089 103.411 251.179L49.9713 210.329C48.5313 209.229 48.3813 207.089 49.6613 205.789L106.261 148.549C108.201 146.589 108.201 143.399 106.261 141.439L56.0513 90.6591C55.0013 89.5991 54.8813 87.9091 55.7813 86.7091L96.0413 32.7691C97.1313 31.3091 99.2513 31.1591 100.531 32.4491L100.541 32.4591Z" stroke="#6ABBF8" stroke-width="2"/>
<path opacity="0.3" d="M78.583 138.578C79.683 138.578 80.583 139.478 80.583 140.578V143.328C80.583 144.218 79.793 144.908 78.913 144.778C78.193 144.678 77.653 144.058 77.653 143.328V143.138C77.653 142.238 76.923 141.508 76.023 141.508H75.833C74.943 141.508 74.253 140.718 74.383 139.838C74.483 139.118 75.103 138.578 75.833 138.578H78.583Z" fill="#528EF4"/>
<path opacity="0.3" d="M215.574 95.3404C216.124 96.3004 215.794 97.5205 214.844 98.0705L210.764 100.43C209.714 101.04 208.364 100.57 207.914 99.4504L207.874 99.3505C207.494 98.4305 207.874 97.3705 208.724 96.8705L209.234 96.5705C210.194 96.0205 210.514 94.7904 209.964 93.8404L209.664 93.3104C209.054 92.2604 209.524 90.9105 210.644 90.4605L210.744 90.4205C211.664 90.0505 212.724 90.4204 213.224 91.2704L215.574 95.3404Z" fill="#528EF4"/>
<path opacity="0.3" d="M104.343 222.028C104.893 222.988 104.563 224.208 103.613 224.758L99.5331 227.118C98.4831 227.728 97.1331 227.268 96.6831 226.138L96.6431 226.038C96.2731 225.108 96.6431 224.048 97.4931 223.558L98.0031 223.258C98.9631 222.708 99.2831 221.488 98.7331 220.528L98.4231 219.998C97.8131 218.948 98.2831 217.598 99.4031 217.148L99.5031 217.108C100.433 216.728 101.493 217.108 101.983 217.958L104.333 222.028H104.343Z" fill="#528EF4"/>
<path opacity="0.3" d="M55.1397 144.026C54.3597 143.246 54.3597 141.976 55.1397 141.196L62.5397 133.796C63.4197 132.916 64.8897 133.046 65.5997 134.066L66.3297 135.116C66.8797 135.906 66.7897 136.986 66.0997 137.676L63.6397 140.136C62.8597 140.916 62.8597 142.186 63.6397 142.966L65.0897 144.416C65.9297 145.256 65.8597 146.646 64.9297 147.386L62.7597 149.136C61.9597 149.776 60.8097 149.716 60.0897 148.996L55.1297 144.036L55.1397 144.026Z" fill="#528EF4"/>
<path opacity="0.1" d="M93.6452 46.2095C94.0352 46.0895 94.4152 46.1395 94.7952 46.2295C94.9352 46.2395 95.0852 46.2295 95.2252 46.2295C96.8652 45.9395 97.9652 45.9295 101.295 44.7195C101.375 44.6895 101.445 44.6595 101.525 44.6295C101.665 44.5595 102.265 44.2695 102.515 44.1595C103.625 43.6495 104.795 43.2995 105.965 42.9195C106.925 42.6295 107.815 42.0695 108.845 42.0195C109.295 42.0495 109.775 42.1395 110.145 42.3995C110.455 42.5795 110.775 42.7395 111.095 42.8995C113.535 44.0495 115.945 45.2795 118.295 46.5995C119.275 47.1695 120.285 47.6695 121.325 48.1095C121.805 48.3395 122.375 48.4695 122.665 48.9495C123.785 50.2695 122.375 52.3695 120.715 51.8595C116.685 50.2195 112.875 48.0995 108.935 46.2595C106.495 47.4095 103.815 47.8795 101.325 48.9195C99.2352 49.5395 97.0552 50.4195 94.8452 50.0595C95.0152 50.0795 95.1952 50.1095 95.3652 50.1295C94.6352 50.1295 93.8252 50.2395 93.1652 49.8495C91.6552 48.9995 91.9552 46.6395 93.6452 46.1995V46.2095Z" fill="#054375"/>
<mask id="mask0_1281_36597" style="mask-type:luminance" maskUnits="userSpaceOnUse" x="47" y="-3" width="165" height="248">
<path d="M210.548 139.485C212.098 137.915 212.098 135.365 210.548 133.795L142.108 -1.88468C140.398 -3.61468 78.4784 1.25532 77.0184 3.20532L55.0083 77.6453C53.8083 79.2453 53.9683 81.4953 55.3683 82.9153L105.578 133.685C107.128 135.255 107.128 137.805 105.578 139.375L48.9783 196.615C47.2683 198.345 47.4683 201.195 49.3883 202.665L102.828 243.515C104.408 244.725 106.638 244.565 108.038 243.145L210.548 139.485Z" fill="white"/>
</mask>
<g mask="url(#mask0_1281_36597)">
<path d="M69.557 229.294C69.557 229.294 71.177 234.004 72.907 237.404C74.637 240.804 73.647 243.524 74.727 246.614C75.807 249.704 72.057 249.614 71.207 246.364C70.357 243.114 70.607 241.544 69.917 241.464C69.227 241.384 67.587 249.454 67.397 251.764C67.207 254.074 67.897 259.804 67.077 260.734C66.247 261.664 64.057 258.514 64.477 252.504C64.897 246.494 64.427 246.644 64.427 246.644C64.427 246.644 63.957 248.984 63.457 251.514C62.957 254.034 63.077 257.084 63.257 258.784C63.437 260.484 61.727 261.404 61.177 260.504C60.627 259.604 59.577 253.684 60.177 251.334C60.777 248.984 61.467 244.954 61.467 244.954C61.467 244.954 59.387 250.394 59.047 251.794C58.707 253.194 59.567 258.434 58.397 259.444C57.917 259.864 56.297 259.394 56.277 251.874C56.277 251.874 56.687 248.184 57.387 245.884C57.387 245.884 56.227 247.624 55.717 249.934C55.267 251.954 55.057 254.074 54.957 256.114C54.857 258.154 53.087 257.954 52.947 254.364C52.807 250.784 53.257 246.804 54.187 244.864C55.117 242.914 56.157 231.704 58.977 227.504L69.577 229.304L69.557 229.294Z" fill="#F0FBFF"/>
<path d="M99.4763 112.603C99.4763 112.603 91.5962 148.533 84.9462 162.553C84.9462 162.553 81.7463 182.033 69.8662 230.013C69.8662 230.013 62.8063 233.143 58.4062 227.863C58.4062 227.863 60.8562 176.443 66.3662 158.623C66.3662 158.623 82.9116 100.744 88.6416 93.0742C88.6416 93.0742 98.0563 100.163 99.4963 112.613L99.4763 112.603Z" fill="#053759"/>
<path d="M150.165 231.533C126.155 243.513 99.6853 242.373 76.1953 230.063C83.9253 190.513 87.3753 143.673 88.6353 93.0733L112.805 86.5832C119.325 84.8332 126.205 84.9133 132.685 86.8233L159.195 94.6433L146.515 174.413L150.185 231.523L150.165 231.533Z" fill="#054375"/>
<path d="M166.007 232.151C166.007 232.151 164.017 236.721 162.027 239.971C160.037 243.231 160.807 246.011 159.497 249.011C158.177 252.011 161.927 252.221 163.027 249.041C164.127 245.861 164.007 244.281 164.697 244.261C165.387 244.231 166.387 252.411 166.397 254.731C166.407 257.041 165.267 262.701 166.017 263.691C166.767 264.681 169.207 261.711 169.257 255.691C169.307 249.671 169.767 249.851 169.767 249.851C169.767 249.851 170.057 252.221 170.357 254.781C170.657 257.331 170.297 260.361 169.987 262.041C169.677 263.721 171.307 264.771 171.927 263.921C172.547 263.071 174.057 257.251 173.637 254.861C173.227 252.471 172.857 248.401 172.857 248.401C172.857 248.401 174.497 253.991 174.727 255.411C174.957 256.831 173.687 261.991 174.767 263.091C175.217 263.541 176.867 263.201 177.477 255.711C177.477 255.711 177.357 252.001 176.847 249.651C176.847 249.651 177.867 251.481 178.197 253.811C178.487 255.861 178.527 257.991 178.467 260.031C178.407 262.071 180.187 262.011 180.607 258.451C181.027 254.891 180.897 250.891 180.117 248.881C179.337 246.871 179.187 235.611 176.707 231.191L165.997 232.161L166.007 232.151Z" fill="#F0FBFF"/>
<path d="M145.367 113.472C145.367 113.472 150.397 149.912 155.927 164.402C155.927 164.402 157.587 184.072 165.657 232.832C165.657 232.832 172.457 236.512 177.257 231.592C177.257 231.592 178.867 180.142 174.777 161.942C174.777 161.942 164.297 102.742 159.197 94.6523C159.197 94.6523 147.787 101.172 145.377 113.472H145.367Z" fill="#054375"/>
<path d="M158.178 95.2934C155.458 98.9434 152.858 102.683 150.458 106.533C148.328 110.343 145.308 114.363 145.668 118.903C146.548 127.933 148.448 136.873 150.018 145.823C149.008 141.383 148.068 136.933 147.228 132.453C146.398 127.973 145.578 123.493 145.178 118.933C145.108 117.813 145.098 116.573 145.498 115.473C148.158 107.923 153.348 101.543 158.188 95.2734L158.178 95.2934Z" fill="#1F2232"/>
<path d="M138.504 53.793H143.894C144.354 54.813 146.634 60.673 139.694 62.143C139.694 62.143 138.134 68.513 131.664 66.003C133.424 61.833 136.284 57.743 138.504 53.793Z" fill="#054375"/>
<path d="M131.11 72.6038L130.81 80.1637L130.71 82.6937L130.34 91.8037C130.34 91.8037 121.88 96.9438 112.49 93.4038L112.24 91.0338L112 88.7138L111.07 79.9137L131.11 72.5938V72.6038Z" fill="#F0FBFF"/>
<path d="M131.11 72.6055L130.81 80.1655L130.71 82.6955C126.7 86.3955 120.48 90.4755 112.24 91.0455L112 88.7255L111.07 79.9255L131.11 72.6055Z" fill="#D7DEE5"/>
<path d="M138.774 64.5056C138.474 65.3856 138.134 66.2556 137.774 67.1156C137.444 67.8956 137.084 68.6656 136.704 69.4156C127.764 87.0756 96.0837 87.0056 91.8937 68.6056C87.7637 50.4756 89.0137 28.2256 89.0137 28.2256L139.794 27.5156C139.794 27.5156 144.634 47.5856 138.764 64.5056H138.774Z" fill="#F0FBFF"/>
<path d="M135.674 28.9742C135.674 28.9742 133.534 30.8242 134.214 35.0542C134.904 39.2842 135.764 40.5042 135.764 40.5042C135.764 40.5042 134.394 43.9842 135.244 47.5842L135.284 47.6842C136.694 48.7642 138.654 49.4242 139.404 46.7342C139.404 46.7042 139.434 46.4442 139.454 46.0842C139.534 44.9342 140.214 43.9042 141.254 43.4142C144.064 42.0742 149.634 38.6142 149.974 32.0142C150.434 23.1642 144.664 22.1042 144.664 22.1042C144.664 22.1042 145.284 11.4242 138.354 9.50421C131.424 7.58421 127.094 11.6742 127.094 11.6742C127.094 11.6742 126.114 5.82421 119.534 5.25421C113.114 4.69421 111.664 9.39421 111.664 9.39421C111.664 9.39421 110.934 4.50421 101.784 3.96421C96.3537 3.64421 93.6337 8.55421 93.6337 8.55421C93.6337 8.55421 92.2937 5.08421 84.1337 6.15421C76.7837 7.11421 74.7437 20.1242 82.8237 22.6642C82.8237 22.6642 77.5137 24.6242 80.0537 30.2842C82.5937 35.9442 88.5337 34.2142 88.5337 34.2142C88.5337 34.2142 94.8237 34.5542 97.2537 30.1742C97.2537 30.1742 100.144 34.3342 106.954 33.0642C113.764 31.7942 115.844 29.1342 115.844 29.1342C115.844 29.1342 120.344 33.2942 125.424 31.7942C130.504 30.2942 130.314 26.9842 135.664 28.9842L135.674 28.9742Z" fill="#054375"/>
<path d="M112.107 62.0938H112.067H112.047C112.087 62.0938 112.137 62.0938 112.177 62.1138H112.117L112.107 62.0938Z" fill="#32324C"/>
<path d="M112.013 61.4629L111.863 61.4329L111.493 61.3629L110.753 61.2329L109.263 60.9629L106.283 60.4429C104.283 60.1029 102.303 59.7729 100.243 59.5029C99.9827 59.4729 99.7227 59.4429 99.4427 59.4129C99.1527 59.3829 98.9127 59.3529 98.5127 59.3429H98.4427H98.3127C98.2227 59.3429 98.1227 59.3429 98.0327 59.3629C97.8427 59.3829 97.6427 59.4229 97.4627 59.4729C97.0927 59.5829 96.7627 59.7729 96.5127 59.9629C96.0027 60.3629 95.7127 60.7729 95.4927 61.1329C95.0727 61.8629 94.8827 62.4929 94.7227 63.1029C94.5727 63.7129 94.4727 64.2929 94.4027 64.8729C94.2727 66.0229 94.2327 67.1329 94.2727 68.2429C94.3127 69.3529 94.4127 70.4529 94.5827 71.5429C94.7527 72.6429 94.9927 73.7329 95.3127 74.8329C95.6427 75.9329 96.0527 77.0329 96.6127 78.1229C97.1827 79.2129 97.8927 80.3029 98.9027 81.3029C99.4027 81.7929 100.013 82.2729 100.593 82.6429C101.173 83.0129 101.753 83.3229 102.333 83.5829C103.483 84.1029 104.633 84.4529 105.763 84.7329C106.893 85.0129 108.013 85.2029 109.133 85.3329C111.373 85.5829 113.603 85.6329 115.823 85.4029C118.053 85.1729 120.273 84.6929 122.473 83.8529C123.573 83.4329 124.673 82.9229 125.753 82.2529C126.833 81.5929 127.913 80.7729 128.883 79.6729C129.363 79.1229 129.813 78.4929 130.183 77.7829L130.213 77.7229L130.243 77.6729L130.293 77.5729L130.383 77.3829L130.563 76.9929C130.683 76.7429 130.803 76.4729 130.903 76.2129C131.353 75.1629 131.723 74.0929 132.033 73.0129C132.343 71.9229 132.593 70.8229 132.763 69.7129C132.943 68.6029 133.053 67.4729 133.083 66.3429C133.113 65.2129 133.083 64.0729 132.943 62.9229C132.913 62.6329 132.873 62.3429 132.823 62.0629L132.753 61.6129C132.713 61.3829 132.663 61.1429 132.593 60.9129C132.323 59.9729 131.743 59.0129 130.893 58.3129C130.053 57.6129 128.983 57.2029 127.973 57.1329C127.463 57.0929 126.963 57.1329 126.503 57.2129C126.273 57.2529 126.043 57.3129 125.823 57.3829C125.713 57.4129 125.613 57.4529 125.503 57.4929L125.313 57.5729C124.343 57.9629 123.413 58.3529 122.503 58.7329C120.683 59.4829 118.923 60.1529 117.133 60.6229C116.243 60.8729 115.343 61.0429 114.443 61.1929L113.763 61.2929C113.533 61.3229 113.313 61.3429 113.083 61.3629L112.743 61.4029L112.483 61.4229C112.323 61.4329 112.203 61.4529 112.033 61.4729H111.993L112.013 61.4629ZM127.203 66.0029C127.123 66.8729 126.983 67.7429 126.803 68.6029C126.623 69.4629 126.383 70.3129 126.083 71.1429C125.793 71.9729 125.463 72.7829 125.063 73.5629C124.973 73.7629 124.873 73.9529 124.763 74.1429L124.613 74.4329L124.533 74.5729L124.493 74.6429L124.473 74.6729V74.6929C124.353 74.8629 124.203 75.0529 124.013 75.2429C123.633 75.6329 123.063 76.0029 122.403 76.3329C121.743 76.6629 120.983 76.9429 120.183 77.1729C118.583 77.6429 116.843 77.9329 115.073 78.1329C113.303 78.3229 111.503 78.4329 109.743 78.3329C108.863 78.2829 107.993 78.2029 107.163 78.0729C106.333 77.9429 105.533 77.7429 104.823 77.5129C104.473 77.3929 104.143 77.2629 103.863 77.1229C103.573 76.9729 103.373 76.8629 103.133 76.6829C102.653 76.3229 102.163 75.7829 101.723 75.1429C100.833 73.8429 100.123 72.1829 99.6227 70.4629C99.3727 69.5929 99.1727 68.7129 99.0327 67.8129C98.8927 66.9229 98.8127 66.0229 98.8127 65.1629C98.8127 64.7329 98.8427 64.3229 98.8827 63.9429L98.9427 63.3329C99.1827 63.4129 107.053 66.0629 111.533 66.0629C111.863 66.0629 112.193 66.0629 112.523 66.0629H113.013L113.423 66.0329C113.693 66.0229 113.973 66.0029 114.243 65.9829L115.063 65.9029C116.153 65.7829 117.233 65.6229 118.293 65.3829C120.413 64.9329 122.453 64.2729 124.383 63.5829C125.353 63.2429 127.083 62.5829 127.203 62.5829V62.7429C127.233 62.9529 127.243 63.1629 127.253 63.3829C127.293 64.2329 127.283 65.1029 127.203 65.9729V66.0029Z" fill="#054375"/>
<path d="M110.27 55.9123C110.27 55.8023 109.04 55.5223 107.04 55.1623C106.53 55.0823 106.05 54.9623 105.98 54.6023C105.89 54.2223 106.11 53.6923 106.4 53.0923C106.95 51.8723 107.51 50.6023 108.1 49.2623C110.48 43.7923 112.23 39.2923 112.01 39.2123C111.78 39.1223 109.68 43.4723 107.31 48.9223C106.73 50.2723 106.18 51.5623 105.66 52.7823C105.43 53.3623 105.07 54.0023 105.3 54.7823C105.42 55.1723 105.78 55.4823 106.1 55.5723C106.42 55.6823 106.72 55.7023 106.96 55.7423C108.98 55.9523 110.24 56.0223 110.26 55.9023H110.27V55.9123Z" fill="#054375"/>
<path d="M128.433 41.585C128.663 41.415 128.553 40.905 127.993 40.275C127.443 39.645 126.393 38.965 125.073 38.585C123.753 38.205 122.483 38.255 121.683 38.505C120.853 38.745 120.503 39.125 120.603 39.395C120.863 39.965 122.593 39.995 124.503 40.555C126.423 41.065 127.923 41.935 128.443 41.585H128.433Z" fill="#054375"/>
<path d="M103.071 39.535C103.191 39.275 102.841 38.885 102.041 38.615C101.251 38.335 100.001 38.265 98.6706 38.595C97.3406 38.925 96.2606 39.595 95.6806 40.205C95.0806 40.825 94.9606 41.325 95.1806 41.515C95.6906 41.885 97.2106 41.055 99.1506 40.595C101.071 40.095 102.801 40.105 103.091 39.545H103.081L103.071 39.535Z" fill="#054375"/>
<path d="M116.604 70.5035C116.474 70.4335 116.524 69.9735 116.894 69.3835C117.274 68.7935 118.004 68.0935 119.004 67.6835C120.004 67.2835 121.004 67.2335 121.694 67.3935C122.384 67.5535 122.734 67.8235 122.694 67.9735C122.594 68.2735 121.074 68.0635 119.454 68.7735C117.804 69.4235 116.884 70.6635 116.594 70.4935L116.604 70.5035Z" fill="#054375"/>
<path d="M139.653 44.0861C139.823 42.0761 141.653 40.5661 143.643 40.8561C146.063 41.2161 148.703 42.7361 148.293 47.7561C147.573 56.6761 138.773 54.1061 138.773 53.8461C138.773 53.5861 139.313 47.8061 139.643 44.0761H139.653V44.0861Z" fill="#F0FBFF"/>
<path d="M140.997 50.6576C140.997 50.6576 141.147 50.7776 141.397 50.9276C141.637 51.0576 142.077 51.1776 142.567 51.0476C143.527 50.7776 144.457 49.3476 144.627 47.7376C144.717 46.9176 144.597 46.1476 144.377 45.4776C144.147 44.7976 143.777 44.3076 143.307 44.1876C142.837 44.0376 142.477 44.2976 142.357 44.5376C142.207 44.7776 142.267 44.9676 142.207 44.9776C142.177 45.0076 142.037 44.8176 142.127 44.4576C142.177 44.2876 142.297 44.0776 142.527 43.9176C142.757 43.7576 143.077 43.6876 143.407 43.7576C144.087 43.8676 144.657 44.5476 144.907 45.2676C145.197 46.0076 145.337 46.8876 145.237 47.7976C145.037 49.5976 143.977 51.1976 142.667 51.4676C142.037 51.5776 141.517 51.3476 141.257 51.1076C140.997 50.8676 140.967 50.6676 141.007 50.6476H140.997V50.6576Z" fill="#D7DEE5"/>
<path d="M105.153 47.1152C105.153 47.1152 103.483 51.0552 98.9728 50.5752C94.4628 50.0852 94.3828 45.2852 94.3828 45.2852C94.3828 45.2852 97.9628 52.8852 105.163 47.1152H105.153Z" fill="#054375"/>
<path d="M126.334 46.1145C126.334 46.1145 125.174 50.2345 120.634 50.3145C116.094 50.3945 115.414 45.6445 115.414 45.6445C115.414 45.6445 119.914 52.7445 126.334 46.1145Z" fill="#054375"/>
</g>
<path d="M40.8091 16.3594C58.9091 16.3594 73.5791 31.5994 73.5791 50.3994C73.5791 58.1794 71.0591 65.3394 66.8391 71.0694L70.8491 87.5394L57.0991 79.9294C52.2991 82.7894 46.7391 84.4394 40.8091 84.4394C22.7091 84.4394 8.03906 69.1994 8.03906 50.3994C8.03906 31.5994 22.7091 16.3594 40.8091 16.3594Z" fill="white"/>
<path d="M70.8519 88.4105C71.0419 88.4105 71.2219 88.3505 71.3819 88.2305C71.6519 88.0205 71.7819 87.6705 71.7019 87.3305L67.7819 71.2505C72.1419 65.1805 74.4519 57.9805 74.4519 50.3905C74.4519 31.1405 59.3619 15.4805 40.8119 15.4805C22.2619 15.4805 7.17188 31.1405 7.17188 50.3905C7.17188 69.6405 22.2619 85.3005 40.8119 85.3005C46.5119 85.3005 52.1419 83.7905 57.1219 80.9205L70.4419 88.2905C70.5619 88.3805 70.7119 88.4105 70.8519 88.4105ZM40.8119 17.2305C58.4019 17.2305 72.7119 32.1105 72.7119 50.4005C72.7119 57.7505 70.4419 64.7205 66.1419 70.5505C65.9919 70.7605 65.9319 71.0205 66.0019 71.2705L69.5419 85.8105L57.5319 79.1605C57.2619 79.0105 56.9319 79.0105 56.6619 79.1705C51.8519 82.0405 46.3719 83.5605 40.8119 83.5605C23.2219 83.5605 8.91188 68.6805 8.91188 50.3905C8.91188 32.1005 23.2219 17.2305 40.8119 17.2305Z" fill="#054375"/>
<path d="M52.3506 9.31641L33.808 27.8546L17.1626 9.31641L2.33594 24.4962L20.2405 42.2636L2.33594 60.3109L15.4836 74.7207L34.79 55.2745L52.3506 73.4616L66.6875 60.3109L47.591 41.2144L65.9198 22.8856L52.3506 9.31641Z" fill="#F6727E" stroke="#D0333D" stroke-width="2"/>
</g>
</svg>
