<svg width="208" height="160" viewBox="0 0 208 160" fill="none" xmlns="http://www.w3.org/2000/svg">
<path opacity="0.3" d="M176.006 79.6703C177.56 78.0995 177.56 75.5526 176.006 73.9818L106.086 3.27211C104.378 1.54482 101.554 1.74327 100.099 3.69288L75.2295 37.0082C74.0341 38.6096 74.1885 40.8571 75.5915 42.2759L106.866 73.9032C108.419 75.474 108.419 78.0209 106.866 79.5917L71.6451 115.21C69.9378 116.936 70.1331 119.791 72.0592 121.263L105.073 146.499C106.657 147.709 108.881 147.554 110.284 146.134L176.006 79.6703Z" fill="#1090F9"/>
<path opacity="0.3" d="M175.245 80.271C176.41 81.4491 176.41 83.3592 175.245 84.5373L109.523 151.001C108.471 152.066 106.803 152.182 105.615 151.275L72.6011 126.039C71.1565 124.935 71.01 122.794 72.2905 121.499L107.511 85.8809C109.453 83.9173 109.453 80.7338 107.511 78.7703L76.2369 47.143C75.1846 46.0789 75.0688 44.3933 75.9654 43.1922L100.834 9.87687C101.926 8.41467 104.044 8.26583 105.325 9.5613L175.245 80.271Z" stroke="#05BDFB" stroke-width="2"/>
<path opacity="0.3" d="M137.831 11.1719C138.92 11.1719 139.804 12.0554 139.804 13.1452L139.804 14.3027C139.804 14.8892 139.285 15.3404 138.705 15.2594C138.227 15.1929 137.872 14.7847 137.872 14.3027L137.872 14.1782C137.872 13.5849 137.391 13.1039 136.798 13.1039L136.673 13.1039C136.087 13.1039 135.635 12.5855 135.716 12.0046C135.783 11.5272 136.191 11.1719 136.673 11.1719L137.831 11.1719Z" fill="#1090F9"/>
<path opacity="0.3" d="M171.086 40.0268C171.639 40.9834 171.311 42.2065 170.354 42.7588L168.29 43.9504C167.579 44.3609 166.669 44.0482 166.361 43.2872C166.107 42.6619 166.354 41.9453 166.938 41.6079L167.089 41.5208C167.808 41.1055 168.055 40.1856 167.639 39.4662L167.552 39.3154C167.142 38.6042 167.454 37.6943 168.215 37.3858C168.841 37.1323 169.557 37.3786 169.895 37.963L171.086 40.0268Z" fill="#1090F9"/>
<path opacity="0.3" d="M106.627 132.472C107.179 133.429 106.852 134.652 105.895 135.204L103.831 136.396C103.12 136.806 102.21 136.494 101.902 135.733C101.648 135.107 101.894 134.391 102.479 134.053L102.63 133.966C103.349 133.551 103.595 132.631 103.18 131.912L103.093 131.761C102.682 131.05 102.995 130.14 103.756 129.831C104.381 129.578 105.098 129.824 105.435 130.408L106.627 132.472Z" fill="#1090F9"/>
<path opacity="0.3" d="M170.903 105.171C170.122 104.39 170.122 103.123 170.903 102.342L174.945 98.3005C175.708 97.5375 176.975 97.6503 177.591 98.5359C178.07 99.2242 177.987 100.157 177.394 100.75L176.475 101.669C175.711 102.433 175.711 103.673 176.475 104.438C177.299 105.261 177.226 106.617 176.318 107.348L175.923 107.666C175.127 108.306 173.977 108.244 173.255 107.522L170.903 105.171Z" fill="#1090F9"/>
<path d="M67.5 38C67.5 35.5147 69.5147 33.5 72 33.5H131.692C134.177 33.5 136.192 35.5147 136.192 38V125.675C136.192 128.955 132.795 131.133 129.814 129.764L121.564 125.976C120.107 125.307 118.431 125.307 116.974 125.976L103.724 132.06C102.532 132.607 101.16 132.607 99.9682 132.06L86.718 125.976C85.2611 125.307 83.5848 125.307 82.1279 125.976L73.8778 129.764C70.8967 131.133 67.5 128.955 67.5 125.675V38Z" fill="white" stroke="#054375"/>
<path opacity="0.14" d="M61 29C61 28.4477 61.4477 28 62 28H129.692C130.244 28 130.692 28.4477 130.692 29V126.913C130.692 127.642 129.937 128.126 129.275 127.822L113.686 120.664C113.421 120.542 113.117 120.542 112.852 120.664L96.2632 128.281C95.9983 128.403 95.6936 128.403 95.4287 128.281L78.8403 120.664C78.5754 120.542 78.2706 120.542 78.0057 120.664L62.4173 127.822C61.7548 128.126 61 127.642 61 126.913V29Z" fill="#054375"/>
<path d="M59.5 28C59.5 25.5147 61.5147 23.5 64 23.5H123.692C126.177 23.5 128.192 25.5147 128.192 28V115.675C128.192 118.955 124.795 121.133 121.814 119.764L113.564 115.976C112.107 115.307 110.431 115.307 108.974 115.976L95.7237 122.06C94.5317 122.607 93.1602 122.607 91.9682 122.06L78.718 115.976C77.2611 115.307 75.5848 115.307 74.1279 115.976L65.8778 119.764C62.8967 121.133 59.5 118.955 59.5 115.675V28Z" fill="white" stroke="#054375"/>
<path d="M93.6109 62.8533C89.4381 62.8533 85.787 60.6974 83.631 57.4635H81.9272C78.3455 57.4635 75.4246 54.5426 75.4246 50.9609C75.4246 52.4562 74.2075 53.6732 72.7123 53.6732C71.2171 53.6732 70 52.4562 70 50.9609C70 57.533 75.3551 62.8533 81.8924 62.8533H93.8543H93.8195H93.6109Z" fill="#F9A61C"/>
<path d="M93.9238 39.0703C98.0966 39.0703 101.748 41.2262 103.904 44.4601H105.608C109.189 44.4601 112.11 47.3811 112.11 50.9627C112.11 49.4675 113.327 48.2504 114.822 48.2504C116.318 48.2504 117.535 49.4675 117.535 50.9627C117.535 44.3906 112.18 39.0703 105.642 39.0703H93.6804H93.7152H93.9238Z" fill="#A5CD39"/>
<path d="M114.788 48.25C113.292 48.25 112.075 49.4671 112.075 50.9623C112.075 54.5439 109.154 57.4649 105.573 57.4649H103.869C101.748 60.7335 98.0618 62.8895 93.889 62.8895H105.573C112.145 62.8895 117.465 57.5692 117.465 50.9971C117.465 49.4671 116.283 48.25 114.788 48.25Z" fill="#213871"/>
<path d="M72.7471 53.6707C74.2424 53.6707 75.4594 52.4537 75.4594 50.9584C75.4594 47.3768 78.3804 44.4558 81.962 44.4558H83.6659C85.787 41.1872 89.473 39.0312 93.6457 39.0312H81.9968C75.4246 39.0312 70.1044 44.3515 70.1044 50.9236C70.0696 52.4537 71.2866 53.6707 72.7471 53.6707Z" fill="#09ABBC"/>
<path d="M91.2463 60.142C91.2463 58.6468 92.4634 57.4297 93.9586 57.4297H93.6109C90.0293 57.4297 87.1083 54.5088 87.1083 50.9272C87.1083 47.3455 90.0293 44.4246 93.6109 44.4246C95.1061 44.4246 96.3232 43.2075 96.3232 41.7123C96.3232 40.2171 95.1061 39 93.6109 39C87.0388 39 81.7185 44.3203 81.7185 50.8924C81.7185 57.4645 87.0388 62.7848 93.6109 62.7848H93.9586C92.4634 62.8543 91.2463 61.6373 91.2463 60.142Z" fill="#213871"/>
<path d="M96.2884 41.745C96.2884 43.2403 95.0714 44.4573 93.5761 44.4573H93.9238C97.5055 44.4573 100.426 47.3783 100.426 50.9599C100.426 54.5415 97.5055 57.4625 93.9238 57.4625C92.4286 57.4625 91.2115 58.6795 91.2115 60.1748C91.2115 61.67 92.4286 62.8871 93.9238 62.8871C100.496 62.8871 105.816 57.5668 105.816 50.9947C105.816 44.4226 100.496 39.1023 93.9238 39.1023H93.5761C95.0714 39.0675 96.2884 40.2846 96.2884 41.745Z" fill="#09ABBC"/>
<path d="M69.6239 128.305C69.5832 128.305 69.5367 128.287 69.5019 128.252C69.438 128.189 69.438 128.078 69.5019 128.014L72.8355 124.681C72.8994 124.617 73.0097 124.617 73.0736 124.681C73.1375 124.745 73.1375 124.855 73.0736 124.919L69.74 128.252C69.7052 128.287 69.6645 128.305 69.6239 128.305Z" fill="#054375"/>
<path d="M102.146 128.305C102.106 128.305 102.059 128.287 102.024 128.252C101.96 128.189 101.96 128.078 102.024 128.014L105.358 124.681C105.422 124.617 105.532 124.617 105.596 124.681C105.66 124.745 105.66 124.855 105.596 124.919L102.262 128.252C102.228 128.287 102.187 128.305 102.146 128.305Z" fill="#054375"/>
<path d="M75.5534 126.305C75.5128 126.305 75.4663 126.287 75.4315 126.252C75.3676 126.189 75.3676 126.078 75.4315 126.014L78.765 122.681C78.8289 122.617 78.9393 122.617 79.0032 122.681C79.0671 122.745 79.0671 122.855 79.0032 122.919L75.6696 126.252C75.6347 126.287 75.5941 126.305 75.5534 126.305Z" fill="#054375"/>
<path d="M81.5534 125.055C81.5128 125.055 81.4663 125.037 81.4315 125.002C81.3676 124.939 81.3676 124.828 81.4315 124.764L84.765 121.431C84.8289 121.367 84.9393 121.367 85.0032 121.431C85.0671 121.495 85.0671 121.605 85.0032 121.669L81.6696 125.002C81.6347 125.037 81.5941 125.055 81.5534 125.055Z" fill="#054375"/>
<path d="M86.5534 125.055C86.5128 125.055 86.4663 125.037 86.4315 125.002C86.3676 124.939 86.3676 124.828 86.4315 124.764L89.765 121.431C89.8289 121.367 89.9393 121.367 90.0032 121.431C90.0671 121.495 90.0671 121.605 90.0032 121.669L86.6696 125.002C86.6347 125.037 86.5941 125.055 86.5534 125.055Z" fill="#054375"/>
<path d="M106.212 128.305C106.171 128.305 106.125 128.287 106.09 128.252C106.026 128.189 106.026 128.078 106.09 128.014L109.423 124.681C109.487 124.617 109.598 124.617 109.662 124.681C109.725 124.745 109.725 124.855 109.662 124.919L106.328 128.252C106.293 128.287 106.252 128.305 106.212 128.305Z" fill="#054375"/>
<path d="M89.9499 126.055C89.9093 126.055 89.8628 126.037 89.8279 126.002C89.7641 125.939 89.7641 125.828 89.8279 125.764L93.1615 122.431C93.2254 122.367 93.3358 122.367 93.3997 122.431C93.4636 122.495 93.4636 122.605 93.3997 122.669L90.0661 126.002C90.0312 126.037 89.9906 126.055 89.9499 126.055Z" fill="#054375"/>
<path d="M110.277 127.305C110.237 127.305 110.19 127.287 110.155 127.252C110.091 127.189 110.091 127.078 110.155 127.014L113.489 123.681C113.553 123.617 113.663 123.617 113.727 123.681C113.791 123.745 113.791 123.855 113.727 123.919L110.393 127.252C110.359 127.287 110.318 127.305 110.277 127.305Z" fill="#054375"/>
<path d="M116.553 125.055C116.513 125.055 116.466 125.037 116.431 125.002C116.368 124.939 116.368 124.828 116.431 124.764L119.765 121.431C119.829 121.367 119.939 121.367 120.003 121.431C120.067 121.495 120.067 121.605 120.003 121.669L116.67 125.002C116.635 125.037 116.594 125.055 116.553 125.055Z" fill="#054375"/>
<path d="M121.553 125.055C121.513 125.055 121.466 125.037 121.431 125.002C121.368 124.939 121.368 124.828 121.431 124.764L124.765 121.431C124.829 121.367 124.939 121.367 125.003 121.431C125.067 121.495 125.067 121.605 125.003 121.669L121.67 125.002C121.635 125.037 121.594 125.055 121.553 125.055Z" fill="#054375"/>
<path d="M94.0153 128.305C93.9747 128.305 93.9282 128.287 93.8934 128.252C93.8295 128.189 93.8295 128.078 93.8934 128.014L97.227 124.681C97.2908 124.617 97.4012 124.617 97.4651 124.681C97.529 124.745 97.529 124.855 97.4651 124.919L94.1315 128.252C94.0967 128.287 94.056 128.305 94.0153 128.305Z" fill="#054375"/>
<path d="M126.539 128.309C126.499 128.309 126.452 128.292 126.417 128.257C126.353 128.193 126.353 128.083 126.417 128.019L134.091 120.345C134.155 120.281 134.265 120.281 134.329 120.345C134.393 120.409 134.393 120.519 134.329 120.583L126.655 128.257C126.621 128.292 126.58 128.309 126.539 128.309Z" fill="#054375"/>
<path d="M98.0809 128.305C98.0402 128.305 97.9938 128.287 97.9589 128.252C97.895 128.189 97.895 128.078 97.9589 128.014L101.293 124.681C101.356 124.617 101.467 124.617 101.531 124.681C101.595 124.745 101.595 124.855 101.531 124.919L98.1971 128.252C98.1622 128.287 98.1216 128.305 98.0809 128.305Z" fill="#054375"/>
<path d="M130.605 128.305C130.564 128.305 130.517 128.287 130.483 128.252C130.419 128.189 130.419 128.078 130.483 128.014L133.816 124.681C133.88 124.617 133.99 124.617 134.054 124.681C134.118 124.745 134.118 124.855 134.054 124.919L130.721 128.252C130.686 128.287 130.645 128.305 130.605 128.305Z" fill="#054375"/>
<path d="M130.605 120.531C130.564 120.531 130.517 120.514 130.483 120.479C130.419 120.415 130.419 120.305 130.483 120.241L133.816 116.907C133.88 116.843 133.99 116.843 134.054 116.907C134.118 116.971 134.118 117.082 134.054 117.145L130.721 120.479C130.686 120.514 130.645 120.531 130.605 120.531Z" fill="#054375"/>
<path d="M130.605 89.1719C130.564 89.1719 130.517 89.1545 130.483 89.1196C130.419 89.0557 130.419 88.9454 130.483 88.8815L133.816 85.5479C133.88 85.484 133.99 85.484 134.054 85.5479C134.118 85.6118 134.118 85.7221 134.054 85.786L130.721 89.1196C130.686 89.1545 130.645 89.1719 130.605 89.1719Z" fill="#054375"/>
<path d="M130.605 63.2578C130.564 63.2578 130.517 63.2404 130.483 63.2056C130.419 63.1417 130.419 63.0313 130.483 62.9674L133.816 59.6339C133.88 59.57 133.99 59.57 134.054 59.6339C134.118 59.6977 134.118 59.8081 134.054 59.872L130.721 63.2056C130.686 63.2404 130.645 63.2578 130.605 63.2578Z" fill="#054375"/>
<path d="M130.605 104.289C130.564 104.289 130.517 104.272 130.483 104.237C130.419 104.173 130.419 104.063 130.483 103.999L133.816 100.665C133.88 100.601 133.99 100.601 134.054 100.665C134.118 100.729 134.118 100.839 134.054 100.903L130.721 104.237C130.686 104.272 130.645 104.289 130.605 104.289Z" fill="#054375"/>
<path d="M130.605 72.9297C130.564 72.9297 130.517 72.9123 130.483 72.8774C130.419 72.8135 130.419 72.7032 130.483 72.6393L133.816 69.3057C133.88 69.2418 133.99 69.2418 134.054 69.3057C134.118 69.3696 134.118 69.48 134.054 69.5438L130.721 72.8774C130.686 72.9123 130.645 72.9297 130.605 72.9297Z" fill="#054375"/>
<path d="M130.605 47.9531C130.564 47.9531 130.517 47.9357 130.483 47.9009C130.419 47.837 130.419 47.7266 130.483 47.6628L133.816 44.3292C133.88 44.2653 133.99 44.2653 134.054 44.3292C134.118 44.393 134.118 44.5034 134.054 44.5673L130.721 47.9009C130.686 47.9357 130.645 47.9531 130.605 47.9531Z" fill="#054375"/>
<path d="M130.605 115.117C130.564 115.117 130.517 115.1 130.483 115.065C130.419 115.001 130.419 114.891 130.483 114.827L133.816 111.493C133.88 111.429 133.99 111.429 134.054 111.493C134.118 111.557 134.118 111.667 134.054 111.731L130.721 115.065C130.686 115.1 130.645 115.117 130.605 115.117Z" fill="#054375"/>
<path d="M130.605 83.7578C130.564 83.7578 130.517 83.7404 130.483 83.7056C130.419 83.6417 130.419 83.5313 130.483 83.4674L133.816 80.1339C133.88 80.07 133.99 80.07 134.054 80.1339C134.118 80.1977 134.118 80.3081 134.054 80.372L130.721 83.7056C130.686 83.7404 130.645 83.7578 130.605 83.7578Z" fill="#054375"/>
<path d="M130.605 58.7813C130.564 58.7813 130.517 58.7638 130.483 58.729C130.419 58.6651 130.419 58.5548 130.483 58.4909L133.816 55.1573C133.88 55.0934 133.99 55.0934 134.054 55.1573C134.118 55.2212 134.118 55.3315 134.054 55.3954L130.721 58.729C130.686 58.7638 130.645 58.7813 130.605 58.7813Z" fill="#054375"/>
<path d="M130.605 98.875C130.564 98.875 130.517 98.8576 130.483 98.8227C130.419 98.7589 130.419 98.6485 130.483 98.5846L133.816 95.251C133.88 95.1872 133.99 95.1872 134.054 95.251C134.118 95.3149 134.118 95.4253 134.054 95.4892L130.721 98.8227C130.686 98.8576 130.645 98.875 130.605 98.875Z" fill="#054375"/>
<path d="M130.605 67.5156C130.564 67.5156 130.517 67.4982 130.483 67.4634C130.419 67.3995 130.419 67.2891 130.483 67.2253L133.816 63.8917C133.88 63.8278 133.99 63.8278 134.054 63.8917C134.118 63.9555 134.118 64.0659 134.054 64.1298L130.721 67.4634C130.686 67.4982 130.645 67.5156 130.605 67.5156Z" fill="#054375"/>
<path d="M130.605 42.5391C130.564 42.5391 130.517 42.5217 130.483 42.4868C130.419 42.4229 130.419 42.3126 130.483 42.2487L133.816 38.9151C133.88 38.8512 133.99 38.8512 134.054 38.9151C134.118 38.979 134.118 39.0893 134.054 39.1532L130.721 42.4868C130.686 42.5217 130.645 42.5391 130.605 42.5391Z" fill="#054375"/>
<path d="M130.605 109.703C130.564 109.703 130.517 109.686 130.483 109.651C130.419 109.587 130.419 109.477 130.483 109.413L133.816 106.079C133.88 106.015 133.99 106.015 134.054 106.079C134.118 106.143 134.118 106.253 134.054 106.317L130.721 109.651C130.686 109.686 130.645 109.703 130.605 109.703Z" fill="#054375"/>
<path d="M130.605 78.3438C130.564 78.3438 130.517 78.3263 130.483 78.2915C130.419 78.2276 130.419 78.1173 130.483 78.0534L133.816 74.7198C133.88 74.6559 133.99 74.6559 134.054 74.7198C134.118 74.7837 134.118 74.894 134.054 74.9579L130.721 78.2915C130.686 78.3263 130.645 78.3438 130.605 78.3438Z" fill="#054375"/>
<path d="M130.605 53.3672C130.564 53.3672 130.517 53.3498 130.483 53.3149C130.419 53.251 130.419 53.1407 130.483 53.0768L133.816 49.7432C133.88 49.6793 133.99 49.6793 134.054 49.7432C134.118 49.8071 134.118 49.9175 134.054 49.9813L130.721 53.3149C130.686 53.3498 130.645 53.3672 130.605 53.3672Z" fill="#054375"/>
<path d="M130.605 93.4609C130.564 93.4609 130.517 93.4435 130.483 93.4087C130.419 93.3448 130.419 93.2345 130.483 93.1706L133.816 89.837C133.88 89.7731 133.99 89.7731 134.054 89.837C134.118 89.9009 134.118 90.0112 134.054 90.0751L130.721 93.4087C130.686 93.4435 130.645 93.4609 130.605 93.4609Z" fill="#054375"/>
<path d="M130.605 37.125C130.564 37.125 130.517 37.1076 130.483 37.0727C130.419 37.0089 130.419 36.8985 130.483 36.8346L133.816 33.501C133.88 33.4372 133.99 33.4372 134.054 33.501C134.118 33.5649 134.118 33.6753 134.054 33.7392L130.721 37.0727C130.686 37.1076 130.645 37.125 130.605 37.125Z" fill="#054375"/>
<path d="M119.694 78.9531L68.9999 78.9531C68.4476 78.9531 67.9999 78.5054 67.9999 77.9531L67.9999 76.0011C67.9999 75.4488 68.4476 75.0011 68.9999 75.0011L119.694 75.0011C120.246 75.0011 120.694 75.4488 120.694 76.0011L120.694 77.9531C120.694 78.5054 120.246 78.9531 119.694 78.9531Z" fill="#7CDDFD" stroke="#054375"/>
<path d="M111.79 85.5391L68.9999 85.5391C68.4476 85.5391 67.9999 85.0913 67.9999 84.5391L67.9999 82.587C67.9999 82.0347 68.4476 81.587 68.9999 81.587L111.79 81.587C112.342 81.587 112.79 82.0347 112.79 82.587L112.79 84.5391C112.79 85.0913 112.342 85.5391 111.79 85.5391Z" fill="#E1F7FF" stroke="#054375"/>
<path d="M119.694 97.7188L68.9999 97.7188C68.4476 97.7188 67.9999 97.271 67.9999 96.7187L67.9999 94.7667C67.9999 94.2144 68.4476 93.7667 68.9999 93.7667L119.694 93.7667C120.246 93.7667 120.694 94.2144 120.694 94.7667L120.694 96.7188C120.694 97.271 120.246 97.7188 119.694 97.7188Z" fill="#7CDDFD" stroke="#054375"/>
<path d="M111.79 104.305L68.9999 104.305C68.4476 104.305 67.9999 103.857 67.9999 103.305L67.9999 101.353C67.9999 100.8 68.4476 100.353 68.9999 100.353L111.79 100.353C112.342 100.353 112.79 100.8 112.79 101.353L112.79 103.305C112.79 103.857 112.342 104.305 111.79 104.305Z" fill="#E1F7FF" stroke="#054375"/>
</svg>
