<svg width="320" height="248" viewBox="0 0 320 248" fill="none" xmlns="http://www.w3.org/2000/svg">
<path opacity="0.3" d="M254.679 129.137C256.232 127.566 256.232 125.02 254.679 123.449L145.393 12.9292C143.685 11.2019 140.861 11.4003 139.406 13.3499L99.1416 67.2889C97.9461 68.8903 98.1006 71.1378 99.5036 72.5566L149.71 123.329C151.263 124.9 151.263 127.447 149.71 129.018L93.1061 186.26C91.3988 187.987 91.5941 190.841 93.5202 192.314L146.962 233.164C148.546 234.375 150.77 234.219 152.173 232.8L254.679 129.137Z" fill="#1090F9"/>
<path opacity="0.3" d="M144.602 22.1124L253.888 132.632C255.053 133.81 255.053 135.72 253.888 136.898L151.383 240.561C150.33 241.625 148.662 241.742 147.474 240.834L94.0323 199.984C92.5877 198.879 92.4412 196.739 93.7217 195.444L150.326 138.201C152.267 136.238 152.267 133.054 150.326 131.091L100.119 80.3177C99.0669 79.2536 98.9511 77.568 99.8477 76.3669L140.112 22.428C141.203 20.9658 143.321 20.8169 144.602 22.1124Z" stroke="#40CDFC" stroke-width="2"/>
<path opacity="0.3" d="M196.259 26.6185C197.364 26.6185 198.259 27.514 198.259 28.6185L198.259 31.3717C198.259 32.2622 197.472 32.9472 196.59 32.8243V32.8243C195.865 32.7233 195.326 32.1035 195.326 31.3717L195.326 31.1828C195.326 30.282 194.596 29.5517 193.695 29.5517L193.506 29.5517C192.615 29.5517 191.93 28.7647 192.053 27.8827V27.8827C192.154 27.1579 192.774 26.6185 193.506 26.6185L196.259 26.6185Z" fill="#1090F9"/>
<path opacity="0.3" d="M246.27 71.3224C246.823 72.279 246.495 73.5022 245.538 74.0545L241.454 76.4123C240.403 77.0194 239.057 76.557 238.601 75.4316L238.561 75.3319C238.186 74.4071 238.55 73.3475 239.414 72.8485L239.929 72.5514C240.885 71.9991 241.213 70.7759 240.661 69.8193L240.356 69.2918C239.749 68.2402 240.212 66.8945 241.337 66.4383L241.437 66.3979C242.361 66.023 243.421 66.3872 243.92 67.2514L246.27 71.3224Z" fill="#1090F9"/>
<path opacity="0.3" d="M148.408 211.678C148.96 212.634 148.633 213.857 147.676 214.41L143.592 216.767C142.541 217.375 141.195 216.912 140.739 215.787L140.698 215.687C140.323 214.762 140.688 213.703 141.552 213.204L142.066 212.906C143.023 212.354 143.351 211.131 142.798 210.174L142.494 209.647C141.887 208.595 142.349 207.25 143.475 206.793L143.574 206.753C144.499 206.378 145.559 206.742 146.058 207.607L148.408 211.678Z" fill="#1090F9"/>
<path opacity="0.3" d="M244.741 168.593C243.96 167.812 243.96 166.545 244.741 165.764L252.143 158.363C253.024 157.482 254.487 157.612 255.199 158.635L255.929 159.685C256.482 160.48 256.386 161.557 255.702 162.241L253.246 164.696C252.465 165.478 252.465 166.744 253.246 167.525L254.7 168.979C255.542 169.82 255.467 171.205 254.54 171.951L252.37 173.697C251.574 174.337 250.424 174.275 249.702 173.553L244.741 168.593Z" fill="#1090F9"/>
<path d="M119.168 38.3671V59.1682H173.846V38.3671H119.168Z" fill="white" stroke="#0864B0" stroke-width="2"/>
<path d="M109.659 90.3087V63.1682C109.659 60.9591 111.45 59.1682 113.659 59.1682H178.76C180.97 59.1682 182.76 60.9591 182.76 63.1682V103.89L109.659 90.3087Z" fill="white" stroke="#0864B0" stroke-width="2"/>
<path d="M91.8298 93.1156V202.399H200.59V107.308L97.7432 88.1997C94.6684 87.6285 91.8298 89.9883 91.8298 93.1156Z" fill="white" stroke="#0864B0" stroke-width="2"/>
<path d="M129.272 50.8478H162.554" stroke="#0864B0" stroke-width="2"/>
<path d="M126.3 202.399V181.598L129.866 177.438H146.21H162.554L166.714 181.598V202.399H146.21H126.3Z" fill="#40CDFC"/>
<path d="M146.21 177.438H129.866L126.3 181.598V202.399H146.21M146.21 177.438H162.554L166.714 181.598V202.399H146.21M146.21 177.438V202.399" stroke="#0864B0" stroke-width="2"/>
<path d="M119.351 74.7119H173.48M142.549 82.0266H173.48" stroke="#0864B0" stroke-width="2"/>
<rect x="145.021" y="14.8915" width="1.78295" height="23.1784" fill="#D9D9D9" stroke="#05BDFB" stroke-width="1.78295"/>
<rect x="74.5002" y="203.493" width="161.843" height="6.13182" fill="#05BDFB" stroke="#0864B0"/>
<path d="M244.664 164.957C244.664 175.901 236.848 184.664 227.334 184.664C217.82 184.664 210.005 175.901 210.005 164.957C210.005 154.012 217.82 145.25 227.334 145.25C236.848 145.25 244.664 154.012 244.664 164.957Z" fill="#8CD133" stroke="#375313"/>
<path d="M224.957 202.399V169.117M224.957 169.117L229.712 175.06L233.872 169.117M224.957 169.117L219.608 163.768" stroke="#752901" stroke-width="2"/>
<rect x="135.621" y="154.07" width="19.3955" height="12.2636" fill="#05BDFB" stroke="#0864B0" stroke-width="2"/>
<rect x="136.809" y="116.034" width="19.3955" height="12.2636" fill="#05BDFB" stroke="#0864B0" stroke-width="2"/>
<rect x="172.468" y="116.034" width="19.3955" height="12.2636" fill="#05BDFB" stroke="#0864B0" stroke-width="2"/>
<rect x="171.28" y="154.07" width="19.3955" height="12.2636" fill="#05BDFB" stroke="#0864B0" stroke-width="2"/>
<path d="M93.0184 92.7394C93.0184 90.2211 95.3174 88.3294 97.7886 88.8142L107.648 90.7486V201.256H93.0184V92.7394Z" fill="#EFF2F6"/>
<rect x="99.9615" y="116.034" width="19.3955" height="12.2636" fill="#05BDFB" stroke="#0864B0" stroke-width="2"/>
<rect x="99.9615" y="154.07" width="19.3955" height="12.2636" fill="#05BDFB" stroke="#0864B0" stroke-width="2"/>
</svg>
