<svg width="194" height="185" viewBox="0 0 194 185" fill="none" xmlns="http://www.w3.org/2000/svg">
<ellipse opacity="0.2" cx="101.898" cy="82.1383" rx="77.1231" ry="77.13" fill="#1090F9"/>
<path opacity="0.3" d="M173.014 88.1485C173.014 130.194 138.932 164.278 96.8906 164.278C54.8491 164.278 20.7676 130.194 20.7676 88.1485C20.7676 46.1029 54.8491 12.0184 96.8906 12.0184C138.932 12.0184 173.014 46.1029 173.014 88.1485Z" stroke="#05BDFB" stroke-width="2"/>
<path opacity="0.3" d="M44.6731 10.9148C43.9331 12.5513 42.007 13.2771 40.3711 12.5357L36.2891 10.686C34.9684 10.0876 34.4804 8.45939 35.2542 7.23332C35.8903 6.22564 37.1716 5.84173 38.2571 6.33362L38.5342 6.45917C39.8702 7.0646 41.4432 6.47189 42.0476 5.13533L42.175 4.85343C42.7721 3.53291 44.3982 3.04588 45.6231 3.82068C46.6296 4.45732 47.0135 5.73861 46.5229 6.82363L44.6731 10.9148Z" fill="#1090F9"/>
<path opacity="0.3" d="M53.2881 184.929C51.4924 184.968 50.006 183.544 49.968 181.749L49.8732 177.267C49.8425 175.818 51.1002 174.674 52.5401 174.843C53.7236 174.981 54.6232 175.971 54.6484 177.163L54.6548 177.468C54.6858 178.934 55.8997 180.097 57.3661 180.065L57.675 180.058C59.124 180.026 60.2656 181.282 60.0959 182.722C59.9564 183.905 58.9665 184.804 57.7759 184.83L53.2881 184.929Z" fill="#1090F9"/>
<path opacity="0.3" d="M181.344 27.4748C182.68 28.6428 182.816 30.6721 181.647 32.0073L180.406 33.4245C179.777 34.1434 178.657 34.1406 178.031 33.4185C177.517 32.825 177.519 31.9435 178.037 31.3526L178.169 31.2016C178.805 30.4744 178.732 29.369 178.004 28.7328L177.851 28.5987C177.132 27.97 177.135 26.8513 177.857 26.2264C178.45 25.713 179.332 25.7152 179.923 26.2318L181.344 27.4748Z" fill="#1090F9"/>
<path opacity="0.3" d="M185.674 123.487C184.766 121.963 185.266 119.991 186.791 119.084L188.41 118.121C189.231 117.633 190.295 117.983 190.666 118.863C190.971 119.587 190.696 120.424 190.021 120.826L189.848 120.928C189.018 121.422 188.745 122.496 189.24 123.327L189.344 123.502C189.833 124.322 189.483 125.385 188.603 125.755C187.879 126.059 187.042 125.784 186.64 125.11L185.674 123.487Z" fill="#1090F9"/>
<path opacity="0.3" d="M178.916 143.983C179.958 145.446 179.616 147.476 178.152 148.516L173.125 152.089C171.686 153.112 169.673 152.628 168.858 151.062C168.187 149.775 168.569 148.191 169.752 147.35L170.054 147.135C171.51 146.1 171.85 144.081 170.814 142.626L170.596 142.319C169.572 140.881 170.057 138.871 171.623 138.057C172.91 137.388 174.493 137.769 175.335 138.951L178.916 143.983Z" fill="#1090F9"/>
<rect x="27.7788" y="44.0725" width="115.187" height="80.1385" rx="7" fill="white" stroke="#054375" stroke-width="2"/>
<path d="M31.043 52.6633C30.9812 52.6633 30.9105 52.6368 30.8575 52.5838C30.7604 52.4867 30.7604 52.3189 30.8575 52.2217L35.9267 47.1521C36.0238 47.0549 36.1917 47.0549 36.2888 47.1521C36.3859 47.2492 36.3859 47.4171 36.2888 47.5142L31.2196 52.5838C31.1667 52.6368 31.1048 52.6633 31.043 52.6633Z" fill="#054375"/>
<path d="M50.9488 57.6916C50.8869 57.6916 50.8163 57.6651 50.7633 57.6121C50.6661 57.515 50.6661 57.3472 50.7633 57.25L60.9663 47.1521C61.0634 47.0549 61.2312 47.0549 61.3284 47.1521C61.4255 47.2492 61.4255 47.4171 61.3284 47.5142L51.1254 57.6121C51.0724 57.6651 51.0106 57.6916 50.9488 57.6916Z" fill="#054375"/>
<path d="M30.3457 58.431C30.2839 58.431 30.2132 58.4045 30.1603 58.3515C30.0631 58.2543 30.0631 58.0865 30.1603 57.9893L40.9348 47.1521C41.0319 47.0549 41.1997 47.0549 41.2969 47.1521C41.394 47.2492 41.394 47.4171 41.2969 47.5142L30.5224 58.3515C30.4694 58.4045 30.4076 58.431 30.3457 58.431Z" fill="#054375"/>
<path d="M57.1328 56.6218C57.071 56.6218 57.0004 56.5953 56.9474 56.5423C56.8502 56.4451 56.8502 56.2773 56.9474 56.1802L65.9747 47.1521C66.0718 47.0549 66.2396 47.0549 66.3368 47.1521C66.4339 47.2492 66.4339 47.4171 66.3368 47.5142L57.3095 56.5423C57.2565 56.5953 57.1947 56.6218 57.1328 56.6218Z" fill="#054375"/>
<path d="M32.4196 61.1975C32.3577 61.1975 32.2871 61.171 32.2341 61.118C32.1369 61.0209 32.1369 60.8531 32.2341 60.7559L45.9426 47.1521C46.0398 47.0549 46.2076 47.0549 46.3047 47.1521C46.4019 47.2492 46.4019 47.4171 46.3047 47.5142L32.5962 61.118C32.5432 61.171 32.4814 61.1975 32.4196 61.1975Z" fill="#054375"/>
<path d="M63.1421 55.6201C63.0803 55.6201 63.0096 55.5936 62.9566 55.5406C62.8595 55.4434 62.8595 55.2756 62.9566 55.1785L70.9823 47.1521C71.0795 47.0549 71.2473 47.0549 71.3444 47.1521C71.4416 47.2492 71.4416 47.4171 71.3444 47.5142L63.3188 55.5406C63.2658 55.5936 63.2039 55.6201 63.1421 55.6201Z" fill="#054375"/>
<path d="M39.0806 59.8451C39.0187 59.8451 38.9481 59.8187 38.8951 59.7657C38.7979 59.6685 38.7979 59.5007 38.8951 59.4035L50.9512 47.1521C51.0483 47.0549 51.2162 47.0549 51.3133 47.1521C51.4105 47.2492 51.4105 47.4171 51.3133 47.5142L39.2572 59.7657C39.2042 59.8187 39.1424 59.8451 39.0806 59.8451Z" fill="#054375"/>
<path d="M69.2408 54.5919C69.179 54.5919 69.1083 54.5654 69.0553 54.5124C68.9582 54.4152 68.9582 54.2474 69.0553 54.1503L73.4565 49.6869L75.991 47.1521C76.0882 47.0549 76.256 47.0549 76.3531 47.1521C76.4503 47.2492 76.4503 47.4171 76.3531 47.5142L69.4174 54.5124C69.3644 54.5654 69.3026 54.5919 69.2408 54.5919Z" fill="#054375"/>
<path d="M45.2027 58.5986C45.1409 58.5986 45.0702 58.5722 45.0172 58.5192C44.9201 58.422 44.9201 58.2542 45.0172 58.157L55.9593 47.1521C56.0565 47.0549 56.2243 47.0549 56.3215 47.1521C56.4186 47.2492 56.4186 47.4171 56.3215 47.5142L45.3793 58.5192C45.3264 58.5722 45.2645 58.5986 45.2027 58.5986Z" fill="#054375"/>
<path d="M75.1377 53.6407C75.0759 53.6407 75.0052 53.6142 74.9522 53.5612C74.8551 53.4641 74.8551 53.2963 74.9522 53.1991L80.9987 47.1521C81.0959 47.0549 81.2637 47.0549 81.3608 47.1521C81.458 47.2492 81.458 47.4171 81.3608 47.5142L75.3143 53.5612C75.2613 53.6142 75.1995 53.6407 75.1377 53.6407Z" fill="#054375"/>
<rect width="116.271" height="79.4474" rx="8" transform="matrix(0.985639 -0.168865 0.168836 0.985644 14.9668 64.7101)" fill="#D7DEE5"/>
<rect x="1.10762" y="0.737378" width="126.118" height="80.116" rx="6.5863" transform="matrix(0.980452 -0.19676 0.196744 0.980455 0.104117 72.8818)" fill="white" stroke="#212D36" stroke-width="1.8818"/>
<rect x="-0.553812" y="-0.368689" width="61.1762" height="3.76841" transform="matrix(0.980452 -0.19676 0.196744 0.980455 23.2341 134.258)" fill="#D7DEE5" stroke="#212D36" stroke-width="0.9409"/>
<rect x="-0.553812" y="-0.368689" width="37.6468" height="3.76841" transform="matrix(0.980452 -0.19676 0.196744 0.980455 21.7512 126.866)" fill="#D7DEE5" stroke="#212D36" stroke-width="0.9409"/>
<g clip-path="url(#clip0_742_21409)">
<path d="M90.0912 69.3702L90.5134 71.4745C90.5797 71.8045 90.7857 71.9447 91.1094 71.8797C91.2774 71.846 91.4844 71.7681 91.6956 71.6596L92.0195 72.5706C91.7614 72.7426 91.2826 72.9185 90.983 72.9786C90.0676 73.1623 89.5332 72.8059 89.3492 71.8889L88.8921 69.6108L90.0912 69.3702Z" fill="#212D36"/>
<path d="M94.3751 66.6616C93.9583 66.8918 93.4466 67.3697 93.2286 67.5965L93.1877 67.6391L92.9774 67.0436L91.9712 67.2455L93.0171 72.4577L94.2162 72.217L93.5355 68.8247L93.5501 68.8102C93.9274 68.4344 94.2721 68.1149 94.7222 67.7822L94.3751 66.6616Z" fill="#212D36"/>
<path d="M94.9341 64.7276L95.2187 66.1458L96.4176 65.9052L96.0978 64.3118L94.9341 64.7276Z" fill="#212D36"/>
<path d="M96.5043 66.3359L95.3052 66.5765L96.3511 71.7887L97.5502 71.5481L96.5043 66.3359Z" fill="#212D36"/>
<path d="M101.969 66.9733C101.729 65.7785 101.123 65.2959 100.117 65.4979C99.5506 65.6116 99.0099 65.8876 98.6925 66.1082L98.6468 66.1401L98.1322 63.5754L96.968 63.9901L98.4345 71.2982C99.0745 71.2975 99.8812 71.1928 100.404 71.088C102.318 70.7039 102.541 69.8227 102.28 68.5257L101.969 66.9733L101.969 66.9733ZM101.09 68.8099C101.214 69.4297 101.118 69.8486 100.255 70.0218C99.947 70.0836 99.6937 70.1196 99.4802 70.1318L99.448 70.1336L98.8549 67.1778L98.8738 67.1634C99.1499 66.9533 99.5756 66.7026 99.9426 66.629C100.408 66.5356 100.669 66.711 100.763 67.1811L101.09 68.8099Z" fill="#212D36"/>
<path d="M110.732 65.1017L111.465 68.7555L112.664 68.5149L111.903 64.7199C111.697 63.6932 111.234 63.2671 110.486 63.4171C109.913 63.532 109.165 63.9067 108.58 64.3714L108.546 64.3989L108.324 63.9639L107.418 64.1457L108.464 69.3579L109.663 69.1172L108.929 65.4622L108.946 65.4478C109.379 65.0857 109.893 64.7903 110.197 64.7294C110.499 64.6687 110.669 64.7871 110.732 65.1017Z" fill="#212D36"/>
<path d="M115.562 66.9385C114.826 67.0862 114.531 66.9046 114.394 66.2191L114.1 64.7535C113.962 64.0677 114.164 63.7864 114.9 63.6387C115.118 63.595 115.569 63.5412 115.949 63.5651L115.892 62.5232C115.486 62.4728 114.982 62.5149 114.656 62.5803C113.106 62.8912 112.615 63.5711 112.903 65.0048L113.193 66.449C113.48 67.8828 114.196 68.3204 115.745 68.0095C116.151 67.928 116.604 67.7627 116.908 67.5855L116.559 66.6013C116.24 66.7551 115.896 66.8715 115.562 66.9385Z" fill="#212D36"/>
<path d="M119.747 67.2063C121.189 66.9169 121.782 66.0815 121.509 64.7232L121.241 63.388C120.968 62.0297 120.099 61.4877 118.657 61.7771C117.215 62.0665 116.622 62.902 116.895 64.2602L117.163 65.5957C117.435 66.9539 118.304 67.4957 119.747 67.2063ZM118.085 63.9763C117.955 63.3283 118.204 62.9643 118.869 62.831C119.533 62.6976 119.903 62.9374 120.033 63.5853L120.319 65.0076C120.449 65.6555 120.2 66.0195 119.535 66.1529C118.87 66.2862 118.5 66.0464 118.37 65.3985L118.085 63.9763Z" fill="#212D36"/>
<path d="M104.368 64.6449C103.813 64.7562 103.155 64.9878 102.716 65.2247L103.049 66.1336C103.502 65.9382 103.979 65.7851 104.395 65.7015C105.185 65.5431 105.428 65.6352 105.559 66.287L105.612 66.552C105.043 66.6758 104.246 66.94 103.686 67.3752C103.241 67.7209 103.044 68.1762 103.195 68.9295C103.31 69.5033 103.671 70.4324 104.791 70.2076C105.32 70.1014 105.9 69.815 106.272 69.4312L106.308 69.3943L106.484 69.7549L107.463 69.5585L106.771 66.1111C106.493 64.7281 105.865 64.3445 104.368 64.6449ZM106.032 68.6429L106.016 68.6575C105.861 68.7959 105.453 69.0576 105.012 69.1462C104.618 69.2252 104.433 69.0961 104.35 68.6863C104.291 68.3924 104.324 68.1684 104.473 68.0395C104.777 67.7763 105.137 67.5423 105.342 67.5013C105.644 67.4407 105.849 67.7311 105.912 68.0457L106.032 68.6429Z" fill="#212D36"/>
<path d="M88.8056 69.1804L91.4373 68.6522L91.0198 67.4365L89.754 67.6906L89.4545 66.1978L88.2903 66.6126L88.8056 69.1804Z" fill="#212D36"/>
</g>
<mask id="mask0_742_21409" style="mask-type:alpha" maskUnits="userSpaceOnUse" x="1" y="48" width="140" height="104">
<rect x="1.10762" y="0.737378" width="126.118" height="80.116" rx="6.5863" transform="matrix(0.980452 -0.19676 0.196744 0.980455 0.104117 72.8818)" fill="white" stroke="#054375" stroke-width="1.8818"/>
</mask>
<g mask="url(#mask0_742_21409)">
<path d="M132.961 88.3082L93.6567 112.242L109.836 133.323" stroke="#212D36" stroke-width="0.9409"/>
</g>
<path d="M13.7162 87.2468L12.9374 83.3656L15.9161 82.7678L16.0563 83.4665L13.8804 83.9031L14.0584 84.7902L15.4924 84.5025L15.6281 85.1789L14.1941 85.4667L14.3788 86.3871L16.5769 85.9459L16.7171 86.6445L13.7162 87.2468Z" fill="#212D36"/>
<path d="M17.6723 86.4528L16.8935 82.5717L17.9233 82.365L19.4069 84.2475L20.0494 81.9384L21.0792 81.7317L21.8581 85.6128L21.0995 85.7651L20.5265 82.9096L19.6985 85.7578L17.839 83.4375L18.4142 86.304L17.6723 86.4528Z" fill="#212D36"/>
<path d="M22.9423 85.3952L22.1635 81.5141L24.1069 81.1241C24.3616 81.073 24.5953 81.0799 24.808 81.1449C25.0244 81.2091 25.2065 81.3226 25.3543 81.4851C25.5014 81.644 25.599 81.8436 25.6472 82.0839C25.6932 82.3131 25.679 82.5293 25.6046 82.7327C25.5302 82.936 25.4056 83.109 25.2308 83.2518C25.0559 83.3946 24.843 83.4911 24.592 83.5415L23.4514 83.7704L23.7451 85.2341L22.9423 85.3952ZM23.3179 83.105L24.3699 82.8939C24.5434 82.8591 24.6721 82.7833 24.7562 82.6664C24.844 82.5489 24.8719 82.4106 24.84 82.2517C24.8074 82.089 24.7279 81.9704 24.6016 81.8958C24.4789 81.8204 24.3309 81.8001 24.1574 81.8349L23.1054 82.046L23.3179 83.105Z" fill="#212D36"/>
<path d="M27.0985 84.5612L26.3197 80.68L28.2132 80.3C28.4753 80.2474 28.7164 80.2529 28.9365 80.3164C29.1595 80.3754 29.3446 80.4844 29.4916 80.6433C29.6424 80.8015 29.7415 80.9988 29.789 81.2354C29.8387 81.4831 29.8142 81.7148 29.7154 81.9308C29.6167 82.1467 29.4622 82.3238 29.2519 82.4621L30.4316 83.8923L29.5346 84.0723L28.4779 82.7386L27.6032 82.9141L27.9013 84.4001L27.0985 84.5612ZM27.4708 82.2543L28.4895 82.0499C28.6704 82.0136 28.8047 81.9367 28.8924 81.8191C28.9839 81.7007 29.014 81.564 28.9829 81.4087C28.9517 81.2535 28.8711 81.1389 28.7411 81.065C28.6148 80.9904 28.4612 80.9712 28.2803 81.0075L27.2616 81.212L27.4708 82.2543Z" fill="#212D36"/>
<path d="M31.2439 83.7293L30.4651 79.8481L33.4438 79.2503L33.584 79.9489L31.4081 80.3856L31.5861 81.2727L33.0201 80.985L33.1558 81.6614L31.7218 81.9492L31.9065 82.8695L34.1046 82.4284L34.2448 83.127L31.2439 83.7293Z" fill="#212D36"/>
<path d="M36.5953 82.713C36.2815 82.776 35.9637 82.7802 35.6417 82.7256C35.319 82.6673 35.0199 82.5543 34.7443 82.3866L35.0881 81.7177C35.3533 81.8721 35.5982 81.973 35.8227 82.0202C36.0509 82.0667 36.2813 82.0666 36.5138 82.0199C36.6762 81.9873 36.8128 81.9407 36.9235 81.88C37.0334 81.8157 37.1124 81.7402 37.1603 81.6537C37.2119 81.5664 37.2277 81.4729 37.2076 81.3731C37.1809 81.24 37.1126 81.148 37.0025 81.0971C36.8917 81.0424 36.7159 81.0181 36.4752 81.0241L35.6789 81.0454C35.3393 81.0559 35.065 80.9899 34.8559 80.8473C34.6505 80.7039 34.5196 80.4918 34.4632 80.2108C34.415 79.9706 34.434 79.7495 34.5202 79.5477C34.6101 79.345 34.7584 79.1749 34.965 79.0373C35.1745 78.8953 35.4362 78.7928 35.7499 78.7299C36.0341 78.6728 36.3262 78.6642 36.626 78.704C36.9295 78.7431 37.2072 78.8258 37.4591 78.9521L37.1474 79.6376C36.679 79.4086 36.24 79.3352 35.8303 79.4174C35.6863 79.4463 35.5646 79.49 35.4649 79.5484C35.3653 79.6068 35.2926 79.6753 35.2469 79.7536C35.2042 79.8276 35.1917 79.9089 35.2095 79.9976C35.2332 80.1159 35.2942 80.1998 35.3925 80.2493C35.49 80.2951 35.6417 80.3146 35.8477 80.3079L36.603 80.2832C37.0032 80.2683 37.3178 80.334 37.5468 80.4802C37.7751 80.6229 37.9193 80.8439 37.9794 81.1433C38.0298 81.3946 38.0075 81.6279 37.9125 81.843C37.8167 82.0545 37.6555 82.2368 37.429 82.39C37.2054 82.5387 36.9275 82.6463 36.5953 82.713Z" fill="#212D36"/>
<path d="M38.6554 82.2419L39.4711 78.0407L40.3958 77.8552L42.7525 81.4197L41.8833 81.5941L41.2855 80.6528L39.6854 80.9739L39.4914 82.0741L38.6554 82.2419ZM39.8054 80.2808L40.9128 80.0585L40.0721 78.7392L39.8054 80.2808Z" fill="#212D36"/>
<path d="M43.4691 81.2759L42.6903 77.3947L44.5838 77.0147C44.8459 76.9621 45.087 76.9676 45.3071 77.0311C45.5301 77.0901 45.7152 77.1991 45.8622 77.358C46.013 77.5162 46.1121 77.7135 46.1596 77.9501C46.2093 78.1977 46.1848 78.4295 46.086 78.6455C45.9873 78.8614 45.8328 79.0385 45.6224 79.1768L46.8022 80.607L45.9052 80.787L44.8485 79.4533L43.9737 79.6288L44.2719 81.1148L43.4691 81.2759ZM43.8413 78.969L44.8601 78.7646C45.0409 78.7283 45.1753 78.6514 45.263 78.5338C45.3545 78.4154 45.3846 78.2787 45.3535 78.1234C45.3223 77.9682 45.2417 77.8536 45.1117 77.7797C44.9854 77.7051 44.8318 77.6859 44.6509 77.7222L43.6322 77.9267L43.8413 78.969Z" fill="#212D36"/>
<path d="M47.6145 80.444L46.8356 76.5628L47.6385 76.4017L48.4173 80.2828L47.6145 80.444Z" fill="#212D36"/>
<path d="M49.1396 80.1379L49.9553 75.9367L50.88 75.7512L53.2367 79.3157L52.3675 79.4901L51.7697 78.5488L50.1696 78.8699L49.9756 79.9701L49.1396 80.1379ZM50.2896 78.1768L51.397 77.9545L50.5563 76.6352L50.2896 78.1768Z" fill="#212D36"/>
<path d="M53.9533 79.1719L53.1745 75.2907L53.9773 75.1296L54.6137 78.3011L56.7342 77.8755L56.8767 78.5852L53.9533 79.1719Z" fill="#212D36"/>
<path d="M127.246 118.57C126.717 118.491 126.177 118.506 125.653 118.614C123.955 118.955 122.927 120.046 123.164 121.269C123.333 122.168 124.297 122.5 125.01 122.669C125.741 122.843 126.004 122.992 126.057 123.268C126.137 123.688 125.645 123.984 125.151 124.083C124.473 124.219 124.084 124.199 123.467 124.078L123.236 124.023L123.277 125.477C123.724 125.565 124.498 125.562 125.268 125.421C127.073 125.058 128.083 123.976 127.837 122.675C127.708 121.955 127.132 121.508 126.06 121.257C125.404 121.087 124.995 120.967 124.936 120.673C124.884 120.412 125.145 120.07 125.808 119.937C126.247 119.838 126.702 119.832 127.144 119.92L127.317 119.959L127.285 118.553L127.246 118.57ZM131.621 117.535L130.295 117.802C129.882 117.884 129.594 118.06 129.495 118.503L128.098 124.762L129.902 124.4L130.074 123.385L132.277 122.945C132.373 123.155 132.677 123.843 132.677 123.843L134.269 123.523L131.621 117.535ZM120.319 119.749L122.039 119.403L122.221 125.889L120.503 126.234L120.318 119.746L120.319 119.749ZM116.646 124.081L116.999 124.915L117.822 120.305L119.644 119.939L118.193 126.741L116.376 127.105L113.827 122.104C113.785 122.022 113.714 121.958 113.627 121.926C113.036 121.758 112.427 121.663 111.813 121.643L111.81 121.507L114.578 120.951C114.956 120.891 115.282 120.947 115.463 121.326L116.646 124.084L116.645 124.081L116.646 124.081ZM130.31 122.004L130.644 120.112C130.639 120.133 130.712 119.722 130.752 119.469L130.978 119.987L131.739 121.716L130.309 122.003L130.309 122.004L130.31 122.004Z" fill="#212D36"/>
<rect width="16.9412" height="12.2525" rx="1.8818" transform="matrix(0.980452 -0.19676 0.196744 0.980455 14.8291 92.7913)" fill="#F5DA57"/>
<defs>
<clipPath id="clip0_742_21409">
<rect width="32.9412" height="7.81285" fill="white" transform="matrix(0.980452 -0.19676 0.196744 0.980455 88.0854 65.5917)"/>
</clipPath>
</defs>
</svg>
