<svg width="320" height="248" viewBox="0 0 320 248" fill="none" xmlns="http://www.w3.org/2000/svg">
<path opacity="0.3" d="M242.288 129.099C243.842 127.528 243.842 124.982 242.288 123.412L134.806 14.8023C133.097 13.0757 130.272 13.2741 128.816 15.2229L89.259 68.1738C88.0631 69.7746 88.2176 72.0212 89.6212 73.4395L138.959 123.295C140.513 124.865 140.513 127.411 138.959 128.981L83.3362 185.188C81.6282 186.913 81.8236 189.767 83.7505 191.238L136.255 231.341C137.839 232.551 140.064 232.395 141.468 230.977L242.288 129.099Z" fill="#1090F9"/>
<path opacity="0.3" d="M134.017 23.8464L241.499 132.456C242.664 133.634 242.664 135.543 241.499 136.721L140.679 238.599C139.626 239.663 137.957 239.78 136.769 238.872L84.2646 198.77C82.8194 197.666 82.6729 195.526 83.9539 194.232L139.577 138.025C141.519 136.062 141.519 132.88 139.577 130.917L90.2389 81.062C89.1862 79.9983 89.0704 78.3133 89.9673 77.1127L129.525 24.1618C130.617 22.7002 132.735 22.5514 134.017 23.8464Z" stroke="#05BDFB" stroke-width="2"/>
<path opacity="0.3" d="M184.795 28.2148C185.899 28.2148 186.795 29.1103 186.795 30.2148L186.795 32.889C186.795 33.7655 186.02 34.4397 185.152 34.3189V34.3189C184.438 34.2195 183.907 33.6094 183.907 32.889L183.907 32.7054C183.907 31.8188 183.189 31.1 182.302 31.1L182.115 31.1C181.239 31.1 180.565 30.3257 180.686 29.4582V29.4582C180.785 28.7453 181.395 28.2148 182.115 28.2148L184.795 28.2148Z" fill="#1090F9"/>
<path opacity="0.3" d="M234.04 72.1578C234.592 73.1142 234.265 74.337 233.308 74.8889L229.347 77.174C228.295 77.7809 226.94 77.297 226.484 76.1718V76.1718C226.109 75.2472 226.466 74.1719 227.331 73.6732L227.786 73.4105C228.743 72.8585 229.07 71.6357 228.518 70.6793L228.253 70.2207C227.645 69.1693 228.108 67.8241 229.233 67.3682L229.272 67.3525C230.197 66.9778 231.257 67.342 231.757 68.2061L234.04 72.1578Z" fill="#1090F9"/>
<path opacity="0.3" d="M147.399 210.212C147.951 211.169 147.624 212.391 146.667 212.943L142.706 215.228C141.654 215.835 140.299 215.351 139.843 214.226V214.226C139.468 213.302 139.825 212.226 140.69 211.728L141.145 211.465C142.102 210.913 142.429 209.69 141.877 208.734L141.612 208.275C141.004 207.224 141.467 205.879 142.592 205.423L142.631 205.407C143.556 205.032 144.616 205.396 145.115 206.261L147.399 210.212Z" fill="#1090F9"/>
<path opacity="0.3" d="M232.574 167.884C231.792 167.103 231.792 165.838 232.574 165.057L239.81 157.827C240.691 156.946 242.155 157.076 242.867 158.098L243.549 159.078C244.102 159.872 244.006 160.949 243.321 161.633L240.946 164.007C240.164 164.787 240.164 166.053 240.946 166.834L242.329 168.216C243.171 169.057 243.096 170.442 242.168 171.187L240.083 172.864C239.287 173.504 238.136 173.442 237.414 172.72L232.574 167.884Z" fill="#1090F9"/>
<rect x="93" y="73" width="115" height="80" rx="7" fill="white" stroke="#054375" stroke-width="2"/>
<path d="M96.2579 81.5747C96.1962 81.5747 96.1256 81.5482 96.0727 81.4953C95.9758 81.3983 95.9758 81.2308 96.0727 81.1338L101.134 76.0727C101.231 75.9758 101.398 75.9758 101.495 76.0727C101.592 76.1697 101.592 76.3373 101.495 76.4343L96.4343 81.4953C96.3814 81.5482 96.3196 81.5747 96.2579 81.5747Z" fill="#054375"/>
<path d="M116.132 86.5945C116.07 86.5945 116 86.5681 115.947 86.5152C115.85 86.4182 115.85 86.2506 115.947 86.1536L126.134 76.0727C126.231 75.9758 126.398 75.9758 126.495 76.0727C126.592 76.1697 126.592 76.3373 126.495 76.4343L116.309 86.5152C116.256 86.5681 116.194 86.5945 116.132 86.5945Z" fill="#054375"/>
<path d="M95.5616 87.3326C95.4999 87.3326 95.4294 87.3061 95.3765 87.2532C95.2795 87.1562 95.2795 86.9887 95.3765 86.8917L106.134 76.0727C106.231 75.9758 106.398 75.9758 106.495 76.0727C106.592 76.1697 106.592 76.3373 106.495 76.4343L95.738 87.2532C95.6851 87.3061 95.6234 87.3326 95.5616 87.3326Z" fill="#054375"/>
<path d="M122.306 85.5264C122.244 85.5264 122.174 85.5 122.121 85.4471C122.024 85.3501 122.024 85.1826 122.121 85.0856L131.134 76.0727C131.231 75.9758 131.398 75.9758 131.495 76.0727C131.592 76.1697 131.592 76.3373 131.495 76.4343L122.482 85.4471C122.429 85.5 122.368 85.5264 122.306 85.5264Z" fill="#054375"/>
<path d="M97.6323 90.0945C97.5706 90.0945 97.5 90.0681 97.4471 90.0152C97.3501 89.9182 97.3501 89.7506 97.4471 89.6536L111.134 76.0727C111.231 75.9758 111.398 75.9758 111.495 76.0727C111.592 76.1697 111.592 76.3373 111.495 76.4343L97.8086 90.0152C97.7557 90.0681 97.694 90.0945 97.6323 90.0945Z" fill="#054375"/>
<path d="M128.306 84.5264C128.245 84.5264 128.174 84.5 128.121 84.4471C128.024 84.3501 128.024 84.1826 128.121 84.0856L136.134 76.0727C136.231 75.9758 136.398 75.9758 136.495 76.0727C136.592 76.1697 136.592 76.3373 136.495 76.4343L128.483 84.4471C128.43 84.5 128.368 84.5264 128.306 84.5264Z" fill="#054375"/>
<path d="M104.282 88.7444C104.22 88.7444 104.15 88.718 104.097 88.665C104 88.5681 104 88.4005 104.097 88.3035L116.134 76.0727C116.231 75.9758 116.398 75.9758 116.495 76.0727C116.592 76.1697 116.592 76.3373 116.495 76.4343L104.458 88.665C104.405 88.718 104.344 88.7444 104.282 88.7444Z" fill="#054375"/>
<path d="M134.394 83.5C134.333 83.5 134.262 83.4736 134.209 83.4206C134.112 83.3237 134.112 83.1561 134.209 83.0591L138.603 78.6033L141.134 76.0727C141.231 75.9758 141.398 75.9758 141.495 76.0727C141.592 76.1697 141.592 76.3373 141.495 76.4343L134.571 83.4206C134.518 83.4736 134.456 83.5 134.394 83.5Z" fill="#054375"/>
<path d="M110.394 87.5C110.333 87.5 110.262 87.4736 110.209 87.4206C110.112 87.3237 110.112 87.1561 110.209 87.0591L121.134 76.0727C121.231 75.9758 121.398 75.9758 121.495 76.0727C121.592 76.1697 121.592 76.3373 121.495 76.4343L110.571 87.4206C110.518 87.4736 110.456 87.5 110.394 87.5Z" fill="#054375"/>
<path d="M140.282 82.5504C140.22 82.5504 140.15 82.524 140.097 82.4711C140 82.3741 140 82.2066 140.097 82.1096L146.134 76.0727C146.231 75.9758 146.398 75.9758 146.495 76.0727C146.592 76.1697 146.592 76.3373 146.495 76.4343L140.458 82.4711C140.405 82.524 140.344 82.5504 140.282 82.5504Z" fill="#054375"/>
<rect x="80.207" y="93.6011" width="116.085" height="79.3136" rx="8" transform="rotate(-9.72099 80.207 93.6011)" fill="#D7DEE5"/>
<rect x="78.1545" y="96.9945" width="114.962" height="79.8734" rx="7" transform="rotate(-9.72099 78.1545 96.9945)" fill="white" stroke="#054375" stroke-width="2"/>
<path d="M189.676 140.939L97.2395 156.956L98.2691 162.898L190.706 146.882L189.676 140.939Z" fill="#7CDDFD"/>
<path d="M190.84 147.647L98.4028 163.663C97.7897 163.769 97.2329 163.517 97.1606 163.1L96.131 157.157C96.0587 156.74 96.4981 156.315 97.1112 156.209L189.548 140.192C190.161 140.086 190.718 140.339 190.79 140.756L191.82 146.698C191.892 147.115 191.453 147.54 190.84 147.647ZM98.2677 161.931L190.316 146.325L189.548 141.894L97.5 157.5L98.2677 161.931Z" fill="#054375"/>
<rect x="91" y="126.173" width="24" height="16" rx="2" transform="rotate(-10.0137 91 126.173)" fill="#F5DA57"/>
<path fill-rule="evenodd" clip-rule="evenodd" d="M180.665 60.0651C175.091 60.0651 170.572 64.471 170.572 69.9059V82.3154H165.377V69.9059C165.377 61.6736 172.222 55 180.665 55C189.109 55 195.954 61.6736 195.954 69.9059V82.3154H190.759V69.9059C190.759 64.471 186.24 60.0651 180.665 60.0651Z" fill="#011727"/>
<circle cx="180.665" cy="101.273" r="23.6654" fill="white" stroke="#054375" stroke-width="2"/>
<ellipse cx="179.442" cy="100.458" rx="18.1423" ry="18.55" fill="#D7DEE5"/>
<ellipse cx="180.665" cy="100.865" rx="18.1423" ry="18.55" fill="#40CDFC"/>
<path fill-rule="evenodd" clip-rule="evenodd" d="M183.423 99.1151C184.592 98.2368 185.349 96.8383 185.349 95.2633C185.349 92.6043 183.193 90.4487 180.534 90.4487C177.875 90.4487 175.719 92.6043 175.719 95.2633C175.719 96.8385 176.476 98.237 177.645 99.1154V109.781C177.645 111.376 178.939 112.67 180.534 112.67C182.13 112.67 183.423 111.376 183.423 109.781V99.1151Z" fill="#054375"/>
<path d="M187.921 111.262C187.892 111.262 187.859 111.248 187.834 111.222C187.789 111.174 187.789 111.09 187.834 111.042L194.526 103.959C194.572 103.911 194.651 103.911 194.697 103.959C194.742 104.008 194.742 104.091 194.697 104.14L188.004 111.222C187.98 111.248 187.951 111.262 187.921 111.262Z" fill="#054375"/>
<path d="M187.917 108C187.889 108 187.857 107.988 187.833 107.965C187.789 107.922 187.789 107.847 187.833 107.804L191.68 103.955C191.724 103.912 191.8 103.912 191.844 103.955C191.888 103.999 191.888 104.073 191.844 104.116L187.997 107.965C187.973 107.988 187.945 108 187.917 108Z" fill="#054375"/>
<path d="M191.179 110.854C191.151 110.854 191.119 110.842 191.095 110.818C191.05 110.775 191.05 110.701 191.095 110.658L194.941 106.809C194.985 106.766 195.061 106.766 195.105 106.809C195.149 106.852 195.149 106.927 195.105 106.97L191.259 110.818C191.235 110.842 191.207 110.854 191.179 110.854Z" fill="#054375"/>
<circle cx="203" cy="124" r="16.3" fill="#F0FBFF" stroke="black" stroke-width="1.4"/>
<path d="M196.577 117.577C196.734 117.421 196.946 117.333 197.167 117.333H206.333C206.794 117.333 207.167 116.96 207.167 116.5C207.167 116.04 206.794 115.667 206.333 115.667H197.167C196.504 115.667 195.868 115.93 195.399 116.399C194.93 116.868 194.667 117.504 194.667 118.167V129.833C194.667 130.496 194.93 131.132 195.399 131.601C195.868 132.07 196.504 132.333 197.167 132.333H208.833C209.496 132.333 210.132 132.07 210.601 131.601C211.07 131.132 211.333 130.496 211.333 129.833V124C211.333 123.54 210.96 123.167 210.5 123.167C210.04 123.167 209.667 123.54 209.667 124V129.833C209.667 130.054 209.579 130.266 209.423 130.423C209.266 130.579 209.054 130.667 208.833 130.667H197.167C196.946 130.667 196.734 130.579 196.577 130.423C196.421 130.266 196.333 130.054 196.333 129.833V118.167C196.333 117.946 196.421 117.734 196.577 117.577Z" fill="#26A94D"/>
<path d="M203.589 126.256L211.923 117.923C212.248 117.597 212.248 117.07 211.923 116.744C211.597 116.419 211.07 116.419 210.744 116.744L203 124.488L201.089 122.577C200.764 122.252 200.236 122.252 199.911 122.577C199.585 122.903 199.585 123.431 199.911 123.756L202.411 126.256C202.736 126.581 203.264 126.581 203.589 126.256Z" fill="#26A94D"/>
</svg>
