<svg width="208" height="161" viewBox="0 0 208 161" fill="none" xmlns="http://www.w3.org/2000/svg">
<path opacity="0.3" d="M176.686 80.6462C178.24 79.0754 178.24 76.5286 176.686 74.9577L105.925 3.39785C104.217 1.67056 101.393 1.86902 99.9379 3.81862L74.74 37.5744C73.5446 39.1758 73.699 41.4233 75.102 42.8421L106.781 74.8783C108.334 76.4491 108.334 78.9959 106.781 80.5668L71.1033 116.647C69.396 118.373 69.5912 121.228 71.5174 122.7L104.968 148.269C106.551 149.479 108.775 149.324 110.179 147.904L176.686 80.6462Z" fill="#1090F9"/>
<path opacity="0.3" d="M175.925 81.3094C177.09 82.4875 177.09 84.3977 175.925 85.5758L109.417 152.834C108.365 153.899 106.697 154.015 105.509 153.107L72.0589 127.538C70.6143 126.434 70.4678 124.293 71.7483 122.998L107.426 86.9184C109.367 84.9549 109.367 81.7714 107.426 79.8078L75.747 47.7717C74.6948 46.7076 74.579 45.022 75.4755 43.8209L100.673 10.0651C101.765 8.60291 103.883 8.45408 105.164 9.74954L175.925 81.3094Z" stroke="#05BDFB" stroke-width="2"/>
<path opacity="0.3" d="M138.057 11.4219C139.159 11.4219 140.052 12.3151 140.052 13.4171L140.052 14.5873C140.052 15.1803 139.528 15.6365 138.941 15.5547C138.458 15.4874 138.099 15.0746 138.099 14.5873L138.099 14.4615C138.099 13.8616 137.613 13.3753 137.013 13.3753L136.887 13.3753C136.294 13.3753 135.838 12.8511 135.92 12.2638C135.987 11.7811 136.4 11.4219 136.887 11.4219L138.057 11.4219Z" fill="#1090F9"/>
<path opacity="0.3" d="M171.692 40.6149C172.244 41.5715 171.916 42.7947 170.96 43.347L168.854 44.5628C168.135 44.9779 167.215 44.6617 166.903 43.8923C166.647 43.26 166.896 42.5355 167.487 42.1944L167.639 42.1063C168.366 41.6864 168.616 40.7564 168.196 40.029L168.108 39.8765C167.693 39.1575 168.009 38.2375 168.778 37.9256C169.41 37.6692 170.135 37.9182 170.476 38.5091L171.692 40.6149Z" fill="#1090F9"/>
<path opacity="0.3" d="M106.519 134.088C107.071 135.044 106.743 136.267 105.787 136.82L103.681 138.035C102.962 138.451 102.042 138.134 101.73 137.365C101.474 136.733 101.723 136.008 102.314 135.667L102.466 135.579C103.194 135.159 103.443 134.229 103.023 133.502L102.935 133.349C102.52 132.63 102.836 131.71 103.605 131.398C104.238 131.142 104.962 131.391 105.303 131.982L106.519 134.088Z" fill="#1090F9"/>
<path opacity="0.3" d="M171.48 106.443C170.699 105.662 170.699 104.396 171.48 103.615L175.583 99.5126C176.354 98.7413 177.635 98.8553 178.258 99.7507C178.743 100.447 178.659 101.39 178.059 101.989L177.13 102.918C176.357 103.691 176.357 104.945 177.13 105.718C177.963 106.551 177.889 107.922 176.971 108.66L176.555 108.994C175.76 109.635 174.61 109.573 173.887 108.85L171.48 106.443Z" fill="#1090F9"/>
<path d="M52.4739 72.1134C57.5582 49.0218 79.0196 51.4716 87.866 54.7954C90.4678 46.5732 96.1913 30.1289 116.486 30.1289C133.138 30.1289 142.852 42.7243 145.627 49.0219C154.474 49.0219 168.004 54.7954 168.004 74.7374C168.004 89.432 153.433 96.4293 145.627 97.3041H68.6121C59.765 97.3041 49.5852 85.2336 52.4739 72.1134Z" fill="white" stroke="#054375" stroke-width="2"/>
<path opacity="0.13" d="M39.5002 94.539C44.6179 69.6106 66.2205 72.2553 75.1251 75.8434C77.744 66.9672 83.5052 49.2148 103.934 49.2148C120.695 49.2148 130.473 62.8121 133.267 69.6107C142.171 69.6107 155.79 75.8434 155.79 97.3718C155.79 113.235 141.123 120.789 133.267 121.734H55.7446C46.8392 121.734 36.5924 108.703 39.5002 94.539Z" fill="#054375"/>
<path d="M61.5484 75.8866C61.4755 75.8866 61.3921 75.8554 61.3296 75.7928C61.215 75.6783 61.215 75.4803 61.3296 75.3657L78.1244 58.582C78.239 58.4674 78.4369 58.4674 78.5515 58.582C78.6661 58.6966 78.6661 58.8945 78.5515 59.0091L61.7567 75.7928C61.6942 75.8554 61.6213 75.8866 61.5484 75.8866Z" fill="#054375"/>
<path d="M102.175 51.9257C102.102 51.9257 102.019 51.8944 101.956 51.8319C101.841 51.7173 101.841 51.5194 101.956 51.4048L118.751 34.6211C118.865 34.5065 119.063 34.5065 119.178 34.6211C119.293 34.7357 119.293 34.9336 119.178 35.0482L102.383 51.8319C102.321 51.8944 102.248 51.9257 102.175 51.9257Z" fill="#054375"/>
<path d="M112.592 54.0077C112.519 54.0077 112.436 53.9764 112.373 53.9139C112.258 53.7994 112.258 53.6014 112.373 53.4868L129.168 36.7031C129.282 36.5885 129.48 36.5885 129.595 36.7031C129.71 36.8177 129.71 37.0156 129.595 37.1302L112.8 53.9139C112.738 53.9764 112.665 54.0077 112.592 54.0077Z" fill="#054375"/>
<path d="M137.592 71.7186C137.519 71.7186 137.436 71.6874 137.374 71.6249C137.259 71.5103 137.259 71.3124 137.374 71.1978L154.168 54.4141C154.283 54.2995 154.481 54.2995 154.595 54.4141C154.71 54.5287 154.71 54.7266 154.595 54.8412L137.801 71.6249C137.738 71.6874 137.665 71.7186 137.592 71.7186Z" fill="#054375"/>
<path d="M59.4649 69.317C59.392 69.317 59.3086 69.2858 59.2461 69.2233C59.1315 69.1087 59.1315 68.9108 59.2461 68.7962L69.2412 58.582C69.3558 58.4674 69.5537 58.4674 69.6683 58.582C69.7829 58.6966 69.7829 58.8945 69.6683 59.0091L59.6732 69.2233C59.6107 69.2858 59.5378 69.317 59.4649 69.317Z" fill="#054375"/>
<path d="M100.091 45.3561C100.018 45.3561 99.9351 45.3249 99.8726 45.2624C99.758 45.1478 99.758 44.9498 99.8726 44.8353L109.868 34.6211C109.982 34.5065 110.18 34.5065 110.295 34.6211C110.409 34.7357 110.409 34.9336 110.295 35.0482L100.3 45.2624C100.237 45.3249 100.164 45.3561 100.091 45.3561Z" fill="#054375"/>
<path d="M123.009 54.7311C122.936 54.7311 122.853 54.6999 122.79 54.6374C122.675 54.5228 122.675 54.3248 122.79 54.2103L132.785 43.9961C132.9 43.8815 133.098 43.8815 133.212 43.9961C133.327 44.1107 133.327 44.3086 133.212 44.4232L123.217 54.6374C123.155 54.6999 123.082 54.7311 123.009 54.7311Z" fill="#054375"/>
<path d="M130.301 59.9381C130.228 59.9381 130.145 59.9069 130.082 59.8444C129.967 59.7298 129.967 59.5319 130.082 59.4173L140.077 49.2031C140.192 49.0885 140.39 49.0885 140.504 49.2031C140.619 49.3177 140.619 49.5156 140.504 49.6302L130.509 59.8444C130.447 59.9069 130.374 59.9381 130.301 59.9381Z" fill="#054375"/>
<path d="M136.551 64.1061C136.478 64.1061 136.395 64.0749 136.332 64.0124C136.217 63.8978 136.217 63.6998 136.332 63.5853L146.327 53.3711C146.442 53.2565 146.64 53.2565 146.754 53.3711C146.869 53.4857 146.869 53.6836 146.754 53.7982L136.759 64.0124C136.697 64.0749 136.624 64.1061 136.551 64.1061Z" fill="#054375"/>
<path d="M146.968 71.3991C146.895 71.3991 146.812 71.3678 146.749 71.3053C146.634 71.1907 146.634 70.9928 146.749 70.8782L156.744 60.6641C156.859 60.5495 157.057 60.5495 157.171 60.6641C157.286 60.7787 157.286 60.9766 157.171 61.0912L147.176 71.3053C147.114 71.3678 147.041 71.3991 146.968 71.3991Z" fill="#054375"/>
<path d="M151.134 77.6491C151.061 77.6491 150.978 77.6178 150.916 77.5553C150.801 77.4407 150.801 77.2428 150.916 77.1282L160.911 66.9141C161.025 66.7995 161.223 66.7995 161.338 66.9141C161.452 67.0287 161.452 67.2266 161.338 67.3412L151.343 77.5553C151.28 77.6178 151.207 77.6491 151.134 77.6491Z" fill="#054375"/>
<path d="M154.26 83.8991C154.187 83.8991 154.104 83.8678 154.041 83.8053C153.926 83.6907 153.926 83.4928 154.041 83.3782L164.036 73.1641C164.151 73.0495 164.349 73.0495 164.463 73.1641C164.578 73.2787 164.578 73.4766 164.463 73.5912L154.468 83.8053C154.406 83.8678 154.333 83.8991 154.26 83.8991Z" fill="#054375"/>
<path d="M40.2601 96.8277C45.3443 73.9985 66.8058 76.4205 75.6522 79.7065C78.2539 71.5778 83.9774 55.3203 104.273 55.3203C120.925 55.3203 130.638 67.7725 133.414 73.9986C142.26 73.9986 155.79 79.7065 155.79 99.4219C155.79 113.95 141.219 120.867 133.414 121.732H56.3983C47.5512 121.732 37.3713 109.799 40.2601 96.8277Z" fill="white" stroke="#054375" stroke-width="2"/>
<path d="M102 114.129L115 94.8515L106.355 94.8515L106.355 76.1289L97.645 76.1289L97.645 94.8515L89 94.8515L102 114.129Z" fill="#7CDDFD" stroke="#054375" stroke-width="2"/>
</svg>
