<svg width="320" height="248" viewBox="0 0 320 248" fill="none" xmlns="http://www.w3.org/2000/svg">
<path opacity="0.3" d="M254.679 129.137C256.232 127.566 256.232 125.02 254.679 123.449L145.393 12.9291C143.685 11.2018 140.861 11.4003 139.406 13.3499L99.1415 67.2888C97.946 68.8903 98.1005 71.1377 99.5035 72.5566L149.71 123.329C151.263 124.9 151.263 127.447 149.71 129.018L93.106 186.26C91.3987 187.987 91.5939 190.841 93.5201 192.314L146.962 233.164C148.546 234.375 150.77 234.219 152.173 232.8L254.679 129.137Z" fill="#1090F9"/>
<path opacity="0.3" d="M253.888 132.632C255.053 133.81 255.053 135.72 253.888 136.898L151.383 240.561C150.33 241.626 148.662 241.742 147.474 240.834L94.0323 199.984C92.5877 198.879 92.4412 196.739 93.7217 195.444L150.326 138.201C152.267 136.238 152.267 133.054 150.326 131.091L100.119 80.3177C99.0669 79.2536 98.9511 77.568 99.8477 76.3669L140.112 22.428C141.203 20.9658 143.321 20.8169 144.602 22.1124L253.888 132.632Z" stroke="#05BDFB" stroke-width="2"/>
<path opacity="0.3" d="M196.259 26.6185C197.364 26.6185 198.259 27.514 198.259 28.6185L198.259 31.3717C198.259 32.2622 197.472 32.9472 196.59 32.8243C195.865 32.7233 195.326 32.1035 195.326 31.3717L195.326 31.1828C195.326 30.282 194.596 29.5517 193.695 29.5517L193.506 29.5517C192.615 29.5517 191.93 28.7647 192.053 27.8827C192.154 27.1579 192.774 26.6185 193.506 26.6185L196.259 26.6185Z" fill="#1090F9"/>
<path opacity="0.3" d="M246.27 71.3224C246.823 72.2789 246.495 73.5021 245.538 74.0544L241.454 76.4122C240.403 77.0194 239.057 76.5569 238.601 75.4315L238.561 75.3319C238.186 74.4071 238.55 73.3474 239.414 72.8485L239.929 72.5513C240.885 71.999 241.213 70.7759 240.661 69.8193L240.356 69.2918C239.749 68.2401 240.212 66.8945 241.337 66.4383L241.437 66.3979C242.361 66.023 243.421 66.3872 243.92 67.2514L246.27 71.3224Z" fill="#1090F9"/>
<path opacity="0.3" d="M148.408 211.678C148.96 212.634 148.632 213.857 147.676 214.41L143.592 216.767C142.54 217.375 141.195 216.912 140.739 215.787L140.698 215.687C140.323 214.762 140.687 213.703 141.552 213.204L142.066 212.907C143.023 212.354 143.351 211.131 142.798 210.174L142.494 209.647C141.887 208.595 142.349 207.25 143.474 206.793L143.574 206.753C144.499 206.378 145.559 206.742 146.058 207.607L148.408 211.678Z" fill="#1090F9"/>
<path opacity="0.3" d="M244.741 168.593C243.96 167.812 243.96 166.545 244.741 165.764L252.143 158.363C253.024 157.482 254.487 157.612 255.199 158.635L255.929 159.685C256.482 160.48 256.386 161.557 255.702 162.241L253.246 164.696C252.465 165.478 252.465 166.744 253.246 167.525L254.7 168.979C255.542 169.82 255.467 171.205 254.54 171.951L252.37 173.697C251.574 174.337 250.424 174.275 249.702 173.553L244.741 168.593Z" fill="#1090F9"/>
<path d="M77.6554 119C84.3158 88.7497 112.43 91.959 124.019 96.3131C127.428 85.542 134.925 63.9999 161.512 63.9999C183.326 63.9999 196.051 80.4999 199.687 88.7499C211.276 88.7499 229 96.3131 229 122.437C229 141.687 209.913 150.854 199.687 152H98.7966C87.2068 152 73.8711 136.187 77.6554 119Z" fill="white" stroke="#054375" stroke-width="2"/>
<path opacity="0.13" d="M60.6597 148.375C67.3639 115.718 95.6636 119.183 107.329 123.883C110.759 112.256 118.307 88.9999 145.068 88.9999C167.026 88.9999 179.835 106.812 183.494 115.719C195.159 115.719 213 123.883 213 152.086C213 172.867 193.787 182.763 183.494 184H81.94C70.2739 184 56.8505 166.93 60.6597 148.375Z" fill="#054375"/>
<path d="M89.5427 123.942C89.4472 123.942 89.338 123.901 89.2561 123.819C89.106 123.669 89.106 123.41 89.2561 123.26L111.257 101.273C111.408 101.123 111.667 101.123 111.817 101.273C111.967 101.423 111.967 101.682 111.817 101.832L89.8157 123.819C89.7338 123.901 89.6383 123.942 89.5427 123.942Z" fill="#054375"/>
<path d="M142.763 92.5553C142.668 92.5553 142.559 92.5144 142.477 92.4325C142.327 92.2824 142.327 92.0231 142.477 91.873L164.478 69.8862C164.628 69.7361 164.888 69.7361 165.038 69.8862C165.188 70.0363 165.188 70.2956 165.038 70.4457L143.036 92.4325C142.955 92.5144 142.859 92.5553 142.763 92.5553Z" fill="#054375"/>
<path d="M156.41 95.2846C156.314 95.2846 156.205 95.2437 156.123 95.1618C155.973 95.0117 155.973 94.7524 156.123 94.6023L178.125 72.6155C178.275 72.4654 178.534 72.4654 178.684 72.6155C178.834 72.7656 178.834 73.0249 178.684 73.175L156.683 95.1618C156.601 95.2437 156.505 95.2846 156.41 95.2846Z" fill="#054375"/>
<path d="M189.161 118.483C189.066 118.483 188.956 118.442 188.875 118.361C188.724 118.21 188.724 117.951 188.875 117.801L210.876 95.8143C211.026 95.6642 211.285 95.6642 211.435 95.8143C211.586 95.9644 211.586 96.2237 211.435 96.3738L189.434 118.361C189.352 118.442 189.257 118.483 189.161 118.483Z" fill="#054375"/>
<path d="M86.8135 115.336C86.718 115.336 86.6088 115.295 86.5269 115.213C86.3768 115.063 86.3768 114.804 86.5269 114.653L99.6205 101.273C99.7707 101.123 100.03 101.123 100.18 101.273C100.33 101.423 100.33 101.682 100.18 101.832L87.0864 115.213C87.0046 115.295 86.909 115.336 86.8135 115.336Z" fill="#054375"/>
<path d="M140.034 83.9492C139.939 83.9492 139.829 83.9082 139.748 83.8264C139.597 83.6763 139.597 83.417 139.748 83.2669L152.841 69.8862C152.991 69.7361 153.251 69.7361 153.401 69.8862C153.551 70.0363 153.551 70.2956 153.401 70.4457L140.307 83.8264C140.225 83.9082 140.13 83.9492 140.034 83.9492Z" fill="#054375"/>
<path d="M170.056 96.2309C169.961 96.2309 169.851 96.1899 169.77 96.1081C169.619 95.958 169.619 95.6987 169.77 95.5486L182.863 82.1679C183.013 82.0178 183.273 82.0178 183.423 82.1679C183.573 82.3181 183.573 82.5773 183.423 82.7274L170.329 96.1081C170.247 96.1899 170.152 96.2309 170.056 96.2309Z" fill="#054375"/>
<path d="M179.609 103.054C179.513 103.054 179.404 103.013 179.322 102.931C179.172 102.781 179.172 102.522 179.322 102.372L192.416 88.9911C192.566 88.841 192.825 88.841 192.975 88.9911C193.125 89.1412 193.125 89.4005 192.975 89.5506L179.882 102.931C179.8 103.013 179.704 103.054 179.609 103.054Z" fill="#054375"/>
<path d="M187.796 108.513C187.701 108.513 187.592 108.472 187.51 108.39C187.36 108.24 187.36 107.98 187.51 107.83L200.603 94.4496C200.754 94.2995 201.013 94.2995 201.163 94.4496C201.313 94.5998 201.313 94.859 201.163 95.0092L188.069 108.39C187.987 108.472 187.892 108.513 187.796 108.513Z" fill="#054375"/>
<path d="M201.443 118.065C201.347 118.065 201.238 118.024 201.156 117.942C201.006 117.792 201.006 117.533 201.156 117.383L214.25 104.002C214.4 103.852 214.659 103.852 214.809 104.002C214.96 104.152 214.96 104.411 214.809 104.562L201.716 117.942C201.634 118.024 201.538 118.065 201.443 118.065Z" fill="#054375"/>
<path d="M206.901 126.253C206.806 126.253 206.697 126.212 206.615 126.13C206.465 125.98 206.465 125.721 206.615 125.571L219.708 112.19C219.859 112.04 220.118 112.04 220.268 112.19C220.418 112.34 220.418 112.599 220.268 112.749L207.174 126.13C207.092 126.212 206.997 126.253 206.901 126.253Z" fill="#054375"/>
<path d="M210.995 134.441C210.9 134.441 210.79 134.4 210.709 134.318C210.558 134.168 210.558 133.908 210.709 133.758L223.802 120.378C223.952 120.228 224.212 120.228 224.362 120.378C224.512 120.528 224.512 120.787 224.362 120.937L211.268 134.318C211.186 134.4 211.091 134.441 210.995 134.441Z" fill="#054375"/>
<path d="M61.6554 151.375C68.3158 121.468 96.4305 124.641 108.019 128.946C111.428 118.297 118.925 96.9999 145.512 96.9999C167.326 96.9999 180.051 113.312 183.687 121.469C195.276 121.469 213 128.946 213 154.773C213 173.805 193.913 182.867 183.687 184H82.7966C71.2068 184 57.8711 168.367 61.6554 151.375Z" fill="white" stroke="#054375" stroke-width="2"/>
<path d="M140 175.82L149.866 165.955L159.411 175.5L173.161 161.75L186.911 148L196.966 158.055L159.601 195.419L140 175.82Z" fill="#7CDDFD" stroke="#054375" stroke-width="2"/>
</svg>
