<svg width="320" height="248" viewBox="0 0 320 248" fill="none" xmlns="http://www.w3.org/2000/svg">
<path opacity="0.3" d="M254.679 129.137C256.232 127.566 256.232 125.02 254.679 123.449L145.393 12.9292C143.685 11.2019 140.861 11.4004 139.406 13.35L99.1415 67.2889C97.946 68.8903 98.1005 71.1378 99.5035 72.5566L149.71 123.329C151.263 124.9 151.263 127.447 149.71 129.018L93.106 186.261C91.3987 187.987 91.5939 190.841 93.5201 192.314L146.962 233.164C148.546 234.375 150.77 234.219 152.173 232.8L254.679 129.137Z" fill="#1090F9"/>
<path opacity="0.3" d="M253.889 132.633C255.054 133.811 255.054 135.721 253.889 136.899L151.383 240.561C150.33 241.626 148.663 241.743 147.475 240.835L94.0328 199.984C92.5882 198.88 92.4417 196.739 93.7222 195.444L150.326 138.202C152.268 136.238 152.268 133.055 150.326 131.091L100.12 80.3182C99.0674 79.2541 98.9516 77.5685 99.8482 76.3674L140.112 22.4285C141.204 20.9663 143.322 20.8174 144.603 22.1129L253.889 132.633Z" stroke="#05BDFB" stroke-width="2"/>
<path opacity="0.3" d="M196.259 26.6182C197.363 26.6182 198.259 27.5136 198.259 28.6182L198.259 31.3713C198.259 32.2618 197.472 32.9468 196.59 32.8239C195.865 32.7229 195.325 32.1031 195.325 31.3713L195.325 31.1824C195.325 30.2816 194.595 29.5514 193.694 29.5514L193.505 29.5514C192.615 29.5514 191.93 28.7643 192.053 27.8823C192.154 27.1576 192.774 26.6182 193.505 26.6182L196.259 26.6182Z" fill="#1090F9"/>
<path opacity="0.3" d="M246.27 71.322C246.823 72.2786 246.495 73.5018 245.538 74.0541L241.455 76.4119C240.403 77.0191 239.057 76.5566 238.601 75.4312L238.561 75.3316C238.186 74.4067 238.55 73.3471 239.414 72.8481L239.929 72.551C240.885 71.9987 241.213 70.7755 240.661 69.819L240.356 69.2915C239.749 68.2398 240.212 66.8942 241.337 66.438L241.437 66.3976C242.361 66.0227 243.421 66.3868 243.92 67.2511L246.27 71.322Z" fill="#1090F9"/>
<path opacity="0.3" d="M148.408 211.678C148.96 212.634 148.633 213.857 147.676 214.41L143.592 216.767C142.541 217.375 141.195 216.912 140.739 215.787L140.698 215.687C140.324 214.762 140.688 213.703 141.552 213.204L142.067 212.907C143.023 212.354 143.351 211.131 142.799 210.174L142.494 209.647C141.887 208.595 142.349 207.25 143.475 206.793L143.574 206.753C144.499 206.378 145.559 206.742 146.058 207.607L148.408 211.678Z" fill="#1090F9"/>
<path opacity="0.3" d="M244.741 168.593C243.96 167.812 243.96 166.545 244.741 165.764L252.142 158.363C253.023 157.482 254.487 157.612 255.198 158.635L255.929 159.685C256.482 160.48 256.386 161.557 255.701 162.241L253.246 164.697C252.465 165.478 252.465 166.744 253.246 167.525L254.7 168.979C255.541 169.82 255.467 171.206 254.54 171.951L252.37 173.697C251.574 174.338 250.424 174.275 249.702 173.553L244.741 168.593Z" fill="#1090F9"/>
<rect opacity="0.1" x="92" y="30.4669" width="136.011" height="93.7148" fill="#02223B"/>
<path d="M212.185 40.0152H100.639V115.485H212.185V40.0152Z" fill="white"/>
<rect x="94.5994" y="34.5526" width="119.406" height="77.9093" fill="#DAF0BC"/>
<path d="M212.185 40.0152H100.639V115.485H212.185V40.0152Z" fill="#EDF7DE"/>
<path d="M133.248 103.574L133.249 103.574C134.862 103.59 136.48 103.581 138.107 103.495C138.663 103.469 139.216 103.442 139.767 103.414C140.853 103.36 141.932 103.306 143.018 103.267L143.03 103.266L143.043 103.265C143.089 103.262 143.138 103.26 143.201 103.258L143.206 103.258C143.264 103.256 143.337 103.253 143.411 103.248L144.176 103.196L144.156 102.436C144.119 101.062 144.081 99.6581 144.043 98.2541C144.005 96.8523 143.967 95.4506 143.93 94.0788L143.93 94.0786C143.815 89.8429 143.686 85.3564 142.162 81.3774L142.162 81.3774C141.784 80.3901 141.251 79.2862 140.317 78.568C139.209 77.7112 137.816 77.6407 136.545 78.0316C135.282 78.42 134.084 79.2746 133.245 80.3735C131.63 82.4908 131.078 85.2243 130.644 87.6277C129.731 92.6522 129.001 97.7007 128.432 102.756L128.345 103.524L129.114 103.543C129.943 103.562 130.789 103.564 131.624 103.566C132.173 103.567 132.717 103.568 133.248 103.574Z" fill="#BDEEFE" stroke="#0864B0" stroke-width="1.5"/>
<path opacity="0.12" d="M145.183 68.6577C144.869 68.2634 144.196 68.565 144.178 69.0973C144.151 69.6553 143.564 70.9783 143.227 71.9489C142.468 73.8731 140.992 75.4209 138.675 76.5667C137.899 76.8857 136.021 77.3097 134.338 77.2612C133.976 77.2533 133.45 77.0912 132.627 76.9038C132.418 76.8441 132.18 76.8703 131.983 76.9994C131.337 77.3697 131.394 78.4769 132.076 78.6559C134.865 79.6638 138.179 79.0656 140.863 77.4813C141.946 76.6724 143.067 75.7605 143.623 74.429C143.612 74.4719 143.523 74.6352 143.558 74.5922C144.004 73.8875 144.366 73.1314 144.652 72.3412C144.974 71.6024 145.164 70.3316 145.187 69.971C145.23 69.5418 145.468 69.0091 145.183 68.6577Z" fill="#0864B0"/>
<path opacity="0.12" d="M140.477 83.4095C140.566 84.5114 140.594 84.5365 140.668 86.0772C140.665 86.4167 140.64 86.7561 140.629 87.0956C140.639 87.0542 140.65 86.9881 140.66 86.9302C140.59 87.998 140.782 89.0923 140.755 90.177C140.665 93.7456 140.619 97.3063 140.507 100.875C140.492 101.446 140.484 102.017 140.477 102.589C141.416 102.545 142.363 102.51 143.309 102.474C143.338 102.475 143.375 102.475 143.404 102.475C143.495 99.6104 143.526 96.7453 143.477 93.8879C143.412 89.78 143.378 87.4693 143.031 85.6866C142.91 83.9302 142.642 83.0341 142.423 82.4448C142.096 81.4075 141.551 80.4931 140.935 79.661C140.611 79.278 140.38 78.6471 139.838 78.6436C139.151 78.6144 138.71 79.6467 139.187 80.1881C140.286 81.7189 140.272 82.1328 140.477 83.4095Z" fill="#0864B0"/>
<path d="M136.254 79.8647C135.104 79.8667 133.943 79.6568 132.843 79.2264C132.114 78.9479 131.567 78.6267 131.109 78.2376C130.165 77.4339 129.496 76.1974 129.068 74.4689C128.8 73.4013 128.69 72.4352 128.733 71.5026C128.78 70.3751 129.049 69.1879 129.559 67.8647C130.422 65.6338 131.697 63.7667 133.24 62.4586C135.013 60.9637 137.157 60.231 139.118 60.4564C141.032 60.6735 142.814 62.1285 143.999 64.4321C144.928 66.2361 145.338 68.4902 145.185 70.9402C145.124 71.9151 144.985 72.7631 144.759 73.5179C144.023 75.9605 142.108 78.1169 139.759 79.1381C138.671 79.6232 137.467 79.8626 136.254 79.8647Z" stroke="#0864B0" stroke-width="1.5"/>
<rect width="43.573" height="51.0263" transform="matrix(0.99999 -0.00444692 -0.00469625 0.999989 113.445 53.2847)" stroke="#C7E89B" stroke-width="1.5" stroke-linecap="round"/>
<rect width="35.6463" height="22.63" transform="matrix(0.99999 -0.00444692 -0.00469625 0.999989 167.216 81.0809)" stroke="#C7E89B" stroke-width="1.5" stroke-linecap="round"/>
<line x1="168.119" y1="56.0605" x2="202.279" y2="56.0605" stroke="#C7E89B" stroke-width="1.5" stroke-linecap="round"/>
<line x1="168.119" y1="69.9777" x2="202.279" y2="69.9777" stroke="#C7E89B" stroke-width="1.5" stroke-linecap="round"/>
<rect x="97.6138" y="30" width="119.961" height="84.1317" stroke="#C7E89B" stroke-width="1.5" stroke-linecap="round"/>
<rect opacity="0.1" x="92" y="124.685" width="136.011" height="93.7148" fill="#02223B"/>
<path d="M212.185 134.233H100.639V209.703H212.185V134.233Z" fill="white"/>
<rect x="94.5994" y="128.771" width="119.406" height="77.9093" fill="#DAF0BC"/>
<path d="M212.185 134.233H100.639V209.703H212.185V134.233Z" fill="#EDF7DE"/>
<rect width="85.8277" height="35.9864" transform="matrix(0.99999 -0.00444692 -0.00469625 0.999989 123.163 139.978)" stroke="#C7E89B" stroke-width="1.5" stroke-linecap="round"/>
<rect width="48.8878" height="9.12323" transform="matrix(0.99999 -0.00444692 -0.00469625 0.999989 120.835 189.011)" stroke="#C7E89B" stroke-width="1.5" stroke-linecap="round"/>
<rect width="34.9065" height="8.51827" transform="matrix(0.99999 -0.00444692 -0.00469625 0.999989 173.151 188.8)" stroke="#C7E89B" stroke-width="1.5" stroke-linecap="round"/>
<rect width="13.6008" height="43.2204" transform="matrix(0.99999 -0.00444692 -0.00469625 0.999989 104.395 139.943)" fill="#7CDDFD" stroke="#F0FBFF" stroke-width="1.5" stroke-linecap="round"/>
<line x1="123.883" y1="184.095" x2="169.082" y2="184.095" stroke="#C7E89B" stroke-width="1.5" stroke-linecap="round"/>
<rect x="97.6138" y="124.218" width="119.961" height="84.1317" stroke="#C7E89B" stroke-width="1.5" stroke-linecap="round"/>
<path d="M127.229 183.207C129.31 181.24 131.042 179.047 132.928 176.967C133.811 175.993 134.191 177.523 134.674 178.309C135.254 179.254 135.497 180.553 136.305 181.339C137.104 182.116 138.081 180.16 138.319 180.377C139.038 181.032 139.15 182.16 139.835 182.808C140.272 183.221 142.07 180.6 142.291 180.341C143.296 179.161 144.106 181.436 144.842 180.74C145.21 180.392 145.312 179.939 145.552 179.543C145.828 179.086 147.625 180.454 147.883 180.595C150.751 182.161 154.171 181.615 157.342 181.756C159.375 181.846 161.446 182.325 163.482 181.946C164.101 181.831 165.736 181.391 165.736 180.595" stroke="#0864B0" stroke-width="3" stroke-linecap="round"/>
</svg>
