<svg width="325" height="248" viewBox="0 0 325 248" fill="none" xmlns="http://www.w3.org/2000/svg">
<path opacity="0.3" d="M259.679 129.137C261.232 127.566 261.232 125.02 259.679 123.449L150.393 12.9292C148.685 11.2019 145.861 11.4003 144.406 13.3499L104.142 67.2889C102.946 68.8903 103.101 71.1378 104.504 72.5566L154.71 123.329C156.263 124.9 156.263 127.447 154.71 129.018L98.1061 186.26C96.3988 187.987 96.5941 190.841 98.5202 192.314L151.962 233.164C153.546 234.375 155.77 234.219 157.173 232.8L259.679 129.137Z" fill="#1090F9"/>
<path opacity="0.3" d="M149.602 22.1124L258.888 132.632C260.053 133.81 260.053 135.72 258.888 136.898L156.383 240.561C155.33 241.625 153.662 241.742 152.474 240.834L99.0323 199.984C97.5877 198.879 97.4412 196.739 98.7217 195.444L155.326 138.201C157.267 136.238 157.267 133.054 155.326 131.091L105.119 80.3177C104.067 79.2536 103.951 77.568 104.848 76.3669L145.112 22.428C146.203 20.9658 148.321 20.8169 149.602 22.1124Z" stroke="#05BDFB" stroke-width="2"/>
<path opacity="0.3" d="M201.259 26.6185C202.364 26.6185 203.259 27.514 203.259 28.6185L203.259 31.3717C203.259 32.2622 202.472 32.9472 201.59 32.8243V32.8243C200.865 32.7233 200.326 32.1035 200.326 31.3717L200.326 31.1828C200.326 30.282 199.596 29.5517 198.695 29.5517L198.506 29.5517C197.615 29.5517 196.93 28.7647 197.053 27.8827V27.8827C197.154 27.1579 197.774 26.6185 198.506 26.6185L201.259 26.6185Z" fill="#1090F9"/>
<path opacity="0.3" d="M251.27 71.3224C251.823 72.279 251.495 73.5022 250.538 74.0545L246.454 76.4123C245.403 77.0194 244.057 76.557 243.601 75.4316L243.561 75.3319C243.186 74.4071 243.55 73.3475 244.414 72.8485L244.929 72.5514C245.885 71.9991 246.213 70.7759 245.661 69.8193L245.356 69.2918C244.749 68.2402 245.212 66.8945 246.337 66.4383L246.437 66.3979C247.361 66.023 248.421 66.3872 248.92 67.2514L251.27 71.3224Z" fill="#1090F9"/>
<path opacity="0.3" d="M153.408 211.678C153.96 212.634 153.633 213.857 152.676 214.41L148.592 216.767C147.541 217.375 146.195 216.912 145.739 215.787L145.698 215.687C145.323 214.762 145.688 213.703 146.552 213.204L147.066 212.906C148.023 212.354 148.351 211.131 147.798 210.174L147.494 209.647C146.887 208.595 147.349 207.25 148.475 206.793L148.574 206.753C149.499 206.378 150.559 206.742 151.058 207.607L153.408 211.678Z" fill="#1090F9"/>
<path opacity="0.3" d="M249.741 168.593C248.96 167.812 248.96 166.545 249.741 165.764L257.143 158.363C258.024 157.482 259.487 157.612 260.199 158.635L260.929 159.685C261.482 160.48 261.386 161.557 260.702 162.241L258.246 164.696C257.465 165.478 257.465 166.744 258.246 167.525L259.7 168.979C260.542 169.82 260.467 171.205 259.54 171.951L257.37 173.697C256.574 174.337 255.424 174.275 254.702 173.553L249.741 168.593Z" fill="#1090F9"/>
<rect x="92.4624" y="56.4624" width="103.806" height="150.538" rx="4" fill="white" stroke="#054375" stroke-width="2"/>
<rect opacity="0.14" x="93.2258" y="59.871" width="98.7527" height="142.839" rx="1" fill="#054375"/>
<rect x="81" y="45" width="103.806" height="150.538" rx="4" fill="white" stroke="#054375" stroke-width="2"/>
<path d="M96.1291 203.876C96.0674 203.876 95.9969 203.85 95.944 203.797C95.847 203.7 95.847 203.532 95.944 203.435L101.005 198.374C101.102 198.277 101.27 198.277 101.367 198.374C101.464 198.471 101.464 198.639 101.367 198.736L96.3055 203.797C96.2526 203.85 96.1909 203.876 96.1291 203.876Z" fill="#054375"/>
<path d="M145.505 203.876C145.443 203.876 145.373 203.85 145.32 203.797C145.223 203.7 145.223 203.532 145.32 203.435L150.381 198.374C150.478 198.277 150.645 198.277 150.742 198.374C150.839 198.471 150.839 198.639 150.742 198.736L145.681 203.797C145.628 203.85 145.567 203.876 145.505 203.876Z" fill="#054375"/>
<path d="M120.818 203.876C120.756 203.876 120.686 203.85 120.633 203.797C120.536 203.7 120.536 203.532 120.633 203.435L125.694 198.374C125.791 198.277 125.958 198.277 126.055 198.374C126.152 198.471 126.152 198.639 126.055 198.736L120.994 203.797C120.941 203.85 120.88 203.876 120.818 203.876Z" fill="#054375"/>
<path d="M170.194 203.876C170.132 203.876 170.061 203.85 170.009 203.797C169.912 203.7 169.912 203.532 170.009 203.435L175.07 198.374C175.167 198.277 175.334 198.277 175.431 198.374C175.528 198.471 175.528 198.639 175.431 198.736L170.37 203.797C170.317 203.85 170.255 203.876 170.194 203.876Z" fill="#054375"/>
<path d="M102.301 203.876C102.24 203.876 102.169 203.85 102.116 203.797C102.019 203.7 102.019 203.532 102.116 203.435L107.177 198.374C107.274 198.277 107.442 198.277 107.539 198.374C107.636 198.471 107.636 198.639 107.539 198.736L102.478 203.797C102.425 203.85 102.363 203.876 102.301 203.876Z" fill="#054375"/>
<path d="M151.677 203.876C151.615 203.876 151.545 203.85 151.492 203.797C151.395 203.7 151.395 203.532 151.492 203.435L156.553 198.374C156.65 198.277 156.818 198.277 156.915 198.374C157.012 198.471 157.012 198.639 156.915 198.736L151.853 203.797C151.801 203.85 151.739 203.876 151.677 203.876Z" fill="#054375"/>
<path d="M126.988 203.876C126.927 203.876 126.856 203.85 126.803 203.797C126.706 203.7 126.706 203.532 126.803 203.435L131.864 198.374C131.961 198.277 132.129 198.277 132.226 198.374C132.323 198.471 132.323 198.639 132.226 198.736L127.165 203.797C127.112 203.85 127.05 203.876 126.988 203.876Z" fill="#054375"/>
<path d="M176.366 203.876C176.304 203.876 176.234 203.85 176.181 203.797C176.084 203.7 176.084 203.532 176.181 203.435L181.242 198.374C181.339 198.277 181.506 198.277 181.603 198.374C181.7 198.471 181.7 198.639 181.603 198.736L176.542 203.797C176.489 203.85 176.428 203.876 176.366 203.876Z" fill="#054375"/>
<path d="M108.473 203.876C108.412 203.876 108.341 203.85 108.288 203.797C108.191 203.7 108.191 203.532 108.288 203.435L113.349 198.374C113.446 198.277 113.614 198.277 113.711 198.374C113.808 198.471 113.808 198.639 113.711 198.736L108.65 203.797C108.597 203.85 108.535 203.876 108.473 203.876Z" fill="#054375"/>
<path d="M157.849 203.876C157.788 203.876 157.717 203.85 157.664 203.797C157.567 203.7 157.567 203.532 157.664 203.435L162.725 198.374C162.822 198.277 162.99 198.277 163.087 198.374C163.184 198.471 163.184 198.639 163.087 198.736L158.026 203.797C157.973 203.85 157.911 203.876 157.849 203.876Z" fill="#054375"/>
<path d="M133.16 203.876C133.099 203.876 133.028 203.85 132.975 203.797C132.878 203.7 132.878 203.532 132.975 203.435L138.036 198.374C138.133 198.277 138.301 198.277 138.398 198.374C138.495 198.471 138.495 198.639 138.398 198.736L133.337 203.797C133.284 203.85 133.222 203.876 133.16 203.876Z" fill="#054375"/>
<path d="M182.538 203.876C182.476 203.876 182.406 203.849 182.353 203.796C182.256 203.699 182.256 203.532 182.353 203.435L194.003 191.784C194.1 191.687 194.267 191.687 194.364 191.784C194.461 191.881 194.461 192.049 194.364 192.146L182.714 203.796C182.662 203.849 182.6 203.876 182.538 203.876Z" fill="#054375"/>
<path d="M114.646 203.876C114.584 203.876 114.513 203.85 114.461 203.797C114.364 203.7 114.364 203.532 114.461 203.435L119.522 198.374C119.619 198.277 119.786 198.277 119.883 198.374C119.98 198.471 119.98 198.639 119.883 198.736L114.822 203.797C114.769 203.85 114.707 203.876 114.646 203.876Z" fill="#054375"/>
<path d="M164.021 203.876C163.96 203.876 163.889 203.85 163.836 203.797C163.739 203.7 163.739 203.532 163.836 203.435L168.897 198.374C168.994 198.277 169.162 198.277 169.259 198.374C169.356 198.471 169.356 198.639 169.259 198.736L164.198 203.797C164.145 203.85 164.083 203.876 164.021 203.876Z" fill="#054375"/>
<path d="M139.333 203.876C139.271 203.876 139.2 203.85 139.147 203.797C139.05 203.7 139.05 203.532 139.147 203.435L144.209 198.374C144.306 198.277 144.473 198.277 144.57 198.374C144.667 198.471 144.667 198.639 144.57 198.736L139.509 203.797C139.456 203.85 139.394 203.876 139.333 203.876Z" fill="#054375"/>
<path d="M188.71 203.876C188.649 203.876 188.578 203.85 188.525 203.797C188.428 203.7 188.428 203.532 188.525 203.435L193.586 198.374C193.683 198.277 193.851 198.277 193.948 198.374C194.045 198.471 194.045 198.639 193.948 198.736L188.887 203.797C188.834 203.85 188.772 203.876 188.71 203.876Z" fill="#054375"/>
<path d="M188.71 192.071C188.649 192.071 188.578 192.044 188.525 191.991C188.428 191.894 188.428 191.727 188.525 191.63L193.586 186.569C193.683 186.472 193.851 186.472 193.948 186.569C194.045 186.666 194.045 186.833 193.948 186.93L188.887 191.991C188.834 192.044 188.772 192.071 188.71 192.071Z" fill="#054375"/>
<path d="M188.71 144.458C188.649 144.458 188.578 144.432 188.525 144.379C188.428 144.282 188.428 144.114 188.525 144.017L193.586 138.956C193.683 138.859 193.851 138.859 193.948 138.956C194.045 139.053 194.045 139.221 193.948 139.318L188.887 144.379C188.834 144.432 188.772 144.458 188.71 144.458Z" fill="#054375"/>
<path d="M188.71 105.123C188.649 105.123 188.578 105.096 188.525 105.043C188.428 104.946 188.428 104.779 188.525 104.682L193.586 99.6207C193.683 99.5237 193.851 99.5237 193.948 99.6207C194.045 99.7177 194.045 99.8852 193.948 99.9822L188.887 105.043C188.834 105.096 188.772 105.123 188.71 105.123Z" fill="#054375"/>
<path d="M188.71 167.411C188.649 167.411 188.578 167.385 188.525 167.332C188.428 167.235 188.428 167.067 188.525 166.97L193.586 161.909C193.683 161.812 193.851 161.812 193.948 161.909C194.045 162.006 194.045 162.174 193.948 162.271L188.887 167.332C188.834 167.385 188.772 167.411 188.71 167.411Z" fill="#054375"/>
<path d="M188.71 119.799C188.649 119.799 188.578 119.772 188.525 119.719C188.428 119.622 188.428 119.455 188.525 119.358L193.586 114.297C193.683 114.2 193.851 114.2 193.948 114.297C194.045 114.394 194.045 114.561 193.948 114.658L188.887 119.719C188.834 119.772 188.772 119.799 188.71 119.799Z" fill="#054375"/>
<path d="M188.71 81.8846C188.649 81.8846 188.578 81.8582 188.525 81.8053C188.428 81.7083 188.428 81.5407 188.525 81.4437L193.586 76.3827C193.683 76.2857 193.851 76.2857 193.948 76.3827C194.045 76.4797 194.045 76.6472 193.948 76.7442L188.887 81.8053C188.834 81.8582 188.772 81.8846 188.71 81.8846Z" fill="#054375"/>
<path d="M188.71 183.85C188.649 183.85 188.578 183.824 188.525 183.771C188.428 183.674 188.428 183.506 188.525 183.409L193.586 178.348C193.683 178.251 193.851 178.251 193.948 178.348C194.045 178.445 194.045 178.613 193.948 178.71L188.887 183.771C188.834 183.824 188.772 183.85 188.71 183.85Z" fill="#054375"/>
<path d="M188.71 136.238C188.649 136.238 188.578 136.211 188.525 136.158C188.428 136.061 188.428 135.894 188.525 135.797L193.586 130.736C193.683 130.639 193.851 130.639 193.948 130.736C194.045 130.833 194.045 131 193.948 131.097L188.887 136.158C188.834 136.211 188.772 136.238 188.71 136.238Z" fill="#054375"/>
<path d="M188.71 98.3237C188.649 98.3237 188.578 98.2972 188.525 98.2443C188.428 98.1474 188.428 97.9798 188.525 97.8828L193.586 92.8218C193.683 92.7248 193.851 92.7248 193.948 92.8218C194.045 92.9188 194.045 93.0863 193.948 93.1833L188.887 98.2443C188.834 98.2972 188.772 98.3237 188.71 98.3237Z" fill="#054375"/>
<path d="M188.71 159.192C188.649 159.192 188.578 159.166 188.525 159.113C188.428 159.016 188.428 158.849 188.525 158.752L193.586 153.691C193.683 153.594 193.851 153.594 193.948 153.691C194.045 153.788 194.045 153.955 193.948 154.052L188.887 159.113C188.834 159.166 188.772 159.192 188.71 159.192Z" fill="#054375"/>
<path d="M188.71 111.58C188.649 111.58 188.578 111.553 188.525 111.501C188.428 111.404 188.428 111.236 188.525 111.139L193.586 106.078C193.683 105.981 193.851 105.981 193.948 106.078C194.045 106.175 194.045 106.343 193.948 106.439L188.887 111.501C188.834 111.553 188.772 111.58 188.71 111.58Z" fill="#054375"/>
<path d="M188.71 73.666C188.649 73.666 188.578 73.6395 188.525 73.5866C188.428 73.4896 188.428 73.3221 188.525 73.2251L193.586 68.1641C193.683 68.0671 193.851 68.0671 193.948 68.1641C194.045 68.261 194.045 68.4286 193.948 68.5256L188.887 73.5866C188.834 73.6395 188.772 73.666 188.71 73.666Z" fill="#054375"/>
<path d="M188.71 175.632C188.649 175.632 188.578 175.605 188.525 175.552C188.428 175.455 188.428 175.288 188.525 175.191L193.586 170.13C193.683 170.033 193.851 170.033 193.948 170.13C194.045 170.227 194.045 170.394 193.948 170.491L188.887 175.552C188.834 175.605 188.772 175.632 188.71 175.632Z" fill="#054375"/>
<path d="M188.71 128.019C188.649 128.019 188.578 127.993 188.525 127.94C188.428 127.843 188.428 127.675 188.525 127.578L193.586 122.517C193.683 122.42 193.851 122.42 193.948 122.517C194.045 122.614 194.045 122.782 193.948 122.879L188.887 127.94C188.834 127.993 188.772 128.019 188.71 128.019Z" fill="#054375"/>
<path d="M188.71 90.1051C188.649 90.1051 188.578 90.0786 188.525 90.0257C188.428 89.9287 188.428 89.7612 188.525 89.6642L193.586 84.6031C193.683 84.5061 193.851 84.5061 193.948 84.6031C194.045 84.7001 194.045 84.8677 193.948 84.9646L188.887 90.0257C188.834 90.0786 188.772 90.1051 188.71 90.1051Z" fill="#054375"/>
<path d="M188.71 150.972C188.649 150.972 188.578 150.945 188.525 150.893C188.428 150.796 188.428 150.628 188.525 150.531L193.586 145.47C193.683 145.373 193.851 145.373 193.948 145.47C194.045 145.567 194.045 145.734 193.948 145.831L188.887 150.893C188.834 150.945 188.772 150.972 188.71 150.972Z" fill="#054375"/>
<path d="M188.71 65.4455C188.649 65.4455 188.578 65.4191 188.525 65.3662C188.428 65.2692 188.428 65.1016 188.525 65.0047L193.586 59.9436C193.683 59.8466 193.851 59.8466 193.948 59.9436C194.045 60.0406 194.045 60.2081 193.948 60.3051L188.887 65.3662C188.834 65.4191 188.772 65.4455 188.71 65.4455Z" fill="#054375"/>
<path d="M156.039 57.1022H92.2285V63.1331H156.039V57.1022Z" fill="#7CDDFD"/>
<path d="M156.039 63.9096H92.2293C91.806 63.9096 91.4622 63.5658 91.4622 63.1426V57.1116C91.4622 56.6883 91.806 56.3445 92.2293 56.3445H156.039C156.463 56.3445 156.806 56.6883 156.806 57.1116V63.1426C156.806 63.5658 156.463 63.9096 156.039 63.9096ZM93.0052 62.3754H155.281V57.8787H93.0052V62.3754Z" fill="#054375"/>
<path d="M156.039 100.306H92.2285V106.337H156.039V100.306Z" fill="#7CDDFD"/>
<path d="M156.039 107.113H92.2293C91.806 107.113 91.4622 106.769 91.4622 106.346V100.315C91.4622 99.8918 91.806 99.548 92.2293 99.548H156.039C156.463 99.548 156.806 99.8918 156.806 100.315V106.346C156.806 106.769 156.463 107.113 156.039 107.113ZM93.0052 105.579H155.281V101.082H93.0052V105.579Z" fill="#054375"/>
<path d="M131.431 71.5H92.2292V77.531H131.431V71.5Z" fill="white"/>
<path d="M131.44 78.2988H92.2387C91.8154 78.2988 91.4716 77.955 91.4716 77.5317V71.5007C91.4716 71.0775 91.8154 70.7336 92.2387 70.7336H131.44C131.863 70.7336 132.207 71.0775 132.207 71.5007V77.5317C132.207 77.955 131.863 78.2988 131.44 78.2988ZM93.0057 76.7646H130.673V72.2679H93.0057V76.7646Z" fill="#054375"/>
<path d="M131.431 114.706H92.2292V120.737H131.431V114.706Z" fill="white"/>
<path d="M131.44 121.504H92.2387C91.8154 121.504 91.4716 121.161 91.4716 120.737V114.706C91.4716 114.283 91.8154 113.939 92.2387 113.939H131.44C131.863 113.939 132.207 114.283 132.207 114.706V120.737C132.207 121.161 131.863 121.504 131.44 121.504ZM93.0057 119.97H130.673V115.473H93.0057V119.97Z" fill="#054375"/>
<path d="M156.039 85.8914H92.2285V91.9223H156.039V85.8914Z" fill="#7CDDFD"/>
<path d="M156.039 92.6902H92.2293C91.806 92.6902 91.4622 92.3463 91.4622 91.9231V85.8921C91.4622 85.4689 91.806 85.125 92.2293 85.125H156.039C156.463 85.125 156.806 85.4689 156.806 85.8921V91.9231C156.806 92.3463 156.463 92.6902 156.039 92.6902ZM93.0052 91.156H155.281V86.6592H93.0052V91.156Z" fill="#054375"/>
<path d="M156.039 129.095H92.2285V135.126H156.039V129.095Z" fill="#7CDDFD"/>
<path d="M156.04 135.893H92.2295C91.8063 135.893 91.4624 135.55 91.4624 135.126V129.095C91.4624 128.672 91.8063 128.328 92.2295 128.328H156.04C156.463 128.328 156.807 128.672 156.807 129.095V135.126C156.807 135.55 156.463 135.893 156.04 135.893ZM93.0054 134.359H155.281V129.862H93.0054V134.359Z" fill="#054375"/>
</svg>
