<svg width="320" height="248" viewBox="0 0 320 248" fill="none" xmlns="http://www.w3.org/2000/svg">
<path opacity="0.3" d="M254.679 129.137C256.232 127.566 256.232 125.02 254.679 123.449L145.393 12.9291C143.685 11.2018 140.861 11.4003 139.406 13.3499L99.1416 67.2888C97.9461 68.8903 98.1006 71.1377 99.5036 72.5566L149.71 123.329C151.263 124.9 151.263 127.447 149.71 129.018L93.1061 186.26C91.3988 187.987 91.5941 190.841 93.5202 192.314L146.962 233.164C148.546 234.375 150.77 234.219 152.173 232.8L254.679 129.137Z" fill="#1090F9"/>
<path opacity="0.3" d="M253.888 132.632C255.053 133.81 255.053 135.72 253.888 136.898L151.383 240.561C150.33 241.626 148.662 241.742 147.474 240.834L94.0323 199.984C92.5877 198.879 92.4412 196.739 93.7217 195.444L150.326 138.201C152.267 136.238 152.267 133.054 150.326 131.091L100.119 80.3177C99.0669 79.2536 98.9511 77.568 99.8477 76.3669L140.112 22.428C141.203 20.9658 143.321 20.8169 144.602 22.1124L253.888 132.632Z" stroke="#05BDFB" stroke-width="2"/>
<path opacity="0.3" d="M196.259 26.6185C197.364 26.6185 198.259 27.514 198.259 28.6185L198.259 31.3717C198.259 32.2622 197.472 32.9472 196.59 32.8243C195.865 32.7233 195.326 32.1035 195.326 31.3717L195.326 31.1828C195.326 30.282 194.596 29.5517 193.695 29.5517L193.506 29.5517C192.615 29.5517 191.93 28.7647 192.053 27.8827C192.154 27.1579 192.774 26.6185 193.506 26.6185L196.259 26.6185Z" fill="#1090F9"/>
<path opacity="0.3" d="M246.27 71.3224C246.823 72.2789 246.495 73.5021 245.538 74.0544L241.454 76.4122C240.403 77.0194 239.057 76.5569 238.601 75.4315L238.561 75.3319C238.186 74.4071 238.55 73.3474 239.414 72.8485L239.929 72.5513C240.885 71.999 241.213 70.7759 240.661 69.8193L240.356 69.2918C239.749 68.2401 240.212 66.8945 241.337 66.4383L241.437 66.3979C242.361 66.023 243.421 66.3872 243.92 67.2514L246.27 71.3224Z" fill="#1090F9"/>
<path opacity="0.3" d="M148.408 211.678C148.96 212.634 148.633 213.857 147.676 214.41L143.592 216.767C142.541 217.375 141.195 216.912 140.739 215.787L140.698 215.687C140.323 214.762 140.688 213.703 141.552 213.204L142.066 212.907C143.023 212.354 143.351 211.131 142.798 210.174L142.494 209.647C141.887 208.595 142.349 207.25 143.475 206.793L143.574 206.753C144.499 206.378 145.559 206.742 146.058 207.607L148.408 211.678Z" fill="#1090F9"/>
<path opacity="0.3" d="M244.741 168.593C243.96 167.812 243.96 166.545 244.741 165.764L252.143 158.363C253.024 157.482 254.487 157.612 255.199 158.635L255.929 159.685C256.482 160.48 256.386 161.557 255.702 162.241L253.246 164.696C252.465 165.478 252.465 166.744 253.246 167.525L254.7 168.979C255.542 169.82 255.467 171.205 254.54 171.951L252.37 173.697C251.574 174.337 250.424 174.275 249.702 173.553L244.741 168.593Z" fill="#1090F9"/>
<rect x="87.4624" y="56.4624" width="103.806" height="150.538" rx="4" fill="white" stroke="#054375" stroke-width="2"/>
<rect opacity="0.14" x="88.2258" y="59.871" width="98.7527" height="142.839" rx="1" fill="#054375"/>
<rect x="76" y="45" width="103.806" height="150.538" rx="4" fill="white" stroke="#054375" stroke-width="2"/>
<path d="M91.1291 203.876C91.0674 203.876 90.9969 203.85 90.944 203.797C90.847 203.7 90.847 203.532 90.944 203.435L96.005 198.374C96.102 198.277 96.2696 198.277 96.3666 198.374C96.4635 198.471 96.4635 198.639 96.3666 198.736L91.3055 203.797C91.2526 203.85 91.1909 203.876 91.1291 203.876Z" fill="#054375"/>
<path d="M140.505 203.876C140.443 203.876 140.373 203.85 140.32 203.797C140.223 203.7 140.223 203.532 140.32 203.435L145.381 198.374C145.478 198.277 145.645 198.277 145.742 198.374C145.839 198.471 145.839 198.639 145.742 198.736L140.681 203.797C140.628 203.85 140.567 203.876 140.505 203.876Z" fill="#054375"/>
<path d="M115.818 203.876C115.756 203.876 115.686 203.85 115.633 203.797C115.536 203.7 115.536 203.532 115.633 203.435L120.694 198.374C120.791 198.277 120.958 198.277 121.055 198.374C121.152 198.471 121.152 198.639 121.055 198.736L115.994 203.797C115.941 203.85 115.88 203.876 115.818 203.876Z" fill="#054375"/>
<path d="M165.194 203.876C165.132 203.876 165.061 203.85 165.009 203.797C164.912 203.7 164.912 203.532 165.009 203.435L170.07 198.374C170.167 198.277 170.334 198.277 170.431 198.374C170.528 198.471 170.528 198.639 170.431 198.736L165.37 203.797C165.317 203.85 165.255 203.876 165.194 203.876Z" fill="#054375"/>
<path d="M97.3014 203.876C97.2397 203.876 97.1691 203.85 97.1162 203.797C97.0192 203.7 97.0192 203.532 97.1162 203.435L102.177 198.374C102.274 198.277 102.442 198.277 102.539 198.374C102.636 198.471 102.636 198.639 102.539 198.736L97.4777 203.797C97.4248 203.85 97.3631 203.876 97.3014 203.876Z" fill="#054375"/>
<path d="M146.677 203.876C146.615 203.876 146.545 203.85 146.492 203.797C146.395 203.7 146.395 203.532 146.492 203.435L151.553 198.374C151.65 198.277 151.818 198.277 151.915 198.374C152.012 198.471 152.012 198.639 151.915 198.736L146.853 203.797C146.801 203.85 146.739 203.876 146.677 203.876Z" fill="#054375"/>
<path d="M121.988 203.876C121.927 203.876 121.856 203.85 121.803 203.797C121.706 203.7 121.706 203.532 121.803 203.435L126.864 198.374C126.961 198.277 127.129 198.277 127.226 198.374C127.323 198.471 127.323 198.639 127.226 198.736L122.165 203.797C122.112 203.85 122.05 203.876 121.988 203.876Z" fill="#054375"/>
<path d="M171.366 203.876C171.304 203.876 171.234 203.85 171.181 203.797C171.084 203.7 171.084 203.532 171.181 203.435L176.242 198.374C176.339 198.277 176.506 198.277 176.603 198.374C176.7 198.471 176.7 198.639 176.603 198.736L171.542 203.797C171.489 203.85 171.428 203.876 171.366 203.876Z" fill="#054375"/>
<path d="M103.473 203.876C103.412 203.876 103.341 203.85 103.288 203.797C103.191 203.7 103.191 203.532 103.288 203.435L108.349 198.374C108.446 198.277 108.614 198.277 108.711 198.374C108.808 198.471 108.808 198.639 108.711 198.736L103.65 203.797C103.597 203.85 103.535 203.876 103.473 203.876Z" fill="#054375"/>
<path d="M152.849 203.876C152.788 203.876 152.717 203.85 152.664 203.797C152.567 203.7 152.567 203.532 152.664 203.435L157.725 198.374C157.822 198.277 157.99 198.277 158.087 198.374C158.184 198.471 158.184 198.639 158.087 198.736L153.026 203.797C152.973 203.85 152.911 203.876 152.849 203.876Z" fill="#054375"/>
<path d="M128.16 203.876C128.099 203.876 128.028 203.85 127.975 203.797C127.878 203.7 127.878 203.532 127.975 203.435L133.036 198.374C133.133 198.277 133.301 198.277 133.398 198.374C133.495 198.471 133.495 198.639 133.398 198.736L128.337 203.797C128.284 203.85 128.222 203.876 128.16 203.876Z" fill="#054375"/>
<path d="M177.538 203.876C177.476 203.876 177.406 203.849 177.353 203.796C177.256 203.699 177.256 203.532 177.353 203.435L189.003 191.784C189.1 191.687 189.267 191.687 189.364 191.784C189.461 191.881 189.461 192.049 189.364 192.146L177.714 203.796C177.662 203.849 177.6 203.876 177.538 203.876Z" fill="#054375"/>
<path d="M109.646 203.876C109.584 203.876 109.513 203.85 109.461 203.797C109.364 203.7 109.364 203.532 109.461 203.435L114.522 198.374C114.619 198.277 114.786 198.277 114.883 198.374C114.98 198.471 114.98 198.639 114.883 198.736L109.822 203.797C109.769 203.85 109.707 203.876 109.646 203.876Z" fill="#054375"/>
<path d="M159.021 203.876C158.96 203.876 158.889 203.85 158.836 203.797C158.739 203.7 158.739 203.532 158.836 203.435L163.897 198.374C163.994 198.277 164.162 198.277 164.259 198.374C164.356 198.471 164.356 198.639 164.259 198.736L159.198 203.797C159.145 203.85 159.083 203.876 159.021 203.876Z" fill="#054375"/>
<path d="M134.333 203.876C134.271 203.876 134.2 203.85 134.147 203.797C134.05 203.7 134.05 203.532 134.147 203.435L139.209 198.374C139.306 198.277 139.473 198.277 139.57 198.374C139.667 198.471 139.667 198.639 139.57 198.736L134.509 203.797C134.456 203.85 134.394 203.876 134.333 203.876Z" fill="#054375"/>
<path d="M183.71 203.876C183.649 203.876 183.578 203.85 183.525 203.797C183.428 203.7 183.428 203.532 183.525 203.435L188.586 198.374C188.683 198.277 188.851 198.277 188.948 198.374C189.045 198.471 189.045 198.639 188.948 198.736L183.887 203.797C183.834 203.85 183.772 203.876 183.71 203.876Z" fill="#054375"/>
<path d="M183.71 192.071C183.649 192.071 183.578 192.044 183.525 191.991C183.428 191.894 183.428 191.727 183.525 191.63L188.586 186.569C188.683 186.472 188.851 186.472 188.948 186.569C189.045 186.666 189.045 186.833 188.948 186.93L183.887 191.991C183.834 192.044 183.772 192.071 183.71 192.071Z" fill="#054375"/>
<path d="M183.71 144.458C183.649 144.458 183.578 144.432 183.525 144.379C183.428 144.282 183.428 144.114 183.525 144.017L188.586 138.956C188.683 138.859 188.851 138.859 188.948 138.956C189.045 139.053 189.045 139.221 188.948 139.318L183.887 144.379C183.834 144.432 183.772 144.458 183.71 144.458Z" fill="#054375"/>
<path d="M183.71 105.123C183.649 105.123 183.578 105.096 183.525 105.043C183.428 104.946 183.428 104.779 183.525 104.682L188.586 99.6207C188.683 99.5237 188.851 99.5237 188.948 99.6207C189.045 99.7177 189.045 99.8852 188.948 99.9822L183.887 105.043C183.834 105.096 183.772 105.123 183.71 105.123Z" fill="#054375"/>
<path d="M183.71 167.411C183.649 167.411 183.578 167.385 183.525 167.332C183.428 167.235 183.428 167.067 183.525 166.97L188.586 161.909C188.683 161.812 188.851 161.812 188.948 161.909C189.045 162.006 189.045 162.174 188.948 162.271L183.887 167.332C183.834 167.385 183.772 167.411 183.71 167.411Z" fill="#054375"/>
<path d="M183.71 119.798C183.649 119.798 183.578 119.772 183.525 119.719C183.428 119.622 183.428 119.455 183.525 119.358L188.586 114.297C188.683 114.2 188.851 114.2 188.948 114.297C189.045 114.394 189.045 114.561 188.948 114.658L183.887 119.719C183.834 119.772 183.772 119.798 183.71 119.798Z" fill="#054375"/>
<path d="M183.71 81.8846C183.649 81.8846 183.578 81.8581 183.525 81.8052C183.428 81.7082 183.428 81.5407 183.525 81.4437L188.586 76.3826C188.683 76.2857 188.851 76.2857 188.948 76.3826C189.045 76.4796 189.045 76.6472 188.948 76.7442L183.887 81.8052C183.834 81.8581 183.772 81.8846 183.71 81.8846Z" fill="#054375"/>
<path d="M183.71 183.85C183.649 183.85 183.578 183.824 183.525 183.771C183.428 183.674 183.428 183.506 183.525 183.409L188.586 178.348C188.683 178.251 188.851 178.251 188.948 178.348C189.045 178.445 189.045 178.613 188.948 178.71L183.887 183.771C183.834 183.824 183.772 183.85 183.71 183.85Z" fill="#054375"/>
<path d="M183.71 136.238C183.649 136.238 183.578 136.211 183.525 136.158C183.428 136.061 183.428 135.894 183.525 135.797L188.586 130.736C188.683 130.639 188.851 130.639 188.948 130.736C189.045 130.833 189.045 131 188.948 131.097L183.887 136.158C183.834 136.211 183.772 136.238 183.71 136.238Z" fill="#054375"/>
<path d="M183.71 98.3237C183.649 98.3237 183.578 98.2972 183.525 98.2443C183.428 98.1473 183.428 97.9798 183.525 97.8828L188.586 92.8217C188.683 92.7247 188.851 92.7247 188.948 92.8217C189.045 92.9187 189.045 93.0863 188.948 93.1832L183.887 98.2443C183.834 98.2972 183.772 98.3237 183.71 98.3237Z" fill="#054375"/>
<path d="M183.71 159.192C183.649 159.192 183.578 159.166 183.525 159.113C183.428 159.016 183.428 158.849 183.525 158.752L188.586 153.691C188.683 153.594 188.851 153.594 188.948 153.691C189.045 153.788 189.045 153.955 188.948 154.052L183.887 159.113C183.834 159.166 183.772 159.192 183.71 159.192Z" fill="#054375"/>
<path d="M183.71 111.58C183.649 111.58 183.578 111.553 183.525 111.501C183.428 111.404 183.428 111.236 183.525 111.139L188.586 106.078C188.683 105.981 188.851 105.981 188.948 106.078C189.045 106.175 189.045 106.343 188.948 106.439L183.887 111.501C183.834 111.553 183.772 111.58 183.71 111.58Z" fill="#054375"/>
<path d="M183.71 73.666C183.649 73.666 183.578 73.6396 183.525 73.5867C183.428 73.4897 183.428 73.3222 183.525 73.2252L188.586 68.1641C188.683 68.0671 188.851 68.0671 188.948 68.1641C189.045 68.2611 189.045 68.4286 188.948 68.5256L183.887 73.5867C183.834 73.6396 183.772 73.666 183.71 73.666Z" fill="#054375"/>
<path d="M183.71 175.632C183.649 175.632 183.578 175.605 183.525 175.552C183.428 175.455 183.428 175.288 183.525 175.191L188.586 170.13C188.683 170.033 188.851 170.033 188.948 170.13C189.045 170.227 189.045 170.394 188.948 170.491L183.887 175.552C183.834 175.605 183.772 175.632 183.71 175.632Z" fill="#054375"/>
<path d="M183.71 128.019C183.649 128.019 183.578 127.993 183.525 127.94C183.428 127.843 183.428 127.675 183.525 127.578L188.586 122.517C188.683 122.42 188.851 122.42 188.948 122.517C189.045 122.614 189.045 122.782 188.948 122.879L183.887 127.94C183.834 127.993 183.772 128.019 183.71 128.019Z" fill="#054375"/>
<path d="M183.71 90.1051C183.649 90.1051 183.578 90.0787 183.525 90.0258C183.428 89.9288 183.428 89.7612 183.525 89.6642L188.586 84.6032C188.683 84.5062 188.851 84.5062 188.948 84.6032C189.045 84.7002 189.045 84.8677 188.948 84.9647L183.887 90.0258C183.834 90.0787 183.772 90.1051 183.71 90.1051Z" fill="#054375"/>
<path d="M183.71 150.972C183.649 150.972 183.578 150.945 183.525 150.893C183.428 150.796 183.428 150.628 183.525 150.531L188.586 145.47C188.683 145.373 188.851 145.373 188.948 145.47C189.045 145.567 189.045 145.735 188.948 145.832L183.887 150.893C183.834 150.945 183.772 150.972 183.71 150.972Z" fill="#054375"/>
<path d="M183.71 65.4455C183.649 65.4455 183.578 65.4191 183.525 65.3662C183.428 65.2692 183.428 65.1016 183.525 65.0047L188.586 59.9436C188.683 59.8466 188.851 59.8466 188.948 59.9436C189.045 60.0406 189.045 60.2081 188.948 60.3051L183.887 65.3662C183.834 65.4191 183.772 65.4455 183.71 65.4455Z" fill="#054375"/>
<path d="M151.039 57.1021H87.2285V63.1331H151.039V57.1021Z" fill="#7CDDFD"/>
<path d="M151.039 63.9096H87.2293C86.806 63.9096 86.4622 63.5657 86.4622 63.1425V57.1115C86.4622 56.6883 86.806 56.3444 87.2293 56.3444H151.039C151.463 56.3444 151.806 56.6883 151.806 57.1115V63.1425C151.806 63.5657 151.463 63.9096 151.039 63.9096ZM88.0052 62.3754H150.281V57.8786H88.0052V62.3754Z" fill="#054375"/>
<path d="M151.039 100.306H87.2285V106.337H151.039V100.306Z" fill="#7CDDFD"/>
<path d="M151.039 107.113H87.2293C86.806 107.113 86.4622 106.769 86.4622 106.346V100.315C86.4622 99.8918 86.806 99.5479 87.2293 99.5479H151.039C151.463 99.5479 151.806 99.8918 151.806 100.315V106.346C151.806 106.769 151.463 107.113 151.039 107.113ZM88.0052 105.579H150.281V101.082H88.0052V105.579Z" fill="#054375"/>
<path d="M126.431 71.5H87.2292V77.531H126.431V71.5Z" fill="white"/>
<path d="M126.44 78.2989H87.2387C86.8154 78.2989 86.4716 77.955 86.4716 77.5318V71.5008C86.4716 71.0776 86.8154 70.7337 87.2387 70.7337H126.44C126.863 70.7337 127.207 71.0776 127.207 71.5008V77.5318C127.207 77.955 126.863 78.2989 126.44 78.2989ZM88.0057 76.7647H125.673V72.2679H88.0057V76.7647Z" fill="#054375"/>
<path d="M126.431 114.706H87.2292V120.737H126.431V114.706Z" fill="white"/>
<path d="M126.44 121.504H87.2387C86.8154 121.504 86.4716 121.16 86.4716 120.737V114.706C86.4716 114.283 86.8154 113.939 87.2387 113.939H126.44C126.863 113.939 127.207 114.283 127.207 114.706V120.737C127.207 121.16 126.863 121.504 126.44 121.504ZM88.0057 119.97H125.673V115.473H88.0057V119.97Z" fill="#054375"/>
<path d="M151.039 85.8913H87.2285V91.9222H151.039V85.8913Z" fill="#7CDDFD"/>
<path d="M151.039 92.6901H87.2293C86.806 92.6901 86.4622 92.3462 86.4622 91.923V85.892C86.4622 85.4688 86.806 85.1249 87.2293 85.1249H151.039C151.463 85.1249 151.806 85.4688 151.806 85.892V91.923C151.806 92.3462 151.463 92.6901 151.039 92.6901ZM88.0052 91.1559H150.281V86.6591H88.0052V91.1559Z" fill="#054375"/>
<path d="M151.039 129.095H87.2285V135.126H151.039V129.095Z" fill="#7CDDFD"/>
<path d="M151.04 135.893H87.2295C86.8063 135.893 86.4624 135.55 86.4624 135.126V129.095C86.4624 128.672 86.8063 128.328 87.2295 128.328H151.04C151.463 128.328 151.807 128.672 151.807 129.095V135.126C151.807 135.55 151.463 135.893 151.04 135.893ZM88.0054 134.359H150.281V129.862H88.0054V134.359Z" fill="#054375"/>
<path d="M146 162.82L155.866 152.955L165.411 162.5L179.161 148.75L192.911 135L202.966 145.055L165.601 182.419L146 162.82Z" fill="#7CDDFD" stroke="#054375" stroke-width="2"/>
</svg>
