<svg width="320" height="248" viewBox="0 0 320 248" fill="none" xmlns="http://www.w3.org/2000/svg">
<path opacity="0.3" d="M259.288 129.099C260.842 127.528 260.842 124.982 259.288 123.412L151.806 14.8023C150.097 13.0757 147.272 13.2741 145.816 15.2229L106.259 68.1738C105.063 69.7747 105.218 72.0212 106.621 73.4395L155.959 123.295C157.513 124.865 157.513 127.411 155.959 128.981L100.336 185.188C98.6282 186.913 98.8236 189.767 100.751 191.238L153.255 231.341C154.839 232.551 157.064 232.395 158.468 230.977L259.288 129.099Z" fill="#1090F9"/>
<path opacity="0.3" d="M258.499 132.456C259.664 133.634 259.664 135.543 258.499 136.721L157.679 238.599C156.626 239.663 154.957 239.78 153.769 238.872L101.265 198.77C99.8194 197.666 99.6729 195.526 100.954 194.232L156.577 138.025C158.519 136.063 158.519 132.88 156.577 130.917L107.239 81.0621C106.186 79.9984 106.07 78.3135 106.967 77.1128L146.525 24.1619C147.617 22.7003 149.735 22.5515 151.017 23.8465L258.499 132.456Z" stroke="#05BDFB" stroke-width="2"/>
<path opacity="0.3" d="M201.795 28.215C202.899 28.215 203.795 29.1104 203.795 30.215L203.795 32.8891C203.795 33.7656 203.02 34.4399 202.152 34.319C201.439 34.2196 200.907 33.6095 200.907 32.8891L200.907 32.7055C200.907 31.8189 200.189 31.1001 199.302 31.1001L199.115 31.1001C198.239 31.1001 197.565 30.3258 197.686 29.4583C197.786 28.7455 198.395 28.215 199.115 28.215L201.795 28.215Z" fill="#1090F9"/>
<path opacity="0.3" d="M251.04 72.1579C251.592 73.1143 251.265 74.3371 250.308 74.889L246.347 77.1741C245.295 77.781 243.94 77.2971 243.484 76.1719C243.109 75.2473 243.466 74.172 244.331 73.6733L244.786 73.4106C245.743 72.8586 246.07 71.6359 245.518 70.6795L245.253 70.2208C244.645 69.1694 245.108 67.8243 246.233 67.3683L246.272 67.3526C247.197 66.9779 248.257 67.3421 248.757 68.2062L251.04 72.1579Z" fill="#1090F9"/>
<path opacity="0.3" d="M164.399 210.212C164.951 211.169 164.624 212.391 163.667 212.943L159.706 215.228C158.654 215.835 157.299 215.351 156.843 214.226C156.467 213.302 156.825 212.226 157.689 211.728L158.145 211.465C159.102 210.913 159.429 209.69 158.877 208.734L158.612 208.275C158.004 207.224 158.466 205.879 159.592 205.423L159.631 205.407C160.556 205.032 161.616 205.396 162.115 206.261L164.399 210.212Z" fill="#1090F9"/>
<path opacity="0.3" d="M249.574 167.884C248.792 167.104 248.792 165.838 249.574 165.057L256.81 157.827C257.691 156.946 259.155 157.076 259.867 158.098L260.549 159.078C261.102 159.872 261.006 160.949 260.321 161.633L257.946 164.007C257.164 164.787 257.164 166.053 257.946 166.834L259.329 168.216C260.171 169.057 260.096 170.442 259.168 171.187L257.083 172.864C256.287 173.504 255.136 173.442 254.414 172.721L249.574 167.884Z" fill="#1090F9"/>
<rect x="110" y="73" width="115" height="80" rx="7" fill="white" stroke="#054375" stroke-width="2"/>
<path d="M113.258 81.5747C113.196 81.5747 113.126 81.5482 113.073 81.4953C112.976 81.3983 112.976 81.2308 113.073 81.1338L118.134 76.0727C118.231 75.9758 118.398 75.9758 118.495 76.0727C118.592 76.1697 118.592 76.3373 118.495 76.4343L113.434 81.4953C113.381 81.5482 113.32 81.5747 113.258 81.5747Z" fill="#054375"/>
<path d="M133.132 86.5945C133.071 86.5945 133 86.5681 132.947 86.5152C132.85 86.4182 132.85 86.2506 132.947 86.1536L143.134 76.0727C143.231 75.9758 143.398 75.9758 143.495 76.0727C143.592 76.1697 143.592 76.3373 143.495 76.4343L133.309 86.5152C133.256 86.5681 133.194 86.5945 133.132 86.5945Z" fill="#054375"/>
<path d="M112.562 87.3326C112.5 87.3326 112.429 87.3061 112.376 87.2532C112.279 87.1562 112.279 86.9887 112.376 86.8917L123.134 76.0727C123.231 75.9758 123.398 75.9758 123.495 76.0727C123.592 76.1697 123.592 76.3373 123.495 76.4343L112.738 87.2532C112.685 87.3061 112.623 87.3326 112.562 87.3326Z" fill="#054375"/>
<path d="M139.306 85.5264C139.244 85.5264 139.174 85.5 139.121 85.4471C139.024 85.3501 139.024 85.1826 139.121 85.0856L148.134 76.0727C148.231 75.9758 148.398 75.9758 148.495 76.0727C148.592 76.1697 148.592 76.3373 148.495 76.4343L139.482 85.4471C139.43 85.5 139.368 85.5264 139.306 85.5264Z" fill="#054375"/>
<path d="M114.632 90.0945C114.571 90.0945 114.5 90.0681 114.447 90.0152C114.35 89.9182 114.35 89.7506 114.447 89.6536L128.134 76.0727C128.231 75.9758 128.398 75.9758 128.495 76.0727C128.592 76.1697 128.592 76.3373 128.495 76.4343L114.809 90.0152C114.756 90.0681 114.694 90.0945 114.632 90.0945Z" fill="#054375"/>
<path d="M145.306 84.5264C145.244 84.5264 145.174 84.5 145.121 84.4471C145.024 84.3501 145.024 84.1826 145.121 84.0856L153.134 76.0727C153.231 75.9758 153.398 75.9758 153.495 76.0727C153.592 76.1697 153.592 76.3373 153.495 76.4343L145.482 84.4471C145.43 84.5 145.368 84.5264 145.306 84.5264Z" fill="#054375"/>
<path d="M121.282 88.7444C121.22 88.7444 121.15 88.718 121.097 88.665C121 88.5681 121 88.4005 121.097 88.3035L133.134 76.0727C133.231 75.9758 133.398 75.9758 133.495 76.0727C133.592 76.1697 133.592 76.3373 133.495 76.4343L121.459 88.665C121.406 88.718 121.344 88.7444 121.282 88.7444Z" fill="#054375"/>
<path d="M151.394 83.5C151.333 83.5 151.262 83.4736 151.209 83.4206C151.112 83.3237 151.112 83.1561 151.209 83.0591L155.603 78.6033L158.134 76.0727C158.231 75.9758 158.398 75.9758 158.495 76.0727C158.592 76.1697 158.592 76.3373 158.495 76.4343L151.571 83.4206C151.518 83.4736 151.456 83.5 151.394 83.5Z" fill="#054375"/>
<path d="M127.394 87.5C127.333 87.5 127.262 87.4736 127.209 87.4206C127.112 87.3237 127.112 87.1561 127.209 87.0591L138.134 76.0727C138.231 75.9758 138.398 75.9758 138.495 76.0727C138.592 76.1697 138.592 76.3373 138.495 76.4343L127.571 87.4206C127.518 87.4736 127.456 87.5 127.394 87.5Z" fill="#054375"/>
<path d="M157.282 82.5504C157.22 82.5504 157.15 82.524 157.097 82.4711C157 82.3741 157 82.2066 157.097 82.1096L163.134 76.0727C163.231 75.9758 163.398 75.9758 163.495 76.0727C163.592 76.1697 163.592 76.3373 163.495 76.4343L157.459 82.4711C157.406 82.524 157.344 82.5504 157.282 82.5504Z" fill="#054375"/>
<rect x="97.2069" y="93.601" width="116.085" height="79.3136" rx="8" transform="rotate(-9.72099 97.2069 93.601)" fill="#D7DEE5"/>
<rect x="95.1545" y="96.9946" width="114.962" height="79.8734" rx="7" transform="rotate(-9.72099 95.1545 96.9946)" fill="white" stroke="#054375" stroke-width="2"/>
<path d="M206.676 140.939L114.239 156.956L115.269 162.898L207.706 146.882L206.676 140.939Z" fill="#7CDDFD"/>
<path d="M207.84 147.647L115.403 163.663C114.79 163.769 114.233 163.517 114.161 163.1L113.131 157.157C113.059 156.74 113.498 156.315 114.111 156.209L206.548 140.193C207.161 140.086 207.718 140.339 207.79 140.756L208.82 146.698C208.892 147.115 208.453 147.54 207.84 147.647ZM115.268 161.931L207.316 146.325L206.548 141.895L114.5 157.5L115.268 161.931Z" fill="#054375"/>
<rect x="108" y="126.173" width="24" height="16" rx="2" transform="rotate(-10.0137 108 126.173)" fill="#F5DA57"/>
</svg>
