<svg width="320" height="248" viewBox="0 0 320 248" fill="none" xmlns="http://www.w3.org/2000/svg">
<path opacity="0.3" d="M254.679 129.137C256.232 127.566 256.232 125.02 254.679 123.449L145.393 12.9292C143.685 11.2019 140.861 11.4003 139.406 13.3499L99.1415 67.2889C97.946 68.8903 98.1005 71.1378 99.5035 72.5566L149.71 123.329C151.263 124.9 151.263 127.447 149.71 129.018L93.106 186.26C91.3987 187.987 91.5939 190.841 93.5201 192.314L146.962 233.164C148.546 234.375 150.77 234.219 152.173 232.8L254.679 129.137Z" fill="#1090F9"/>
<path opacity="0.3" d="M253.889 132.632C255.054 133.811 255.054 135.721 253.889 136.899L151.383 240.561C150.33 241.626 148.663 241.743 147.475 240.835L94.0328 199.984C92.5882 198.88 92.4417 196.739 93.7222 195.444L150.326 138.202C152.268 136.238 152.268 133.055 150.326 131.091L100.12 80.3182C99.0674 79.2541 98.9516 77.5685 99.8482 76.3674L140.112 22.4285C141.204 20.9663 143.322 20.8174 144.603 22.1129L253.889 132.632Z" stroke="#05BDFB" stroke-width="2"/>
<path opacity="0.3" d="M196.259 26.6182C197.363 26.6182 198.259 27.5136 198.259 28.6182L198.259 31.3713C198.259 32.2618 197.472 32.9468 196.59 32.8239C195.865 32.7229 195.325 32.1031 195.325 31.3713L195.325 31.1824C195.325 30.2816 194.595 29.5514 193.694 29.5514L193.505 29.5514C192.615 29.5514 191.93 28.7643 192.053 27.8823C192.154 27.1576 192.774 26.6182 193.505 26.6182L196.259 26.6182Z" fill="#1090F9"/>
<path opacity="0.3" d="M246.27 71.322C246.823 72.2786 246.495 73.5018 245.538 74.0541L241.455 76.4119C240.403 77.0191 239.057 76.5566 238.601 75.4312L238.561 75.3316C238.186 74.4067 238.55 73.3471 239.414 72.8481L239.929 72.551C240.885 71.9987 241.213 70.7755 240.661 69.819L240.356 69.2915C239.749 68.2398 240.212 66.8942 241.337 66.438L241.437 66.3976C242.361 66.0227 243.421 66.3868 243.92 67.2511L246.27 71.322Z" fill="#1090F9"/>
<path opacity="0.3" d="M148.408 211.678C148.96 212.634 148.633 213.857 147.676 214.41L143.592 216.767C142.541 217.375 141.195 216.912 140.739 215.787L140.698 215.687C140.324 214.762 140.688 213.703 141.552 213.204L142.067 212.906C143.023 212.354 143.351 211.131 142.799 210.174L142.494 209.647C141.887 208.595 142.349 207.25 143.475 206.793L143.574 206.753C144.499 206.378 145.559 206.742 146.058 207.607L148.408 211.678Z" fill="#1090F9"/>
<path opacity="0.3" d="M244.741 168.593C243.96 167.812 243.96 166.545 244.741 165.764L252.142 158.363C253.023 157.482 254.487 157.612 255.198 158.635L255.929 159.685C256.482 160.48 256.386 161.557 255.701 162.241L253.246 164.697C252.465 165.478 252.465 166.744 253.246 167.525L254.7 168.979C255.541 169.82 255.467 171.205 254.54 171.951L252.37 173.697C251.574 174.337 250.424 174.275 249.702 173.553L244.741 168.593Z" fill="#1090F9"/>
<g clip-path="url(#clip0_661_7762)">
<path d="M178.873 113.089C178.814 108.333 177.231 104.42 174.478 100.973C171.337 97.0393 167.26 94.6622 162.247 94.0467C157.623 93.4791 153.376 94.5809 149.587 97.2942C145.427 100.273 142.851 104.307 141.918 109.348C141.683 110.615 141.643 111.918 141.516 113.206C140.77 120.798 138.413 127.77 133.581 133.778C130.577 137.513 126.919 140.469 122.65 142.623C120.739 143.587 118.729 144.364 116.732 145.148C115.419 145.663 114.252 144.951 114.026 143.622C113.876 142.734 114.428 141.86 115.374 141.538C117.74 140.731 120.025 139.745 122.186 138.483C126.564 135.924 130.133 132.53 132.793 128.191C135.227 124.223 136.681 119.901 137.351 115.313C137.634 113.38 137.727 111.42 137.991 109.483C138.614 104.909 140.511 100.906 143.591 97.4868C146.915 93.7972 151.017 91.4192 155.894 90.4503C160.514 89.5329 165.008 89.9839 169.259 92.0501C176.438 95.5399 180.707 101.33 182.392 109.085C182.798 110.954 182.763 112.855 182.596 114.75C182.427 116.668 182.265 118.589 182.039 120.501C181.619 124.044 180.93 127.541 180.039 130.996C178.338 137.597 175.863 143.887 172.509 149.824C169.549 155.064 166 159.866 161.845 164.217C157.689 168.568 153.059 172.333 147.982 175.557C144.039 178.06 139.903 180.183 135.592 181.972C135.037 182.203 134.483 182.354 133.891 182.124C133.11 181.819 132.614 181.138 132.627 180.326C132.641 179.483 133.026 178.866 133.814 178.518C135.31 177.855 136.818 177.218 138.293 176.512C142.616 174.443 146.693 171.965 150.526 169.083C156.812 164.359 162.141 158.728 166.501 152.179C170.692 145.881 173.747 139.061 175.813 131.789C177.083 127.322 177.958 122.778 178.429 118.159C178.612 116.377 178.744 114.591 178.875 113.087L178.873 113.089Z" fill="#054375"/>
<path d="M167.338 113.08C167.09 115.263 166.873 117.449 166.581 119.626C166.414 120.869 166.116 122.094 165.894 123.33C165.117 127.641 163.784 131.783 162.076 135.805C158.822 143.474 154.179 150.183 148.108 155.885C143.736 159.991 138.836 163.337 133.463 165.993C130.292 167.56 127.016 168.862 123.642 169.913C122.293 170.333 121.15 169.619 120.996 168.291C120.898 167.439 121.401 166.617 122.242 166.314C123.752 165.77 125.287 165.29 126.781 164.705C135.113 161.445 142.394 156.622 148.442 149.987C153.63 144.296 157.434 137.78 159.953 130.509C160.489 128.962 161.024 127.409 161.42 125.823C162.477 121.583 163.165 117.279 163.424 112.911C163.527 111.17 162.466 109.717 160.846 109.377C159.003 108.99 157.149 110.422 157.032 112.345C156.667 118.378 155.497 124.242 153.314 129.885C151.607 134.3 149.339 138.406 146.476 142.182C143.06 146.688 138.986 150.479 134.279 153.596C131.439 155.477 128.451 157.09 125.284 158.338C123.209 159.156 121.08 159.84 118.96 160.539C117.85 160.905 116.826 160.333 116.505 159.258C116.193 158.214 116.745 157.217 117.833 156.849C119.595 156.252 121.372 155.694 123.112 155.042C125.409 154.182 127.597 153.08 129.72 151.85C130.558 151.364 131.401 150.882 132.209 150.35C132.929 149.876 133.612 149.34 134.3 148.818C135.109 148.205 135.93 147.606 136.703 146.951C137.43 146.335 138.112 145.665 138.797 145C142.395 141.506 145.33 137.517 147.627 133.057C150.077 128.297 151.701 123.264 152.51 117.977C152.833 115.867 152.987 113.733 153.241 111.613C153.66 108.116 156.675 105.446 160.184 105.442C164.314 105.438 167.567 108.942 167.339 113.08H167.338Z" fill="#054375"/>
<path d="M159.486 78.468C154.771 78.5521 150.254 79.5336 145.948 81.4724C143.831 82.4251 141.845 83.5982 139.944 84.9323C138.544 85.9157 137.236 87.0094 136.018 88.2024C135.086 89.1162 134.171 90.0626 133.362 91.0848C129.933 95.4115 127.512 100.234 126.347 105.663C125.814 108.147 125.615 110.659 125.545 113.192C125.373 119.35 122.699 124.153 117.649 127.638C117.203 127.946 116.687 128.235 116.166 128.338C115.255 128.516 114.423 127.943 114.114 127.084C113.811 126.244 114.154 125.344 114.919 124.794C115.807 124.154 116.737 123.546 117.517 122.787C120.306 120.077 121.7 116.738 121.718 112.843C121.742 107.832 122.659 102.997 124.602 98.3798C125.24 96.8631 126.046 95.4151 126.811 93.9545C128.482 90.7658 130.729 88.0081 133.286 85.5027C136.783 82.0762 140.796 79.4216 145.316 77.5316C148.511 76.1966 151.823 75.319 155.252 74.8906C158.852 74.4405 162.446 74.5065 166.034 75.0885C171.134 75.9174 175.849 77.7359 180.191 80.527C185.355 83.8468 189.49 88.1717 192.628 93.4439C193.395 94.73 194.102 96.0614 194.72 97.4244C196.559 101.48 197.735 105.725 198.095 110.176C198.225 111.78 198.209 113.396 198.35 115C198.664 118.545 200.23 121.462 202.954 123.739C203.573 124.256 204.275 124.677 204.96 125.109C205.931 125.721 206.278 126.82 205.762 127.757C205.235 128.712 204.087 129.054 203.072 128.483C198.749 126.055 196.024 122.406 194.845 117.588C194.429 115.89 194.449 114.157 194.39 112.428C194.262 108.699 193.534 105.084 192.256 101.582C190.524 96.8387 187.928 92.6241 184.426 88.9906C179.271 83.6425 173.047 80.2585 165.726 78.9507C163.665 78.5828 161.583 78.4192 159.486 78.4689V78.468Z" fill="#054375"/>
<path d="M153.843 190C152.957 189.904 152.213 189.354 151.982 188.56C151.735 187.711 152.051 186.793 152.79 186.348C156.378 184.191 159.791 181.787 163.032 179.137C166.064 176.658 168.901 173.973 171.556 171.092C174.682 167.698 177.503 164.067 180.01 160.197C182.698 156.05 184.992 151.691 186.908 147.133C188.284 143.86 189.46 140.517 190.444 137.105C190.781 135.936 191.687 135.352 192.774 135.58C193.813 135.8 194.512 136.829 194.222 137.86C193.768 139.479 193.28 141.092 192.738 142.684C190.626 148.881 187.883 154.785 184.468 160.374C181.842 164.671 178.872 168.714 175.523 172.474C174.612 173.497 173.691 174.51 172.734 175.488C171.665 176.58 170.576 177.655 169.449 178.687C166.4 181.478 163.209 184.097 159.791 186.423C158.227 187.488 156.63 188.504 155.03 189.513C154.674 189.737 154.241 189.839 153.844 189.998L153.843 190Z" fill="#054375"/>
<path d="M150.224 160.363C150.224 159.472 150.521 158.982 150.987 158.55C154.897 154.915 158.266 150.831 161.102 146.304C163.531 142.429 165.479 138.322 167.033 134.022C167.485 132.772 168.697 132.282 169.829 132.88C170.636 133.306 171.021 134.271 170.693 135.207C170.302 136.327 169.882 137.44 169.43 138.536C166.767 144.999 163.192 150.913 158.607 156.187C156.991 158.045 155.211 159.763 153.477 161.515C152.868 162.131 152.092 162.224 151.309 161.855C150.594 161.517 150.25 160.906 150.224 160.363Z" fill="#054375"/>
<path d="M163.643 82.5263C165.603 82.7486 167.623 83.1888 169.585 83.8748C176.454 86.2755 181.795 90.6157 185.648 96.7655C186.656 98.3743 187.432 100.133 188.244 101.857C188.74 102.913 188.259 104.047 187.267 104.459C186.229 104.89 185.141 104.436 184.69 103.329C183.186 99.6452 181.052 96.385 178.189 93.6192C174.076 89.645 169.203 87.2019 163.528 86.4065C162.238 86.2257 161.539 85.5451 161.539 84.4452C161.541 83.3235 162.414 82.4829 163.643 82.5263Z" fill="#054375"/>
<path d="M131.13 103.045C131.16 102.905 131.181 102.677 131.258 102.469C133.043 97.672 135.795 93.5324 139.613 90.1132C143.834 86.3333 148.734 83.9309 154.284 82.8499C154.784 82.7522 155.291 82.6555 155.798 82.6411C156.818 82.6121 157.594 83.3605 157.709 84.4207C157.808 85.3345 157.144 86.27 156.196 86.43C154.058 86.7906 151.962 87.2995 149.961 88.1428C142.788 91.1634 137.786 96.3154 134.993 103.583C134.475 104.932 133.191 105.445 132.135 104.87C131.444 104.493 131.153 103.892 131.131 103.044L131.13 103.045Z" fill="#054375"/>
<path d="M140.88 131.584C142.409 131.603 143.289 133.205 142.476 134.534C140.898 137.111 139.026 139.458 136.891 141.594C131.326 147.163 124.695 150.896 117.162 153.072C116.026 153.401 114.924 152.842 114.64 151.8C114.339 150.696 114.947 149.686 116.112 149.349C120.964 147.951 125.458 145.815 129.537 142.826C133.35 140.032 136.57 136.675 139.084 132.658C139.509 131.979 140.062 131.573 140.88 131.584Z" fill="#054375"/>
<path d="M133.352 110.775C133.273 113.317 133.268 115.86 132.696 118.362C131.56 123.337 129.19 127.607 125.533 131.164C122.996 133.632 120.064 135.467 116.749 136.694C115.489 137.16 114.327 136.556 114.044 135.278C113.881 134.542 114.243 133.684 114.918 133.309C115.283 133.106 115.685 132.969 116.071 132.803C122.611 129.995 126.821 125.139 128.74 118.292C129.216 116.592 129.412 114.841 129.426 113.071C129.433 112.244 129.465 111.416 129.514 110.59C129.578 109.507 130.476 108.707 131.528 108.765C132.591 108.824 133.384 109.691 133.352 110.775Z" fill="#054375"/>
<path d="M158.837 68.9225C158.839 69.9682 158.061 70.7862 156.971 70.8621C152.13 71.1993 147.496 72.3625 143.055 74.3166C138.469 76.3358 134.382 79.0962 130.764 82.5642C129.597 83.6823 127.809 83.187 127.471 81.6676C127.311 80.9518 127.511 80.3173 128.037 79.8111C130.946 77.0119 134.156 74.6221 137.685 72.6617C141.478 70.5548 145.486 69.0156 149.711 68.0412C152.026 67.507 154.371 67.1437 156.744 67.0045C157.944 66.934 158.835 67.7854 158.837 68.9225Z" fill="#054375"/>
<path d="M144.283 128.543C142.965 128.531 142.073 127.283 142.478 125.997C142.992 124.364 143.576 122.751 144.028 121.102C144.873 118.018 145.288 114.86 145.491 111.67C145.7 108.382 146.932 105.486 149.03 102.961C150.53 101.156 152.292 99.6813 154.499 98.8082C155.217 98.5244 155.958 98.3427 156.741 98.4249C157.768 98.5325 158.35 99.1146 158.452 100.131C158.532 100.937 157.953 101.792 157.111 102.061C155.04 102.723 153.287 103.863 151.898 105.54C150.386 107.363 149.504 109.455 149.356 111.828C149.027 117.069 148.069 122.175 146.185 127.09C145.821 128.042 145.162 128.55 144.283 128.543Z" fill="#054375"/>
<path d="M191.843 84.2553C191.157 84.2535 190.671 84.0185 190.266 83.5991C186.752 79.9612 182.711 77.0544 178.156 74.8671C174.602 73.1606 170.882 71.9757 166.993 71.3321C166.12 71.1875 165.24 71.0845 164.362 70.9697C163.26 70.8251 162.575 69.9068 162.709 68.7408C162.823 67.7457 163.763 67.0361 164.806 67.1392C169.674 67.6218 174.333 68.8917 178.79 70.8901C183.687 73.0856 188.07 76.0556 191.935 79.7885C192.346 80.1853 192.767 80.5758 193.142 81.0042C193.682 81.6206 193.823 82.3328 193.485 83.1011C193.154 83.8522 192.543 84.1984 191.843 84.2562V84.2553Z" fill="#054375"/>
<path d="M114 112.999C114.021 106.459 115.307 100.187 117.963 94.2067C119.243 91.3252 120.811 88.6092 122.65 86.0495C123.347 85.0796 124.558 84.841 125.455 85.4972C126.338 86.1435 126.493 87.3275 125.795 88.3009C122.934 92.2987 120.806 96.6498 119.466 101.384C118.743 103.937 118.208 106.53 118.054 109.178C117.923 111.459 117.912 113.749 117.868 116.035C117.846 117.234 117.072 118.071 115.931 118.068C114.803 118.066 114.001 117.219 114 116.024C113.998 115.015 114 114.006 114 112.998V112.999Z" fill="#054375"/>
<path d="M188.412 108.2C189.394 108.196 190.236 108.894 190.32 109.881C190.446 111.364 190.535 112.852 190.59 114.34C190.804 120.17 193.073 125.052 197.309 129.027C199.194 130.796 201.373 132.104 203.775 133.052C204.636 133.392 205.08 134.108 205.034 134.987C204.993 135.784 204.479 136.505 203.66 136.687C203.221 136.785 202.685 136.75 202.266 136.587C197.438 134.714 193.61 131.578 190.762 127.258C188.085 123.197 186.757 118.717 186.72 113.847C186.711 112.765 186.595 111.684 186.543 110.602C186.529 110.319 186.545 110.029 186.59 109.748C186.753 108.717 187.367 108.205 188.413 108.2H188.412Z" fill="#054375"/>
<path d="M202.147 114.766C202.217 110.027 201.731 105.354 200.33 100.814C199.764 98.9808 199.161 97.1379 198.337 95.4124C197.358 93.3607 196.148 91.4165 194.99 89.4543C194.335 88.3425 194.661 87.032 195.806 86.5285C196.664 86.1507 197.679 86.4436 198.206 87.304C199.06 88.6987 199.876 90.1168 200.687 91.5367C201.858 93.5876 202.761 95.7586 203.522 97.992C204.691 101.423 205.413 104.947 205.776 108.553C206.087 111.635 205.977 114.72 205.966 117.803C205.962 118.783 205.118 119.576 204.122 119.601C203.102 119.627 202.199 118.874 202.156 117.881C202.112 116.844 202.146 115.804 202.146 114.766H202.147Z" fill="#054375"/>
<path d="M175.083 112.904C174.838 115.278 174.669 117.664 174.327 120.025C173.97 122.493 173.47 124.941 172.985 127.388C172.705 128.804 171.482 129.457 170.257 128.923C169.473 128.581 168.991 127.692 169.149 126.854C169.594 124.491 170.105 122.138 170.474 119.764C170.858 117.3 171.169 114.819 171.105 112.314C171.044 109.952 170.091 107.911 168.71 106.057C167.366 104.254 165.629 102.954 163.507 102.18C162.399 101.776 161.898 100.7 162.284 99.637C162.652 98.6238 163.755 98.1403 164.847 98.5515C169.155 100.173 172.098 103.203 173.891 107.403C174.639 109.154 175.035 110.979 174.961 112.896C175.001 112.898 175.043 112.901 175.083 112.904Z" fill="#054375"/>
<path d="M187.727 167.948C187.094 167.887 186.5 167.586 186.159 166.903C185.824 166.232 185.852 165.569 186.265 164.935C188.243 161.897 190.042 158.756 191.648 155.506C193.907 150.929 195.779 146.198 197.275 141.318C197.658 140.067 198.543 139.479 199.654 139.733C200.68 139.968 201.377 140.972 201.078 141.984C200.542 143.798 199.994 145.616 199.304 147.375C198.182 150.242 197.019 153.096 195.734 155.892C193.954 159.769 191.856 163.482 189.503 167.044C189.121 167.622 188.501 167.955 187.728 167.948H187.727Z" fill="#054375"/>
<path d="M204.936 154.069C204.863 154.341 204.819 154.626 204.711 154.884C201.484 162.652 197.35 169.905 192.311 176.638C191.933 177.144 191.547 177.644 191.152 178.137C190.427 179.039 189.289 179.184 188.391 178.499C187.575 177.876 187.429 176.686 188.079 175.794C189.185 174.276 190.332 172.786 191.411 171.249C193.451 168.344 195.321 165.327 196.95 162.172C198.19 159.771 199.335 157.321 200.513 154.888C200.753 154.389 200.966 153.875 201.166 153.358C201.432 152.672 202.334 152.06 203.064 152.114C204.164 152.196 204.894 152.942 204.935 154.069H204.936Z" fill="#054375"/>
<path d="M185.306 172.249C185.308 172.781 185.089 173.216 184.771 173.615C182.656 176.282 180.412 178.833 178.022 181.258C175.315 184.005 172.447 186.567 169.443 188.985C168.765 189.531 168.064 189.847 167.204 189.513C165.826 188.978 165.533 187.196 166.673 186.229C167.797 185.276 168.96 184.368 170.075 183.405C174.37 179.699 178.269 175.612 181.779 171.154C182.28 170.518 182.919 170.232 183.718 170.379C184.46 170.516 184.96 170.957 185.195 171.677C185.255 171.86 185.27 172.058 185.306 172.248L185.306 172.249Z" fill="#054375"/>
<path d="M160.897 175.086C160.264 175.088 159.517 174.602 159.247 173.926C158.934 173.14 159.095 172.314 159.717 171.731C160.616 170.889 161.551 170.085 162.442 169.234C166.457 165.398 170.01 161.172 173.075 156.536C173.403 156.04 173.748 155.579 174.353 155.395C175.128 155.16 175.975 155.417 176.458 156.046C176.966 156.707 177.033 157.575 176.556 158.28C175.611 159.673 174.665 161.067 173.661 162.416C171.432 165.414 168.981 168.224 166.327 170.849C165.088 172.075 163.789 173.24 162.514 174.429C162.097 174.817 161.625 175.095 160.896 175.086H160.897Z" fill="#054375"/>
<path d="M178.828 152.512C177.35 152.512 176.484 151.019 177.15 149.642C177.929 148.033 178.731 146.432 179.454 144.796C181.46 140.261 182.992 135.565 184.115 130.737C184.315 129.88 184.628 129.163 185.541 128.88C186.91 128.455 188.326 129.638 187.987 131.029C187.387 133.495 186.738 135.954 185.99 138.379C184.604 142.87 182.785 147.19 180.616 151.361C180.236 152.091 179.669 152.51 178.828 152.512Z" fill="#054375"/>
<path d="M125.982 174.542C125.981 173.643 126.459 173.028 127.389 172.661C129.342 171.888 131.313 171.153 133.233 170.303C137.381 168.467 141.28 166.185 144.955 163.52C145.892 162.839 147.071 162.969 147.725 163.834C148.398 164.723 148.223 165.922 147.273 166.617C143.904 169.083 140.353 171.259 136.566 173.008C133.966 174.208 131.299 175.267 128.634 176.318C127.274 176.855 125.983 175.933 125.982 174.543V174.542Z" fill="#054375"/>
<path d="M156.884 178.057C156.91 178.679 156.544 179.195 155.968 179.6C153.176 181.564 150.292 183.384 147.288 185.004C146.126 185.632 144.954 186.244 143.761 186.808C142.915 187.207 141.894 186.861 141.42 186.104C140.897 185.269 141.021 184.242 141.732 183.598C141.863 183.48 142.022 183.384 142.181 183.304C146.209 181.3 150.081 179.034 153.747 176.422C154.432 175.933 155.156 175.83 155.905 176.237C156.568 176.598 156.892 177.18 156.885 178.057H156.884Z" fill="#054375"/>
</g>
<defs>
<clipPath id="clip0_661_7762">
<rect width="92" height="123" fill="white" transform="translate(114 67)"/>
</clipPath>
</defs>
</svg>
