<svg width="320" height="248" viewBox="0 0 320 248" fill="none" xmlns="http://www.w3.org/2000/svg">
<linearGradient id="paint0_linear_654_6368" x1="116.473" y1="95.7085" x2="121.433" y2="88.5156" gradientUnits="userSpaceOnUse">
<stop stop-color="#8CD133"/>
<stop offset="1" stop-color="#05BDFB"/>
</linearGradient>
<path opacity="0.3" d="M255.679 129.477C257.232 127.906 257.232 125.36 255.679 123.789L146.393 13.2691C144.685 11.5418 141.861 11.7403 140.406 13.6899L100.141 67.6288C98.946 69.2303 99.1005 71.4777 100.503 72.8966L150.71 123.669C152.263 125.24 152.263 127.787 150.71 129.358L94.106 186.6C92.3987 188.327 92.5939 191.181 94.5201 192.654L147.962 233.504C149.546 234.715 151.77 234.559 153.173 233.14L255.679 129.477Z" fill="#1090F9"/>
<path opacity="0.3" d="M254.888 132.972C256.053 134.15 256.053 136.06 254.888 137.238L152.383 240.901C151.33 241.965 149.662 242.082 148.474 241.174L95.0323 200.324C93.5877 199.219 93.4412 197.079 94.7217 195.784L151.326 138.541C153.267 136.578 153.267 133.394 151.326 131.431L101.119 80.6577C100.067 79.5935 99.9511 77.9079 100.848 76.7069L141.112 22.7679C142.203 21.3057 144.321 21.1569 145.602 22.4524L254.888 132.972Z" stroke="#05BDFB" stroke-width="2"/>
<path opacity="0.3" d="M197.259 26.9585C198.364 26.9585 199.259 27.8539 199.259 28.9585L199.259 31.7117C199.259 32.6021 198.472 33.2871 197.59 33.1642C196.865 33.0632 196.326 32.4434 196.326 31.7117L196.326 31.5227C196.326 30.6219 195.596 29.8917 194.695 29.8917L194.506 29.8917C193.615 29.8917 192.93 29.1046 193.053 28.2227C193.154 27.4979 193.774 26.9585 194.506 26.9585L197.259 26.9585Z" fill="#1090F9"/>
<path opacity="0.3" d="M247.27 71.6623C247.823 72.6189 247.495 73.8421 246.538 74.3944L242.454 76.7522C241.403 77.3593 240.057 76.8969 239.601 75.7715L239.56 75.6718C239.186 74.747 239.55 73.6874 240.414 73.1884L240.929 72.8913C241.885 72.339 242.213 71.1158 241.661 70.1592L241.356 69.6317C240.749 68.5801 241.211 67.2344 242.337 66.7782L242.436 66.7378C243.361 66.3629 244.421 66.7271 244.92 67.5913L247.27 71.6623Z" fill="#1090F9"/>
<path opacity="0.3" d="M149.408 212.018C149.96 212.974 149.632 214.197 148.676 214.75L144.592 217.107C143.54 217.715 142.195 217.252 141.739 216.127L141.698 216.027C141.323 215.102 141.687 214.043 142.552 213.544L143.066 213.246C144.023 212.694 144.351 211.471 143.798 210.514L143.494 209.987C142.887 208.935 143.349 207.59 144.474 207.133L144.574 207.093C145.499 206.718 146.559 207.082 147.058 207.947L149.408 212.018Z" fill="#1090F9"/>
<path opacity="0.3" d="M245.741 168.933C244.96 168.152 244.96 166.885 245.741 166.104L253.143 158.703C254.024 157.822 255.487 157.952 256.199 158.975L256.929 160.025C257.482 160.82 257.386 161.896 256.702 162.581L254.246 165.036C253.465 165.817 253.465 167.084 254.246 167.865L255.7 169.319C256.542 170.16 256.467 171.545 255.54 172.291L253.37 174.037C252.574 174.677 251.424 174.615 250.702 173.893L245.741 168.933Z" fill="#1090F9"/>
<path opacity="0.1" d="M109.103 199.644L77.4288 81.2532C74.9572 72.015 79.5623 63.2779 87.7079 61.751L135.18 52.8525C143.326 51.3256 151.943 57.5843 154.415 66.8225L186.092 185.225C188.564 194.463 183.959 203.2 175.813 204.727L128.341 213.625C120.182 215.142 111.578 208.893 109.103 199.644Z" fill="#02223B"/>
<path d="M97.2932 193.377L69.4698 74.1109C67.2987 64.8045 72.1759 56.2745 80.3561 55.0714L128.031 48.0596C136.211 46.8565 144.612 53.4334 146.783 62.7399L174.61 182.018C176.781 191.325 171.904 199.855 163.723 201.058L116.049 208.07C107.855 209.262 99.467 202.696 97.2932 193.377Z" fill="#7CDDFD"/>
<path d="M169.496 200.579L121.735 209.528C113.172 211.132 104.093 204.54 101.495 194.832L69.7193 76.1068C67.1211 66.3989 71.9733 57.1967 80.5363 55.5922L128.297 46.6433C136.86 45.0389 145.939 51.6308 148.538 61.3386L180.313 180.064C182.921 189.77 178.059 198.974 169.496 200.579ZM81.0803 57.6249C73.5066 59.044 69.2142 67.1845 71.5123 75.7708L103.288 194.496C105.586 203.083 113.617 208.914 121.191 207.495L168.952 198.546C176.526 197.127 180.818 188.986 178.52 180.4L146.745 61.6746C144.447 53.0882 136.415 47.2569 128.841 48.676L81.0803 57.6249Z" fill="#0864B0"/>
<path d="M147.52 61.1886L69.0391 74.1875L98.5012 190.201L176.982 177.202L147.52 61.1886Z" fill="#F5F7F9"/>
<path d="M179.539 177.218L101.257 191.706C100.754 191.799 100.221 191.415 100.068 190.849L68.779 75.2479C68.6259 74.6821 68.9098 74.1468 69.4124 74.0538L147.695 59.5653C148.197 59.4723 148.73 59.8564 148.883 60.4222L180.169 176.012C180.326 176.59 180.042 177.125 179.539 177.218ZM101.613 189.487L178.073 175.335L147.339 61.785L70.8786 75.9363L101.613 189.487Z" fill="#0864B0"/>
<path d="M147.369 188.594L132.211 191.715C131.67 191.826 131.105 191.403 130.949 190.77C130.794 190.137 131.106 189.533 131.647 189.421L146.805 186.301C147.346 186.189 147.911 186.613 148.066 187.246C148.222 187.879 147.91 188.483 147.369 188.594Z" fill="#0864B0"/>
<g opacity="0.12">
<path d="M147.735 59.4792C144.832 60.0082 141.914 60.4734 139.041 61.1298C131.268 62.7036 123.507 64.3818 115.77 66.162C109.679 67.522 103.642 69.1115 97.4317 69.9617C89.8904 71.3117 82.2894 72.4067 74.8774 74.3581C73.8323 74.609 72.7783 74.8217 71.7154 74.9962C71.0705 75.0809 70.3685 75.1244 69.8789 75.6177C67.3097 77.4673 69.3748 82.2719 72.4398 81.5743C76.1589 81.0844 79.757 79.9779 83.4283 79.2841C87.7846 78.3229 92.2313 77.7974 96.6175 76.9636C112.918 73.5875 129.221 70.1706 145.417 66.3484C147.585 65.9236 149.743 65.4072 151.889 64.8932C153.729 64.7396 155.324 63.3934 154.814 61.1199C153.67 57.2555 150.178 59.1158 147.735 59.4792Z" fill="#0864B0"/>
</g>
<line x1="104.646" y1="167.608" x2="160.828" y2="155.078" stroke="#7CDDFD" stroke-width="1.66848" stroke-linecap="round"/>
<line x1="97.0618" y1="133.602" x2="153.244" y2="121.072" stroke="#7CDDFD" stroke-width="1.66848" stroke-linecap="round"/>
<line x1="100.601" y1="149.472" x2="156.783" y2="136.942" stroke="#7CDDFD" stroke-width="1.66848" stroke-linecap="round"/>
<rect x="86.0312" y="88.8886" width="59.2306" height="31.2381" transform="rotate(-12.5729 86.0312 88.8886)" fill="#DAF0BC"/>
<path d="M116.316 95.6002L124.676 94.0741L123.452 90.3706L119.431 91.1046L118.602 86.5633L114.89 87.7881L116.316 95.6002Z" fill="url(#paint0_linear_654_6368)"/>
<path d="M120.364 96.2153L121.532 102.617C121.715 103.621 122.356 104.053 123.384 103.865C123.918 103.768 124.578 103.537 125.254 103.214L126.206 105.99C125.376 106.504 123.849 107.024 122.898 107.198C119.99 107.729 118.329 106.631 117.82 103.841L116.555 96.9106L120.364 96.2153Z" fill="#054375"/>
<rect opacity="0.1" x="152.069" y="34.4556" width="79.4105" height="54.7158" transform="rotate(4.75474 152.069 34.4556)" fill="#02223B"/>
<path d="M221.535 45.8274L156.632 40.429L152.98 84.3405L217.882 89.7389L221.535 45.8274Z" fill="white"/>
<rect x="144.485" y="26.9585" width="79.4105" height="54.7158" transform="rotate(4.75474 144.485 26.9585)" fill="#DAF0BC"/>
<path d="M221.535 45.8274L156.632 40.429L152.98 84.3405L217.882 89.7389L221.535 45.8274Z" fill="#EDF7DE"/>
<path d="M172.482 79.2969L172.483 79.297C173.423 79.3846 174.372 79.4583 175.332 79.4873C175.659 79.4993 175.983 79.51 176.305 79.5206C176.938 79.5415 177.565 79.5622 178.197 79.5917L178.209 79.5923L178.221 79.5925C178.242 79.5928 178.265 79.5938 178.303 79.5956L178.307 79.5958C178.34 79.5975 178.387 79.5997 178.436 79.6004L179.204 79.6114L179.246 78.8527C179.293 78.0172 179.338 77.2177 179.383 76.4182C179.427 75.6172 179.472 74.8162 179.519 73.9792L179.519 73.979C179.657 71.5183 179.805 68.8489 179.094 66.4032L179.094 66.4032C178.919 65.8012 178.645 65.0669 178.075 64.5477C177.384 63.9161 176.468 63.8015 175.635 63.9838C174.81 64.1644 174.009 64.6421 173.423 65.2907C172.318 66.513 171.85 68.1542 171.484 69.5216C170.707 72.4083 170.037 75.3174 169.459 78.2378L169.31 78.9959L170.074 79.078C170.558 79.1298 171.058 79.1725 171.547 79.2142C171.866 79.2414 172.18 79.2682 172.482 79.2969Z" fill="#BDEEFE" stroke="#054375" stroke-width="1.5"/>
<path opacity="0.12" d="M181.165 59.2511C181.001 59.0064 180.595 59.1494 180.559 59.4582C180.516 59.7816 180.11 60.5229 179.867 61.0714C179.333 62.1542 178.399 62.9834 176.995 63.5379C176.528 63.686 175.415 63.8418 174.438 63.7321C174.228 63.71 173.93 63.5902 173.46 63.4414C173.341 63.3965 173.202 63.4002 173.081 63.4658C172.687 63.65 172.666 64.297 173.055 64.4342C174.628 65.1556 176.586 64.9679 178.224 64.1759C178.893 63.7577 179.59 63.2814 179.978 62.5335C179.969 62.558 179.91 62.6487 179.932 62.6253C180.225 62.2369 180.473 61.8146 180.678 61.3686C180.901 60.9543 181.073 60.2241 181.103 60.0154C181.149 59.7677 181.314 59.4693 181.165 59.2511Z" fill="#0864B0"/>
<path opacity="0.12" d="M177.711 67.6064C177.71 68.2519 177.725 68.2678 177.693 69.1679C177.675 69.3653 177.644 69.5615 177.622 69.7585C177.629 69.7349 177.639 69.6969 177.647 69.6637C177.555 70.2817 177.614 70.9277 177.546 71.5575C177.32 73.6295 177.122 75.6991 176.884 77.7699C176.847 78.1016 176.815 78.4337 176.783 78.7658C177.332 78.7858 177.884 78.8111 178.437 78.8363C178.454 78.8379 178.475 78.8398 178.492 78.8413C178.683 77.1788 178.84 75.5133 178.95 73.8484C179.111 71.4551 179.203 70.109 179.087 69.055C179.102 68.0272 178.989 67.4928 178.891 67.1393C178.751 66.52 178.477 65.9615 178.159 65.4475C177.989 65.209 177.885 64.8308 177.57 64.8025C177.172 64.7523 176.865 65.3315 177.117 65.6696C177.682 66.6135 177.654 66.8537 177.711 67.6064Z" fill="#0864B0"/>
<rect width="25.4403" height="29.7919" transform="matrix(0.996917 0.0784582 -0.0875698 0.996158 163.441 48.7695)" stroke="#C7E89B" stroke-width="1.5" stroke-linecap="round"/>
<rect width="20.8122" height="13.2126" transform="matrix(0.996917 0.0784582 -0.0875698 0.996158 193.383 67.5452)" stroke="#C7E89B" stroke-width="1.5" stroke-linecap="round"/>
<line x1="195.455" y1="52.7462" x2="214.708" y2="54.3476" stroke="#C7E89B" stroke-width="1.5" stroke-linecap="round"/>
<line x1="194.781" y1="60.8431" x2="214.035" y2="62.4445" stroke="#C7E89B" stroke-width="1.5" stroke-linecap="round"/>
<rect x="146.417" y="28.89" width="77.6507" height="53.9258" transform="rotate(4.75474 146.417 28.89)" stroke="#C7E89B" stroke-width="1.5" stroke-linecap="round"/>
<rect opacity="0.1" x="243.227" y="119.512" width="82.044" height="56.5303" transform="rotate(98.4748 243.227 119.512)" fill="#02223B"/>
<path d="M216.633 190.162L226.549 123.611L181.522 116.902L171.606 183.453L216.633 190.162Z" fill="white"/>
<rect x="238.919" y="112.418" width="81.925" height="55.6837" transform="rotate(99.1388 238.919 112.418)" fill="#DAF0BC"/>
<rect x="196.834" y="116.112" width="26.2934" height="32.5174" transform="rotate(8.4748 196.834 116.112)" fill="#EDF7DE"/>
<path d="M203.941 150.02L203.943 150.021C205.023 150.203 206.113 150.37 207.219 150.486C207.596 150.528 207.97 150.568 208.342 150.609C209.074 150.688 209.8 150.766 210.53 150.855L210.542 150.856L210.554 150.857C210.581 150.86 210.609 150.863 210.653 150.868L210.657 150.869C210.696 150.874 210.748 150.88 210.803 150.885L211.567 150.953L211.666 150.2C211.787 149.275 211.911 148.33 212.035 147.385C212.158 146.443 212.282 145.5 212.403 144.578L212.403 144.578C212.775 141.736 213.173 138.677 212.566 135.805L212.566 135.805C212.416 135.096 212.167 134.248 211.573 133.621C210.859 132.863 209.851 132.657 208.899 132.792C207.955 132.926 207.012 133.397 206.296 134.079C204.937 135.375 204.261 137.206 203.717 138.762C202.57 142.036 201.542 145.345 200.622 148.676L200.417 149.421L201.173 149.559C201.728 149.661 202.3 149.753 202.862 149.843C203.229 149.902 203.592 149.961 203.941 150.02Z" fill="#BDEEFE" stroke="#0864B0" stroke-width="1.5"/>
<path opacity="0.12" d="M215.702 127.669C215.534 127.371 215.051 127.502 214.983 127.856C214.905 128.227 214.371 129.051 214.042 129.665C213.33 130.873 212.177 131.753 210.503 132.274C209.949 132.405 208.646 132.49 207.524 132.278C207.282 132.234 206.948 132.07 206.416 131.857C206.282 131.795 206.12 131.787 205.974 131.853C205.503 132.032 205.423 132.78 205.861 132.972C207.621 133.943 209.905 133.895 211.871 133.119C212.682 132.693 213.53 132.201 214.044 131.368C214.032 131.396 213.955 131.496 213.983 131.471C214.356 131.046 214.68 130.578 214.955 130.079C215.25 129.619 215.512 128.788 215.565 128.549C215.64 128.266 215.856 127.934 215.702 127.669Z" fill="#0864B0"/>
<path opacity="0.12" d="M210.98 137.049C210.923 137.796 210.939 137.816 210.825 138.856C210.787 139.083 210.734 139.307 210.691 139.534C210.702 139.507 210.716 139.464 210.729 139.426C210.568 140.134 210.581 140.887 210.447 141.611C210.008 143.992 209.599 146.372 209.144 148.75C209.073 149.131 209.008 149.513 208.942 149.895C209.576 149.965 210.213 150.042 210.851 150.119C210.871 150.122 210.895 150.126 210.915 150.13C211.28 148.22 211.605 146.305 211.876 144.386C212.269 141.627 212.492 140.076 212.449 138.845C212.555 137.656 212.47 137.027 212.387 136.609C212.278 135.88 212.01 135.209 211.686 134.587C211.509 134.296 211.422 133.849 211.059 133.789C210.602 133.696 210.197 134.34 210.459 134.754C211.033 135.896 210.979 136.172 210.98 137.049Z" fill="#0864B0"/>
<path d="M208.529 134.225C207.758 134.104 207.003 133.84 206.312 133.435C205.854 133.171 205.521 132.898 205.256 132.588C204.709 131.95 204.392 131.051 204.289 129.847C204.224 129.104 204.252 128.445 204.38 127.825C204.532 127.075 204.838 126.308 205.32 125.476C206.135 124.074 207.188 122.959 208.361 122.247C209.707 121.434 211.221 121.171 212.51 121.53C213.769 121.879 214.808 123.043 215.357 124.712C215.787 126.019 215.823 127.572 215.459 129.197C215.315 129.844 215.132 130.397 214.9 130.878C214.148 132.436 212.636 133.677 210.954 134.111C210.174 134.32 209.342 134.353 208.529 134.225Z" stroke="#0864B0" stroke-width="1.5"/>
<rect x="196.834" y="116.112" width="26.2934" height="32.5174" transform="rotate(8.4748 196.834 116.112)" stroke="#C7E89B" stroke-width="1.5"/>
<rect x="192.099" y="152.777" width="24.9309" height="28.7067" transform="rotate(8.4748 192.099 152.777)" fill="#EDF7DE" stroke="#C7E89B" stroke-width="1.5"/>
<path d="M195.295 173.661C196.151 172.434 196.709 171.025 196.927 169.545C197.035 168.825 197.303 168.139 197.711 167.537C198.119 166.935 198.657 166.432 199.285 166.065" stroke="#0864B0" stroke-width="1.5" stroke-linecap="round" stroke-linejoin="round"/>
<path d="M201.725 170.26C201.364 172.699 200.388 175.006 198.887 176.963" stroke="#0864B0" stroke-width="1.5" stroke-linecap="round" stroke-linejoin="round"/>
<path d="M199.326 169.902C199.421 169.266 199.764 168.694 200.281 168.311C200.798 167.928 201.446 167.766 202.082 167.861C202.718 167.956 203.291 168.299 203.673 168.816C204.056 169.333 204.218 169.981 204.123 170.617C203.76 173.09 202.85 175.452 201.461 177.53" stroke="#0864B0" stroke-width="1.5" stroke-linecap="round" stroke-linejoin="round"/>
<path d="M207.89 175.469C208.365 174.126 208.71 172.741 208.921 171.332C209.205 169.423 208.72 167.48 207.571 165.929C206.423 164.379 204.705 163.348 202.797 163.064C200.888 162.779 198.945 163.265 197.394 164.413C195.844 165.562 194.813 167.279 194.529 169.187C194.409 170.005 194.148 170.796 193.759 171.525" stroke="#0864B0" stroke-width="1.5" stroke-linecap="round" stroke-linejoin="round"/>
<path d="M198.729 172.265C198.282 173.488 197.643 174.632 196.837 175.654" stroke="#0864B0" stroke-width="1.5" stroke-linecap="round" stroke-linejoin="round"/>
<path d="M201.834 165.41C202.037 165.416 202.239 165.433 202.44 165.462C203.712 165.652 204.857 166.339 205.622 167.373C206.388 168.407 206.712 169.702 206.522 170.974C206.402 171.776 206.232 172.57 206.015 173.351" stroke="#0864B0" stroke-width="1.5" stroke-linecap="round" stroke-linejoin="round"/>
<path d="M205.2 175.681C205.022 176.107 204.828 176.53 204.622 176.936" stroke="#0864B0" stroke-width="1.5" stroke-linecap="round" stroke-linejoin="round"/>
<rect x="239.131" y="113.852" width="80.8102" height="56.5303" transform="rotate(98.4748 239.131 113.852)" stroke="#C7E89B" stroke-width="1.5" stroke-linecap="round"/>
<circle cx="177" cy="59" r="4.25" stroke="#054375" stroke-width="1.5"/>
<defs>

</defs>
</svg>
