<svg width="208" height="160" viewBox="0 0 208 160" fill="none" xmlns="http://www.w3.org/2000/svg">
<path opacity="0.3" d="M165.54 84.2099C166.55 83.1899 166.55 81.5399 165.54 80.5199L94.59 8.75989C93.48 7.63989 91.65 7.76989 90.7 9.02989L64.56 44.0499C63.78 45.0899 63.88 46.5499 64.8 47.4699L97.39 80.4299C98.4 81.4499 98.4 83.0999 97.39 84.1199L60.65 121.29C59.54 122.41 59.67 124.26 60.92 125.22L95.61 151.74C96.64 152.53 98.08 152.42 98.99 151.5L165.54 84.1999V84.2099Z" fill="#4687C7"/>
<path opacity="0.3" d="M94.08 14.7301L165.03 86.4801C165.79 87.2401 165.79 88.4801 165.03 89.2501L98.48 156.55C97.8 157.24 96.71 157.32 95.94 156.73L61.25 130.21C60.31 129.49 60.22 128.1 61.05 127.26L97.8 90.1001C99.06 88.8301 99.06 86.7601 97.8 85.4801L65.2 52.5101C64.52 51.8201 64.44 50.7201 65.02 49.9501L91.17 14.9301C91.88 13.9801 93.25 13.8801 94.09 14.7301H94.08Z" stroke="#3BB9EB" stroke-width="1.3"/>
<path opacity="0.3" d="M127.62 17.6499C128.34 17.6499 128.92 18.2299 128.92 18.9499V20.7399C128.92 21.3199 128.41 21.7599 127.84 21.6799C127.37 21.6099 127.02 21.2099 127.02 20.7399V20.6199C127.02 20.0399 126.55 19.5599 125.96 19.5599H125.84C125.26 19.5599 124.82 19.0499 124.9 18.4799C124.97 18.0099 125.37 17.6599 125.84 17.6599H127.63L127.62 17.6499Z" fill="#4687C7"/>
<path opacity="0.3" d="M160.08 46.6701C160.44 47.2901 160.23 48.0901 159.6 48.4401L156.95 49.9701C156.27 50.3601 155.39 50.0601 155.1 49.3301L155.07 49.2701C154.83 48.6701 155.07 47.9801 155.62 47.6601L155.95 47.4701C156.57 47.1101 156.78 46.3201 156.43 45.7001L156.23 45.3601C155.84 44.6801 156.14 43.8001 156.87 43.5101L156.94 43.4801C157.54 43.2401 158.23 43.4801 158.55 44.0301L160.08 46.6701Z" fill="#4687C7"/>
<path opacity="0.3" d="M96.55 137.79C96.91 138.41 96.7 139.21 96.07 139.56L93.42 141.09C92.74 141.48 91.86 141.18 91.57 140.45L91.54 140.39C91.3 139.79 91.54 139.1 92.09 138.78L92.42 138.59C93.04 138.23 93.25 137.44 92.9 136.82L92.7 136.48C92.31 135.8 92.61 134.92 93.34 134.63L93.4 134.6C94 134.36 94.69 134.6 95.01 135.15L96.54 137.79H96.55Z" fill="#4687C7"/>
<path opacity="0.3" d="M159.09 109.82C158.58 109.31 158.58 108.49 159.09 107.98L163.89 103.17C164.46 102.6 165.41 102.68 165.87 103.35L166.34 104.03C166.7 104.55 166.64 105.24 166.19 105.69L164.6 107.28C164.09 107.79 164.09 108.61 164.6 109.12L165.54 110.06C166.09 110.61 166.04 111.5 165.44 111.99L164.03 113.12C163.51 113.54 162.77 113.5 162.3 113.03L159.08 109.81L159.09 109.82Z" fill="#4687C7"/>
<path d="M45.55 108V44.2998C45.55 39.3398 49.57 35.3198 54.53 35.3198H83.51C88.47 35.3198 92.4901 39.3398 92.4901 44.2998V108C92.4901 112.96 88.47 116.98 83.51 116.98H54.53C49.57 116.98 45.55 112.96 45.55 108Z" fill="#85D5F5"/>
<path d="M83.58 117.53H54.47C49.25 117.53 45 113.28 45 108.06V44.2398C45 39.0198 49.25 34.7798 54.47 34.7798H83.58C88.8 34.7798 93.04 39.0298 93.04 44.2398V108.06C93.04 113.28 88.79 117.52 83.58 117.52V117.53ZM54.47 35.8598C49.85 35.8598 46.1 39.6198 46.1 44.2298V108.05C46.1 112.67 49.86 116.42 54.47 116.42H83.58C88.2 116.42 91.95 112.66 91.95 108.05V44.2298C91.95 39.6098 88.19 35.8598 83.58 35.8598H54.47Z" fill="#154475"/>
<path d="M92.5 44H45.55V105.58H92.5V44Z" fill="white"/>
<path d="M92.49 106.13H45.55C45.25 106.13 45 105.88 45 105.58V44.0002C45 43.7002 45.24 43.4502 45.55 43.4502H92.5C92.8 43.4502 93.05 43.6902 93.05 44.0002V105.58C93.05 105.88 92.81 106.13 92.5 106.13H92.49ZM46.1 105.04H91.95V44.5502H46.1V105.04Z" fill="#154475"/>
<path d="M73.73 110.56H65.27C64.97 110.56 64.72 110.32 64.72 110.01C64.72 109.7 64.97 109.46 65.27 109.46H73.73C74.03 109.46 74.28 109.7 74.28 110.01C74.28 110.32 74.04 110.56 73.73 110.56Z" fill="#154475"/>
<g opacity="0.13">
<path d="M89.35 44.1202C87.75 44.0802 86.15 44.0002 84.55 44.0202C80.24 43.9802 75.93 43.9802 71.61 44.0402C68.22 44.0702 64.83 44.2002 61.44 43.9802C57.28 43.8502 53.13 43.6002 48.96 43.7702C48.38 43.7802 47.79 43.7702 47.21 43.7502C46.86 43.7202 46.48 43.6702 46.16 43.8602C44.57 44.4702 45.07 46.9302 46.78 46.9102C48.81 47.0502 50.85 46.9002 52.88 46.9402C55.3 46.9302 57.72 47.1302 60.15 47.1802C69.19 47.2402 78.24 47.2702 87.28 47.1102C88.48 47.1302 89.69 47.1102 90.88 47.0802C91.87 47.1902 92.88 46.7202 92.9 45.6002C92.77 43.6702 90.7 44.1902 89.36 44.1202H89.35Z" fill="#154475"/>
</g>
<path d="M71.56 101.97C71.56 101.97 71.47 101.95 71.43 101.92C71.35 101.85 71.35 101.74 71.43 101.66C76.54 96.3501 81.8 91.0301 87.07 85.8601C87.15 85.7901 87.26 85.7901 87.33 85.8601C87.4 85.9301 87.4 86.0501 87.33 86.1201C82.07 91.2901 76.81 96.6001 71.7 101.91C71.67 101.95 71.62 101.97 71.57 101.97H71.56Z" fill="#154475"/>
<path d="M76.62 101.87C76.62 101.87 76.53 101.85 76.49 101.82C76.42 101.75 76.42 101.63 76.49 101.56L87.98 89.9201C88.05 89.8501 88.17 89.8401 88.24 89.9201C88.31 89.9901 88.32 90.1101 88.24 90.1801L76.75 101.82C76.75 101.82 76.66 101.87 76.62 101.87Z" fill="#154475"/>
<path d="M81.84 102.12C81.84 102.12 81.75 102.1 81.71 102.07C81.63 102 81.63 101.89 81.71 101.81C84.2 99.2202 86.65 96.5302 88.98 93.8002C89.04 93.7202 89.16 93.7102 89.24 93.7802C89.32 93.8402 89.33 93.9602 89.26 94.0402C86.92 96.7802 84.47 99.4802 81.98 102.07C81.95 102.1 81.9 102.12 81.85 102.12H81.84Z" fill="#154475"/>
<path d="M87.12 101.95C87.12 101.95 87.03 101.94 87 101.91C86.92 101.84 86.92 101.73 86.98 101.65L90.02 98.1502C90.09 98.0702 90.2 98.0702 90.28 98.1302C90.36 98.2002 90.36 98.3102 90.3 98.3902L87.26 101.89C87.26 101.89 87.17 101.95 87.12 101.95Z" fill="#154475"/>
<path d="M76.16 66.6402C77.24 65.0202 80.77 61.5102 86.22 60.4702" stroke="#154475" stroke-width="1.3"/>
<path d="M110.57 61.29C112.52 61.42 117.32 62.72 120.94 66.92" stroke="#154475" stroke-width="1.3"/>
<path d="M70.32 88.4501C76.4173 88.4501 81.36 83.5073 81.36 77.4101C81.36 71.3129 76.4173 66.3701 70.32 66.3701C64.2228 66.3701 59.28 71.3129 59.28 77.4101C59.28 83.5073 64.2228 88.4501 70.32 88.4501Z" fill="#F7E06E"/>
<path d="M98.88 70.5399C104.977 70.5399 109.92 66.4701 109.92 61.4499C109.92 56.4296 104.977 52.3599 98.88 52.3599C92.7827 52.3599 87.84 56.4296 87.84 61.4499C87.84 66.4701 92.7827 70.5399 98.88 70.5399Z" fill="#F7E06E"/>
<path d="M68.41 86.8502C74.1703 86.8502 78.84 82.1806 78.84 76.4202C78.84 70.6599 74.1703 65.9902 68.41 65.9902C62.6497 65.9902 57.98 70.6599 57.98 76.4202C57.98 82.1806 62.6497 86.8502 68.41 86.8502Z" fill="#F8EB76" stroke="#154475" stroke-width="1.3"/>
<path fill-rule="evenodd" clip-rule="evenodd" d="M67.68 81.36V82.53C67.68 82.71 67.83 82.86 68.01 82.86H68.34C68.52 82.86 68.67 82.71 68.67 82.53V81.36C69.19 81.34 69.86 81.28 70.45 81.03C70.86 80.86 71.26 80.58 71.56 80.16C71.85 79.73 72.01 79.19 72.01 78.52C72.01 77.85 71.85 77.31 71.56 76.89C71.27 76.46 70.87 76.19 70.45 76.02C69.86 75.77 69.19 75.71 68.67 75.69V72.01H71.17C71.35 72.01 71.5 71.86 71.5 71.68V71.35C71.5 71.17 71.35 71.02 71.17 71.02H68.67V69.85C68.67 69.67 68.52 69.52 68.34 69.52H68.01C67.83 69.52 67.68 69.67 67.68 69.85V71.03C67.13 71.05 66.5 71.12 65.94 71.34C65.52 71.51 65.11 71.77 64.81 72.18C64.51 72.6 64.35 73.13 64.35 73.78C64.35 74.43 64.51 74.96 64.8 75.39C65.09 75.81 65.48 76.1 65.89 76.29C66.49 76.57 67.15 76.66 67.69 76.69V80.38H65.19C65.01 80.38 64.86 80.53 64.86 80.71V81.04C64.86 81.22 65.01 81.37 65.19 81.37H67.69L67.68 81.36ZM68.68 80.35C69.14 80.33 69.65 80.28 70.07 80.1C70.35 79.98 70.58 79.82 70.74 79.58C70.9 79.35 71.02 79.02 71.02 78.51C71.02 78 70.9 77.67 70.74 77.44C70.58 77.21 70.35 77.04 70.07 76.92C69.64 76.74 69.14 76.69 68.68 76.67V80.33V80.35ZM67.68 75.67V72.02C67.2 72.04 66.71 72.1 66.3 72.26C66 72.38 65.77 72.54 65.62 72.76C65.46 72.98 65.35 73.29 65.35 73.77C65.35 74.25 65.47 74.58 65.63 74.82C65.79 75.06 66.03 75.24 66.31 75.37C66.73 75.57 67.23 75.64 67.69 75.67H67.68Z" fill="#154475"/>
<path d="M108.7 60.8398C108.7 62.9398 107.59 64.8798 105.71 66.3198C103.83 67.7598 101.2 68.6698 98.27 68.6698C95.34 68.6698 92.71 67.7598 90.83 66.3198C88.95 64.8798 87.84 62.9398 87.84 60.8398C87.84 58.7398 88.95 56.7998 90.83 55.3598C92.71 53.9198 95.34 53.0098 98.27 53.0098C101.2 53.0098 103.83 53.9198 105.71 55.3598C107.59 56.7998 108.7 58.7398 108.7 60.8398Z" fill="#F8EB76" stroke="#154475" stroke-width="1.3"/>
<path fill-rule="evenodd" clip-rule="evenodd" d="M97.54 64.62V65.51C97.54 65.65 97.69 65.77 97.87 65.77H98.2C98.38 65.77 98.53 65.66 98.53 65.51V64.61C99.05 64.6 99.72 64.55 100.31 64.36C100.72 64.23 101.12 64.02 101.42 63.69C101.71 63.36 101.87 62.95 101.87 62.44C101.87 61.93 101.71 61.52 101.42 61.19C101.13 60.86 100.73 60.66 100.31 60.52C99.72 60.33 99.05 60.28 98.53 60.27V57.45H101.03C101.21 57.45 101.36 57.34 101.36 57.19V56.93C101.36 56.79 101.21 56.67 101.03 56.67H98.53V55.78C98.53 55.64 98.38 55.52 98.2 55.52H97.87C97.69 55.52 97.54 55.63 97.54 55.78V56.68C96.99 56.7 96.36 56.75 95.8 56.92C95.38 57.05 94.97 57.25 94.67 57.57C94.37 57.89 94.21 58.3 94.21 58.79C94.21 59.28 94.37 59.7 94.66 60.02C94.95 60.34 95.34 60.56 95.75 60.71C96.35 60.92 97.01 60.99 97.55 61.01V63.83H95.05C94.87 63.83 94.72 63.94 94.72 64.09V64.35C94.72 64.49 94.87 64.61 95.05 64.61H97.55L97.54 64.62ZM98.54 63.85C99 63.84 99.51 63.8 99.93 63.66C100.21 63.57 100.44 63.44 100.6 63.26C100.76 63.08 100.88 62.83 100.88 62.44C100.88 62.05 100.76 61.8 100.6 61.62C100.44 61.44 100.21 61.32 99.93 61.22C99.5 61.08 99 61.04 98.54 61.03V63.83V63.85ZM97.54 60.27V57.48C97.06 57.49 96.57 57.54 96.16 57.66C95.86 57.75 95.63 57.87 95.48 58.04C95.32 58.21 95.21 58.45 95.21 58.81C95.21 59.17 95.33 59.43 95.49 59.61C95.65 59.79 95.89 59.93 96.17 60.03C96.59 60.18 97.09 60.24 97.55 60.26L97.54 60.27Z" fill="#154475"/>
<path d="M179.81 111.12C181.02 109.11 184.23 102.65 181.98 93.5099C181.87 93.0599 181.54 92.6899 181.1 92.5299C179.97 92.1199 177.45 90.8799 173.67 87.2299C168.4 82.1499 154.64 78.9599 151.3 78.9699C147.96 78.9799 129.13 80.9299 124.96 79.0599C120.79 77.1899 119.89 85.1699 126.18 86.3499C132.47 87.5299 141.81 86.2799 141.92 87.4599C142.03 88.6399 134.29 93.7399 127.36 93.4799C120.43 93.2199 106.22 85.1099 104.46 89.3499C103.29 92.1699 104.38 93.0299 105.23 93.2899C105.66 93.4199 105.97 93.7899 106.06 94.2199C106.25 95.1299 107.05 96.5499 110.01 97.2899C114.57 98.4399 117.09 105.04 120.23 105.57C121.72 105.82 122.85 105.91 123.62 105.94C124.43 105.96 125.22 106.2 125.91 106.63C128.44 108.23 135.81 111.89 149.67 111.04C160.95 110.35 168.1 109.58 171.8 109.12C173.82 108.87 175.85 109.37 177.53 110.52L178.74 111.35C179.1 111.59 179.58 111.5 179.81 111.13V111.12Z" fill="white" stroke="#154475" stroke-linejoin="round"/>
<path d="M141.27 101.43C140 101.48 138.72 101.48 137.45 101.37C135.71 101.21 132.96 100.76 129.74 99.4899C128.54 99.0199 127.38 98.4699 126.14 97.8899C124.49 97.1199 122.78 96.3199 120.96 95.6999C120.81 95.6499 119.47 95.2099 117.75 95.3599C117.49 95.3799 117.28 95.4199 117.09 95.4599C115.29 93.8699 113.31 92.7399 111.21 92.1199C109.38 91.5799 107.93 91.5599 106.9 92.0699C106.49 92.2699 106.13 92.5399 105.8 92.8799C105.72 92.9599 105.72 93.0899 105.8 93.1699C105.88 93.2499 106.01 93.2499 106.09 93.1699C106.39 92.8699 106.71 92.6299 107.08 92.4499C108.01 91.9899 109.36 92.0199 111.09 92.5299C113.05 93.1099 114.9 94.1399 116.6 95.5999C116.06 95.7799 115.85 95.9999 115.75 96.0899C115.23 96.6499 115.02 97.4899 115.24 98.1799C115.53 99.0899 116.45 99.5099 116.81 99.6799C118.41 100.42 119.99 101.29 121.51 102.12C123.79 103.38 126.14 104.67 128.64 105.57C130.38 106.19 133.62 107.35 138.16 109.01C138.18 109.01 138.21 109.02 138.23 109.02C138.31 109.02 138.4 108.97 138.43 108.88C138.47 108.78 138.41 108.66 138.31 108.62C133.76 106.96 130.53 105.8 128.79 105.18C126.32 104.3 123.99 103.01 121.72 101.76C120.19 100.92 118.61 100.04 116.98 99.2999C116.68 99.1599 115.87 98.7899 115.64 98.0599C115.47 97.4999 115.64 96.8099 116.06 96.3699C116.17 96.2499 116.51 95.8999 117.79 95.7799C119.45 95.6299 120.77 96.0799 120.83 96.0999C122.63 96.7099 124.32 97.5099 125.97 98.2699C127.21 98.8499 128.38 99.3999 129.59 99.8799C132.18 100.9 134.89 101.56 137.42 101.79C138.71 101.91 140.02 101.93 141.31 101.85C141.42 101.85 141.51 101.74 141.51 101.63C141.51 101.52 141.4 101.43 141.29 101.44H141.3L141.27 101.43Z" fill="#154475"/>
<path d="M174.48 109.25C174.41 109.25 174.35 109.22 174.31 109.16C174.24 109.07 174.27 108.94 174.36 108.87C174.78 108.58 175.17 108.23 175.5 107.85C176.15 107.1 176.61 106.19 176.85 105.19C176.87 105.08 176.99 105.01 177.1 105.04C177.21 105.06 177.28 105.18 177.25 105.29C177.01 106.35 176.51 107.32 175.81 108.12C175.45 108.53 175.04 108.9 174.59 109.21C174.55 109.23 174.51 109.24 174.47 109.24L174.48 109.25Z" fill="#154475"/>
<path d="M155.19 94.3599C155.19 94.3599 155.1 94.3499 155.07 94.3199C154.98 94.2499 154.96 94.1199 155.03 94.0299C155.61 93.2899 156.27 92.6199 156.99 92.0399C160.73 89.0099 165.39 88.9099 167.84 89.1199C167.95 89.1299 168.04 89.2299 168.03 89.3399C168.02 89.4499 167.92 89.5399 167.8 89.5299C165.42 89.3299 160.88 89.4199 157.25 92.3499C156.55 92.9099 155.92 93.5599 155.36 94.2699C155.32 94.3199 155.26 94.3499 155.19 94.3499V94.3599Z" fill="#154475"/>
<path d="M124.34 105.91C124.34 105.91 124.28 105.91 124.25 105.89C122.54 105.12 120.86 104.25 119.24 103.3C117.03 102 114.89 100.52 112.9 98.9099C112.81 98.8399 112.8 98.7099 112.87 98.6199C112.94 98.5299 113.07 98.5199 113.16 98.5899C115.14 100.19 117.25 101.65 119.45 102.94C121.05 103.88 122.72 104.75 124.41 105.5C124.52 105.55 124.56 105.67 124.51 105.77C124.47 105.85 124.4 105.89 124.32 105.89H124.33L124.34 105.91Z" fill="#154475"/>
<path d="M141.9 87.8898C141.84 87.8898 141.78 87.8698 141.74 87.8098C141.67 87.7198 141.68 87.5898 141.78 87.5198C142.27 87.1298 143.26 86.6298 143.8 86.3198C145.04 85.6198 146.4 85.1498 147.84 84.9098C147.95 84.8898 148.06 84.9698 148.08 85.0798C148.1 85.1898 148.03 85.2998 147.91 85.3098C146.52 85.5398 145.2 86.0098 144.01 86.6698C143.49 86.9598 142.52 87.4498 142.05 87.8298C142.01 87.8598 141.97 87.8798 141.92 87.8798L141.9 87.8898Z" fill="#154475"/>
<path d="M131.67 87.7299C137.767 87.7299 142.71 82.7871 142.71 76.6899C142.71 70.5927 137.767 65.6499 131.67 65.6499C125.573 65.6499 120.63 70.5927 120.63 76.6899C120.63 82.7871 125.573 87.7299 131.67 87.7299Z" fill="#F7E06E"/>
<path d="M129.76 86.5202C135.52 86.5202 140.19 81.8505 140.19 76.0902C140.19 70.3298 135.52 65.6602 129.76 65.6602C124 65.6602 119.33 70.3298 119.33 76.0902C119.33 81.8505 124 86.5202 129.76 86.5202Z" fill="#F8EB76" stroke="#154475" stroke-width="1.3"/>
<path fill-rule="evenodd" clip-rule="evenodd" d="M129.03 81.0202V82.1902C129.03 82.3702 129.18 82.5202 129.36 82.5202H129.69C129.87 82.5202 130.02 82.3702 130.02 82.1902V81.0202C130.54 81.0002 131.21 80.9402 131.8 80.6902C132.21 80.5202 132.61 80.2402 132.9 79.8202C133.19 79.3902 133.35 78.8502 133.35 78.1802C133.35 77.5102 133.19 76.9702 132.9 76.5502C132.61 76.1202 132.21 75.8502 131.8 75.6802C131.21 75.4302 130.54 75.3702 130.02 75.3502V71.6702H132.52C132.7 71.6702 132.85 71.5202 132.85 71.3402V71.0102C132.85 70.8302 132.7 70.6802 132.52 70.6802H130.02V69.5102C130.02 69.3302 129.87 69.1802 129.69 69.1802H129.36C129.18 69.1802 129.03 69.3302 129.03 69.5102V70.6902C128.48 70.7102 127.85 70.7802 127.29 71.0002C126.87 71.1702 126.46 71.4302 126.16 71.8402C125.86 72.2602 125.7 72.7902 125.7 73.4402C125.7 74.0902 125.86 74.6202 126.15 75.0502C126.44 75.4702 126.83 75.7602 127.24 75.9502C127.84 76.2302 128.5 76.3202 129.04 76.3502V80.0402H126.54C126.36 80.0402 126.21 80.1902 126.21 80.3702V80.7002C126.21 80.8802 126.36 81.0302 126.54 81.0302H129.04L129.03 81.0202ZM130.03 80.0102C130.49 79.9902 130.99 79.9402 131.42 79.7602C131.7 79.6402 131.93 79.4802 132.09 79.2402C132.25 79.0102 132.37 78.6802 132.37 78.1702C132.37 77.6602 132.25 77.3302 132.09 77.1002C131.93 76.8702 131.7 76.7002 131.42 76.5802C130.99 76.4002 130.49 76.3502 130.03 76.3302V79.9902V80.0102ZM129.03 75.3302V71.6802C128.55 71.7002 128.06 71.7602 127.65 71.9202C127.36 72.0402 127.12 72.2002 126.97 72.4202C126.81 72.6402 126.7 72.9502 126.7 73.4302C126.7 73.9102 126.82 74.2402 126.98 74.4802C127.14 74.7202 127.38 74.9002 127.66 75.0302C128.08 75.2302 128.58 75.3002 129.04 75.3302H129.03Z" fill="#154475"/>
</svg>
