<svg width="208" height="160" viewBox="0 0 208 160" fill="none" xmlns="http://www.w3.org/2000/svg">
<path opacity="0.3" d="M176.006 79.6675C177.559 78.0966 177.559 75.5498 176.006 73.979L106.085 3.2693C104.377 1.54202 101.554 1.74046 100.098 3.69007L75.2294 37.0054C74.0339 38.6068 74.1884 40.8543 75.5914 42.2731L106.866 73.9004C108.419 75.4712 108.419 78.0181 106.866 79.5889L71.645 115.207C69.9377 116.934 70.1329 119.788 72.0591 121.26L105.073 146.496C106.657 147.706 108.88 147.551 110.284 146.131L176.006 79.6675Z" fill="#1090F9"/>
<path opacity="0.3" d="M105.325 9.56081L175.245 80.2705C176.41 81.4486 176.41 83.3587 175.245 84.5369L109.523 151.001C108.471 152.065 106.803 152.182 105.615 151.274L72.6011 126.038C71.1565 124.934 71.01 122.794 72.2905 121.499L107.511 85.8804C109.453 83.9169 109.453 80.7333 107.511 78.7698L76.2369 47.1425C75.1846 46.0784 75.0688 44.3928 75.9654 43.1917L100.834 9.87639C101.926 8.41418 104.044 8.26535 105.325 9.56081Z" stroke="#05BDFB" stroke-width="2"/>
<path opacity="0.3" d="M137.83 11.1703C138.92 11.1703 139.804 12.0538 139.804 13.1436L139.804 14.3011C139.804 14.8876 139.285 15.3388 138.704 15.2578V15.2578C138.227 15.1913 137.872 14.7831 137.872 14.3011L137.872 14.1766C137.872 13.5833 137.391 13.1023 136.797 13.1023L136.673 13.1023C136.086 13.1023 135.635 12.5839 135.716 12.003V12.003C135.783 11.5256 136.191 11.1703 136.673 11.1703L137.83 11.1703Z" fill="#1090F9"/>
<path opacity="0.3" d="M171.086 40.0244C171.638 40.981 171.311 42.2042 170.354 42.7565L168.29 43.948C167.579 44.3586 166.669 44.0459 166.361 43.2849V43.2849C166.107 42.6595 166.354 41.943 166.938 41.6056L167.089 41.5185C167.808 41.1031 168.055 40.1833 167.639 39.4639L167.552 39.3131C167.142 38.6019 167.454 37.692 168.215 37.3835V37.3835C168.841 37.13 169.557 37.3762 169.895 37.9606L171.086 40.0244Z" fill="#1090F9"/>
<path opacity="0.3" d="M106.627 132.473C107.179 133.429 106.852 134.652 105.895 135.205L103.831 136.396C103.12 136.807 102.21 136.494 101.902 135.733V135.733C101.648 135.108 101.895 134.391 102.479 134.054L102.63 133.967C103.349 133.551 103.596 132.632 103.18 131.912L103.093 131.761C102.683 131.05 102.995 130.14 103.756 129.832V129.832C104.382 129.578 105.098 129.824 105.436 130.409L106.627 132.473Z" fill="#1090F9"/>
<path opacity="0.3" d="M170.903 105.167C170.122 104.386 170.122 103.12 170.903 102.339L174.945 98.2972C175.708 97.5343 176.975 97.647 177.591 98.5326V98.5326C178.07 99.221 177.987 100.154 177.394 100.747L176.475 101.665C175.711 102.43 175.711 103.67 176.475 104.434V104.434C177.299 105.258 177.226 106.614 176.318 107.344L175.923 107.663C175.127 108.303 173.977 108.241 173.255 107.519L170.903 105.167Z" fill="#1090F9"/>
<path d="M67.1162 37.6189C67.1162 35.1336 69.1309 33.1189 71.6162 33.1189H131.308C133.793 33.1189 135.808 35.1336 135.808 37.6189V125.294C135.808 128.574 132.411 130.752 129.43 129.383L121.18 125.595C119.723 124.926 118.047 124.926 116.59 125.595L103.34 131.679C102.148 132.226 100.776 132.226 99.5844 131.679L86.3342 125.595C84.8773 124.926 83.2011 124.926 81.7442 125.595L73.494 129.383C70.513 130.752 67.1162 128.574 67.1162 125.294V37.6189Z" fill="white" stroke="#054375"/>
<path opacity="0.14" d="M60.6162 28.6189C60.6162 28.0666 61.0639 27.6189 61.6162 27.6189H129.308C129.86 27.6189 130.308 28.0666 130.308 28.6189V126.532C130.308 127.261 129.553 127.745 128.891 127.441L113.302 120.283C113.038 120.161 112.733 120.161 112.468 120.283L95.8794 127.9C95.6145 128.021 95.3098 128.021 95.0449 127.9L78.4565 120.283C78.1916 120.161 77.8868 120.161 77.6219 120.283L62.0335 127.441C61.371 127.745 60.6162 127.261 60.6162 126.532V28.6189Z" fill="#054375"/>
<path d="M59.1162 27.6189C59.1162 25.1336 61.1309 23.1189 63.6162 23.1189H123.308C125.793 23.1189 127.808 25.1336 127.808 27.6189V115.294C127.808 118.574 124.411 120.752 121.43 119.383L113.18 115.595C111.723 114.926 110.047 114.926 108.59 115.595L95.3399 121.679C94.1479 122.226 92.7764 122.226 91.5844 121.679L78.3342 115.595C76.8773 114.926 75.2011 114.926 73.7442 115.595L65.494 119.383C62.513 120.752 59.1162 118.574 59.1162 115.294V27.6189Z" fill="white" stroke="#054375"/>
<path d="M69.2402 127.925C69.1995 127.925 69.1531 127.908 69.1182 127.873C69.0543 127.809 69.0543 127.698 69.1182 127.635L72.4518 124.301C72.5157 124.237 72.6261 124.237 72.69 124.301C72.7538 124.365 72.7538 124.475 72.69 124.539L69.3564 127.873C69.3215 127.908 69.2809 127.925 69.2402 127.925Z" fill="#054375"/>
<path d="M101.763 127.925C101.722 127.925 101.676 127.908 101.641 127.873C101.577 127.809 101.577 127.698 101.641 127.635L104.974 124.301C105.038 124.237 105.149 124.237 105.212 124.301C105.276 124.365 105.276 124.475 105.212 124.539L101.879 127.873C101.844 127.908 101.803 127.925 101.763 127.925Z" fill="#054375"/>
<path d="M75.1699 125.925C75.1292 125.925 75.0828 125.908 75.0479 125.873C74.984 125.809 74.984 125.698 75.0479 125.635L78.3815 122.301C78.4454 122.237 78.5558 122.237 78.6196 122.301C78.6835 122.365 78.6835 122.475 78.6196 122.539L75.286 125.873C75.2512 125.908 75.2105 125.925 75.1699 125.925Z" fill="#054375"/>
<path d="M81.1699 124.672C81.1292 124.672 81.0828 124.655 81.0479 124.62C80.984 124.556 80.984 124.446 81.0479 124.382L84.3815 121.048C84.4454 120.984 84.5558 120.984 84.6196 121.048C84.6835 121.112 84.6835 121.222 84.6196 121.286L81.286 124.62C81.2512 124.655 81.2105 124.672 81.1699 124.672Z" fill="#054375"/>
<path d="M86.1699 124.672C86.1292 124.672 86.0828 124.655 86.0479 124.62C85.984 124.556 85.984 124.446 86.0479 124.382L89.3815 121.048C89.4454 120.984 89.5558 120.984 89.6196 121.048C89.6835 121.112 89.6835 121.222 89.6196 121.286L86.286 124.62C86.2512 124.655 86.2105 124.672 86.1699 124.672Z" fill="#054375"/>
<path d="M105.828 127.925C105.787 127.925 105.741 127.908 105.706 127.873C105.642 127.809 105.642 127.698 105.706 127.635L109.04 124.301C109.104 124.237 109.214 124.237 109.278 124.301C109.342 124.365 109.342 124.475 109.278 124.539L105.944 127.873C105.909 127.908 105.869 127.925 105.828 127.925Z" fill="#054375"/>
<path d="M89.5664 125.672C89.5257 125.672 89.4792 125.655 89.4444 125.62C89.3805 125.556 89.3805 125.446 89.4444 125.382L92.778 122.048C92.8419 121.984 92.9522 121.984 93.0161 122.048C93.08 122.112 93.08 122.222 93.0161 122.286L89.6825 125.62C89.6477 125.655 89.607 125.672 89.5664 125.672Z" fill="#054375"/>
<path d="M109.894 126.925C109.853 126.925 109.806 126.908 109.772 126.873C109.708 126.809 109.708 126.699 109.772 126.635L113.105 123.301C113.169 123.237 113.279 123.237 113.343 123.301C113.407 123.365 113.407 123.475 113.343 123.539L110.01 126.873C109.975 126.908 109.934 126.925 109.894 126.925Z" fill="#054375"/>
<path d="M116.17 124.672C116.129 124.672 116.083 124.655 116.048 124.62C115.984 124.556 115.984 124.446 116.048 124.382L119.382 121.048C119.445 120.984 119.556 120.984 119.62 121.048C119.684 121.112 119.684 121.222 119.62 121.286L116.286 124.62C116.251 124.655 116.211 124.672 116.17 124.672Z" fill="#054375"/>
<path d="M121.17 124.672C121.129 124.672 121.083 124.655 121.048 124.62C120.984 124.556 120.984 124.446 121.048 124.382L124.382 121.048C124.445 120.984 124.556 120.984 124.62 121.048C124.684 121.112 124.684 121.222 124.62 121.286L121.286 124.62C121.251 124.655 121.211 124.672 121.17 124.672Z" fill="#054375"/>
<path d="M93.6318 127.925C93.5911 127.925 93.5447 127.908 93.5098 127.873C93.4459 127.809 93.4459 127.698 93.5098 127.635L96.8434 124.301C96.9073 124.237 97.0177 124.237 97.0816 124.301C97.1454 124.365 97.1454 124.475 97.0816 124.539L93.748 127.873C93.7131 127.908 93.6725 127.925 93.6318 127.925Z" fill="#054375"/>
<path d="M126.156 127.925C126.115 127.925 126.069 127.907 126.034 127.873C125.97 127.809 125.97 127.698 126.034 127.634L133.707 119.961C133.771 119.897 133.881 119.897 133.945 119.961C134.009 120.024 134.009 120.135 133.945 120.199L126.272 127.873C126.237 127.907 126.196 127.925 126.156 127.925Z" fill="#054375"/>
<path d="M97.6972 127.925C97.6566 127.925 97.6101 127.908 97.5753 127.873C97.5114 127.809 97.5114 127.698 97.5753 127.635L100.909 124.301C100.973 124.237 101.083 124.237 101.147 124.301C101.211 124.365 101.211 124.475 101.147 124.539L97.8134 127.873C97.7785 127.908 97.7379 127.925 97.6972 127.925Z" fill="#054375"/>
<path d="M130.221 127.925C130.18 127.925 130.134 127.908 130.099 127.873C130.035 127.809 130.035 127.698 130.099 127.635L133.432 124.301C133.496 124.237 133.607 124.237 133.67 124.301C133.734 124.365 133.734 124.475 133.67 124.539L130.337 127.873C130.302 127.908 130.261 127.925 130.221 127.925Z" fill="#054375"/>
<path d="M130.221 120.149C130.18 120.149 130.134 120.132 130.099 120.097C130.035 120.033 130.035 119.923 130.099 119.859L133.432 116.525C133.496 116.461 133.607 116.461 133.67 116.525C133.734 116.589 133.734 116.699 133.67 116.763L130.337 120.097C130.302 120.132 130.261 120.149 130.221 120.149Z" fill="#054375"/>
<path d="M130.221 88.788C130.18 88.788 130.134 88.7706 130.099 88.7357C130.035 88.6718 130.035 88.5615 130.099 88.4976L133.432 85.164C133.496 85.1001 133.607 85.1001 133.67 85.164C133.734 85.2279 133.734 85.3382 133.67 85.4021L130.337 88.7357C130.302 88.7706 130.261 88.788 130.221 88.788Z" fill="#054375"/>
<path d="M130.221 62.8786C130.18 62.8786 130.134 62.8611 130.099 62.8263C130.035 62.7624 130.035 62.6521 130.099 62.5882L133.432 59.2546C133.496 59.1907 133.607 59.1907 133.67 59.2546C133.734 59.3185 133.734 59.4288 133.67 59.4927L130.337 62.8263C130.302 62.8611 130.261 62.8786 130.221 62.8786Z" fill="#054375"/>
<path d="M130.221 103.907C130.18 103.907 130.134 103.889 130.099 103.854C130.035 103.79 130.035 103.68 130.099 103.616L133.432 100.283C133.496 100.219 133.607 100.219 133.67 100.283C133.734 100.346 133.734 100.457 133.67 100.521L130.337 103.854C130.302 103.889 130.261 103.907 130.221 103.907Z" fill="#054375"/>
<path d="M130.221 72.5454C130.18 72.5454 130.134 72.528 130.099 72.4932C130.035 72.4293 130.035 72.3189 130.099 72.255L133.432 68.9214C133.496 68.8576 133.607 68.8576 133.67 68.9214C133.734 68.9853 133.734 69.0957 133.67 69.1596L130.337 72.4932C130.302 72.528 130.261 72.5454 130.221 72.5454Z" fill="#054375"/>
<path d="M130.221 47.5724C130.18 47.5724 130.134 47.555 130.099 47.5201C130.035 47.4562 130.035 47.3459 130.099 47.282L133.432 43.9484C133.496 43.8845 133.607 43.8845 133.67 43.9484C133.734 44.0123 133.734 44.1227 133.67 44.1865L130.337 47.5201C130.302 47.555 130.261 47.5724 130.221 47.5724Z" fill="#054375"/>
<path d="M130.221 114.734C130.18 114.734 130.134 114.717 130.099 114.682C130.035 114.618 130.035 114.508 130.099 114.444L133.432 111.11C133.496 111.047 133.607 111.047 133.67 111.11C133.734 111.174 133.734 111.285 133.67 111.349L130.337 114.682C130.302 114.717 130.261 114.734 130.221 114.734Z" fill="#054375"/>
<path d="M130.221 83.3733C130.18 83.3733 130.134 83.3559 130.099 83.321C130.035 83.2572 130.035 83.1468 130.099 83.0829L133.432 79.7493C133.496 79.6854 133.607 79.6854 133.67 79.7493C133.734 79.8132 133.734 79.9236 133.67 79.9874L130.337 83.321C130.302 83.3559 130.261 83.3733 130.221 83.3733Z" fill="#054375"/>
<path d="M130.221 58.4004C130.18 58.4004 130.134 58.383 130.099 58.3481C130.035 58.2843 130.035 58.1739 130.099 58.11L133.432 54.7764C133.496 54.7125 133.607 54.7125 133.67 54.7764C133.734 54.8403 133.734 54.9507 133.67 55.0145L130.337 58.3481C130.302 58.383 130.261 58.4004 130.221 58.4004Z" fill="#054375"/>
<path d="M130.221 98.4929C130.18 98.4929 130.134 98.4755 130.099 98.4407C130.035 98.3768 130.035 98.2664 130.099 98.2025L133.432 94.869C133.496 94.8051 133.607 94.8051 133.67 94.869C133.734 94.9328 133.734 95.0432 133.67 95.1071L130.337 98.4407C130.302 98.4755 130.261 98.4929 130.221 98.4929Z" fill="#054375"/>
<path d="M130.221 67.1321C130.18 67.1321 130.134 67.1147 130.099 67.0798C130.035 67.0159 130.035 66.9056 130.099 66.8417L133.432 63.5081C133.496 63.4442 133.607 63.4442 133.67 63.5081C133.734 63.572 133.734 63.6824 133.67 63.7462L130.337 67.0798C130.302 67.1147 130.261 67.1321 130.221 67.1321Z" fill="#054375"/>
<path d="M130.221 42.1589C130.18 42.1589 130.134 42.1415 130.099 42.1067C130.035 42.0428 130.035 41.9324 130.099 41.8686L133.432 38.535C133.496 38.4711 133.607 38.4711 133.67 38.535C133.734 38.5989 133.734 38.7092 133.67 38.7731L130.337 42.1067C130.302 42.1415 130.261 42.1589 130.221 42.1589Z" fill="#054375"/>
<path d="M130.221 109.321C130.18 109.321 130.134 109.304 130.099 109.269C130.035 109.205 130.035 109.094 130.099 109.031L133.432 105.697C133.496 105.633 133.607 105.633 133.67 105.697C133.734 105.761 133.734 105.871 133.67 105.935L130.337 109.269C130.302 109.304 130.261 109.321 130.221 109.321Z" fill="#054375"/>
<path d="M130.221 77.9599C130.18 77.9599 130.134 77.9424 130.099 77.9076C130.035 77.8437 130.035 77.7334 130.099 77.6695L133.432 74.3359C133.496 74.272 133.607 74.272 133.67 74.3359C133.734 74.3998 133.734 74.5101 133.67 74.574L130.337 77.9076C130.302 77.9424 130.261 77.9599 130.221 77.9599Z" fill="#054375"/>
<path d="M130.221 52.9871C130.18 52.9871 130.134 52.9697 130.099 52.9348C130.035 52.8709 130.035 52.7606 130.099 52.6967L133.432 49.3631C133.496 49.2992 133.607 49.2992 133.67 49.3631C133.734 49.427 133.734 49.5373 133.67 49.6012L130.337 52.9348C130.302 52.9697 130.261 52.9871 130.221 52.9871Z" fill="#054375"/>
<path d="M130.221 93.0785C130.18 93.0785 130.134 93.0611 130.099 93.0262C130.035 92.9624 130.035 92.852 130.099 92.7881L133.432 89.4545C133.496 89.3906 133.607 89.3906 133.67 89.4545C133.734 89.5184 133.734 89.6288 133.67 89.6926L130.337 93.0262C130.302 93.0611 130.261 93.0785 130.221 93.0785Z" fill="#054375"/>
<path d="M130.221 36.7445C130.18 36.7445 130.134 36.7271 130.099 36.6923C130.035 36.6284 130.035 36.518 130.099 36.4541L133.432 33.1205C133.496 33.0567 133.607 33.0567 133.67 33.1205C133.734 33.1844 133.734 33.2948 133.67 33.3587L130.337 36.6923C130.302 36.7271 130.261 36.7445 130.221 36.7445Z" fill="#054375"/>
<path d="M117.555 38.4269L87.939 38.4269C87.3867 38.4269 86.939 38.8746 86.939 39.4269L86.939 41.3789C86.939 41.9312 87.3867 42.3789 87.939 42.3789L117.555 42.3789C118.108 42.3789 118.555 41.9312 118.555 41.3789L118.555 39.4269C118.555 38.8746 118.108 38.4269 117.555 38.4269Z" fill="#7CDDFD" stroke="#054375"/>
<path d="M117.555 58.1873L66.8613 58.1873C66.309 58.1873 65.8613 57.7395 65.8613 57.1873L65.8613 55.2352C65.8613 54.6829 66.309 54.2352 66.8613 54.2352L117.555 54.2352C118.107 54.2352 118.555 54.6829 118.555 55.2352L118.555 57.1873C118.555 57.7395 118.107 58.1873 117.555 58.1873Z" fill="#7CDDFD" stroke="#054375"/>
<path d="M117.555 76.9524L66.8613 76.9524C66.309 76.9524 65.8613 76.5047 65.8613 75.9524L65.8613 74.0004C65.8613 73.4481 66.309 73.0004 66.8613 73.0004L117.555 73.0004C118.107 73.0004 118.555 73.4481 118.555 74.0004L118.555 75.9524C118.555 76.5047 118.107 76.9524 117.555 76.9524Z" fill="#7CDDFD" stroke="#054375"/>
<path d="M117.555 95.717L66.8613 95.717C66.309 95.717 65.8613 95.2693 65.8613 94.717L65.8613 92.765C65.8613 92.2127 66.309 91.765 66.8613 91.765L117.555 91.765C118.107 91.765 118.555 92.2127 118.555 92.765L118.555 94.717C118.555 95.2693 118.107 95.717 117.555 95.717Z" fill="#7CDDFD" stroke="#054375"/>
<path d="M112.945 31.8402L87.939 31.8402C87.3867 31.8402 86.939 32.2879 86.939 32.8402L86.939 34.7922C86.939 35.3445 87.3867 35.7922 87.939 35.7922L112.945 35.7923C113.497 35.7923 113.945 35.3445 113.945 34.7923L113.945 32.8402C113.945 32.2879 113.497 31.8402 112.945 31.8402Z" fill="#E1F7FF" stroke="#054375"/>
<path d="M109.651 64.7742L66.8613 64.7742C66.309 64.7742 65.8613 64.3265 65.8613 63.7742L65.8613 61.8221C65.8613 61.2698 66.309 60.8221 66.8613 60.8221L109.651 60.8221C110.203 60.8221 110.651 61.2698 110.651 61.8221L110.651 63.7742C110.651 64.3265 110.203 64.7742 109.651 64.7742Z" fill="#E1F7FF" stroke="#054375"/>
<path d="M109.651 83.5393L66.8613 83.5393C66.309 83.5393 65.8613 83.0916 65.8613 82.5393L65.8613 80.5873C65.8613 80.035 66.309 79.5873 66.8613 79.5873L109.651 79.5873C110.203 79.5873 110.651 80.035 110.651 80.5873L110.651 82.5393C110.651 83.0916 110.203 83.5393 109.651 83.5393Z" fill="#E1F7FF" stroke="#054375"/>
<path d="M109.651 102.304L66.8613 102.304C66.309 102.304 65.8613 101.856 65.8613 101.304L65.8613 99.3519C65.8613 98.7996 66.309 98.3519 66.8613 98.3519L109.651 98.3519C110.203 98.3519 110.651 98.7996 110.651 99.3519L110.651 101.304C110.651 101.856 110.203 102.304 109.651 102.304Z" fill="#E1F7FF" stroke="#054375"/>
<circle cx="75.0833" cy="37.7682" r="7.90408" fill="#F7E06E"/>
<circle cx="73.7592" cy="37.1029" r="7.39736" fill="#F9EC76" stroke="#054375"/>
<path fill-rule="evenodd" clip-rule="evenodd" d="M73.2339 40.6247V41.4578C73.2339 41.5893 73.3405 41.6958 73.472 41.6958H73.71C73.8415 41.6958 73.948 41.5893 73.948 41.4578V40.621C74.3219 40.6099 74.7953 40.5656 75.217 40.3885C75.5123 40.2645 75.7967 40.0702 76.0052 39.767C76.2145 39.4627 76.3284 39.0763 76.3284 38.6013C76.3284 38.1263 76.2145 37.7399 76.0052 37.4356C75.7967 37.1324 75.5123 36.9381 75.217 36.8141C74.7953 36.637 74.3219 36.5927 73.948 36.5816V33.9595L75.7334 33.9595C75.8648 33.9595 75.9714 33.8529 75.9714 33.7215L75.9714 33.4834C75.9714 33.352 75.8648 33.2454 75.7334 33.2454L73.948 33.2454V32.4122C73.948 32.2808 73.8415 32.1742 73.71 32.1742H73.472C73.3405 32.1742 73.2339 32.2808 73.2339 32.4122V33.2518C72.8431 33.2665 72.3905 33.3144 71.9905 33.4711C71.6879 33.5896 71.3971 33.7765 71.1836 34.0721C70.9688 34.3697 70.8535 34.7481 70.8535 35.2113C70.8535 35.6748 70.9688 36.0559 71.1757 36.3601C71.3812 36.6623 71.6609 36.865 71.9531 37.0004C72.3776 37.1972 72.8526 37.2625 73.2339 37.2832V39.9105H71.4486C71.3171 39.9105 71.2106 40.0171 71.2106 40.1486V40.3866C71.2106 40.5181 71.3171 40.6247 71.4486 40.6247H73.2339ZM73.948 39.9061C74.2781 39.8952 74.6364 39.8578 74.9405 39.7301C75.1411 39.6458 75.3031 39.5277 75.4168 39.3623C75.5299 39.1979 75.6143 38.9594 75.6143 38.6013C75.6143 38.2432 75.5299 38.0047 75.4168 37.8403C75.3031 37.6749 75.1411 37.5568 74.9405 37.4725C74.6364 37.3448 74.2781 37.3074 73.948 37.2965V39.9061ZM73.2339 36.5677V33.9669C72.8921 33.9808 72.5447 34.0209 72.251 34.136C72.0401 34.2186 71.8759 34.3333 71.7626 34.4902C71.6508 34.6451 71.5676 34.87 71.5676 35.2113C71.5676 35.5521 71.6507 35.7887 71.7662 35.9585C71.883 36.1304 72.0496 36.2581 72.2534 36.3525C72.5551 36.4923 72.9119 36.5476 73.2339 36.5677Z" fill="#054375"/>
</svg>
