<svg width="208" height="160" viewBox="0 0 208 160" fill="none" xmlns="http://www.w3.org/2000/svg">
<path opacity="0.3" d="M176.686 80.5173C178.24 78.9465 178.24 76.3997 176.686 74.8288L105.925 3.26894C104.217 1.54166 101.393 1.74011 99.938 3.68971L74.7401 37.4455C73.5447 39.0469 73.6991 41.2944 75.1021 42.7132L106.781 74.7494C108.334 76.3202 108.334 78.867 106.781 80.4379L71.1034 116.518C69.3961 118.244 69.5914 121.099 71.5175 122.571L104.968 148.14C106.551 149.351 108.775 149.195 110.179 147.775L176.686 80.5173Z" fill="#1090F9"/>
<path opacity="0.3" d="M175.925 81.1805C177.09 82.3586 177.09 84.2688 175.925 85.4469L109.417 152.705C108.365 153.77 106.697 153.886 105.509 152.979L72.0588 127.409C70.6142 126.305 70.4677 124.164 71.7482 122.87L107.426 86.7895C109.367 84.826 109.367 81.6425 107.426 79.6789L75.7469 47.6428C74.6947 46.5786 74.5788 44.893 75.4754 43.692L100.673 9.93621C101.765 8.474 103.883 8.32517 105.164 9.62063L175.925 81.1805Z" stroke="#05BDFB" stroke-width="2"/>
<path opacity="0.3" d="M138.057 11.2969C139.159 11.2969 140.052 12.1901 140.052 13.2921L140.052 14.4623C140.052 15.0553 139.528 15.5115 138.941 15.4297C138.458 15.3624 138.099 14.9496 138.099 14.4623L138.099 14.3365C138.099 13.7366 137.613 13.2503 137.013 13.2503L136.887 13.2503C136.294 13.2503 135.838 12.7261 135.92 12.1388C135.987 11.6561 136.4 11.2969 136.887 11.2969L138.057 11.2969Z" fill="#1090F9"/>
<path opacity="0.3" d="M171.692 40.4899C172.244 41.4465 171.916 42.6697 170.96 43.222L168.854 44.4378C168.135 44.8529 167.215 44.5367 166.903 43.7673C166.647 43.135 166.896 42.4105 167.487 42.0694L167.639 41.9813C168.366 41.5614 168.616 40.6314 168.196 39.904L168.108 39.7515C167.693 39.0325 168.009 38.1125 168.778 37.8006C169.41 37.5442 170.135 37.7932 170.476 38.3841L171.692 40.4899Z" fill="#1090F9"/>
<path opacity="0.3" d="M106.519 133.959C107.071 134.915 106.744 136.138 105.787 136.691L103.681 137.907C102.962 138.322 102.042 138.005 101.73 137.236C101.474 136.604 101.723 135.879 102.314 135.538L102.466 135.45C103.194 135.03 103.443 134.1 103.023 133.373L102.935 133.22C102.52 132.501 102.836 131.581 103.605 131.269C104.238 131.013 104.962 131.262 105.303 131.853L106.519 133.959Z" fill="#1090F9"/>
<path opacity="0.3" d="M171.48 106.314C170.699 105.533 170.699 104.267 171.48 103.486L175.583 99.3837C176.354 98.6123 177.635 98.7263 178.258 99.6218C178.742 100.318 178.659 101.261 178.059 101.86L177.13 102.789C176.357 103.562 176.357 104.816 177.13 105.589C177.963 106.422 177.889 107.793 176.971 108.531L176.555 108.865C175.76 109.506 174.609 109.444 173.887 108.721L171.48 106.314Z" fill="#1090F9"/>
<path d="M64.6454 117.526V43.1293C64.6454 37.3349 69.3396 32.6406 75.1341 32.6406H108.984C114.778 32.6406 119.473 37.3349 119.473 43.1293V117.526C119.473 123.32 114.778 128.014 108.984 128.014H75.1341C69.3396 128.014 64.6454 123.32 64.6454 117.526Z" fill="#7CDDFD"/>
<path d="M109.057 128.65H75.0608C68.9656 128.65 64.0073 123.692 64.0073 117.596V43.0534C64.0073 36.9583 68.9656 32 75.0608 32H109.057C115.152 32 120.111 36.9583 120.111 43.0534V117.596C120.111 123.692 115.152 128.65 109.057 128.65ZM75.0608 33.2689C69.6697 33.2689 65.2836 37.6551 65.2836 43.0461V117.589C65.2836 122.98 69.6697 127.366 75.0608 127.366H109.057C114.448 127.366 118.834 122.98 118.834 117.589V43.0534C118.834 37.6624 114.448 33.2762 109.057 33.2762H75.0608V33.2689Z" fill="#054375"/>
<path d="M119.48 42.7734H64.6454V114.698H119.48V42.7734Z" fill="white"/>
<path d="M92.6438 86.3437C89.3489 86.3437 86.4658 84.6413 84.7634 82.0877H83.418C80.5899 82.0877 78.2834 79.7813 78.2834 76.9531C78.2834 78.1338 77.3224 79.0948 76.1417 79.0948C74.961 79.0948 74 78.1338 74 76.9531C74 82.1426 78.2285 86.3437 83.3906 86.3437H92.836H92.8086H92.6438Z" fill="#F9A61C"/>
<path d="M92.8909 67.5625C96.1859 67.5625 99.0689 69.2649 100.771 71.8185H102.117C104.945 71.8185 107.251 74.1249 107.251 76.9531C107.251 75.7724 108.212 74.8114 109.393 74.8114C110.574 74.8114 111.535 75.7724 111.535 76.9531C111.535 71.7635 107.306 67.5625 102.144 67.5625H92.6987H92.7262H92.8909Z" fill="#A5CD39"/>
<path d="M109.366 74.8125C108.185 74.8125 107.224 75.7735 107.224 76.9542C107.224 79.7824 104.917 82.0888 102.089 82.0888H100.744C99.0689 84.6698 96.1583 86.3722 92.8634 86.3722H102.089C107.279 86.3722 111.48 82.1712 111.48 76.9817C111.48 75.7735 110.546 74.8125 109.366 74.8125Z" fill="#213871"/>
<path d="M76.1692 79.0988C77.3498 79.0988 78.3109 78.1378 78.3109 76.9571C78.3109 74.1289 80.6173 71.8225 83.4455 71.8225H84.7909C86.4658 69.2414 89.3763 67.5391 92.6713 67.5391H83.4729C78.2834 67.5391 74.0824 71.7401 74.0824 76.9296C74.0549 78.1378 75.0159 79.0988 76.1692 79.0988Z" fill="#09ABBC"/>
<path d="M90.7767 84.2021C90.7767 83.0215 91.7377 82.0604 92.9184 82.0604H92.6439C89.8157 82.0604 87.5093 79.754 87.5093 76.9258C87.5093 74.0977 89.8157 71.7912 92.6439 71.7912C93.8245 71.7912 94.7856 70.8302 94.7856 69.6495C94.7856 68.4688 93.8245 67.5078 92.6439 67.5078C87.4543 67.5078 83.2533 71.7089 83.2533 76.8984C83.2533 82.0879 87.4543 86.2889 92.6439 86.2889H92.9184C91.7377 86.3438 90.7767 85.3828 90.7767 84.2021Z" fill="#213871"/>
<path d="M94.7581 69.6733C94.7581 70.854 93.7971 71.815 92.6164 71.815H92.891C95.7191 71.815 98.0256 74.1215 98.0256 76.9496C98.0256 79.7778 95.7191 82.0842 92.891 82.0842C91.7103 82.0842 90.7493 83.0452 90.7493 84.2259C90.7493 85.4066 91.7103 86.3676 92.891 86.3676C98.0805 86.3676 102.282 82.1666 102.282 76.9771C102.282 71.7876 98.0805 67.5865 92.891 67.5865H92.6164C93.7971 67.5591 94.7581 68.5201 94.7581 69.6733Z" fill="#09ABBC"/>
<path d="M119.473 115.334H64.6381C64.2861 115.334 64 115.047 64 114.695V42.7709C64 42.4189 64.2861 42.1328 64.6381 42.1328H119.473C119.825 42.1328 120.111 42.4189 120.111 42.7709V114.695C120.111 115.047 119.832 115.334 119.473 115.334ZM65.2836 114.057H118.842V43.4091H65.2836V114.057Z" fill="#054375"/>
<path d="M97.5566 120.511H87.6767C87.3246 120.511 87.0386 120.225 87.0386 119.872C87.0386 119.52 87.3246 119.234 87.6767 119.234H97.5566C97.9086 119.234 98.1947 119.52 98.1947 119.872C98.1947 120.225 97.9086 120.511 97.5566 120.511Z" fill="#054375"/>
<g opacity="0.1294">
<path d="M115.805 42.9069C113.935 42.8556 112.065 42.7676 110.194 42.7896C105.163 42.7382 100.124 42.7456 95.0847 42.8116C91.1239 42.8409 87.1632 43.0023 83.2024 42.7382C78.3468 42.5915 73.4912 42.2981 68.6283 42.4962C67.9461 42.5108 67.264 42.5035 66.5819 42.4742C66.1711 42.4448 65.7311 42.3862 65.357 42.5989C63.5013 43.3103 64.0807 46.1856 66.0758 46.1635C68.4449 46.3322 70.8287 46.1489 73.1978 46.2002C76.0291 46.1856 78.8529 46.4203 81.6841 46.4789C92.2462 46.545 102.815 46.589 113.378 46.3983C114.778 46.4203 116.187 46.3909 117.588 46.3616C118.747 46.4936 119.927 45.9435 119.942 44.6379C119.795 42.3862 117.375 42.9876 115.805 42.9069Z" fill="#054375"/>
</g>
<path d="M128.674 54.2188C115.398 54.2188 104.638 65.3969 104.638 79.1862C104.638 84.8926 106.487 90.1443 109.582 94.3471L106.641 106.427L116.726 100.846C120.247 102.943 124.325 104.154 128.674 104.154C141.95 104.154 152.71 92.9755 152.71 79.1862C152.71 65.3969 141.95 54.2188 128.674 54.2188Z" fill="white"/>
<path d="M106.64 107.063C106.501 107.063 106.369 107.019 106.252 106.931C106.054 106.777 105.958 106.52 106.017 106.27L108.892 94.4761C105.694 90.024 104 84.743 104 79.1759C104 65.0565 115.068 53.5703 128.674 53.5703C142.28 53.5703 153.348 65.0565 153.348 79.1759C153.348 93.2953 142.28 104.781 128.674 104.781C124.493 104.781 120.364 103.674 116.711 101.569L106.941 106.975C106.853 107.041 106.743 107.063 106.64 107.063ZM128.674 54.8539C115.772 54.8539 105.276 65.768 105.276 79.1832C105.276 84.5742 106.941 89.6866 110.095 93.9627C110.205 94.1168 110.249 94.3074 110.198 94.4908L107.601 105.156L116.41 100.278C116.608 100.168 116.85 100.168 117.048 100.285C120.576 102.39 124.596 103.505 128.674 103.505C141.576 103.505 152.072 92.5911 152.072 79.1759C152.072 65.7607 141.576 54.8539 128.674 54.8539Z" fill="#054375"/>
<path d="M74.738 97.0142C74.6793 97.0142 74.6279 96.9922 74.5839 96.9482C74.5032 96.8602 74.5032 96.7282 74.5913 96.6475L92.3634 79.6456C92.4514 79.5649 92.5834 79.5649 92.6641 79.6529C92.7447 79.7409 92.7447 79.8729 92.6567 79.9536L74.8847 96.9555C74.8407 96.9922 74.7893 97.0142 74.738 97.0142Z" fill="#054375"/>
<path d="M74.5105 103.788C74.4592 103.788 74.4005 103.766 74.3638 103.73C74.2758 103.649 74.2758 103.517 74.3565 103.429C80.3196 97.2236 86.4662 91.0184 92.62 84.9746C92.708 84.8939 92.84 84.8939 92.9207 84.9746C93.0014 85.0553 93.0014 85.1946 92.9207 85.2753C86.7742 91.3118 80.6277 97.517 74.6646 103.722C74.6279 103.766 74.5692 103.788 74.5105 103.788Z" fill="#054375"/>
<path d="M80.4224 103.67C80.3711 103.67 80.3124 103.648 80.2757 103.611C80.195 103.53 80.195 103.391 80.2757 103.31L93.691 89.7117C93.7717 89.631 93.911 89.6237 93.9917 89.7117C94.0724 89.7924 94.0797 89.9318 93.9917 90.0125L80.5765 103.611C80.5325 103.648 80.4738 103.67 80.4224 103.67Z" fill="#054375"/>
<path d="M86.5249 103.958C86.4736 103.958 86.4223 103.936 86.3782 103.899C86.2902 103.818 86.2902 103.686 86.3709 103.598C89.2755 100.576 92.136 97.4297 94.8572 94.2391C94.9305 94.1511 95.0699 94.1364 95.1579 94.2171C95.246 94.2904 95.2606 94.4298 95.1799 94.5178C92.4514 97.7157 89.5909 100.87 86.679 103.899C86.6423 103.936 86.5836 103.958 86.5249 103.958Z" fill="#054375"/>
<path d="M92.6861 103.767C92.6348 103.767 92.5834 103.752 92.5468 103.716C92.4587 103.635 92.4514 103.503 92.5247 103.415L96.0748 99.322C96.1554 99.234 96.2875 99.2267 96.3755 99.3C96.4635 99.3807 96.4708 99.5127 96.3975 99.6007L92.8475 103.694C92.8035 103.745 92.7448 103.767 92.6861 103.767Z" fill="#054375"/>
<g opacity="0.1294">
<path d="M127.605 103.386C127.319 103.298 127.04 103.335 126.762 103.401C126.659 103.408 126.549 103.408 126.446 103.408C125.243 103.196 124.436 103.188 121.994 102.301C121.935 102.279 121.884 102.257 121.825 102.235C121.723 102.183 121.283 101.971 121.099 101.89C120.285 101.516 119.427 101.259 118.569 100.98C117.865 100.768 117.212 100.357 116.456 100.32C116.126 100.342 115.774 100.408 115.503 100.599C115.275 100.731 115.041 100.848 114.806 100.966C113.016 101.809 111.249 102.711 109.525 103.68C108.806 104.098 108.065 104.464 107.303 104.787C106.951 104.956 106.532 105.051 106.32 105.403C105.498 106.371 106.532 107.912 107.75 107.538C110.706 106.335 113.5 104.78 116.39 103.43C118.18 104.274 120.146 104.618 121.972 105.381C123.505 105.836 125.104 106.481 126.725 106.217C126.6 106.232 126.468 106.254 126.344 106.269C126.879 106.261 127.473 106.349 127.957 106.063C129.065 105.44 128.845 103.709 127.605 103.386Z" fill="#054375"/>
</g>
<path fill-rule="evenodd" clip-rule="evenodd" d="M118.897 78.0094C118.897 73.4306 122.608 69.7188 127.187 69.7188C131.766 69.7188 135.478 73.4306 135.478 78.0094C135.478 80.2475 134.591 82.2784 133.15 83.77C133.112 83.7983 133.076 83.8296 133.042 83.8638C133.007 83.8981 132.976 83.9343 132.948 83.972C131.456 85.4133 129.425 86.3001 127.187 86.3001C122.608 86.3001 118.897 82.5882 118.897 78.0094ZM133.722 85.9589C131.945 87.4217 129.669 88.3001 127.187 88.3001C121.504 88.3001 116.897 83.6928 116.897 78.0094C116.897 72.326 121.504 67.7188 127.187 67.7188C132.871 67.7188 137.478 72.326 137.478 78.0094C137.478 80.491 136.6 82.7674 135.137 84.5447L139.508 88.9156C139.898 89.3062 139.898 89.9393 139.508 90.3299C139.117 90.7204 138.484 90.7204 138.093 90.3299L133.722 85.9589Z" fill="#1954F5"/>
</svg>
