<svg width="320" height="248" viewBox="0 0 320 248" fill="none" xmlns="http://www.w3.org/2000/svg">
<path opacity="0.3" d="M254.68 129.137C256.233 127.566 256.233 125.02 254.68 123.449L145.394 12.9292C143.686 11.2019 140.862 11.4003 139.407 13.3499L99.1424 67.2889C97.947 68.8903 98.1015 71.1378 99.5044 72.5566L149.711 123.329C151.264 124.9 151.264 127.447 149.711 129.018L93.107 186.26C91.3996 187.987 91.5949 190.841 93.5211 192.314L146.963 233.164C148.547 234.375 150.771 234.219 152.174 232.8L254.68 129.137Z" fill="#1090F9"/>
<path opacity="0.3" d="M253.889 132.632C255.054 133.811 255.054 135.721 253.889 136.899L151.383 240.561C150.33 241.626 148.663 241.743 147.475 240.835L94.0328 199.984C92.5882 198.88 92.4417 196.739 93.7222 195.444L150.326 138.202C152.268 136.238 152.268 133.055 150.326 131.091L100.12 80.3182C99.0674 79.2541 98.9516 77.5685 99.8482 76.3674L140.112 22.4285C141.204 20.9663 143.322 20.8174 144.603 22.1129L253.889 132.632Z" stroke="#40CDFC" stroke-width="2"/>
<path opacity="0.3" d="M219.313 24.0739C219.865 25.0305 219.538 26.2537 218.581 26.806L214.497 29.1638C213.445 29.7709 212.1 29.3085 211.644 28.1831L211.603 28.0835C211.228 27.1586 211.592 26.099 212.457 25.6L212.971 25.3029C213.928 24.7506 214.256 23.5274 213.703 22.5708L213.399 22.0433C212.792 20.9917 213.254 19.6461 214.38 19.1898L214.479 19.1495C215.404 18.7746 216.464 19.1387 216.963 20.0029L219.313 24.0739Z" fill="#1090F9"/>
<path opacity="0.3" d="M86.3135 168.074C86.8657 169.031 86.538 170.254 85.5814 170.806L81.4976 173.164C80.4459 173.771 79.1003 173.309 78.6441 172.183L78.6037 172.084C78.2288 171.159 78.593 170.099 79.4572 169.6L79.9718 169.303C80.9284 168.751 81.2562 167.527 80.7039 166.571L80.3993 166.043C79.7922 164.992 80.2546 163.646 81.38 163.19L81.4797 163.15C82.4045 162.775 83.4641 163.139 83.9631 164.003L86.3135 168.074Z" fill="#1090F9"/>
<path opacity="0.3" d="M246.293 208.907C246.69 209.938 246.176 211.095 245.145 211.492L235.376 215.25C234.213 215.697 232.928 214.984 232.693 213.76L232.452 212.504C232.27 211.553 232.794 210.608 233.698 210.26L236.939 209.014C237.97 208.617 238.484 207.46 238.088 206.429L237.349 204.51C236.922 203.399 237.553 202.164 238.703 201.859L241.395 201.144C242.382 200.882 243.408 201.406 243.775 202.359L246.293 208.907Z" fill="#1090F9"/>
<g clip-path="url(#clip0_4517_4223)">
<path d="M247.023 87.5149C208.585 84.1277 169.814 84.4962 131.448 88.5964C126.192 89.155 120.328 90.2365 118.123 95.0141C115.417 100.85 120.483 107.541 126.227 110.452C135.047 114.897 145.321 115.206 155.202 115.242C184.748 115.373 214.437 114.006 243.4 108.194C244.52 107.968 245.772 107.648 246.356 106.661C246.761 105.984 246.737 105.128 246.701 104.344C246.451 98.9123 246.201 93.481 247.023 87.503V87.5149Z" fill="#7CDDFD"/>
<path d="M158.789 116.264C157.609 116.264 156.405 116.264 155.202 116.264C144.725 116.216 134.582 115.812 125.774 111.367C119.41 108.159 114.321 100.826 117.205 94.5982C119.553 89.5234 125.393 88.228 131.352 87.5981C169.73 83.4979 208.681 83.1295 247.118 86.5166C247.392 86.5404 247.655 86.683 247.821 86.8969C248 87.1108 248.072 87.3961 248.036 87.6694C247.226 93.5523 247.476 99.0312 247.726 104.32C247.762 105.128 247.81 106.233 247.237 107.196C246.379 108.646 244.58 109.002 243.614 109.204C219.336 114.077 193.055 116.276 158.801 116.276L158.789 116.264ZM194.831 86.2432C173.687 86.2432 152.544 87.3604 131.555 89.6066C126.192 90.1771 120.971 91.2824 119.04 95.442C116.669 100.576 121.162 106.756 126.68 109.549C135.095 113.792 144.975 114.184 155.202 114.232C191.041 114.386 218.216 112.223 243.185 107.208C244.091 107.03 245.092 106.78 245.462 106.162C245.7 105.746 245.7 105.152 245.664 104.403C245.438 99.3283 245.187 94.099 245.855 88.4419C228.907 86.9801 211.851 86.2551 194.807 86.2551L194.831 86.2432Z" fill="#054375"/>
<path d="M200.421 57.5298C209.956 58.6945 219.479 59.8592 229.002 61.0358C221.231 71.9341 217.858 85.3044 215.355 98.4488C214.914 100.743 214.366 103.262 212.483 104.641C211.505 105.354 210.29 105.663 209.11 105.948C206.976 106.471 204.735 106.994 202.602 106.459C198.192 105.366 196.059 100.398 195.201 95.9412C192.721 83.0819 195.51 69.6998 200.421 57.5298Z" fill="#05BDFB"/>
<path d="M204.509 107.695C203.794 107.695 203.067 107.624 202.352 107.446C196.893 106.091 194.903 99.7799 194.199 96.1432C191.947 84.5081 193.735 71.3874 199.479 57.1614C199.646 56.7336 200.087 56.484 200.54 56.5315L229.121 60.0375C229.479 60.085 229.788 60.3109 229.931 60.6317C230.074 60.9526 230.039 61.3329 229.836 61.6301C222.125 72.4451 218.799 85.8035 216.356 98.639C215.939 100.814 215.379 103.785 213.09 105.461C211.934 106.305 210.564 106.637 209.36 106.935C207.918 107.279 206.237 107.695 204.521 107.695H204.509ZM201.076 58.6351C195.701 72.2193 194.068 84.7101 196.202 95.7629C196.81 98.9242 198.49 104.403 202.852 105.485C204.795 105.96 206.964 105.437 208.883 104.974C209.956 104.712 211.064 104.439 211.899 103.833C213.412 102.715 213.937 100.564 214.378 98.2706C216.761 85.7441 219.979 72.7185 227.238 61.8559L201.088 58.647L201.076 58.6351Z" fill="#054375"/>
<path d="M150.387 113.198C148.968 91.6389 147.908 69.5096 154.57 48.9134C172.102 46.7148 189.957 49.579 207.382 48.0102C203.52 68.9867 199.658 90.5455 203.627 111.51L150.399 113.198H150.387Z" fill="white"/>
<path d="M150.387 114.208C149.85 114.208 149.409 113.792 149.373 113.257C147.824 89.8205 147.073 68.7846 153.605 48.5926C153.724 48.2122 154.058 47.9508 154.439 47.9032C163.878 46.7148 173.521 47 182.841 47.2615C190.898 47.4873 199.229 47.725 207.286 47C207.608 46.9762 207.918 47.0951 208.132 47.3209C208.347 47.5586 208.442 47.8795 208.383 48.1885C204.759 67.9171 200.648 90.2722 204.616 111.32C204.676 111.605 204.593 111.914 204.414 112.14C204.223 112.366 203.949 112.508 203.651 112.52L150.422 114.208C150.422 114.208 150.398 114.208 150.387 114.208ZM155.345 49.8404C149.219 69.2244 149.862 89.571 151.34 112.152L202.411 110.536C198.812 89.9275 202.614 68.3449 206.142 49.1274C198.383 49.7216 190.457 49.4958 182.781 49.2819C173.759 49.0204 164.427 48.7589 155.345 49.8286V49.8404Z" fill="#054375"/>
<path d="M251.099 98.8173C211.482 99.8631 171.864 100.576 132.246 100.968C126.919 101.016 115.524 104.011 118.123 95.0142C116.216 99.9938 115.799 106.851 116.12 112.176C117.122 129.088 117.384 146.059 116.895 162.995C116.764 167.487 116.597 172.098 118.051 176.353C119.505 180.608 122.974 184.494 127.3 185.457C168.98 188.178 208.502 186.479 249.943 186.241C247.178 156.208 250.205 128.814 251.099 98.8173Z" fill="#7CDDFD"/>
<path d="M180.255 188C162.734 188 145.297 187.643 127.229 186.467C127.181 186.467 127.121 186.467 127.074 186.443C122.7 185.469 118.778 181.63 117.086 176.674C115.608 172.336 115.739 167.701 115.87 163.232V162.971C116.359 146.13 116.097 129.064 115.095 112.247C114.702 105.639 115.477 99.0668 117.169 94.6695C117.36 94.1584 117.92 93.897 118.445 94.0753C118.957 94.2535 119.243 94.8002 119.1 95.3231C118.588 97.094 118.659 98.3894 119.303 99.1738C120.769 100.945 125.202 100.541 128.754 100.22C130.018 100.101 131.221 99.9938 132.234 99.9819C171.673 99.6016 211.648 98.8767 251.075 97.8308C251.373 97.7952 251.624 97.9259 251.826 98.1279C252.029 98.33 252.136 98.5914 252.124 98.8767C251.874 107.16 251.457 115.337 251.063 123.24C249.991 144.466 248.966 164.504 250.968 186.182C250.992 186.467 250.897 186.74 250.706 186.954C250.515 187.168 250.241 187.287 249.955 187.287C239.633 187.346 229.276 187.501 219.264 187.655C206.047 187.845 193.127 188.048 180.255 188.048V188ZM127.443 184.446C158.67 186.479 188.085 186.051 219.229 185.587C228.883 185.445 238.859 185.302 248.835 185.231C246.963 163.838 247.965 144.038 249.025 123.098C249.407 115.551 249.8 107.755 250.05 99.8512C210.969 100.873 171.34 101.586 132.258 101.967C131.329 101.967 130.173 102.086 128.945 102.192C124.702 102.585 119.887 103.024 117.741 100.422C117.122 103.916 116.895 107.992 117.145 112.104C118.147 128.981 118.409 146.118 117.92 163.006V163.268C117.789 167.558 117.658 172.003 119.029 176.008C120.495 180.287 123.796 183.579 127.455 184.435L127.443 184.446Z" fill="#054375"/>
<path d="M182.328 68.0122C171.864 68.0122 161.375 67.8101 150.97 67.4179C150.41 67.3941 149.969 66.9306 149.993 66.3721C150.017 65.8135 150.494 65.3856 151.042 65.3975C168.384 66.0631 185.964 66.17 203.281 65.7303C203.842 65.6946 204.306 66.1581 204.318 66.7167C204.33 67.2753 203.889 67.7388 203.329 67.7507C196.357 67.929 189.337 68.024 182.316 68.024L182.328 68.0122Z" fill="#054375"/>
<path d="M187.918 100.612C187.37 100.612 186.917 100.172 186.905 99.6135C186.846 96.4997 184.784 93.5167 181.887 92.3401C180.124 91.627 178.145 91.5319 175.94 91.4963C173.294 91.4487 170.755 91.4963 168.694 92.6134C166.274 93.9208 164.784 96.7374 165.07 99.4709C165.13 100.029 164.725 100.529 164.164 100.588C163.616 100.636 163.104 100.243 163.044 99.6848C162.675 96.1551 164.594 92.5184 167.716 90.8307C170.219 89.4759 173.044 89.4165 175.976 89.464C178.3 89.4997 180.565 89.6066 182.65 90.4623C186.274 91.936 188.848 95.6797 188.931 99.566C188.931 100.125 188.502 100.588 187.93 100.6H187.906L187.918 100.612Z" fill="#054375"/>
<path d="M251.23 128.208C238.74 127.649 229.336 127.863 216.869 128.862C212.769 129.194 208.561 129.634 204.879 131.464C201.196 133.295 198.097 136.824 197.93 140.925C197.739 145.56 201.363 149.672 205.618 151.55C209.873 153.427 214.676 153.534 219.324 153.618C228.811 153.784 238.287 153.938 247.774 154.105C249.609 154.14 251.54 154.14 253.137 153.237C256.177 151.502 256.629 147.39 256.725 143.908C256.808 140.806 256.892 137.692 256.987 134.59C257.023 133.223 256.486 131.251 256.033 129.967C255.569 128.683 251.945 128.077 251.23 128.22V128.208Z" fill="#7CDDFD"/>
<path d="M248.715 155.115C248.382 155.115 248.06 155.115 247.75 155.115L219.3 154.628C214.807 154.545 209.706 154.461 205.2 152.477C200.91 150.587 196.691 146.273 196.905 140.889C197.072 136.801 200.016 132.748 204.414 130.561C208.204 128.672 212.423 128.196 216.773 127.852C229.622 126.829 238.954 126.651 251.183 127.186C252.374 127.079 256.284 127.685 256.975 129.599C257.225 130.3 258.048 132.736 257.988 134.59L257.726 143.908C257.619 147.853 257.047 152.144 253.626 154.093C252.077 154.984 250.289 155.103 248.704 155.103L248.715 155.115ZM238.644 128.909C231.731 128.909 225.033 129.218 216.94 129.86C212.805 130.193 208.8 130.633 205.332 132.356C201.589 134.222 199.074 137.597 198.943 140.948C198.764 145.358 202.495 149.042 206.035 150.599C210.171 152.417 215.045 152.5 219.348 152.572L247.798 153.059C249.407 153.083 251.242 153.118 252.637 152.322C255.175 150.872 255.616 147.224 255.712 143.836L255.974 134.519C256.01 133.318 255.509 131.476 255.08 130.264C254.782 129.717 252.208 129.076 251.433 129.183C251.349 129.195 251.29 129.206 251.195 129.195C246.737 128.992 242.661 128.897 238.668 128.897L238.644 128.909Z" fill="#054375"/>
<path d="M215.725 136.48C214.497 136.088 213.102 136.456 212.089 137.264C211.088 138.072 210.433 139.249 210.075 140.485C209.884 141.151 209.765 141.84 209.896 142.517C210.004 143.052 210.266 143.563 210.6 143.991C212.352 146.237 216.249 146.237 218.037 144.027C219.825 141.816 219.241 137.609 215.713 136.48H215.725Z" fill="#F9EC76"/>
<path d="M214.318 146.701H214.259C212.435 146.689 210.814 145.928 209.801 144.621C209.336 144.015 209.026 143.385 208.895 142.719C208.752 141.971 208.812 141.174 209.098 140.212C209.563 138.631 210.373 137.347 211.458 136.48C212.793 135.41 214.557 135.042 216.035 135.517C217.87 136.111 219.241 137.502 219.789 139.332C220.349 141.21 219.98 143.254 218.835 144.668C217.798 145.94 216.118 146.701 214.318 146.701ZM214.688 137.336C214.02 137.336 213.305 137.585 212.721 138.06C211.768 138.821 211.291 139.962 211.041 140.782C210.85 141.424 210.802 141.923 210.886 142.339C210.957 142.684 211.124 143.04 211.398 143.385C212.018 144.181 213.091 144.668 214.271 144.68C215.462 144.668 216.583 144.217 217.25 143.397C217.977 142.505 218.204 141.139 217.834 139.914C217.632 139.213 217.036 137.977 215.403 137.454C215.176 137.383 214.938 137.347 214.688 137.347V137.336Z" fill="#054375"/>
<path d="M122.115 99.0787C122.044 99.0787 121.984 99.0549 121.925 99.0193C121.77 98.9123 121.734 98.6984 121.841 98.5439C123.82 95.7391 126.18 93.2314 128.873 91.0803C129.016 90.9615 129.231 90.9852 129.35 91.1278C129.469 91.2705 129.445 91.4844 129.302 91.6032C126.668 93.7068 124.344 96.167 122.401 98.9242C122.33 99.0193 122.235 99.0668 122.127 99.0668L122.115 99.0787Z" fill="#054375"/>
<path d="M130.315 98.1755C130.232 98.1755 130.161 98.1517 130.089 98.0923C129.946 97.9734 129.934 97.7595 130.065 97.6169L136.489 90.391C136.609 90.2484 136.823 90.2365 136.966 90.3672C137.109 90.4861 137.121 90.7 136.99 90.8426L130.566 98.0685C130.494 98.1398 130.411 98.1874 130.315 98.1874V98.1755Z" fill="#054375"/>
<path d="M140.101 97.9735C140.017 97.9735 139.934 97.9497 139.874 97.8903C139.731 97.7596 139.731 97.5456 139.85 97.4149L145.714 91.0447C145.845 90.9021 146.06 90.9021 146.191 91.0209C146.334 91.1517 146.334 91.3656 146.215 91.4963L140.351 97.8665C140.279 97.9378 140.196 97.9735 140.101 97.9735Z" fill="#054375"/>
<path d="M218.49 96.9514C218.406 96.9514 218.335 96.9276 218.263 96.8682C218.12 96.7493 218.108 96.5354 218.239 96.3928L224.175 89.7255C224.294 89.5829 224.508 89.571 224.651 89.7017C224.795 89.8206 224.806 90.0345 224.675 90.1771L218.74 96.8444C218.668 96.9157 218.585 96.9633 218.49 96.9633V96.9514Z" fill="#054375"/>
<path d="M224.652 97.498C224.568 97.498 224.485 97.4743 224.425 97.4148C224.282 97.2841 224.282 97.0702 224.401 96.9395C226.785 94.3486 229.395 91.9241 232.148 89.7373C232.291 89.6185 232.506 89.6423 232.625 89.7968C232.744 89.9394 232.721 90.1533 232.566 90.2721C229.836 92.4352 227.262 94.8359 224.902 97.403C224.83 97.4743 224.747 97.5099 224.652 97.5099V97.498Z" fill="#054375"/>
<path d="M234.115 96.0957C234.031 96.0957 233.948 96.06 233.877 96.0006C233.745 95.8699 233.734 95.6559 233.877 95.5252L239.311 89.9275C239.443 89.7968 239.657 89.7849 239.788 89.9275C239.919 90.0582 239.931 90.2722 239.788 90.4029L234.353 96.0006C234.282 96.0719 234.198 96.1075 234.115 96.1075V96.0957Z" fill="#054375"/>
<path d="M240.944 96.4403C240.873 96.4403 240.801 96.4166 240.742 96.369C240.599 96.2502 240.563 96.0481 240.682 95.8936L243.137 92.7442C243.257 92.6016 243.471 92.5659 243.614 92.6848C243.757 92.8036 243.793 93.0057 243.674 93.1602L241.218 96.3096C241.147 96.3928 241.052 96.4403 240.956 96.4403H240.944Z" fill="#054375"/>
<path d="M126.132 178.623C126.025 178.623 125.929 178.575 125.858 178.48C124.177 176.198 123.927 173.31 123.796 170.316C123.605 165.799 123.534 161.224 123.581 156.696C123.581 156.506 123.736 156.363 123.915 156.363C124.106 156.363 124.249 156.517 124.249 156.708C124.201 161.224 124.273 165.799 124.463 170.292C124.583 173.192 124.821 175.961 126.394 178.088C126.502 178.243 126.478 178.445 126.323 178.564C126.263 178.611 126.192 178.635 126.12 178.635L126.132 178.623Z" fill="#054375"/>
<path d="M133.259 179.895C133.14 179.895 133.021 179.835 132.961 179.716C131.519 177.03 130.84 173.893 131.078 170.85C131.09 170.66 131.257 170.53 131.436 170.541C131.627 170.553 131.758 170.72 131.746 170.898C131.531 173.81 132.175 176.828 133.557 179.396C133.641 179.562 133.581 179.764 133.414 179.859C133.367 179.883 133.307 179.895 133.259 179.895Z" fill="#054375"/>
<g opacity="0.13">
<path d="M209.837 59.479C208.8 57.5774 205.701 57.9696 205.189 60.0851C203.568 69.058 202.4 75.9868 201.661 83.8307C201.243 89.1194 201.541 94.4318 201.923 99.7205C202.233 101.242 204.104 102.014 205.427 101.218C206.249 100.754 206.702 99.7681 206.583 98.8411C206.583 97.5813 206.5 96.3215 206.511 95.0617C206.583 86.7543 207.072 79.1481 208.252 72.5878C208.74 69.4502 209.241 66.3245 209.73 63.187C209.896 61.9629 210.576 60.6437 209.837 59.479Z" fill="#054375"/>
</g>
<g opacity="0.13">
<path d="M148.36 96.8088C148.003 96.6424 147.133 96.785 146.99 96.8325C146.06 96.892 145.13 96.8801 144.189 96.9157C140.101 97.0227 136.013 97.0583 131.936 97.0465C129.612 97.0465 127.276 97.1415 124.964 96.8563C124.571 96.7969 123.653 96.6424 123.319 96.5473C123.045 96.4998 122.461 96.2858 122.115 96.167C122.008 96.1194 121.913 96.06 121.817 96.0006C121.305 95.7035 120.828 95.2875 120.208 95.2756C117.658 94.8359 116.418 98.437 118.671 99.7205C121.651 101.824 125.476 102.216 129.028 102.299C131.984 102.299 134.94 102.299 137.884 102.074C140.601 101.943 143.295 101.67 146 101.444C147.049 101.444 148.289 101.693 149.159 100.945C150.732 99.8869 150.172 97.2604 148.348 96.8088H148.36Z" fill="#054375"/>
</g>
<g opacity="0.13">
<path d="M244.293 93.6355C240.646 93.6593 236.999 94.099 233.34 93.9683C228.025 93.9802 222.649 93.6593 217.369 94.4794C213.412 94.7289 214.151 100.481 218.037 99.6611C220.504 99.15 226.737 99.4353 231.386 99.2689C235.652 99.3758 239.895 98.8767 244.15 98.639C247.559 98.7341 247.714 93.7425 244.305 93.6237L244.293 93.6355Z" fill="#054375"/>
</g>
<g opacity="0.13">
<path d="M248.775 157.801C248.846 157.718 248.93 157.635 248.978 157.54C249.764 156.256 249.025 154.461 247.571 154.081C247.166 153.974 246.761 153.974 246.367 154.081C246.212 154.081 246.069 154.105 245.914 154.105C241.767 154.414 237.607 154.057 233.448 154.283C227.5 154.461 221.6 153.962 215.713 153.214C215.677 153.214 215.641 153.214 215.593 153.202C215.081 153.118 213.77 152.893 213.388 152.75C213.365 152.75 213.353 152.75 213.329 152.75C213.329 152.75 213.341 152.75 213.353 152.75C211.768 152.31 210.135 152.025 208.621 151.371C207.656 150.967 206.762 150.147 205.653 150.48C205.522 150.516 205.403 150.563 205.284 150.611C204.926 150.278 204.664 149.803 204.175 149.66C202.852 148.4 200.433 149.993 201.47 151.835C204.08 155.424 208.514 157.147 212.721 158.074C215.987 158.954 219.324 159.394 222.685 159.679C224.58 160.035 231.171 160.332 234.818 160.19C237.726 160.19 240.623 159.845 243.531 159.845C243.495 163.541 243.757 167.226 243.936 170.922C244.258 175.878 244.317 180.917 245.438 185.778C245.783 187.121 247.726 187.346 248.358 186.098C248.966 184.256 248.68 182.212 248.811 180.299C248.87 175.747 248.572 171.195 248.691 166.643C248.775 164.754 248.989 162.876 249.144 160.986C249.24 159.988 249.43 158.704 248.775 158.051C248.775 157.979 248.775 157.896 248.775 157.825V157.801Z" fill="#054375"/>
</g>
<g opacity="0.13">
<path d="M251.194 100.327C250.575 98.6746 247.976 99.1975 248.012 100.968C247.857 109.799 247.237 119.247 246.26 126.699C246.212 128.161 248.167 128.969 249.168 127.899C249.895 127.162 249.609 126.057 249.812 125.13C249.705 126.093 250.229 122.028 250.241 121.232C250.753 115.622 251.183 110.001 251.206 104.367C251.135 103.048 251.54 101.586 251.194 100.327Z" fill="#054375"/>
</g>
<circle cx="151.159" cy="141.732" r="16.318" transform="rotate(-14.992 151.159 141.732)" fill="#F7E06E"/>
<circle cx="148.057" cy="141.057" r="15.3779" transform="rotate(-14.992 148.057 141.057)" fill="#F9EC76" stroke="#054375" stroke-width="2"/>
<path fill-rule="evenodd" clip-rule="evenodd" d="M148.896 148.393L149.343 150.062C149.413 150.326 149.684 150.482 149.947 150.411L150.424 150.284C150.688 150.213 150.844 149.942 150.773 149.679L150.325 148.003C151.067 147.78 151.992 147.437 152.742 146.856C153.267 146.449 153.732 145.908 153.987 145.188C154.243 144.466 154.264 143.631 154.01 142.68C153.755 141.728 153.319 141.015 152.737 140.518C152.156 140.023 151.482 139.786 150.824 139.696C149.885 139.567 148.912 139.732 148.158 139.911L146.751 134.658L150.327 133.7C150.591 133.63 150.747 133.359 150.676 133.096L150.549 132.619C150.478 132.356 150.208 132.199 149.944 132.27L146.368 133.228L145.921 131.559C145.85 131.295 145.58 131.139 145.316 131.209L144.839 131.337C144.576 131.408 144.42 131.678 144.49 131.942L144.941 133.624C144.166 133.863 143.285 134.201 142.567 134.73C142.025 135.13 141.543 135.66 141.273 136.367C141.003 137.078 140.975 137.898 141.223 138.826C141.472 139.754 141.907 140.456 142.485 140.954C143.059 141.45 143.728 141.706 144.386 141.82C145.342 141.986 146.328 141.863 147.103 141.699L148.513 146.963L144.936 147.92C144.673 147.991 144.517 148.262 144.587 148.525L144.715 149.002C144.786 149.265 145.056 149.422 145.32 149.351L148.896 148.393ZM149.941 146.571C150.596 146.372 151.294 146.105 151.835 145.686C152.191 145.409 152.452 145.086 152.592 144.693C152.73 144.303 152.771 143.78 152.579 143.063C152.387 142.346 152.09 141.913 151.775 141.644C151.459 141.374 151.071 141.224 150.624 141.163C149.946 141.07 149.208 141.188 148.541 141.343L149.941 146.571ZM146.72 140.266L145.324 135.056C144.647 135.267 143.973 135.534 143.446 135.922C143.068 136.201 142.8 136.519 142.658 136.894C142.517 137.264 142.471 137.759 142.654 138.443C142.837 139.126 143.13 139.555 143.453 139.833C143.779 140.115 144.181 140.281 144.64 140.361C145.319 140.479 146.064 140.399 146.72 140.266Z" fill="#054375"/>
</g>
<ellipse cx="118.143" cy="171.77" rx="13.0623" ry="10.7572" transform="rotate(-14.992 118.143 171.77)" fill="#F7E06E"/>
<path d="M128.958 168.128C129.578 170.441 128.934 172.93 127.258 175.108C125.582 177.287 122.902 179.105 119.598 179.99C116.294 180.874 113.064 180.639 110.523 179.59C107.983 178.54 106.182 176.707 105.562 174.393C104.943 172.08 105.586 169.591 107.262 167.413C108.939 165.234 111.619 163.416 114.923 162.531C118.226 161.647 121.456 161.881 123.997 162.931C126.538 163.98 128.339 165.814 128.958 168.128Z" fill="#F9EC76" stroke="#054375" stroke-width="2"/>
<path fill-rule="evenodd" clip-rule="evenodd" d="M117.575 175.809L117.849 176.832C117.892 176.993 118.098 177.078 118.309 177.022L118.691 176.919C118.902 176.863 119.038 176.686 118.994 176.525L118.719 175.498C119.315 175.323 120.06 175.066 120.678 174.667C121.11 174.388 121.503 174.028 121.737 173.566C121.973 173.102 122.029 172.579 121.872 171.996C121.716 171.413 121.407 170.987 120.971 170.704C120.537 170.421 120.017 170.305 119.503 170.279C118.768 170.243 117.994 170.392 117.391 170.539L116.529 167.32L119.392 166.553C119.603 166.497 119.739 166.32 119.696 166.159L119.617 165.866C119.574 165.705 119.368 165.62 119.157 165.676L116.294 166.443L116.021 165.42C115.977 165.259 115.771 165.174 115.561 165.23L115.179 165.332C114.968 165.389 114.832 165.565 114.875 165.727L115.151 166.758C114.529 166.943 113.819 167.197 113.23 167.561C112.783 167.836 112.378 168.19 112.133 168.645C111.887 169.103 111.826 169.617 111.978 170.185C112.131 170.754 112.441 171.173 112.873 171.457C113.302 171.74 113.817 171.869 114.33 171.91C115.075 171.969 115.859 171.845 116.477 171.707L117.341 174.932L114.478 175.699C114.267 175.755 114.131 175.932 114.174 176.093L114.252 176.385C114.296 176.547 114.502 176.632 114.712 176.575L117.575 175.809ZM118.484 174.62C119.01 174.465 119.572 174.265 120.018 173.978C120.312 173.788 120.533 173.574 120.661 173.322C120.788 173.071 120.845 172.742 120.727 172.303C120.61 171.863 120.396 171.606 120.16 171.453C119.924 171.299 119.625 171.223 119.276 171.206C118.746 171.18 118.159 171.288 117.626 171.416L118.484 174.62ZM116.242 170.828L115.387 167.635C114.843 167.799 114.299 167.998 113.866 168.265C113.555 168.457 113.329 168.668 113.199 168.91C113.071 169.148 113.011 169.46 113.124 169.879C113.236 170.297 113.447 170.552 113.688 170.711C113.932 170.871 114.241 170.957 114.598 170.985C115.128 171.027 115.719 170.942 116.242 170.828Z" fill="#054375"/>
<circle cx="103.996" cy="109.891" r="22.5352" transform="rotate(-14.992 103.996 109.891)" fill="#F7E06E"/>
<circle cx="102.699" cy="109.699" r="21.6179" transform="rotate(-14.992 102.699 109.699)" fill="#F9EC76" stroke="#054375" stroke-width="2"/>
<path fill-rule="evenodd" clip-rule="evenodd" d="M103.857 119.83L104.474 122.135C104.571 122.499 104.945 122.715 105.309 122.617L105.967 122.441C106.331 122.344 106.547 121.97 106.449 121.606L105.829 119.291C106.855 118.984 108.132 118.51 109.168 117.708C109.893 117.146 110.536 116.398 110.888 115.404C111.242 114.408 111.27 113.254 110.919 111.94C110.567 110.626 109.965 109.642 109.161 108.955C108.359 108.27 107.428 107.944 106.52 107.819C105.222 107.642 103.879 107.87 102.837 108.116L100.894 100.862L105.833 99.5394C106.197 99.4421 106.413 99.0683 106.315 98.7046L106.139 98.046C106.042 97.6823 105.668 97.4664 105.304 97.5638L100.365 98.8865L99.7479 96.5816C99.6505 96.2179 99.2767 96.002 98.913 96.0994L98.2544 96.2758C97.8907 96.3732 97.6749 96.747 97.7723 97.1107L98.3943 99.4333C97.3238 99.7634 96.1073 100.231 95.1168 100.961C94.3675 101.513 93.7014 102.246 93.3299 103.222C92.9559 104.204 92.9174 105.336 93.2606 106.618C93.604 107.9 94.2053 108.869 95.003 109.557C95.7954 110.241 96.7195 110.595 97.6281 110.753C98.9483 110.983 100.311 110.812 101.381 110.586L103.327 117.855L98.3884 119.177C98.0247 119.275 97.8088 119.649 97.9062 120.012L98.0826 120.671C98.18 121.035 98.5538 121.25 98.9175 121.153L103.857 119.83ZM105.3 117.313C106.205 117.039 107.168 116.67 107.915 116.091C108.408 115.709 108.768 115.263 108.96 114.721C109.151 114.182 109.208 113.46 108.943 112.469C108.678 111.478 108.267 110.881 107.833 110.51C107.395 110.137 106.86 109.93 106.242 109.846C105.307 109.718 104.288 109.88 103.366 110.094L105.3 117.313ZM100.851 108.607L98.9241 101.412C97.9888 101.703 97.0575 102.072 96.33 102.608C95.8079 102.992 95.4385 103.432 95.2413 103.949C95.0467 104.461 94.9834 105.145 95.2362 106.089C95.4887 107.032 95.8938 107.625 96.3391 108.009C96.7896 108.398 97.3451 108.628 97.9788 108.738C98.917 108.901 99.9453 108.79 100.851 108.607Z" fill="#054375"/>
<defs>
<clipPath id="clip0_4517_4223">
<rect width="143" height="141" fill="white" transform="translate(115 47)"/>
</clipPath>
</defs>
</svg>
