<svg width="321" height="244" viewBox="0 0 321 244" fill="none" xmlns="http://www.w3.org/2000/svg">
<path opacity="0.3" d="M256.452 127.477C258.006 125.906 258.006 123.359 256.452 121.789L147.166 11.269C145.458 9.54172 142.634 9.74018 141.179 11.6898L100.915 65.6287C99.7195 67.2301 99.8739 69.4776 101.277 70.8964L151.483 121.669C153.037 123.24 153.037 125.787 151.483 127.358L94.8794 184.6C93.1721 186.327 93.3674 189.181 95.2935 190.653L148.736 231.504C150.319 232.715 152.543 232.559 153.947 231.14L256.452 127.477Z" fill="#1090F9"/>
<path opacity="0.3" d="M255.662 130.972C256.827 132.15 256.827 134.06 255.662 135.238L153.156 238.901C152.103 239.965 150.436 240.082 149.248 239.174L95.8057 198.323C94.3611 197.219 94.2147 195.079 95.4951 193.784L152.099 136.541C154.041 134.577 154.041 131.394 152.099 129.43L101.893 78.6575C100.84 77.5934 100.725 75.9078 101.621 74.7067L141.885 20.7678C142.977 19.3056 145.094 19.1568 146.375 20.4522L255.662 130.972Z" stroke="#05BDFB" stroke-width="2"/>
<path opacity="0.3" d="M198.033 24.9585C199.137 24.9585 200.033 25.8539 200.033 26.9585L200.033 29.7117C200.033 30.6021 199.245 31.2871 198.364 31.1642C197.639 31.0632 197.099 30.4434 197.099 29.7117L197.099 29.5227C197.099 28.6219 196.369 27.8917 195.468 27.8917L195.279 27.8917C194.389 27.8917 193.704 27.1046 193.827 26.2227C193.928 25.4979 194.548 24.9585 195.279 24.9585L198.033 24.9585Z" fill="#1090F9"/>
<path opacity="0.3" d="M248.044 69.6624C248.596 70.619 248.268 71.8421 247.312 72.3944L243.228 74.7522C242.176 75.3594 240.831 74.8969 240.374 73.7715L240.334 73.6719C239.959 72.7471 240.323 71.6874 241.187 71.1885L241.702 70.8913C242.659 70.3391 242.986 69.1159 242.434 68.1593L242.13 67.6318C241.522 66.5801 241.985 65.2345 243.11 64.7783L243.21 64.7379C244.135 64.363 245.194 64.7272 245.693 65.5914L248.044 69.6624Z" fill="#1090F9"/>
<path opacity="0.3" d="M150.182 210.017C150.734 210.974 150.406 212.197 149.45 212.749L145.366 215.107C144.314 215.714 142.968 215.252 142.512 214.127L142.472 214.027C142.097 213.102 142.461 212.042 143.325 211.543L143.84 211.246C144.797 210.694 145.124 209.471 144.572 208.514L144.267 207.987C143.66 206.935 144.123 205.589 145.248 205.133L145.348 205.093C146.273 204.718 147.332 205.082 147.831 205.946L150.182 210.017Z" fill="#1090F9"/>
<path opacity="0.3" d="M246.515 166.933C245.734 166.152 245.734 164.885 246.515 164.104L253.916 156.703C254.797 155.822 256.26 155.952 256.972 156.975L257.703 158.025C258.256 158.82 258.16 159.896 257.475 160.581L255.02 163.036C254.239 163.817 254.239 165.084 255.02 165.865L256.474 167.319C257.315 168.16 257.24 169.545 256.313 170.291L254.143 172.037C253.348 172.677 252.197 172.615 251.475 171.893L246.515 166.933Z" fill="#1090F9"/>
<rect x="62.7672" y="72.418" width="94.0377" height="136.454" rx="4" transform="rotate(-15 62.7672 72.418)" fill="white" stroke="#054375" stroke-width="2"/>
<rect opacity="0.14" x="64.1245" y="75.1616" width="89.6351" height="129.651" rx="1" transform="rotate(-15 64.1245 75.1616)" fill="#054375"/>
<rect x="50.025" y="65.0611" width="94.0377" height="136.454" rx="4" transform="rotate(-15 50.025 65.0611)" fill="white" stroke="#054375" stroke-width="2"/>
<path d="M100.5 200.735C100.446 200.75 100.378 200.743 100.319 200.709C100.211 200.647 100.172 200.5 100.234 200.392L103.482 194.766C103.545 194.658 103.692 194.619 103.799 194.681C103.907 194.743 103.947 194.89 103.884 194.998L100.636 200.624C100.602 200.683 100.554 200.721 100.5 200.735Z" fill="#054375"/>
<path d="M143.79 189.136C143.736 189.151 143.668 189.144 143.609 189.11C143.501 189.048 143.462 188.901 143.524 188.793L146.773 183.167C146.835 183.059 146.982 183.02 147.089 183.082C147.197 183.144 147.237 183.291 147.174 183.399L143.926 189.025C143.892 189.084 143.844 189.122 143.79 189.136Z" fill="#054375"/>
<path d="M122.146 194.935C122.092 194.95 122.024 194.943 121.965 194.909C121.857 194.847 121.818 194.7 121.88 194.592L125.128 188.966C125.191 188.858 125.338 188.819 125.445 188.881C125.553 188.943 125.593 189.09 125.53 189.198L122.282 194.824C122.248 194.883 122.2 194.921 122.146 194.935Z" fill="#054375"/>
<path d="M165.436 183.336C165.382 183.35 165.313 183.344 165.255 183.31C165.147 183.247 165.107 183.101 165.17 182.993L168.418 177.367C168.48 177.259 168.627 177.219 168.735 177.282C168.843 177.344 168.882 177.491 168.82 177.599L165.572 183.225C165.538 183.284 165.49 183.321 165.436 183.336Z" fill="#054375"/>
<path d="M105.912 199.285C105.858 199.3 105.79 199.293 105.731 199.259C105.623 199.197 105.584 199.05 105.646 198.942L108.894 193.316C108.956 193.208 109.103 193.169 109.211 193.231C109.319 193.294 109.358 193.44 109.296 193.548L106.048 199.174C106.014 199.233 105.966 199.271 105.912 199.285Z" fill="#054375"/>
<path d="M149.201 187.686C149.147 187.7 149.079 187.694 149.02 187.66C148.912 187.598 148.873 187.451 148.935 187.343L152.184 181.717C152.246 181.609 152.393 181.569 152.501 181.632C152.608 181.694 152.648 181.841 152.586 181.949L149.337 187.575C149.303 187.634 149.255 187.671 149.201 187.686Z" fill="#054375"/>
<path d="M127.556 193.486C127.502 193.5 127.434 193.494 127.375 193.46C127.267 193.397 127.228 193.25 127.29 193.143L130.538 187.516C130.6 187.409 130.747 187.369 130.855 187.431C130.963 187.494 131.002 187.641 130.94 187.748L127.692 193.375C127.658 193.433 127.61 193.471 127.556 193.486Z" fill="#054375"/>
<path d="M170.847 181.886C170.793 181.901 170.725 181.894 170.666 181.86C170.558 181.798 170.519 181.651 170.581 181.543L173.83 175.917C173.892 175.809 174.039 175.77 174.147 175.832C174.254 175.894 174.294 176.041 174.232 176.149L170.983 181.775C170.949 181.834 170.901 181.872 170.847 181.886Z" fill="#054375"/>
<path d="M111.323 197.835C111.269 197.85 111.201 197.843 111.142 197.809C111.034 197.747 110.995 197.6 111.057 197.492L114.305 191.866C114.367 191.758 114.514 191.719 114.622 191.781C114.73 191.843 114.769 191.99 114.707 192.098L111.459 197.724C111.425 197.783 111.377 197.821 111.323 197.835Z" fill="#054375"/>
<path d="M154.613 186.236C154.559 186.25 154.491 186.244 154.432 186.21C154.324 186.147 154.285 186 154.347 185.893L157.595 180.266C157.658 180.159 157.804 180.119 157.912 180.181C158.02 180.244 158.059 180.391 157.997 180.498L154.749 186.125C154.715 186.183 154.667 186.221 154.613 186.236Z" fill="#054375"/>
<path d="M132.967 192.036C132.913 192.05 132.845 192.044 132.786 192.01C132.678 191.948 132.639 191.801 132.701 191.693L135.949 186.067C136.012 185.959 136.158 185.92 136.266 185.982C136.374 186.044 136.413 186.191 136.351 186.299L133.103 191.925C133.069 191.984 133.021 192.021 132.967 192.036Z" fill="#054375"/>
<path d="M176.259 180.436C176.205 180.45 176.137 180.444 176.078 180.41C175.97 180.347 175.931 180.201 175.993 180.093L183.47 167.141C183.532 167.034 183.679 166.994 183.787 167.057C183.895 167.119 183.934 167.266 183.872 167.373L176.395 180.325C176.361 180.384 176.313 180.421 176.259 180.436Z" fill="#054375"/>
<path d="M116.734 196.386C116.68 196.4 116.612 196.393 116.553 196.359C116.446 196.297 116.406 196.15 116.469 196.043L119.717 190.416C119.779 190.309 119.926 190.269 120.034 190.331C120.142 190.394 120.181 190.541 120.119 190.648L116.87 196.275C116.837 196.333 116.789 196.371 116.734 196.386Z" fill="#054375"/>
<path d="M160.025 184.786C159.97 184.8 159.902 184.794 159.844 184.76C159.736 184.698 159.696 184.551 159.759 184.443L163.007 178.817C163.069 178.709 163.216 178.67 163.324 178.732C163.432 178.794 163.471 178.941 163.409 179.049L160.16 184.675C160.127 184.734 160.079 184.771 160.025 184.786Z" fill="#054375"/>
<path d="M138.379 190.586C138.324 190.6 138.256 190.594 138.198 190.56C138.09 190.497 138.05 190.351 138.113 190.243L141.361 184.617C141.423 184.509 141.57 184.469 141.678 184.532C141.786 184.594 141.825 184.741 141.763 184.849L138.515 190.475C138.481 190.534 138.433 190.571 138.379 190.586Z" fill="#054375"/>
<path d="M181.67 178.986C181.616 179 181.548 178.994 181.489 178.96C181.381 178.897 181.342 178.75 181.404 178.643L184.653 173.016C184.715 172.909 184.862 172.869 184.97 172.931C185.077 172.994 185.117 173.141 185.055 173.248L181.806 178.875C181.772 178.933 181.724 178.971 181.67 178.986Z" fill="#054375"/>
<path d="M178.897 168.636C178.843 168.65 178.775 168.643 178.716 168.609C178.608 168.547 178.569 168.4 178.631 168.293L181.879 162.666C181.941 162.559 182.088 162.519 182.196 162.581C182.304 162.644 182.343 162.791 182.281 162.898L179.033 168.525C178.999 168.583 178.951 168.621 178.897 168.636Z" fill="#054375"/>
<path d="M167.711 126.891C167.657 126.906 167.589 126.899 167.53 126.865C167.422 126.803 167.383 126.656 167.445 126.548L170.693 120.922C170.756 120.814 170.903 120.775 171.01 120.837C171.118 120.899 171.158 121.046 171.095 121.154L167.847 126.78C167.813 126.839 167.765 126.877 167.711 126.891Z" fill="#054375"/>
<path d="M158.47 92.4046C158.416 92.4191 158.348 92.4125 158.289 92.3785C158.182 92.3163 158.142 92.1694 158.204 92.0616L161.453 86.4354C161.515 86.3275 161.662 86.2882 161.77 86.3504C161.877 86.4127 161.917 86.5596 161.855 86.6674L158.606 92.2936C158.572 92.3524 158.524 92.3901 158.47 92.4046Z" fill="#054375"/>
<path d="M173.104 147.015C173.05 147.03 172.981 147.023 172.923 146.989C172.815 146.927 172.775 146.78 172.838 146.672L176.086 141.046C176.148 140.938 176.295 140.899 176.403 140.961C176.511 141.024 176.55 141.17 176.488 141.278L173.24 146.904C173.206 146.963 173.158 147.001 173.104 147.015Z" fill="#054375"/>
<path d="M161.918 105.271C161.864 105.286 161.796 105.279 161.737 105.245C161.629 105.183 161.59 105.036 161.652 104.928L164.9 99.3021C164.963 99.1942 165.11 99.1549 165.217 99.2171C165.325 99.2794 165.365 99.4263 165.302 99.5341L162.054 105.16C162.02 105.219 161.972 105.257 161.918 105.271Z" fill="#054375"/>
<path d="M153.012 72.0306C152.958 72.0451 152.89 72.0385 152.831 72.0045C152.723 71.9423 152.684 71.7954 152.746 71.6876L155.994 66.0613C156.056 65.9535 156.203 65.9142 156.311 65.9764C156.419 66.0387 156.458 66.1855 156.396 66.2934L153.148 71.9196C153.114 71.9784 153.066 72.0161 153.012 72.0306Z" fill="#054375"/>
<path d="M176.966 161.428C176.912 161.443 176.843 161.436 176.785 161.402C176.677 161.34 176.638 161.193 176.7 161.085L179.948 155.459C180.01 155.351 180.157 155.312 180.265 155.374C180.373 155.436 180.412 155.583 180.35 155.691L177.102 161.317C177.068 161.376 177.02 161.414 176.966 161.428Z" fill="#054375"/>
<path d="M165.78 119.684C165.726 119.699 165.658 119.692 165.599 119.658C165.492 119.596 165.452 119.449 165.514 119.341L168.763 113.715C168.825 113.607 168.972 113.568 169.08 113.63C169.188 113.692 169.227 113.839 169.165 113.947L165.916 119.573C165.882 119.632 165.834 119.67 165.78 119.684Z" fill="#054375"/>
<path d="M156.873 86.4432C156.819 86.4577 156.751 86.4511 156.692 86.4171C156.584 86.3549 156.545 86.208 156.607 86.1002L159.856 80.4739C159.918 80.3661 160.065 80.3268 160.173 80.389C160.28 80.4513 160.32 80.5981 160.257 80.706L157.009 86.3322C156.975 86.391 156.927 86.4287 156.873 86.4432Z" fill="#054375"/>
<path d="M171.173 139.81C171.119 139.824 171.051 139.818 170.992 139.784C170.884 139.722 170.845 139.575 170.907 139.467L174.155 133.841C174.217 133.733 174.364 133.693 174.472 133.756C174.58 133.818 174.619 133.965 174.557 134.073L171.309 139.699C171.275 139.758 171.227 139.795 171.173 139.81Z" fill="#054375"/>
<path d="M159.987 98.0657C159.933 98.0802 159.865 98.0736 159.806 98.0397C159.699 97.9774 159.659 97.8305 159.721 97.7227L162.97 92.0965C163.032 91.9887 163.179 91.9493 163.287 92.0116C163.395 92.0738 163.434 92.2207 163.372 92.3285L160.123 97.9547C160.089 98.0135 160.042 98.0512 159.987 98.0657Z" fill="#054375"/>
<path d="M151.081 64.825C151.027 64.8395 150.958 64.8329 150.9 64.7989C150.792 64.7367 150.752 64.5898 150.815 64.482L154.063 58.8558C154.125 58.748 154.272 58.7086 154.38 58.7708C154.488 58.8331 154.527 58.98 154.465 59.0878L151.217 64.714C151.183 64.7728 151.135 64.8105 151.081 64.825Z" fill="#054375"/>
<path d="M175.035 154.222C174.981 154.237 174.913 154.23 174.854 154.196C174.746 154.134 174.707 153.987 174.769 153.879L178.017 148.253C178.079 148.145 178.226 148.106 178.334 148.168C178.442 148.231 178.481 148.377 178.419 148.485L175.171 154.111C175.137 154.17 175.089 154.208 175.035 154.222Z" fill="#054375"/>
<path d="M163.85 112.479C163.796 112.493 163.728 112.487 163.669 112.453C163.561 112.391 163.522 112.244 163.584 112.136L166.832 106.51C166.894 106.402 167.041 106.362 167.149 106.425C167.257 106.487 167.296 106.634 167.234 106.742L163.986 112.368C163.952 112.427 163.904 112.464 163.85 112.479Z" fill="#054375"/>
<path d="M154.942 79.2376C154.888 79.2521 154.82 79.2455 154.761 79.2115C154.654 79.1493 154.614 79.0024 154.677 78.8946L157.925 73.2684C157.987 73.1606 158.134 73.1212 158.242 73.1834C158.35 73.2457 158.389 73.3926 158.327 73.5004L155.078 79.1266C155.045 79.1854 154.997 79.2231 154.942 79.2376Z" fill="#054375"/>
<path d="M169.242 132.602C169.187 132.617 169.119 132.61 169.061 132.576C168.953 132.514 168.913 132.367 168.976 132.259L172.224 126.633C172.286 126.525 172.433 126.486 172.541 126.548C172.649 126.61 172.688 126.757 172.626 126.865L169.378 132.491C169.344 132.55 169.296 132.588 169.242 132.602Z" fill="#054375"/>
<path d="M149.15 57.6175C149.095 57.632 149.027 57.6254 148.969 57.5914C148.861 57.5292 148.821 57.3823 148.884 57.2745L152.132 51.6483C152.194 51.5404 152.341 51.5011 152.449 51.5633C152.557 51.6256 152.596 51.7725 152.534 51.8803L149.285 57.5065C149.252 57.5653 149.204 57.603 149.15 57.6175Z" fill="#054375"/>
<path d="M118.545 57.9778L62.5996 72.9683L64.0164 78.2559L119.962 63.2654L118.545 57.9778Z" fill="#7CDDFD"/>
<path d="M120.144 63.9459L64.1993 78.9364C63.8282 79.0358 63.446 78.8151 63.3465 78.4441L61.9297 73.1564C61.8303 72.7854 62.051 72.4031 62.4221 72.3037L118.367 57.3132C118.738 57.2138 119.121 57.4345 119.22 57.8056L120.637 63.0932C120.736 63.4642 120.516 63.8465 120.144 63.9459ZM64.5192 77.409L119.119 62.779L118.063 58.8364L63.4628 73.4665L64.5192 77.409Z" fill="#054375"/>
<path d="M128.695 95.8567L72.7495 110.847L74.1663 116.135L130.112 101.144L128.695 95.8567Z" fill="#7CDDFD"/>
<path d="M130.294 101.825L74.3492 116.815C73.9781 116.915 73.5959 116.694 73.4964 116.323L72.0796 111.035C71.9802 110.664 72.2009 110.282 72.572 110.183L128.517 95.1921C128.888 95.0927 129.27 95.3134 129.37 95.6845L130.787 100.972C130.886 101.343 130.665 101.725 130.294 101.825ZM74.6691 115.288L129.269 100.658L128.213 96.7154L73.6127 111.345L74.6691 115.288Z" fill="#054375"/>
<path d="M100.352 76.382L65.9829 85.5913L67.3997 90.8789L101.769 81.6697L100.352 76.382Z" fill="white"/>
<path d="M101.957 82.3409L67.588 91.5502C67.2169 91.6496 66.8346 91.4289 66.7352 91.0578L65.3184 85.7702C65.219 85.3991 65.4397 85.0169 65.8107 84.9174L100.18 75.7082C100.551 75.6087 100.934 75.8294 101.033 76.2005L102.45 81.4881C102.549 81.8592 102.329 82.2415 101.957 82.3409ZM67.9001 90.0249L100.924 81.176L99.8681 77.2335L66.8437 86.0824L67.9001 90.0249Z" fill="#054375"/>
<path d="M110.502 114.262L76.1323 123.472L77.5491 128.759L111.919 119.55L110.502 114.262Z" fill="white"/>
<path d="M112.107 120.221L77.7379 129.431C77.3668 129.53 76.9845 129.309 76.8851 128.938L75.4683 123.651C75.3689 123.28 75.5896 122.897 75.9606 122.798L110.33 113.589C110.701 113.489 111.084 113.71 111.183 114.081L112.6 119.369C112.699 119.74 112.478 120.122 112.107 120.221ZM78.05 127.905L111.074 119.056L110.018 115.114L76.9936 123.963L78.05 127.905Z" fill="#054375"/>
<path d="M125.307 83.2185L69.3623 98.209L70.7791 103.497L126.724 88.5061L125.307 83.2185Z" fill="#7CDDFD"/>
<path d="M126.906 89.1793L70.9605 104.17C70.5895 104.269 70.2072 104.049 70.1078 103.677L68.6909 98.3898C68.5915 98.0188 68.8122 97.6365 69.1833 97.5371L125.128 82.5466C125.5 82.4472 125.882 82.6679 125.981 83.0389L127.398 88.3266C127.497 88.6976 127.277 89.0799 126.906 89.1793ZM71.2804 102.642L125.88 88.0124L124.824 84.0698L70.224 98.6999L71.2804 102.642Z" fill="#054375"/>
<path d="M135.457 121.097L79.5122 136.088L80.929 141.376L136.874 126.385L135.457 121.097Z" fill="#7CDDFD"/>
<path d="M137.056 127.058L81.1104 142.048C80.7394 142.148 80.3571 141.927 80.2577 141.556L78.8409 136.268C78.7414 135.897 78.9621 135.515 79.3332 135.415L135.278 120.425C135.649 120.326 136.032 120.546 136.131 120.917L137.548 126.205C137.647 126.576 137.427 126.958 137.056 127.058ZM81.4303 140.521L136.03 125.891L134.974 121.948L80.3739 136.578L81.4303 140.521Z" fill="#054375"/>
<rect opacity="0.1" x="244" y="117.513" width="82.044" height="56.5303" transform="rotate(98.4748 244 117.513)" fill="#02223B"/>
<path d="M217.407 188.163L227.323 121.611L182.295 114.902L172.379 181.454L217.407 188.163Z" fill="white"/>
<rect x="239.693" y="110.418" width="81.925" height="55.6837" transform="rotate(99.1388 239.693 110.418)" fill="#DAF0BC"/>
<rect x="197.608" y="114.112" width="26.2934" height="32.5174" transform="rotate(8.4748 197.608 114.112)" fill="#EDF7DE"/>
<path d="M204.715 148.021L204.716 148.021C205.797 148.204 206.886 148.37 207.992 148.487C208.369 148.529 208.743 148.569 209.116 148.609C209.848 148.688 210.573 148.766 211.303 148.855L211.315 148.857L211.327 148.858C211.354 148.86 211.383 148.863 211.426 148.869L211.43 148.869C211.469 148.874 211.521 148.881 211.576 148.885L212.34 148.953L212.439 148.2C212.56 147.275 212.684 146.331 212.808 145.386C212.932 144.443 213.055 143.501 213.176 142.578L213.176 142.578C213.549 139.736 213.947 136.677 213.339 133.805L213.339 133.805C213.19 133.097 212.94 132.249 212.347 131.621C211.633 130.863 210.624 130.657 209.672 130.792C208.729 130.926 207.785 131.397 207.069 132.08C205.711 133.376 205.035 135.207 204.491 136.763C203.343 140.037 202.316 143.346 201.396 146.676L201.19 147.421L201.947 147.56C202.501 147.661 203.074 147.754 203.636 147.844C204.003 147.903 204.365 147.961 204.715 148.021Z" fill="#BDEEFE" stroke="#0864B0" stroke-width="1.5"/>
<path opacity="0.12" d="M216.476 125.669C216.307 125.371 215.824 125.502 215.756 125.856C215.679 126.227 215.145 127.051 214.816 127.665C214.103 128.873 212.95 129.753 211.276 130.274C210.722 130.405 209.419 130.49 208.297 130.278C208.056 130.235 207.721 130.07 207.189 129.857C207.056 129.795 206.894 129.787 206.748 129.853C206.276 130.032 206.196 130.78 206.634 130.972C208.395 131.944 210.679 131.895 212.644 131.119C213.456 130.693 214.303 130.201 214.817 129.368C214.806 129.396 214.729 129.496 214.756 129.471C215.13 129.046 215.453 128.578 215.729 128.079C216.023 127.619 216.285 126.788 216.339 126.549C216.413 126.266 216.629 125.934 216.476 125.669Z" fill="#0864B0"/>
<path opacity="0.12" d="M211.754 135.049C211.696 135.796 211.713 135.816 211.598 136.856C211.56 137.083 211.507 137.307 211.464 137.534C211.475 137.507 211.489 137.464 211.502 137.426C211.342 138.134 211.354 138.887 211.221 139.611C210.781 141.992 210.372 144.372 209.918 146.75C209.847 147.131 209.781 147.513 209.715 147.895C210.349 147.965 210.987 148.042 211.624 148.119C211.644 148.122 211.669 148.126 211.688 148.13C212.053 146.22 212.379 144.305 212.649 142.386C213.043 139.627 213.266 138.076 213.223 136.845C213.328 135.656 213.244 135.027 213.16 134.609C213.052 133.88 212.783 133.209 212.459 132.587C212.283 132.296 212.195 131.849 211.833 131.789C211.376 131.696 210.97 132.34 211.232 132.754C211.806 133.896 211.752 134.172 211.754 135.049Z" fill="#0864B0"/>
<path d="M209.302 132.226C208.532 132.105 207.777 131.841 207.086 131.436C206.627 131.172 206.295 130.898 206.029 130.589C205.482 129.95 205.166 129.051 205.063 127.848C204.997 127.104 205.026 126.445 205.154 125.825C205.305 125.075 205.611 124.309 206.094 123.477C206.909 122.074 207.961 120.959 209.134 120.247C210.48 119.434 211.995 119.171 213.284 119.531C214.543 119.88 215.582 121.044 216.13 122.712C216.561 124.019 216.596 125.573 216.233 127.198C216.088 127.844 215.905 128.397 215.674 128.879C214.921 130.437 213.409 131.677 211.727 132.112C210.947 132.321 210.115 132.353 209.302 132.226Z" stroke="#0864B0" stroke-width="1.5"/>
<rect x="197.608" y="114.112" width="26.2934" height="32.5174" transform="rotate(8.4748 197.608 114.112)" stroke="#C7E89B" stroke-width="1.5"/>
<rect x="192.872" y="150.777" width="24.9309" height="28.7067" transform="rotate(8.4748 192.872 150.777)" fill="#EDF7DE" stroke="#C7E89B" stroke-width="1.5"/>
<path d="M196.068 171.662C196.924 170.434 197.483 169.025 197.701 167.545C197.809 166.826 198.076 166.139 198.484 165.537C198.892 164.935 199.43 164.432 200.058 164.065" stroke="#0864B0" stroke-width="1.5" stroke-linecap="round" stroke-linejoin="round"/>
<path d="M202.498 168.26C202.138 170.699 201.161 173.006 199.66 174.963" stroke="#0864B0" stroke-width="1.5" stroke-linecap="round" stroke-linejoin="round"/>
<path d="M200.099 167.902C200.194 167.266 200.538 166.693 201.055 166.311C201.572 165.928 202.219 165.766 202.855 165.861C203.492 165.956 204.064 166.299 204.447 166.816C204.83 167.333 204.992 167.981 204.897 168.617C204.533 171.09 203.624 173.452 202.235 175.53" stroke="#0864B0" stroke-width="1.5" stroke-linecap="round" stroke-linejoin="round"/>
<path d="M208.664 173.469C209.138 172.126 209.483 170.741 209.694 169.332C209.978 167.424 209.493 165.48 208.345 163.93C207.196 162.379 205.479 161.348 203.57 161.064C201.662 160.779 199.718 161.265 198.168 162.413C196.617 163.562 195.586 165.279 195.302 167.188C195.182 168.005 194.922 168.796 194.532 169.525" stroke="#0864B0" stroke-width="1.5" stroke-linecap="round" stroke-linejoin="round"/>
<path d="M199.502 170.265C199.055 171.488 198.417 172.632 197.61 173.654" stroke="#0864B0" stroke-width="1.5" stroke-linecap="round" stroke-linejoin="round"/>
<path d="M202.608 163.411C202.81 163.416 203.012 163.434 203.213 163.462C204.485 163.652 205.63 164.339 206.396 165.373C207.161 166.407 207.485 167.702 207.295 168.975C207.175 169.776 207.006 170.57 206.788 171.351" stroke="#0864B0" stroke-width="1.5" stroke-linecap="round" stroke-linejoin="round"/>
<path d="M205.973 173.681C205.795 174.107 205.602 174.53 205.396 174.936" stroke="#0864B0" stroke-width="1.5" stroke-linecap="round" stroke-linejoin="round"/>
<rect x="239.904" y="111.853" width="80.8102" height="56.5303" transform="rotate(98.4748 239.904 111.853)" stroke="#C7E89B" stroke-width="1.5" stroke-linecap="round"/>
<rect opacity="0.1" x="152.624" y="42.187" width="79.4105" height="54.7158" transform="rotate(4.75474 152.624 42.187)" fill="#02223B"/>
<path d="M222.09 53.559L157.188 48.1606L153.536 92.0722L218.438 97.4705L222.09 53.559Z" fill="white"/>
<rect x="145.041" y="34.6899" width="79.4105" height="54.7158" transform="rotate(4.75474 145.041 34.6899)" fill="#DAF0BC"/>
<path d="M222.09 53.559L157.188 48.1606L153.536 92.0722L218.438 97.4705L222.09 53.559Z" fill="#EDF7DE"/>
<path d="M173.037 87.0287L173.039 87.0288C173.979 87.1164 174.928 87.1901 175.888 87.2191C176.215 87.2311 176.539 87.2418 176.861 87.2524C177.494 87.2733 178.12 87.294 178.752 87.3235L178.764 87.3241L178.777 87.3243C178.797 87.3246 178.82 87.3256 178.858 87.3275L178.862 87.3276C178.896 87.3293 178.943 87.3315 178.992 87.3322L179.759 87.3432L179.802 86.5845C179.848 85.749 179.893 84.9495 179.938 84.15C179.983 83.349 180.028 82.548 180.075 81.711L180.075 81.7108C180.212 79.2502 180.36 76.5807 179.649 74.135L179.649 74.135C179.475 73.533 179.2 72.7987 178.63 72.2795C177.94 71.6479 177.024 71.5333 176.19 71.7156C175.365 71.8962 174.564 72.3739 173.978 73.0226C172.874 74.2448 172.406 75.886 172.039 77.2535C171.263 80.1401 170.592 83.0492 170.015 85.9696L169.865 86.7277L170.63 86.8098C171.113 86.8616 171.613 86.9043 172.103 86.946C172.422 86.9732 172.736 87 173.037 87.0287Z" fill="#BDEEFE" stroke="#054375" stroke-width="1.5"/>
<path opacity="0.12" d="M181.72 66.9827C181.556 66.7381 181.15 66.881 181.114 67.1898C181.071 67.5132 180.666 68.2546 180.423 68.803C179.888 69.8859 178.955 70.715 177.551 71.2696C177.084 71.4176 175.97 71.5734 174.994 71.4638C174.783 71.4416 174.485 71.3219 174.015 71.173C173.897 71.1281 173.757 71.1319 173.636 71.1974C173.243 71.3816 173.222 72.0286 173.61 72.1658C175.184 72.8872 177.141 72.6995 178.78 71.9076C179.449 71.4894 180.145 71.013 180.533 70.2652C180.525 70.2896 180.465 70.3803 180.487 70.357C180.781 69.9685 181.028 69.5462 181.233 69.1002C181.456 68.6859 181.628 67.9557 181.659 67.747C181.705 67.4993 181.869 67.201 181.72 66.9827Z" fill="#0864B0"/>
<path opacity="0.12" d="M178.267 75.3381C178.265 75.9836 178.28 75.9995 178.249 76.8995C178.23 77.0969 178.2 77.2932 178.177 77.4902C178.185 77.4666 178.194 77.4286 178.203 77.3954C178.11 78.0134 178.169 78.6594 178.101 79.2892C177.876 81.3612 177.677 83.4307 177.439 85.5016C177.403 85.8333 177.371 86.1654 177.338 86.4975C177.887 86.5175 178.44 86.5428 178.992 86.568C179.009 86.5696 179.03 86.5715 179.047 86.573C179.238 84.9105 179.396 83.245 179.505 81.5801C179.666 79.1868 179.758 77.8407 179.643 76.7867C179.657 75.7589 179.544 75.2245 179.446 74.871C179.306 74.2516 179.033 73.6932 178.715 73.1792C178.545 72.9407 178.441 72.5624 178.126 72.5342C177.727 72.4839 177.421 73.0632 177.672 73.4013C178.238 74.3452 178.209 74.5854 178.267 75.3381Z" fill="#0864B0"/>
<rect width="25.4403" height="29.7919" transform="matrix(0.996917 0.0784582 -0.0875698 0.996158 163.997 56.501)" stroke="#C7E89B" stroke-width="1.5" stroke-linecap="round"/>
<rect width="20.8122" height="13.2126" transform="matrix(0.996917 0.0784582 -0.0875698 0.996158 193.938 75.2769)" stroke="#C7E89B" stroke-width="1.5" stroke-linecap="round"/>
<line x1="196.011" y1="60.4778" x2="215.264" y2="62.0793" stroke="#C7E89B" stroke-width="1.5" stroke-linecap="round"/>
<line x1="195.337" y1="68.5745" x2="214.59" y2="70.1759" stroke="#C7E89B" stroke-width="1.5" stroke-linecap="round"/>
<rect x="146.973" y="36.6216" width="77.6507" height="53.9258" transform="rotate(4.75474 146.973 36.6216)" stroke="#C7E89B" stroke-width="1.5" stroke-linecap="round"/>
<circle cx="177.555" cy="66.7314" r="4.25" stroke="#054375" stroke-width="1.5"/>
<circle opacity="0.1" cx="162.774" cy="117.593" r="42.3127" fill="#02223B"/>
<circle cx="160.774" cy="113.406" r="41.3127" fill="white" stroke="#054375" stroke-width="2"/>
<path d="M142.221 77.5902C142.167 77.6047 142.099 77.598 142.04 77.5641C141.932 77.5018 141.893 77.355 141.955 77.2471L145.204 71.6209C145.266 71.5131 145.413 71.4737 145.521 71.536C145.628 71.5982 145.668 71.7451 145.606 71.8529L142.357 77.4792C142.323 77.538 142.275 77.5757 142.221 77.5902Z" fill="#054375"/>
<g opacity="0.15">
<path d="M153.285 108.308C154.17 107.423 155.607 107.423 156.493 108.308L161.694 113.51L166.896 108.308C167.782 107.423 169.218 107.423 170.104 108.308C170.99 109.194 170.99 110.631 170.104 111.517L164.902 116.718L170.104 121.92C170.99 122.806 170.99 124.242 170.104 125.128C169.218 126.014 167.782 126.014 166.896 125.128L161.694 119.926L156.493 125.128C155.607 126.014 154.17 126.014 153.285 125.128C152.399 124.242 152.399 122.806 153.285 121.92L158.486 116.718L153.285 111.517C152.399 110.631 152.399 109.194 153.285 108.308Z" fill="#900C15"/>
<path fill-rule="evenodd" clip-rule="evenodd" d="M139.009 100.838C139.009 97.0797 142.056 94.0327 145.814 94.0327H177.574C181.333 94.0327 184.38 97.0797 184.38 100.838V132.598C184.38 136.357 181.333 139.404 177.574 139.404H145.814C142.056 139.404 139.009 136.357 139.009 132.598V100.838ZM145.814 98.5698C144.562 98.5698 143.546 99.5855 143.546 100.838V132.598C143.546 133.851 144.562 134.867 145.814 134.867H177.574C178.827 134.867 179.843 133.851 179.843 132.598V100.838C179.843 99.5855 178.827 98.5698 177.574 98.5698H145.814Z" fill="#900C15"/>
</g>
<path d="M152.285 106.308C153.17 105.423 154.607 105.423 155.493 106.308L160.694 111.51L165.896 106.308C166.782 105.423 168.218 105.423 169.104 106.308C169.99 107.194 169.99 108.631 169.104 109.517L163.902 114.718L169.104 119.92C169.99 120.806 169.99 122.242 169.104 123.128C168.218 124.014 166.782 124.014 165.896 123.128L160.694 117.926L155.493 123.128C154.607 124.014 153.17 124.014 152.285 123.128C151.399 122.242 151.399 120.806 152.285 119.92L157.486 114.718L152.285 109.517C151.399 108.631 151.399 107.194 152.285 106.308Z" fill="#D0333D"/>
<path fill-rule="evenodd" clip-rule="evenodd" d="M138.009 98.8383C138.009 95.0797 141.056 92.0327 144.814 92.0327H176.574C180.333 92.0327 183.38 95.0797 183.38 98.8383V130.598C183.38 134.357 180.333 137.404 176.574 137.404H144.814C141.056 137.404 138.009 134.357 138.009 130.598V98.8383ZM144.814 96.5698C143.562 96.5698 142.546 97.5855 142.546 98.8383V130.598C142.546 131.851 143.562 132.867 144.814 132.867H176.574C177.827 132.867 178.843 131.851 178.843 130.598V98.8383C178.843 97.5855 177.827 96.5698 176.574 96.5698H144.814Z" fill="#D0333D"/>
</svg>
