<svg width="320" height="408" viewBox="0 0 320 408" fill="none" xmlns="http://www.w3.org/2000/svg">
<g clip-path="url(#clip0_656_9791)">
<path opacity="0.3" d="M402.527 203.89C404.09 202.329 404.09 199.798 402.527 198.237L211.285 7.24871C209.566 5.53216 206.725 5.72937 205.26 7.66687L132.961 103.313C131.758 104.905 131.914 107.138 133.325 108.548L222.931 198.035C224.494 199.596 224.494 202.127 222.931 203.688L121.828 304.658C120.109 306.374 120.306 309.21 122.244 310.674L218.195 383.103C219.789 384.306 222.026 384.151 223.439 382.741L402.527 203.89Z" fill="#1090F9"/>
<path opacity="0.3" d="M401.669 213.259C402.841 214.43 402.841 216.328 401.669 217.499L222.581 396.35C221.522 397.408 219.843 397.524 218.648 396.621L122.697 324.192C121.244 323.094 121.096 320.967 122.385 319.68L223.488 218.711C225.442 216.759 225.442 213.595 223.488 211.644L133.883 122.157C132.824 121.1 132.707 119.424 133.609 118.231L205.909 22.5844C207.007 21.1313 209.138 20.9834 210.427 22.2708L401.669 213.259Z" stroke="#05BDFB" stroke-width="2"/>
<path opacity="0.3" d="M300.244 28.6528C301.349 28.6528 302.244 29.5483 302.244 30.6528L302.244 37.237C302.244 38.4499 301.173 39.3836 299.971 39.2183L298.953 39.0781C297.963 38.9419 297.225 38.096 297.225 37.0968L297.225 35.6088C297.225 34.5042 296.33 33.6088 295.225 33.6088L293.53 33.6088C292.315 33.6088 291.38 32.5331 291.55 31.3293L291.685 30.3734C291.824 29.3866 292.669 28.6528 293.665 28.6528L300.244 28.6528Z" fill="#1090F9"/>
<path opacity="0.3" d="M217.653 342.529C218.21 343.483 217.884 344.7 216.925 345.247L207.304 350.732C206.249 351.333 204.895 350.869 204.434 349.746L203.301 346.985C202.923 346.064 203.286 345.011 204.152 344.517L207.327 342.707C208.287 342.16 208.612 340.943 208.055 339.99L206.025 336.518C205.413 335.471 205.873 334.133 207.001 333.681L209.821 332.553C210.749 332.181 211.816 332.546 212.32 333.408L217.653 342.529Z" fill="#1090F9"/>
<path d="M68.8265 240.903C85.7882 244.372 84.8887 211.83 82.3188 195.125V177.537C82.3188 168.07 44.0104 160.19 39.1917 159.226C34.3731 158.263 31 160.672 31 169.586C31 176.718 37.4249 199.864 40.6373 210.545C42.9664 219.219 51.8648 237.433 68.8265 240.903Z" fill="#40CDFC" stroke="#054375" stroke-width="2"/>
<path d="M93.8843 149.107C85.9817 149.3 55.0941 156.094 40.6381 159.467L62.3221 165.731C70.7547 168.623 79.5729 172.959 81.1149 173.923C83.0423 175.128 104.967 169.827 109.063 168.141C113.159 166.454 133.397 157.299 147.612 157.299C161.828 157.299 170.501 168.864 172.91 171.032C175.32 173.2 187.366 181.874 193.149 172.719C198.931 163.563 187.366 160.913 182.548 158.744C177.729 156.576 157.973 149.108 142.312 149.107C138.338 149.107 103.763 148.866 93.8843 149.107Z" fill="#03A7DD" stroke="#054375" stroke-width="2"/>
<path d="M49.7916 172.719L66.6567 180.429C73.7883 183.705 77.2578 191.03 77.2578 198.981C77.2578 206.932 76.8724 212.81 76.2942 222.833C75.5714 235.362 70.9935 235.121 68.8251 235.121C63.2836 235.121 56.2966 228.375 50.7551 221.388C43.4939 212.232 39.4312 189.102 37.7447 178.501C36.3955 170.02 45.5351 171.273 49.7916 172.719Z" fill="white" stroke="#054375" stroke-width="2"/>
<path d="M83.2826 177.297C84.2463 177.489 90.4303 179.304 93.4018 180.188L95.8111 200.908C95.008 199.703 92.7271 196.619 90.0287 193.921C87.3302 191.222 83.7644 193.439 82.3188 194.885C82.2385 188.942 82.3188 177.104 83.2826 177.297Z" fill="#40CDFC" stroke="#054375" stroke-width="2"/>
<path d="M102.316 225.242C97.5591 213.112 93.7229 190.307 93.4016 179.947C99.184 173.201 148.816 179.947 178.692 179.947H189.293L190.98 202.354C187.366 203.639 180.186 207.895 180.379 214.641C180.619 223.074 180.379 257.287 149.539 258.25C118.7 259.214 107.135 237.53 102.316 225.242Z" fill="#40CDFC" stroke="#054375" stroke-width="2"/>
<path d="M190.979 202.355L189.534 179.948C200.536 176.896 228.276 168.913 251.213 162.36C279.884 154.168 284.943 165.733 288.316 173.683C291.015 180.044 284.943 185.65 281.57 187.658C279.482 182.919 276.029 171.515 270.969 170.551C265.849 169.576 247.009 188.46 235.793 193.199C218.687 200.427 204.953 200.106 190.979 202.355Z" fill="#7CDDFD" stroke="#054375" stroke-width="2"/>
<path d="M159.179 191.27C149.06 185.97 136.692 184.685 130.026 184.524C120.63 184.524 101.838 184.765 100.874 189.343C98.8946 198.739 101.594 204.035 109.305 226.682C116.57 248.023 135.278 253.034 153.638 251.504C162.31 250.781 172.02 243.794 171.949 237.77C171.868 231.024 171.563 215.797 170.985 208.858C170.262 200.185 166.48 195.094 159.179 191.27Z" fill="white" stroke="#054375" stroke-width="2"/>
<path d="M75.3329 225.238C67.2376 230.056 51.2396 213.673 44.0116 204.517C47.3847 213.914 48.8303 221.624 62.5635 231.984C71.8674 239.002 74.8511 231.261 75.3329 225.238Z" fill="#D7DEE5"/>
<path d="M145.685 251.018C124.242 250.536 114.123 237.365 111.472 230.056C118.379 235.919 135.373 243.452 146.167 243.067C156.961 242.681 167.449 240.979 171.224 237.766C171.224 242.103 164.968 251.451 145.685 251.018Z" fill="#D7DEE5"/>
<path d="M120.948 225.238C120.872 225.238 120.784 225.205 120.718 225.139C120.597 225.018 120.597 224.81 120.718 224.689L138.398 207.017C138.519 206.897 138.727 206.897 138.848 207.017C138.969 207.138 138.969 207.346 138.848 207.467L121.168 225.139C121.102 225.205 121.025 225.238 120.948 225.238Z" fill="#054375"/>
<path d="M52.3871 208.854C52.3427 208.854 52.2919 208.826 52.2538 208.77C52.184 208.669 52.184 208.493 52.2538 208.392L62.4898 193.51C62.5596 193.408 62.6803 193.408 62.7501 193.51C62.8199 193.612 62.8199 193.787 62.7501 193.889L52.5141 208.77C52.476 208.826 52.4316 208.854 52.3871 208.854Z" fill="#054375"/>
<path d="M132.032 227.647C131.955 227.647 131.867 227.614 131.802 227.549C131.681 227.428 131.681 227.22 131.802 227.099L149.482 209.427C149.602 209.306 149.811 209.306 149.932 209.427C150.052 209.548 150.052 209.756 149.932 209.877L132.251 227.549C132.185 227.614 132.109 227.647 132.032 227.647Z" fill="#054375"/>
<path d="M59.1343 210.782C59.0899 210.782 59.0391 210.754 59.001 210.699C58.9311 210.597 58.9311 210.422 59.001 210.32L69.237 195.438C69.3068 195.337 69.4275 195.337 69.4973 195.438C69.5671 195.54 69.5671 195.715 69.4973 195.817L59.2613 210.699C59.2232 210.754 59.1788 210.782 59.1343 210.782Z" fill="#054375"/>
<path d="M118.535 218.492C118.459 218.492 118.372 218.458 118.307 218.391C118.187 218.269 118.187 218.057 118.307 217.935L128.763 207.019C128.883 206.896 129.09 206.896 129.21 207.019C129.33 207.141 129.33 207.353 129.21 207.475L118.753 218.391C118.688 218.458 118.612 218.492 118.535 218.492Z" fill="#054375"/>
<path d="M50.95 203.071C50.9036 203.071 50.8505 203.043 50.8107 202.988C50.7377 202.886 50.7377 202.709 50.8107 202.607L57.1754 193.51C57.2484 193.408 57.3744 193.408 57.4474 193.51C57.5204 193.612 57.5204 193.789 57.4474 193.891L51.0827 202.988C51.0429 203.043 50.9965 203.071 50.95 203.071Z" fill="#054375"/>
<path d="M142.644 228.129C142.565 228.129 142.474 228.097 142.406 228.033C142.28 227.916 142.28 227.713 142.406 227.596L153.316 217.134C153.442 217.017 153.658 217.017 153.783 217.134C153.908 217.252 153.908 217.454 153.783 217.572L142.872 228.033C142.804 228.097 142.724 228.129 142.644 228.129Z" fill="#054375"/>
<path d="M65.4072 211.263C65.3607 211.263 65.3077 211.237 65.2679 211.184C65.1949 211.087 65.1949 210.92 65.2679 210.823L71.6326 202.181C71.7055 202.084 71.8316 202.084 71.9045 202.181C71.9775 202.278 71.9775 202.445 71.9045 202.542L65.5398 211.184C65.5 211.237 65.4536 211.263 65.4072 211.263Z" fill="#054375"/>
</g>
<defs>
<clipPath id="clip0_656_9791">
<rect width="320" height="408" fill="white"/>
</clipPath>
</defs>
</svg>
