<svg width="320" height="248" viewBox="0 0 320 248" fill="none" xmlns="http://www.w3.org/2000/svg">
<path opacity="0.3" d="M254.679 127.137C256.232 125.566 256.232 123.02 254.679 121.449L145.393 10.9292C143.685 9.20188 140.861 9.40033 139.406 11.3499L99.1415 65.2889C97.946 66.8903 98.1005 69.1378 99.5035 70.5566L149.71 121.329C151.263 122.9 151.263 125.447 149.71 127.018L93.106 184.26C91.3987 185.987 91.5939 188.841 93.5201 190.314L146.962 231.164C148.546 232.375 150.77 232.219 152.173 230.8L254.679 127.137Z" fill="#1090F9"/>
<path opacity="0.3" d="M253.888 130.632C255.053 131.81 255.053 133.72 253.888 134.898L151.383 238.561C150.33 239.625 148.662 239.742 147.474 238.834L94.0323 197.984C92.5877 196.879 92.4412 194.739 93.7217 193.444L150.326 136.201C152.267 134.238 152.267 131.054 150.326 129.091L100.119 78.3177C99.0669 77.2536 98.9511 75.568 99.8477 74.3669L140.112 20.428C141.203 18.9658 143.321 18.8169 144.602 20.1124L253.888 130.632Z" stroke="#05BDFB" stroke-width="2"/>
<path opacity="0.3" d="M196.259 24.6185C197.364 24.6185 198.259 25.514 198.259 26.6185L198.259 29.3717C198.259 30.2622 197.472 30.9472 196.59 30.8243C195.865 30.7233 195.326 30.1035 195.326 29.3717L195.326 29.1828C195.326 28.282 194.596 27.5517 193.695 27.5517L193.506 27.5517C192.615 27.5517 191.93 26.7647 192.053 25.8827C192.154 25.1579 192.774 24.6185 193.506 24.6185L196.259 24.6185Z" fill="#1090F9"/>
<path opacity="0.3" d="M246.27 69.3224C246.823 70.279 246.495 71.5022 245.538 72.0545L241.454 74.4123C240.403 75.0194 239.057 74.557 238.601 73.4316L238.56 73.3319C238.186 72.4071 238.55 71.3475 239.414 70.8485L239.929 70.5514C240.885 69.9991 241.213 68.7759 240.661 67.8193L240.356 67.2918C239.749 66.2402 240.211 64.8945 241.337 64.4383L241.436 64.3979C242.361 64.023 243.421 64.3872 243.92 65.2514L246.27 69.3224Z" fill="#1090F9"/>
<path opacity="0.3" d="M148.408 209.678C148.96 210.634 148.632 211.857 147.676 212.41L143.592 214.767C142.54 215.375 141.195 214.912 140.739 213.787L140.698 213.687C140.323 212.762 140.687 211.703 141.552 211.204L142.066 210.906C143.023 210.354 143.351 209.131 142.798 208.174L142.494 207.647C141.887 206.595 142.349 205.25 143.474 204.793L143.574 204.753C144.499 204.378 145.559 204.742 146.058 205.607L148.408 209.678Z" fill="#1090F9"/>
<path opacity="0.3" d="M244.741 166.593C243.96 165.812 243.96 164.545 244.741 163.764L252.143 156.363C253.024 155.482 254.487 155.612 255.199 156.635L255.929 157.685C256.482 158.48 256.386 159.557 255.702 160.241L253.246 162.696C252.465 163.478 252.465 164.744 253.246 165.525L254.7 166.979C255.542 167.82 255.467 169.205 254.54 169.951L252.37 171.697C251.574 172.337 250.424 172.275 249.702 171.553L244.741 166.593Z" fill="#1090F9"/>
<path d="M87.5985 88.9474C78.6509 113.103 69.7033 137.303 63.6536 162.657C68.2543 164.159 73.0792 165.054 77.9339 165.314C79.7712 159.091 81.6085 152.882 83.4459 146.659C83.4459 146.659 83.177 146.471 82.8334 146.399C86.5081 147.092 89.8242 149.012 92.6325 151.409C95.4258 153.806 97.7561 156.665 100.34 159.971C100.071 163.494 102.73 166.859 106.166 168.057C109.602 169.256 113.545 168.534 116.727 166.454C116.413 167.999 116.413 169.602 116.727 171.147C116.861 171.826 117.055 172.49 117.384 173.096C118.071 174.367 119.281 175.32 120.596 175.984C122.836 177.096 125.465 177.457 128.169 177.009C127.9 179.94 130.186 182.727 133.039 183.752C135.907 184.777 139.148 184.286 142.121 183.203C142.584 184.214 143.077 185.254 143.913 185.99C144.869 186.827 146.169 187.188 147.453 187.333C150.516 187.679 153.697 186.842 156.565 185.181C159.702 186.842 163.691 186.9 166.887 185.34C167.724 184.936 168.515 184.416 169.158 183.752C170.457 182.409 171.04 180.547 171.144 178.713C171.249 176.879 170.935 175.045 170.816 173.183C172.399 174.959 174.057 176.72 176.119 177.948C178.18 179.175 180.734 179.825 183.065 179.218C185.006 178.713 186.65 177.356 187.725 175.71C188.801 174.064 189.338 172.129 189.503 169.92C190.294 171.161 191.146 172.36 192.087 173.515C192.968 174.583 193.909 175.623 195.089 176.403C196.254 177.168 197.689 177.644 199.093 177.486C201.274 177.255 203.036 175.536 203.903 173.602C204.769 171.652 204.903 169.501 205.038 167.378C205.112 166.151 205.187 164.938 205.127 163.682C206.278 165.776 207.428 167.869 208.951 169.718C210.475 171.566 212.402 173.168 214.717 173.963C215.285 174.165 215.868 174.309 216.465 174.439C217.406 174.67 218.497 174.872 219.303 174.338C219.946 173.905 220.214 173.111 220.304 172.36C220.394 171.609 220.349 170.829 220.797 170.079C229.55 166.888 238.169 163.35 246.519 159.538C247.356 162.513 248.282 165.444 249.522 168.288C255.766 166.888 261.83 164.722 267.447 161.921C272.391 160.087 277.261 158.065 281.683 155.365C280.966 131.441 276.768 107.212 265.445 85.9297C264.728 84.5869 263.982 83.2586 262.846 82.1179C250.433 86.2907 238.334 91.3876 226.712 97.3219C227.041 97.9283 227.369 98.5347 227.34 99.2133C215.3 100.036 203.514 96.109 192.147 92.225C188.532 90.9833 184.872 89.7415 181.063 89.4961C177.672 89.2795 174.281 89.8426 170.487 90.1602C166.454 87.7923 161.958 86.2907 157.417 85.0778C154.668 84.3415 151.86 83.6917 149.022 83.7206C146.408 83.7495 143.839 84.3559 141.344 85.0634C127.855 88.8752 115.248 95.9069 101.251 97.163C101.356 96.2534 101.476 95.3438 101.58 94.4341C101.64 93.9432 101.685 93.3945 101.401 93.0047C96.8299 91.2287 92.2142 89.4239 87.5985 88.9474Z" fill="white"/>
<path d="M275.17 154.816C275.125 154.816 275.08 154.816 275.035 154.787L262.697 150.297C262.503 150.225 262.398 150.008 262.473 149.82C262.548 149.633 262.772 149.532 262.966 149.604L275.304 154.094C275.499 154.167 275.603 154.383 275.528 154.571C275.469 154.73 275.319 154.816 275.17 154.816Z" fill="#0864B0"/>
<path d="M279.337 150.341C279.292 150.341 279.262 150.341 279.218 150.326C272.421 148.088 265.699 145.446 259.216 142.472C259.022 142.385 258.947 142.168 259.037 141.981C259.127 141.793 259.351 141.721 259.545 141.807C265.998 144.767 272.705 147.395 279.472 149.619C279.666 149.691 279.77 149.893 279.711 150.081C279.636 150.254 279.486 150.341 279.337 150.341Z" fill="#0864B0"/>
<path d="M280.383 143.309C280.338 143.309 280.308 143.309 280.264 143.295C272.72 140.912 265.177 138.183 257.857 135.209C257.663 135.137 257.573 134.92 257.648 134.732C257.738 134.545 257.947 134.458 258.141 134.53C265.431 137.505 272.959 140.219 280.488 142.601C280.682 142.659 280.801 142.876 280.727 143.063C280.697 143.208 280.547 143.309 280.383 143.309Z" fill="#0864B0"/>
<path d="M280.383 136.552C280.338 136.552 280.293 136.537 280.249 136.523C271.45 133.332 264.639 130.589 255.258 126.762C255.064 126.69 254.974 126.474 255.049 126.286C255.139 126.098 255.348 126.011 255.542 126.084C264.908 129.91 271.719 132.653 280.503 135.83C280.697 135.902 280.801 136.119 280.727 136.306C280.682 136.465 280.532 136.552 280.383 136.552Z" fill="#0864B0"/>
<path d="M278.202 128.928C278.157 128.928 278.112 128.914 278.053 128.899L252.853 118.965C252.659 118.893 252.569 118.677 252.644 118.489C252.719 118.301 252.943 118.214 253.137 118.287L278.337 128.221C278.531 128.293 278.62 128.509 278.546 128.697C278.486 128.841 278.351 128.928 278.202 128.928Z" fill="#0864B0"/>
<path d="M277.38 121.636C277.335 121.636 277.276 121.622 277.231 121.608L249.865 109.883C249.671 109.797 249.581 109.58 249.671 109.407C249.761 109.219 249.985 109.133 250.164 109.219L277.53 120.943C277.724 121.03 277.814 121.247 277.724 121.42C277.664 121.55 277.53 121.636 277.38 121.636Z" fill="#0864B0"/>
<path d="M274.722 112.468C274.677 112.468 274.617 112.453 274.572 112.439L246.953 100.44C246.758 100.354 246.684 100.137 246.758 99.9496C246.848 99.7619 247.072 99.6752 247.266 99.7619L274.886 111.76C275.08 111.847 275.155 112.064 275.08 112.251C275.005 112.381 274.856 112.468 274.722 112.468Z" fill="#0864B0"/>
<path d="M268.508 100.469C268.463 100.469 268.418 100.455 268.373 100.441C261.517 97.8849 254.511 95.4303 247.58 93.1346C247.386 93.0624 247.281 92.8602 247.341 92.6725C247.401 92.4848 247.625 92.3838 247.819 92.4415C254.765 94.7373 261.771 97.1918 268.642 99.7475C268.836 99.8197 268.941 100.036 268.866 100.224C268.806 100.383 268.657 100.469 268.508 100.469Z" fill="#0864B0"/>
<path d="M267.955 92.0371C267.91 92.0371 267.85 92.0227 267.806 92.0082L257.947 88.0376C257.753 87.9654 257.663 87.7488 257.738 87.5611C257.812 87.3734 258.036 87.2868 258.231 87.359L268.089 91.344C268.284 91.4162 268.373 91.6328 268.299 91.8205C268.254 91.9505 268.104 92.0371 267.955 92.0371Z" fill="#0864B0"/>
<path d="M59.0083 80.0386C68.7476 83.2007 78.5914 86.074 87.9872 88.7884C86.4486 95.0693 82.4901 100.498 79.8312 106.418C78.4271 109.551 77.3815 112.843 76.3508 116.106C71.511 131.455 66.8804 146.861 62.4439 162.31C53.7652 159.437 47.0134 157.964 37.7073 156.362C46.2964 130.574 54.034 105.812 59.0083 80.0386Z" fill="#7CDDFD"/>
<g opacity="0.1294">
<path d="M242.979 156.347C241.456 156.78 239.977 157.314 238.513 157.892C238.184 157.878 237.841 157.906 237.527 157.979C236.795 158.109 236.093 158.397 235.406 158.657C234.629 158.917 233.912 159.148 233.165 159.466C232.867 159.567 231.97 159.899 231.627 159.986C231.522 160.015 231.433 160.043 231.358 160.072C231.134 160.144 230.91 160.217 230.686 160.26C230.551 160.26 230.417 160.26 230.282 160.26C230.133 160.231 229.984 160.202 229.834 160.159C229.521 159.87 229.222 159.553 228.953 159.235C228.595 158.787 228.998 159.293 229.132 159.466C228.893 159.148 228.639 158.845 228.356 158.556C228.281 158.47 228.206 158.383 228.146 158.325C227.892 157.993 227.668 157.632 227.429 157.271C226.458 155.856 225.592 154.369 224.785 152.867C223.083 149.662 221.514 146.399 219.692 143.266C218.631 141.129 217.735 138.905 216.42 136.898C212.626 131.296 208.937 126.921 203.275 122.026C199.69 118.518 195.568 115.514 191.146 113.089C188.144 111.486 185.007 109.898 181.526 109.652C179.091 109.118 178.494 112.612 181.018 112.771C183.304 112.887 185.754 113.883 188.368 115.341C188.129 115.919 188.173 116.597 188.771 117.204C191.191 119.24 193.999 120.813 196.524 122.719C196.404 122.647 197.808 123.788 198.092 124.077C198.391 124.351 198.675 124.64 198.958 124.928C198.734 125.145 198.585 125.419 198.585 125.752C198.749 126.762 199.929 127.961 200.467 128.914C203.245 133 206.517 136.812 208.877 141.158C211.999 147.106 214.269 153.041 215.315 161.011C215.853 163.523 216.166 168.1 215.315 169.4C215.24 169.486 215.166 169.559 215.076 169.631C215.016 169.674 214.957 169.703 214.912 169.732C214.807 169.761 214.688 169.804 214.583 169.847C214.523 169.862 214.479 169.891 214.419 169.891C214.404 169.891 214.389 169.891 214.374 169.905C214.135 169.919 213.881 169.905 213.702 169.891C213.612 169.876 213.537 169.862 213.448 169.847C212.507 169.616 213.015 169.818 211.596 169.082C209.415 167.898 207.533 171.002 209.669 172.273C215.046 176.013 218.825 174.684 219.886 169.616C220.424 166.555 220.065 163.422 219.512 160.375C219.677 160.838 219.826 161.3 219.99 161.762C220.304 163.566 220.558 165.285 220.812 166.815C220.782 166.859 220.737 166.902 220.693 166.945C220.08 167.884 220.528 169.039 221.38 169.587C221.768 170.179 222.575 170.454 223.277 170.266C223.889 170.093 224.218 169.732 224.382 169.284C230.268 167.046 236.093 164.649 241.501 161.473C242.77 160.708 242.785 160.635 243.831 160.202C244.384 159.986 245.041 159.682 245.369 159.192C245.638 159.018 245.877 158.802 246.071 158.527C247.087 156.491 244.623 155.481 242.979 156.347Z" fill="#0864B0"/>
</g>
<g opacity="0.1294">
<path d="M280.607 150.47C280.293 150.47 279.995 150.543 279.726 150.658C278.366 151.048 277.127 151.885 275.782 152.362C273.407 153.474 272.481 153.69 269.284 155.163C263.787 157.993 254.675 160.751 249.761 162.743C246.535 163.682 247.834 168.302 251.12 167.522C256.259 165.92 261.129 163.595 266.088 161.545C268.702 160.375 273.691 158.643 277.814 156.679C279.741 155.697 282.146 154.556 282.385 153.979C283.58 152.651 282.4 150.413 280.607 150.47Z" fill="#0864B0"/>
</g>
<g opacity="0.1294">
<path d="M98.6374 99.3142C96.5611 106.62 92.8715 112.006 90.1678 120.048C88.5247 124.741 87.2849 129.534 86.3438 134.4C85.7463 136.552 85.2982 138.732 84.8351 140.912C84.4916 142.832 83.8941 144.825 84.2675 146.774C84.7754 148.68 86.9563 149.604 88.7338 148.983C89.8541 150.124 91.0491 151.207 92.2442 152.275C92.2442 152.232 92.2442 152.174 92.2442 152.131C92.1545 149.98 92.1844 147.828 92.3188 145.677C91.8408 144.161 91.6765 143.179 91.572 141.952C92.035 139.569 92.6176 137.23 92.9163 134.819C94.0964 127.08 96.3669 119.557 98.9511 112.165C99.7279 109.956 100.34 107.689 101.326 105.566C102.028 103.646 103.193 101.682 103.193 99.6319C102.984 97.2206 99.2499 96.9752 98.6374 99.3142Z" fill="#0864B0"/>
</g>
<g opacity="0.1294">
<path d="M101.012 158.47C100.893 158.932 100.415 159.307 99.907 159.264C100.31 159.48 100.743 159.581 101.221 159.451C101.953 159.278 102.446 158.556 102.402 157.849C101.938 158.065 101.475 158.282 101.012 158.47Z" fill="#0864B0"/>
</g>
<g opacity="0.1294">
<path d="M84.2677 146.76C84.2228 146.471 84.1929 146.182 84.1479 145.894C84.1479 146.211 84.1929 146.486 84.2677 146.76Z" fill="#0864B0"/>
</g>
<g opacity="0.1294">
<path d="M114.845 164.404C113.963 164.982 112.768 164.808 110.468 164.765C108.944 164.621 106.988 164.736 105.285 164.202C104.164 163.956 103.104 163.119 101.939 163.263C99.7428 163.451 99.5337 166.642 101.67 167.162C103.208 167.739 104.777 168.259 106.39 168.591C107.749 168.894 109.153 169.198 110.543 168.866C112.261 168.519 113.904 167.812 115.442 167.003C116.07 166.613 116.921 166.295 117.145 165.559C117.459 164.231 115.831 163.552 114.845 164.404Z" fill="#0864B0"/>
</g>
<g opacity="0.1294">
<path d="M138.162 167.292C137.401 167.537 137.236 167.942 136.041 168.562C133.636 169.819 132.621 170.064 129.409 170.656C126.362 171.407 126.631 171.248 123.27 171.465C122.224 171.508 121.164 171.45 120.118 171.335C119.431 171.219 118.744 170.959 118.057 171.104C115.293 171.364 115.039 175.305 117.713 175.984C124.51 177.89 130.111 175.984 134.936 173.154C136.385 172.316 137.834 171.421 139.074 170.295C139.746 169.559 139.925 169.689 140.075 168.692C140.089 167.754 139.089 167.032 138.162 167.292Z" fill="#0864B0"/>
</g>
<g opacity="0.1294">
<path d="M166.708 180.835C165.289 181.023 165.633 181.196 164.886 181.427C164.288 181.586 164.213 181.846 162.062 182.337C160.599 182.582 160.643 182.582 160.255 182.611C160.539 182.264 160.658 181.773 160.569 181.34C160.509 180.445 159.613 179.766 158.716 179.752C157.596 179.81 156.745 180.705 155.729 181.095C153.608 182.004 154.116 181.846 151.173 182.813C148.499 183.535 147.125 183.463 146.094 183.535C145.123 183.506 144.167 182.9 143.271 182.784C145.063 182.12 146.766 181.196 148.395 180.214C150.262 179.117 151.905 177.759 153.443 176.272C153.787 175.983 153.996 175.565 153.981 175.132C153.996 174.597 153.668 174.121 153.219 173.832C152.637 173.486 151.815 173.601 151.337 174.063C151.442 173.991 151.696 173.789 151.546 173.89C150.785 174.352 150.023 174.799 149.246 175.233C144.81 177.99 138.954 179.608 135.13 180.171C134.234 180.272 133.323 180.373 132.411 180.286C132.337 180.286 132.292 180.272 132.262 180.272C132.232 180.272 132.202 180.257 132.157 180.257C131.47 180.2 130.798 179.867 130.111 179.954C128.468 180.098 128.318 182.481 129.902 182.871C131.336 183.362 132.8 183.824 134.323 183.968C135.922 184.141 137.55 183.91 139.133 183.737C140 183.665 140.836 183.506 141.658 183.289C140.881 184.098 140.911 185.629 142.061 186.221C146.199 188.242 150.665 187.823 154.788 186.018C155.535 185.73 156.267 185.383 156.969 184.979C156.999 186.192 157.97 187.39 159.374 187.347C161.958 187.029 164.736 186.885 166.917 185.383C167.559 184.907 168.411 184.488 168.695 183.708C169.367 182.438 168.202 180.792 166.708 180.835Z" fill="#0864B0"/>
</g>
<g opacity="0.1294">
<path d="M187.576 171.537C185.992 172.316 186.366 172.461 185.35 173.082C183.826 174.107 184.021 173.991 181.81 174.54C180.002 174.843 181.093 174.771 179.524 174.8C179.345 174.8 179.166 174.785 178.972 174.771C178.778 174.742 178.524 174.684 178.329 174.641C177.015 174.439 175.611 173.486 174.326 174.237C172.623 175.132 172.982 177.803 174.864 178.236C176.597 178.727 178.374 179.218 180.197 179.102C182.377 178.958 184.499 178.178 186.306 177.023C187.187 176.431 188.009 175.767 188.816 175.074C189.398 174.612 189.981 174.049 189.936 173.284C189.996 172.129 188.741 171.219 187.576 171.537Z" fill="#0864B0"/>
</g>
<g opacity="0.1294">
<path d="M205.516 165.472C205.531 164.548 204.888 163.653 203.932 163.422C203.873 163.408 203.828 163.408 203.783 163.408C203.768 161.675 203.828 159.928 203.38 158.239C202.723 155.611 201.229 153.286 200.004 150.889C198.869 148.348 197.405 145.908 195.523 143.829C194.716 143.15 193.357 143.814 193.387 144.839C193.461 145.72 194.283 146.327 194.701 147.077C197.031 150.355 197.808 152.81 198.928 156.737C200.288 160.866 200.527 162.859 200.123 167.118C200.123 167.162 200.108 167.205 200.108 167.248C200.079 167.436 200.034 167.638 199.989 167.826C199.974 167.927 199.929 168.071 199.869 168.245C199.645 168.591 199.406 168.938 199.167 169.284C198.854 169.645 198.226 170.367 197.868 170.685C197.793 170.728 197.703 170.771 197.629 170.815C196.927 170.872 196.404 170.858 194.537 170.266C193.999 170.078 193.894 170.021 194.492 170.266C193.551 169.948 192.684 169.313 191.714 169.154C189.503 168.764 188.412 171.854 190.369 172.908C191.056 173.255 191.818 173.587 192.49 173.861C192.625 174.554 193.028 175.204 193.73 175.579C193.894 175.666 194.059 175.738 194.238 175.81C194.298 176.662 194.821 177.485 195.956 177.803C196.897 178.048 197.883 178.294 198.869 178.092C199.212 178.034 199.884 177.76 199.974 177.702C200.96 177.298 201.976 176.72 202.394 175.767C202.633 175.276 202.648 174.785 202.498 174.352C202.872 173.991 203.081 173.5 203.126 172.995C204.097 171.753 204.799 170.309 205.157 168.822C205.366 167.783 205.501 166.729 205.516 165.66C205.516 165.617 205.516 165.588 205.516 165.545C205.516 165.516 205.516 165.501 205.516 165.472Z" fill="#0864B0"/>
</g>
<path d="M77.217 166.512C77.1423 166.512 77.0826 166.512 77.0079 166.498C69.9872 165.27 62.7276 163.985 55.5725 162.094C52.7941 161.199 50.1202 160.607 47.297 159.986C44.2199 159.307 41.0233 158.6 37.7669 157.502C37.1694 157.3 36.8557 156.679 37.0648 156.102C37.2739 155.524 37.9162 155.235 38.5137 155.423C41.6506 156.492 44.7726 157.17 47.79 157.834C50.5534 158.441 53.4065 159.076 56.2297 159.986C62.8769 161.733 69.7183 162.975 76.3656 164.144C79.2336 152.925 83.1323 141.966 86.9115 131.368C89.1521 125.058 91.4824 118.547 93.5886 111.948C93.6035 111.919 93.6035 111.89 93.6185 111.862C94.3205 110.158 95.0824 108.468 95.8292 106.851C97.8309 102.462 99.713 98.3036 100.639 93.4955C100.609 93.4522 100.52 93.3799 100.475 93.3655C100.34 93.3655 100.221 93.3366 100.086 93.2933C93.8724 91.012 87.3746 89.3371 81.0858 87.7344C73.6619 85.8285 65.969 83.8648 58.5002 80.8183C57.9177 80.5872 57.6488 79.9375 57.8878 79.3744C58.1268 78.8113 58.799 78.5514 59.3815 78.7824C66.701 81.7568 74.3042 83.706 81.6684 85.5975C87.9571 87.2146 94.455 88.8751 100.729 91.1708C101.894 91.3008 102.91 92.3548 102.91 93.5099C102.91 93.5821 102.91 93.6399 102.895 93.712C101.924 98.8522 99.8773 103.372 97.8906 107.732C97.1736 109.32 96.4118 110.966 95.7247 112.627C93.6035 119.24 91.2733 125.752 89.0326 132.061C84.9846 143.439 81.1605 154.181 78.2925 165.646C78.2029 166.165 77.7398 166.512 77.217 166.512Z" fill="#0864B0"/>
<path d="M62.8173 163.003C62.7276 163.003 62.638 162.989 62.5335 162.975C61.921 162.83 61.5476 162.224 61.7119 161.646C68.2546 136.436 77.4561 109.652 86.9713 88.1387C87.2253 87.5756 87.8825 87.3157 88.4651 87.5612C89.0477 87.8066 89.3165 88.4419 89.0626 89.005C79.5922 110.403 70.4354 137.086 63.9226 162.18C63.7882 162.671 63.3251 163.003 62.8173 163.003Z" fill="#0864B0"/>
<path d="M249.343 169.717C249.163 169.717 248.984 169.674 248.82 169.602C248.536 169.457 248.327 169.226 248.252 168.923C243.726 153.878 238.946 138.847 233.882 122.921C231.268 114.706 228.564 106.201 225.861 97.596C225.696 97.0907 225.935 96.5564 226.413 96.311C237.945 90.2756 250.06 85.121 262.443 80.9771C263.04 80.7749 263.683 81.0781 263.892 81.6557C264.101 82.2332 263.787 82.8541 263.19 83.0562C251.21 87.0558 239.484 92.0227 228.311 97.8126C230.925 106.115 233.539 114.33 236.063 122.272C241.007 137.808 245.683 152.492 250.119 167.176C260.695 163.523 271.211 159.35 281.384 154.759C281.951 154.499 282.624 154.744 282.892 155.293C283.161 155.842 282.907 156.492 282.34 156.751C271.734 161.531 260.77 165.877 249.731 169.645C249.597 169.688 249.477 169.717 249.343 169.717Z" fill="#0864B0"/>
<path d="M263.04 163.956C262.532 163.956 262.069 163.624 261.935 163.133C255.288 138.977 247.729 114.735 239.424 91.0696C239.23 90.4921 239.544 89.8712 240.141 89.6691C240.739 89.4814 241.381 89.7846 241.59 90.3622C249.895 114.071 257.484 138.371 264.131 162.57C264.295 163.162 263.937 163.754 263.324 163.913C263.235 163.942 263.13 163.956 263.04 163.956Z" fill="#0864B0"/>
<path d="M137.102 131.224C134.488 131.224 131.426 130.126 130.051 127.556C127.602 122.965 132.202 117.81 133.711 116.106C139.955 109.104 146.408 101.87 154.444 96.4121C163.497 90.2612 173.4 87.4746 182.318 88.5719C186.874 89.135 191.221 90.68 195.418 92.1816C196.777 92.6725 198.167 93.1634 199.541 93.6254C208.294 96.5276 217.421 98.0581 226.668 98.1881C227.295 98.2025 227.803 98.6934 227.788 99.2998C227.773 99.9063 227.295 100.412 226.638 100.383C217.152 100.253 207.786 98.679 198.809 95.7046C197.405 95.2426 196.001 94.7372 194.626 94.2463C190.549 92.788 186.336 91.2863 182.034 90.7521C173.684 89.727 164.348 92.3837 155.759 98.2169C147.961 103.516 141.598 110.649 135.444 117.536C132.008 121.391 130.903 124.337 132.083 126.531C133.084 128.394 135.518 129.116 137.505 129C139.776 128.87 141.912 127.903 144.257 126.762C145.825 125.997 147.394 125.246 148.947 124.495C158.522 119.889 167.56 115.543 176.134 109.696C176.642 109.349 177.359 109.465 177.717 109.956C178.076 110.447 177.956 111.14 177.448 111.486C168.725 117.42 159.613 121.81 149.963 126.445C148.41 127.195 146.841 127.946 145.273 128.711C142.793 129.924 140.328 131.022 137.64 131.18C137.445 131.209 137.281 131.224 137.102 131.224Z" fill="#0864B0"/>
<path d="M221.245 171.291C220.797 171.291 220.379 171.031 220.2 170.612C219.961 170.049 220.229 169.414 220.812 169.183C228.998 165.92 237.258 162.541 245.369 159.105C245.952 158.859 246.609 159.119 246.863 159.668C247.117 160.231 246.848 160.866 246.281 161.112C238.155 164.548 229.879 167.941 221.693 171.204C221.529 171.276 221.395 171.291 221.245 171.291Z" fill="#0864B0"/>
<path d="M218.063 175.709C217.824 175.709 217.6 175.695 217.406 175.666C213.627 175.276 209.908 172.85 207.204 169.024C205.471 166.569 204.276 163.826 203.111 161.184C202.752 160.346 202.379 159.509 202.006 158.686C198.914 152.001 194.746 145.893 189.592 140.522C189.159 140.074 189.189 139.381 189.652 138.963C190.115 138.544 190.832 138.573 191.265 139.02C196.583 144.565 200.9 150.875 204.082 157.776C204.47 158.614 204.844 159.466 205.217 160.317C206.382 162.989 207.488 165.501 209.086 167.782C211.416 171.089 214.538 173.153 217.645 173.486C217.824 173.5 218.362 173.558 218.616 173.413C218.9 173.24 219.034 172.663 219.005 171.695C218.586 158.946 214.254 146.124 206.786 135.613C199.317 125.101 188.502 116.583 176.343 111.63C175.76 111.399 175.491 110.749 175.73 110.186C175.969 109.623 176.642 109.363 177.224 109.594C189.787 114.706 200.945 123.499 208.668 134.357C216.376 145.215 220.872 158.44 221.29 171.609C221.32 172.345 221.38 174.323 219.841 175.247C219.258 175.622 218.616 175.709 218.063 175.709Z" fill="#0864B0"/>
<path d="M161.256 187.766C159.672 187.766 157.626 187.52 155.415 185.946C154.907 185.586 154.803 184.892 155.176 184.416C155.55 183.925 156.267 183.824 156.759 184.185C158.881 185.687 160.658 185.614 162.227 185.557L162.391 185.542C164.751 185.456 167.29 184.286 168.71 182.64C169.322 181.932 170.024 180.806 169.83 179.435C169.83 179.391 169.815 179.334 169.815 179.29C169.83 176.951 169.486 174.554 169.188 172.735C169.113 172.259 169.367 171.782 169.815 171.565C170.263 171.349 170.816 171.464 171.144 171.825C172.862 173.659 174.655 175.565 176.821 176.821C179.091 178.135 181.601 178.496 183.543 177.817C186.216 176.865 188.965 172.374 188.367 169.919C188.218 169.328 188.591 168.736 189.204 168.591C189.816 168.447 190.429 168.808 190.578 169.4C191.534 173.24 187.815 178.64 184.334 179.868C181.705 180.792 178.553 180.373 175.656 178.698C174.251 177.89 173.027 176.879 171.891 175.796C172.011 176.893 172.085 178.048 172.085 179.204C172.295 180.893 171.727 182.553 170.442 184.041C168.605 186.163 165.468 187.607 162.466 187.722H162.301C161.988 187.751 161.629 187.766 161.256 187.766Z" fill="#0864B0"/>
<path d="M198.675 178.756C197.733 178.756 196.837 178.511 195.986 178.193C191.684 176.576 189.398 172.057 187.202 167.667C185.679 164.635 184.095 161.488 181.929 159.639C181.466 159.235 181.422 158.542 181.84 158.094C182.258 157.647 182.975 157.603 183.453 158.008C185.948 160.159 187.636 163.494 189.264 166.714C191.37 170.902 193.372 174.858 196.837 176.143C198.331 176.706 200.183 177.399 202.648 173.371C203.32 172.273 203.499 170.887 203.604 169.544C203.843 166.108 202.902 162.585 201.976 159.163C201.841 158.643 201.692 158.123 201.557 157.603C201.408 157.012 201.767 156.419 202.379 156.275C202.991 156.131 203.604 156.477 203.753 157.069C203.888 157.589 204.022 158.094 204.172 158.614C205.142 162.209 206.143 165.92 205.859 169.703C205.74 171.306 205.516 173.01 204.59 174.497C202.543 177.789 200.542 178.756 198.675 178.756Z" fill="#0864B0"/>
<path d="M124.703 178.106C124.599 178.106 124.509 178.106 124.405 178.106C120.148 178.005 116.458 175.551 115.427 172.143C115.039 170.858 115.039 169.544 115.233 168.288C112.918 169.674 110.02 170.266 107.256 169.775C103.029 169.039 99.4739 165.689 98.8167 161.805C98.5478 160.202 99.0706 159.307 99.5486 158.845C99.9967 158.412 100.714 158.426 101.162 158.859C101.61 159.293 101.595 159.986 101.147 160.419C101.042 160.52 100.953 160.852 101.057 161.458C101.58 164.462 104.344 167.061 107.66 167.624C110.886 168.187 114.337 166.931 116.234 164.505C116.548 164.115 117.085 163.971 117.563 164.144C117.982 163.927 118.355 163.783 118.594 163.696C123.15 161.978 127.915 160.924 132.785 160.563C136.698 160.274 139.312 161.184 140.522 163.278C141.105 164.274 141.314 165.516 141.12 166.931C140.881 168.75 140.074 170.511 138.82 171.898C137.61 173.24 136.071 174.179 134.577 175.002C131.978 176.446 128.498 178.106 124.703 178.106ZM117.937 166.555C117.429 168.418 117.175 170.006 117.623 171.522C118.46 174.309 121.701 175.825 124.464 175.897C127.796 175.984 131.037 174.439 133.487 173.082C134.801 172.36 136.161 171.537 137.132 170.439C138.088 169.385 138.7 168.028 138.879 166.642C138.969 165.992 138.969 165.068 138.551 164.332C137.624 162.729 134.995 162.585 132.964 162.729C128.318 163.076 123.762 164.086 119.416 165.718C118.714 166.007 118.206 166.281 117.937 166.555Z" fill="#0864B0"/>
<path d="M135.862 185.542C134.084 185.542 132.411 185.138 131.007 184.329C128.244 182.755 126.586 179.622 126.87 176.547C126.929 175.94 127.482 175.507 128.109 175.55C128.737 175.608 129.2 176.142 129.14 176.749C128.931 178.972 130.171 181.311 132.172 182.452C134.099 183.549 136.713 183.651 139.357 182.741C141.837 181.889 144.003 180.33 146.199 178.684C149.306 176.33 152.234 173.688 152.488 170.367C152.502 170.165 152.517 169.89 152.443 169.717C152.368 169.558 152.159 169.371 151.815 169.169C150.172 168.216 147.947 167.985 145.556 168.504C143.45 168.966 141.718 169.833 139.716 170.829L139.372 171.002C138.82 171.277 138.133 171.074 137.834 170.526C137.535 169.977 137.759 169.327 138.327 169.039L138.67 168.865C140.717 167.84 142.659 166.873 145.049 166.353C148.006 165.703 150.829 166.035 152.98 167.277C153.473 167.566 154.175 168.042 154.534 168.836C154.803 169.443 154.803 170.064 154.758 170.526C154.429 174.699 151.113 177.731 147.588 180.402C145.347 182.106 142.913 183.838 140.104 184.806C138.685 185.297 137.236 185.542 135.862 185.542Z" fill="#0864B0"/>
<path d="M149.142 188.661C147.513 188.661 145.885 188.3 144.436 187.607C142.748 186.798 140.986 185.167 141.12 183.044C141.165 182.438 141.703 181.976 142.33 182.019C142.957 182.062 143.435 182.582 143.391 183.189C143.316 184.243 144.451 185.167 145.437 185.643C146.99 186.394 148.783 186.639 150.486 186.365C153.205 185.917 155.535 184.199 157.477 182.582C159.658 180.748 160.599 179.247 160.419 177.817C160.21 176.157 158.343 175.045 156.73 174.958C155.102 174.872 153.444 175.522 151.502 176.994C151.009 177.37 150.292 177.283 149.903 176.807C149.515 176.33 149.605 175.637 150.098 175.262C151.606 174.121 153.966 172.619 156.849 172.764C159.434 172.908 162.316 174.728 162.675 177.557C163.033 180.46 160.733 182.77 158.97 184.243C156.924 185.961 154.161 187.982 150.874 188.531C150.307 188.618 149.724 188.661 149.142 188.661Z" fill="#0864B0"/>
<path d="M117.265 165.545C116.727 165.545 116.234 165.169 116.144 164.635C115.741 162.383 113.187 161.04 111.693 160.433C107.346 158.657 103.567 158.715 100.46 160.607C99.9519 160.91 99.2797 160.794 98.9361 160.318C94.5893 154.485 89.167 150.167 82.8185 147.496C82.2359 147.251 81.982 146.601 82.2359 146.052C82.4899 145.489 83.1621 145.244 83.7297 145.489C90.1678 148.204 95.6947 152.492 100.176 158.239C103.746 156.448 107.914 156.506 112.574 158.412C115.875 159.755 117.952 161.834 118.385 164.274C118.489 164.866 118.071 165.444 117.459 165.545C117.399 165.545 117.339 165.545 117.265 165.545Z" fill="#0864B0"/>
<path d="M100.833 98.5779C100.31 98.5779 99.8473 98.2314 99.7278 97.726C99.5933 97.134 99.9668 96.542 100.579 96.4121C113.157 93.5965 124.733 89.7414 134.398 86.3339L135.249 86.0307C138.924 84.7312 142.718 83.3739 146.736 82.9552C155.953 81.9734 164.467 85.7996 171.966 89.1783C172.534 89.4382 172.787 90.0879 172.519 90.6366C172.25 91.1853 171.578 91.4307 171.01 91.1708C163.78 87.9077 155.579 84.2258 146.99 85.1355C143.256 85.5253 139.596 86.8392 136.041 88.0954L135.19 88.3986C125.465 91.835 113.814 95.719 101.102 98.5634C100.997 98.5634 100.923 98.5779 100.833 98.5779Z" fill="#0864B0"/>
<path d="M123.389 79.5042C123.016 79.5042 122.642 79.3165 122.433 78.9989C122.104 78.4791 122.254 77.8005 122.792 77.4828C133.128 71.1587 145.541 68.0543 157.745 68.7041C158.373 68.733 158.851 69.2528 158.821 69.8592C158.791 70.4656 158.253 70.9276 157.626 70.8988C145.885 70.249 133.95 73.2523 124.016 79.331C123.807 79.4465 123.598 79.5042 123.389 79.5042Z" fill="#0864B0"/>
<path d="M116.249 68.762C115.875 68.762 115.517 68.5888 115.293 68.2567C114.949 67.7514 115.099 67.0727 115.622 66.7406C121.731 62.8999 128.752 60.2288 135.922 59.0159C136.534 58.9148 137.132 59.3047 137.236 59.9111C137.341 60.5031 136.937 61.0807 136.31 61.1817C129.439 62.3513 122.702 64.9069 116.846 68.5888C116.682 68.7043 116.473 68.762 116.249 68.762Z" fill="#0864B0"/>
<path d="M189.04 189.441C188.427 189.441 187.919 188.964 187.904 188.372C187.889 187.766 188.382 187.26 189.01 187.246C195.642 187.044 202.095 184.705 207.219 180.633C207.712 180.243 208.414 180.315 208.817 180.792C209.22 181.254 209.146 181.947 208.653 182.337C203.141 186.712 196.195 189.238 189.07 189.455C189.055 189.441 189.055 189.441 189.04 189.441Z" fill="#0864B0"/>
<path d="M275.17 154.816C275.125 154.816 275.08 154.816 275.035 154.787L262.697 150.297C262.503 150.225 262.398 150.008 262.473 149.82C262.548 149.633 262.772 149.532 262.966 149.604L275.304 154.094C275.499 154.167 275.603 154.383 275.528 154.571C275.469 154.73 275.319 154.816 275.17 154.816Z" fill="#0864B0"/>
<path d="M279.337 150.341C279.292 150.341 279.262 150.341 279.218 150.326C272.421 148.088 265.699 145.446 259.216 142.472C259.022 142.385 258.947 142.168 259.037 141.981C259.127 141.793 259.351 141.721 259.545 141.807C265.998 144.767 272.705 147.395 279.472 149.619C279.666 149.691 279.77 149.893 279.711 150.081C279.636 150.254 279.486 150.341 279.337 150.341Z" fill="#0864B0"/>
<path d="M280.383 143.309C280.338 143.309 280.308 143.309 280.264 143.295C272.72 140.912 265.177 138.183 257.857 135.209C257.663 135.137 257.573 134.92 257.648 134.732C257.738 134.545 257.947 134.458 258.141 134.53C265.431 137.505 272.959 140.219 280.488 142.601C280.682 142.659 280.801 142.876 280.727 143.063C280.697 143.208 280.547 143.309 280.383 143.309Z" fill="#0864B0"/>
<path d="M280.383 136.552C280.338 136.552 280.293 136.537 280.249 136.523C271.45 133.332 264.639 130.589 255.258 126.762C255.064 126.69 254.974 126.474 255.049 126.286C255.139 126.098 255.348 126.011 255.542 126.084C264.908 129.91 271.719 132.653 280.503 135.83C280.697 135.902 280.801 136.119 280.727 136.306C280.682 136.465 280.532 136.552 280.383 136.552Z" fill="#0864B0"/>
<path d="M278.202 128.928C278.157 128.928 278.112 128.914 278.053 128.899L252.853 118.965C252.659 118.893 252.569 118.677 252.644 118.489C252.719 118.301 252.943 118.214 253.137 118.287L278.337 128.221C278.531 128.293 278.62 128.509 278.546 128.697C278.486 128.841 278.351 128.928 278.202 128.928Z" fill="#0864B0"/>
<path d="M277.38 121.636C277.335 121.636 277.276 121.622 277.231 121.608L249.865 109.883C249.671 109.797 249.581 109.58 249.671 109.407C249.761 109.219 249.985 109.133 250.164 109.219L277.53 120.943C277.724 121.03 277.814 121.247 277.724 121.42C277.664 121.55 277.53 121.636 277.38 121.636Z" fill="#0864B0"/>
<path d="M274.722 112.468C274.677 112.468 274.617 112.453 274.572 112.439L246.953 100.44C246.758 100.354 246.684 100.137 246.758 99.9496C246.848 99.7619 247.072 99.6752 247.266 99.7619L274.886 111.76C275.08 111.847 275.155 112.064 275.08 112.251C275.005 112.381 274.856 112.468 274.722 112.468Z" fill="#0864B0"/>
<path d="M268.508 100.469C268.463 100.469 268.418 100.455 268.373 100.441C261.517 97.8849 254.511 95.4303 247.58 93.1346C247.386 93.0624 247.281 92.8602 247.341 92.6725C247.401 92.4848 247.625 92.3838 247.819 92.4415C254.765 94.7373 261.771 97.1918 268.642 99.7475C268.836 99.8197 268.941 100.036 268.866 100.224C268.806 100.383 268.657 100.469 268.508 100.469Z" fill="#0864B0"/>
<path d="M267.955 92.0371C267.91 92.0371 267.85 92.0227 267.806 92.0082L257.947 88.0376C257.753 87.9654 257.663 87.7488 257.738 87.5611C257.812 87.3734 258.036 87.2868 258.231 87.359L268.089 91.344C268.284 91.4162 268.373 91.6328 268.299 91.8205C268.254 91.9505 268.104 92.0371 267.955 92.0371Z" fill="#0864B0"/>
<path d="M59.0083 80.0386C68.7476 83.2007 78.5914 86.074 87.9872 88.7884C86.4486 95.0693 82.4901 100.498 79.8312 106.418C78.4271 109.551 77.3815 112.843 76.3508 116.106C71.511 131.455 66.8804 146.861 62.4439 162.31C53.7652 159.437 47.0134 157.964 37.7073 156.362C46.2964 130.574 54.034 105.812 59.0083 80.0386Z" fill="#7CDDFD"/>
<g opacity="0.1294">
<path d="M242.979 156.347C241.456 156.78 239.977 157.314 238.513 157.892C238.184 157.878 237.841 157.906 237.527 157.979C236.795 158.109 236.093 158.397 235.406 158.657C234.629 158.917 233.912 159.148 233.165 159.466C232.867 159.567 231.97 159.899 231.627 159.986C231.522 160.015 231.433 160.043 231.358 160.072C231.134 160.144 230.91 160.217 230.686 160.26C230.551 160.26 230.417 160.26 230.282 160.26C230.133 160.231 229.984 160.202 229.834 160.159C229.521 159.87 229.222 159.553 228.953 159.235C228.595 158.787 228.998 159.293 229.132 159.466C228.893 159.148 228.639 158.845 228.356 158.556C228.281 158.47 228.206 158.383 228.146 158.325C227.892 157.993 227.668 157.632 227.429 157.271C226.458 155.856 225.592 154.369 224.785 152.867C223.083 149.662 221.514 146.399 219.692 143.266C218.631 141.129 217.735 138.905 216.42 136.898C212.626 131.296 208.937 126.921 203.275 122.026C199.69 118.518 195.568 115.514 191.146 113.089C188.144 111.486 185.007 109.898 181.526 109.652C179.091 109.118 178.494 112.612 181.018 112.771C183.304 112.887 185.754 113.883 188.368 115.341C188.129 115.919 188.173 116.597 188.771 117.204C191.191 119.24 193.999 120.813 196.524 122.719C196.404 122.647 197.808 123.788 198.092 124.077C198.391 124.351 198.675 124.64 198.958 124.928C198.734 125.145 198.585 125.419 198.585 125.752C198.749 126.762 199.929 127.961 200.467 128.914C203.245 133 206.517 136.812 208.877 141.158C211.999 147.106 214.269 153.041 215.315 161.011C215.853 163.523 216.166 168.1 215.315 169.4C215.24 169.486 215.166 169.559 215.076 169.631C215.016 169.674 214.957 169.703 214.912 169.732C214.807 169.761 214.688 169.804 214.583 169.847C214.523 169.862 214.479 169.891 214.419 169.891C214.404 169.891 214.389 169.891 214.374 169.905C214.135 169.919 213.881 169.905 213.702 169.891C213.612 169.876 213.537 169.862 213.448 169.847C212.507 169.616 213.015 169.818 211.596 169.082C209.415 167.898 207.533 171.002 209.669 172.273C215.046 176.013 218.825 174.684 219.886 169.616C220.424 166.555 220.065 163.422 219.512 160.375C219.677 160.838 219.826 161.3 219.99 161.762C220.304 163.566 220.558 165.285 220.812 166.815C220.782 166.859 220.737 166.902 220.693 166.945C220.08 167.884 220.528 169.039 221.38 169.587C221.768 170.179 222.575 170.454 223.277 170.266C223.889 170.093 224.218 169.732 224.382 169.284C230.268 167.046 236.093 164.649 241.501 161.473C242.77 160.708 242.785 160.635 243.831 160.202C244.384 159.986 245.041 159.682 245.369 159.192C245.638 159.018 245.877 158.802 246.071 158.527C247.087 156.491 244.623 155.481 242.979 156.347Z" fill="#0864B0"/>
</g>
<g opacity="0.1294">
<path d="M280.607 150.47C280.293 150.47 279.995 150.543 279.726 150.658C278.366 151.048 277.127 151.885 275.782 152.362C273.407 153.474 272.481 153.69 269.284 155.163C263.787 157.993 254.675 160.751 249.761 162.743C246.535 163.682 247.834 168.302 251.12 167.522C256.259 165.92 261.129 163.595 266.088 161.545C268.702 160.375 273.691 158.643 277.814 156.679C279.741 155.697 282.146 154.556 282.385 153.979C283.58 152.651 282.4 150.413 280.607 150.47Z" fill="#0864B0"/>
</g>
<g opacity="0.1294">
<path d="M98.6374 99.3142C96.5611 106.62 92.8715 112.006 90.1678 120.048C88.5247 124.741 87.2849 129.534 86.3438 134.4C85.7463 136.552 85.2982 138.732 84.8351 140.912C84.4916 142.832 83.8941 144.825 84.2675 146.774C84.7754 148.68 86.9563 149.604 88.7338 148.983C89.8541 150.124 91.0491 151.207 92.2442 152.275C92.2442 152.232 92.2442 152.174 92.2442 152.131C92.1545 149.98 92.1844 147.828 92.3188 145.677C91.8408 144.161 91.6765 143.179 91.572 141.952C92.035 139.569 92.6176 137.23 92.9163 134.819C94.0964 127.08 96.3669 119.557 98.9511 112.165C99.7279 109.956 100.34 107.689 101.326 105.566C102.028 103.646 103.193 101.682 103.193 99.6319C102.984 97.2206 99.2499 96.9752 98.6374 99.3142Z" fill="#0864B0"/>
</g>
<g opacity="0.1294">
<path d="M101.012 158.47C100.893 158.932 100.415 159.307 99.907 159.264C100.31 159.48 100.743 159.581 101.221 159.451C101.953 159.278 102.446 158.556 102.402 157.849C101.938 158.065 101.475 158.282 101.012 158.47Z" fill="#0864B0"/>
</g>
<g opacity="0.1294">
<path d="M84.2677 146.76C84.2228 146.471 84.1929 146.182 84.1479 145.894C84.1479 146.211 84.1929 146.486 84.2677 146.76Z" fill="#0864B0"/>
</g>
<g opacity="0.1294">
<path d="M114.845 164.404C113.963 164.982 112.768 164.808 110.468 164.765C108.944 164.621 106.988 164.736 105.285 164.202C104.164 163.956 103.104 163.119 101.939 163.263C99.7428 163.451 99.5337 166.642 101.67 167.162C103.208 167.739 104.777 168.259 106.39 168.591C107.749 168.894 109.153 169.198 110.543 168.866C112.261 168.519 113.904 167.812 115.442 167.003C116.07 166.613 116.921 166.295 117.145 165.559C117.459 164.231 115.831 163.552 114.845 164.404Z" fill="#0864B0"/>
</g>
<g opacity="0.1294">
<path d="M138.162 167.292C137.401 167.537 137.236 167.942 136.041 168.562C133.636 169.819 132.621 170.064 129.409 170.656C126.362 171.407 126.631 171.248 123.27 171.465C122.224 171.508 121.164 171.45 120.118 171.335C119.431 171.219 118.744 170.959 118.057 171.104C115.293 171.364 115.039 175.305 117.713 175.984C124.51 177.89 130.111 175.984 134.936 173.154C136.385 172.316 137.834 171.421 139.074 170.295C139.746 169.559 139.925 169.689 140.075 168.692C140.089 167.754 139.089 167.032 138.162 167.292Z" fill="#0864B0"/>
</g>
<g opacity="0.1294">
<path d="M166.708 180.835C165.289 181.023 165.633 181.196 164.886 181.427C164.288 181.586 164.213 181.846 162.062 182.337C160.599 182.582 160.643 182.582 160.255 182.611C160.539 182.264 160.658 181.773 160.569 181.34C160.509 180.445 159.613 179.766 158.716 179.752C157.596 179.81 156.745 180.705 155.729 181.095C153.608 182.004 154.116 181.846 151.173 182.813C148.499 183.535 147.125 183.463 146.094 183.535C145.123 183.506 144.167 182.9 143.271 182.784C145.063 182.12 146.766 181.196 148.395 180.214C150.262 179.117 151.905 177.759 153.443 176.272C153.787 175.983 153.996 175.565 153.981 175.132C153.996 174.597 153.668 174.121 153.219 173.832C152.637 173.486 151.815 173.601 151.337 174.063C151.442 173.991 151.696 173.789 151.546 173.89C150.785 174.352 150.023 174.799 149.246 175.233C144.81 177.99 138.954 179.608 135.13 180.171C134.234 180.272 133.323 180.373 132.411 180.286C132.337 180.286 132.292 180.272 132.262 180.272C132.232 180.272 132.202 180.257 132.157 180.257C131.47 180.2 130.798 179.867 130.111 179.954C128.468 180.098 128.318 182.481 129.902 182.871C131.336 183.362 132.8 183.824 134.323 183.968C135.922 184.141 137.55 183.91 139.133 183.737C140 183.665 140.836 183.506 141.658 183.289C140.881 184.098 140.911 185.629 142.061 186.221C146.199 188.242 150.665 187.823 154.788 186.018C155.535 185.73 156.267 185.383 156.969 184.979C156.999 186.192 157.97 187.39 159.374 187.347C161.958 187.029 164.736 186.885 166.917 185.383C167.559 184.907 168.411 184.488 168.695 183.708C169.367 182.438 168.202 180.792 166.708 180.835Z" fill="#0864B0"/>
</g>
<g opacity="0.1294">
<path d="M187.576 171.537C185.992 172.316 186.366 172.461 185.35 173.082C183.826 174.107 184.021 173.991 181.81 174.54C180.002 174.843 181.093 174.771 179.524 174.8C179.345 174.8 179.166 174.785 178.972 174.771C178.778 174.742 178.524 174.684 178.329 174.641C177.015 174.439 175.611 173.486 174.326 174.237C172.623 175.132 172.982 177.803 174.864 178.236C176.597 178.727 178.374 179.218 180.197 179.102C182.377 178.958 184.499 178.178 186.306 177.023C187.187 176.431 188.009 175.767 188.816 175.074C189.398 174.612 189.981 174.049 189.936 173.284C189.996 172.129 188.741 171.219 187.576 171.537Z" fill="#0864B0"/>
</g>
<g opacity="0.1294">
<path d="M205.516 165.472C205.531 164.548 204.888 163.653 203.932 163.422C203.873 163.408 203.828 163.408 203.783 163.408C203.768 161.675 203.828 159.928 203.38 158.239C202.723 155.611 201.229 153.286 200.004 150.889C198.869 148.348 197.405 145.908 195.523 143.829C194.716 143.15 193.357 143.814 193.387 144.839C193.461 145.72 194.283 146.327 194.701 147.077C197.031 150.355 197.808 152.81 198.928 156.737C200.288 160.866 200.527 162.859 200.123 167.118C200.123 167.162 200.108 167.205 200.108 167.248C200.079 167.436 200.034 167.638 199.989 167.826C199.974 167.927 199.929 168.071 199.869 168.245C199.645 168.591 199.406 168.938 199.167 169.284C198.854 169.645 198.226 170.367 197.868 170.685C197.793 170.728 197.703 170.771 197.629 170.815C196.927 170.872 196.404 170.858 194.537 170.266C193.999 170.078 193.894 170.021 194.492 170.266C193.551 169.948 192.684 169.313 191.714 169.154C189.503 168.764 188.412 171.854 190.369 172.908C191.056 173.255 191.818 173.587 192.49 173.861C192.625 174.554 193.028 175.204 193.73 175.579C193.894 175.666 194.059 175.738 194.238 175.81C194.298 176.662 194.821 177.485 195.956 177.803C196.897 178.048 197.883 178.294 198.869 178.092C199.212 178.034 199.884 177.76 199.974 177.702C200.96 177.298 201.976 176.72 202.394 175.767C202.633 175.276 202.648 174.785 202.498 174.352C202.872 173.991 203.081 173.5 203.126 172.995C204.097 171.753 204.799 170.309 205.157 168.822C205.366 167.783 205.501 166.729 205.516 165.66C205.516 165.617 205.516 165.588 205.516 165.545C205.516 165.516 205.516 165.501 205.516 165.472Z" fill="#0864B0"/>
</g>
<path d="M77.217 166.512C77.1423 166.512 77.0826 166.512 77.0079 166.498C69.9872 165.27 62.7276 163.985 55.5725 162.094C52.7941 161.199 50.1202 160.607 47.297 159.986C44.2199 159.307 41.0233 158.6 37.7669 157.502C37.1694 157.3 36.8557 156.679 37.0648 156.102C37.2739 155.524 37.9162 155.235 38.5137 155.423C41.6506 156.492 44.7726 157.17 47.79 157.834C50.5534 158.441 53.4065 159.076 56.2297 159.986C62.8769 161.733 69.7183 162.975 76.3656 164.144C79.2336 152.925 83.1323 141.966 86.9115 131.368C89.1521 125.058 91.4824 118.547 93.5886 111.948C93.6035 111.919 93.6035 111.89 93.6185 111.862C94.3205 110.158 95.0824 108.468 95.8292 106.851C97.8309 102.462 99.713 98.3036 100.639 93.4955C100.609 93.4522 100.52 93.3799 100.475 93.3655C100.34 93.3655 100.221 93.3366 100.086 93.2933C93.8724 91.012 87.3746 89.3371 81.0858 87.7344C73.6619 85.8285 65.969 83.8648 58.5002 80.8183C57.9177 80.5872 57.6488 79.9375 57.8878 79.3744C58.1268 78.8113 58.799 78.5514 59.3815 78.7824C66.701 81.7568 74.3042 83.706 81.6684 85.5975C87.9571 87.2146 94.455 88.8751 100.729 91.1708C101.894 91.3008 102.91 92.3548 102.91 93.5099C102.91 93.5821 102.91 93.6399 102.895 93.712C101.924 98.8522 99.8773 103.372 97.8906 107.732C97.1736 109.32 96.4118 110.966 95.7247 112.627C93.6035 119.24 91.2733 125.752 89.0326 132.061C84.9846 143.439 81.1605 154.181 78.2925 165.646C78.2029 166.165 77.7398 166.512 77.217 166.512Z" fill="#0864B0"/>
<path d="M62.8173 163.003C62.7276 163.003 62.638 162.989 62.5335 162.975C61.921 162.83 61.5476 162.224 61.7119 161.646C68.2546 136.436 77.4561 109.652 86.9713 88.1387C87.2253 87.5756 87.8825 87.3157 88.4651 87.5612C89.0477 87.8066 89.3165 88.4419 89.0626 89.005C79.5922 110.403 70.4354 137.086 63.9226 162.18C63.7882 162.671 63.3251 163.003 62.8173 163.003Z" fill="#0864B0"/>
<path d="M249.343 169.717C249.163 169.717 248.984 169.674 248.82 169.602C248.536 169.457 248.327 169.226 248.252 168.923C243.726 153.878 238.946 138.847 233.882 122.921C231.268 114.706 228.564 106.201 225.861 97.596C225.696 97.0907 225.935 96.5564 226.413 96.311C237.945 90.2756 250.06 85.121 262.443 80.9771C263.04 80.7749 263.683 81.0781 263.892 81.6557C264.101 82.2332 263.787 82.8541 263.19 83.0562C251.21 87.0558 239.484 92.0227 228.311 97.8126C230.925 106.115 233.539 114.33 236.063 122.272C241.007 137.808 245.683 152.492 250.119 167.176C260.695 163.523 271.211 159.35 281.384 154.759C281.951 154.499 282.624 154.744 282.892 155.293C283.161 155.842 282.907 156.492 282.34 156.751C271.734 161.531 260.77 165.877 249.731 169.645C249.597 169.688 249.477 169.717 249.343 169.717Z" fill="#0864B0"/>
<path d="M263.04 163.956C262.532 163.956 262.069 163.624 261.935 163.133C255.288 138.977 247.729 114.735 239.424 91.0696C239.23 90.4921 239.544 89.8712 240.141 89.6691C240.739 89.4814 241.381 89.7846 241.59 90.3622C249.895 114.071 257.484 138.371 264.131 162.57C264.295 163.162 263.937 163.754 263.324 163.913C263.235 163.942 263.13 163.956 263.04 163.956Z" fill="#0864B0"/>
<path d="M137.102 131.224C134.488 131.224 131.426 130.126 130.051 127.556C127.602 122.965 132.202 117.81 133.711 116.106C139.955 109.104 146.408 101.87 154.444 96.4121C163.497 90.2612 173.4 87.4746 182.318 88.5719C186.874 89.135 191.221 90.68 195.418 92.1816C196.777 92.6725 198.167 93.1634 199.541 93.6254C208.294 96.5276 217.421 98.0581 226.668 98.1881C227.295 98.2025 227.803 98.6934 227.788 99.2998C227.773 99.9063 227.295 100.412 226.638 100.383C217.152 100.253 207.786 98.679 198.809 95.7046C197.405 95.2426 196.001 94.7372 194.626 94.2463C190.549 92.788 186.336 91.2863 182.034 90.7521C173.684 89.727 164.348 92.3837 155.759 98.2169C147.961 103.516 141.598 110.649 135.444 117.536C132.008 121.391 130.903 124.337 132.083 126.531C133.084 128.394 135.518 129.116 137.505 129C139.776 128.87 141.912 127.903 144.257 126.762C145.825 125.997 147.394 125.246 148.947 124.495C158.522 119.889 167.56 115.543 176.134 109.696C176.642 109.349 177.359 109.465 177.717 109.956C178.076 110.447 177.956 111.14 177.448 111.486C168.725 117.42 159.613 121.81 149.963 126.445C148.41 127.195 146.841 127.946 145.273 128.711C142.793 129.924 140.328 131.022 137.64 131.18C137.445 131.209 137.281 131.224 137.102 131.224Z" fill="#0864B0"/>
<path d="M221.245 171.291C220.797 171.291 220.379 171.031 220.2 170.612C219.961 170.049 220.229 169.414 220.812 169.183C228.998 165.92 237.258 162.541 245.369 159.105C245.952 158.859 246.609 159.119 246.863 159.668C247.117 160.231 246.848 160.866 246.281 161.112C238.155 164.548 229.879 167.941 221.693 171.204C221.529 171.276 221.395 171.291 221.245 171.291Z" fill="#0864B0"/>
<path d="M218.063 175.709C217.824 175.709 217.6 175.695 217.406 175.666C213.627 175.276 209.908 172.85 207.204 169.024C205.471 166.569 204.276 163.826 203.111 161.184C202.752 160.346 202.379 159.509 202.006 158.686C198.914 152.001 194.746 145.893 189.592 140.522C189.159 140.074 189.189 139.381 189.652 138.963C190.115 138.544 190.832 138.573 191.265 139.02C196.583 144.565 200.9 150.875 204.082 157.776C204.47 158.614 204.844 159.466 205.217 160.317C206.382 162.989 207.488 165.501 209.086 167.782C211.416 171.089 214.538 173.153 217.645 173.486C217.824 173.5 218.362 173.558 218.616 173.413C218.9 173.24 219.034 172.663 219.005 171.695C218.586 158.946 214.254 146.124 206.786 135.613C199.317 125.101 188.502 116.583 176.343 111.63C175.76 111.399 175.491 110.749 175.73 110.186C175.969 109.623 176.642 109.363 177.224 109.594C189.787 114.706 200.945 123.499 208.668 134.357C216.376 145.215 220.872 158.44 221.29 171.609C221.32 172.345 221.38 174.323 219.841 175.247C219.258 175.622 218.616 175.709 218.063 175.709Z" fill="#0864B0"/>
<path d="M161.256 187.766C159.672 187.766 157.626 187.52 155.415 185.946C154.907 185.586 154.803 184.892 155.176 184.416C155.55 183.925 156.267 183.824 156.759 184.185C158.881 185.687 160.658 185.614 162.227 185.557L162.391 185.542C164.751 185.456 167.29 184.286 168.71 182.64C169.322 181.932 170.024 180.806 169.83 179.435C169.83 179.391 169.815 179.334 169.815 179.29C169.83 176.951 169.486 174.554 169.188 172.735C169.113 172.259 169.367 171.782 169.815 171.565C170.263 171.349 170.816 171.464 171.144 171.825C172.862 173.659 174.655 175.565 176.821 176.821C179.091 178.135 181.601 178.496 183.543 177.817C186.216 176.865 188.965 172.374 188.367 169.919C188.218 169.328 188.591 168.736 189.204 168.591C189.816 168.447 190.429 168.808 190.578 169.4C191.534 173.24 187.815 178.64 184.334 179.868C181.705 180.792 178.553 180.373 175.656 178.698C174.251 177.89 173.027 176.879 171.891 175.796C172.011 176.893 172.085 178.048 172.085 179.204C172.295 180.893 171.727 182.553 170.442 184.041C168.605 186.163 165.468 187.607 162.466 187.722H162.301C161.988 187.751 161.629 187.766 161.256 187.766Z" fill="#0864B0"/>
<path d="M198.675 178.756C197.733 178.756 196.837 178.511 195.986 178.193C191.684 176.576 189.398 172.057 187.202 167.667C185.679 164.635 184.095 161.488 181.929 159.639C181.466 159.235 181.422 158.542 181.84 158.094C182.258 157.647 182.975 157.603 183.453 158.008C185.948 160.159 187.636 163.494 189.264 166.714C191.37 170.902 193.372 174.858 196.837 176.143C198.331 176.706 200.183 177.399 202.648 173.371C203.32 172.273 203.499 170.887 203.604 169.544C203.843 166.108 202.902 162.585 201.976 159.163C201.841 158.643 201.692 158.123 201.557 157.603C201.408 157.012 201.767 156.419 202.379 156.275C202.991 156.131 203.604 156.477 203.753 157.069C203.888 157.589 204.022 158.094 204.172 158.614C205.142 162.209 206.143 165.92 205.859 169.703C205.74 171.306 205.516 173.01 204.59 174.497C202.543 177.789 200.542 178.756 198.675 178.756Z" fill="#0864B0"/>
<path d="M124.703 178.106C124.599 178.106 124.509 178.106 124.405 178.106C120.148 178.005 116.458 175.551 115.427 172.143C115.039 170.858 115.039 169.544 115.233 168.288C112.918 169.674 110.02 170.266 107.256 169.775C103.029 169.039 99.4739 165.689 98.8167 161.805C98.5478 160.202 99.0706 159.307 99.5486 158.845C99.9967 158.412 100.714 158.426 101.162 158.859C101.61 159.293 101.595 159.986 101.147 160.419C101.042 160.52 100.953 160.852 101.057 161.458C101.58 164.462 104.344 167.061 107.66 167.624C110.886 168.187 114.337 166.931 116.234 164.505C116.548 164.115 117.085 163.971 117.563 164.144C117.982 163.927 118.355 163.783 118.594 163.696C123.15 161.978 127.915 160.924 132.785 160.563C136.698 160.274 139.312 161.184 140.522 163.278C141.105 164.274 141.314 165.516 141.12 166.931C140.881 168.75 140.074 170.511 138.82 171.898C137.61 173.24 136.071 174.179 134.577 175.002C131.978 176.446 128.498 178.106 124.703 178.106ZM117.937 166.555C117.429 168.418 117.175 170.006 117.623 171.522C118.46 174.309 121.701 175.825 124.464 175.897C127.796 175.984 131.037 174.439 133.487 173.082C134.801 172.36 136.161 171.537 137.132 170.439C138.088 169.385 138.7 168.028 138.879 166.642C138.969 165.992 138.969 165.068 138.551 164.332C137.624 162.729 134.995 162.585 132.964 162.729C128.318 163.076 123.762 164.086 119.416 165.718C118.714 166.007 118.206 166.281 117.937 166.555Z" fill="#0864B0"/>
<path d="M135.862 185.542C134.084 185.542 132.411 185.138 131.007 184.329C128.244 182.755 126.586 179.622 126.87 176.547C126.929 175.94 127.482 175.507 128.109 175.55C128.737 175.608 129.2 176.142 129.14 176.749C128.931 178.972 130.171 181.311 132.172 182.452C134.099 183.549 136.713 183.651 139.357 182.741C141.837 181.889 144.003 180.33 146.199 178.684C149.306 176.33 152.234 173.688 152.488 170.367C152.502 170.165 152.517 169.89 152.443 169.717C152.368 169.558 152.159 169.371 151.815 169.169C150.172 168.216 147.947 167.985 145.556 168.504C143.45 168.966 141.718 169.833 139.716 170.829L139.372 171.002C138.82 171.277 138.133 171.074 137.834 170.526C137.535 169.977 137.759 169.327 138.327 169.039L138.67 168.865C140.717 167.84 142.659 166.873 145.049 166.353C148.006 165.703 150.829 166.035 152.98 167.277C153.473 167.566 154.175 168.042 154.534 168.836C154.803 169.443 154.803 170.064 154.758 170.526C154.429 174.699 151.113 177.731 147.588 180.402C145.347 182.106 142.913 183.838 140.104 184.806C138.685 185.297 137.236 185.542 135.862 185.542Z" fill="#0864B0"/>
<path d="M149.142 188.661C147.513 188.661 145.885 188.3 144.436 187.607C142.748 186.798 140.986 185.167 141.12 183.044C141.165 182.438 141.703 181.976 142.33 182.019C142.957 182.062 143.435 182.582 143.391 183.189C143.316 184.243 144.451 185.167 145.437 185.643C146.99 186.394 148.783 186.639 150.486 186.365C153.205 185.917 155.535 184.199 157.477 182.582C159.658 180.748 160.599 179.247 160.419 177.817C160.21 176.157 158.343 175.045 156.73 174.958C155.102 174.872 153.444 175.522 151.502 176.994C151.009 177.37 150.292 177.283 149.903 176.807C149.515 176.33 149.605 175.637 150.098 175.262C151.606 174.121 153.966 172.619 156.849 172.764C159.434 172.908 162.316 174.728 162.675 177.557C163.033 180.46 160.733 182.77 158.97 184.243C156.924 185.961 154.161 187.982 150.874 188.531C150.307 188.618 149.724 188.661 149.142 188.661Z" fill="#0864B0"/>
<path d="M117.265 165.545C116.727 165.545 116.234 165.169 116.144 164.635C115.741 162.383 113.187 161.04 111.693 160.433C107.346 158.657 103.567 158.715 100.46 160.607C99.9519 160.91 99.2797 160.794 98.9361 160.318C94.5893 154.485 89.167 150.167 82.8185 147.496C82.2359 147.251 81.982 146.601 82.2359 146.052C82.4899 145.489 83.1621 145.244 83.7297 145.489C90.1678 148.204 95.6947 152.492 100.176 158.239C103.746 156.448 107.914 156.506 112.574 158.412C115.875 159.755 117.952 161.834 118.385 164.274C118.489 164.866 118.071 165.444 117.459 165.545C117.399 165.545 117.339 165.545 117.265 165.545Z" fill="#0864B0"/>
<path d="M100.833 98.5779C100.31 98.5779 99.8473 98.2314 99.7278 97.726C99.5933 97.134 99.9668 96.542 100.579 96.4121C113.157 93.5965 124.733 89.7414 134.398 86.3339L135.249 86.0307C138.924 84.7312 142.718 83.3739 146.736 82.9552C155.953 81.9734 164.467 85.7996 171.966 89.1783C172.534 89.4382 172.787 90.0879 172.519 90.6366C172.25 91.1853 171.578 91.4307 171.01 91.1708C163.78 87.9077 155.579 84.2258 146.99 85.1355C143.256 85.5253 139.596 86.8392 136.041 88.0954L135.19 88.3986C125.465 91.835 113.814 95.719 101.102 98.5634C100.997 98.5634 100.923 98.5779 100.833 98.5779Z" fill="#0864B0"/>
<path d="M123.389 79.5042C123.016 79.5042 122.642 79.3165 122.433 78.9989C122.104 78.4791 122.254 77.8005 122.792 77.4828C133.128 71.1587 145.541 68.0543 157.745 68.7041C158.373 68.733 158.851 69.2528 158.821 69.8592C158.791 70.4656 158.253 70.9276 157.626 70.8988C145.885 70.249 133.95 73.2523 124.016 79.331C123.807 79.4465 123.598 79.5042 123.389 79.5042Z" fill="#0864B0"/>
<path d="M116.249 68.762C115.875 68.762 115.517 68.5888 115.293 68.2567C114.949 67.7514 115.099 67.0727 115.622 66.7406C121.731 62.8999 128.752 60.2288 135.922 59.0159C136.534 58.9148 137.132 59.3047 137.236 59.9111C137.341 60.5031 136.937 61.0807 136.31 61.1817C129.439 62.3513 122.702 64.9069 116.846 68.5888C116.682 68.7043 116.473 68.762 116.249 68.762Z" fill="#0864B0"/>
<path d="M189.04 189.441C188.427 189.441 187.919 188.964 187.904 188.372C187.889 187.766 188.382 187.26 189.01 187.246C195.642 187.044 202.095 184.705 207.219 180.633C207.712 180.243 208.414 180.315 208.817 180.792C209.22 181.254 209.146 181.947 208.653 182.337C203.141 186.712 196.195 189.238 189.07 189.455C189.055 189.441 189.055 189.441 189.04 189.441Z" fill="#0864B0"/>
</svg>
