<svg width="320" height="248" viewBox="0 0 320 248" fill="none" xmlns="http://www.w3.org/2000/svg">
<path opacity="0.3" d="M254.679 129.137C256.232 127.566 256.232 125.02 254.679 123.449L145.393 12.9292C143.685 11.2019 140.861 11.4003 139.406 13.3499L99.1415 67.2889C97.946 68.8903 98.1005 71.1378 99.5035 72.5566L149.71 123.329C151.263 124.9 151.263 127.447 149.71 129.018L93.106 186.26C91.3987 187.987 91.5939 190.841 93.5201 192.314L146.962 233.164C148.546 234.375 150.77 234.219 152.173 232.8L254.679 129.137Z" fill="#1090F9"/>
<path opacity="0.3" d="M253.888 132.632C255.053 133.81 255.053 135.72 253.888 136.898L151.383 240.561C150.33 241.625 148.662 241.742 147.474 240.834L94.0323 199.984C92.5877 198.879 92.4412 196.739 93.7217 195.444L150.326 138.201C152.267 136.238 152.267 133.054 150.326 131.091L100.119 80.3177C99.0669 79.2536 98.9511 77.568 99.8477 76.3669L140.112 22.428C141.203 20.9658 143.321 20.8169 144.602 22.1124L253.888 132.632Z" stroke="#40CDFC" stroke-width="2"/>
<path opacity="0.3" d="M196.259 26.6185C197.364 26.6185 198.259 27.514 198.259 28.6185L198.259 31.3717C198.259 32.2622 197.472 32.9472 196.59 32.8243C195.865 32.7233 195.326 32.1035 195.326 31.3717L195.326 31.1828C195.326 30.282 194.596 29.5517 193.695 29.5517L193.506 29.5517C192.615 29.5517 191.93 28.7647 192.053 27.8827C192.154 27.1579 192.774 26.6185 193.506 26.6185L196.259 26.6185Z" fill="#1090F9"/>
<path opacity="0.3" d="M246.27 71.3224C246.823 72.279 246.495 73.5022 245.538 74.0545L241.454 76.4123C240.403 77.0194 239.057 76.557 238.601 75.4316L238.56 75.3319C238.186 74.4071 238.55 73.3475 239.414 72.8485L239.929 72.5514C240.885 71.9991 241.213 70.7759 240.661 69.8193L240.356 69.2918C239.749 68.2402 240.211 66.8945 241.337 66.4383L241.436 66.3979C242.361 66.023 243.421 66.3872 243.92 67.2514L246.27 71.3224Z" fill="#1090F9"/>
<path opacity="0.3" d="M148.408 211.678C148.96 212.634 148.632 213.857 147.676 214.41L143.592 216.767C142.54 217.375 141.195 216.912 140.739 215.787L140.698 215.687C140.323 214.762 140.687 213.703 141.552 213.204L142.066 212.906C143.023 212.354 143.351 211.131 142.798 210.174L142.494 209.647C141.887 208.595 142.349 207.25 143.474 206.793L143.574 206.753C144.499 206.378 145.559 206.742 146.058 207.607L148.408 211.678Z" fill="#1090F9"/>
<path opacity="0.3" d="M244.741 168.593C243.96 167.812 243.96 166.545 244.741 165.764L252.143 158.363C253.024 157.482 254.487 157.612 255.199 158.635L255.929 159.685C256.482 160.48 256.386 161.557 255.702 162.241L253.246 164.696C252.465 165.478 252.465 166.744 253.246 167.525L254.7 168.979C255.542 169.82 255.467 171.205 254.54 171.951L252.37 173.697C251.574 174.337 250.424 174.275 249.702 173.553L244.741 168.593Z" fill="#1090F9"/>
<path d="M252.807 182.883H184.74V133.142H252.807V182.883Z" fill="#BDEEFE" stroke="#054375" stroke-width="2"/>
<path d="M106.202 182.883V99.4642L145.471 59.8401L184.74 99.4642V182.883H106.202Z" fill="#F0FBFF" stroke="#054375" stroke-width="2"/>
<rect x="139.926" y="94.8733" width="13.7076" height="15.0166" fill="white" stroke="#054375" stroke-width="2"/>
<rect x="156.943" y="140.687" width="20.2525" height="24.1794" fill="white" stroke="#054375" stroke-width="2"/>
<rect x="209.302" y="141.996" width="20.2525" height="22.8704" fill="white" stroke="#054375" stroke-width="2"/>
<rect x="136.308" y="108.272" width="20.9435" height="5.23588" fill="#054375"/>
<rect x="153.325" y="163.249" width="27.4884" height="5.23588" fill="#054375"/>
<rect x="205.684" y="163.249" width="27.4884" height="5.23588" fill="#054375"/>
<rect x="118.983" y="140.687" width="21.5615" height="37.2691" fill="#05BDFB" stroke="#054375" stroke-width="2"/>
<rect x="1" y="-1" width="7.23588" height="9.85382" transform="matrix(-1 0 0 1 134.381 147.541)" fill="#F0FBFF" stroke="#054375" stroke-width="2"/>
<rect x="112.747" y="178.956" width="35.3422" height="5.23588" fill="#054375"/>
<path d="M159.87 72.9298H238.284L263.278 133.142H185.354V98.1803L159.87 72.9298Z" fill="#05BDFB" stroke="#054375" stroke-width="2"/>
<path d="M93.1123 108.681L146.78 55.9132L200.448 108.681L196.87 112.199L146.78 62.9489L96.6902 112.199L93.1123 108.681Z" fill="#05BDFB" stroke="#054375" stroke-width="2"/>
<path d="M148.089 96.4912H145.471L141.544 101.727V105.654L148.089 96.4912Z" fill="#EFF2F6"/>
<path d="M165.106 142.305H162.488L158.561 147.541V151.468L165.106 142.305Z" fill="#EFF2F6"/>
<path d="M152.016 96.4912H149.398L141.544 108.272H144.162L152.016 96.4912Z" fill="#EFF2F6"/>
<path d="M171.65 142.305H167.724L158.561 155.395V160.631L171.65 142.305Z" fill="#EFF2F6"/>
<path d="M217.465 143.614H214.847L210.92 148.85V152.777L217.465 143.614Z" fill="#EFF2F6"/>
<path d="M224.009 143.614H220.082L210.92 156.704V161.94L224.009 143.614Z" fill="#EFF2F6"/>
<path d="M137.617 163.249H135" stroke="#054375" stroke-width="2"/>
<path d="M54.8433 136.031C54.8433 150.208 64.9585 161.481 77.1817 161.481C89.4049 161.481 99.52 150.208 99.52 136.031C99.52 121.854 89.4049 110.581 77.1817 110.581C64.9585 110.581 54.8433 121.854 54.8433 136.031Z" fill="#8CD133" stroke="#375313" stroke-width="2"/>
<path d="M80.2937 185.042V141.477M80.2937 141.477L74.0701 149.256L68.6245 141.477M80.2937 141.477L87.2952 134.475" stroke="#752901" stroke-width="2"/>
<rect x="54.8433" y="183.883" width="211.157" height="7.33533" fill="#05BDFB" stroke="#054375" stroke-width="2"/>
</svg>
