<svg width="235" height="243" viewBox="0 0 235 243" fill="none" xmlns="http://www.w3.org/2000/svg">
<path opacity="0.3" d="M227.679 120.137C229.232 118.566 229.232 116.02 227.679 114.449L118.393 3.92917C116.685 2.20188 113.861 2.40033 112.406 4.34994L72.1415 58.2889C70.946 59.8903 71.1005 62.1378 72.5035 63.5566L122.71 114.329C124.263 115.9 124.263 118.447 122.71 120.018L66.106 177.26C64.3987 178.987 64.5939 181.841 66.5201 183.314L119.962 224.164C121.546 225.375 123.77 225.219 125.173 223.8L227.679 120.137Z" fill="#1090F9"/>
<path opacity="0.3" d="M226.888 123.632C228.053 124.81 228.053 126.72 226.888 127.898L124.383 231.561C123.33 232.625 121.662 232.742 120.474 231.834L67.0323 190.984C65.5877 189.879 65.4412 187.739 66.7217 186.444L123.326 129.201C125.267 127.238 125.267 124.054 123.326 122.091L73.1192 71.3177C72.0669 70.2536 71.9511 68.568 72.8477 67.3669L113.112 13.428C114.203 11.9658 116.321 11.8169 117.602 13.1124L226.888 123.632Z" stroke="#05BDFB" stroke-width="2"/>
<path opacity="0.3" d="M169.259 17.6185C170.364 17.6185 171.259 18.5139 171.259 19.6185L171.259 22.3716C171.259 23.2621 170.472 23.9471 169.59 23.8242C168.865 23.7232 168.326 23.1034 168.326 22.3716L168.326 22.1827C168.326 21.2819 167.596 20.5517 166.695 20.5517L166.506 20.5517C165.615 20.5517 164.93 19.7646 165.053 18.8827C165.154 18.1579 165.774 17.6185 166.506 17.6185L169.259 17.6185Z" fill="#1090F9"/>
<path opacity="0.3" d="M219.27 62.3224C219.823 63.279 219.495 64.5022 218.538 65.0545L214.454 67.4123C213.403 68.0194 212.057 67.557 211.601 66.4316L211.56 66.3319C211.186 65.4071 211.55 64.3475 212.414 63.8485L212.929 63.5514C213.885 62.9991 214.213 61.7759 213.661 60.8193L213.356 60.2918C212.749 59.2402 213.211 57.8945 214.337 57.4383L214.436 57.3979C215.361 57.023 216.421 57.3872 216.92 58.2514L219.27 62.3224Z" fill="#1090F9"/>
<path opacity="0.3" d="M121.408 202.678C121.96 203.634 121.632 204.857 120.676 205.41L116.592 207.767C115.54 208.375 114.195 207.912 113.739 206.787L113.698 206.687C113.323 205.762 113.687 204.703 114.552 204.204L115.066 203.906C116.023 203.354 116.351 202.131 115.798 201.174L115.494 200.647C114.887 199.595 115.349 198.25 116.474 197.793L116.574 197.753C117.499 197.378 118.559 197.742 119.058 198.607L121.408 202.678Z" fill="#1090F9"/>
<path opacity="0.3" d="M217.741 159.593C216.96 158.812 216.96 157.545 217.741 156.764L225.143 149.363C226.024 148.482 227.487 148.612 228.199 149.635L228.929 150.685C229.482 151.48 229.386 152.557 228.702 153.241L226.246 155.696C225.465 156.478 225.465 157.744 226.246 158.525L227.7 159.979C228.542 160.82 228.467 162.205 227.54 162.951L225.37 164.697C224.574 165.337 223.424 165.275 222.702 164.553L217.741 159.593Z" fill="#1090F9"/>
<path d="M79.4189 167.76V66.3302C79.4189 58.4302 85.8189 52.0302 93.7189 52.0302H139.869C147.769 52.0302 154.169 58.4302 154.169 66.3302V167.76C154.169 175.66 147.769 182.06 139.869 182.06H93.7189C85.8189 182.06 79.4189 175.66 79.4189 167.76Z" fill="#7CDDFD"/>
<path d="M139.969 182.93H93.6191C85.3091 182.93 78.5491 176.17 78.5491 167.86V66.2301C78.5491 57.9201 85.3091 51.1602 93.6191 51.1602H139.969C148.279 51.1602 155.039 57.9201 155.039 66.2301V167.86C155.039 176.17 148.279 182.93 139.969 182.93ZM93.6191 52.8902C86.2691 52.8902 80.2891 58.8702 80.2891 66.2202V167.85C80.2891 175.2 86.2691 181.18 93.6191 181.18H139.969C147.319 181.18 153.299 175.2 153.299 167.85V66.2301C153.299 58.8801 147.319 52.9001 139.969 52.9001H93.6191V52.8902Z" fill="#054375"/>
<path d="M154.179 65.8502H79.4189V163.91H154.179V65.8502Z" fill="white"/>
<path opacity="0.2" d="M149.169 66.5008C146.619 66.4308 144.069 66.3108 141.519 66.3408C134.659 66.2708 127.789 66.2808 120.919 66.3708C115.519 66.4108 110.119 66.6308 104.719 66.2708C98.0991 66.0708 91.4791 65.6708 84.8491 65.9408C83.9191 65.9608 82.9891 65.9508 82.0591 65.9108C81.4991 65.8708 80.8991 65.7908 80.3891 66.0808C77.8591 67.0508 78.6491 70.9708 81.3691 70.9408C84.5991 71.1708 87.8491 70.9208 91.0791 70.9908C94.9391 70.9708 98.7891 71.2908 102.649 71.3708C117.049 71.4608 131.459 71.5208 145.859 71.2608C147.769 71.2908 149.689 71.2508 151.599 71.2108C153.179 71.3908 154.789 70.6408 154.809 68.8608C154.609 65.7908 151.309 66.6108 149.169 66.5008Z" fill="#054375"/>
<path d="M154.169 164.78H79.4091C78.9291 164.78 78.5391 164.39 78.5391 163.91V65.8502C78.5391 65.3702 78.9291 64.9802 79.4091 64.9802H154.169C154.649 64.9802 155.039 65.3702 155.039 65.8502V163.91C155.039 164.39 154.659 164.78 154.169 164.78ZM80.2891 163.04H153.309V66.7202H80.2891V163.04Z" fill="#054375"/>
<path d="M124.289 171.83H110.819C110.339 171.83 109.949 171.44 109.949 170.96C109.949 170.48 110.339 170.09 110.819 170.09H124.289C124.769 170.09 125.159 170.48 125.159 170.96C125.159 171.44 124.769 171.83 124.289 171.83Z" fill="#054375"/>
<path d="M98.709 77.5582C98.709 75.8582 100.089 74.4882 101.779 74.4882C103.469 74.4882 104.849 75.8682 104.849 77.5582C104.849 79.2582 103.469 80.6282 101.779 80.6282C100.089 80.6282 98.709 79.2582 98.709 77.5582Z" fill="white"/>
<path d="M101.779 81.4982C99.6091 81.4982 97.8391 79.7282 97.8391 77.5582C97.8391 75.3882 99.6091 73.6182 101.779 73.6182C103.949 73.6182 105.719 75.3882 105.719 77.5582C105.719 79.7382 103.949 81.4982 101.779 81.4982ZM101.779 75.3582C100.569 75.3582 99.5791 76.3482 99.5791 77.5582C99.5791 78.7682 100.569 79.7582 101.779 79.7582C102.989 79.7582 103.979 78.7682 103.979 77.5582C103.979 76.3482 102.989 75.3582 101.779 75.3582Z" fill="#054375"/>
<path d="M113.579 77.5582C113.579 75.8582 114.959 74.4882 116.649 74.4882C118.349 74.4882 119.719 75.8682 119.719 77.5582C119.719 79.2582 118.339 80.6282 116.649 80.6282C114.959 80.6282 113.579 79.2582 113.579 77.5582Z" fill="white"/>
<path d="M116.649 81.4982C114.479 81.4982 112.709 79.7282 112.709 77.5582C112.709 75.3882 114.479 73.6182 116.649 73.6182C118.819 73.6182 120.589 75.3882 120.589 77.5582C120.599 79.7382 118.829 81.4982 116.649 81.4982ZM116.649 75.3582C115.439 75.3582 114.449 76.3482 114.449 77.5582C114.449 78.7682 115.439 79.7582 116.649 79.7582C117.859 79.7582 118.849 78.7682 118.849 77.5582C118.859 76.3482 117.869 75.3582 116.649 75.3582Z" fill="#054375"/>
<path d="M128.459 77.5582C128.459 75.8582 129.839 74.4882 131.529 74.4882C133.229 74.4882 134.599 75.8682 134.599 77.5582C134.599 79.2582 133.219 80.6282 131.529 80.6282C129.829 80.6282 128.459 79.2582 128.459 77.5582Z" fill="white"/>
<path d="M131.529 81.4982C129.359 81.4982 127.589 79.7282 127.589 77.5582C127.589 75.3882 129.359 73.6182 131.529 73.6182C133.699 73.6182 135.469 75.3882 135.469 77.5582C135.469 79.7382 133.699 81.4982 131.529 81.4982ZM131.529 75.3582C130.319 75.3582 129.329 76.3482 129.329 77.5582C129.329 78.7682 130.319 79.7582 131.529 79.7582C132.739 79.7582 133.729 78.7682 133.729 77.5582C133.729 76.3482 132.739 75.3582 131.529 75.3582Z" fill="#054375"/>
<g opacity="0.1294">
<path d="M105.819 80.2082C105.379 78.9682 103.589 78.7882 102.799 79.7982C102.789 79.8082 102.789 79.8082 102.779 79.8082C102.669 79.8882 102.559 79.9582 102.439 80.0282C102.299 80.0782 102.149 80.1182 101.999 80.1482C101.969 80.1482 101.949 80.1482 101.919 80.1582C101.859 80.1582 101.799 80.1482 101.739 80.1482C101.679 80.1382 101.609 80.1182 101.529 80.0982C101.369 80.0582 101.249 80.0082 101.169 79.9882C101.079 79.9382 100.989 79.8882 100.899 79.8382C100.789 79.7282 100.669 79.6282 100.519 79.5382C99.1691 78.6182 97.339 79.9582 97.789 81.5282C98.209 82.7782 99.6991 83.3282 100.889 83.6082C102.719 84.1282 106.759 82.5482 105.819 80.2082Z" fill="#054375"/>
</g>
<g opacity="0.1294">
<path d="M121.089 80.0481C120.709 78.9681 119.159 78.6881 118.389 79.5081C118.299 79.5981 118.209 79.6781 118.109 79.7681C118.079 79.7881 118.059 79.8081 118.019 79.8281C117.389 80.1081 117.499 80.0581 116.679 80.1381C116.569 80.1381 116.469 80.1281 116.359 80.1181C116.239 80.0882 116.109 80.0481 116.019 80.0181C115.839 79.9281 115.659 79.8382 115.489 79.7282C115.459 79.7082 115.439 79.6981 115.419 79.6781C115.219 79.4981 115.039 79.3081 114.779 79.2381C113.209 78.4981 111.769 80.6681 113.009 81.8581C114.469 83.3281 116.649 83.7481 118.599 83.1781C119.869 82.7681 121.779 81.6281 121.089 80.0481Z" fill="#054375"/>
</g>
<g opacity="0.1294">
<path d="M135.869 80.3682C135.559 79.2082 134.079 78.8782 133.219 79.6282C133.109 79.6982 132.989 79.7582 132.869 79.8082C132.809 79.8382 132.749 79.8582 132.689 79.8882C132.629 79.9082 132.469 79.9682 132.289 80.0182C132.219 80.0382 132.149 80.0482 132.089 80.0682C131.949 80.0682 131.809 80.0682 131.669 80.0582C130.849 79.8882 130.859 79.8182 130.629 79.7182C129.909 79.3382 129.139 78.6982 128.269 78.9382C126.969 79.2482 126.719 81.1582 127.899 81.7982C128.579 82.1182 129.169 82.5982 129.889 82.8482C130.699 83.1482 131.589 83.2282 132.449 83.1882C133.959 83.1382 136.329 82.2582 135.869 80.3682Z" fill="#054375"/>
</g>
<path d="M93.179 139.8C93.099 139.8 93.029 139.77 92.969 139.71C92.859 139.59 92.859 139.41 92.979 139.3L117.209 116.12C117.329 116.01 117.509 116.01 117.619 116.13C117.729 116.25 117.729 116.43 117.609 116.54L93.379 139.72C93.319 139.77 93.249 139.8 93.179 139.8Z" fill="#054375"/>
<path d="M92.8689 149.03C92.7989 149.03 92.7189 149 92.6689 148.95C92.5489 148.84 92.5489 148.66 92.6589 148.54C100.789 140.08 109.169 131.62 117.559 123.38C117.679 123.27 117.859 123.27 117.969 123.38C118.079 123.49 118.079 123.68 117.969 123.79C109.589 132.02 101.209 140.48 93.079 148.94C93.029 149 92.9489 149.03 92.8689 149.03Z" fill="#054375"/>
<path d="M100.929 148.87C100.859 148.87 100.779 148.84 100.729 148.79C100.619 148.68 100.619 148.49 100.729 148.38L119.019 129.84C119.129 129.73 119.319 129.72 119.429 129.84C119.539 129.95 119.549 130.14 119.429 130.25L101.139 148.79C101.079 148.84 100.999 148.87 100.929 148.87Z" fill="#054375"/>
<path d="M109.249 149.27C109.179 149.27 109.109 149.24 109.049 149.19C108.929 149.08 108.929 148.9 109.039 148.78C112.999 144.66 116.899 140.37 120.609 136.02C120.709 135.9 120.899 135.88 121.019 135.99C121.139 136.09 121.159 136.28 121.049 136.4C117.329 140.76 113.429 145.06 109.459 149.19C109.409 149.24 109.329 149.27 109.249 149.27Z" fill="#054375"/>
<path d="M117.649 149C117.579 149 117.509 148.98 117.459 148.93C117.339 148.82 117.329 148.64 117.429 148.52L122.269 142.94C122.379 142.82 122.559 142.81 122.679 142.91C122.799 143.02 122.809 143.2 122.709 143.32L117.869 148.9C117.809 148.97 117.729 149 117.649 149Z" fill="#054375"/>
<circle opacity="0.1" cx="155.169" cy="120.68" r="33.1899" fill="#054375"/>
<circle cx="154.169" cy="115.68" r="34.1899" fill="white" stroke="#054375" stroke-width="2"/>
<path d="M160.2 134C160 134 159.8 133.9 159.6 133.8L156.1 131.2C155.9 131.2 155.7 131.2 155.5 131.2C155.3 131.2 155.1 131.2 154.9 131.2L151.4 133.8C151.2 134 150.8 134 150.5 134C148.9 133.6 147.4 133 146 132.2C145.7 132 145.6 131.8 145.5 131.5L145 127.1C144.7 126.8 144.5 126.6 144.2 126.3L139.9 125.7C139.6 125.7 139.3 125.5 139.2 125.2C138.4 123.8 137.8 122.3 137.4 120.7C137.3 120.4 137.4 120.1 137.6 119.8L140.2 116.3C140.2 116 140.2 115.6 140.2 115.2L137.6 111.7C137.4 111.5 137.4 111.1 137.4 110.8C137.8 109.2 138.4 107.7 139.2 106.3C139.3 106.2 139.6 106 139.9 106L144.2 105.4C144.5 105.1 144.7 104.9 145 104.6L145.6 100.3C145.6 100 145.8 99.7 146.1 99.6C147.5 98.8 149 98.2 150.6 97.8C150.9 97.7 151.2 97.8 151.5 98L155 100.6C155.2 100.6 155.4 100.6 155.6 100.6C155.8 100.6 156 100.6 156.2 100.6L159.7 98C159.9 97.8 160.3 97.8 160.6 97.8C162.2 98.2 163.7 98.8 165.1 99.6C165.4 99.8 165.5 100 165.6 100.3L166.2 104.6C166.5 104.9 166.7 105.1 167 105.4L171.3 106C171.6 106 171.9 106.2 172 106.5C172.8 107.9 173.4 109.4 173.8 111C173.9 111.3 173.8 111.6 173.6 111.9L171 115.4C171 115.7 171 116.1 171 116.5L173.6 120C173.8 120.2 173.8 120.6 173.8 120.9C173.4 122.5 172.8 124 172 125.4C171.8 125.7 171.6 125.8 171.3 125.9L167 126.5C166.8 126.7 166.5 127 166.2 127.3L165.6 131.6C165.6 131.9 165.4 132.2 165.1 132.3C163.5 133 162 133.6 160.4 134C160.3 134 160.2 134 160.2 134ZM147.5 130.7C148.5 131.2 149.5 131.7 150.6 132L154 129.5C154.2 129.4 154.4 129.3 154.7 129.3C155 129.3 155.3 129.3 155.5 129.3C155.7 129.3 156 129.3 156.2 129.3C156.5 129.3 156.7 129.3 156.9 129.5L160.3 132C161.4 131.7 162.4 131.2 163.4 130.7L164 126.5C164 126.3 164.1 126.1 164.3 125.9C164.7 125.5 165.5 124.7 165.5 124.7C165.7 124.5 165.9 124.4 166.1 124.4L170.3 123.8C170.8 122.8 171.3 121.8 171.6 120.7L169.1 117.3C169 117.1 168.9 116.9 168.9 116.6C168.9 116.2 168.9 115.3 168.9 115C168.9 114.8 169 114.5 169.1 114.4L171.6 111C171.3 109.9 170.8 108.9 170.3 107.9L166.1 107.3C165.9 107.3 165.7 107.2 165.5 107C165.1 106.6 164.7 106.2 164.3 105.8C164.1 105.6 164 105.4 164 105.2L163.5 101C162.5 100.5 161.5 100 160.4 99.7L157 102.3C156.8 102.4 156.6 102.5 156.3 102.5C156 102.5 155.7 102.5 155.5 102.5C155.3 102.5 155 102.5 154.8 102.5C154.6 102.5 154.3 102.5 154.1 102.3L150.7 99.8C149.6 100.1 148.6 100.6 147.6 101.1L147 105.3C147 105.5 146.9 105.7 146.7 105.9C146.3 106.3 145.9 106.7 145.5 107.1C145.3 107.3 145.1 107.4 144.9 107.4L140.7 108C140.2 109 139.7 110 139.4 111.1L141.9 114.5C142 114.7 142.1 114.9 142.1 115.2C142.1 115.6 142.1 116.5 142.1 116.8C142.1 117 142 117.3 141.9 117.4L139.4 120.8C139.7 121.9 140.2 122.9 140.7 123.9L144.9 124.5C145.1 124.5 145.3 124.6 145.5 124.8C145.9 125.2 146.3 125.6 146.7 126C146.9 126.2 147 126.4 147 126.6L147.5 130.7Z" fill="#F29E18"/>
<path fill-rule="evenodd" clip-rule="evenodd" d="M155.5 107.2C155 107.2 154.6 107.4 154.2 107.7C153.9 108 153.7 108.5 153.7 109V110.8H161.8C162.7 110.8 163.4 111.5 163.4 112.4V121.2C163.4 122.1 162.7 122.8 161.8 122.8H149.2C148.3 122.8 147.6 122.1 147.6 121.2V112.4C147.6 111.5 148.3 110.8 149.2 110.8H151.6V109C151.6 108 152 107 152.7 106.3C153.4 105.6 154.4 105.2 155.4 105.2C156.4 105.2 157.4 105.6 158.1 106.3C158.8 107 159.2 108 159.2 109C159.2 109.6 158.8 110 158.2 110C157.6 110 157.2 109.6 157.2 109C157.2 108.5 157 108.1 156.7 107.7C156.4 107.4 156 107.2 155.5 107.2ZM149.6 112.9H152.7H161.4V120.9H149.6V112.9ZM156.6 116.9C156.6 117.5 156.2 117.9 155.6 117.9C155 117.9 154.6 117.5 154.6 116.9C154.6 116.3 155 115.9 155.6 115.9C156.2 115.9 156.6 116.4 156.6 116.9Z" fill="#F29E18"/>
</svg>
