<svg width="320" height="248" viewBox="0 0 320 248" fill="none" xmlns="http://www.w3.org/2000/svg">
<path opacity="0.3" d="M254.679 129.137C256.232 127.566 256.232 125.02 254.679 123.449L145.393 12.9292C143.685 11.2019 140.861 11.4004 139.406 13.35L99.1415 67.2889C97.946 68.8903 98.1005 71.1378 99.5035 72.5566L149.71 123.329C151.263 124.9 151.263 127.447 149.71 129.018L93.106 186.261C91.3987 187.987 91.5939 190.841 93.5201 192.314L146.962 233.164C148.546 234.375 150.77 234.219 152.173 232.8L254.679 129.137Z" fill="#1090F9"/>
<path opacity="0.3" d="M253.889 132.633C255.054 133.811 255.054 135.721 253.889 136.899L151.383 240.561C150.33 241.626 148.663 241.743 147.475 240.835L94.0328 199.984C92.5882 198.88 92.4417 196.739 93.7222 195.444L150.326 138.202C152.268 136.238 152.268 133.055 150.326 131.091L100.12 80.3182C99.0674 79.2541 98.9516 77.5685 99.8482 76.3674L140.112 22.4285C141.204 20.9663 143.322 20.8174 144.603 22.1129L253.889 132.633Z" stroke="#05BDFB" stroke-width="2"/>
<path opacity="0.3" d="M196.259 26.6182C197.363 26.6182 198.259 27.5136 198.259 28.6182L198.259 31.3713C198.259 32.2618 197.472 32.9468 196.59 32.8239C195.865 32.7229 195.325 32.1031 195.325 31.3713L195.325 31.1824C195.325 30.2816 194.595 29.5514 193.694 29.5514L193.505 29.5514C192.615 29.5514 191.93 28.7643 192.053 27.8823C192.154 27.1576 192.774 26.6182 193.505 26.6182L196.259 26.6182Z" fill="#1090F9"/>
<path opacity="0.3" d="M246.27 71.322C246.823 72.2786 246.495 73.5018 245.538 74.0541L241.455 76.4119C240.403 77.0191 239.057 76.5566 238.601 75.4312L238.561 75.3316C238.186 74.4067 238.55 73.3471 239.414 72.8481L239.929 72.551C240.885 71.9987 241.213 70.7755 240.661 69.819L240.356 69.2915C239.749 68.2398 240.212 66.8942 241.337 66.438L241.437 66.3976C242.361 66.0227 243.421 66.3868 243.92 67.2511L246.27 71.322Z" fill="#1090F9"/>
<path opacity="0.3" d="M148.408 211.678C148.96 212.634 148.633 213.857 147.676 214.41L143.592 216.767C142.541 217.375 141.195 216.912 140.739 215.787L140.698 215.687C140.324 214.762 140.688 213.703 141.552 213.204L142.067 212.907C143.023 212.354 143.351 211.131 142.799 210.174L142.494 209.647C141.887 208.595 142.349 207.25 143.475 206.793L143.574 206.753C144.499 206.378 145.559 206.742 146.058 207.607L148.408 211.678Z" fill="#1090F9"/>
<path opacity="0.3" d="M244.741 168.593C243.96 167.812 243.96 166.545 244.741 165.764L252.142 158.363C253.023 157.482 254.487 157.612 255.198 158.635L255.929 159.685C256.482 160.48 256.386 161.557 255.701 162.241L253.246 164.697C252.465 165.478 252.465 166.744 253.246 167.525L254.7 168.979C255.541 169.82 255.467 171.206 254.54 171.951L252.37 173.697C251.574 174.338 250.424 174.275 249.702 173.553L244.741 168.593Z" fill="#1090F9"/>
<rect opacity="0.1" x="212.776" y="59.861" width="139.355" height="96.0193" transform="rotate(90 212.776 59.861)" fill="#02223B"/>
<path d="M185.783 185.21L185.783 70.9214L108.458 70.9214L108.458 185.21L185.783 185.21Z" fill="white"/>
<rect x="203.762" y="49.022" width="139.153" height="94.5813" transform="rotate(90.664 203.762 49.022)" fill="#DAF0BC"/>
<rect x="117" y="60.0001" width="79" height="119" fill="#EDF7DE"/>
<rect x="117" y="60.0001" width="79" height="119" stroke="#C7E89B" stroke-width="1.5"/>
<rect x="204.478" y="51.3771" width="137.26" height="96.0193" transform="rotate(90 204.478 51.3771)" stroke="#C7E89B" stroke-width="1.5" stroke-linecap="round"/>
<path d="M123 170L123 116" stroke="#6FD98F" stroke-width="2"/>
<path d="M123 103L123 67" stroke="#6FD98F" stroke-width="2"/>
<path d="M135 170L135 104" stroke="#6FD98F" stroke-width="2"/>
<path d="M147 170L147 127" stroke="#6FD98F" stroke-width="2"/>
<path d="M160 106L160 63" stroke="#6FD98F" stroke-width="2"/>
<path d="M160 170L160 127" stroke="#6FD98F" stroke-width="2"/>
<path d="M171 170L171 127" stroke="#6FD98F" stroke-width="2"/>
<path d="M181 170L181 127" stroke="#6FD98F" stroke-width="2"/>
</svg>
