<svg width="325" height="248" viewBox="0 0 325 248" fill="none" xmlns="http://www.w3.org/2000/svg">
<path opacity="0.3" d="M259.679 129.137C261.232 127.566 261.232 125.02 259.679 123.449L150.393 12.9292C148.685 11.2019 145.861 11.4003 144.406 13.3499L104.141 67.2889C102.946 68.8903 103.1 71.1378 104.503 72.5566L154.71 123.329C156.263 124.9 156.263 127.447 154.71 129.018L98.106 186.26C96.3987 187.987 96.5939 190.841 98.5201 192.314L151.962 233.164C153.546 234.375 155.77 234.219 157.173 232.8L259.679 129.137Z" fill="#1090F9"/>
<path opacity="0.3" d="M258.888 132.632C260.053 133.81 260.053 135.72 258.888 136.898L156.383 240.561C155.33 241.625 153.662 241.742 152.474 240.834L99.0323 199.983C97.5877 198.879 97.4412 196.739 98.7217 195.444L155.326 138.201C157.267 136.238 157.267 133.054 155.326 131.09L105.119 80.3176C104.067 79.2535 103.951 77.5679 104.848 76.3668L145.112 22.4279C146.203 20.9657 148.321 20.8169 149.602 22.1123L258.888 132.632Z" stroke="#05BDFB" stroke-width="2"/>
<path opacity="0.3" d="M201.259 26.6185C202.364 26.6185 203.259 27.514 203.259 28.6185L203.259 31.3717C203.259 32.2622 202.472 32.9472 201.59 32.8243C200.865 32.7233 200.326 32.1035 200.326 31.3717L200.326 31.1828C200.326 30.282 199.596 29.5517 198.695 29.5517L198.506 29.5517C197.615 29.5517 196.93 28.7647 197.053 27.8827C197.154 27.1579 197.774 26.6185 198.506 26.6185L201.259 26.6185Z" fill="#1090F9"/>
<path opacity="0.3" d="M251.27 71.3223C251.823 72.2789 251.495 73.5021 250.538 74.0544L246.454 76.4122C245.403 77.0194 244.057 76.5569 243.601 75.4315L243.561 75.3319C243.186 74.4071 243.55 73.3474 244.414 72.8484L244.929 72.5513C245.885 71.999 246.213 70.7758 245.661 69.8193L245.356 69.2918C244.749 68.2401 245.212 66.8945 246.337 66.4383L246.437 66.3979C247.361 66.023 248.421 66.3871 248.92 67.2514L251.27 71.3223Z" fill="#1090F9"/>
<path opacity="0.3" d="M153.408 211.678C153.96 212.634 153.632 213.857 152.676 214.41L148.592 216.767C147.54 217.375 146.195 216.912 145.739 215.787L145.698 215.687C145.323 214.762 145.687 213.703 146.552 213.204L147.066 212.907C148.023 212.354 148.351 211.131 147.798 210.174L147.494 209.647C146.887 208.595 147.349 207.25 148.474 206.793L148.574 206.753C149.499 206.378 150.559 206.742 151.058 207.607L153.408 211.678Z" fill="#1090F9"/>
<path opacity="0.3" d="M249.741 168.593C248.96 167.812 248.96 166.545 249.741 165.764L257.143 158.363C258.024 157.482 259.487 157.612 260.199 158.635L260.929 159.685C261.482 160.48 261.386 161.557 260.702 162.241L258.246 164.696C257.465 165.478 257.465 166.744 258.246 167.525L259.7 168.979C260.542 169.82 260.467 171.205 259.54 171.951L257.37 173.697C256.574 174.337 255.424 174.275 254.702 173.553L249.741 168.593Z" fill="#1090F9"/>
<rect opacity="0.1" x="223.591" y="63.3085" width="139.355" height="96.0193" transform="rotate(98.4748 223.591 63.3085)" fill="#02223B"/>
<path d="M178.42 183.311L195.263 70.2702L118.782 58.8744L101.939 171.915L178.42 183.311Z" fill="white"/>
<rect x="216.272" y="51.2595" width="139.153" height="94.5813" transform="rotate(99.1388 216.272 51.2595)" fill="#DAF0BC"/>
<rect x="144.79" y="57.5332" width="44.6605" height="55.2323" transform="rotate(8.4748 144.79 57.5332)" fill="#EDF7DE"/>
<path d="M157.338 111.038L157.339 111.038C159.04 111.325 160.75 111.587 162.483 111.769C163.075 111.835 163.663 111.898 164.25 111.961C165.407 112.086 166.557 112.21 167.711 112.351L167.724 112.352L167.736 112.353C167.787 112.358 167.839 112.364 167.906 112.372L167.911 112.373C167.973 112.381 168.05 112.39 168.128 112.397L168.892 112.465L168.991 111.712C169.185 110.232 169.379 108.756 169.573 107.279L169.573 107.277C169.767 105.799 169.96 104.322 170.154 102.842L170.154 102.842C170.743 98.3453 171.358 93.5913 170.417 89.1408L170.417 89.1408C170.183 88.0357 169.807 86.791 168.95 85.8857C167.936 84.8086 166.495 84.5031 165.099 84.7011C163.711 84.898 162.312 85.5944 161.25 86.6072C159.199 88.563 158.162 91.3464 157.299 93.8149C155.492 98.9701 153.874 104.181 152.425 109.427L152.219 110.172L152.976 110.311C153.848 110.471 154.741 110.614 155.622 110.756C156.202 110.849 156.777 110.942 157.338 111.038Z" fill="#BDEEFE" stroke="#0864B0" stroke-width="1.5"/>
<path opacity="0.12" d="M175.795 76.1947C175.529 75.7254 174.768 75.9313 174.66 76.4908C174.537 77.0759 173.695 78.3754 173.176 79.3447C172.052 81.2507 170.233 82.6388 167.592 83.461C166.718 83.6679 164.662 83.801 162.892 83.4676C162.511 83.3985 161.983 83.139 161.144 82.8029C160.933 82.7048 160.677 82.6925 160.447 82.7959C159.703 83.0789 159.577 84.2584 160.268 84.562C163.046 86.0948 166.649 86.0185 169.75 84.7944C171.03 84.1213 172.368 83.3456 173.179 82.0318C173.16 82.0754 173.039 82.233 173.082 82.1933C173.672 81.5234 174.182 80.7853 174.617 79.9982C175.081 79.2715 175.495 77.9605 175.579 77.5833C175.696 77.1368 176.037 76.6139 175.795 76.1947Z" fill="#0864B0"/>
<path opacity="0.12" d="M168.347 90.9934C168.256 92.1729 168.282 92.204 168.101 93.8446C168.041 94.2029 167.958 94.5573 167.89 94.9143C167.907 94.8722 167.93 94.8041 167.95 94.7446C167.697 95.8613 167.717 97.0499 167.506 98.1916C166.812 101.948 166.167 105.703 165.45 109.455C165.338 110.056 165.234 110.658 165.13 111.261C166.131 111.372 167.137 111.494 168.143 111.615C168.174 111.62 168.212 111.627 168.243 111.632C168.819 108.62 169.333 105.597 169.76 102.57C170.38 98.2177 170.732 95.7702 170.665 93.8282C170.831 91.9519 170.698 90.9599 170.566 90.3005C170.394 89.1496 169.971 88.0917 169.46 87.1092C169.181 86.65 169.043 85.9447 168.471 85.8501C167.751 85.704 167.111 86.7208 167.524 87.3729C168.429 89.175 168.345 89.61 168.347 90.9934Z" fill="#0864B0"/>
<path d="M164.478 86.5398C163.262 86.349 162.071 85.9325 160.98 85.2931C160.257 84.8766 159.732 84.4455 159.314 83.9575C158.451 82.9498 157.951 81.5311 157.789 79.6327C157.686 78.4597 157.731 77.4202 157.932 76.4419C158.172 75.2584 158.655 74.0489 159.416 72.7362C160.702 70.5234 162.362 68.7642 164.212 67.6408C166.336 66.3583 168.726 65.9437 170.759 66.5107C172.746 67.0612 174.385 68.8975 175.251 71.5306C175.929 73.5926 175.985 76.0435 175.412 78.6068C175.184 79.6268 174.896 80.4996 174.53 81.2593C173.343 83.717 170.957 85.6746 168.303 86.3598C167.073 86.69 165.76 86.741 164.478 86.5398Z" stroke="#0864B0" stroke-width="1.5"/>
<rect x="144.79" y="57.5332" width="44.6605" height="55.2323" transform="rotate(8.4748 144.79 57.5332)" stroke="#C7E89B" stroke-width="1.5"/>
<rect x="136.308" y="119.215" width="43.394" height="49.8075" transform="rotate(8.4748 136.308 119.215)" fill="#EDF7DE" stroke="#C7E89B" stroke-width="1.5"/>
<path d="M142.175 155.283C143.628 153.198 144.577 150.804 144.947 148.29C145.131 147.069 145.585 145.903 146.278 144.88C146.971 143.857 147.885 143.003 148.952 142.38" stroke="#0864B0" stroke-width="1.5" stroke-linecap="round" stroke-linejoin="round"/>
<path d="M153.096 149.504C152.484 153.648 150.825 157.567 148.276 160.89" stroke="#0864B0" stroke-width="1.5" stroke-linecap="round" stroke-linejoin="round"/>
<path d="M149.022 148.897C149.183 147.817 149.767 146.845 150.644 146.194C151.522 145.544 152.623 145.269 153.703 145.43C154.784 145.591 155.756 146.175 156.406 147.053C157.057 147.931 157.331 149.031 157.17 150.112C156.553 154.313 155.008 158.324 152.649 161.854" stroke="#0864B0" stroke-width="1.5" stroke-linecap="round" stroke-linejoin="round"/>
<path d="M163.569 158.353C164.375 156.072 164.961 153.719 165.319 151.326C165.802 148.084 164.977 144.783 163.027 142.149C161.076 139.516 158.159 137.765 154.917 137.282C151.675 136.799 148.375 137.623 145.741 139.574C143.107 141.525 141.356 144.442 140.873 147.683C140.67 149.072 140.228 150.415 139.566 151.653" stroke="#0864B0" stroke-width="1.5" stroke-linecap="round" stroke-linejoin="round"/>
<path d="M148.007 152.911C147.248 154.988 146.164 156.93 144.794 158.666" stroke="#0864B0" stroke-width="1.5" stroke-linecap="round" stroke-linejoin="round"/>
<path d="M153.282 141.268C153.626 141.278 153.969 141.307 154.31 141.356C156.471 141.678 158.416 142.845 159.716 144.601C161.017 146.357 161.566 148.558 161.244 150.719C161.04 152.08 160.753 153.428 160.383 154.755" stroke="#0864B0" stroke-width="1.5" stroke-linecap="round" stroke-linejoin="round"/>
<path d="M158.999 158.714C158.696 159.436 158.368 160.155 158.018 160.845" stroke="#0864B0" stroke-width="1.5" stroke-linecap="round" stroke-linejoin="round"/>
<rect x="216.634" y="53.6945" width="137.26" height="96.0193" transform="rotate(98.4748 216.634 53.6945)" stroke="#C7E89B" stroke-width="1.5" stroke-linecap="round"/>
</svg>
