<svg width="320" height="248" viewBox="0 0 320 248" fill="none" xmlns="http://www.w3.org/2000/svg">
<path opacity="0.3" d="M254.679 129.137C256.232 127.566 256.232 125.02 254.679 123.449L145.393 12.9292C143.685 11.2019 140.861 11.4004 139.406 13.35L99.1415 67.2889C97.946 68.8903 98.1005 71.1378 99.5035 72.5566L149.71 123.329C151.263 124.9 151.263 127.447 149.71 129.018L93.106 186.261C91.3987 187.987 91.5939 190.841 93.5201 192.314L146.962 233.164C148.546 234.375 150.77 234.219 152.173 232.8L254.679 129.137Z" fill="#1090F9"/>
<path opacity="0.3" d="M253.889 132.633C255.054 133.811 255.054 135.721 253.889 136.899L151.383 240.561C150.33 241.626 148.663 241.743 147.475 240.835L94.0328 199.984C92.5882 198.88 92.4417 196.739 93.7222 195.444L150.326 138.202C152.268 136.238 152.268 133.055 150.326 131.091L100.12 80.3182C99.0674 79.2541 98.9516 77.5685 99.8482 76.3674L140.112 22.4285C141.204 20.9663 143.322 20.8174 144.603 22.1129L253.889 132.633Z" stroke="#05BDFB" stroke-width="2"/>
<path opacity="0.3" d="M196.259 26.6182C197.363 26.6182 198.259 27.5136 198.259 28.6182L198.259 31.3713C198.259 32.2618 197.472 32.9468 196.59 32.8239C195.865 32.7229 195.325 32.1031 195.325 31.3713L195.325 31.1824C195.325 30.2816 194.595 29.5514 193.694 29.5514L193.505 29.5514C192.615 29.5514 191.93 28.7643 192.053 27.8823C192.154 27.1576 192.774 26.6182 193.505 26.6182L196.259 26.6182Z" fill="#1090F9"/>
<path opacity="0.3" d="M246.27 71.322C246.823 72.2786 246.495 73.5018 245.538 74.0541L241.455 76.4119C240.403 77.0191 239.057 76.5566 238.601 75.4312L238.561 75.3316C238.186 74.4067 238.55 73.3471 239.414 72.8481L239.929 72.551C240.885 71.9987 241.213 70.7755 240.661 69.819L240.356 69.2915C239.749 68.2398 240.212 66.8942 241.337 66.438L241.437 66.3976C242.361 66.0227 243.421 66.3868 243.92 67.2511L246.27 71.322Z" fill="#1090F9"/>
<path opacity="0.3" d="M148.408 211.678C148.96 212.634 148.633 213.857 147.676 214.41L143.592 216.767C142.541 217.375 141.195 216.912 140.739 215.787L140.698 215.687C140.324 214.762 140.688 213.703 141.552 213.204L142.067 212.907C143.023 212.354 143.351 211.131 142.799 210.174L142.494 209.647C141.887 208.595 142.349 207.25 143.475 206.793L143.574 206.753C144.499 206.378 145.559 206.742 146.058 207.607L148.408 211.678Z" fill="#1090F9"/>
<path opacity="0.3" d="M244.741 168.593C243.96 167.812 243.96 166.545 244.741 165.764L252.142 158.363C253.023 157.482 254.487 157.612 255.198 158.635L255.929 159.685C256.482 160.48 256.386 161.557 255.701 162.241L253.246 164.697C252.465 165.478 252.465 166.744 253.246 167.525L254.7 168.979C255.541 169.82 255.467 171.206 254.54 171.951L252.37 173.697C251.574 174.338 250.424 174.275 249.702 173.553L244.741 168.593Z" fill="#1090F9"/>
<path d="M95 60V37H117.266" stroke="#7AB72A" stroke-width="5" stroke-linecap="round"/>
<path d="M199.734 37L222 37L222 60" stroke="#7AB72A" stroke-width="5" stroke-linecap="round"/>
<path d="M222 179L222 199L199.734 199" stroke="#7AB72A" stroke-width="5" stroke-linecap="round"/>
<path d="M117.266 199L95 199L95 179" stroke="#7AB72A" stroke-width="5" stroke-linecap="round"/>
<rect opacity="0.1" x="212.776" y="59.861" width="139.355" height="96.0193" transform="rotate(90 212.776 59.861)" fill="#02223B"/>
<path d="M185.783 185.21L185.783 70.9214L108.458 70.9214L108.458 185.21L185.783 185.21Z" fill="white"/>
<rect x="203.762" y="49.022" width="139.153" height="94.5813" transform="rotate(90.664 203.762 49.022)" fill="#DAF0BC"/>
<rect x="133.985" y="65.7618" width="44.6605" height="55.2323" fill="#EDF7DE"/>
<path d="M154.281 116.833L154.282 116.833C156.007 116.866 157.737 116.873 159.477 116.798C160.073 116.776 160.664 116.752 161.254 116.728C162.417 116.681 163.572 116.634 164.735 116.603L164.747 116.602L164.759 116.602C164.81 116.599 164.863 116.597 164.931 116.595L164.936 116.595C164.998 116.594 165.075 116.592 165.154 116.587L165.92 116.542L165.906 115.782C165.88 114.29 165.854 112.801 165.828 111.312L165.828 111.31C165.802 109.82 165.776 108.33 165.75 106.838L165.75 106.838C165.67 102.303 165.577 97.5108 163.99 93.2476L163.99 93.2475C163.596 92.189 163.041 91.0133 162.06 90.2441C160.898 89.3283 159.427 89.2385 158.076 89.6401C156.733 90.0393 155.451 90.9343 154.55 92.0926C152.81 94.3293 152.194 97.2352 151.704 99.8039C150.676 105.169 149.844 110.562 149.184 115.964L149.09 116.731L149.859 116.757C150.746 116.786 151.65 116.797 152.542 116.807C153.129 116.814 153.712 116.821 154.281 116.833Z" fill="#BDEEFE" stroke="#0864B0" stroke-width="1.5"/>
<path opacity="0.12" d="M167.401 79.6502C167.069 79.2252 166.346 79.5411 166.322 80.1104C166.287 80.7071 165.646 82.1167 165.276 83.1517C164.444 85.2027 162.849 86.8437 160.359 88.0462C159.525 88.3796 157.511 88.8142 155.711 88.7453C155.324 88.7331 154.763 88.5543 153.884 88.3455C153.661 88.2795 153.406 88.3051 153.194 88.4412C152.5 88.8308 152.549 90.016 153.277 90.2145C156.25 91.3212 159.803 90.7147 162.69 89.0469C163.857 88.1925 165.065 87.2282 165.674 85.8092C165.662 85.855 165.565 86.0288 165.602 85.9831C166.087 85.2337 166.482 84.4285 166.796 83.5859C167.148 82.7987 167.365 81.441 167.393 81.0555C167.443 80.5966 167.703 80.0291 167.401 79.6502Z" fill="#0864B0"/>
<path opacity="0.12" d="M162.216 95.385C162.3 96.5649 162.33 96.592 162.393 98.2412C162.386 98.6045 162.356 98.9673 162.342 99.3304C162.352 99.2862 162.364 99.2156 162.376 99.1537C162.29 100.295 162.485 101.468 162.445 102.629C162.312 106.446 162.227 110.255 162.071 114.072C162.049 114.683 162.035 115.294 162.021 115.905C163.027 115.868 164.04 115.84 165.053 115.812C165.084 115.812 165.123 115.813 165.155 115.813C165.28 112.749 165.343 109.684 165.319 106.626C165.291 102.231 165.279 99.7582 164.926 97.8473C164.814 95.9669 164.536 95.0054 164.308 94.3726C163.969 93.2596 163.394 92.2757 162.744 91.3792C162.401 90.9661 162.16 90.2888 161.581 90.2795C160.846 90.2413 160.363 91.3413 160.868 91.9253C162.029 93.5743 162.01 94.0171 162.216 95.385Z" fill="#0864B0"/>
<path d="M157.733 91.5502C156.502 91.5406 155.262 91.3043 154.089 90.8326C153.312 90.5273 152.73 90.1781 152.245 89.7571C151.242 88.8877 150.539 87.558 150.099 85.7043C149.823 84.5593 149.715 83.5245 149.77 82.5272C149.832 81.3214 150.132 80.0539 150.691 78.6433C151.637 76.2652 153.02 74.2805 154.685 72.8967C156.596 71.3152 158.898 70.553 160.993 70.8141C163.039 71.0658 164.931 72.6406 166.176 75.1173C167.151 77.0567 167.567 79.4726 167.378 82.0924C167.303 83.1349 167.146 84.0406 166.897 84.8459C166.084 87.4518 164.014 89.7396 161.49 90.8084C160.321 91.3163 159.03 91.5603 157.733 91.5502Z" stroke="#0864B0" stroke-width="1.5"/>
<rect x="133.985" y="65.7618" width="44.6605" height="55.2323" stroke="#C7E89B" stroke-width="1.5"/>
<rect x="134.686" y="128.02" width="43.394" height="49.8075" fill="#EDF7DE" stroke="#C7E89B" stroke-width="1.5"/>
<path d="M145.803 162.829C146.934 160.554 147.52 158.046 147.516 155.505C147.517 154.269 147.795 153.05 148.329 151.936C148.864 150.822 149.642 149.842 150.605 149.069" stroke="#0864B0" stroke-width="1.5" stroke-linecap="round" stroke-linejoin="round"/>
<path d="M155.754 155.505C155.76 159.693 154.696 163.814 152.665 167.476" stroke="#0864B0" stroke-width="1.5" stroke-linecap="round" stroke-linejoin="round"/>
<path d="M151.635 155.505C151.635 154.412 152.069 153.365 152.841 152.592C153.614 151.82 154.662 151.386 155.754 151.386C156.846 151.386 157.894 151.82 158.667 152.592C159.439 153.365 159.873 154.412 159.873 155.505C159.882 159.751 158.945 163.946 157.131 167.785" stroke="#0864B0" stroke-width="1.5" stroke-linecap="round" stroke-linejoin="round"/>
<path d="M167.416 162.714C167.878 160.338 168.11 157.924 168.112 155.505C168.112 152.227 166.81 149.084 164.492 146.767C162.175 144.449 159.031 143.147 155.754 143.147C152.476 143.147 149.333 144.449 147.016 146.767C144.698 149.084 143.396 152.227 143.396 155.505C143.4 156.909 143.16 158.302 142.688 159.624" stroke="#0864B0" stroke-width="1.5" stroke-linecap="round" stroke-linejoin="round"/>
<path d="M151.223 159.624C150.778 161.79 149.992 163.871 148.893 165.79" stroke="#0864B0" stroke-width="1.5" stroke-linecap="round" stroke-linejoin="round"/>
<path d="M154.724 147.331C155.066 147.29 155.41 147.268 155.754 147.266C157.939 147.266 160.034 148.134 161.579 149.679C163.124 151.224 163.992 153.32 163.992 155.505C163.991 156.882 163.905 158.258 163.735 159.624" stroke="#0864B0" stroke-width="1.5" stroke-linecap="round" stroke-linejoin="round"/>
<path d="M162.95 163.743C162.757 164.503 162.538 165.262 162.293 165.996" stroke="#0864B0" stroke-width="1.5" stroke-linecap="round" stroke-linejoin="round"/>
<rect x="204.478" y="51.3771" width="137.26" height="96.0193" transform="rotate(90 204.478 51.3771)" stroke="#C7E89B" stroke-width="1.5" stroke-linecap="round"/>
</svg>
