<svg width="320" height="408" viewBox="0 0 320 408" fill="none" xmlns="http://www.w3.org/2000/svg">
<g clip-path="url(#clip0_656_9723)">
<path opacity="0.3" d="M402.527 203.89C404.09 202.329 404.09 199.798 402.527 198.237L211.285 7.24871C209.567 5.53216 206.725 5.72937 205.261 7.66687L132.961 103.313C131.758 104.905 131.914 107.138 133.326 108.548L222.931 198.035C224.495 199.596 224.495 202.127 222.931 203.688L121.828 304.658C120.11 306.374 120.306 309.21 122.244 310.674L218.195 383.103C219.789 384.306 222.027 384.151 223.439 382.741L402.527 203.89Z" fill="#1090F9"/>
<path opacity="0.3" d="M401.669 213.259C402.842 214.43 402.842 216.328 401.669 217.499L222.581 396.35C221.522 397.408 219.843 397.524 218.648 396.621L122.697 324.192C121.244 323.094 121.096 320.967 122.385 319.68L223.489 218.711C225.443 216.759 225.443 213.595 223.489 211.644L133.883 122.157C132.824 121.1 132.707 119.424 133.61 118.231L205.909 22.5844C207.007 21.1313 209.138 20.9834 210.427 22.2708L401.669 213.259Z" stroke="#05BDFB" stroke-width="2"/>
<path opacity="0.3" d="M300.244 28.6528C301.349 28.6528 302.244 29.5483 302.244 30.6528L302.244 37.237C302.244 38.4499 301.173 39.3836 299.971 39.2183L298.953 39.0781C297.963 38.9419 297.226 38.096 297.226 37.0968L297.226 35.6088C297.226 34.5042 296.33 33.6088 295.226 33.6088L293.531 33.6088C292.315 33.6088 291.38 32.5331 291.55 31.3293L291.685 30.3734C291.824 29.3866 292.669 28.6528 293.665 28.6528L300.244 28.6528Z" fill="#1090F9"/>
<path opacity="0.3" d="M217.653 342.529C218.21 343.483 217.884 344.7 216.925 345.247L207.305 350.732C206.249 351.333 204.895 350.869 204.434 349.746L203.301 346.985C202.923 346.064 203.286 345.011 204.152 344.517L207.327 342.707C208.287 342.16 208.613 340.943 208.055 339.99L206.025 336.518C205.413 335.471 205.873 334.133 207.001 333.681L209.821 332.553C210.75 332.181 211.816 332.546 212.32 333.408L217.653 342.529Z" fill="#1090F9"/>
<rect x="157.075" y="122.25" width="21.8111" height="118.887" transform="rotate(-49.0992 157.075 122.25)" fill="#F0FBFF" stroke="#054375" stroke-width="2"/>
<rect x="201.56" y="281.858" width="21.8111" height="118.887" transform="rotate(-150 201.56 281.858)" fill="#F0FBFF" stroke="#054375" stroke-width="2"/>
<ellipse cx="87" cy="169" rx="25" ry="24" fill="#FBF3A7"/>
<path d="M177.21 79.0764C161.668 63.8719 143.288 73.6487 137.428 79.9839L118.463 98.5366L157.782 137L180.911 114.374C186.462 108.942 192.753 94.2809 177.21 79.0764Z" fill="white"/>
<path d="M118 98.9895L118.463 98.5366M118.463 98.5366L137.428 79.9839C143.288 73.6487 161.668 63.8719 177.21 79.0764C192.753 94.2809 186.462 108.942 180.911 114.374L157.782 137L118.463 98.5366Z" stroke="#054375" stroke-width="2"/>
<path d="M144.957 227L31 113.81C48.4611 93.4235 101.763 70.9081 143.119 111.984C190.907 159.451 164.256 208.439 144.957 227Z" fill="#05BDFB" stroke="#054375" stroke-width="2"/>
<circle cx="246" cy="184" r="20" fill="#05BDFB" stroke="#054375" stroke-width="2"/>
<path d="M138.917 270C115.421 270 111.249 292.667 112.101 304H273C273 281.333 260.23 270 243.629 270H138.917Z" fill="#05BDFB" stroke="#054375" stroke-width="2"/>
<path d="M128.35 195C128.267 195 128.171 194.948 128.099 194.844C127.967 194.653 127.967 194.323 128.099 194.131L147.41 166.143C147.542 165.952 147.769 165.952 147.901 166.143C148.033 166.334 148.033 166.664 147.901 166.856L128.59 194.844C128.518 194.948 128.434 195 128.35 195Z" fill="#054375"/>
<path d="M136.333 202C136.253 202 136.162 201.948 136.094 201.844C135.969 201.653 135.969 201.323 136.094 201.131L154.44 173.143C154.565 172.952 154.781 172.952 154.906 173.143C155.031 173.334 155.031 173.664 154.906 173.856L136.56 201.844C136.492 201.948 136.413 202 136.333 202Z" fill="#054375"/>
<path d="M121.374 188C121.284 188 121.182 187.951 121.105 187.853C120.965 187.673 120.965 187.362 121.105 187.182L133.37 171.135C133.511 170.955 133.754 170.955 133.895 171.135C134.035 171.315 134.035 171.626 133.895 171.806L121.63 187.853C121.553 187.951 121.463 188 121.374 188Z" fill="#054375"/>
<path d="M144.345 208C144.263 208 144.168 207.951 144.097 207.853C143.968 207.673 143.968 207.362 144.097 207.182L155.419 191.135C155.549 190.955 155.773 190.955 155.903 191.135C156.032 191.315 156.032 191.626 155.903 191.806L144.581 207.853C144.51 207.951 144.428 208 144.345 208Z" fill="#054375"/>
</g>
<defs>
<clipPath id="clip0_656_9723">
<rect width="320" height="408" fill="white"/>
</clipPath>
</defs>
</svg>
