<svg width="320" height="248" viewBox="0 0 320 248" fill="none" xmlns="http://www.w3.org/2000/svg">
<path opacity="0.3" d="M254.679 129.137C256.232 127.566 256.232 125.02 254.679 123.449L145.393 12.9292C143.685 11.2019 140.861 11.4003 139.406 13.3499L99.1415 67.2889C97.946 68.8903 98.1005 71.1378 99.5035 72.5566L149.71 123.329C151.263 124.9 151.263 127.447 149.71 129.018L93.106 186.26C91.3987 187.987 91.5939 190.841 93.5201 192.314L146.962 233.164C148.546 234.375 150.77 234.219 152.173 232.8L254.679 129.137Z" fill="#1090F9"/>
<path opacity="0.3" d="M253.888 132.632C255.053 133.81 255.053 135.72 253.888 136.898L151.383 240.561C150.33 241.625 148.662 241.742 147.474 240.834L94.0323 199.984C92.5877 198.879 92.4412 196.739 93.7217 195.444L150.326 138.201C152.267 136.238 152.267 133.054 150.326 131.091L100.119 80.3177C99.0669 79.2536 98.9511 77.568 99.8477 76.3669L140.112 22.428C141.203 20.9658 143.321 20.8169 144.602 22.1124L253.888 132.632Z" stroke="#05BDFB" stroke-width="2"/>
<path opacity="0.3" d="M196.259 26.6185C197.364 26.6185 198.259 27.5139 198.259 28.6185L198.259 31.3716C198.259 32.2621 197.472 32.9471 196.59 32.8242C195.865 32.7232 195.326 32.1034 195.326 31.3716L195.326 31.1827C195.326 30.2819 194.596 29.5517 193.695 29.5517L193.506 29.5517C192.615 29.5517 191.93 28.7646 192.053 27.8827C192.154 27.1579 192.774 26.6185 193.506 26.6185L196.259 26.6185Z" fill="#1090F9"/>
<path opacity="0.3" d="M246.27 71.3223C246.823 72.2789 246.495 73.5021 245.538 74.0544L241.454 76.4122C240.403 77.0194 239.057 76.5569 238.601 75.4315L238.561 75.3319C238.186 74.4071 238.55 73.3474 239.414 72.8484L239.929 72.5513C240.885 71.999 241.213 70.7758 240.661 69.8193L240.356 69.2918C239.749 68.2401 240.212 66.8945 241.337 66.4383L241.437 66.3979C242.361 66.023 243.421 66.3871 243.92 67.2514L246.27 71.3223Z" fill="#1090F9"/>
<path opacity="0.3" d="M148.408 211.678C148.96 212.634 148.632 213.857 147.676 214.41L143.592 216.767C142.54 217.375 141.195 216.912 140.739 215.787L140.698 215.687C140.323 214.762 140.687 213.703 141.552 213.204L142.066 212.907C143.023 212.354 143.351 211.131 142.798 210.174L142.494 209.647C141.887 208.595 142.349 207.25 143.474 206.793L143.574 206.753C144.499 206.378 145.559 206.742 146.058 207.607L148.408 211.678Z" fill="#1090F9"/>
<path opacity="0.3" d="M244.742 168.593C243.96 167.812 243.96 166.545 244.742 165.764L252.143 158.363C253.024 157.482 254.487 157.612 255.199 158.635L255.929 159.685C256.482 160.48 256.387 161.557 255.702 162.241L253.247 164.696C252.465 165.478 252.465 166.744 253.247 167.525L254.7 168.979C255.542 169.82 255.467 171.205 254.54 171.951L252.37 173.697C251.574 174.337 250.424 174.275 249.702 173.553L244.742 168.593Z" fill="#1090F9"/>
<path fill-rule="evenodd" clip-rule="evenodd" d="M159.5 49.4238C145.827 49.4238 134.743 60.2307 134.743 73.5616V104H122V73.5616C122 53.3692 138.789 37 159.5 37C180.211 37 197 53.3692 197 73.5616V104H184.257V73.5616C184.257 60.2307 173.173 49.4238 159.5 49.4238Z" fill="#011727"/>
<circle cx="159.5" cy="150.5" r="59.5" fill="white" stroke="#054375" stroke-width="2"/>
<ellipse cx="156.5" cy="148.5" rx="44.5" ry="45.5" fill="#D7DEE5"/>
<ellipse cx="159.5" cy="149.5" rx="44.5" ry="45.5" fill="#40CDFC"/>
<path fill-rule="evenodd" clip-rule="evenodd" d="M166.264 145.207C169.132 143.052 170.987 139.622 170.987 135.759C170.987 129.237 165.7 123.95 159.178 123.95C152.656 123.95 147.369 129.237 147.369 135.759C147.369 139.623 149.224 143.053 152.093 145.208V171.368C152.093 175.281 155.265 178.454 159.179 178.454C163.092 178.454 166.264 175.281 166.264 171.368V145.207Z" fill="#054375"/>
<path d="M177.298 175C177.227 175 177.145 174.968 177.084 174.903C176.972 174.784 176.972 174.579 177.084 174.461L193.499 157.089C193.611 156.97 193.804 156.97 193.916 157.089C194.028 157.208 194.028 157.412 193.916 157.531L177.501 174.903C177.44 174.968 177.369 175 177.298 175Z" fill="#054375"/>
<path d="M177.288 167C177.219 167 177.14 166.971 177.081 166.913C176.973 166.807 176.973 166.625 177.081 166.519L186.516 157.079C186.624 156.974 186.811 156.974 186.919 157.079C187.027 157.185 187.027 157.368 186.919 157.474L177.484 166.913C177.425 166.971 177.356 167 177.288 167Z" fill="#054375"/>
<path d="M185.288 174C185.219 174 185.14 173.971 185.081 173.913C184.973 173.807 184.973 173.625 185.081 173.519L194.516 164.079C194.624 163.974 194.811 163.974 194.919 164.079C195.027 164.185 195.027 164.368 194.919 164.474L185.484 173.913C185.425 173.971 185.356 174 185.288 174Z" fill="#054375"/>
<circle cx="201" cy="192" r="27" fill="#F0FBFF" stroke="black" stroke-width="2"/>
<path d="M190.724 181.724C190.974 181.474 191.313 181.333 191.667 181.333H206.333C207.07 181.333 207.667 180.736 207.667 180C207.667 179.264 207.07 178.667 206.333 178.667H191.667C190.606 178.667 189.588 179.088 188.838 179.838C188.088 180.588 187.667 181.606 187.667 182.667V201.333C187.667 202.394 188.088 203.412 188.838 204.162C189.588 204.912 190.606 205.333 191.667 205.333H210.333C211.394 205.333 212.412 204.912 213.162 204.162C213.912 203.412 214.333 202.394 214.333 201.333V192C214.333 191.264 213.736 190.667 213 190.667C212.264 190.667 211.667 191.264 211.667 192V201.333C211.667 201.687 211.526 202.026 211.276 202.276C211.026 202.526 210.687 202.667 210.333 202.667H191.667C191.313 202.667 190.974 202.526 190.724 202.276C190.474 202.026 190.333 201.687 190.333 201.333V182.667C190.333 182.313 190.474 181.974 190.724 181.724Z" fill="#26A94D"/>
<path d="M201.943 195.609L215.276 182.276C215.797 181.755 215.797 180.911 215.276 180.391C214.756 179.87 213.911 179.87 213.391 180.391L201 192.781L197.943 189.724C197.422 189.203 196.578 189.203 196.057 189.724C195.537 190.245 195.537 191.089 196.057 191.609L200.057 195.609C200.578 196.13 201.422 196.13 201.943 195.609Z" fill="#26A94D"/>
</svg>
