<svg width="56" height="80" viewBox="0 0 56 80" fill="none" xmlns="http://www.w3.org/2000/svg">
<path fill-rule="evenodd" clip-rule="evenodd" d="M28 7.41722C20.7077 7.41722 14.7961 13.8691 14.7961 21.8278V40H8V21.8278C8 9.77265 16.9543 0 28 0C39.0457 0 48 9.77265 48 21.8278V40H41.2039V21.8278C41.2039 13.8691 35.2923 7.41722 28 7.41722Z" fill="#011727"/>
<circle cx="28" cy="52" r="27" fill="white" stroke="#054375" stroke-width="2"/>
<circle cx="27.6056" cy="52.3939" r="20.8451" fill="#D7DEE5"/>
<circle cx="27.8451" cy="51.8451" r="20.8451" fill="#40CDFC"/>
<path fill-rule="evenodd" clip-rule="evenodd" d="M31.711 48.7999C33.0333 47.8066 33.8885 46.2253 33.8885 44.4443C33.8885 41.4375 31.451 39 28.4443 39C25.4375 39 23 41.4375 23 44.4443C23 46.2255 23.8554 47.807 25.1779 48.8002V60.8613C25.1779 62.6653 26.6404 64.1278 28.4445 64.1278C30.2485 64.1278 31.711 62.6653 31.711 60.8613V48.7999Z" fill="#054375"/>
</svg>
