<svg width="320" height="286" viewBox="0 0 320 286" fill="none" xmlns="http://www.w3.org/2000/svg">
<path opacity="0.3" d="M254.68 129.137C256.233 127.566 256.233 125.02 254.68 123.449L145.394 12.9292C143.686 11.2019 140.862 11.4003 139.407 13.3499L99.1424 67.2889C97.947 68.8903 98.1015 71.1378 99.5044 72.5566L149.711 123.329C151.264 124.9 151.264 127.447 149.711 129.018L93.107 186.26C91.3996 187.987 91.5949 190.841 93.5211 192.314L146.963 233.164C148.547 234.375 150.771 234.219 152.174 232.8L254.68 129.137Z" fill="#1090F9"/>
<path opacity="0.3" d="M253.889 132.632C255.054 133.811 255.054 135.721 253.889 136.899L151.383 240.561C150.33 241.626 148.663 241.743 147.475 240.835L94.0328 199.984C92.5882 198.88 92.4417 196.739 93.7222 195.444L150.326 138.202C152.268 136.238 152.268 133.055 150.326 131.091L100.12 80.3182C99.0674 79.2541 98.9516 77.5685 99.8482 76.3674L140.112 22.4285C141.204 20.9663 143.322 20.8174 144.603 22.1129L253.889 132.632Z" stroke="#40CDFC" stroke-width="2"/>
<path opacity="0.3" d="M89.3139 104.074C89.8662 105.031 89.5385 106.254 88.5819 106.806L84.4981 109.164C83.4464 109.771 82.1008 109.308 81.6446 108.183L81.6042 108.083C81.2293 107.159 81.5935 106.099 82.4577 105.6L82.9723 105.303C83.9289 104.751 84.2567 103.527 83.7044 102.571L83.3998 102.043C82.7926 100.992 83.2551 99.6461 84.3805 99.1898L84.4801 99.1495C85.405 98.7746 86.4646 99.1387 86.9636 100.003L89.3139 104.074Z" fill="#1090F9"/>
<path opacity="0.3" d="M243.415 202.92C242.633 202.139 242.633 200.872 243.415 200.091L250.816 192.69C251.697 191.809 253.16 191.939 253.872 192.962L254.602 194.012C255.155 194.807 255.059 195.884 254.375 196.568L251.92 199.024C251.138 199.805 251.138 201.071 251.92 201.852L253.373 203.306C254.215 204.147 254.14 205.533 253.213 206.278L251.043 208.024C250.247 208.665 249.097 208.602 248.375 207.88L243.415 202.92Z" fill="#1090F9"/>
<path opacity="0.3" d="M253.313 46.074C253.866 47.0306 253.538 48.2538 252.581 48.806L248.498 51.1638C247.446 51.771 246.1 51.3085 245.644 50.1832L245.604 50.0835C245.229 49.1587 245.593 48.099 246.457 47.6001L246.972 47.303C247.928 46.7507 248.256 45.5275 247.704 44.5709L247.399 44.0434C246.792 42.9918 247.255 41.6461 248.38 41.1899L248.48 41.1495C249.404 40.7746 250.464 41.1388 250.963 42.003L253.313 46.074Z" fill="#1090F9"/>
<circle cx="198.159" cy="90.8763" r="16.318" transform="rotate(-14.992 198.159 90.8763)" fill="#F7E06E"/>
<circle cx="195.057" cy="90.2016" r="15.3779" transform="rotate(-14.992 195.057 90.2016)" fill="#F9EC76" stroke="#054375" stroke-width="2"/>
<path fill-rule="evenodd" clip-rule="evenodd" d="M195.896 97.5377L196.343 99.2067C196.414 99.4701 196.684 99.6264 196.948 99.5559L197.424 99.4282C197.688 99.3577 197.844 99.087 197.774 98.8236L197.325 97.1473C198.068 96.9246 198.992 96.5819 199.742 96.0008C200.267 95.5939 200.732 95.0522 200.988 94.3329C201.244 93.611 201.265 92.7759 201.01 91.8243C200.755 90.8727 200.319 90.1599 199.737 89.6626C199.156 89.1671 198.483 88.9304 197.824 88.8404C196.885 88.7118 195.912 88.877 195.158 89.0554L193.751 83.8027L197.327 82.8449C197.591 82.7744 197.747 82.5037 197.677 82.2403L197.549 81.7635C197.478 81.5001 197.208 81.3438 196.944 81.4143L193.368 82.3721L192.921 80.7031C192.85 80.4397 192.58 80.2834 192.316 80.3539L191.84 80.4816C191.576 80.5522 191.42 80.8228 191.49 81.0862L191.941 82.768C191.166 83.0071 190.285 83.346 189.568 83.8744C189.025 84.2741 188.543 84.8046 188.274 85.5113C188.003 86.2228 187.975 87.0426 188.223 87.9704C188.472 88.899 188.908 89.6006 189.485 90.099C190.059 90.5942 190.728 90.8501 191.386 90.9646C192.342 91.131 193.329 91.0071 194.103 90.8439L195.513 96.1072L191.937 97.0649C191.673 97.1355 191.517 97.4061 191.587 97.6695L191.715 98.1464C191.786 98.4097 192.056 98.566 192.32 98.4955L195.896 97.5377ZM196.941 95.7151C197.597 95.5162 198.294 95.2491 198.835 94.8302C199.192 94.5538 199.453 94.2302 199.592 93.8378C199.73 93.4479 199.771 92.9248 199.579 92.2075C199.387 91.4901 199.09 91.0576 198.775 90.789C198.459 90.5186 198.071 90.3689 197.624 90.3077C196.946 90.215 196.208 90.3323 195.541 90.4876L196.941 95.7151ZM193.72 89.4105L192.324 84.2006C191.647 84.4119 190.973 84.6786 190.446 85.0667C190.068 85.3452 189.8 85.6632 189.658 86.0382C189.517 86.4085 189.471 86.9036 189.654 87.5873C189.837 88.2701 190.13 88.6995 190.453 88.9777C190.779 89.2592 191.181 89.4257 191.64 89.5056C192.319 89.6238 193.064 89.5431 193.72 89.4105Z" fill="#054375"/>
<ellipse cx="207.143" cy="49.77" rx="13.0623" ry="10.7572" transform="rotate(-14.992 207.143 49.77)" fill="#F7E06E"/>
<path d="M217.958 46.1277C218.578 48.4412 217.934 50.9298 216.258 53.108C214.582 55.2872 211.902 57.1048 208.598 57.9895C205.294 58.8742 202.064 58.6394 199.523 57.5897C196.983 56.5404 195.182 54.7066 194.562 52.3931C193.943 50.0796 194.586 47.591 196.262 45.4127C197.939 43.2335 200.619 41.4159 203.923 40.5312C207.226 39.6465 210.456 39.8813 212.997 40.9311C215.538 41.9803 217.339 43.8141 217.958 46.1277Z" fill="#F9EC76" stroke="#054375" stroke-width="2"/>
<path fill-rule="evenodd" clip-rule="evenodd" d="M206.575 53.8087L206.849 54.8315C206.893 54.9929 207.099 55.078 207.309 55.0215L207.691 54.9193C207.902 54.8629 208.038 54.6863 207.994 54.5249L207.719 53.4976C208.315 53.3235 209.06 53.0658 209.678 52.6672C210.111 52.3882 210.503 52.0275 210.737 51.5657C210.973 51.1023 211.029 50.5791 210.873 49.9959C210.716 49.4127 210.407 48.9874 209.971 48.7037C209.537 48.421 209.017 48.3046 208.503 48.2791C207.768 48.2428 206.994 48.3917 206.391 48.5387L205.529 45.3197L208.392 44.553C208.603 44.4965 208.739 44.3199 208.696 44.1585L208.617 43.8663C208.574 43.7049 208.368 43.6198 208.157 43.6763L205.295 44.443L205.021 43.4202C204.977 43.2588 204.772 43.1737 204.561 43.2302L204.179 43.3324C203.968 43.3888 203.832 43.5655 203.876 43.7268L204.152 44.7575C203.53 44.9434 202.82 45.1966 202.23 45.5607C201.783 45.8361 201.379 46.1905 201.133 46.6451C200.887 47.1027 200.826 47.6167 200.979 48.1853C201.131 48.7543 201.441 49.1727 201.873 49.4573C202.302 49.7401 202.817 49.8688 203.33 49.9095C204.076 49.9687 204.859 49.845 205.477 49.7066L206.341 52.932L203.478 53.6987C203.267 53.7552 203.131 53.9318 203.174 54.0932L203.253 54.3854C203.296 54.5468 203.502 54.6319 203.713 54.5754L206.575 53.8087ZM207.484 52.6199C208.01 52.4648 208.572 52.265 209.018 51.9777C209.312 51.7881 209.533 51.5735 209.661 51.3216C209.788 51.0713 209.845 50.7422 209.727 50.3026C209.61 49.8629 209.396 49.6064 209.161 49.4532C208.924 49.299 208.625 49.2235 208.276 49.2062C207.746 49.18 207.159 49.288 206.626 49.4163L207.484 52.6199ZM205.242 48.8282L204.387 45.6354C203.843 45.7993 203.299 45.9977 202.866 46.2651C202.555 46.4571 202.329 46.6685 202.199 46.9097C202.071 47.1478 202.012 47.4597 202.124 47.8786C202.236 48.2971 202.447 48.5518 202.688 48.7107C202.932 48.8715 203.241 48.9567 203.599 48.9851C204.128 49.0272 204.719 48.9419 205.242 48.8282Z" fill="#054375"/>
<circle cx="238.781" cy="138.891" r="22.5352" transform="rotate(-14.992 238.781 138.891)" fill="#F7E06E"/>
<circle cx="234.699" cy="138.699" r="21.6179" transform="rotate(-14.992 234.699 138.699)" fill="#F9EC76" stroke="#054375" stroke-width="2"/>
<path fill-rule="evenodd" clip-rule="evenodd" d="M235.857 148.83L236.474 151.135C236.571 151.499 236.945 151.715 237.309 151.617L237.967 151.441C238.331 151.344 238.547 150.97 238.449 150.606L237.829 148.291C238.855 147.984 240.132 147.51 241.168 146.708C241.893 146.146 242.536 145.398 242.888 144.404C243.242 143.408 243.27 142.254 242.919 140.94C242.567 139.626 241.965 138.642 241.161 137.955C240.359 137.27 239.428 136.944 238.52 136.819C237.222 136.642 235.879 136.87 234.837 137.116L232.894 129.862L237.833 128.539C238.197 128.442 238.413 128.068 238.315 127.705L238.139 127.046C238.042 126.682 237.668 126.466 237.304 126.564L232.365 127.886L231.748 125.582C231.65 125.218 231.277 125.002 230.913 125.099L230.254 125.276C229.891 125.373 229.675 125.747 229.772 126.111L230.394 128.433C229.324 128.763 228.107 129.231 227.117 129.961C226.367 130.513 225.701 131.246 225.33 132.222C224.956 133.204 224.917 134.336 225.261 135.618C225.604 136.9 226.205 137.869 227.003 138.557C227.795 139.241 228.719 139.595 229.628 139.753C230.948 139.983 232.311 139.812 233.381 139.586L235.327 146.855L230.388 148.177C230.025 148.275 229.809 148.649 229.906 149.012L230.083 149.671C230.18 150.035 230.554 150.25 230.917 150.153L235.857 148.83ZM237.3 146.313C238.205 146.039 239.168 145.67 239.915 145.091C240.408 144.709 240.768 144.263 240.96 143.721C241.151 143.182 241.208 142.46 240.943 141.469C240.678 140.478 240.267 139.881 239.833 139.51C239.395 139.137 238.86 138.93 238.242 138.846C237.307 138.718 236.288 138.88 235.366 139.094L237.3 146.313ZM232.851 137.607L230.924 130.412C229.989 130.703 229.057 131.072 228.33 131.608C227.808 131.992 227.438 132.432 227.241 132.949C227.047 133.461 226.983 134.145 227.236 135.089C227.489 136.032 227.894 136.625 228.339 137.009C228.79 137.398 229.345 137.628 229.979 137.738C230.917 137.901 231.945 137.79 232.851 137.607Z" fill="#054375"/>
<g clip-path="url(#clip0_4714_3349)">
<path d="M131.891 63.0974C129.623 55.5306 127.157 50.2971 119.351 44.1013C117.242 42.4272 109.739 35.0449 109.739 35.0449C109.739 35.0449 116.226 34.7945 119.206 34.4122C132.774 32.6853 145.723 33.5026 159.383 34.1617C163.035 34.3331 174.032 33.1203 174.032 33.1203C174.032 33.1203 165.356 44.0882 162.758 47.4761C159.37 51.8922 157.207 54.4233 155.678 58.4835C154.188 62.4119 155.612 67.0389 158.17 70.295C160.728 73.5511 164.248 75.7262 167.65 77.9409C185.2 89.4228 201.788 104.57 209.237 125.016C216.687 145.462 212.349 171.932 195.089 183.902C186.374 189.94 175.68 191.68 165.303 192.418C152.724 193.301 140.066 192.919 127.566 191.271C115.818 189.715 103.028 186.275 96.303 175.9C92.5451 170.113 91.2398 162.863 91.1607 155.823C90.9497 137.447 98.5578 119.65 109.647 105.571C119.958 92.4944 136.704 79.0877 131.917 63.0974H131.891Z" fill="#7CDDFD"/>
<path d="M152.131 194C143.863 194 135.583 193.459 127.395 192.378C117.176 191.034 102.738 187.923 95.3273 176.507C91.8859 171.22 90.1059 164.26 90.0004 155.85C89.8026 138.554 96.4613 120.468 108.737 104.886C110.873 102.184 113.326 99.402 115.699 96.726C124.916 86.3118 134.449 75.5417 130.81 63.4269C128.515 55.7811 126.01 50.8376 118.639 44.9846C116.503 43.2972 109.251 36.1523 108.948 35.8491C108.632 35.5327 108.526 35.0582 108.684 34.6363C108.843 34.2145 109.238 33.9376 109.686 33.9245C109.752 33.9245 116.161 33.674 119.048 33.3049C131.799 31.6834 143.863 32.2766 156.627 32.9094L159.436 33.0412C162.956 33.1994 173.795 32.013 173.9 31.9998C174.348 31.9471 174.784 32.1712 175.008 32.5667C175.232 32.9621 175.192 33.4499 174.902 33.8058C174.81 33.9113 166.213 44.8132 163.642 48.1484L162.547 49.5589C159.818 53.0918 158.025 55.4252 156.706 58.8658C155.493 62.0428 156.416 66.248 159.027 69.5832C161.295 72.4702 164.472 74.5398 167.545 76.5304L168.244 76.9786C190.039 91.2289 203.792 106.811 210.266 124.607C214.077 135.074 214.868 146.885 212.494 157.853C209.976 169.467 204.016 179.038 195.696 184.812C186.4 191.258 175.14 192.827 165.343 193.525C160.952 193.828 156.535 193.987 152.118 193.987L152.131 194ZM112.376 36.0468C114.723 38.3274 118.653 42.1108 120.05 43.2181C127.883 49.4403 130.546 54.6869 132.972 62.781C136.954 76.0954 127.012 87.34 117.387 98.2156C114.934 100.997 112.6 103.62 110.517 106.27C98.5446 121.443 92.0573 139.042 92.2551 155.823C92.3474 163.812 94.0088 170.364 97.2129 175.294C104.109 185.932 117.901 188.872 127.685 190.164C140.092 191.798 152.724 192.181 165.198 191.311C174.691 190.638 185.583 189.135 194.43 182.992C211.769 170.957 215.039 144.262 208.169 125.411C201.867 108.089 188.404 92.8767 167.03 78.9032L166.345 78.455C163.128 76.359 159.792 74.1839 157.286 71.0069C154.188 67.0653 153.146 62.0032 154.623 58.1012C156.047 54.3442 157.932 51.9054 160.781 48.2143L161.862 46.8038C163.747 44.3518 168.837 37.8792 171.487 34.5177C167.967 34.8736 161.914 35.4141 159.317 35.2823L156.508 35.1504C143.837 34.5309 131.878 33.9376 119.338 35.5327C117.545 35.7568 114.539 35.9414 112.363 36.0468H112.376Z" fill="#054375"/>
<path d="M139.947 65.7999C137.389 65.7999 134.844 65.5626 132.352 65.0616C131.745 64.943 131.35 64.3498 131.468 63.7434C131.587 63.137 132.18 62.7415 132.787 62.8602C139.828 64.2443 147.383 63.5325 154.042 60.8432C154.622 60.6059 155.268 60.8828 155.506 61.4628C155.743 62.0428 155.466 62.6888 154.886 62.9261C150.179 64.8244 145.049 65.7999 139.947 65.7999Z" fill="#054375"/>
<path d="M136.229 76.0823C134.778 76.0823 133.341 76.0164 131.891 75.8978C131.271 75.8451 130.809 75.3046 130.875 74.685C130.928 74.0654 131.482 73.604 132.088 73.6699C140.764 74.4345 149.467 72.7867 157.26 68.9111C157.813 68.6342 158.486 68.8583 158.763 69.412C159.04 69.9657 158.816 70.638 158.262 70.9148C151.392 74.3291 143.85 76.0955 136.215 76.0955L136.229 76.0823Z" fill="#054375"/>
<path d="M154.543 164.642C147.463 164.642 140.395 161.953 135.253 156.97C134.805 156.535 134.791 155.823 135.226 155.375C135.662 154.927 136.374 154.914 136.822 155.349C143.56 161.887 154.398 164.142 163.18 160.846C167.742 159.132 170.893 156.074 171.605 152.686C172.383 149.008 170.287 144.763 166.529 142.351C163.47 140.387 159.382 139.464 154.069 139.49C153.488 139.49 152.908 139.503 152.315 139.517C149.823 139.569 147.239 139.635 144.733 138.95C141.872 138.172 138.312 135.918 137.732 132.082C136.993 127.191 141.595 123.355 145.762 121.549C152.711 118.543 160.609 117.845 167.979 119.571C168.586 119.716 168.955 120.323 168.823 120.916C168.678 121.522 168.072 121.892 167.478 121.76C160.569 120.138 153.172 120.797 146.658 123.605C143.23 125.082 139.419 128.101 139.96 131.726C140.356 134.31 142.94 136.116 145.327 136.761C147.529 137.355 149.836 137.302 152.275 137.249C152.869 137.236 153.462 137.223 154.055 137.223C159.857 137.17 164.301 138.238 167.742 140.439C172.278 143.34 174.77 148.56 173.807 153.134C172.542 159.119 166.516 161.993 163.971 162.942C160.938 164.076 157.747 164.629 154.543 164.629V164.642Z" fill="#054375"/>
<path d="M155.295 171.115C155.295 171.115 155.242 171.115 155.216 171.115C154.596 171.076 154.135 170.535 154.174 169.916C155.48 150.722 153.238 131.686 147.502 113.336C147.318 112.743 147.647 112.11 148.241 111.926C148.834 111.741 149.467 112.071 149.652 112.664C155.466 131.291 157.747 150.603 156.429 170.061C156.389 170.654 155.888 171.102 155.308 171.102L155.295 171.115Z" fill="#054375"/>
<path d="M110.042 86.5623C107.866 86.5623 105.691 85.9559 103.884 84.4399C103.409 84.0444 103.344 83.3326 103.739 82.858C104.135 82.3834 104.847 82.3175 105.321 82.713C108.235 85.1517 112.824 84.5058 115.843 82.6075C119.193 80.5115 121.487 77.1104 123.742 73.5116L124.361 72.5229C126.075 69.7809 127.829 66.9731 129.965 64.3102C126.906 64.1652 123.834 65.1143 121.421 67.0258C120.828 67.5004 120.274 68.0277 119.68 68.5945C118.955 69.28 118.204 70.005 117.347 70.6246C114.024 73.0502 109.382 73.6698 105.532 72.2065C104.952 71.9824 104.662 71.3365 104.886 70.7564C105.11 70.1764 105.756 69.8864 106.337 70.1105C109.488 71.3101 113.285 70.8092 116.015 68.8186C116.753 68.2781 117.413 67.6454 118.125 66.9731C118.718 66.4062 119.338 65.813 120.01 65.2725C123.451 62.5305 128.066 61.4496 132.378 62.3724C132.774 62.4514 133.09 62.7415 133.209 63.1238C133.327 63.506 133.248 63.9279 132.971 64.2179C130.321 67.184 128.251 70.506 126.247 73.7093L125.627 74.698C123.333 78.3627 120.762 82.1461 117.017 84.4926C115.079 85.7054 112.547 86.5359 110.015 86.5359L110.042 86.5623Z" fill="#054375"/>
<path d="M167.835 191.97C167.611 191.97 167.439 191.812 167.439 191.601C167.439 191.39 167.611 191.232 167.809 191.232C167.809 191.232 167.822 191.232 167.835 191.232C173.307 191.232 179.109 188.622 183.763 184.087C188.431 179.526 191.516 173.673 193.679 169.085C193.771 168.901 193.995 168.822 194.18 168.901C194.364 168.993 194.444 169.217 194.364 169.402C192.176 174.055 189.051 179.987 184.291 184.627C179.491 189.307 173.492 191.983 167.835 191.983V191.97Z" fill="#054375"/>
<path d="M161.544 192.458C161.412 192.458 161.28 192.392 161.214 192.26C161.109 192.075 161.175 191.851 161.359 191.746C165.816 189.241 169.548 185.59 172.145 181.187C172.251 181.002 172.475 180.949 172.659 181.055C172.844 181.16 172.897 181.384 172.791 181.569C170.128 186.09 166.304 189.834 161.729 192.405C161.676 192.431 161.61 192.458 161.544 192.458Z" fill="#054375"/>
<path d="M138.654 192.866C138.654 192.866 138.614 192.866 138.601 192.866C133.894 192.128 129.688 189.004 127.644 184.693C127.552 184.509 127.644 184.284 127.815 184.192C128 184.1 128.224 184.192 128.316 184.364C130.255 188.45 134.25 191.416 138.72 192.115C138.918 192.141 139.063 192.339 139.036 192.537C139.01 192.721 138.852 192.853 138.667 192.853L138.654 192.866Z" fill="#054375"/>
<path d="M124.177 191.021C124.098 191.021 124.019 190.994 123.953 190.955C117.505 186.222 111.585 181.398 110.095 174.318C110.055 174.121 110.187 173.923 110.385 173.87C110.583 173.818 110.78 173.963 110.833 174.16C112.27 180.989 118.072 185.708 124.401 190.348C124.573 190.467 124.599 190.704 124.48 190.876C124.401 190.981 124.296 191.034 124.177 191.034V191.021Z" fill="#054375"/>
<path d="M138.984 64.0599C138.813 64.0599 138.655 63.9412 138.615 63.7699C137.481 59.0505 135.833 54.4366 133.71 50.06C133.618 49.8755 133.71 49.6514 133.882 49.5591C134.066 49.4668 134.29 49.5591 134.383 49.7305C136.532 54.1466 138.193 58.8132 139.34 63.5985C139.393 63.7962 139.261 64.0071 139.064 64.0467C139.037 64.0467 139.011 64.0467 138.971 64.0467L138.984 64.0599Z" fill="#054375"/>
<path d="M144.455 64.3237C144.455 64.3237 144.429 64.3237 144.416 64.3237C144.205 64.3105 144.06 64.126 144.073 63.915C144.495 59.3934 145.972 54.9641 148.345 51.0885C148.451 50.9171 148.688 50.8512 148.859 50.9698C149.031 51.0753 149.097 51.3126 148.978 51.4839C146.671 55.2541 145.22 59.578 144.811 63.981C144.798 64.1787 144.627 64.3237 144.442 64.3237H144.455Z" fill="#054375"/>
<path d="M149.849 62.4516C149.849 62.4516 149.77 62.4516 149.731 62.4384C149.533 62.3725 149.427 62.1748 149.48 61.977L151.141 56.3745C151.207 56.1504 151.326 56.0185 151.484 55.979C151.616 55.9526 151.761 55.9922 151.853 56.0976C152.025 56.2954 152.157 56.4272 150.192 62.2011C150.139 62.3593 149.994 62.4516 149.836 62.4516H149.849Z" fill="#054375"/>
<g opacity="0.13">
<path d="M205.478 107.984C205.228 107.259 204.489 105.559 203.316 104.095C203.421 104.214 202.024 102.395 201.707 102.012C200.507 100.444 199.149 99.0068 197.725 97.6359C194.824 94.4457 191.739 91.4401 188.535 88.5531C185.436 85.5343 181.863 83.5437 178.988 80.9336C178.87 80.8018 178.751 80.67 178.632 80.5381C178.54 80.2613 178.395 80.0108 178.184 79.7999C177.063 78.6003 174.848 79.4967 174.914 81.1577C174.875 82.0541 175.428 82.766 175.995 83.4119C176.852 84.427 177.894 85.2707 178.936 86.088C180.65 87.5117 182.377 88.909 184.039 90.3855C188.245 94.2348 192.108 98.4268 195.998 102.579C197.382 104.082 198.569 105.914 200.507 108.643C200.534 108.67 200.244 108.301 200.151 108.182C201.272 109.685 200.507 108.867 201.641 110.041C201.668 110.067 201.694 110.08 201.72 110.093C201.865 110.252 202.037 110.41 202.221 110.528C203.936 111.886 206.309 109.882 205.478 107.984Z" fill="#054375"/>
</g>
<g opacity="0.13">
<path d="M154.477 62.3065C154.543 62.2538 154.609 62.2011 154.675 62.1352C156.692 59.8546 154.253 57.2049 151.603 58.4441C147.212 59.9732 141.779 60.1182 138.589 59.6305C136.439 59.0768 137.019 59.2877 135.846 58.7604C135.147 58.4704 134.514 57.9299 133.736 57.8904C130.901 57.4026 129.53 61.4233 132.022 62.8338C132.761 63.2689 133.512 63.638 134.29 63.9412C133.103 65.1408 133.393 67.5927 135.371 68.1068C140.355 69.3196 145.63 68.4232 150.482 67.0522C151.273 66.7359 152.17 66.5513 152.882 66.0899C152.882 66.0899 152.895 66.0899 152.908 66.0899C152.895 66.1031 152.869 66.1163 152.869 66.1295C152.934 66.0899 152.948 66.0767 152.948 66.0767C152.961 66.0767 152.974 66.0767 153 66.0504C153.079 66.024 153.145 65.9845 153.225 65.9581C153.225 65.9581 153.238 65.9581 153.251 65.9581C153.422 65.8658 153.594 65.7604 153.752 65.6549C153.739 65.6681 153.712 65.6813 153.699 65.6944C154.029 65.4967 154.385 65.3122 154.583 64.9694C155.176 64.2839 155.176 63.1239 154.583 62.4384C154.556 62.3856 154.517 62.3593 154.477 62.3065Z" fill="#054375"/>
</g>
<g opacity="0.13">
<path d="M157.721 72.9053C158.262 72.2067 158.367 71.1784 157.892 70.4007C157.484 69.702 156.706 69.3065 155.928 69.3065C155.928 69.3065 155.941 69.3065 155.954 69.3065C155.928 69.3065 155.901 69.3065 155.875 69.3065C155.73 69.3065 155.585 69.3329 155.453 69.3592C154.398 69.5438 154.319 70.0184 152.46 70.9148C151.471 71.4948 147.159 72.7735 144.166 73.2745C141.16 73.8018 141.239 73.9863 137.811 73.8018C137.204 73.6699 136.611 73.4458 135.991 73.5908C133.024 73.8809 132.748 78.2706 135.622 79.022C140.778 80.1821 146.012 78.4025 150.838 76.7019C153.093 75.8187 155.4 74.9091 157.286 73.3667C157.339 73.314 157.378 73.2613 157.418 73.2085C157.471 73.1558 157.523 73.1031 157.563 73.0504C157.629 72.9844 157.681 72.9317 157.721 72.879V72.9053Z" fill="#054375"/>
</g>
<g opacity="0.13">
<path d="M212.692 140.505C212.587 138.884 212.824 137.157 212.336 135.601C211.716 134.481 209.884 134.692 209.58 135.957C209.277 139.358 208.776 141.863 207.787 145.752C205.796 153.754 203.581 159.29 199.942 166.132C198.241 169.467 196.79 172.012 194.918 174.266C190.409 178.128 185.108 181.279 180.005 182.65C174.718 184.35 172.872 184.179 167.136 184.851C159.37 185.787 151.564 185.207 143.784 184.785C139.631 184.601 136.677 183.836 131.192 183.111C124.929 182.399 116.266 181.16 106.786 178.352C104.149 177.364 106.126 178.234 103.357 176.823C103.133 176.678 102.896 176.612 102.645 176.573C102.144 176.243 101.63 175.9 101.103 175.531C100.087 174.899 98.0041 172.789 96.2108 171.471C95.156 170.944 93.9165 172.064 94.2594 173.172C94.7077 174.239 95.8812 174.819 96.6723 175.624C96.791 175.729 96.9097 175.821 97.0151 175.927C97.0151 176.019 97.0415 176.125 97.0679 176.217C97.6876 177.482 98.9666 178.339 99.9819 179.328C100.101 179.895 100.43 180.422 101.05 180.778C101.406 181.002 101.775 181.2 102.144 181.398C103.081 182.32 104.03 183.23 105.111 183.955C105.559 184.166 105.981 184.113 106.337 183.929C106.561 184.074 106.772 184.219 106.983 184.35C109.726 186.301 112.244 187.382 114.249 188.173C115.369 188.687 121.593 191.245 124.626 192.049C126.907 192.682 129.28 192.985 131.627 193.301C135.768 193.868 139.974 193.657 144.14 193.605C148.584 193.591 153.014 193.644 157.445 193.249C164.683 192.84 171.962 192.405 179.109 191.179C186.44 189.597 193.323 186.09 198.887 181.055C201.3 178.932 203.053 176.204 204.478 173.343C204.899 172.236 205.862 171.168 205.77 169.955C206.68 168.479 207.51 166.936 208.209 165.341C208.947 163.917 209.554 162.441 210.068 160.938C210.675 160.213 210.807 158.987 210.965 157.972C211.163 157.194 211.36 156.417 211.532 155.639C211.769 154.347 212.231 153.147 211.888 152.211C212.033 151.262 212.152 150.313 212.244 149.364C212.56 146.437 212.666 143.498 212.692 140.545V140.505ZM128.159 188.556C128.159 188.556 128.12 188.556 128.094 188.556C128.99 188.674 130.322 188.846 130.744 188.885C131.073 188.925 131.403 188.977 131.733 189.03C130.427 188.912 129.227 188.753 128.159 188.569V188.556Z" fill="#054375"/>
</g>
</g>
<defs>
<clipPath id="clip0_4714_3349">
<rect width="126" height="162" fill="white" transform="translate(90 32)"/>
</clipPath>
</defs>
</svg>
