<svg width="320" height="248" viewBox="0 0 320 248" fill="none" xmlns="http://www.w3.org/2000/svg">
<path opacity="0.3" d="M254.68 129.137C256.233 127.566 256.233 125.02 254.68 123.449L145.394 12.9292C143.686 11.2019 140.862 11.4003 139.407 13.3499L99.1424 67.2889C97.947 68.8903 98.1015 71.1378 99.5044 72.5566L149.711 123.329C151.264 124.9 151.264 127.447 149.711 129.018L93.107 186.26C91.3996 187.987 91.5949 190.841 93.5211 192.314L146.963 233.164C148.547 234.375 150.771 234.219 152.174 232.8L254.68 129.137Z" fill="#1090F9"/>
<path opacity="0.3" d="M253.889 132.632C255.054 133.811 255.054 135.721 253.889 136.899L151.383 240.561C150.33 241.626 148.663 241.743 147.475 240.835L94.0328 199.984C92.5882 198.88 92.4417 196.739 93.7222 195.444L150.326 138.202C152.268 136.238 152.268 133.055 150.326 131.091L100.12 80.3182C99.0674 79.2541 98.9516 77.5685 99.8482 76.3674L140.112 22.4285C141.204 20.9663 143.322 20.8174 144.603 22.1129L253.889 132.632Z" stroke="#40CDFC" stroke-width="2"/>
<path opacity="0.3" d="M223.313 41.0739C223.866 42.0305 223.538 43.2537 222.581 43.806L218.498 46.1638C217.446 46.7709 216.1 46.3085 215.644 45.1831L215.604 45.0835C215.229 44.1586 215.593 43.099 216.457 42.6L216.972 42.3029C217.928 41.7506 218.256 40.5274 217.704 39.5708L217.399 39.0433C216.792 37.9917 217.255 36.6461 218.38 36.1898L218.48 36.1495C219.404 35.7746 220.464 36.1387 220.963 37.0029L223.313 41.0739Z" fill="#1090F9"/>
<path opacity="0.3" d="M86.3135 168.074C86.8657 169.031 86.538 170.254 85.5814 170.806L81.4976 173.164C80.4459 173.771 79.1003 173.309 78.6441 172.183L78.6037 172.084C78.2288 171.159 78.593 170.099 79.4572 169.6L79.9718 169.303C80.9284 168.751 81.2562 167.527 80.7039 166.571L80.3993 166.043C79.7922 164.992 80.2546 163.646 81.38 163.19L81.4797 163.15C82.4045 162.775 83.4641 163.139 83.9631 164.003L86.3135 168.074Z" fill="#1090F9"/>
<path opacity="0.3" d="M285.824 179.352C285.264 180.304 284.038 180.622 283.086 180.061L274.065 174.753C272.991 174.122 272.75 172.672 273.562 171.727L274.395 170.757C275.025 170.022 276.092 169.844 276.926 170.335L279.919 172.096C280.871 172.656 282.097 172.339 282.657 171.387L283.7 169.615C284.303 168.589 285.663 168.314 286.617 169.024L288.852 170.687C289.671 171.297 289.9 172.426 289.382 173.306L285.824 179.352Z" fill="#1090F9"/>
<g clip-path="url(#clip0_4615_4197)">
<ellipse cx="32.577" cy="32.5696" rx="32.577" ry="32.5696" transform="matrix(0.965979 -0.25862 0.258747 0.965945 122.143 60.4807)" fill="#F7E06E"/>
<path d="M186.754 75.042C191.283 91.9482 181.248 109.323 164.338 113.849C147.429 118.376 130.05 108.34 125.521 91.4338C120.992 74.5277 131.027 57.1529 147.937 52.6264C164.846 48.0999 182.225 58.1359 186.754 75.042Z" fill="#F9EC76" stroke="#054375" stroke-width="2"/>
<path fill-rule="evenodd" clip-rule="evenodd" d="M157.812 97.8808L158.704 101.212C158.845 101.738 159.385 102.05 159.911 101.909L160.863 101.654C161.389 101.514 161.701 100.973 161.56 100.448L160.664 97.1017C162.147 96.6574 163.993 95.9733 165.489 94.8136C166.537 94.0016 167.466 92.9204 167.976 91.4846C168.487 90.0439 168.529 88.3771 168.02 86.4777C167.511 84.5783 166.641 83.1555 165.478 82.1628C164.319 81.1736 162.974 80.7012 161.66 80.5214C159.784 80.2647 157.843 80.5943 156.337 80.9503L153.528 70.4659L160.667 68.5546C161.193 68.4139 161.505 67.8737 161.364 67.348L161.109 66.3962C160.969 65.8705 160.428 65.5585 159.902 65.6992L152.763 67.6105L151.87 64.2792C151.729 63.7535 151.189 63.4415 150.663 63.5822L149.711 63.837C149.186 63.9778 148.874 64.518 149.014 65.0437L149.914 68.4006C148.366 68.8777 146.608 69.5539 145.176 70.6086C144.093 71.4064 143.13 72.4651 142.593 73.8757C142.053 75.2957 141.997 76.932 142.493 78.7839C142.99 80.6373 143.859 82.0378 145.012 83.0326C146.158 84.021 147.494 84.532 148.807 84.7606C150.716 85.0928 152.685 84.8457 154.232 84.5199L157.047 95.0254L149.907 96.9367C149.381 97.0774 149.069 97.6177 149.21 98.1433L149.465 99.0951C149.606 99.6208 150.146 99.9328 150.672 99.7921L157.812 97.8808ZM159.898 94.2431C161.206 93.8462 162.599 93.3132 163.678 92.4771C164.39 91.9254 164.911 91.2796 165.189 90.4963C165.465 89.7182 165.547 88.6741 165.164 87.2422C164.78 85.8103 164.187 84.947 163.559 84.4109C162.927 83.8713 162.152 83.5722 161.26 83.4501C159.907 83.265 158.434 83.4991 157.102 83.8089L159.898 94.2431ZM153.466 81.659L150.68 71.2599C149.328 71.6816 147.982 72.2138 146.93 72.9885C146.175 73.5444 145.641 74.179 145.356 74.9274C145.075 75.6665 144.983 76.6548 145.349 78.0194C145.714 79.3823 146.3 80.2393 146.944 80.7948C147.595 81.3567 148.398 81.689 149.314 81.8484C150.67 82.0845 152.157 81.9235 153.466 81.659Z" fill="#054375"/>
<path d="M91.5034 98.0548L227.289 96.0187L208.858 163.312L132.274 164.007L91.5034 98.0548Z" fill="#7CDDFD"/>
<path d="M132.274 165.082C131.908 165.082 131.566 164.893 131.364 164.577L90.5926 98.6113C90.3902 98.2825 90.3776 97.8778 90.5673 97.5363C90.7571 97.1948 91.0986 96.9925 91.4908 96.9798L227.276 94.9437C227.605 94.9437 227.934 95.0955 228.136 95.3611C228.339 95.6267 228.415 95.9681 228.326 96.2969L209.895 163.59C209.769 164.045 209.351 164.374 208.87 164.374L132.287 165.07L132.274 165.082ZM93.4009 99.0918L132.856 162.932L208.023 162.25L225.872 97.1063L93.3883 99.0918H93.4009Z" fill="#054375"/>
<path d="M88.0626 92.0602L94.7924 103.796L225.113 104.049L228.44 92.0602H88.0626Z" fill="#7CDDFD"/>
<path d="M225.1 105.112L94.7924 104.859C94.4129 104.859 94.0587 104.656 93.869 104.328L87.1391 92.5914C86.9494 92.2626 86.9494 91.8579 87.1391 91.5291C87.3289 91.2003 87.6831 90.9979 88.0626 90.9979H228.44C228.769 90.9979 229.085 91.1497 229.288 91.4153C229.49 91.6808 229.553 92.0223 229.465 92.3511L226.138 104.34C226.011 104.808 225.594 105.124 225.113 105.124L225.1 105.112ZM95.4123 102.721L224.291 102.974L227.023 93.1226H89.9095L95.4123 102.721Z" fill="#054375"/>
<path d="M145.123 187.484C146.244 180.131 141.191 173.26 133.835 172.139C126.48 171.018 119.608 176.07 118.486 183.424C117.364 190.777 122.418 197.647 129.773 198.769C137.129 199.89 144.001 194.838 145.123 187.484Z" fill="#7CDDFD"/>
<path d="M131.806 200C123.786 200 117.259 193.474 117.259 185.456C117.259 177.438 123.786 170.913 131.806 170.913C139.827 170.913 146.354 177.438 146.354 185.456C146.354 193.474 139.827 200 131.806 200ZM131.806 173.05C124.963 173.05 119.397 178.614 119.397 185.456C119.397 192.298 124.963 197.863 131.806 197.863C138.65 197.863 144.216 192.298 144.216 185.456C144.216 178.614 138.65 173.05 131.806 173.05Z" fill="#054375"/>
<path d="M214.438 193.914C219.111 188.125 218.206 179.646 212.417 174.973C206.627 170.301 198.145 171.206 193.472 176.994C188.798 182.782 189.703 191.262 195.493 195.934C201.283 200.606 209.765 199.702 214.438 193.914Z" fill="#7CDDFD"/>
<path d="M203.962 200C195.942 200 189.415 193.474 189.415 185.456C189.415 177.438 195.942 170.913 203.962 170.913C211.982 170.913 218.51 177.438 218.51 185.456C218.51 193.474 211.982 200 203.962 200ZM203.962 173.05C197.119 173.05 191.553 178.614 191.553 185.456C191.553 192.298 197.119 197.863 203.962 197.863C210.806 197.863 216.372 192.298 216.372 185.456C216.372 178.614 210.806 173.05 203.962 173.05Z" fill="#054375"/>
<path d="M216.486 135.919C216.094 135.919 215.702 135.691 215.524 135.312L200.749 104.492C200.496 103.961 200.724 103.329 201.255 103.063C201.786 102.81 202.432 103.038 202.685 103.569L217.46 134.389C217.713 134.92 217.485 135.552 216.954 135.818C216.802 135.894 216.65 135.919 216.498 135.919H216.486Z" fill="#054375"/>
<path d="M228.44 93.1226C228.326 93.1226 228.225 93.11 228.111 93.072C227.555 92.895 227.238 92.2879 227.428 91.7315C230.047 83.7008 232.134 75.8725 234.348 67.5762L234.461 67.1336C234.588 66.6657 235.005 66.3369 235.499 66.3369L261.937 66.3621C262.532 66.3621 263 66.8427 263 67.4245C263 68.0189 262.519 68.4868 261.937 68.4868L236.321 68.4615C234.133 76.6566 232.058 84.3964 229.465 92.3764C229.313 92.8317 228.895 93.11 228.453 93.11L228.44 93.1226Z" fill="#054375"/>
<path d="M207.922 163.843C207.542 163.843 207.175 163.641 206.986 163.287L174.766 104.555C174.488 104.037 174.677 103.392 175.183 103.101C175.702 102.823 176.347 103 176.638 103.518L208.858 162.25C209.136 162.768 208.946 163.413 208.44 163.704C208.276 163.792 208.099 163.83 207.922 163.83V163.843Z" fill="#054375"/>
<path d="M181.66 163.843C181.281 163.843 180.914 163.641 180.724 163.287L148.504 104.555C148.226 104.037 148.416 103.392 148.922 103.101C149.441 102.823 150.086 103 150.377 103.518L182.596 162.25C182.875 162.768 182.685 163.413 182.179 163.704C182.014 163.792 181.837 163.83 181.66 163.83V163.843Z" fill="#054375"/>
<path d="M155.652 163.843C155.272 163.843 154.905 163.641 154.716 163.287L122.496 104.555C122.218 104.037 122.407 103.392 122.913 103.101C123.432 102.823 124.077 103 124.368 103.518L156.588 162.25C156.866 162.768 156.676 163.413 156.17 163.704C156.006 163.792 155.829 163.83 155.652 163.83V163.843Z" fill="#054375"/>
<path d="M101.155 102.152C101.042 102.152 100.94 102.102 100.864 102.001C99.1693 99.6609 97.6007 97.1948 96.1839 94.6655C96.0827 94.4884 96.146 94.2734 96.3231 94.1849C96.4875 94.0964 96.7152 94.1469 96.8038 94.324C98.2079 96.828 99.7639 99.2689 101.446 101.583C101.56 101.748 101.522 101.963 101.37 102.076C101.307 102.127 101.231 102.14 101.168 102.14L101.155 102.152Z" fill="#054375"/>
<path d="M107.43 102.064C107.316 102.064 107.202 102.013 107.139 101.912L102.433 95.2219C102.319 95.0575 102.357 94.8425 102.522 94.7287C102.686 94.6149 102.901 94.6528 103.015 94.8172L107.721 101.507C107.835 101.672 107.797 101.887 107.632 102.001C107.569 102.038 107.493 102.064 107.43 102.064Z" fill="#054375"/>
<path d="M114.02 101.925C113.919 101.925 113.805 101.874 113.742 101.786L108.809 95.2851C108.695 95.1334 108.72 94.9057 108.872 94.7919C109.024 94.6781 109.251 94.7034 109.365 94.8552L114.299 101.356C114.413 101.507 114.387 101.735 114.236 101.849C114.172 101.899 114.096 101.925 114.02 101.925Z" fill="#054375"/>
<path d="M119.953 101.925C119.852 101.925 119.751 101.887 119.675 101.798C117.955 99.7368 116.361 97.5489 114.919 95.2852C114.817 95.1208 114.855 94.8931 115.032 94.792C115.197 94.6908 115.412 94.7414 115.526 94.9058C116.955 97.1442 118.537 99.3068 120.232 101.343C120.358 101.495 120.333 101.722 120.181 101.849C120.118 101.899 120.029 101.937 119.953 101.937V101.925Z" fill="#054375"/>
<path d="M128.808 194.891C128.695 194.891 128.581 194.827 128.505 194.726C126.316 191.312 124.191 187.783 122.218 184.255C122.117 184.078 122.18 183.863 122.357 183.774C122.521 183.673 122.749 183.736 122.838 183.913C124.811 187.429 126.911 190.945 129.099 194.347C129.201 194.511 129.163 194.739 128.998 194.84C128.935 194.878 128.872 194.891 128.808 194.891Z" fill="#054375"/>
<path d="M136.247 195.409C136.133 195.409 136.032 195.359 135.956 195.258C131.984 189.718 128.176 183.964 124.621 178.147C124.52 177.982 124.571 177.754 124.735 177.653C124.9 177.552 125.127 177.603 125.228 177.767C128.77 183.559 132.565 189.301 136.525 194.828C136.639 194.992 136.601 195.207 136.449 195.321C136.386 195.371 136.31 195.384 136.247 195.384V195.409Z" fill="#054375"/>
<path d="M140.636 191.286C140.522 191.286 140.421 191.236 140.345 191.135L129.441 175.769C129.327 175.604 129.365 175.389 129.529 175.276C129.694 175.162 129.909 175.2 130.023 175.364L140.927 190.73C141.041 190.894 141.003 191.109 140.839 191.223C140.775 191.274 140.699 191.286 140.636 191.286Z" fill="#054375"/>
<path d="M142.015 184.495C141.901 184.495 141.8 184.445 141.724 184.343L136.36 176.996C136.247 176.831 136.285 176.616 136.436 176.502C136.601 176.389 136.816 176.427 136.93 176.578L142.293 183.926C142.407 184.09 142.369 184.305 142.217 184.419C142.154 184.47 142.078 184.482 142.002 184.482L142.015 184.495Z" fill="#054375"/>
<path d="M201.027 195.384C200.914 195.384 200.8 195.333 200.737 195.232L194.184 185.785C194.07 185.621 194.108 185.406 194.272 185.292C194.437 185.178 194.652 185.216 194.766 185.38L201.318 194.827C201.432 194.992 201.394 195.207 201.23 195.321C201.167 195.359 201.103 195.384 201.027 195.384Z" fill="#054375"/>
<path d="M207.112 196.155C206.986 196.155 206.872 196.092 206.809 195.978C203.368 190.275 199.8 184.571 196.182 179.019C196.081 178.855 196.119 178.64 196.284 178.526C196.448 178.425 196.663 178.463 196.777 178.627C200.395 184.192 203.975 189.895 207.416 195.612C207.517 195.776 207.466 196.004 207.289 196.105C207.239 196.143 207.163 196.155 207.099 196.155H207.112Z" fill="#054375"/>
<path d="M211.603 193.082C211.476 193.082 211.363 193.019 211.299 192.905C207.909 187.265 204.342 181.637 200.724 176.161C200.61 175.996 200.661 175.782 200.825 175.668C200.99 175.567 201.205 175.604 201.318 175.769C204.949 181.258 208.516 186.898 211.919 192.538C212.02 192.703 211.97 192.93 211.793 193.032C211.729 193.07 211.666 193.082 211.603 193.082Z" fill="#054375"/>
<path d="M214.31 186.607C214.196 186.607 214.082 186.557 214.019 186.455C211.805 183.268 209.503 180.056 207.188 176.92C207.074 176.768 207.099 176.54 207.264 176.427C207.416 176.313 207.643 176.338 207.757 176.502C210.085 179.651 212.387 182.864 214.601 186.051C214.715 186.215 214.677 186.43 214.512 186.544C214.449 186.582 214.386 186.607 214.31 186.607Z" fill="#054375"/>
<path d="M126.013 102.367C125.899 102.367 125.798 102.317 125.722 102.228C124.065 99.9897 122.458 97.6754 120.927 95.3357C120.814 95.1713 120.864 94.9563 121.029 94.8425C121.193 94.7287 121.408 94.7793 121.522 94.9437C123.053 97.258 124.659 99.5724 126.304 101.798C126.418 101.963 126.392 102.178 126.228 102.291C126.165 102.342 126.089 102.367 126.013 102.367Z" fill="#054375"/>
<path d="M131.806 102.405C131.705 102.405 131.591 102.355 131.528 102.266L126.114 95.2725C125.987 95.1208 126.025 94.8931 126.177 94.7667C126.329 94.6402 126.557 94.6782 126.683 94.8299L132.097 101.824C132.224 101.975 132.186 102.203 132.034 102.329C131.971 102.38 131.895 102.405 131.819 102.405H131.806Z" fill="#054375"/>
<path d="M137.727 102.329C137.625 102.329 137.524 102.279 137.448 102.203L131.528 94.9058C131.402 94.754 131.427 94.5263 131.579 94.3999C131.731 94.2734 131.958 94.2987 132.085 94.4505L138.005 101.748C138.131 101.899 138.106 102.127 137.954 102.253C137.891 102.304 137.815 102.329 137.727 102.329Z" fill="#054375"/>
<path d="M143.571 102.254C143.47 102.254 143.369 102.203 143.293 102.114L137.512 94.9437C137.385 94.792 137.41 94.5643 137.562 94.4378C137.714 94.3114 137.942 94.3367 138.068 94.4884L143.849 101.659C143.976 101.811 143.95 102.039 143.799 102.165C143.735 102.216 143.66 102.241 143.571 102.241V102.254Z" fill="#054375"/>
<path d="M149.2 101.583C149.086 101.583 148.985 101.533 148.909 101.444L144.153 94.969C144.039 94.8046 144.077 94.5896 144.229 94.4758C144.381 94.362 144.608 94.3873 144.722 94.5517L149.479 101.027C149.592 101.191 149.554 101.406 149.403 101.52C149.339 101.571 149.263 101.583 149.188 101.583H149.2Z" fill="#054375"/>
<path d="M156.044 101.823C155.943 101.823 155.842 101.773 155.766 101.697C154.007 99.5344 152.312 97.2707 150.744 94.9816C150.63 94.8172 150.668 94.6022 150.832 94.4884C150.997 94.3746 151.212 94.4125 151.325 94.5769C152.881 96.8533 154.564 99.0918 156.31 101.254C156.436 101.406 156.411 101.634 156.259 101.76C156.196 101.811 156.12 101.836 156.031 101.836L156.044 101.823Z" fill="#054375"/>
<path d="M162.875 102.14C162.774 102.14 162.673 102.102 162.609 102.013L156.929 95.3358C156.803 95.184 156.816 94.9563 156.967 94.8299C157.119 94.7034 157.347 94.7161 157.473 94.8678L163.153 101.545C163.28 101.697 163.267 101.925 163.115 102.051C163.052 102.114 162.963 102.14 162.888 102.14H162.875Z" fill="#054375"/>
<path d="M169.478 102.241C169.377 102.241 169.289 102.203 169.213 102.127L162.888 95.2346C162.761 95.0954 162.761 94.8678 162.913 94.7287C163.052 94.6022 163.28 94.6022 163.419 94.754L169.744 101.646C169.87 101.786 169.87 102.013 169.719 102.152C169.655 102.216 169.567 102.241 169.478 102.241Z" fill="#054375"/>
<path d="M175.892 101.697C175.803 101.697 175.702 101.659 175.639 101.596L169.086 94.8805C168.947 94.7414 168.947 94.5137 169.086 94.3746C169.225 94.2355 169.453 94.2355 169.592 94.3746L176.145 101.09C176.284 101.229 176.284 101.457 176.145 101.596C176.082 101.659 175.98 101.697 175.892 101.697Z" fill="#054375"/>
<path d="M182.419 102.228C182.318 102.228 182.217 102.178 182.141 102.102C180.142 99.6483 177.941 97.3466 175.588 95.2472C175.436 95.1207 175.424 94.8931 175.563 94.7413C175.689 94.5896 175.917 94.5769 176.069 94.716C178.447 96.8407 180.686 99.1803 182.698 101.659C182.824 101.811 182.799 102.038 182.647 102.165C182.584 102.216 182.508 102.241 182.419 102.241V102.228Z" fill="#054375"/>
<path d="M187.985 101.621C187.884 101.621 187.783 101.583 187.72 101.495L182.078 95.007C181.951 94.8552 181.964 94.6276 182.116 94.5011C182.267 94.3746 182.495 94.3873 182.622 94.539L188.264 101.027C188.39 101.179 188.377 101.406 188.226 101.533C188.162 101.596 188.074 101.621 187.998 101.621H187.985Z" fill="#054375"/>
<path d="M194.867 102.001C194.766 102.001 194.664 101.963 194.601 101.874L188.959 95.3231C188.833 95.1714 188.845 94.9437 188.997 94.8172C189.149 94.6908 189.377 94.7034 189.503 94.8552L195.145 101.419C195.272 101.571 195.259 101.798 195.107 101.925C195.044 101.988 194.955 102.013 194.88 102.013L194.867 102.001Z" fill="#054375"/>
<path d="M202.191 102.19C202.09 102.19 201.989 102.152 201.926 102.064L196.208 95.5508C196.081 95.399 196.094 95.184 196.246 95.0449C196.398 94.9184 196.613 94.9311 196.752 95.0828L202.47 101.596C202.596 101.748 202.583 101.963 202.432 102.102C202.368 102.165 202.28 102.19 202.191 102.19Z" fill="#054375"/>
<path d="M209.187 102.279C209.086 102.279 208.984 102.228 208.908 102.152L202.938 94.7919C202.811 94.6402 202.836 94.4125 202.988 94.2861C203.14 94.1596 203.368 94.1849 203.494 94.3366L209.465 101.697C209.592 101.849 209.566 102.076 209.414 102.203C209.351 102.253 209.275 102.279 209.187 102.279Z" fill="#054375"/>
<path d="M215.423 102.203C215.309 102.203 215.208 102.152 215.132 102.064L209.958 95.0701C209.844 94.9184 209.87 94.6907 210.034 94.5769C210.186 94.4631 210.414 94.4884 210.528 94.6528L215.701 101.646C215.815 101.798 215.79 102.026 215.626 102.14C215.562 102.19 215.486 102.216 215.411 102.216L215.423 102.203Z" fill="#054375"/>
<path d="M222.95 101.634C222.849 101.634 222.748 101.596 222.684 101.507C220.812 99.3574 219.003 97.1189 217.295 94.8552C217.182 94.7034 217.207 94.4758 217.371 94.362C217.523 94.2481 217.751 94.2734 217.865 94.4378C219.56 96.689 221.369 98.9148 223.228 101.052C223.355 101.204 223.342 101.431 223.19 101.558C223.127 101.621 223.039 101.646 222.963 101.646L222.95 101.634Z" fill="#054375"/>
<g opacity="0.13">
<path d="M222.52 104.606C221.963 104.492 221.407 104.505 220.901 104.707C220.837 104.732 220.774 104.745 220.698 104.758C216.549 105.124 214.538 105.074 211.375 104.517C207.15 103.986 202.9 104.328 198.662 104.403C194.133 104.403 189.604 104.163 185.063 104.138C177.271 104.239 169.478 104.441 161.686 104.53C155.285 104.492 148.884 104.214 142.483 104.416C133.476 104.416 124.495 103.721 115.501 103.468C111.617 103.253 107.721 103.708 103.837 103.518C102.496 103.455 101.168 103.354 99.8271 103.227C99.0555 103.189 98.2206 102.924 97.4995 103.316C95.0581 104.252 95.7791 108.084 98.4483 108.046C100.978 108.311 102.863 108.754 106.608 109.057C110.883 109.07 115.159 108.994 119.447 109.159C126.493 109.45 133.539 109.968 140.598 110.057C147.973 109.829 155.348 110.107 162.736 110.17C170.984 110.158 179.219 109.829 187.454 109.589C193.399 109.665 199.332 109.917 205.278 109.5C208.478 109.374 211.666 109.778 214.841 110.057C217.207 110.145 219.585 109.981 221.925 109.728C224.759 109.323 225.404 105.554 222.52 104.618V104.606Z" fill="#054375"/>
</g>
<g opacity="0.13">
<path d="M149.403 88.1903C148.58 87.6718 147.594 88.0006 146.683 88.0006C145.19 87.9501 143.685 87.8615 142.205 87.7098C137.512 87.1786 132.78 87.1786 128.062 87.3936C125.671 87.3936 123.28 87.4315 120.915 87.8615C117.98 88.7215 119.182 93.1099 122.154 92.3511C128.378 91.2382 139.523 92.7052 147.885 92.3511C150.326 92.604 151.528 89.5435 149.403 88.1903Z" fill="#054375"/>
</g>
<g opacity="0.13">
<path d="M193.437 89.1262C193.121 87.8616 191.793 87.4822 190.642 87.5833C184.544 87.8869 178.422 86.5842 172.362 87.4822C169.238 88.4307 170.503 93.0467 173.678 92.2753C176.777 91.6935 185.961 92.0729 191.439 91.7568C192.78 91.7947 193.804 90.4162 193.437 89.1262Z" fill="#054375"/>
</g>
<g opacity="0.13">
<path d="M143.331 193.272C143.356 192.007 142.053 191.033 140.839 191.375C140.611 191.438 140.408 191.552 140.231 191.678C140.13 191.742 139.624 192.096 139.346 192.235C137.461 193.196 137.625 193.145 135.045 193.727C134.893 193.752 134.741 193.778 134.589 193.803C134.387 193.828 134.058 193.854 133.818 193.866C131.718 193.98 130.972 193.866 130.2 193.664C129.681 193.5 127.645 192.678 125.785 191.514C125.115 191.021 124.394 190.578 123.723 190.072C123.04 189.554 122.395 188.858 121.471 188.896C119.549 188.833 118.486 191.388 119.89 192.703C121.294 193.93 122.154 194.537 122.483 194.891C123.799 196.497 125.76 197.319 127.72 197.863C129.454 198.394 131.275 198.584 133.084 198.508C134.779 198.584 136.487 198.394 138.094 197.799C139.447 197.332 140.636 196.509 141.762 195.624C142.053 195.485 142.66 194.752 142.875 194.486C142.837 194.524 142.799 194.587 142.736 194.663C143.116 194.296 143.331 193.778 143.331 193.259V193.272Z" fill="#054375"/>
</g>
<g opacity="0.13">
<path d="M217.422 190.11C217.131 188.947 215.689 188.378 214.664 188.985C213.551 189.921 214.183 189.579 213.387 190.414C213.222 190.667 212.59 191.286 212.362 191.514C211.4 192.172 210.426 192.791 209.414 193.361C206.834 194.36 204.468 194.22 203.393 194.043C200.559 193.55 199.244 192.893 197.738 192.172C195.55 191.034 195.967 191.147 194.234 189.706C192.248 187.783 189.326 190.692 191.249 192.69C192.83 194.183 194.374 195.725 196.41 196.585C200.964 198.9 206.796 199.874 211.274 196.902C213.235 195.675 215.132 194.284 216.549 192.437C217.106 191.792 217.725 191.021 217.422 190.11Z" fill="#054375"/>
</g>
<ellipse cx="16.5235" cy="13.6045" rx="16.5235" ry="13.6045" transform="matrix(0.965979 -0.25862 0.258747 0.965945 87.9395 128.898)" fill="#F7E06E"/>
<path d="M121.358 133.091C122.167 136.114 121.32 139.344 119.162 142.149C117.003 144.955 113.561 147.285 109.331 148.417C105.1 149.549 100.955 149.251 97.6815 147.9C94.4096 146.548 92.0607 144.173 91.251 141.151C90.4413 138.128 91.2884 134.898 93.4468 132.093C95.6059 129.287 99.048 126.957 103.278 125.825C107.508 124.693 111.654 124.991 114.927 126.342C118.199 127.694 120.548 130.069 121.358 133.091Z" fill="#F9EC76" stroke="#054375" stroke-width="2"/>
<path fill-rule="evenodd" clip-rule="evenodd" d="M106.703 142.873L107.05 144.167C107.104 144.371 107.365 144.479 107.632 144.407L108.115 144.278C108.381 144.207 108.553 143.983 108.498 143.779L108.15 142.48C108.904 142.26 109.846 141.934 110.628 141.43C111.175 141.077 111.671 140.621 111.968 140.037C112.266 139.451 112.336 138.789 112.139 138.052C111.941 137.314 111.549 136.776 110.998 136.417C110.449 136.06 109.791 135.912 109.141 135.88C108.212 135.834 107.233 136.022 106.47 136.208L105.379 132.137L109.001 131.168C109.267 131.096 109.439 130.873 109.385 130.669L109.286 130.299C109.231 130.095 108.97 129.987 108.704 130.059L105.082 131.028L104.736 129.735C104.681 129.531 104.421 129.423 104.154 129.494L103.671 129.624C103.404 129.695 103.233 129.918 103.287 130.122L103.636 131.426C102.85 131.661 101.952 131.981 101.205 132.442C100.641 132.79 100.129 133.238 99.8188 133.813C99.5067 134.392 99.4303 135.042 99.623 135.761C99.8158 136.481 100.208 137.01 100.754 137.37C101.297 137.727 101.949 137.89 102.598 137.942C103.541 138.017 104.531 137.86 105.313 137.685L106.406 141.765L102.785 142.734C102.518 142.805 102.346 143.029 102.401 143.233L102.5 143.603C102.555 143.807 102.815 143.914 103.082 143.843L106.703 142.873ZM107.853 141.37C108.518 141.174 109.229 140.921 109.793 140.558C110.165 140.318 110.444 140.047 110.606 139.728C110.767 139.412 110.839 138.995 110.69 138.439C110.541 137.883 110.271 137.559 109.973 137.365C109.673 137.17 109.296 137.075 108.854 137.053C108.184 137.019 107.442 137.156 106.767 137.318L107.853 141.37ZM105.016 136.574L103.934 132.536C103.246 132.744 102.558 132.994 102.01 133.333C101.617 133.575 101.332 133.843 101.167 134.148C101.005 134.449 100.93 134.843 101.072 135.373C101.213 135.902 101.48 136.225 101.785 136.426C102.094 136.629 102.485 136.737 102.937 136.773C103.607 136.826 104.354 136.718 105.016 136.574Z" fill="#054375"/>
<ellipse cx="20.642" cy="20.6373" rx="20.642" ry="20.6373" transform="matrix(0.965979 -0.25862 0.258747 0.965945 208.662 134.503)" fill="#F7E06E"/>
<path d="M249.064 143.148C251.881 153.664 245.638 164.473 235.119 167.289C224.6 170.105 213.789 163.861 210.972 153.344C208.154 142.828 214.397 132.019 224.916 129.203C235.435 126.388 246.246 132.631 249.064 143.148Z" fill="#F9EC76" stroke="#054375" stroke-width="2"/>
<path fill-rule="evenodd" clip-rule="evenodd" d="M231.079 157.524L231.645 159.635C231.734 159.968 232.076 160.166 232.41 160.077L233.013 159.915C233.346 159.826 233.544 159.484 233.454 159.151L232.886 157.031C233.826 156.749 234.996 156.316 235.944 155.581C236.608 155.066 237.197 154.381 237.52 153.471C237.843 152.558 237.87 151.502 237.548 150.299C237.225 149.095 236.674 148.194 235.937 147.565C235.203 146.938 234.351 146.639 233.518 146.525C232.329 146.362 231.099 146.571 230.145 146.796L228.365 140.153L232.889 138.942C233.222 138.853 233.42 138.511 233.331 138.177L233.169 137.574C233.08 137.241 232.737 137.044 232.404 137.133L227.88 138.344L227.315 136.233C227.225 135.9 226.883 135.702 226.55 135.791L225.947 135.953C225.614 136.042 225.416 136.384 225.505 136.717L226.075 138.844C225.094 139.147 223.98 139.575 223.073 140.243C222.387 140.749 221.777 141.42 221.436 142.314C221.094 143.213 221.059 144.25 221.373 145.424C221.688 146.598 222.239 147.485 222.969 148.116C223.695 148.742 224.542 149.066 225.374 149.211C226.583 149.421 227.831 149.265 228.811 149.058L230.595 155.715L226.071 156.926C225.738 157.015 225.54 157.357 225.629 157.691L225.791 158.294C225.88 158.627 226.222 158.824 226.555 158.735L231.079 157.524ZM232.401 155.219C233.23 154.968 234.113 154.63 234.797 154.1C235.248 153.751 235.578 153.341 235.754 152.845C235.929 152.352 235.981 151.69 235.738 150.783C235.495 149.876 235.119 149.329 234.721 148.989C234.32 148.647 233.83 148.458 233.264 148.38C232.407 148.263 231.474 148.411 230.63 148.608L232.401 155.219ZM228.326 147.245L226.56 140.656C225.704 140.923 224.851 141.261 224.184 141.751C223.706 142.104 223.368 142.506 223.187 142.98C223.009 143.448 222.951 144.075 223.183 144.939C223.414 145.803 223.785 146.346 224.193 146.698C224.606 147.054 225.114 147.264 225.695 147.365C226.554 147.515 227.496 147.413 228.326 147.245Z" fill="#054375"/>
</g>
<defs>
<clipPath id="clip0_4615_4197">
<rect width="176" height="153" fill="white" transform="translate(87 47)"/>
</clipPath>
</defs>
</svg>
