<svg width="320" height="248" viewBox="0 0 320 248" fill="none" xmlns="http://www.w3.org/2000/svg">
<path opacity="0.3" d="M254.679 129.137C256.232 127.566 256.232 125.02 254.679 123.449L145.393 12.9292C143.685 11.2019 140.861 11.4003 139.406 13.3499L99.1416 67.2889C97.9461 68.8903 98.1006 71.1378 99.5036 72.5566L149.71 123.329C151.263 124.9 151.263 127.447 149.71 129.018L93.1061 186.26C91.3988 187.987 91.5941 190.841 93.5202 192.314L146.962 233.164C148.546 234.375 150.77 234.219 152.173 232.8L254.679 129.137Z" fill="#1090F9"/>
<path opacity="0.3" d="M253.888 132.632C255.053 133.81 255.053 135.72 253.888 136.898L151.383 240.561C150.33 241.625 148.662 241.742 147.474 240.834L94.0323 199.984C92.5877 198.879 92.4412 196.739 93.7217 195.444L150.326 138.201C152.267 136.238 152.267 133.054 150.326 131.091L100.119 80.3177C99.0669 79.2536 98.9511 77.568 99.8477 76.3669L140.112 22.428C141.203 20.9658 143.321 20.8169 144.602 22.1124L253.888 132.632Z" stroke="#05BDFB" stroke-width="2"/>
<path opacity="0.3" d="M196.259 26.6184C197.364 26.6184 198.259 27.5138 198.259 28.6184L198.259 31.3716C198.259 32.262 197.472 32.947 196.59 32.8241C195.865 32.7231 195.326 32.1033 195.326 31.3716L195.326 31.1826C195.326 30.2819 194.596 29.5516 193.695 29.5516L193.506 29.5516C192.615 29.5516 191.93 28.7645 192.053 27.8826C192.154 27.1578 192.774 26.6184 193.506 26.6184L196.259 26.6184Z" fill="#1090F9"/>
<path opacity="0.3" d="M246.27 71.3223C246.823 72.2789 246.495 73.502 245.538 74.0543L241.454 76.4121C240.403 77.0193 239.057 76.5568 238.601 75.4315L238.561 75.3318C238.186 74.407 238.55 73.3473 239.414 72.8484L239.929 72.5512C240.885 71.999 241.213 70.7758 240.661 69.8192L240.356 69.2917C239.749 68.2401 240.212 66.8944 241.337 66.4382L241.437 66.3978C242.361 66.0229 243.421 66.3871 243.92 67.2513L246.27 71.3223Z" fill="#1090F9"/>
<path opacity="0.3" d="M148.408 211.678C148.96 212.634 148.633 213.857 147.676 214.41L143.592 216.767C142.54 217.375 141.195 216.912 140.739 215.787L140.698 215.687C140.323 214.762 140.688 213.703 141.552 213.204L142.066 212.906C143.023 212.354 143.351 211.131 142.798 210.174L142.494 209.647C141.887 208.595 142.349 207.25 143.475 206.793L143.574 206.753C144.499 206.378 145.559 206.742 146.058 207.607L148.408 211.678Z" fill="#1090F9"/>
<path opacity="0.3" d="M244.741 168.593C243.96 167.812 243.96 166.545 244.741 165.764L252.143 158.363C253.024 157.482 254.487 157.612 255.199 158.635L255.929 159.685C256.482 160.48 256.386 161.557 255.702 162.241L253.246 164.697C252.465 165.478 252.465 166.744 253.246 167.525L254.7 168.979C255.542 169.82 255.467 171.205 254.54 171.951L252.37 173.697C251.574 174.337 250.424 174.275 249.702 173.553L244.741 168.593Z" fill="#1090F9"/>
<circle cx="130.6" cy="137.327" r="62.0635" transform="rotate(-5.0925 130.6 137.327)" fill="#F7E06E"/>
<circle cx="123.899" cy="141.819" r="61.2913" transform="rotate(-5.0925 123.899 141.819)" fill="#F9EC76" stroke="#054375" stroke-width="2"/>
<path fill-rule="evenodd" clip-rule="evenodd" d="M122.238 169.854L122.822 176.4C122.914 177.433 123.826 178.195 124.858 178.103L126.729 177.937C127.761 177.844 128.524 176.933 128.432 175.9L127.846 169.325C130.775 168.977 134.464 168.297 137.653 166.61C139.886 165.429 141.984 163.704 143.41 161.176C144.842 158.638 145.466 155.523 145.134 151.791C144.801 148.059 143.636 145.104 141.778 142.859C139.927 140.623 137.557 139.296 135.15 138.528C131.713 137.432 127.963 137.415 125.018 137.59L123.182 116.99L137.208 115.74C138.241 115.648 139.004 114.736 138.912 113.703L138.745 111.833C138.653 110.8 137.741 110.037 136.708 110.129L122.682 111.379L122.099 104.833C122.007 103.801 121.095 103.038 120.062 103.13L118.192 103.297C117.159 103.389 116.396 104.301 116.488 105.333L117.076 111.929C114.016 112.318 110.494 113.012 107.461 114.523C105.167 115.666 103.013 117.338 101.543 119.81C100.063 122.298 99.4222 125.352 99.7465 128.991C100.071 132.632 101.244 135.546 103.082 137.791C104.908 140.021 107.248 141.418 109.638 142.277C113.111 143.526 116.889 143.707 119.899 143.602L121.738 164.244L107.712 165.494C106.679 165.586 105.916 166.498 106.008 167.53L106.175 169.401C106.267 170.433 107.179 171.196 108.212 171.104L122.238 169.854ZM127.346 163.709C129.931 163.392 132.72 162.847 135.019 161.631C136.536 160.829 137.726 159.787 138.504 158.408C139.277 157.038 139.774 155.105 139.523 152.291C139.272 149.478 138.442 147.663 137.439 146.451C136.429 145.231 135.074 144.416 133.439 143.895C130.961 143.104 128.12 143.061 125.519 143.207L127.346 163.709ZM119.398 137.98L117.577 117.548C114.901 117.896 112.2 118.455 109.973 119.564C108.374 120.361 107.164 121.377 106.384 122.689C105.614 123.984 105.118 125.809 105.357 128.491C105.596 131.169 106.414 132.969 107.44 134.223C108.478 135.491 109.876 136.377 111.543 136.976C114.012 137.864 116.854 138.048 119.398 137.98Z" fill="#054375"/>
<path d="M197.64 49.8799C179.54 49.8799 164.87 65.1199 164.87 83.9199C164.87 91.6999 167.39 98.8599 171.61 104.59L167.6 121.06L181.35 113.45C186.15 116.31 191.71 117.96 197.64 117.96C215.74 117.96 230.41 102.72 230.41 83.9199C230.41 65.1199 215.74 49.8799 197.64 49.8799Z" fill="white"/>
<path d="M167.6 121.93C167.41 121.93 167.23 121.87 167.07 121.75C166.8 121.54 166.67 121.19 166.75 120.85L170.67 104.77C166.31 98.7 164 91.5 164 83.91C164 64.66 179.09 49 197.64 49C216.19 49 231.28 64.66 231.28 83.91C231.28 103.16 216.19 118.82 197.64 118.82C191.94 118.82 186.31 117.31 181.33 114.44L168.01 121.81C167.89 121.9 167.74 121.93 167.6 121.93ZM197.64 50.75C180.05 50.75 165.74 65.63 165.74 83.92C165.74 91.27 168.01 98.24 172.31 104.07C172.46 104.28 172.52 104.54 172.45 104.79L168.91 119.33L180.92 112.68C181.19 112.53 181.52 112.53 181.79 112.69C186.6 115.56 192.08 117.08 197.64 117.08C215.23 117.08 229.54 102.2 229.54 83.91C229.54 65.62 215.23 50.75 197.64 50.75Z" fill="#054375"/>
<path opacity="0.1" d="M196.671 117.92C196.281 117.8 195.901 117.85 195.521 117.94C195.381 117.95 195.231 117.95 195.091 117.95C193.451 117.66 192.351 117.65 189.021 116.44C188.941 116.41 188.871 116.38 188.791 116.35C188.651 116.28 188.051 115.99 187.801 115.88C186.691 115.37 185.521 115.02 184.351 114.64C183.391 114.35 182.501 113.79 181.471 113.74C181.021 113.77 180.541 113.86 180.171 114.12C179.861 114.3 179.541 114.46 179.221 114.62C176.781 115.77 174.371 117 172.021 118.32C171.041 118.89 170.031 119.39 168.991 119.83C168.511 120.06 167.941 120.19 167.651 120.67C166.531 121.99 167.941 124.09 169.601 123.58C173.631 121.94 177.441 119.82 181.381 117.98C183.821 119.13 186.501 119.6 188.991 120.64C191.081 121.26 193.261 122.14 195.471 121.78C195.301 121.8 195.121 121.83 194.951 121.85C195.681 121.84 196.491 121.96 197.151 121.57C198.661 120.72 198.361 118.36 196.671 117.92Z" fill="#054375"/>
<path d="M194.531 71.5209C197.529 70.8437 200.665 71.1536 203.472 72.4042C204.27 72.7601 205.206 72.4011 205.562 71.6024C205.918 70.8036 205.559 69.8676 204.76 69.5117C201.33 67.9831 197.497 67.6044 193.834 68.4321C190.17 69.2598 186.872 71.2496 184.432 74.1046C181.992 76.9596 180.54 80.527 180.293 84.2746C180.046 88.0223 181.017 91.7494 183.061 94.9001C185.105 98.0508 188.113 100.456 191.636 101.758C195.159 103.06 199.008 103.187 202.61 102.122C206.212 101.058 209.373 98.857 211.621 95.8489C213.87 92.8408 215.086 89.1863 215.089 85.4305V83.973C215.089 83.0985 214.38 82.3896 213.505 82.3896C212.631 82.3896 211.922 83.0985 211.922 83.973V85.4287C211.92 88.5016 210.925 91.4916 209.085 93.9528C207.245 96.414 204.659 98.2145 201.712 99.0858C198.765 99.9571 195.616 99.8524 192.733 98.7875C189.851 97.7226 187.39 95.7544 185.717 93.1766C184.045 90.5987 183.251 87.5492 183.453 84.483C183.655 81.4167 184.843 78.498 186.839 76.1621C188.836 73.8261 191.534 72.1982 194.531 71.5209Z" fill="#26A94D"/>
<path d="M214.625 73.882C215.243 73.2634 215.243 72.2609 214.624 71.6428C214.006 71.0248 213.003 71.0253 212.385 71.644L197.671 86.3724L194.041 82.7426C193.423 82.1242 192.421 82.1242 191.802 82.7426C191.184 83.3609 191.184 84.3634 191.802 84.9817L196.552 89.7317C196.849 90.0288 197.252 90.1956 197.672 90.1955C198.092 90.1954 198.495 90.0284 198.792 89.7312L214.625 73.882Z" fill="#26A94D"/>
</svg>
