<svg width="208" height="160" viewBox="0 0 208 160" fill="none" xmlns="http://www.w3.org/2000/svg">
<path opacity="0.3" d="M176.685 80.5173C178.238 78.9465 178.238 76.3997 176.685 74.8288L105.923 3.26894C104.215 1.54166 101.392 1.74011 99.9364 3.68971L74.7386 37.4455C73.5431 39.0469 73.6976 41.2944 75.1006 42.7132L106.779 74.7494C108.333 76.3202 108.333 78.867 106.779 80.4379L71.1018 116.518C69.3945 118.244 69.5898 121.099 71.5159 122.571L104.966 148.14C106.55 149.351 108.773 149.195 110.177 147.775L176.685 80.5173Z" fill="#1090F9"/>
<path opacity="0.3" d="M175.923 81.1825C177.088 82.3606 177.088 84.2707 175.923 85.4488L109.415 152.707C108.363 153.772 106.695 153.888 105.507 152.98L72.057 127.411C70.6123 126.307 70.4659 124.166 71.7464 122.872L107.424 86.7915C109.365 84.828 109.365 81.6444 107.424 79.6809L75.7451 47.6447C74.6928 46.5806 74.577 44.895 75.4736 43.6939L100.671 9.93816C101.763 8.47596 103.881 8.32712 105.162 9.62258L175.923 81.1825Z" stroke="#05BDFB" stroke-width="2"/>
<path opacity="0.3" d="M138.058 11.2939C139.16 11.2939 140.053 12.1872 140.053 13.2891L140.053 14.4594C140.053 15.0524 139.529 15.5086 138.942 15.4267C138.459 15.3595 138.1 14.9467 138.1 14.4594L138.1 14.3336C138.1 13.7337 137.614 13.2474 137.014 13.2474L136.888 13.2474C136.295 13.2474 135.839 12.7232 135.921 12.1358C135.988 11.6532 136.401 11.2939 136.888 11.2939L138.058 11.2939Z" fill="#1090F9"/>
<path opacity="0.3" d="M171.693 40.486C172.245 41.4426 171.917 42.6658 170.961 43.2181L168.855 44.4339C168.136 44.849 167.216 44.5328 166.904 43.7634C166.648 43.1311 166.897 42.4066 167.488 42.0655L167.64 41.9774C168.367 41.5575 168.617 40.6274 168.197 39.9001L168.109 39.7476C167.693 39.0286 168.01 38.1086 168.779 37.7967C169.411 37.5403 170.136 37.7893 170.477 38.3802L171.693 40.486Z" fill="#1090F9"/>
<path opacity="0.3" d="M106.521 133.958C107.073 134.914 106.745 136.137 105.789 136.69L103.683 137.906C102.964 138.321 102.044 138.004 101.732 137.235C101.476 136.603 101.725 135.878 102.316 135.537L102.468 135.449C103.196 135.029 103.445 134.099 103.025 133.372L102.937 133.219C102.522 132.5 102.838 131.58 103.607 131.268C104.239 131.012 104.964 131.261 105.305 131.852L106.521 133.958Z" fill="#1090F9"/>
<path opacity="0.3" d="M171.478 106.315C170.697 105.534 170.697 104.268 171.478 103.487L175.581 99.3847C176.352 98.6133 177.633 98.7273 178.256 99.6227C178.741 100.319 178.657 101.262 178.057 101.861L177.128 102.79C176.355 103.563 176.355 104.817 177.128 105.59C177.961 106.423 177.887 107.794 176.969 108.532L176.554 108.866C175.758 109.507 174.608 109.445 173.886 108.722L171.478 106.315Z" fill="#1090F9"/>
<path d="M64.6445 117.524V43.1273C64.6445 37.3329 69.3388 32.6387 75.1332 32.6387H108.983C114.777 32.6387 119.472 37.3329 119.472 43.1273V117.524C119.472 123.318 114.777 128.012 108.983 128.012H75.1332C69.3388 128.012 64.6445 123.318 64.6445 117.524Z" fill="#7CDDFD"/>
<path d="M109.058 128.65H75.0613C68.9661 128.65 64.0078 123.692 64.0078 117.596V43.0534C64.0078 36.9583 68.9661 32 75.0613 32H109.058C115.153 32 120.111 36.9583 120.111 43.0534V117.596C120.111 123.692 115.153 128.65 109.058 128.65ZM75.0613 33.2689C69.6702 33.2689 65.284 37.6551 65.284 43.0461V117.589C65.284 122.98 69.6702 127.366 75.0613 127.366H109.058C114.449 127.366 118.835 122.98 118.835 117.589V43.0534C118.835 37.6624 114.449 33.2762 109.058 33.2762H75.0613V33.2689Z" fill="#054375"/>
<path d="M119.479 42.7744H64.6445V114.699H119.479V42.7744Z" fill="white"/>
<path d="M119.473 115.337H64.6381C64.2861 115.337 64 115.051 64 114.699V42.7748C64 42.4228 64.2861 42.1367 64.6381 42.1367H119.473C119.825 42.1367 120.111 42.4228 120.111 42.7748V114.699C120.111 115.051 119.832 115.337 119.473 115.337ZM65.2836 114.061H118.842V43.413H65.2836V114.061Z" fill="#054375"/>
<path d="M97.5571 120.509H87.6772C87.3251 120.509 87.0391 120.223 87.0391 119.871C87.0391 119.518 87.3251 119.232 87.6772 119.232H97.5571C97.9091 119.232 98.1952 119.518 98.1952 119.871C98.1952 120.223 97.9091 120.509 97.5571 120.509Z" fill="#054375"/>
<g opacity="0.1294">
<path d="M115.804 42.9069C113.933 42.8556 112.063 42.7676 110.193 42.7896C105.161 42.7382 100.122 42.7456 95.0832 42.8116C91.1225 42.8409 87.1617 43.0023 83.2009 42.7382C78.3453 42.5915 73.4897 42.2981 68.6268 42.4962C67.9447 42.5108 67.2626 42.5035 66.5804 42.4742C66.1697 42.4448 65.7296 42.3862 65.3555 42.5989C63.4999 43.3103 64.0793 46.1856 66.0743 46.1635C68.4435 46.3322 70.8273 46.1489 73.1964 46.2002C76.0276 46.1856 78.8515 46.4203 81.6827 46.4789C92.2447 46.545 102.814 46.589 113.376 46.3983C114.777 46.4203 116.185 46.3909 117.586 46.3616C118.745 46.4936 119.926 45.9435 119.941 44.6379C119.794 42.3862 117.373 42.9876 115.804 42.9069Z" fill="#054375"/>
</g>
<path d="M119.325 54.2168C106.049 54.2168 95.2891 65.3949 95.2891 79.1842C95.2891 84.8907 97.1374 90.1423 100.233 94.3452L97.2914 106.425L107.377 100.844C110.897 102.941 114.975 104.152 119.325 104.152C132.601 104.152 143.361 92.9735 143.361 79.1842C143.361 65.3949 132.601 54.2168 119.325 54.2168Z" fill="white"/>
<path d="M97.2928 107.064C97.1535 107.064 97.0215 107.02 96.9041 106.932C96.7061 106.777 96.6107 106.521 96.6694 106.271L99.5446 94.4771C96.3467 90.0249 94.6523 84.7439 94.6523 79.1769C94.6523 65.0575 105.72 53.5713 119.326 53.5713C132.932 53.5713 144 65.0575 144 79.1769C144 93.2962 132.932 104.782 119.326 104.782C115.146 104.782 111.016 103.675 107.363 101.57L97.5936 106.976C97.5056 107.042 97.3955 107.064 97.2928 107.064ZM119.326 54.8549C106.425 54.8549 95.9286 65.7689 95.9286 79.1842C95.9286 84.5752 97.5936 89.6875 100.748 93.9637C100.858 94.1177 100.902 94.3084 100.85 94.4918L98.2537 105.156L107.063 100.279C107.261 100.169 107.503 100.169 107.701 100.286C111.229 102.391 115.248 103.506 119.326 103.506C132.228 103.506 142.724 92.5921 142.724 79.1769C142.724 65.7616 132.228 54.8549 119.326 54.8549Z" fill="#054375"/>
<path d="M78.7891 52.45C78.7891 51.2031 79.8013 50.1982 81.0408 50.1982C82.2804 50.1982 83.2926 51.2104 83.2926 52.45C83.2926 53.6969 82.2804 54.7018 81.0408 54.7018C79.8013 54.7018 78.7891 53.6969 78.7891 52.45Z" fill="white"/>
<path d="M81.0422 55.3393C79.4506 55.3393 78.1523 54.0411 78.1523 52.4494C78.1523 50.8578 79.4506 49.5596 81.0422 49.5596C82.6339 49.5596 83.9321 50.8578 83.9321 52.4494C83.9321 54.0484 82.6339 55.3393 81.0422 55.3393ZM81.0422 50.8358C80.1547 50.8358 79.4286 51.5619 79.4286 52.4494C79.4286 53.337 80.1547 54.0631 81.0422 54.0631C81.9297 54.0631 82.6558 53.337 82.6558 52.4494C82.6558 51.5619 81.9297 50.8358 81.0422 50.8358Z" fill="#054375"/>
<path d="M89.6953 52.45C89.6953 51.2031 90.7075 50.1982 91.9471 50.1982C93.194 50.1982 94.1988 51.2104 94.1988 52.45C94.1988 53.6969 93.1867 54.7018 91.9471 54.7018C90.7075 54.7018 89.6953 53.6969 89.6953 52.45Z" fill="white"/>
<path d="M91.9485 55.3393C90.3568 55.3393 89.0586 54.0411 89.0586 52.4494C89.0586 50.8578 90.3568 49.5596 91.9485 49.5596C93.5401 49.5596 94.8384 50.8578 94.8384 52.4494C94.8457 54.0484 93.5475 55.3393 91.9485 55.3393ZM91.9485 50.8358C91.061 50.8358 90.3348 51.5619 90.3348 52.4494C90.3348 53.337 91.061 54.0631 91.9485 54.0631C92.836 54.0631 93.5621 53.337 93.5621 52.4494C93.5694 51.5619 92.8433 50.8358 91.9485 50.8358Z" fill="#054375"/>
<path d="M100.609 52.45C100.609 51.2031 101.622 50.1982 102.861 50.1982C104.108 50.1982 105.113 51.2104 105.113 52.45C105.113 53.6969 104.101 54.7018 102.861 54.7018C101.614 54.7018 100.609 53.6969 100.609 52.45Z" fill="white"/>
<path d="M102.863 55.3393C101.271 55.3393 99.9727 54.0411 99.9727 52.4494C99.9727 50.8578 101.271 49.5596 102.863 49.5596C104.454 49.5596 105.752 50.8578 105.752 52.4494C105.752 54.0484 104.454 55.3393 102.863 55.3393ZM102.863 50.8358C101.975 50.8358 101.249 51.5619 101.249 52.4494C101.249 53.337 101.975 54.0631 102.863 54.0631C103.75 54.0631 104.476 53.337 104.476 52.4494C104.476 51.5619 103.75 50.8358 102.863 50.8358Z" fill="#054375"/>
<g opacity="0.1294">
<path d="M84.0072 54.3931C83.6845 53.4836 82.3716 53.3516 81.7921 54.0924C81.7848 54.0997 81.7848 54.0997 81.7775 54.0997C81.6968 54.1584 81.6161 54.2098 81.5281 54.2611C81.4254 54.2978 81.3154 54.3271 81.2053 54.3491C81.1833 54.3491 81.1687 54.3491 81.1467 54.3564C81.1026 54.3564 81.0586 54.3491 81.0146 54.3491C80.9706 54.3418 80.9193 54.3271 80.8606 54.3124C80.7433 54.2831 80.6552 54.2464 80.5966 54.2318C80.5305 54.1951 80.4646 54.1584 80.3985 54.1217C80.3179 54.0411 80.2298 53.9677 80.1198 53.9017C79.1296 53.2269 77.7873 54.2098 78.1174 55.3613C78.4255 56.2782 79.5184 56.6816 80.3912 56.8869C81.7335 57.2683 84.6967 56.1095 84.0072 54.3931Z" fill="#054375"/>
</g>
<g opacity="0.1294">
<path d="M95.2077 54.276C94.929 53.4838 93.7921 53.2784 93.2273 53.8799C93.1613 53.9459 93.0953 54.0046 93.0219 54.0706C92.9999 54.0852 92.9853 54.0999 92.9559 54.1146C92.4939 54.32 92.5745 54.2833 91.9731 54.342C91.8924 54.342 91.819 54.3346 91.7384 54.3273C91.6503 54.3053 91.555 54.276 91.489 54.2539C91.357 54.1879 91.2249 54.1219 91.1002 54.0412C91.0782 54.0266 91.0636 54.0192 91.0489 54.0046C90.9022 53.8725 90.7702 53.7332 90.5795 53.6818C89.4279 53.1391 88.3717 54.7307 89.2812 55.6035C90.3521 56.6817 91.9511 56.9898 93.3813 56.5717C94.3128 56.271 95.7138 55.4348 95.2077 54.276Z" fill="#054375"/>
</g>
<g opacity="0.1294">
<path d="M106.047 54.5102C105.82 53.6594 104.734 53.4173 104.104 53.9674C104.023 54.0188 103.935 54.0628 103.847 54.0994C103.803 54.1214 103.759 54.1361 103.715 54.1581C103.671 54.1728 103.554 54.2168 103.421 54.2535C103.37 54.2681 103.319 54.2755 103.275 54.2902C103.172 54.2902 103.069 54.2901 102.967 54.2828C102.365 54.1581 102.373 54.1068 102.204 54.0334C101.676 53.7547 101.111 53.2853 100.473 53.4613C99.5194 53.6887 99.3361 55.0896 100.202 55.5591C100.7 55.7938 101.133 56.1458 101.661 56.3292C102.255 56.5492 102.908 56.6079 103.539 56.5786C104.646 56.5419 106.385 55.8965 106.047 54.5102Z" fill="#054375"/>
</g>
<path d="M74.7371 97.0152C74.6784 97.0152 74.6271 96.9932 74.5831 96.9492C74.5024 96.8612 74.5024 96.7291 74.5904 96.6485L92.3625 79.6465C92.4505 79.5659 92.5825 79.5659 92.6632 79.6539C92.7439 79.7419 92.7439 79.8739 92.6559 79.9546L74.8838 96.9565C74.8398 96.9932 74.7884 97.0152 74.7371 97.0152Z" fill="#054375"/>
<path d="M74.5105 103.785C74.4592 103.785 74.4005 103.763 74.3638 103.727C74.2758 103.646 74.2758 103.514 74.3565 103.426C80.3196 97.2207 86.4662 91.0155 92.62 84.9716C92.708 84.891 92.84 84.891 92.9207 84.9716C93.0014 85.0523 93.0014 85.1917 92.9207 85.2724C86.7742 91.3089 80.6277 97.514 74.6646 103.719C74.6279 103.763 74.5692 103.785 74.5105 103.785Z" fill="#054375"/>
<path d="M80.4221 103.668C80.3707 103.668 80.312 103.646 80.2754 103.609C80.1947 103.528 80.1947 103.389 80.2754 103.308L93.6906 89.7098C93.7713 89.6291 93.9106 89.6218 93.9913 89.7098C94.072 89.7905 94.0793 89.9298 93.9913 90.0105L80.5761 103.609C80.5321 103.646 80.4734 103.668 80.4221 103.668Z" fill="#054375"/>
<path d="M86.5262 103.962C86.4748 103.962 86.4235 103.94 86.3795 103.903C86.2914 103.822 86.2914 103.69 86.3721 103.602C89.2767 100.58 92.1372 97.4336 94.8584 94.243C94.9318 94.155 95.0712 94.1403 95.1592 94.221C95.2472 94.2943 95.2618 94.4337 95.1812 94.5217C92.4526 97.7196 89.5921 100.874 86.6802 103.903C86.6435 103.94 86.5848 103.962 86.5262 103.962Z" fill="#054375"/>
<path d="M92.688 103.763C92.6366 103.763 92.5853 103.748 92.5486 103.712C92.4606 103.631 92.4532 103.499 92.5266 103.411L96.0766 99.3181C96.1573 99.2301 96.2893 99.2228 96.3773 99.2961C96.4653 99.3768 96.4727 99.5088 96.3993 99.5968L92.8493 103.69C92.8053 103.741 92.7466 103.763 92.688 103.763Z" fill="#054375"/>
<g opacity="0.1294">
<path d="M118.615 104.123C118.329 104.035 118.05 104.071 117.771 104.137C117.669 104.145 117.559 104.145 117.456 104.145C116.253 103.932 115.446 103.925 113.004 103.037C112.945 103.015 112.894 102.993 112.835 102.971C112.732 102.92 112.292 102.707 112.109 102.626C111.295 102.252 110.437 101.995 109.578 101.717C108.874 101.504 108.222 101.093 107.466 101.057C107.136 101.079 106.784 101.145 106.513 101.335C106.285 101.467 106.05 101.585 105.816 101.702C104.026 102.546 102.258 103.448 100.535 104.416C99.8159 104.834 99.0752 105.201 98.3123 105.523C97.9603 105.692 97.5422 105.788 97.3295 106.14C96.508 107.108 97.5422 108.648 98.7597 108.274C101.716 107.071 104.51 105.516 107.4 104.167C109.19 105.01 111.155 105.355 112.982 106.118C114.515 106.572 116.114 107.218 117.735 106.954C117.61 106.968 117.478 106.99 117.353 107.005C117.889 106.998 118.483 107.086 118.967 106.8C120.074 106.176 119.854 104.445 118.615 104.123Z" fill="#054375"/>
</g>
<g clip-path="url(#clip0_3407_6305)">
<path d="M105.754 66.6956C106.208 66.2421 106.943 66.2421 107.397 66.6956L113.327 72.6256C113.338 72.6363 113.349 72.6473 113.359 72.6585L117.943 77.2416C118.015 77.2988 118.081 77.3647 118.139 77.4382L132.946 92.245C133.399 92.6985 133.399 93.4338 132.946 93.8873C132.492 94.3409 131.757 94.3409 131.304 93.8873L123.62 86.2033C123.317 86.2639 122.991 86.2043 122.719 86.0113C121.736 85.3133 120.561 84.9383 119.356 84.9383C118.151 84.9383 116.975 85.3133 115.993 86.0113C115.47 86.3828 114.745 86.2601 114.374 85.7372C114.002 85.2143 114.125 84.4893 114.648 84.1179C116.023 83.1406 117.669 82.6156 119.356 82.6156C119.593 82.6156 119.828 82.626 120.063 82.6464L116.832 79.4159C115.045 79.8188 113.376 80.6421 111.966 81.8211C111.474 82.2325 110.741 82.1672 110.33 81.6751C109.918 81.183 109.984 80.4506 110.476 80.0392C111.803 78.9293 113.322 78.0817 114.95 77.5341L112.252 74.8353C110.644 75.5518 109.153 76.5099 107.832 77.6776C107.352 78.1024 106.618 78.0572 106.193 77.5766C105.768 77.096 105.813 76.3621 106.294 75.9373C107.571 74.8085 108.988 73.8523 110.508 73.0914L105.754 68.338C105.301 67.8845 105.301 67.1491 105.754 66.6956Z" fill="#D0333D"/>
<path d="M123.788 78.6905C124.069 78.1141 124.764 77.8748 125.341 78.1561C126.379 78.6628 127.35 79.2973 128.231 80.0447C128.72 80.4597 128.78 81.1925 128.365 81.6816C127.95 82.1706 127.217 82.2307 126.728 81.8157C125.995 81.1935 125.186 80.6653 124.322 80.2435C123.746 79.9622 123.507 79.2669 123.788 78.6905Z" fill="#D0333D"/>
<path d="M124.845 74.2126C122.624 73.4738 120.278 73.1898 117.945 73.3778C117.306 73.4293 116.746 72.9528 116.694 72.3135C116.643 71.6741 117.119 71.1141 117.759 71.0626C120.402 70.8496 123.062 71.1714 125.578 72.0088C128.094 72.8462 130.416 74.182 132.405 75.9366C132.886 76.3609 132.932 77.0948 132.508 77.5757C132.083 78.0567 131.35 78.1026 130.869 77.6783C129.114 76.1302 127.065 74.9515 124.845 74.2126Z" fill="#D0333D"/>
<path d="M119.35 88.4208C118.709 88.4208 118.189 88.9408 118.189 89.5821C118.189 90.2235 118.709 90.7435 119.35 90.7435H119.362C120.003 90.7435 120.523 90.2235 120.523 89.5821C120.523 88.9408 120.003 88.4208 119.362 88.4208H119.35Z" fill="#D0333D"/>
</g>
<defs>
<clipPath id="clip0_3407_6305">
<rect width="27.872" height="27.872" fill="white" transform="translate(105.414 66.3555)"/>
</clipPath>
</defs>
</svg>
