<svg width="209" height="161" viewBox="0 0 209 161" fill="none" xmlns="http://www.w3.org/2000/svg">
<path opacity="0.3" d="M176.795 80.4366C178.349 78.8658 178.349 76.319 176.795 74.7481L106.875 4.03847C105.167 2.31118 102.343 2.50963 100.888 4.45923L76.0184 37.7745C74.823 39.376 74.9775 41.6235 76.3804 43.0423L107.655 74.6696C109.208 76.2404 109.208 78.7872 107.655 80.3581L72.4341 115.976C70.7267 117.703 70.922 120.557 72.8482 122.029L105.862 147.265C107.446 148.475 109.669 148.32 111.073 146.9L176.795 80.4366Z" fill="#1090F9"/>
<path opacity="0.3" d="M176.035 81.0398C177.199 82.2179 177.199 84.128 176.035 85.3061L110.312 151.77C109.26 152.835 107.592 152.951 106.404 152.043L73.3902 126.808C71.9455 125.703 71.7991 123.563 73.0796 122.268L108.3 86.6497C110.242 84.6861 110.242 81.5026 108.3 79.5391L77.026 47.9118C75.9737 46.8477 75.8579 45.1621 76.7544 43.961L101.624 10.6457C102.715 9.18347 104.833 9.03463 106.114 10.3301L176.035 81.0398Z" stroke="#05BDFB" stroke-width="2"/>
<path opacity="0.3" d="M138.619 11.9395C139.709 11.9395 140.593 12.8229 140.593 13.9128L140.593 15.0702C140.593 15.6568 140.074 16.108 139.493 16.027C139.016 15.9605 138.661 15.5522 138.661 15.0702L138.661 14.9458C138.661 14.3525 138.18 13.8715 137.586 13.8715L137.462 13.8715C136.875 13.8715 136.424 13.3531 136.505 12.7721C136.572 12.2948 136.98 11.9395 137.462 11.9395L138.619 11.9395Z" fill="#1090F9"/>
<path opacity="0.3" d="M171.875 40.7936C172.428 41.7502 172.1 42.9734 171.143 43.5257L169.079 44.7172C168.368 45.1278 167.458 44.8151 167.15 44.0541C166.896 43.4287 167.143 42.7121 167.727 42.3747L167.878 42.2876C168.597 41.8723 168.844 40.9525 168.428 40.2331L168.341 40.0822C167.931 39.3711 168.243 38.4611 169.004 38.1527C169.63 37.8991 170.346 38.1454 170.684 38.7298L171.875 40.7936Z" fill="#1090F9"/>
<path opacity="0.3" d="M107.416 133.242C107.969 134.198 107.641 135.422 106.684 135.974L104.62 137.165C103.909 137.576 102.999 137.263 102.691 136.502C102.437 135.877 102.684 135.16 103.268 134.823L103.419 134.736C104.138 134.321 104.385 133.401 103.969 132.681L103.882 132.53C103.472 131.819 103.784 130.909 104.545 130.601C105.171 130.347 105.887 130.594 106.225 131.178L107.416 133.242Z" fill="#1090F9"/>
<path opacity="0.3" d="M171.692 105.937C170.911 105.156 170.911 103.889 171.692 103.108L175.734 99.0666C176.497 98.3037 177.764 98.4164 178.38 99.302C178.859 99.9904 178.776 100.923 178.183 101.516L177.264 102.435C176.5 103.2 176.5 104.439 177.264 105.204C178.088 106.027 178.015 107.384 177.107 108.114L176.712 108.432C175.916 109.072 174.766 109.01 174.044 108.288L171.692 105.937Z" fill="#1090F9"/>
<path d="M67.9053 38.3882C67.9053 35.9029 69.92 33.8882 72.4053 33.8882H132.097C134.582 33.8882 136.597 35.9029 136.597 38.3882V126.063C136.597 129.343 133.2 131.521 130.219 130.152L121.969 126.364C120.512 125.695 118.836 125.695 117.379 126.364L104.129 132.448C102.937 132.996 101.565 132.996 100.373 132.448L87.1233 126.364C85.6664 125.695 83.9901 125.695 82.5332 126.364L74.283 130.152C71.302 131.521 67.9053 129.343 67.9053 126.063V38.3882Z" fill="white" stroke="#054375"/>
<path opacity="0.14" d="M61.4053 29.3882C61.4053 28.8359 61.853 28.3882 62.4053 28.3882H130.097C130.649 28.3882 131.097 28.8359 131.097 29.3882V127.301C131.097 128.03 130.342 128.514 129.68 128.21L114.091 121.052C113.827 120.931 113.522 120.931 113.257 121.052L96.6685 128.669C96.4036 128.791 96.0988 128.791 95.8339 128.669L79.2455 121.052C78.9806 120.931 78.6759 120.931 78.411 121.052L62.8225 128.21C62.1601 128.514 61.4053 128.03 61.4053 127.301V29.3882Z" fill="#054375"/>
<path d="M59.9053 28.3882C59.9053 25.9029 61.92 23.8882 64.4053 23.8882H124.097C126.582 23.8882 128.597 25.9029 128.597 28.3882V116.063C128.597 119.343 125.2 121.521 122.219 120.152L113.969 116.364C112.512 115.695 110.836 115.695 109.379 116.364L96.129 122.448C94.937 122.996 93.5655 122.996 92.3735 122.448L79.1233 116.364C77.6664 115.695 75.9901 115.695 74.5332 116.364L66.283 120.152C63.302 121.521 59.9053 119.343 59.9053 116.063V28.3882Z" fill="white" stroke="#054375"/>
<path d="M70.0293 128.694C69.9886 128.694 69.9421 128.677 69.9073 128.642C69.8434 128.578 69.8434 128.468 69.9073 128.404L73.2409 125.07C73.3048 125.006 73.4151 125.006 73.479 125.07C73.5429 125.134 73.5429 125.244 73.479 125.308L70.1454 128.642C70.1106 128.677 70.0699 128.694 70.0293 128.694Z" fill="#054375"/>
<path d="M102.552 128.694C102.511 128.694 102.465 128.677 102.43 128.642C102.366 128.578 102.366 128.468 102.43 128.404L105.763 125.07C105.827 125.006 105.938 125.006 106.001 125.07C106.065 125.134 106.065 125.244 106.001 125.308L102.668 128.642C102.633 128.677 102.592 128.694 102.552 128.694Z" fill="#054375"/>
<path d="M75.9589 126.694C75.9183 126.694 75.8718 126.677 75.837 126.642C75.7731 126.578 75.7731 126.468 75.837 126.404L79.1706 123.07C79.2345 123.006 79.3448 123.006 79.4087 123.07C79.4726 123.134 79.4726 123.244 79.4087 123.308L76.0751 126.642C76.0403 126.677 75.9996 126.694 75.9589 126.694Z" fill="#054375"/>
<path d="M81.9589 125.441C81.9183 125.441 81.8718 125.424 81.837 125.389C81.7731 125.325 81.7731 125.215 81.837 125.151L85.1706 121.817C85.2345 121.753 85.3448 121.753 85.4087 121.817C85.4726 121.881 85.4726 121.991 85.4087 122.055L82.0751 125.389C82.0403 125.424 81.9996 125.441 81.9589 125.441Z" fill="#054375"/>
<path d="M86.9589 125.441C86.9183 125.441 86.8718 125.424 86.837 125.389C86.7731 125.325 86.7731 125.215 86.837 125.151L90.1706 121.817C90.2345 121.753 90.3448 121.753 90.4087 121.817C90.4726 121.881 90.4726 121.991 90.4087 122.055L87.0751 125.389C87.0403 125.424 86.9996 125.441 86.9589 125.441Z" fill="#054375"/>
<path d="M106.617 128.694C106.576 128.694 106.53 128.677 106.495 128.642C106.431 128.578 106.431 128.468 106.495 128.404L109.829 125.07C109.893 125.006 110.003 125.006 110.067 125.07C110.131 125.134 110.131 125.244 110.067 125.308L106.733 128.642C106.698 128.677 106.658 128.694 106.617 128.694Z" fill="#054375"/>
<path d="M90.3554 126.441C90.3148 126.441 90.2683 126.424 90.2335 126.389C90.1696 126.325 90.1696 126.215 90.2335 126.151L93.5671 122.817C93.6309 122.754 93.7413 122.754 93.8052 122.817C93.8691 122.881 93.8691 122.992 93.8052 123.056L90.4716 126.389C90.4367 126.424 90.3961 126.441 90.3554 126.441Z" fill="#054375"/>
<path d="M110.683 127.694C110.642 127.694 110.595 127.677 110.561 127.642C110.497 127.578 110.497 127.468 110.561 127.404L113.894 124.07C113.958 124.006 114.068 124.006 114.132 124.07C114.196 124.134 114.196 124.245 114.132 124.308L110.799 127.642C110.764 127.677 110.723 127.694 110.683 127.694Z" fill="#054375"/>
<path d="M116.959 125.441C116.918 125.441 116.872 125.424 116.837 125.389C116.773 125.325 116.773 125.215 116.837 125.151L120.171 121.817C120.234 121.754 120.345 121.754 120.409 121.817C120.473 121.881 120.473 121.992 120.409 122.056L117.075 125.389C117.04 125.424 117 125.441 116.959 125.441Z" fill="#054375"/>
<path d="M121.959 125.441C121.918 125.441 121.872 125.424 121.837 125.389C121.773 125.325 121.773 125.215 121.837 125.151L125.171 121.817C125.234 121.754 125.345 121.754 125.409 121.817C125.473 121.881 125.473 121.992 125.409 122.056L122.075 125.389C122.04 125.424 122 125.441 121.959 125.441Z" fill="#054375"/>
<path d="M94.4209 128.694C94.3802 128.694 94.3337 128.677 94.2989 128.642C94.235 128.578 94.235 128.468 94.2989 128.404L97.6325 125.07C97.6964 125.006 97.8067 125.006 97.8706 125.07C97.9345 125.134 97.9345 125.244 97.8706 125.308L94.537 128.642C94.5022 128.677 94.4615 128.694 94.4209 128.694Z" fill="#054375"/>
<path d="M126.945 128.694C126.904 128.694 126.858 128.677 126.823 128.642C126.759 128.578 126.759 128.468 126.823 128.404L134.496 120.73C134.56 120.666 134.67 120.666 134.734 120.73C134.798 120.794 134.798 120.904 134.734 120.968L127.061 128.642C127.026 128.677 126.985 128.694 126.945 128.694Z" fill="#054375"/>
<path d="M98.4863 128.694C98.4456 128.694 98.3992 128.677 98.3643 128.642C98.3004 128.578 98.3004 128.468 98.3643 128.404L101.698 125.07C101.762 125.006 101.872 125.006 101.936 125.07C102 125.134 102 125.244 101.936 125.308L98.6025 128.642C98.5676 128.677 98.5269 128.694 98.4863 128.694Z" fill="#054375"/>
<path d="M131.01 128.694C130.969 128.694 130.923 128.677 130.888 128.642C130.824 128.578 130.824 128.468 130.888 128.404L134.221 125.07C134.285 125.006 134.396 125.006 134.459 125.07C134.523 125.134 134.523 125.244 134.459 125.308L131.126 128.642C131.091 128.677 131.05 128.694 131.01 128.694Z" fill="#054375"/>
<path d="M131.01 120.918C130.969 120.918 130.923 120.901 130.888 120.866C130.824 120.802 130.824 120.692 130.888 120.628L134.221 117.294C134.285 117.23 134.396 117.23 134.459 117.294C134.523 117.358 134.523 117.468 134.459 117.532L131.126 120.866C131.091 120.901 131.05 120.918 131.01 120.918Z" fill="#054375"/>
<path d="M131.01 89.5571C130.969 89.5571 130.923 89.5397 130.888 89.5049C130.824 89.441 130.824 89.3306 130.888 89.2668L134.221 85.9332C134.285 85.8693 134.396 85.8693 134.459 85.9332C134.523 85.9971 134.523 86.1074 134.459 86.1713L131.126 89.5049C131.091 89.5397 131.05 89.5571 131.01 89.5571Z" fill="#054375"/>
<path d="M131.01 63.648C130.969 63.648 130.923 63.6305 130.888 63.5957C130.824 63.5318 130.824 63.4215 130.888 63.3576L134.221 60.024C134.285 59.9601 134.396 59.9601 134.459 60.024C134.523 60.0879 134.523 60.1982 134.459 60.2621L131.126 63.5957C131.091 63.6305 131.05 63.648 131.01 63.648Z" fill="#054375"/>
<path d="M131.01 104.676C130.969 104.676 130.923 104.658 130.888 104.624C130.824 104.56 130.824 104.449 130.888 104.385L134.221 101.052C134.285 100.988 134.396 100.988 134.459 101.052C134.523 101.116 134.523 101.226 134.459 101.29L131.126 104.624C131.091 104.658 131.05 104.676 131.01 104.676Z" fill="#054375"/>
<path d="M131.01 73.3147C130.969 73.3147 130.923 73.2973 130.888 73.2624C130.824 73.1986 130.824 73.0882 130.888 73.0243L134.221 69.6907C134.285 69.6269 134.396 69.6269 134.459 69.6907C134.523 69.7546 134.523 69.865 134.459 69.9289L131.126 73.2624C131.091 73.2973 131.05 73.3147 131.01 73.3147Z" fill="#054375"/>
<path d="M131.01 48.3416C130.969 48.3416 130.923 48.3241 130.888 48.2893C130.824 48.2254 130.824 48.1151 130.888 48.0512L134.221 44.7176C134.285 44.6537 134.396 44.6537 134.459 44.7176C134.523 44.7815 134.523 44.8918 134.459 44.9557L131.126 48.2893C131.091 48.3241 131.05 48.3416 131.01 48.3416Z" fill="#054375"/>
<path d="M131.01 115.504C130.969 115.504 130.923 115.486 130.888 115.451C130.824 115.388 130.824 115.277 130.888 115.213L134.221 111.88C134.285 111.816 134.396 111.816 134.459 111.88C134.523 111.944 134.523 112.054 134.459 112.118L131.126 115.451C131.091 115.486 131.05 115.504 131.01 115.504Z" fill="#054375"/>
<path d="M131.01 84.1426C130.969 84.1426 130.923 84.1252 130.888 84.0903C130.824 84.0264 130.824 83.9161 130.888 83.8522L134.221 80.5186C134.285 80.4547 134.396 80.4547 134.459 80.5186C134.523 80.5825 134.523 80.6928 134.459 80.7567L131.126 84.0903C131.091 84.1252 131.05 84.1426 131.01 84.1426Z" fill="#054375"/>
<path d="M131.01 59.1697C130.969 59.1697 130.923 59.1523 130.888 59.1174C130.824 59.0535 130.824 58.9432 130.888 58.8793L134.221 55.5457C134.285 55.4818 134.396 55.4818 134.459 55.5457C134.523 55.6096 134.523 55.7199 134.459 55.7838L131.126 59.1174C131.091 59.1523 131.05 59.1697 131.01 59.1697Z" fill="#054375"/>
<path d="M131.01 99.2622C130.969 99.2622 130.923 99.2448 130.888 99.21C130.824 99.1461 130.824 99.0357 130.888 98.9718L134.221 95.6382C134.285 95.5744 134.396 95.5744 134.459 95.6382C134.523 95.7021 134.523 95.8125 134.459 95.8764L131.126 99.21C131.091 99.2448 131.05 99.2622 131.01 99.2622Z" fill="#054375"/>
<path d="M131.01 67.9014C130.969 67.9014 130.923 67.884 130.888 67.8491C130.824 67.7852 130.824 67.6749 130.888 67.611L134.221 64.2774C134.285 64.2135 134.396 64.2135 134.459 64.2774C134.523 64.3413 134.523 64.4516 134.459 64.5155L131.126 67.8491C131.091 67.884 131.05 67.9014 131.01 67.9014Z" fill="#054375"/>
<path d="M131.01 42.9282C130.969 42.9282 130.923 42.9108 130.888 42.876C130.824 42.8121 130.824 42.7017 130.888 42.6379L134.221 39.3043C134.285 39.2404 134.396 39.2404 134.459 39.3043C134.523 39.3681 134.523 39.4785 134.459 39.5424L131.126 42.876C131.091 42.9108 131.05 42.9282 131.01 42.9282Z" fill="#054375"/>
<path d="M131.01 110.09C130.969 110.09 130.923 110.073 130.888 110.038C130.824 109.974 130.824 109.864 130.888 109.8L134.221 106.466C134.285 106.402 134.396 106.402 134.459 106.466C134.523 106.53 134.523 106.641 134.459 106.704L131.126 110.038C131.091 110.073 131.05 110.09 131.01 110.09Z" fill="#054375"/>
<path d="M131.01 78.7293C130.969 78.7293 130.923 78.7118 130.888 78.677C130.824 78.6131 130.824 78.5028 130.888 78.4389L134.221 75.1053C134.285 75.0414 134.396 75.0414 134.459 75.1053C134.523 75.1692 134.523 75.2795 134.459 75.3434L131.126 78.677C131.091 78.7118 131.05 78.7293 131.01 78.7293Z" fill="#054375"/>
<path d="M131.01 53.7564C130.969 53.7564 130.923 53.7389 130.888 53.7041C130.824 53.6402 130.824 53.5299 130.888 53.466L134.221 50.1324C134.285 50.0685 134.396 50.0685 134.459 50.1324C134.523 50.1963 134.523 50.3066 134.459 50.3705L131.126 53.7041C131.091 53.7389 131.05 53.7564 131.01 53.7564Z" fill="#054375"/>
<path d="M131.01 93.8477C130.969 93.8477 130.923 93.8302 130.888 93.7954C130.824 93.7315 130.824 93.6212 130.888 93.5573L134.221 90.2237C134.285 90.1598 134.396 90.1598 134.459 90.2237C134.523 90.2876 134.523 90.3979 134.459 90.4618L131.126 93.7954C131.091 93.8302 131.05 93.8477 131.01 93.8477Z" fill="#054375"/>
<path d="M131.01 37.5139C130.969 37.5139 130.923 37.4965 130.888 37.4617C130.824 37.3978 130.824 37.2874 130.888 37.2235L134.221 33.89C134.285 33.8261 134.396 33.8261 134.459 33.89C134.523 33.9538 134.523 34.0642 134.459 34.1281L131.126 37.4617C131.091 37.4965 131.05 37.5139 131.01 37.5139Z" fill="#054375"/>
<g opacity="0.14">
<path fill-rule="evenodd" clip-rule="evenodd" d="M88.6527 44.1369C89.2056 44.3803 89.714 44.7263 90.1487 45.163L95.1927 50.208C95.5579 50.5721 96.1482 50.5721 96.5134 50.208L101.539 45.1821C101.905 44.8138 102.323 44.5099 102.777 44.2776C103.464 43.9253 104.232 43.7378 105.019 43.7404C105.243 43.7404 105.355 43.4704 105.197 43.3125L99.2418 37.3577C97.2544 35.3692 94.0323 35.3692 92.0438 37.3566L86.3798 43.0254C86.1227 43.2827 86.3049 43.7223 86.6686 43.7223C87.3585 43.7207 88.0335 43.8644 88.6527 44.1369ZM90.4245 42.3636C90.937 42.6705 91.4142 43.0418 91.8432 43.4725L91.8451 43.4744L95.146 46.7761C95.5365 47.1667 96.1698 47.1667 96.5603 46.7761L99.841 43.4955L99.8443 43.4921C99.9142 43.4219 99.9853 43.3532 100.058 43.2861C100.524 42.8544 100.606 42.1065 100.157 41.6574L97.5494 39.0502C96.497 37.9972 94.7899 37.9961 93.7359 39.0495L93.734 39.0514L90.4245 42.3636Z" fill="#054375"/>
<path fill-rule="evenodd" clip-rule="evenodd" d="M102.786 60.9677C102.329 60.7357 101.908 60.4315 101.539 60.0623L96.5123 55.0322C96.1428 54.6786 95.5611 54.6786 95.1916 55.0322L90.1477 60.0761C89.7133 60.5124 89.2054 60.8582 88.6531 61.1015C88.0335 61.3744 87.3579 61.5184 86.6676 61.5168C86.3044 61.5168 86.1225 61.9559 86.3793 62.2127L92.0533 67.8867C94.0429 69.872 97.2629 69.872 99.2524 67.8867L105.2 61.9384C105.361 61.7767 105.248 61.5003 105.019 61.4987C104.236 61.5013 103.471 61.316 102.786 60.9677ZM100.162 63.5915C100.612 63.1416 100.529 62.3924 100.061 61.961C99.9881 61.8934 99.9161 61.8242 99.8454 61.7533L96.5587 58.4646C96.1682 58.0739 95.5349 58.0738 95.1443 58.4644L91.844 61.7647L91.8418 61.7669C91.7189 61.8902 91.592 62.0088 91.4615 62.1223C90.9704 62.5494 90.8717 63.3201 91.3319 63.7803L93.744 66.1924C94.799 67.2442 96.5058 67.2451 97.5608 66.1934L100.162 63.5915Z" fill="#054375"/>
<path fill-rule="evenodd" clip-rule="evenodd" d="M106.773 45.2193C106.944 45.2174 107.125 45.2423 107.246 45.3628L110.904 49.0205C112.891 51.009 112.893 54.2317 110.904 56.2191L107.246 59.8772C107.126 59.9976 106.944 60.0209 106.773 60.0209H105.019C104.106 60.0188 103.232 59.6557 102.585 59.0123L97.5592 53.9875C96.6483 53.0766 95.059 53.0766 94.147 53.9875L89.1031 59.0314C88.4565 59.6759 87.5817 60.0379 86.6687 60.0411H84.5072C84.3459 60.043 84.1743 60.0192 84.0602 59.9052L80.3752 56.2202C78.3899 54.2306 78.3899 51.0106 80.3752 49.0211L84.0686 45.3347C84.1827 45.2208 84.3545 45.1953 84.5157 45.1991H86.6687C87.5817 45.2012 88.4565 45.5643 89.1031 46.2087L94.1481 51.2505C95.0908 52.1912 96.6164 52.1912 97.5592 51.2505L102.585 46.2279C103.232 45.5845 104.106 45.2214 105.019 45.2193H106.773ZM109.212 50.713C110.266 51.767 110.265 53.4738 109.212 54.5262L106.404 57.3345C106.216 57.522 105.962 57.6274 105.697 57.6274H105.023C104.743 57.6262 104.474 57.5148 104.274 57.3168L100.283 53.3264C99.8926 52.9358 99.8926 52.3024 100.283 51.9119L104.273 47.9245C104.473 47.7266 104.743 47.6139 105.023 47.6128H105.697C105.962 47.6128 106.216 47.7181 106.404 47.9056L109.212 50.713ZM87.4134 47.904L91.4234 51.9115C91.8142 52.302 91.8143 52.9353 91.4237 53.3259L87.4134 57.3362C87.2159 57.5325 86.9466 57.6458 86.6634 57.6476H85.6017C85.3365 57.6476 85.0822 57.5422 84.8946 57.3547L82.0695 54.5295C81.0177 53.4747 81.0167 51.7683 82.068 50.7132L84.9018 47.8848C85.0893 47.6977 85.3433 47.5926 85.6082 47.5926H86.6651C86.945 47.5938 87.2142 47.7059 87.4134 47.904Z" fill="#054375"/>
</g>
<path fill-rule="evenodd" clip-rule="evenodd" d="M86.9486 42.4336C87.5015 42.6769 88.0099 43.0229 88.4446 43.4596L93.4886 48.5046C93.8538 48.8688 94.4441 48.8688 94.8093 48.5046L99.8351 43.4787C100.201 43.1105 100.619 42.8065 101.073 42.5742C101.76 42.222 102.528 42.0345 103.315 42.037H103.92L97.5377 35.6543C95.5503 33.6659 92.3282 33.6659 90.3397 35.6533L83.9793 42.019H84.9645C85.6544 42.0173 86.3294 42.1611 86.9486 42.4336ZM88.7204 40.6603C89.2329 40.9671 89.7101 41.3385 90.139 41.7691L90.141 41.7711L94.149 45.7799L98.1369 41.7921L98.1402 41.7887C98.5028 41.4242 98.8999 41.102 99.3239 40.8254L95.8453 37.3468C94.7929 36.2938 93.0858 36.2927 92.0318 37.3461L92.0299 37.348L88.7204 40.6603Z" fill="#05BDFB"/>
<path fill-rule="evenodd" clip-rule="evenodd" d="M101.082 59.2643C100.625 59.0324 100.204 58.7281 99.8351 58.3589L94.8082 53.3288C94.4387 52.9753 93.857 52.9753 93.4875 53.3288L88.4436 58.3727C88.0092 58.809 87.5013 59.1548 86.949 59.3981C86.3294 59.6711 85.6538 59.8151 84.9635 59.8134H83.9793L90.3492 66.1833C92.3388 68.1686 95.5588 68.1686 97.5483 66.1833L103.931 59.7996L103.315 59.7953C102.532 59.7979 101.767 59.6126 101.082 59.2643ZM99.3316 61.0145C98.9052 60.7379 98.5059 60.4153 98.1413 60.05L94.1475 56.0537L90.1399 60.0613L90.1377 60.0635C89.7094 60.4934 89.2332 60.8642 88.7216 61.1707L92.0399 64.4891C93.0949 65.5408 94.8017 65.5417 95.8567 64.49L99.3316 61.0145Z" fill="#05BDFB"/>
<path fill-rule="evenodd" clip-rule="evenodd" d="M105.343 43.4607L109.2 47.3172C111.187 49.3057 111.189 52.5283 109.2 54.5157L105.343 58.3727C105.256 58.3366 105.164 58.3175 105.069 58.3175H103.315C102.402 58.3154 101.528 57.9523 100.881 57.3089L95.8551 52.2841C94.9442 51.3732 93.3549 51.3732 92.4429 52.2841L87.399 57.3281C86.7524 57.9725 85.8776 58.3345 84.9646 58.3377H82.8031C82.7139 58.3388 82.6268 58.3568 82.544 58.3897L78.6711 54.5168C76.6858 52.5273 76.6858 49.3072 78.6711 47.3177L82.5525 43.4437C82.6353 43.4766 82.7224 43.4936 82.8116 43.4957H84.9646C85.8776 43.4979 86.7524 43.8609 87.399 44.5054L92.444 49.5472C93.3867 50.4878 94.9123 50.4878 95.8551 49.5472L100.881 44.5245C101.528 43.8811 102.402 43.518 103.315 43.5159H105.069C105.164 43.5148 105.256 43.4957 105.343 43.4607ZM107.508 49.0096C108.562 50.0637 108.561 51.7704 107.508 52.8228L104.407 55.924H103.319C103.039 55.9228 102.77 55.8114 102.57 55.6135L97.8717 50.9157L102.569 46.2211C102.769 46.0232 103.039 45.9106 103.319 45.9094H104.407L107.508 49.0096ZM85.7093 46.2006L90.4269 50.9152L85.7093 55.6328C85.5118 55.8292 85.2425 55.9424 84.9593 55.9442H83.4834L80.3654 52.8261C79.3136 51.7713 79.3126 50.065 80.3639 49.0098L83.4905 45.8892H84.961C85.2409 45.8904 85.5101 46.0025 85.7093 46.2006Z" fill="#05BDFB"/>
<path d="M120.483 79.7214L69.7891 79.7214C69.2368 79.7214 68.7891 79.2737 68.7891 78.7214L68.7891 76.7694C68.7891 76.2171 69.2368 75.7694 69.7891 75.7694L120.483 75.7694C121.035 75.7694 121.483 76.2171 121.483 76.7694L121.483 78.7214C121.483 79.2737 121.035 79.7214 120.483 79.7214Z" fill="#7CDDFD" stroke="#054375"/>
<path d="M112.579 86.3084L69.7891 86.3083C69.2368 86.3083 68.7891 85.8606 68.7891 85.3083L68.7891 83.3563C68.7891 82.804 69.2368 82.3563 69.7891 82.3563L112.579 82.3563C113.131 82.3563 113.579 82.804 113.579 83.3563L113.579 85.3084C113.579 85.8606 113.131 86.3084 112.579 86.3084Z" fill="#E1F7FF" stroke="#054375"/>
<path d="M120.483 98.4861L69.7891 98.4861C69.2368 98.4861 68.7891 98.0384 68.7891 97.4861L68.7891 95.534C68.7891 94.9818 69.2368 94.534 69.7891 94.534L120.483 94.534C121.035 94.534 121.483 94.9818 121.483 95.534L121.483 97.4861C121.483 98.0384 121.035 98.4861 120.483 98.4861Z" fill="#7CDDFD" stroke="#054375"/>
<path d="M112.579 105.073L69.7891 105.073C69.2368 105.073 68.7891 104.625 68.7891 104.073L68.7891 102.121C68.7891 101.569 69.2368 101.121 69.7891 101.121L112.579 101.121C113.131 101.121 113.579 101.569 113.579 102.121L113.579 104.073C113.579 104.625 113.131 105.073 112.579 105.073Z" fill="#E1F7FF" stroke="#054375"/>
</svg>
