<svg width="208" height="160" viewBox="0 0 208 160" fill="none" xmlns="http://www.w3.org/2000/svg">
<path opacity="0.3" d="M176.006 79.6674C177.559 78.0965 177.559 75.5497 176.006 73.9789L106.085 3.26918C104.377 1.5419 101.554 1.74034 100.098 3.68995L75.2294 37.0053C74.0339 38.6067 74.1884 40.8542 75.5914 42.273L106.866 73.9003C108.419 75.4711 108.419 78.0179 106.866 79.5888L71.645 115.207C69.9377 116.934 70.1329 119.788 72.0591 121.26L105.073 146.496C106.657 147.706 108.88 147.551 110.284 146.131L176.006 79.6674Z" fill="#1090F9"/>
<path opacity="0.3" d="M175.246 80.2705C176.411 81.4486 176.411 83.3587 175.246 84.5369L109.524 151.001C108.472 152.065 106.804 152.182 105.616 151.274L72.6021 126.038C71.1574 124.934 71.011 122.794 72.2915 121.499L107.512 85.8804C109.454 83.9169 109.454 80.7333 107.512 78.7698L76.2379 47.1425C75.1856 46.0784 75.0698 44.3928 75.9664 43.1917L100.835 9.87639C101.927 8.41418 104.045 8.26534 105.326 9.56081L175.246 80.2705Z" stroke="#05BDFB" stroke-width="2"/>
<path opacity="0.3" d="M137.83 11.1704C138.92 11.1704 139.803 12.0539 139.803 13.1438L139.803 14.3012C139.803 14.8877 139.285 15.3389 138.704 15.258C138.227 15.1914 137.871 14.7832 137.871 14.3012L137.871 14.1768C137.871 13.5834 137.39 13.1024 136.797 13.1024L136.672 13.1024C136.086 13.1024 135.635 12.584 135.716 12.0031C135.782 11.5257 136.19 11.1704 136.672 11.1704L137.83 11.1704Z" fill="#1090F9"/>
<path opacity="0.3" d="M171.086 40.0243C171.638 40.9809 171.31 42.2041 170.354 42.7564L168.29 43.9479C167.579 44.3585 166.669 44.0458 166.36 43.2848C166.107 42.6594 166.353 41.9429 166.937 41.6055L167.088 41.5184C167.808 41.103 168.054 40.1832 167.639 39.4638L167.552 39.3129C167.141 38.6018 167.454 37.6919 168.215 37.3834C168.84 37.1299 169.557 37.3761 169.894 37.9605L171.086 40.0243Z" fill="#1090F9"/>
<path opacity="0.3" d="M106.627 132.473C107.179 133.429 106.851 134.652 105.895 135.205L103.831 136.396C103.12 136.807 102.21 136.494 101.901 135.733C101.648 135.108 101.894 134.391 102.478 134.054L102.629 133.967C103.349 133.551 103.595 132.631 103.18 131.912L103.093 131.761C102.682 131.05 102.995 130.14 103.756 129.832C104.381 129.578 105.098 129.824 105.435 130.409L106.627 132.473Z" fill="#1090F9"/>
<path opacity="0.3" d="M170.903 105.167C170.122 104.386 170.122 103.12 170.903 102.339L174.945 98.297C175.708 97.5341 176.975 97.6469 177.591 98.5325C178.07 99.2208 177.987 100.153 177.394 100.746L176.475 101.665C175.711 102.43 175.711 103.67 176.475 104.434C177.299 105.258 177.226 106.614 176.318 107.344L175.923 107.663C175.127 108.303 173.977 108.241 173.255 107.519L170.903 105.167Z" fill="#1090F9"/>
<path d="M67.1172 37.6187C67.1172 35.1334 69.1319 33.1187 71.6172 33.1187H131.309C133.794 33.1187 135.809 35.1334 135.809 37.6187V125.293C135.809 128.574 132.412 130.752 129.431 129.383L121.181 125.595C119.724 124.926 118.048 124.926 116.591 125.595L103.341 131.679C102.149 132.226 100.777 132.226 99.5854 131.679L86.3352 125.595C84.8783 124.926 83.202 124.926 81.7451 125.595L73.4949 129.383C70.5139 130.752 67.1172 128.574 67.1172 125.293V37.6187Z" fill="white" stroke="#054375"/>
<path opacity="0.14" d="M60.6172 28.6187C60.6172 28.0664 61.0649 27.6187 61.6172 27.6187H129.309C129.861 27.6187 130.309 28.0664 130.309 28.6187V126.532C130.309 127.261 129.554 127.745 128.892 127.44L113.303 120.283C113.039 120.161 112.734 120.161 112.469 120.283L95.8804 127.9C95.6155 128.021 95.3108 128.021 95.0459 127.9L78.4574 120.283C78.1926 120.161 77.8878 120.161 77.6229 120.283L62.0345 127.44C61.372 127.745 60.6172 127.261 60.6172 126.532V28.6187Z" fill="#054375"/>
<path d="M59.1172 27.6187C59.1172 25.1334 61.1319 23.1187 63.6172 23.1187H123.309C125.794 23.1187 127.809 25.1334 127.809 27.6187V115.293C127.809 118.574 124.412 120.752 121.431 119.383L113.181 115.595C111.724 114.926 110.048 114.926 108.591 115.595L95.3409 121.679C94.1489 122.226 92.7774 122.226 91.5854 121.679L78.3352 115.595C76.8783 114.926 75.202 114.926 73.7451 115.595L65.4949 119.383C62.5139 120.752 59.1172 118.574 59.1172 115.293V27.6187Z" fill="white" stroke="#054375"/>
<path d="M69.2402 127.925C69.1995 127.925 69.1531 127.907 69.1182 127.873C69.0543 127.809 69.0543 127.698 69.1182 127.634L72.4518 124.301C72.5157 124.237 72.6261 124.237 72.69 124.301C72.7538 124.365 72.7538 124.475 72.69 124.539L69.3564 127.873C69.3215 127.907 69.2809 127.925 69.2402 127.925Z" fill="#054375"/>
<path d="M101.764 127.925C101.723 127.925 101.677 127.907 101.642 127.873C101.578 127.809 101.578 127.698 101.642 127.634L104.975 124.301C105.039 124.237 105.15 124.237 105.213 124.301C105.277 124.365 105.277 124.475 105.213 124.539L101.88 127.873C101.845 127.907 101.804 127.925 101.764 127.925Z" fill="#054375"/>
<path d="M75.1699 125.925C75.1292 125.925 75.0828 125.907 75.0479 125.873C74.984 125.809 74.984 125.698 75.0479 125.634L78.3815 122.301C78.4454 122.237 78.5558 122.237 78.6196 122.301C78.6835 122.365 78.6835 122.475 78.6196 122.539L75.286 125.873C75.2512 125.907 75.2105 125.925 75.1699 125.925Z" fill="#054375"/>
<path d="M81.1699 124.672C81.1292 124.672 81.0828 124.654 81.0479 124.62C80.984 124.556 80.984 124.445 81.0479 124.382L84.3815 121.048C84.4454 120.984 84.5558 120.984 84.6196 121.048C84.6835 121.112 84.6835 121.222 84.6196 121.286L81.286 124.62C81.2512 124.654 81.2105 124.672 81.1699 124.672Z" fill="#054375"/>
<path d="M86.1699 124.672C86.1292 124.672 86.0828 124.654 86.0479 124.62C85.984 124.556 85.984 124.445 86.0479 124.382L89.3815 121.048C89.4454 120.984 89.5558 120.984 89.6196 121.048C89.6835 121.112 89.6835 121.222 89.6196 121.286L86.286 124.62C86.2512 124.654 86.2105 124.672 86.1699 124.672Z" fill="#054375"/>
<path d="M105.828 127.925C105.787 127.925 105.741 127.907 105.706 127.873C105.642 127.809 105.642 127.698 105.706 127.634L109.04 124.301C109.104 124.237 109.214 124.237 109.278 124.301C109.342 124.365 109.342 124.475 109.278 124.539L105.944 127.873C105.909 127.907 105.869 127.925 105.828 127.925Z" fill="#054375"/>
<path d="M89.5664 125.672C89.5257 125.672 89.4792 125.654 89.4444 125.62C89.3805 125.556 89.3805 125.445 89.4444 125.382L92.778 122.048C92.8419 121.984 92.9522 121.984 93.0161 122.048C93.08 122.112 93.08 122.222 93.0161 122.286L89.6825 125.62C89.6477 125.654 89.607 125.672 89.5664 125.672Z" fill="#054375"/>
<path d="M109.894 126.925C109.854 126.925 109.807 126.907 109.773 126.873C109.709 126.809 109.709 126.698 109.773 126.634L113.106 123.301C113.17 123.237 113.28 123.237 113.344 123.301C113.408 123.365 113.408 123.475 113.344 123.539L110.011 126.873C109.976 126.907 109.935 126.925 109.894 126.925Z" fill="#054375"/>
<path d="M116.17 124.672C116.129 124.672 116.083 124.654 116.048 124.62C115.984 124.556 115.984 124.445 116.048 124.382L119.382 121.048C119.445 120.984 119.556 120.984 119.62 121.048C119.684 121.112 119.684 121.222 119.62 121.286L116.286 124.62C116.251 124.654 116.211 124.672 116.17 124.672Z" fill="#054375"/>
<path d="M121.17 124.672C121.129 124.672 121.083 124.654 121.048 124.62C120.984 124.556 120.984 124.445 121.048 124.382L124.382 121.048C124.445 120.984 124.556 120.984 124.62 121.048C124.684 121.112 124.684 121.222 124.62 121.286L121.286 124.62C121.251 124.654 121.211 124.672 121.17 124.672Z" fill="#054375"/>
<path d="M93.6328 127.925C93.5921 127.925 93.5456 127.907 93.5108 127.873C93.4469 127.809 93.4469 127.698 93.5108 127.634L96.8444 124.301C96.9083 124.237 97.0186 124.237 97.0825 124.301C97.1464 124.365 97.1464 124.475 97.0825 124.539L93.7489 127.873C93.7141 127.907 93.6734 127.925 93.6328 127.925Z" fill="#054375"/>
<path d="M126.156 127.925C126.116 127.925 126.069 127.907 126.034 127.873C125.97 127.809 125.97 127.698 126.034 127.634L133.708 119.961C133.771 119.897 133.882 119.897 133.946 119.961C134.01 120.024 134.01 120.135 133.946 120.199L126.272 127.873C126.238 127.907 126.197 127.925 126.156 127.925Z" fill="#054375"/>
<path d="M97.6972 127.925C97.6566 127.925 97.6101 127.907 97.5753 127.873C97.5114 127.809 97.5114 127.698 97.5753 127.634L100.909 124.301C100.973 124.237 101.083 124.237 101.147 124.301C101.211 124.365 101.211 124.475 101.147 124.539L97.8134 127.873C97.7785 127.907 97.7379 127.925 97.6972 127.925Z" fill="#054375"/>
<path d="M130.223 127.925C130.182 127.925 130.135 127.907 130.101 127.873C130.037 127.809 130.037 127.698 130.101 127.634L133.434 124.301C133.498 124.237 133.608 124.237 133.672 124.301C133.736 124.365 133.736 124.475 133.672 124.539L130.339 127.873C130.304 127.907 130.263 127.925 130.223 127.925Z" fill="#054375"/>
<path d="M130.223 120.149C130.182 120.149 130.135 120.132 130.101 120.097C130.037 120.033 130.037 119.922 130.101 119.859L133.434 116.525C133.498 116.461 133.608 116.461 133.672 116.525C133.736 116.589 133.736 116.699 133.672 116.763L130.339 120.097C130.304 120.132 130.263 120.149 130.223 120.149Z" fill="#054375"/>
<path d="M130.223 88.7876C130.182 88.7876 130.135 88.7702 130.101 88.7353C130.037 88.6715 130.037 88.5611 130.101 88.4972L133.434 85.1636C133.498 85.0998 133.608 85.0998 133.672 85.1636C133.736 85.2275 133.736 85.3379 133.672 85.4018L130.339 88.7353C130.304 88.7702 130.263 88.7876 130.223 88.7876Z" fill="#054375"/>
<path d="M130.223 62.8784C130.182 62.8784 130.135 62.861 130.101 62.8262C130.037 62.7623 130.037 62.6519 130.101 62.588L133.434 59.2545C133.498 59.1906 133.608 59.1906 133.672 59.2545C133.736 59.3183 133.736 59.4287 133.672 59.4926L130.339 62.8262C130.304 62.861 130.263 62.8784 130.223 62.8784Z" fill="#054375"/>
<path d="M130.223 103.906C130.182 103.906 130.135 103.889 130.101 103.854C130.037 103.79 130.037 103.68 130.101 103.616L133.434 100.282C133.498 100.218 133.608 100.218 133.672 100.282C133.736 100.346 133.736 100.457 133.672 100.52L130.339 103.854C130.304 103.889 130.263 103.906 130.223 103.906Z" fill="#054375"/>
<path d="M130.223 72.5454C130.182 72.5454 130.135 72.528 130.101 72.4932C130.037 72.4293 130.037 72.3189 130.101 72.255L133.434 68.9214C133.498 68.8576 133.608 68.8576 133.672 68.9214C133.736 68.9853 133.736 69.0957 133.672 69.1596L130.339 72.4932C130.304 72.528 130.263 72.5454 130.223 72.5454Z" fill="#054375"/>
<path d="M130.223 47.5723C130.182 47.5723 130.135 47.5549 130.101 47.52C130.037 47.4561 130.037 47.3458 130.101 47.2819L133.434 43.9483C133.498 43.8844 133.608 43.8844 133.672 43.9483C133.736 44.0122 133.736 44.1225 133.672 44.1864L130.339 47.52C130.304 47.5549 130.263 47.5723 130.223 47.5723Z" fill="#054375"/>
<path d="M130.223 114.734C130.182 114.734 130.135 114.716 130.101 114.682C130.037 114.618 130.037 114.507 130.101 114.444L133.434 111.11C133.498 111.046 133.608 111.046 133.672 111.11C133.736 111.174 133.736 111.284 133.672 111.348L130.339 114.682C130.304 114.716 130.263 114.734 130.223 114.734Z" fill="#054375"/>
<path d="M130.223 83.3731C130.182 83.3731 130.135 83.3556 130.101 83.3208C130.037 83.2569 130.037 83.1466 130.101 83.0827L133.434 79.7491C133.498 79.6852 133.608 79.6852 133.672 79.7491C133.736 79.813 133.736 79.9233 133.672 79.9872L130.339 83.3208C130.304 83.3556 130.263 83.3731 130.223 83.3731Z" fill="#054375"/>
<path d="M130.223 58.4004C130.182 58.4004 130.135 58.383 130.101 58.3481C130.037 58.2843 130.037 58.1739 130.101 58.11L133.434 54.7764C133.498 54.7125 133.608 54.7125 133.672 54.7764C133.736 54.8403 133.736 54.9507 133.672 55.0145L130.339 58.3481C130.304 58.383 130.263 58.4004 130.223 58.4004Z" fill="#054375"/>
<path d="M130.223 98.4927C130.182 98.4927 130.135 98.4753 130.101 98.4404C130.037 98.3765 130.037 98.2662 130.101 98.2023L133.434 94.8687C133.498 94.8048 133.608 94.8048 133.672 94.8687C133.736 94.9326 133.736 95.0429 133.672 95.1068L130.339 98.4404C130.304 98.4753 130.263 98.4927 130.223 98.4927Z" fill="#054375"/>
<path d="M130.223 67.1318C130.182 67.1318 130.135 67.1144 130.101 67.0796C130.037 67.0157 130.037 66.9053 130.101 66.8415L133.434 63.5079C133.498 63.444 133.608 63.444 133.672 63.5079C133.736 63.5718 133.736 63.6821 133.672 63.746L130.339 67.0796C130.304 67.1144 130.263 67.1318 130.223 67.1318Z" fill="#054375"/>
<path d="M130.223 42.1587C130.182 42.1587 130.135 42.1413 130.101 42.1064C130.037 42.0426 130.037 41.9322 130.101 41.8683L133.434 38.5347C133.498 38.4708 133.608 38.4708 133.672 38.5347C133.736 38.5986 133.736 38.709 133.672 38.7728L130.339 42.1064C130.304 42.1413 130.263 42.1587 130.223 42.1587Z" fill="#054375"/>
<path d="M130.223 109.321C130.182 109.321 130.135 109.303 130.101 109.269C130.037 109.205 130.037 109.094 130.101 109.03L133.434 105.697C133.498 105.633 133.608 105.633 133.672 105.697C133.736 105.761 133.736 105.871 133.672 105.935L130.339 109.269C130.304 109.303 130.263 109.321 130.223 109.321Z" fill="#054375"/>
<path d="M130.223 77.9595C130.182 77.9595 130.135 77.9421 130.101 77.9072C130.037 77.8433 130.037 77.733 130.101 77.6691L133.434 74.3355C133.498 74.2716 133.608 74.2716 133.672 74.3355C133.736 74.3994 133.736 74.5097 133.672 74.5736L130.339 77.9072C130.304 77.9421 130.263 77.9595 130.223 77.9595Z" fill="#054375"/>
<path d="M130.223 52.9868C130.182 52.9868 130.135 52.9694 130.101 52.9346C130.037 52.8707 130.037 52.7603 130.101 52.6964L133.434 49.3629C133.498 49.299 133.608 49.299 133.672 49.3629C133.736 49.4267 133.736 49.5371 133.672 49.601L130.339 52.9346C130.304 52.9694 130.263 52.9868 130.223 52.9868Z" fill="#054375"/>
<path d="M130.223 93.0781C130.182 93.0781 130.135 93.0607 130.101 93.0259C130.037 92.962 130.037 92.8516 130.101 92.7878L133.434 89.4542C133.498 89.3903 133.608 89.3903 133.672 89.4542C133.736 89.518 133.736 89.6284 133.672 89.6923L130.339 93.0259C130.304 93.0607 130.263 93.0781 130.223 93.0781Z" fill="#054375"/>
<path d="M130.223 36.7442C130.182 36.7442 130.135 36.7267 130.101 36.6919C130.037 36.628 130.037 36.5177 130.101 36.4538L133.434 33.1202C133.498 33.0563 133.608 33.0563 133.672 33.1202C133.736 33.1841 133.736 33.2944 133.672 33.3583L130.339 36.6919C130.304 36.7267 130.263 36.7442 130.223 36.7442Z" fill="#054375"/>
<path d="M117.556 38.4268L87.9395 38.4268C87.3872 38.4268 86.9395 38.8745 86.9395 39.4268L86.9395 41.3788C86.9395 41.9311 87.3872 42.3788 87.9395 42.3788L117.556 42.3788C118.108 42.3788 118.556 41.9311 118.556 41.3788L118.556 39.4268C118.556 38.8745 118.108 38.4268 117.556 38.4268Z" fill="#7CDDFD" stroke="#054375"/>
<path d="M117.557 58.187L66.8633 58.187C66.311 58.187 65.8633 57.7393 65.8633 57.187L65.8633 55.235C65.8633 54.6827 66.311 54.235 66.8633 54.235L117.557 54.235C118.109 54.235 118.557 54.6827 118.557 55.235L118.557 57.187C118.557 57.7393 118.109 58.187 117.557 58.187Z" fill="#7CDDFD" stroke="#054375"/>
<path d="M117.557 76.9522L66.8633 76.9521C66.311 76.9521 65.8633 76.5044 65.8633 75.9521L65.8633 74.0001C65.8633 73.4478 66.311 73.0001 66.8633 73.0001L117.557 73.0001C118.109 73.0001 118.557 73.4478 118.557 74.0001L118.557 75.9522C118.557 76.5044 118.109 76.9522 117.557 76.9522Z" fill="#7CDDFD" stroke="#054375"/>
<path d="M117.557 95.7168L66.8633 95.7168C66.311 95.7168 65.8633 95.2691 65.8633 94.7168L65.8633 92.7648C65.8633 92.2125 66.311 91.7648 66.8633 91.7648L117.557 91.7648C118.109 91.7648 118.557 92.2125 118.557 92.7648L118.557 94.7168C118.557 95.2691 118.109 95.7168 117.557 95.7168Z" fill="#7CDDFD" stroke="#054375"/>
<path d="M112.945 31.8398L87.9395 31.8398C87.3872 31.8398 86.9395 32.2876 86.9395 32.8398L86.9395 34.7919C86.9395 35.3442 87.3872 35.7919 87.9395 35.7919L112.945 35.7919C113.497 35.7919 113.945 35.3442 113.945 34.7919L113.945 32.8398C113.945 32.2876 113.497 31.8398 112.945 31.8398Z" fill="#E1F7FF" stroke="#054375"/>
<path d="M109.653 64.7739L66.8633 64.7739C66.311 64.7739 65.8633 64.3262 65.8633 63.7739L65.8633 61.8219C65.8633 61.2696 66.311 60.8219 66.8633 60.8219L109.653 60.8219C110.205 60.8219 110.653 61.2696 110.653 61.8219L110.653 63.7739C110.653 64.3262 110.205 64.7739 109.653 64.7739Z" fill="#E1F7FF" stroke="#054375"/>
<path d="M109.653 83.5391L66.8633 83.5391C66.311 83.5391 65.8633 83.0913 65.8633 82.5391L65.8633 80.587C65.8633 80.0347 66.311 79.587 66.8633 79.587L109.653 79.587C110.205 79.587 110.653 80.0347 110.653 80.587L110.653 82.5391C110.653 83.0913 110.205 83.5391 109.653 83.5391Z" fill="#E1F7FF" stroke="#054375"/>
<path d="M109.653 102.304L66.8633 102.304C66.311 102.304 65.8633 101.856 65.8633 101.304L65.8633 99.3517C65.8633 98.7994 66.311 98.3517 66.8633 98.3517L109.653 98.3517C110.205 98.3517 110.653 98.7994 110.653 99.3517L110.653 101.304C110.653 101.856 110.205 102.304 109.653 102.304Z" fill="#E1F7FF" stroke="#054375"/>
<circle cx="75.0838" cy="37.7683" r="7.90408" fill="#F7E06E"/>
<circle cx="73.7587" cy="37.1029" r="7.39736" fill="#F9EC76" stroke="#054375"/>
<path fill-rule="evenodd" clip-rule="evenodd" d="M73.232 40.6248V41.4579C73.232 41.5894 73.3385 41.696 73.47 41.696H73.7081C73.8395 41.696 73.9461 41.5894 73.9461 41.4579V40.6211C74.3199 40.6101 74.7933 40.5658 75.2151 40.3886C75.5104 40.2646 75.7947 40.0703 76.0033 39.7671C76.2126 39.4628 76.3265 39.0765 76.3265 38.6014C76.3265 38.1264 76.2126 37.74 76.0033 37.4358C75.7947 37.1325 75.5104 36.9382 75.2151 36.8142C74.7933 36.6371 74.3199 36.5928 73.9461 36.5817V33.9596L75.7314 33.9596C75.8629 33.9596 75.9694 33.8531 75.9694 33.7216L75.9694 33.4835C75.9694 33.3521 75.8629 33.2455 75.7314 33.2455L73.9461 33.2455V32.4124C73.9461 32.2809 73.8395 32.1743 73.7081 32.1743H73.47C73.3385 32.1743 73.232 32.2809 73.232 32.4124V33.2519C72.8411 33.2666 72.3885 33.3145 71.9886 33.4712C71.686 33.5897 71.3951 33.7766 71.1817 34.0723C70.9668 34.3699 70.8516 34.7482 70.8516 35.2114C70.8516 35.6749 70.9669 36.056 71.1737 36.3602C71.3792 36.6625 71.659 36.8651 71.9511 37.0005C72.3757 37.1973 72.8507 37.2627 73.232 37.2833V39.9106H71.4467C71.3152 39.9106 71.2086 40.0172 71.2086 40.1487V40.3867C71.2086 40.5182 71.3152 40.6248 71.4467 40.6248H73.232ZM73.9461 39.9062C74.2762 39.8953 74.6345 39.8579 74.9385 39.7302C75.1391 39.646 75.3011 39.5278 75.4149 39.3624C75.5279 39.198 75.6124 38.9595 75.6124 38.6014C75.6124 38.2433 75.5279 38.0048 75.4149 37.8405C75.3011 37.675 75.1391 37.5569 74.9385 37.4726C74.6345 37.3449 74.2762 37.3075 73.9461 37.2966V39.9062ZM73.232 36.5678V33.967C72.8902 33.981 72.5428 34.0211 72.249 34.1361C72.0382 34.2187 71.8739 34.3335 71.7607 34.4903C71.6488 34.6452 71.5657 34.8701 71.5657 35.2114C71.5657 35.5523 71.6488 35.7888 71.7642 35.9587C71.8811 36.1305 72.0477 36.2582 72.2514 36.3526C72.5531 36.4924 72.91 36.5477 73.232 36.5678Z" fill="#054375"/>
</svg>
