<svg width="208" height="161" viewBox="0 0 208 161" fill="none" xmlns="http://www.w3.org/2000/svg">
<path opacity="0.3" d="M176.687 81.1519C178.24 79.5811 178.24 77.0342 176.687 75.4634L105.925 3.90353C104.217 2.17624 101.394 2.37469 99.9384 4.32429L74.7405 38.0801C73.5451 39.6815 73.6995 41.929 75.1025 43.3478L106.781 75.3839C108.335 76.9548 108.335 79.5016 106.781 81.0724L71.1038 117.152C69.3965 118.879 69.5917 121.733 71.5179 123.206L104.968 148.775C106.552 149.985 108.775 149.83 110.179 148.41L176.687 81.1519Z" fill="#1090F9"/>
<path opacity="0.3" d="M175.925 81.8166C177.09 82.9947 177.09 84.9049 175.925 86.083L109.417 153.341C108.365 154.406 106.697 154.522 105.509 153.615L72.0589 128.045C70.6143 126.941 70.4678 124.801 71.7483 123.506L107.426 87.4257C109.367 85.4621 109.367 82.2786 107.426 80.315L75.747 48.2789C74.6948 47.2148 74.579 45.5292 75.4755 44.3281L100.673 10.5723C101.765 9.11011 103.883 8.96128 105.164 10.2567L175.925 81.8166Z" stroke="#05BDFB" stroke-width="2"/>
<path opacity="0.3" d="M138.057 11.928C139.159 11.928 140.052 12.8213 140.052 13.9232L140.052 15.0935C140.052 15.6865 139.528 16.1427 138.941 16.0608C138.458 15.9936 138.099 15.5808 138.099 15.0935L138.099 14.9677C138.099 14.3678 137.613 13.8815 137.013 13.8815L136.887 13.8815C136.294 13.8815 135.838 13.3573 135.92 12.7699C135.987 12.2873 136.4 11.928 136.887 11.928L138.057 11.928Z" fill="#1090F9"/>
<path opacity="0.3" d="M171.692 41.1207C172.244 42.0773 171.916 43.3005 170.96 43.8528L168.854 45.0686C168.135 45.4837 167.215 45.1675 166.903 44.3981C166.647 43.7658 166.896 43.0413 167.487 42.7002L167.639 42.6121C168.366 42.1922 168.616 41.2622 168.196 40.5348L168.108 40.3823C167.693 39.6633 168.009 38.7433 168.778 38.4314C169.41 38.175 170.135 38.424 170.476 39.0149L171.692 41.1207Z" fill="#1090F9"/>
<path opacity="0.3" d="M106.519 134.592C107.071 135.549 106.743 136.772 105.787 137.324L103.681 138.54C102.962 138.955 102.042 138.639 101.73 137.869C101.474 137.237 101.723 136.513 102.314 136.171L102.466 136.083C103.194 135.664 103.443 134.733 103.023 134.006L102.935 133.854C102.52 133.135 102.836 132.215 103.605 131.903C104.238 131.646 104.962 131.895 105.303 132.486L106.519 134.592Z" fill="#1090F9"/>
<path opacity="0.3" d="M171.48 106.95C170.699 106.169 170.699 104.903 171.48 104.121L175.583 100.019C176.354 99.2479 177.635 99.3619 178.258 100.257C178.743 100.953 178.659 101.896 178.059 102.496L177.13 103.425C176.357 104.198 176.357 105.451 177.13 106.224C177.963 107.057 177.889 108.428 176.971 109.167L176.555 109.501C175.76 110.141 174.61 110.079 173.887 109.357L171.48 106.95Z" fill="#1090F9"/>
<path d="M64.6455 118.158V43.7613C64.6455 37.9668 69.3397 33.2726 75.1342 33.2726H108.984C114.778 33.2726 119.473 37.9668 119.473 43.7613V118.158C119.473 123.952 114.778 128.646 108.984 128.646H75.1342C69.3397 128.646 64.6455 123.952 64.6455 118.158Z" fill="#7CDDFD"/>
<path d="M109.058 129.284H75.0613C68.9661 129.284 64.0078 124.326 64.0078 118.231V43.6878C64.0078 37.5927 68.9661 32.6344 75.0613 32.6344H109.058C115.153 32.6344 120.111 37.5927 120.111 43.6878V118.231C120.111 124.326 115.153 129.284 109.058 129.284ZM75.0613 33.9033C69.6702 33.9033 65.284 38.2895 65.284 43.6805V118.223C65.284 123.614 69.6702 128.001 75.0613 128.001H109.058C114.449 128.001 118.835 123.614 118.835 118.223V43.6878C118.835 38.2968 114.449 33.9106 109.058 33.9106H75.0613V33.9033Z" fill="#054375"/>
<path d="M119.48 43.4092H64.6455V115.334H119.48V43.4092Z" fill="white"/>
<path fill-rule="evenodd" clip-rule="evenodd" d="M99.7469 88.9889C102.36 86.611 104 83.1828 104 79.3715C104 72.1918 98.1797 66.3715 91 66.3715C83.8203 66.3715 78 72.1918 78 79.3715C78 83.1828 79.6401 86.611 82.253 88.9888C82.2864 89.0237 82.3226 89.0563 82.3615 89.0865C84.658 91.13 87.684 92.3715 91 92.3715C94.316 92.3715 97.342 91.13 99.6385 89.0864C99.6774 89.0563 99.7135 89.0237 99.7469 88.9889ZM91 68.3715C84.9249 68.3715 80 73.2964 80 79.3715C80 82.1763 81.0498 84.736 82.7779 86.679C83.5648 85.5421 84.582 84.5766 85.7688 83.8482C86.2545 83.5501 86.7627 83.2953 87.2875 83.0854C85.8944 81.9867 85 80.2835 85 78.3715C85 75.0578 87.6863 72.3715 91 72.3715C94.3137 72.3715 97 75.0578 97 78.3715C97 80.2835 96.1056 81.9867 94.7125 83.0854C95.2373 83.2953 95.7455 83.5501 96.2312 83.8482C97.418 84.5766 98.4352 85.5421 99.2221 86.679C100.95 84.736 102 82.1764 102 79.3715C102 73.2964 97.0751 68.3715 91 68.3715ZM97.7418 88.064C97.0922 87.0472 96.2191 86.1874 95.185 85.5527C93.9465 84.7925 92.5249 84.3843 91.0728 84.3711C91.0485 84.3714 91.0243 84.3715 91 84.3715C90.9757 84.3715 90.9515 84.3714 90.9272 84.3711C89.4751 84.3843 88.0535 84.7925 86.815 85.5527C85.7809 86.1874 84.9077 87.0472 84.2582 88.064C86.1203 89.5103 88.4596 90.3715 91 90.3715C93.5404 90.3715 95.8797 89.5104 97.7418 88.064ZM91.0665 82.371C93.245 82.3355 95 80.5584 95 78.3715C95 76.1624 93.2091 74.3715 91 74.3715C88.7909 74.3715 87 76.1624 87 78.3715C87 80.5584 88.755 82.3355 90.9335 82.371C90.9557 82.3708 90.9778 82.3708 91 82.3708C91.0222 82.3708 91.0443 82.3708 91.0665 82.371Z" fill="#054375"/>
<path d="M119.473 115.972H64.6381C64.2861 115.972 64 115.686 64 115.334V43.4092C64 43.0571 64.2861 42.7711 64.6381 42.7711H119.473C119.825 42.7711 120.111 43.0571 120.111 43.4092V115.334C120.111 115.686 119.832 115.972 119.473 115.972ZM65.2836 114.696H118.842V44.0473H65.2836V114.696Z" fill="#054375"/>
<path d="M97.5561 121.143H87.6762C87.3241 121.143 87.0381 120.857 87.0381 120.505C87.0381 120.152 87.3241 119.866 87.6762 119.866H97.5561C97.9081 119.866 98.1942 120.152 98.1942 120.505C98.1942 120.857 97.9081 121.143 97.5561 121.143Z" fill="#054375"/>
<g opacity="0.1294">
<path d="M115.805 43.5411C113.934 43.4897 112.064 43.4017 110.194 43.4237C105.162 43.3724 100.123 43.3797 95.0842 43.4457C91.1234 43.4751 87.1627 43.6364 83.2019 43.3724C78.3463 43.2257 73.4907 42.9323 68.6278 43.1303C67.9457 43.145 67.2635 43.1377 66.5814 43.1083C66.1707 43.079 65.7306 43.0203 65.3565 43.233C63.5008 43.9445 64.0803 46.8197 66.0753 46.7977C68.4444 46.9664 70.8282 46.783 73.1974 46.8344C76.0286 46.8197 78.8524 47.0544 81.6837 47.1131C92.2457 47.1791 102.815 47.2231 113.377 47.0324C114.778 47.0544 116.186 47.0251 117.587 46.9957C118.746 47.1278 119.927 46.5777 119.942 45.2721C119.795 43.0203 117.374 43.6218 115.805 43.5411Z" fill="#054375"/>
</g>
<path d="M128.675 54.8512C115.399 54.8512 104.639 66.0293 104.639 79.8186C104.639 85.5251 106.487 90.7767 109.582 94.9796L106.641 107.06L116.726 101.478C120.247 103.576 124.325 104.786 128.675 104.786C141.95 104.786 152.711 93.6079 152.711 79.8186C152.711 66.0293 141.95 54.8512 128.675 54.8512Z" fill="white"/>
<path d="M106.64 107.698C106.501 107.698 106.369 107.654 106.252 107.566C106.054 107.412 105.958 107.155 106.017 106.906L108.892 95.1115C105.694 90.6593 104 85.3783 104 79.8113C104 65.6919 115.068 54.2057 128.674 54.2057C142.28 54.2057 153.348 65.6919 153.348 79.8113C153.348 93.9306 142.28 105.417 128.674 105.417C124.493 105.417 120.364 104.309 116.711 102.204L106.941 107.61C106.853 107.676 106.743 107.698 106.64 107.698ZM128.674 55.4893C115.772 55.4893 105.276 66.4033 105.276 79.8186C105.276 85.2096 106.941 90.3219 110.095 94.5981C110.205 94.7521 110.249 94.9428 110.198 95.1262L107.601 105.791L116.41 100.913C116.608 100.803 116.85 100.803 117.048 100.921C120.576 103.026 124.596 104.141 128.674 104.141C141.576 104.141 152.072 93.2265 152.072 79.8113C152.072 66.396 141.576 55.4893 128.674 55.4893Z" fill="#054375"/>
<path d="M78.7939 53.0837C78.7939 51.8368 79.8061 50.8319 81.0457 50.8319C82.2853 50.8319 83.2974 51.8441 83.2974 53.0837C83.2974 54.3306 82.2853 55.3354 81.0457 55.3354C79.8061 55.3354 78.7939 54.3306 78.7939 53.0837Z" fill="white"/>
<path d="M81.0461 55.9735C79.4545 55.9735 78.1562 54.6752 78.1562 53.0836C78.1562 51.492 79.4545 50.1937 81.0461 50.1937C82.6378 50.1937 83.936 51.492 83.936 53.0836C83.936 54.6826 82.6378 55.9735 81.0461 55.9735ZM81.0461 51.47C80.1586 51.47 79.4325 52.1961 79.4325 53.0836C79.4325 53.9711 80.1586 54.6973 81.0461 54.6973C81.9336 54.6973 82.6597 53.9711 82.6597 53.0836C82.6597 52.1961 81.9336 51.47 81.0461 51.47Z" fill="#054375"/>
<path d="M89.7021 53.0837C89.7021 51.8368 90.7143 50.8319 91.9539 50.8319C93.2008 50.8319 94.2056 51.8441 94.2056 53.0837C94.2056 54.3306 93.1935 55.3354 91.9539 55.3354C90.7143 55.3354 89.7021 54.3306 89.7021 53.0837Z" fill="white"/>
<path d="M91.9534 55.9735C90.3617 55.9735 89.0635 54.6752 89.0635 53.0836C89.0635 51.492 90.3617 50.1937 91.9534 50.1937C93.545 50.1937 94.8433 51.492 94.8433 53.0836C94.8506 54.6826 93.5523 55.9735 91.9534 55.9735ZM91.9534 51.47C91.0659 51.47 90.3397 52.1961 90.3397 53.0836C90.3397 53.9711 91.0659 54.6973 91.9534 54.6973C92.8409 54.6973 93.567 53.9711 93.567 53.0836C93.5743 52.1961 92.8482 51.47 91.9534 51.47Z" fill="#054375"/>
<path d="M100.615 53.0837C100.615 51.8368 101.627 50.8319 102.867 50.8319C104.114 50.8319 105.119 51.8441 105.119 53.0837C105.119 54.3306 104.107 55.3354 102.867 55.3354C101.62 55.3354 100.615 54.3306 100.615 53.0837Z" fill="white"/>
<path d="M102.867 55.9735C101.276 55.9735 99.9775 54.6752 99.9775 53.0836C99.9775 51.492 101.276 50.1937 102.867 50.1937C104.459 50.1937 105.757 51.492 105.757 53.0836C105.757 54.6826 104.459 55.9735 102.867 55.9735ZM102.867 51.47C101.98 51.47 101.254 52.1961 101.254 53.0836C101.254 53.9711 101.98 54.6973 102.867 54.6973C103.755 54.6973 104.481 53.9711 104.481 53.0836C104.481 52.1961 103.755 51.47 102.867 51.47Z" fill="#054375"/>
<g opacity="0.1294">
<path d="M84.0092 55.0273C83.6864 54.1178 82.3735 53.9858 81.7941 54.7266C81.7867 54.7339 81.7868 54.7339 81.7794 54.7339C81.6988 54.7926 81.618 54.844 81.53 54.8953C81.4273 54.932 81.3173 54.9613 81.2073 54.9833C81.1853 54.9833 81.1706 54.9833 81.1486 54.9907C81.1046 54.9907 81.0606 54.9833 81.0166 54.9833C80.9726 54.976 80.9213 54.9613 80.8626 54.9467C80.7452 54.9173 80.6572 54.8806 80.5985 54.866C80.5325 54.8293 80.4665 54.7926 80.4005 54.756C80.3198 54.6753 80.2318 54.6019 80.1218 54.5359C79.1316 53.8611 77.7893 54.844 78.1194 55.9955C78.4274 56.9124 79.5203 57.3158 80.3932 57.5211C81.7354 57.9026 84.6986 56.7437 84.0092 55.0273Z" fill="#054375"/>
</g>
<g opacity="0.1294">
<path d="M95.2097 54.91C94.931 54.1179 93.7941 53.9125 93.2293 54.514C93.1633 54.58 93.0972 54.6387 93.0239 54.7047C93.0019 54.7193 92.9872 54.734 92.9579 54.7487C92.4958 54.9541 92.5765 54.9174 91.975 54.9761C91.8943 54.9761 91.821 54.9687 91.7403 54.9614C91.6523 54.9394 91.557 54.91 91.491 54.888C91.3589 54.822 91.2269 54.756 91.1022 54.6753C91.0802 54.6607 91.0655 54.6533 91.0508 54.6387C90.9041 54.5066 90.7722 54.3673 90.5815 54.3159C89.4299 53.7732 88.3737 55.3648 89.2832 56.2376C90.3541 57.3158 91.953 57.6239 93.3833 57.2058C94.3148 56.9051 95.7158 56.0689 95.2097 54.91Z" fill="#054375"/>
</g>
<g opacity="0.1294">
<path d="M106.05 55.1447C105.823 54.2939 104.737 54.0518 104.107 54.6019C104.026 54.6533 103.938 54.6973 103.85 54.734C103.806 54.756 103.762 54.7706 103.718 54.7926C103.674 54.8073 103.556 54.8513 103.424 54.888C103.373 54.9027 103.322 54.91 103.278 54.9247C103.175 54.9247 103.072 54.9247 102.97 54.9173C102.368 54.7926 102.376 54.7413 102.207 54.668C101.679 54.3892 101.114 53.9198 100.476 54.0958C99.5224 54.3232 99.339 55.7242 100.204 56.1936C100.703 56.4283 101.136 56.7803 101.664 56.9637C102.258 57.1838 102.911 57.2425 103.542 57.2131C104.649 57.1764 106.388 56.531 106.05 55.1447Z" fill="#054375"/>
</g>
<path d="M74.7381 97.6495C74.6794 97.6495 74.628 97.6275 74.584 97.5835C74.5034 97.4954 74.5034 97.3634 74.5914 97.2827L92.3635 80.2808C92.4515 80.2001 92.5835 80.2001 92.6642 80.2882C92.7449 80.3762 92.7449 80.5082 92.6568 80.5889L74.8848 97.5908C74.8408 97.6275 74.7894 97.6495 74.7381 97.6495Z" fill="#054375"/>
<path d="M74.5105 104.419C74.4592 104.419 74.4005 104.397 74.3638 104.361C74.2758 104.28 74.2758 104.148 74.3565 104.06C80.3196 97.8549 86.4662 91.6497 92.62 85.6059C92.708 85.5252 92.84 85.5252 92.9207 85.6059C93.0014 85.6865 93.0014 85.8259 92.9207 85.9066C86.7742 91.9431 80.6277 98.1483 74.6646 104.353C74.6279 104.397 74.5692 104.419 74.5105 104.419Z" fill="#054375"/>
<path d="M80.4221 104.302C80.3707 104.302 80.312 104.28 80.2754 104.244C80.1947 104.163 80.1947 104.023 80.2754 103.943L93.6906 90.3442C93.7713 90.2635 93.9106 90.2562 93.9913 90.3442C94.072 90.4249 94.0793 90.5642 93.9913 90.6449L80.5761 104.244C80.5321 104.28 80.4734 104.302 80.4221 104.302Z" fill="#054375"/>
<path d="M86.5252 104.596C86.4738 104.596 86.4225 104.574 86.3785 104.537C86.2905 104.456 86.2905 104.324 86.3711 104.236C89.2757 101.214 92.1363 98.0677 94.8574 94.8771C94.9308 94.7891 95.0702 94.7744 95.1582 94.8551C95.2462 94.9284 95.2609 95.0678 95.1802 95.1558C92.4517 98.3537 89.5911 101.508 86.6792 104.537C86.6426 104.574 86.5839 104.596 86.5252 104.596Z" fill="#054375"/>
<path d="M92.686 104.398C92.6347 104.398 92.5833 104.383 92.5466 104.346C92.4586 104.266 92.4513 104.133 92.5246 104.045L96.0746 99.9527C96.1553 99.8647 96.2873 99.8573 96.3753 99.9307C96.4634 100.011 96.4707 100.143 96.3974 100.231L92.8473 104.324C92.8033 104.376 92.7447 104.398 92.686 104.398Z" fill="#054375"/>
<g opacity="0.1294">
<path d="M127.605 103.731C127.319 103.643 127.04 103.679 126.762 103.745C126.659 103.753 126.549 103.753 126.446 103.753C125.243 103.54 124.436 103.533 121.994 102.645C121.935 102.623 121.884 102.601 121.825 102.579C121.723 102.528 121.283 102.315 121.099 102.234C120.285 101.86 119.427 101.604 118.569 101.325C117.865 101.112 117.212 100.701 116.456 100.665C116.126 100.687 115.774 100.753 115.503 100.943C115.275 101.075 115.041 101.193 114.806 101.31C113.016 102.154 111.249 103.056 109.525 104.024C108.806 104.442 108.065 104.809 107.303 105.132C106.951 105.3 106.532 105.396 106.32 105.748C105.498 106.716 106.532 108.256 107.75 107.882C110.706 106.679 113.5 105.124 116.39 103.775C118.18 104.618 120.146 104.963 121.972 105.726C123.505 106.18 125.104 106.826 126.725 106.562C126.6 106.577 126.468 106.599 126.344 106.613C126.879 106.606 127.473 106.694 127.957 106.408C129.065 105.784 128.845 104.053 127.605 103.731Z" fill="#054375"/>
</g>
<path fill-rule="evenodd" clip-rule="evenodd" d="M118.348 79.3717C118.348 73.2966 123.273 68.3717 129.348 68.3717C135.423 68.3717 140.348 73.2966 140.348 79.3717C140.348 85.4468 135.423 90.3717 129.348 90.3717C123.273 90.3717 118.348 85.4468 118.348 79.3717ZM129.348 66.3717C122.168 66.3717 116.348 72.192 116.348 79.3717C116.348 86.5514 122.168 92.3717 129.348 92.3717C136.527 92.3717 142.348 86.5514 142.348 79.3717C142.348 72.192 136.527 66.3717 129.348 66.3717ZM124.345 78.3716C123.792 78.3716 123.345 78.8193 123.345 79.3716C123.345 79.9239 123.792 80.3716 124.345 80.3716H134.35C134.903 80.3716 135.35 79.9239 135.35 79.3716C135.35 78.8193 134.903 78.3716 134.35 78.3716H124.345Z" fill="#D0333D"/>
</svg>
