<svg width="320" height="248" viewBox="0 0 320 248" fill="none" xmlns="http://www.w3.org/2000/svg">
<path opacity="0.3" d="M254.679 129.137C256.232 127.566 256.232 125.02 254.679 123.449L145.393 12.9292C143.685 11.2019 140.861 11.4003 139.406 13.3499L99.1415 67.2889C97.946 68.8903 98.1005 71.1378 99.5035 72.5566L149.71 123.329C151.263 124.9 151.263 127.447 149.71 129.018L93.106 186.26C91.3987 187.987 91.5939 190.841 93.5201 192.314L146.962 233.164C148.546 234.375 150.77 234.219 152.173 232.8L254.679 129.137Z" fill="#1090F9"/>
<path opacity="0.3" d="M253.888 132.632C255.053 133.81 255.053 135.72 253.888 136.898L151.383 240.561C150.33 241.626 148.662 241.742 147.474 240.834L94.0323 199.984C92.5877 198.879 92.4412 196.739 93.7217 195.444L150.326 138.201C152.267 136.238 152.267 133.054 150.326 131.091L100.119 80.3178C99.0669 79.2536 98.9511 77.568 99.8477 76.367L140.112 22.428C141.203 20.9658 143.321 20.817 144.602 22.1125L253.888 132.632Z" stroke="#05BDFB" stroke-width="2"/>
<path opacity="0.3" d="M196.259 26.6185C197.364 26.6185 198.259 27.5139 198.259 28.6185L198.259 31.3717C198.259 32.2621 197.472 32.9471 196.59 32.8242C195.865 32.7232 195.326 32.1034 195.326 31.3717L195.326 31.1827C195.326 30.2819 194.596 29.5517 193.695 29.5517L193.506 29.5517C192.615 29.5517 191.93 28.7646 192.053 27.8827C192.154 27.1579 192.774 26.6185 193.506 26.6185L196.259 26.6185Z" fill="#1090F9"/>
<path opacity="0.3" d="M246.27 71.3224C246.823 72.279 246.495 73.5021 245.538 74.0544L241.454 76.4122C240.403 77.0194 239.057 76.5569 238.601 75.4315L238.56 75.3319C238.186 74.4071 238.55 73.3474 239.414 72.8485L239.929 72.5513C240.885 71.9991 241.213 70.7759 240.661 69.8193L240.356 69.2918C239.749 68.2401 240.211 66.8945 241.337 66.4383L241.436 66.3979C242.361 66.023 243.421 66.3872 243.92 67.2514L246.27 71.3224Z" fill="#1090F9"/>
<path opacity="0.3" d="M148.408 211.678C148.96 212.634 148.632 213.857 147.676 214.41L143.592 216.767C142.54 217.375 141.195 216.912 140.739 215.787L140.698 215.687C140.323 214.762 140.687 213.703 141.552 213.204L142.066 212.907C143.023 212.354 143.351 211.131 142.798 210.175L142.494 209.647C141.887 208.595 142.349 207.25 143.474 206.794L143.574 206.753C144.499 206.378 145.559 206.742 146.058 207.607L148.408 211.678Z" fill="#1090F9"/>
<path opacity="0.3" d="M244.741 168.593C243.96 167.812 243.96 166.545 244.741 165.764L252.143 158.363C253.024 157.482 254.487 157.612 255.199 158.635L255.929 159.685C256.482 160.48 256.386 161.557 255.702 162.241L253.246 164.696C252.465 165.478 252.465 166.744 253.246 167.525L254.7 168.979C255.542 169.82 255.467 171.205 254.54 171.951L252.37 173.697C251.574 174.337 250.424 174.275 249.702 173.553L244.741 168.593Z" fill="#1090F9"/>
<path d="M106.419 176.76V75.3302C106.419 67.4302 112.819 61.0302 120.719 61.0302H166.869C174.769 61.0302 181.169 67.4302 181.169 75.3302V176.76C181.169 184.66 174.769 191.06 166.869 191.06H120.719C112.819 191.06 106.419 184.66 106.419 176.76Z" fill="#7CDDFD"/>
<path d="M166.969 191.93H120.619C112.309 191.93 105.549 185.17 105.549 176.86V75.2301C105.549 66.9201 112.309 60.1602 120.619 60.1602H166.969C175.279 60.1602 182.039 66.9201 182.039 75.2301V176.86C182.039 185.17 175.279 191.93 166.969 191.93ZM120.619 61.8902C113.269 61.8902 107.289 67.8702 107.289 75.2202V176.85C107.289 184.2 113.269 190.18 120.619 190.18H166.969C174.319 190.18 180.299 184.2 180.299 176.85V75.2301C180.299 67.8801 174.319 61.9001 166.969 61.9001H120.619V61.8902Z" fill="#054375"/>
<path d="M181.179 74.8502H106.419V172.91H181.179V74.8502Z" fill="white"/>
<path d="M181.169 173.78H106.409C105.929 173.78 105.539 173.39 105.539 172.91V74.8502C105.539 74.3702 105.929 73.9802 106.409 73.9802H181.169C181.649 73.9802 182.039 74.3702 182.039 74.8502V172.91C182.039 173.39 181.659 173.78 181.169 173.78ZM107.289 172.04H180.309V75.7202H107.289V172.04Z" fill="#054375"/>
<path d="M151.289 180.83H137.819C137.339 180.83 136.949 180.44 136.949 179.96C136.949 179.48 137.339 179.09 137.819 179.09H151.289C151.769 179.09 152.159 179.48 152.159 179.96C152.159 180.44 151.769 180.83 151.289 180.83Z" fill="#054375"/>
<g opacity="0.1294">
<path d="M176.169 75.0302C173.619 74.9602 171.069 74.8402 168.519 74.8702C161.659 74.8002 154.789 74.8102 147.919 74.9002C142.519 74.9402 137.119 75.1602 131.719 74.8002C125.099 74.6002 118.479 74.2002 111.849 74.4702C110.919 74.4902 109.989 74.4802 109.059 74.4402C108.499 74.4002 107.899 74.3202 107.389 74.6102C104.859 75.5802 105.649 79.5002 108.369 79.4702C111.599 79.7002 114.849 79.4502 118.079 79.5202C121.939 79.5002 125.789 79.8202 129.649 79.9002C144.049 79.9902 158.459 80.0502 172.859 79.7902C174.769 79.8202 176.689 79.7802 178.599 79.7402C180.179 79.9202 181.789 79.1702 181.809 77.3902C181.609 74.3202 178.309 75.1402 176.169 75.0302Z" fill="#054375"/>
</g>
<path d="M125.709 88.0401C125.709 86.3401 127.089 84.9702 128.779 84.9702C130.469 84.9702 131.849 86.3501 131.849 88.0401C131.849 89.7401 130.469 91.1102 128.779 91.1102C127.089 91.1102 125.709 89.7401 125.709 88.0401Z" fill="white"/>
<path d="M128.779 91.9801C126.609 91.9801 124.839 90.2101 124.839 88.0401C124.839 85.8701 126.609 84.1002 128.779 84.1002C130.949 84.1002 132.719 85.8701 132.719 88.0401C132.719 90.2201 130.949 91.9801 128.779 91.9801ZM128.779 85.8401C127.569 85.8401 126.579 86.8301 126.579 88.0401C126.579 89.2501 127.569 90.2402 128.779 90.2402C129.989 90.2402 130.979 89.2501 130.979 88.0401C130.979 86.8301 129.989 85.8401 128.779 85.8401Z" fill="#054375"/>
<path d="M140.579 88.0401C140.579 86.3401 141.959 84.9702 143.649 84.9702C145.349 84.9702 146.719 86.3501 146.719 88.0401C146.719 89.7401 145.339 91.1102 143.649 91.1102C141.959 91.1102 140.579 89.7401 140.579 88.0401Z" fill="white"/>
<path d="M143.649 91.9801C141.479 91.9801 139.709 90.2101 139.709 88.0401C139.709 85.8701 141.479 84.1002 143.649 84.1002C145.819 84.1002 147.589 85.8701 147.589 88.0401C147.599 90.2201 145.829 91.9801 143.649 91.9801ZM143.649 85.8401C142.439 85.8401 141.449 86.8301 141.449 88.0401C141.449 89.2501 142.439 90.2402 143.649 90.2402C144.859 90.2402 145.849 89.2501 145.849 88.0401C145.859 86.8301 144.869 85.8401 143.649 85.8401Z" fill="#054375"/>
<path d="M155.459 88.0401C155.459 86.3401 156.839 84.9702 158.529 84.9702C160.229 84.9702 161.599 86.3501 161.599 88.0401C161.599 89.7401 160.219 91.1102 158.529 91.1102C156.829 91.1102 155.459 89.7401 155.459 88.0401Z" fill="white"/>
<path d="M158.529 91.9801C156.359 91.9801 154.589 90.2101 154.589 88.0401C154.589 85.8701 156.359 84.1002 158.529 84.1002C160.699 84.1002 162.469 85.8701 162.469 88.0401C162.469 90.2201 160.699 91.9801 158.529 91.9801ZM158.529 85.8401C157.319 85.8401 156.329 86.8301 156.329 88.0401C156.329 89.2501 157.319 90.2402 158.529 90.2402C159.739 90.2402 160.729 89.2501 160.729 88.0401C160.729 86.8301 159.739 85.8401 158.529 85.8401Z" fill="#054375"/>
<g opacity="0.1294">
<path d="M132.819 90.6902C132.379 89.4502 130.589 89.2702 129.799 90.2802C129.789 90.2902 129.789 90.2902 129.779 90.2902C129.669 90.3702 129.559 90.4402 129.439 90.5102C129.299 90.5602 129.149 90.6002 128.999 90.6302C128.969 90.6302 128.949 90.6302 128.919 90.6402C128.859 90.6402 128.799 90.6302 128.739 90.6302C128.679 90.6202 128.609 90.6002 128.529 90.5802C128.369 90.5402 128.249 90.4902 128.169 90.4702C128.079 90.4202 127.989 90.3702 127.899 90.3202C127.789 90.2102 127.669 90.1102 127.519 90.0202C126.169 89.1002 124.339 90.4402 124.789 92.0102C125.209 93.2602 126.699 93.8102 127.889 94.0902C129.719 94.6102 133.759 93.0302 132.819 90.6902Z" fill="#054375"/>
</g>
<g opacity="0.1294">
<path d="M148.089 90.5301C147.709 89.4501 146.159 89.1701 145.389 89.9901C145.299 90.0801 145.209 90.1601 145.109 90.2501C145.079 90.2701 145.059 90.2901 145.019 90.3101C144.389 90.5901 144.499 90.5401 143.679 90.6201C143.569 90.6201 143.469 90.6101 143.359 90.6001C143.239 90.5701 143.109 90.5301 143.019 90.5001C142.839 90.4101 142.659 90.3201 142.489 90.2101C142.459 90.1901 142.439 90.1801 142.419 90.1601C142.219 89.9801 142.039 89.7901 141.779 89.7201C140.209 88.9801 138.769 91.1501 140.009 92.3401C141.469 93.8101 143.649 94.2301 145.599 93.6601C146.869 93.2501 148.779 92.1101 148.089 90.5301Z" fill="#054375"/>
</g>
<g opacity="0.1294">
<path d="M162.869 90.8502C162.559 89.6902 161.079 89.3602 160.219 90.1102C160.109 90.1802 159.989 90.2402 159.869 90.2902C159.809 90.3202 159.749 90.3402 159.689 90.3702C159.629 90.3902 159.469 90.4502 159.289 90.5002C159.219 90.5202 159.149 90.5302 159.089 90.5502C158.949 90.5502 158.809 90.5502 158.669 90.5402C157.849 90.3702 157.859 90.3002 157.629 90.2002C156.909 89.8202 156.139 89.1802 155.269 89.4202C153.969 89.7302 153.719 91.6402 154.899 92.2802C155.579 92.6002 156.169 93.0801 156.889 93.3301C157.699 93.6301 158.589 93.7102 159.449 93.6702C160.959 93.6202 163.329 92.7402 162.869 90.8502Z" fill="#054375"/>
</g>
<path d="M120.179 148.8C120.099 148.8 120.029 148.77 119.969 148.71C119.859 148.59 119.859 148.41 119.979 148.3L144.209 125.12C144.329 125.01 144.509 125.01 144.619 125.13C144.729 125.25 144.729 125.43 144.609 125.54L120.379 148.72C120.319 148.77 120.249 148.8 120.179 148.8Z" fill="#054375"/>
<path d="M119.869 158.03C119.799 158.03 119.719 158 119.669 157.95C119.549 157.84 119.549 157.66 119.659 157.54C127.789 149.08 136.169 140.62 144.559 132.38C144.679 132.27 144.859 132.27 144.969 132.38C145.079 132.49 145.079 132.68 144.969 132.79C136.589 141.02 128.209 149.48 120.079 157.94C120.029 158 119.949 158.03 119.869 158.03Z" fill="#054375"/>
<path d="M127.929 157.87C127.859 157.87 127.779 157.84 127.729 157.79C127.619 157.68 127.619 157.49 127.729 157.38L146.019 138.84C146.129 138.73 146.319 138.72 146.429 138.84C146.539 138.95 146.549 139.14 146.429 139.25L128.139 157.79C128.079 157.84 127.999 157.87 127.929 157.87Z" fill="#054375"/>
<path d="M136.249 158.27C136.179 158.27 136.109 158.24 136.049 158.19C135.929 158.08 135.929 157.9 136.039 157.78C139.999 153.66 143.899 149.37 147.609 145.02C147.709 144.9 147.899 144.88 148.019 144.99C148.139 145.09 148.159 145.28 148.049 145.4C144.329 149.76 140.429 154.06 136.459 158.19C136.409 158.24 136.329 158.27 136.249 158.27Z" fill="#054375"/>
<path d="M144.649 158C144.579 158 144.509 157.98 144.459 157.93C144.339 157.82 144.329 157.64 144.429 157.52L149.269 151.94C149.379 151.82 149.559 151.81 149.679 151.91C149.799 152.02 149.809 152.2 149.709 152.32L144.869 157.9C144.809 157.97 144.729 158 144.649 158Z" fill="#054375"/>
<path d="M180.968 90.4503C162.868 90.4503 148.198 105.69 148.198 124.49C148.198 132.27 150.718 139.43 154.938 145.16L150.928 161.63L164.678 154.02C169.478 156.88 175.038 158.53 180.968 158.53C199.068 158.53 213.738 143.29 213.738 124.49C213.738 105.69 199.068 90.4503 180.968 90.4503Z" fill="white"/>
<path d="M150.928 162.5C150.738 162.5 150.558 162.44 150.398 162.32C150.128 162.11 149.998 161.76 150.078 161.42L153.998 145.34C149.638 139.27 147.328 132.07 147.328 124.48C147.328 105.23 162.418 89.5703 180.968 89.5703C199.518 89.5703 214.608 105.23 214.608 124.48C214.608 143.73 199.518 159.39 180.968 159.39C175.268 159.39 169.638 157.88 164.658 155.01L151.338 162.38C151.218 162.47 151.068 162.5 150.928 162.5ZM180.968 91.3203C163.378 91.3203 149.068 106.2 149.068 124.49C149.068 131.84 151.338 138.81 155.638 144.64C155.788 144.85 155.848 145.11 155.778 145.36L152.238 159.9L164.248 153.25C164.518 153.1 164.848 153.1 165.118 153.26C169.928 156.13 175.408 157.65 180.968 157.65C198.558 157.65 212.868 142.77 212.868 124.48C212.868 106.19 198.558 91.3203 180.968 91.3203Z" fill="#054375"/>
<path opacity="0.1" d="M179.999 158.491C179.609 158.371 179.229 158.421 178.849 158.511C178.709 158.521 178.559 158.521 178.419 158.521C176.779 158.231 175.679 158.221 172.349 157.011C172.269 156.981 172.199 156.951 172.119 156.921C171.979 156.851 171.379 156.561 171.129 156.451C170.019 155.941 168.849 155.591 167.679 155.211C166.719 154.921 165.829 154.361 164.799 154.311C164.349 154.341 163.869 154.431 163.499 154.691C163.189 154.871 162.869 155.031 162.549 155.191C160.109 156.341 157.699 157.571 155.349 158.891C154.369 159.461 153.359 159.961 152.319 160.401C151.839 160.631 151.269 160.761 150.979 161.241C149.859 162.561 151.269 164.661 152.929 164.151C156.959 162.511 160.769 160.391 164.709 158.551C167.149 159.701 169.829 160.171 172.319 161.211C174.409 161.831 176.589 162.711 178.799 162.351C178.629 162.371 178.449 162.401 178.279 162.421C179.009 162.411 179.819 162.531 180.479 162.141C181.989 161.291 181.689 158.931 179.999 158.491Z" fill="#054375"/>
<path d="M177.859 112.091C180.857 111.414 183.993 111.724 186.8 112.975C187.598 113.33 188.534 112.971 188.89 112.173C189.246 111.374 188.887 110.438 188.089 110.082C184.658 108.553 180.825 108.175 177.162 109.002C173.498 109.83 170.2 111.82 167.76 114.675C165.32 117.53 163.868 121.097 163.621 124.845C163.374 128.593 164.345 132.32 166.389 135.47C168.433 138.621 171.441 141.027 174.964 142.328C178.487 143.63 182.337 143.758 185.938 142.693C189.54 141.628 192.701 139.427 194.95 136.419C197.198 133.411 198.414 129.757 198.417 126.001V124.543C198.417 123.669 197.708 122.96 196.833 122.96C195.959 122.96 195.25 123.669 195.25 124.543V125.999C195.248 129.072 194.253 132.062 192.413 134.523C190.573 136.984 187.987 138.785 185.04 139.656C182.094 140.527 178.944 140.423 176.062 139.358C173.179 138.293 170.718 136.325 169.046 133.747C167.373 131.169 166.579 128.12 166.781 125.053C166.983 121.987 168.171 119.068 170.167 116.732C172.164 114.396 174.862 112.768 177.859 112.091Z" fill="#26A94D"/>
<path d="M197.953 114.452C198.571 113.834 198.571 112.831 197.952 112.213C197.334 111.595 196.331 111.596 195.713 112.214L180.999 126.943L177.37 123.313C176.751 122.695 175.749 122.695 175.13 123.313C174.512 123.931 174.512 124.934 175.13 125.552L179.88 130.302C180.177 130.599 180.58 130.766 181 130.766C181.42 130.766 181.823 130.599 182.12 130.302L197.953 114.452Z" fill="#26A94D"/>
</svg>
