<svg width="208" height="160" viewBox="0 0 208 160" fill="none" xmlns="http://www.w3.org/2000/svg">
<defs>
<linearGradient id="paint0_linear_3816_21944" x1="97.9868" y1="56.886" x2="107.474" y2="47.4037" gradientUnits="userSpaceOnUse">
<stop stop-color="#8CD133"/>
<stop offset="1" stop-color="#05BDFB"/>
</linearGradient>
</defs>
<path opacity="0.3" d="M176.686 80.5176C178.24 78.9467 178.24 76.3999 176.686 74.8291L105.925 3.26919C104.217 1.5419 101.393 1.74035 99.9379 3.68995L74.74 37.4457C73.5446 39.0472 73.699 41.2946 75.102 42.7134L106.781 74.7496C108.334 76.3204 108.334 78.8673 106.781 80.4381L71.1033 116.518C69.396 118.245 69.5912 121.099 71.5174 122.571L104.968 148.14C106.551 149.351 108.775 149.195 110.179 147.776L176.686 80.5176Z" fill="#1090F9"/>
<path opacity="0.3" d="M175.925 81.1822C177.09 82.3603 177.09 84.2705 175.925 85.4486L109.417 152.707C108.365 153.771 106.697 153.888 105.509 152.98L72.0589 127.411C70.6143 126.307 70.4678 124.166 71.7483 122.871L107.426 86.7913C109.367 84.8277 109.367 81.6442 107.426 79.6806L75.747 47.6445C74.6948 46.5804 74.579 44.8948 75.4755 43.6937L100.673 9.93792C101.765 8.47571 103.883 8.32688 105.164 9.62234L175.925 81.1822Z" stroke="#05BDFB" stroke-width="2"/>
<path opacity="0.3" d="M138.057 11.2937C139.159 11.2937 140.052 12.187 140.052 13.2889L140.052 14.4591C140.052 15.0522 139.528 15.5083 138.941 15.4265C138.458 15.3592 138.099 14.9465 138.099 14.4591L138.099 14.3333C138.099 13.7334 137.613 13.2471 137.013 13.2471L136.887 13.2471C136.294 13.2471 135.838 12.7229 135.92 12.1356C135.987 11.6529 136.4 11.2937 136.887 11.2937L138.057 11.2937Z" fill="#1090F9"/>
<path opacity="0.3" d="M171.692 40.4863C172.244 41.4428 171.916 42.666 170.96 43.2183L168.854 44.4341C168.135 44.8492 167.215 44.533 166.903 43.7636C166.647 43.1313 166.896 42.4069 167.487 42.0657L167.639 41.9777C168.366 41.5577 168.616 40.6277 168.196 39.9004L168.108 39.7478C167.693 39.0288 168.009 38.1088 168.778 37.7969C169.41 37.5406 170.135 37.7896 170.476 38.3804L171.692 40.4863Z" fill="#1090F9"/>
<path opacity="0.3" d="M106.519 133.958C107.071 134.914 106.744 136.137 105.787 136.69L103.681 137.906C102.962 138.321 102.042 138.004 101.73 137.235C101.474 136.603 101.723 135.878 102.314 135.537L102.466 135.449C103.194 135.029 103.443 134.099 103.023 133.372L102.935 133.219C102.52 132.5 102.836 131.58 103.605 131.268C104.238 131.012 104.962 131.261 105.303 131.852L106.519 133.958Z" fill="#1090F9"/>
<path opacity="0.3" d="M171.48 106.316C170.699 105.535 170.699 104.268 171.48 103.487L175.583 99.3849C176.354 98.6136 177.635 98.7276 178.258 99.623C178.743 100.319 178.659 101.262 178.059 101.861L177.13 102.791C176.357 103.564 176.357 104.817 177.13 105.59C177.963 106.423 177.889 107.794 176.971 108.532L176.555 108.867C175.76 109.507 174.61 109.445 173.887 108.723L171.48 106.316Z" fill="#1090F9"/>
<path d="M68.8289 127.741V32.2777C68.8289 24.8424 74.8524 18.8188 82.2877 18.8188H125.723C133.158 18.8188 139.182 24.8424 139.182 32.2777V127.741C139.182 135.177 133.158 141.2 125.723 141.2H82.2877C74.8524 141.2 68.8289 135.177 68.8289 127.741Z" fill="#7CDDFD"/>
<path d="M125.817 142.019H82.1933C74.3721 142.019 68.0098 135.656 68.0098 127.835V32.1835C68.0098 24.3623 74.3721 18 82.1933 18H125.817C133.638 18 140 24.3623 140 32.1835V127.835C140 135.656 133.638 142.019 125.817 142.019ZM82.1933 19.6282C75.2757 19.6282 69.6474 25.2565 69.6474 32.1741V127.826C69.6474 134.744 75.2757 140.372 82.1933 140.372H125.817C132.734 140.372 138.363 134.744 138.363 127.826V32.1835C138.363 25.2659 132.734 19.6376 125.817 19.6376H82.1933V19.6282Z" fill="#054375"/>
<path d="M139.191 31.8257H68.8289V124.117H139.191V31.8257Z" fill="white"/>
<rect x="77.7197" y="83.228" width="52.7753" height="7.36401" rx="2" fill="#EFF2F6"/>
<rect x="77.7197" y="94.592" width="16.4704" height="17.7957" rx="2" fill="#EFF2F6"/>
<rect x="98.7822" y="94.592" width="31.7176" height="17.7957" rx="2" fill="#EFF2F6"/>
<path d="M104.703 58.6843V69.1162C104.703 70.7521 105.548 71.617 107.147 71.617C107.976 71.617 109.033 71.4438 110.139 71.1285L110.809 75.7799C109.419 76.3526 106.979 76.7328 105.5 76.7328C100.979 76.7328 98.7822 74.5232 98.7822 69.9772V58.6843H104.703Z" fill="#054375"/>
<path d="M97.78 56.6788H110.809L109.982 50.7402H103.716V43.6438L97.78 44.4714V56.6788Z" fill="url(#paint0_linear_3816_21944)"/>
<path d="M139.181 124.936H68.8191C68.3673 124.936 68.0002 124.569 68.0002 124.117V31.8257C68.0002 31.3739 68.3673 31.0068 68.8191 31.0068H139.181C139.633 31.0068 140 31.3739 140 31.8257V124.117C140 124.569 139.643 124.936 139.181 124.936ZM69.6473 123.299H138.372V32.6445H69.6473V123.299Z" fill="#054375"/>
<path d="M111.06 131.572H98.3821C97.9303 131.572 97.5632 131.205 97.5632 130.753C97.5632 130.301 97.9303 129.934 98.3821 129.934H111.06C111.511 129.934 111.878 130.301 111.878 130.753C111.878 131.205 111.511 131.572 111.06 131.572Z" fill="#054375"/>
<g opacity="0.1294">
<path d="M134.476 31.9954C132.076 31.9296 129.676 31.8166 127.276 31.8448C120.819 31.779 114.353 31.7884 107.887 31.8731C102.805 31.9107 97.7227 32.1178 92.6403 31.779C86.4097 31.5907 80.1791 31.2143 73.9391 31.4684C73.0638 31.4872 72.1886 31.4778 71.3133 31.4401C70.7862 31.4025 70.2215 31.3272 69.7415 31.6001C67.3603 32.5131 68.1039 36.2025 70.6639 36.1743C73.7039 36.3907 76.7627 36.1554 79.8027 36.2213C83.4356 36.2025 87.0592 36.5037 90.6921 36.579C104.245 36.6637 117.807 36.7201 131.36 36.4754C133.158 36.5037 134.965 36.466 136.763 36.4284C138.25 36.5978 139.765 35.8919 139.784 34.2166C139.596 31.3272 136.49 32.099 134.476 31.9954Z" fill="#054375"/>
</g>
<g opacity="0.1294">
<path d="M138.08 110.546C137.713 110.433 137.356 110.48 136.998 110.565C136.866 110.574 136.725 110.574 136.593 110.574C135.05 110.301 134.014 110.292 130.88 109.153C130.805 109.125 130.739 109.097 130.664 109.068C130.532 109.002 129.967 108.729 129.732 108.626C128.687 108.146 127.586 107.817 126.485 107.459C125.581 107.186 124.744 106.659 123.774 106.612C123.351 106.64 122.899 106.725 122.551 106.969C122.259 107.139 121.958 107.289 121.657 107.44C119.36 108.522 117.092 109.68 114.88 110.922C113.958 111.459 113.007 111.929 112.028 112.344C111.577 112.56 111.04 112.682 110.767 113.134C109.713 114.377 111.04 116.353 112.603 115.873C116.396 114.329 119.981 112.334 123.69 110.602C125.986 111.685 128.509 112.127 130.852 113.106C132.819 113.689 134.871 114.518 136.951 114.179C136.791 114.198 136.621 114.226 136.461 114.245C137.149 114.235 137.911 114.348 138.532 113.981C139.953 113.181 139.671 110.96 138.08 110.546Z" fill="#054375"/>
</g>
<path d="M135.064 61.0999C121.788 61.0999 111.028 72.278 111.028 86.0673C111.028 91.7737 112.876 97.0254 115.971 101.228L113.03 113.309L123.115 107.727C126.636 109.825 130.714 111.035 135.064 111.035C148.34 111.035 159.1 99.8566 159.1 86.0673C159.1 72.278 148.34 61.0999 135.064 61.0999Z" fill="white"/>
<path d="M113.03 113.947C112.891 113.947 112.759 113.903 112.641 113.815C112.443 113.661 112.348 113.404 112.407 113.154L115.282 101.36C112.084 96.908 110.39 91.627 110.39 86.0599C110.39 71.9405 121.458 60.4543 135.064 60.4543C148.67 60.4543 159.738 71.9405 159.738 86.0599C159.738 100.179 148.67 111.665 135.064 111.665C130.883 111.665 126.753 110.558 123.101 108.453L113.331 113.859C113.243 113.925 113.133 113.947 113.03 113.947ZM135.064 61.7379C122.162 61.7379 111.666 72.652 111.666 86.0672C111.666 91.4583 113.331 96.5706 116.485 100.847C116.595 101.001 116.639 101.191 116.588 101.375L113.991 112.04L122.8 107.162C122.998 107.052 123.24 107.052 123.438 107.169C126.966 109.274 130.986 110.389 135.064 110.389C147.965 110.389 158.462 99.4752 158.462 86.0599C158.462 72.6447 147.965 61.7379 135.064 61.7379Z" fill="#054375"/>
<path d="M148.793 81.6C148.693 81.2 148.493 80.8 148.193 80.5C147.893 80.2 147.593 79.9 147.193 79.7C146.793 79.5 146.393 79.4 145.993 79.4H139.193V77.4C139.193 76.1 138.693 74.8 137.693 73.9C136.793 73 135.493 72.5 134.193 72.5C133.793 72.5 133.493 72.7 133.293 73.1L128.593 82.5H123.193C122.693 82.5 122.193 82.7 121.793 83.1C121.393 83.5 121.193 84 121.193 84.5V95.5C121.193 96 121.393 96.5 121.793 96.9C122.193 97.3 122.693 97.5 123.193 97.5H144.393C145.093 97.5 145.793 97.2 146.393 96.7C146.893 96.2 147.293 95.6 147.393 94.8L148.893 82.8C148.993 82.5 148.893 82 148.793 81.6ZM123.193 84.5H128.193V95.5H123.193V84.5ZM145.393 94.6C145.393 94.8 145.293 95.1 145.093 95.2C144.893 95.4 144.693 95.5 144.393 95.5H130.193V83.7L134.793 74.5C135.393 74.6 135.893 74.9 136.293 75.3C136.893 75.9 137.193 76.6 137.193 77.4V80.4C137.193 81 137.593 81.4 138.193 81.4H145.893C145.993 81.4 146.193 81.4 146.293 81.5C146.393 81.6 146.493 81.6 146.593 81.7C146.693 81.8 146.793 81.9 146.793 82.1C146.793 82.2 146.893 82.4 146.793 82.5L145.393 94.6Z" fill="#8CD133"/>
</svg>
