<svg width="320" height="248" viewBox="0 0 320 248" fill="none" xmlns="http://www.w3.org/2000/svg">
<path opacity="0.3" d="M254.679 129.137C256.232 127.566 256.232 125.02 254.679 123.449L145.393 12.9292C143.685 11.2019 140.861 11.4004 139.406 13.35L99.1415 67.2889C97.946 68.8903 98.1005 71.1378 99.5035 72.5566L149.71 123.329C151.263 124.9 151.263 127.447 149.71 129.018L93.106 186.261C91.3987 187.987 91.5939 190.841 93.5201 192.314L146.962 233.164C148.546 234.375 150.77 234.219 152.173 232.8L254.679 129.137Z" fill="#1090F9"/>
<path opacity="0.3" d="M253.889 132.632C255.054 133.811 255.054 135.721 253.889 136.899L151.383 240.561C150.33 241.626 148.663 241.743 147.475 240.835L94.0328 199.984C92.5882 198.88 92.4417 196.739 93.7222 195.444L150.326 138.202C152.268 136.238 152.268 133.055 150.326 131.091L100.12 80.3182C99.0674 79.2541 98.9516 77.5685 99.8482 76.3674L140.112 22.4285C141.204 20.9663 143.322 20.8174 144.603 22.1129L253.889 132.632Z" stroke="#05BDFB" stroke-width="2"/>
<path opacity="0.3" d="M196.259 26.6182C197.363 26.6182 198.259 27.5136 198.259 28.6182L198.259 31.3713C198.259 32.2618 197.472 32.9468 196.59 32.8239C195.865 32.7229 195.325 32.1031 195.325 31.3713L195.325 31.1824C195.325 30.2816 194.595 29.5514 193.694 29.5514L193.505 29.5514C192.615 29.5514 191.93 28.7643 192.053 27.8823C192.154 27.1576 192.774 26.6182 193.505 26.6182L196.259 26.6182Z" fill="#1090F9"/>
<path opacity="0.3" d="M246.27 71.322C246.823 72.2786 246.495 73.5018 245.538 74.0541L241.455 76.4119C240.403 77.0191 239.057 76.5566 238.601 75.4312L238.561 75.3316C238.186 74.4067 238.55 73.3471 239.414 72.8481L239.929 72.551C240.885 71.9987 241.213 70.7755 240.661 69.819L240.356 69.2915C239.749 68.2398 240.212 66.8942 241.337 66.438L241.437 66.3976C242.361 66.0227 243.421 66.3868 243.92 67.2511L246.27 71.322Z" fill="#1090F9"/>
<path opacity="0.3" d="M148.408 211.678C148.96 212.634 148.633 213.857 147.676 214.41L143.592 216.767C142.541 217.375 141.195 216.912 140.739 215.787L140.698 215.687C140.324 214.762 140.688 213.703 141.552 213.204L142.067 212.907C143.023 212.354 143.351 211.131 142.799 210.174L142.494 209.647C141.887 208.595 142.349 207.25 143.475 206.793L143.574 206.753C144.499 206.378 145.559 206.742 146.058 207.607L148.408 211.678Z" fill="#1090F9"/>
<path opacity="0.3" d="M244.741 168.593C243.96 167.812 243.96 166.545 244.741 165.764L252.142 158.363C253.023 157.482 254.487 157.612 255.198 158.635L255.929 159.685C256.482 160.48 256.386 161.557 255.701 162.241L253.246 164.697C252.465 165.478 252.465 166.744 253.246 167.525L254.7 168.979C255.541 169.82 255.467 171.206 254.54 171.951L252.37 173.697C251.574 174.338 250.424 174.275 249.702 173.553L244.741 168.593Z" fill="#1090F9"/>
<path d="M101.507 188.892V72.8777C101.507 63.8417 108.827 56.5215 117.863 56.5215H170.649C179.685 56.5215 187.005 63.8417 187.005 72.8777V188.892C187.005 197.928 179.685 205.249 170.649 205.249H117.863C108.827 205.249 101.507 197.928 101.507 188.892Z" fill="#7CDDFD"/>
<path d="M170.763 206.244H117.749C108.244 206.244 100.512 198.512 100.512 189.007V72.7633C100.512 63.2584 108.244 55.5264 117.749 55.5264H170.763C180.268 55.5264 188 63.2584 188 72.7633V189.007C188 198.512 180.268 206.244 170.763 206.244ZM117.749 57.5051C109.342 57.5051 102.502 64.345 102.502 72.7519V188.995C102.502 197.402 109.342 204.242 117.749 204.242H170.763C179.17 204.242 186.01 197.402 186.01 188.995V72.7633C186.01 64.3564 179.17 57.5166 170.763 57.5166H117.749V57.5051Z" fill="#054375"/>
<path d="M187.016 72.3287H101.507V184.489H187.016V72.3287Z" fill="white"/>
<path d="M187.005 185.484H101.495C100.946 185.484 100.5 185.038 100.5 184.489V72.3287C100.5 71.7796 100.946 71.3336 101.495 71.3336H187.005C187.554 71.3336 188 71.7796 188 72.3287V184.489C188 185.038 187.565 185.484 187.005 185.484ZM102.502 183.494H186.021V73.3238H102.502V183.494Z" fill="#054375"/>
<path d="M152.828 193.548H137.422C136.873 193.548 136.427 193.102 136.427 192.553C136.427 192.004 136.873 191.557 137.422 191.557H152.828C153.377 191.557 153.824 192.004 153.824 192.553C153.824 193.102 153.377 193.548 152.828 193.548Z" fill="#054375"/>
<g opacity="0.1294">
<path d="M181.286 72.5346C178.369 72.4545 175.453 72.3172 172.536 72.3515C164.69 72.2715 156.832 72.2829 148.974 72.3859C142.797 72.4316 136.621 72.6833 130.444 72.2715C122.873 72.0427 115.301 71.5852 107.717 71.894C106.654 71.9169 105.59 71.9055 104.526 71.8597C103.886 71.814 103.199 71.7225 102.616 72.0542C99.7222 73.1636 100.626 77.6473 103.737 77.613C107.431 77.8761 111.149 77.5901 114.843 77.6702C119.258 77.6473 123.662 78.0133 128.077 78.1048C144.547 78.2078 161.029 78.2764 177.5 77.979C179.685 78.0133 181.881 77.9676 184.065 77.9218C185.873 78.1277 187.714 77.2698 187.737 75.2339C187.508 71.7225 183.734 72.6604 181.286 72.5346Z" fill="#054375"/>
</g>
<path d="M148.872 177.902C148.792 177.902 148.701 177.868 148.644 177.811C148.506 177.685 148.506 177.479 148.632 177.342C157.931 167.665 167.516 157.989 177.113 148.564C177.25 148.438 177.456 148.438 177.582 148.564C177.707 148.69 177.707 148.907 177.582 149.033C167.997 158.446 158.412 168.123 149.113 177.799C149.055 177.868 148.964 177.902 148.872 177.902Z" fill="#054375"/>
<path d="M158.091 177.719C158.011 177.719 157.92 177.685 157.863 177.628C157.737 177.502 157.737 177.284 157.863 177.159L178.783 155.953C178.908 155.827 179.126 155.815 179.251 155.953C179.377 156.079 179.389 156.296 179.251 156.422L158.332 177.628C158.263 177.685 158.171 177.719 158.091 177.719Z" fill="#054375"/>
<path d="M167.608 178.177C167.528 178.177 167.448 178.142 167.379 178.085C167.242 177.959 167.242 177.753 167.368 177.616C171.897 172.904 176.358 167.997 180.601 163.021C180.716 162.884 180.933 162.861 181.07 162.987C181.207 163.101 181.23 163.319 181.104 163.456C176.85 168.443 172.389 173.361 167.848 178.085C167.791 178.142 167.699 178.177 167.608 178.177Z" fill="#054375"/>
<path d="M177.216 177.868C177.136 177.868 177.055 177.845 176.998 177.788C176.861 177.662 176.85 177.456 176.964 177.319L182.5 170.936C182.626 170.799 182.832 170.788 182.969 170.902C183.106 171.028 183.118 171.234 183.003 171.371L177.467 177.753C177.399 177.833 177.307 177.868 177.216 177.868Z" fill="#054375"/>
</svg>
