<svg width="208" height="160" viewBox="0 0 208 160" fill="none" xmlns="http://www.w3.org/2000/svg">
<path opacity="0.3" d="M176.686 80.5175C178.24 78.9467 178.24 76.3998 176.686 74.829L105.925 3.26913C104.217 1.54184 101.393 1.74029 99.938 3.68989L74.7401 37.4457C73.5447 39.0471 73.6991 41.2946 75.1021 42.7134L106.781 74.7495C108.334 76.3204 108.334 78.8672 106.781 80.438L71.1034 116.518C69.3961 118.245 69.5914 121.099 71.5175 122.571L104.968 148.14C106.551 149.351 108.775 149.195 110.179 147.776L176.686 80.5175Z" fill="#1090F9"/>
<path opacity="0.3" d="M175.925 81.1825C177.09 82.3606 177.09 84.2707 175.925 85.4488L109.417 152.707C108.365 153.772 106.697 153.888 105.509 152.98L72.0589 127.411C70.6143 126.307 70.4678 124.166 71.7483 122.872L107.426 86.7915C109.367 84.828 109.367 81.6444 107.426 79.6809L75.747 47.6447C74.6948 46.5806 74.579 44.895 75.4755 43.6939L100.673 9.93816C101.765 8.47596 103.883 8.32712 105.164 9.62258L175.925 81.1825Z" stroke="#05BDFB" stroke-width="2"/>
<path opacity="0.3" d="M138.057 11.2936C139.159 11.2936 140.052 12.1869 140.052 13.2888L140.052 14.4591C140.052 15.0521 139.528 15.5083 138.941 15.4264C138.458 15.3592 138.099 14.9464 138.099 14.4591L138.099 14.3333C138.099 13.7334 137.613 13.2471 137.013 13.2471L136.887 13.2471C136.294 13.2471 135.838 12.7229 135.92 12.1355C135.987 11.6529 136.4 11.2936 136.887 11.2936L138.057 11.2936Z" fill="#1090F9"/>
<path opacity="0.3" d="M171.692 40.4863C172.244 41.4429 171.916 42.6661 170.96 43.2184L168.854 44.4342C168.135 44.8493 167.215 44.5331 166.903 43.7637C166.647 43.1314 166.896 42.4069 167.487 42.0658L167.639 41.9777C168.366 41.5578 168.616 40.6278 168.196 39.9004L168.108 39.7479C167.693 39.0289 168.009 38.1089 168.778 37.797C169.41 37.5406 170.135 37.7896 170.476 38.3805L171.692 40.4863Z" fill="#1090F9"/>
<path opacity="0.3" d="M106.519 133.958C107.071 134.914 106.744 136.137 105.787 136.69L103.681 137.905C102.962 138.321 102.042 138.004 101.73 137.235C101.474 136.603 101.723 135.878 102.314 135.537L102.466 135.449C103.194 135.029 103.443 134.099 103.023 133.372L102.935 133.219C102.52 132.5 102.836 131.58 103.605 131.268C104.238 131.012 104.962 131.261 105.303 131.852L106.519 133.958Z" fill="#1090F9"/>
<path opacity="0.3" d="M171.48 106.316C170.699 105.534 170.699 104.268 171.48 103.487L175.583 99.3849C176.354 98.6135 177.635 98.7275 178.258 99.6229C178.742 100.319 178.659 101.262 178.059 101.861L177.13 102.79C176.357 103.564 176.357 104.817 177.13 105.59C177.963 106.423 177.889 107.794 176.971 108.532L176.555 108.867C175.76 109.507 174.609 109.445 173.887 108.723L171.48 106.316Z" fill="#1090F9"/>
<path d="M76.6454 117.523V43.1269C76.6454 37.3324 81.3396 32.6382 87.1341 32.6382H120.984C126.778 32.6382 131.473 37.3324 131.473 43.1269V117.523C131.473 123.318 126.778 128.012 120.984 128.012H87.1341C81.3396 128.012 76.6454 123.318 76.6454 117.523Z" fill="#7CDDFD"/>
<path d="M121.057 128.65H87.0608C80.9656 128.65 76.0073 123.692 76.0073 117.596V43.0534C76.0073 36.9583 80.9656 32 87.0608 32H121.057C127.152 32 132.111 36.9583 132.111 43.0534V117.596C132.111 123.692 127.152 128.65 121.057 128.65ZM87.0608 33.2689C81.6697 33.2689 77.2836 37.6551 77.2836 43.0461V117.589C77.2836 122.98 81.6697 127.366 87.0608 127.366H121.057C126.448 127.366 130.834 122.98 130.834 117.589V43.0534C130.834 37.6624 126.448 33.2762 121.057 33.2762H87.0608V33.2689Z" fill="#054375"/>
<path d="M131.48 42.7748H76.6454V114.699H131.48V42.7748Z" fill="white"/>
<path d="M131.473 115.337H76.6381C76.2861 115.337 76 115.051 76 114.699V42.7748C76 42.4227 76.2861 42.1367 76.6381 42.1367H131.473C131.825 42.1367 132.111 42.4227 132.111 42.7748V114.699C132.111 115.051 131.832 115.337 131.473 115.337ZM77.2836 114.061H130.842V43.4129H77.2836V114.061Z" fill="#054375"/>
<path d="M109.557 120.508H99.6767C99.3246 120.508 99.0386 120.222 99.0386 119.87C99.0386 119.518 99.3246 119.232 99.6767 119.232H109.557C109.909 119.232 110.195 119.518 110.195 119.87C110.195 120.222 109.909 120.508 109.557 120.508Z" fill="#054375"/>
<g opacity="0.1294">
<path d="M127.805 42.9067C125.935 42.8553 124.065 42.7673 122.194 42.7893C117.163 42.738 112.124 42.7453 107.085 42.8113C103.124 42.8407 99.1632 43.002 95.2024 42.738C90.3468 42.5913 85.4912 42.2979 80.6283 42.4959C79.9461 42.5106 79.264 42.5033 78.5819 42.4739C78.1711 42.4446 77.7311 42.3859 77.357 42.5986C75.5013 43.3101 76.0807 46.1853 78.0758 46.1633C80.4449 46.332 82.8287 46.1486 85.1978 46.2C88.0291 46.1853 90.8529 46.42 93.6841 46.4787C104.246 46.5447 114.815 46.5887 125.378 46.398C126.778 46.42 128.187 46.3907 129.588 46.3613C130.747 46.4934 131.927 45.9433 131.942 44.6377C131.795 42.3859 129.375 42.9874 127.805 42.9067Z" fill="#054375"/>
</g>
<path d="M86.738 97.0151C86.6793 97.0151 86.6279 96.9931 86.5839 96.9491C86.5032 96.861 86.5032 96.729 86.5913 96.6483L104.363 79.6464C104.451 79.5657 104.583 79.5657 104.664 79.6538C104.745 79.7418 104.745 79.8738 104.657 79.9545L86.8847 96.9564C86.8407 96.9931 86.7893 97.0151 86.738 97.0151Z" fill="#054375"/>
<path d="M86.5105 103.785C86.4592 103.785 86.4005 103.763 86.3638 103.726C86.2758 103.646 86.2758 103.514 86.3565 103.426C92.3196 97.2205 98.4662 91.0153 104.62 84.9715C104.708 84.8908 104.84 84.8908 104.921 84.9715C105.001 85.0521 105.001 85.1915 104.921 85.2722C98.7742 91.3087 92.6277 97.5139 86.6646 103.719C86.6279 103.763 86.5692 103.785 86.5105 103.785Z" fill="#054375"/>
<path d="M92.4224 103.668C92.3711 103.668 92.3124 103.646 92.2757 103.609C92.195 103.528 92.195 103.389 92.2757 103.308L105.691 89.7098C105.772 89.6291 105.911 89.6218 105.992 89.7098C106.072 89.7905 106.08 89.9298 105.992 90.0105L92.5765 103.609C92.5325 103.646 92.4738 103.668 92.4224 103.668Z" fill="#054375"/>
<path d="M98.5249 103.961C98.4736 103.961 98.4223 103.939 98.3782 103.903C98.2902 103.822 98.2902 103.69 98.3709 103.602C101.275 100.58 104.136 97.4333 106.857 94.2427C106.931 94.1547 107.07 94.14 107.158 94.2207C107.246 94.294 107.261 94.4334 107.18 94.5214C104.451 97.7193 101.591 100.873 98.679 103.903C98.6423 103.939 98.5836 103.961 98.5249 103.961Z" fill="#054375"/>
<path d="M104.686 103.763C104.635 103.763 104.583 103.748 104.547 103.712C104.459 103.631 104.451 103.499 104.525 103.411L108.075 99.3183C108.155 99.2303 108.287 99.2229 108.375 99.2963C108.463 99.377 108.471 99.509 108.397 99.597L104.847 103.69C104.803 103.741 104.745 103.763 104.686 103.763Z" fill="#054375"/>
<path d="M105 66C105 82.0115 105 90.9885 105 107" stroke="#7AB72A" stroke-width="2"/>
<path d="M110 70L105 65L100 70" stroke="#7AB72A" stroke-width="2" stroke-linecap="round" stroke-linejoin="round"/>
<path d="M100 103L105 108L110 103" stroke="#7AB72A" stroke-width="2" stroke-linecap="round" stroke-linejoin="round"/>
<path d="M120 58C107.113 58 99.8873 58 87 58" stroke="#7AB72A" stroke-width="2"/>
<path d="M116 63L121 58L116 53" stroke="#7AB72A" stroke-width="2" stroke-linecap="round" stroke-linejoin="round"/>
<path d="M91 53L86 58L91 63" stroke="#7AB72A" stroke-width="2" stroke-linecap="round" stroke-linejoin="round"/>
</svg>
