<svg width="208" height="160" viewBox="0 0 208 160" fill="none" xmlns="http://www.w3.org/2000/svg">
<path opacity="0.3" d="M176.686 80.5173C178.24 78.9465 178.24 76.3997 176.686 74.8288L105.925 3.26894C104.217 1.54166 101.393 1.74011 99.9379 3.68971L74.74 37.4455C73.5446 39.0469 73.699 41.2944 75.102 42.7132L106.781 74.7494C108.334 76.3202 108.334 78.867 106.781 80.4379L71.1033 116.518C69.396 118.244 69.5912 121.099 71.5174 122.571L104.968 148.14C106.551 149.351 108.775 149.195 110.179 147.775L176.686 80.5173Z" fill="#1090F9"/>
<path opacity="0.3" d="M175.925 81.1825C177.09 82.3606 177.09 84.2707 175.925 85.4488L109.417 152.707C108.365 153.772 106.697 153.888 105.509 152.98L72.0589 127.411C70.6143 126.307 70.4678 124.166 71.7483 122.872L107.426 86.7915C109.367 84.828 109.367 81.6444 107.426 79.6809L75.747 47.6447C74.6948 46.5806 74.579 44.895 75.4755 43.6939L100.673 9.93816C101.765 8.47596 103.883 8.32712 105.164 9.62258L175.925 81.1825Z" stroke="#05BDFB" stroke-width="2"/>
<path opacity="0.3" d="M138.057 11.2935C139.159 11.2935 140.052 12.1867 140.052 13.2886L140.052 14.4589C140.052 15.0519 139.528 15.5081 138.941 15.4262C138.458 15.359 138.099 14.9462 138.099 14.4589L138.099 14.3331C138.099 13.7332 137.613 13.2469 137.013 13.2469L136.887 13.2469C136.294 13.2469 135.838 12.7227 135.92 12.1354C135.987 11.6527 136.4 11.2935 136.887 11.2935L138.057 11.2935Z" fill="#1090F9"/>
<path opacity="0.3" d="M171.692 40.4865C172.244 41.4431 171.916 42.6663 170.96 43.2186L168.854 44.4344C168.135 44.8495 167.215 44.5333 166.903 43.7639C166.647 43.1316 166.896 42.4071 167.487 42.066L167.639 41.9779C168.366 41.558 168.616 40.6279 168.196 39.9006L168.108 39.7481C167.693 39.0291 168.009 38.1091 168.778 37.7971C169.41 37.5408 170.135 37.7898 170.476 38.3807L171.692 40.4865Z" fill="#1090F9"/>
<path opacity="0.3" d="M106.519 133.958C107.071 134.914 106.743 136.137 105.787 136.69L103.681 137.906C102.962 138.321 102.042 138.004 101.73 137.235C101.474 136.603 101.723 135.878 102.314 135.537L102.466 135.449C103.194 135.029 103.443 134.099 103.023 133.372L102.935 133.219C102.52 132.5 102.836 131.58 103.605 131.268C104.238 131.012 104.962 131.261 105.303 131.852L106.519 133.958Z" fill="#1090F9"/>
<path opacity="0.3" d="M171.48 106.315C170.699 105.534 170.699 104.268 171.48 103.487L175.583 99.3847C176.354 98.6133 177.635 98.7273 178.258 99.6227C178.743 100.319 178.659 101.262 178.059 101.861L177.13 102.79C176.357 103.563 176.357 104.817 177.13 105.59C177.963 106.423 177.889 107.794 176.971 108.532L176.555 108.866C175.76 109.507 174.61 109.445 173.887 108.722L171.48 106.315Z" fill="#1090F9"/>
<path d="M64.6455 117.523V43.1269C64.6455 37.3324 69.3397 32.6382 75.1342 32.6382H108.984C114.778 32.6382 119.473 37.3324 119.473 43.1269V117.523C119.473 123.318 114.778 128.012 108.984 128.012H75.1342C69.3397 128.012 64.6455 123.318 64.6455 117.523Z" fill="#7CDDFD"/>
<path d="M109.057 128.65H75.0608C68.9656 128.65 64.0073 123.692 64.0073 117.596V43.0534C64.0073 36.9583 68.9656 32 75.0608 32H109.057C115.152 32 120.111 36.9583 120.111 43.0534V117.596C120.111 123.692 115.152 128.65 109.057 128.65ZM75.0608 33.2689C69.6697 33.2689 65.2836 37.6551 65.2836 43.0461V117.589C65.2836 122.98 69.6697 127.366 75.0608 127.366H109.057C114.448 127.366 118.834 122.98 118.834 117.589V43.0534C118.834 37.6624 114.448 33.2762 109.057 33.2762H75.0608V33.2689Z" fill="#054375"/>
<path d="M119.48 42.7749H64.6455V114.699H119.48V42.7749Z" fill="white"/>
<path fill-rule="evenodd" clip-rule="evenodd" d="M90.8682 88.2734V92.4297C90.8682 92.7576 91.134 93.0234 91.4619 93.0234H92.6494C92.9773 93.0234 93.2432 92.7576 93.2432 92.4297V88.2603C94.3421 88.2254 95.705 88.099 96.9257 87.6412C97.8095 87.3098 98.6873 86.7819 99.3421 85.932C100.007 85.0693 100.368 83.9695 100.368 82.6328C100.368 81.2961 100.007 80.1963 99.3421 79.3336C98.6873 78.4837 97.8095 77.9558 96.9257 77.6244C95.705 77.1666 94.3421 77.0402 93.2432 77.0054V70.4609L98.5869 70.4609C98.9148 70.4609 99.1806 70.1951 99.1806 69.8672L99.1807 68.6797C99.1807 68.3518 98.9148 68.0859 98.5869 68.0859L93.2432 68.0859V63.9297C93.2432 63.6018 92.9773 63.3359 92.6494 63.3359H91.4619C91.134 63.3359 90.8682 63.6018 90.8682 63.9297V68.1073C89.7262 68.1512 88.4218 68.2847 87.2629 68.69C86.3587 69.0062 85.4625 69.5129 84.7932 70.3406C84.1105 71.1847 83.7432 72.2649 83.7432 73.573C83.7432 74.8815 84.1101 75.966 84.7653 76.8262C85.4094 77.672 86.2726 78.2235 87.1485 78.586C88.3794 79.0953 89.7485 79.2758 90.8682 79.3372V85.8984H85.5244C85.1965 85.8984 84.9307 86.1643 84.9307 86.4922V87.6797C84.9307 88.0076 85.1965 88.2734 85.5244 88.2734H90.8682ZM93.2432 85.8827C94.1983 85.849 95.2208 85.744 96.0918 85.4174C96.6924 85.1922 97.1505 84.8851 97.4606 84.4826C97.7609 84.0928 97.9931 83.5227 97.9931 82.6328C97.9931 81.7429 97.7609 81.1728 97.4606 80.7831C97.1505 80.3805 96.6924 80.0735 96.0918 79.8482C95.2208 79.5216 94.1983 79.4166 93.2432 79.3829V85.8827ZM90.8682 76.9576V70.4854C89.8834 70.5265 88.8903 70.6369 88.0469 70.9318C87.4144 71.153 86.9484 71.4525 86.6398 71.834C86.3446 72.1992 86.1182 72.7314 86.1182 73.573C86.1182 74.4143 86.345 74.9806 86.6547 75.3872C86.9753 75.8082 87.4481 76.1396 88.0566 76.3914C88.919 76.7483 89.9357 76.8986 90.8682 76.9576Z" fill="#054375"/>
<path d="M119.473 115.337H64.6381C64.2861 115.337 64 115.051 64 114.699V42.7748C64 42.4228 64.2861 42.1367 64.6381 42.1367H119.473C119.825 42.1367 120.111 42.4228 120.111 42.7748V114.699C120.111 115.051 119.832 115.337 119.473 115.337ZM65.2836 114.061H118.842V43.413H65.2836V114.061Z" fill="#054375"/>
<path d="M97.5566 120.508H87.6767C87.3246 120.508 87.0386 120.222 87.0386 119.87C87.0386 119.518 87.3246 119.232 87.6767 119.232H97.5566C97.9086 119.232 98.1947 119.518 98.1947 119.87C98.1947 120.222 97.9086 120.508 97.5566 120.508Z" fill="#054375"/>
<g opacity="0.1294">
<path d="M115.805 42.9064C113.935 42.8551 112.065 42.7671 110.194 42.7891C105.163 42.7377 100.124 42.7451 95.0847 42.8111C91.1239 42.8404 87.1632 43.0018 83.2024 42.7377C78.3468 42.591 73.4912 42.2977 68.6283 42.4957C67.9461 42.5104 67.264 42.503 66.5819 42.4737C66.1711 42.4443 65.7311 42.3857 65.357 42.5984C63.5013 43.3098 64.0807 46.1851 66.0758 46.1631C68.4449 46.3318 70.8287 46.1484 73.1978 46.1997C76.0291 46.1851 78.8529 46.4198 81.6841 46.4784C92.2462 46.5445 102.815 46.5885 113.378 46.3978C114.778 46.4198 116.187 46.3904 117.588 46.3611C118.747 46.4931 119.927 45.943 119.942 44.6374C119.795 42.3857 117.375 42.9871 115.805 42.9064Z" fill="#054375"/>
</g>
<path d="M128.674 54.2168C115.398 54.2168 104.638 65.3949 104.638 79.1842C104.638 84.8907 106.487 90.1423 109.582 94.3452L106.641 106.425L116.726 100.844C120.246 102.941 124.325 104.152 128.674 104.152C141.95 104.152 152.71 92.9735 152.71 79.1842C152.71 65.3949 141.95 54.2168 128.674 54.2168Z" fill="white"/>
<path d="M106.64 107.064C106.501 107.064 106.369 107.02 106.252 106.932C106.054 106.777 105.958 106.521 106.017 106.271L108.892 94.4771C105.694 90.0249 104 84.7439 104 79.1769C104 65.0575 115.068 53.5713 128.674 53.5713C142.28 53.5713 153.348 65.0575 153.348 79.1769C153.348 93.2962 142.28 104.782 128.674 104.782C124.493 104.782 120.364 103.675 116.711 101.57L106.941 106.976C106.853 107.042 106.743 107.064 106.64 107.064ZM128.674 54.8549C115.772 54.8549 105.276 65.7689 105.276 79.1842C105.276 84.5752 106.941 89.6875 110.095 93.9637C110.205 94.1177 110.249 94.3084 110.198 94.4918L107.601 105.156L116.41 100.279C116.608 100.169 116.85 100.169 117.048 100.286C120.576 102.391 124.596 103.506 128.674 103.506C141.576 103.506 152.072 92.5921 152.072 79.1769C152.072 65.7616 141.576 54.8549 128.674 54.8549Z" fill="#054375"/>
<path d="M74.7381 97.0152C74.6794 97.0152 74.628 96.9932 74.584 96.9492C74.5034 96.8612 74.5034 96.7291 74.5914 96.6485L92.3635 79.6465C92.4515 79.5659 92.5835 79.5659 92.6642 79.6539C92.7449 79.7419 92.7449 79.8739 92.6568 79.9546L74.8848 96.9565C74.8408 96.9932 74.7894 97.0152 74.7381 97.0152Z" fill="#054375"/>
<path d="M74.5105 103.785C74.4592 103.785 74.4005 103.763 74.3638 103.727C74.2758 103.646 74.2758 103.514 74.3565 103.426C80.3196 97.2207 86.4662 91.0155 92.62 84.9716C92.708 84.891 92.84 84.891 92.9207 84.9716C93.0014 85.0523 93.0014 85.1917 92.9207 85.2724C86.7742 91.3089 80.6277 97.514 74.6646 103.719C74.6279 103.763 74.5692 103.785 74.5105 103.785Z" fill="#054375"/>
<path d="M80.4225 103.668C80.3712 103.668 80.3125 103.646 80.2758 103.609C80.1952 103.528 80.1952 103.389 80.2758 103.308L93.6911 89.7098C93.7718 89.6291 93.9111 89.6218 93.9918 89.7098C94.0725 89.7905 94.0798 89.9298 93.9918 90.0105L80.5766 103.609C80.5326 103.646 80.4739 103.668 80.4225 103.668Z" fill="#054375"/>
<path d="M86.5252 103.961C86.4738 103.961 86.4225 103.939 86.3785 103.902C86.2905 103.822 86.2905 103.69 86.3711 103.602C89.2757 100.58 92.1363 97.4331 94.8574 94.2425C94.9308 94.1545 95.0702 94.1398 95.1582 94.2205C95.2462 94.2938 95.2609 94.4332 95.1802 94.5212C92.4517 97.7192 89.5911 100.873 86.6792 103.902C86.6426 103.939 86.5839 103.961 86.5252 103.961Z" fill="#054375"/>
<path d="M92.686 103.763C92.6347 103.763 92.5833 103.748 92.5466 103.712C92.4586 103.631 92.4513 103.499 92.5246 103.411L96.0746 99.3181C96.1553 99.2301 96.2873 99.2228 96.3753 99.2961C96.4634 99.3768 96.4707 99.5088 96.3974 99.5968L92.8473 103.69C92.8033 103.741 92.7447 103.763 92.686 103.763Z" fill="#054375"/>
<g opacity="0.1294">
<path d="M127.605 103.39C127.319 103.302 127.04 103.338 126.762 103.404C126.659 103.412 126.549 103.412 126.446 103.412C125.243 103.199 124.436 103.192 121.994 102.304C121.935 102.282 121.884 102.26 121.825 102.238C121.723 102.187 121.283 101.974 121.099 101.893C120.285 101.519 119.427 101.263 118.569 100.984C117.865 100.771 117.212 100.36 116.456 100.324C116.126 100.346 115.774 100.412 115.503 100.602C115.275 100.734 115.041 100.852 114.806 100.969C113.016 101.813 111.249 102.715 109.525 103.683C108.806 104.101 108.065 104.468 107.303 104.791C106.951 104.959 106.532 105.055 106.32 105.407C105.498 106.375 106.532 107.915 107.75 107.541C110.706 106.338 113.5 104.783 116.39 103.434C118.18 104.277 120.146 104.622 121.972 105.385C123.505 105.839 125.104 106.485 126.725 106.221C126.6 106.236 126.468 106.258 126.344 106.272C126.879 106.265 127.473 106.353 127.957 106.067C129.065 105.443 128.845 103.712 127.605 103.39Z" fill="#054375"/>
</g>
<g opacity="0.2">
<path d="M128.675 74.7562C129.088 74.7562 129.424 75.0916 129.424 75.5053V80.7494C129.424 81.1632 129.088 81.4986 128.675 81.4986C128.261 81.4986 127.925 81.1632 127.925 80.7494V75.5053C127.925 75.0916 128.261 74.7562 128.675 74.7562Z" fill="#705300"/>
<path d="M129.798 84.1206C129.798 84.7412 129.295 85.2444 128.675 85.2444C128.054 85.2444 127.551 84.7412 127.551 84.1206C127.551 83.5 128.054 82.9969 128.675 82.9969C129.295 82.9969 129.798 83.5 129.798 84.1206Z" fill="#705300"/>
<path fill-rule="evenodd" clip-rule="evenodd" d="M118.936 80.0003C118.936 74.6215 123.296 70.2612 128.675 70.2612C134.053 70.2612 138.414 74.6215 138.414 80.0003C138.414 85.379 134.053 89.7393 128.675 89.7393C123.296 89.7393 118.936 85.379 118.936 80.0003ZM128.675 71.7595C124.123 71.7595 120.434 75.449 120.434 80.0003C120.434 84.5515 124.123 88.241 128.675 88.241C133.226 88.241 136.915 84.5515 136.915 80.0003C136.915 75.449 133.226 71.7595 128.675 71.7595Z" fill="#705300"/>
</g>
<path d="M127.675 73.7562C128.088 73.7562 128.424 74.0916 128.424 74.5053V79.7494C128.424 80.1632 128.088 80.4986 127.675 80.4986C127.261 80.4986 126.925 80.1632 126.925 79.7494V74.5053C126.925 74.0916 127.261 73.7562 127.675 73.7562Z" fill="#EEB412"/>
<path d="M128.798 83.1206C128.798 83.7412 128.295 84.2444 127.675 84.2444C127.054 84.2444 126.551 83.7412 126.551 83.1206C126.551 82.5 127.054 81.9969 127.675 81.9969C128.295 81.9969 128.798 82.5 128.798 83.1206Z" fill="#EEB412"/>
<path fill-rule="evenodd" clip-rule="evenodd" d="M117.936 79.0003C117.936 73.6215 122.296 69.2612 127.675 69.2612C133.053 69.2612 137.414 73.6215 137.414 79.0003C137.414 84.379 133.053 88.7393 127.675 88.7393C122.296 88.7393 117.936 84.379 117.936 79.0003ZM127.675 70.7595C123.123 70.7595 119.434 74.449 119.434 79.0003C119.434 83.5515 123.123 87.241 127.675 87.241C132.226 87.241 135.915 83.5515 135.915 79.0003C135.915 74.449 132.226 70.7595 127.675 70.7595Z" fill="#EEB412"/>
</svg>
