<svg width="208" height="160" viewBox="0 0 208 160" fill="none" xmlns="http://www.w3.org/2000/svg">
<path opacity="0.3" d="M176.686 80.5173C178.24 78.9465 178.24 76.3997 176.686 74.8288L105.925 3.26894C104.217 1.54166 101.393 1.74011 99.9379 3.68971L74.74 37.4455C73.5446 39.0469 73.699 41.2944 75.102 42.7132L106.781 74.7494C108.334 76.3202 108.334 78.867 106.781 80.4379L71.1033 116.518C69.396 118.244 69.5912 121.099 71.5174 122.571L104.968 148.14C106.551 149.351 108.775 149.195 110.179 147.775L176.686 80.5173Z" fill="#1090F9"/>
<path opacity="0.3" d="M175.925 81.1825C177.09 82.3606 177.09 84.2707 175.925 85.4488L109.417 152.707C108.365 153.772 106.697 153.888 105.509 152.98L72.0589 127.411C70.6143 126.307 70.4678 124.166 71.7483 122.872L107.426 86.7915C109.367 84.828 109.367 81.6444 107.426 79.6809L75.747 47.6447C74.6948 46.5806 74.579 44.895 75.4755 43.6939L100.673 9.93816C101.765 8.47596 103.883 8.32712 105.164 9.62258L175.925 81.1825Z" stroke="#05BDFB" stroke-width="2"/>
<path opacity="0.3" d="M138.057 11.2939C139.159 11.2939 140.052 12.1872 140.052 13.2891L140.052 14.4594C140.052 15.0524 139.528 15.5086 138.941 15.4267C138.458 15.3595 138.099 14.9467 138.099 14.4594L138.099 14.3336C138.099 13.7337 137.613 13.2474 137.013 13.2474L136.887 13.2474C136.294 13.2474 135.838 12.7232 135.92 12.1358C135.987 11.6532 136.4 11.2939 136.887 11.2939L138.057 11.2939Z" fill="#1090F9"/>
<path opacity="0.3" d="M171.692 40.486C172.244 41.4426 171.916 42.6658 170.96 43.2181L168.854 44.4339C168.135 44.849 167.215 44.5328 166.903 43.7634C166.647 43.1311 166.896 42.4066 167.487 42.0655L167.639 41.9774C168.366 41.5575 168.616 40.6274 168.196 39.9001L168.108 39.7476C167.693 39.0286 168.009 38.1086 168.778 37.7967C169.41 37.5403 170.135 37.7893 170.476 38.3802L171.692 40.486Z" fill="#1090F9"/>
<path opacity="0.3" d="M106.519 133.958C107.071 134.914 106.743 136.137 105.787 136.69L103.681 137.906C102.962 138.321 102.042 138.004 101.73 137.235C101.474 136.603 101.723 135.878 102.314 135.537L102.466 135.449C103.194 135.029 103.443 134.099 103.023 133.372L102.935 133.219C102.52 132.5 102.836 131.58 103.605 131.268C104.238 131.012 104.962 131.261 105.303 131.852L106.519 133.958Z" fill="#1090F9"/>
<path opacity="0.3" d="M171.48 106.315C170.699 105.534 170.699 104.268 171.48 103.487L175.583 99.3847C176.354 98.6133 177.635 98.7273 178.258 99.6227C178.743 100.319 178.659 101.262 178.059 101.861L177.13 102.79C176.357 103.563 176.357 104.817 177.13 105.59C177.963 106.423 177.889 107.794 176.971 108.532L176.555 108.866C175.76 109.507 174.61 109.445 173.887 108.722L171.48 106.315Z" fill="#1090F9"/>
<path d="M64.6455 117.524V43.1273C64.6455 37.3329 69.3397 32.6387 75.1342 32.6387H108.984C114.778 32.6387 119.473 37.3329 119.473 43.1273V117.524C119.473 123.318 114.778 128.012 108.984 128.012H75.1342C69.3397 128.012 64.6455 123.318 64.6455 117.524Z" fill="#7CDDFD"/>
<path d="M109.057 128.65H75.0608C68.9656 128.65 64.0073 123.692 64.0073 117.596V43.0534C64.0073 36.9583 68.9656 32 75.0608 32H109.057C115.152 32 120.111 36.9583 120.111 43.0534V117.596C120.111 123.692 115.152 128.65 109.057 128.65ZM75.0608 33.2689C69.6697 33.2689 65.2836 37.6551 65.2836 43.0461V117.589C65.2836 122.98 69.6697 127.366 75.0608 127.366H109.057C114.448 127.366 118.834 122.98 118.834 117.589V43.0534C118.834 37.6624 114.448 33.2762 109.057 33.2762H75.0608V33.2689Z" fill="#054375"/>
<path d="M119.48 42.7744H64.6455V114.699H119.48V42.7744Z" fill="white"/>
<g opacity="0.14">
<path fill-rule="evenodd" clip-rule="evenodd" d="M86.8636 71.3674C87.4165 71.6108 87.925 71.9568 88.3597 72.3935L93.4036 77.4385C93.7688 77.8026 94.3591 77.8026 94.7243 77.4385L99.7502 72.4126C100.116 72.0443 100.534 71.7404 100.988 71.5081C101.675 71.1558 102.443 70.9683 103.23 70.9709C103.454 70.9709 103.565 70.7009 103.408 70.543L97.4528 64.5882C95.4653 62.5997 92.2432 62.5997 90.2547 64.5871L84.5907 70.2559C84.3336 70.5131 84.5159 70.9528 84.8796 70.9528C85.5694 70.9511 86.2444 71.0949 86.8636 71.3674ZM88.6354 69.5941C89.148 69.901 89.6251 70.2723 90.0541 70.703L90.056 70.7049L93.357 74.0065C93.7475 74.3971 94.3807 74.3972 94.7712 74.0066L98.0519 70.726L98.0553 70.7226C98.1251 70.6523 98.1962 70.5837 98.2686 70.5166C98.7344 70.0848 98.8167 69.337 98.3675 68.8879L95.7603 66.2806C94.7079 65.2277 93.0009 65.2266 91.9468 66.2799L91.9449 66.2818L88.6354 69.5941Z" fill="#054375"/>
<path fill-rule="evenodd" clip-rule="evenodd" d="M100.997 88.1982C100.54 87.9662 100.119 87.662 99.7502 87.2928L94.7232 82.2626C94.3538 81.9091 93.772 81.9091 93.4025 82.2626L88.3586 87.3066C87.9243 87.7429 87.4164 88.0887 86.864 88.332C86.2444 88.6049 85.5689 88.7489 84.8785 88.7472C84.5153 88.7472 84.3334 89.1863 84.5902 89.4431L90.2643 95.1172C92.2538 97.1025 95.4738 97.1025 97.4634 95.1172L103.411 89.1689C103.572 89.0072 103.459 88.7308 103.23 88.7292C102.447 88.7317 101.682 88.5465 100.997 88.1982ZM98.3732 90.8219C98.823 90.3721 98.7397 89.6229 98.2723 89.1915C98.199 89.1239 98.127 89.0546 98.0563 88.9838L94.7697 85.6951C94.3792 85.3044 93.7458 85.3043 93.3552 85.6949L90.055 88.9951L90.0528 88.9973C89.9298 89.1207 89.803 89.2392 89.6724 89.3528C89.1814 89.7799 89.0826 90.5506 89.5428 91.0108L91.9549 93.4229C93.0099 94.4747 94.7168 94.4756 95.7718 93.4238L98.3732 90.8219Z" fill="#054375"/>
<path fill-rule="evenodd" clip-rule="evenodd" d="M104.984 72.4497C105.155 72.4478 105.336 72.4728 105.457 72.5933L109.115 76.251C111.102 78.2395 111.104 81.4622 109.115 83.4496L105.457 87.1077C105.337 87.2281 105.154 87.2514 104.984 87.2514H103.23C102.317 87.2492 101.443 86.8862 100.796 86.2428L95.7701 81.218C94.8592 80.3071 93.2699 80.3071 92.3579 81.218L87.314 86.2619C86.6675 86.9063 85.7927 87.2683 84.8796 87.2715H82.7181C82.5569 87.2735 82.3852 87.2497 82.2712 87.1357L78.5861 83.4506C76.6008 81.4611 76.6008 78.2411 78.5861 76.2515L82.2796 72.5652C82.3937 72.4513 82.5654 72.4257 82.7266 72.4296H84.8796C85.7927 72.4317 86.6675 72.7948 87.314 73.4392L92.359 78.481C93.3018 79.4216 94.8274 79.4216 95.7701 78.481L100.796 73.4583C101.443 72.815 102.317 72.4519 103.23 72.4497H104.984ZM107.423 77.9435C108.477 78.9975 108.476 80.7042 107.423 81.7567L104.615 84.565C104.427 84.7525 104.173 84.8579 103.908 84.8579H103.234C102.954 84.8567 102.685 84.7453 102.485 84.5473L98.4942 80.5569C98.1035 80.1663 98.1036 79.5329 98.4943 79.1424L102.484 75.155C102.684 74.957 102.954 74.8444 103.234 74.8433H103.908C104.173 74.8433 104.427 74.9486 104.615 75.136L107.423 77.9435ZM85.6243 75.1345L89.6344 79.142C90.0251 79.5324 90.0252 80.1658 89.6346 80.5564L85.6243 84.5667C85.4268 84.763 85.1576 84.8763 84.8743 84.878H83.8127C83.5475 84.878 83.2931 84.7727 83.1056 84.5851L80.2804 81.76C79.2286 80.7052 79.2277 78.9988 80.2789 77.9437L83.1127 75.1153C83.3002 74.9282 83.5543 74.8231 83.8192 74.8231H84.8761C85.1559 74.8243 85.4252 74.9363 85.6243 75.1345Z" fill="#054375"/>
</g>
<path fill-rule="evenodd" clip-rule="evenodd" d="M85.1595 69.6643C85.7124 69.9076 86.2209 70.2536 86.6556 70.6903L91.6995 75.7353C92.0647 76.0995 92.655 76.0995 93.0202 75.7353L98.0461 70.7095C98.4118 70.3412 98.8302 70.0372 99.2836 69.805C99.9712 69.4527 100.739 69.2652 101.526 69.2677H102.131L95.7487 62.885C93.7612 60.8966 90.5391 60.8966 88.5506 62.884L82.1902 69.2497H83.1755C83.8653 69.248 84.5403 69.3918 85.1595 69.6643ZM86.9313 67.891C87.4439 68.1979 87.921 68.5692 88.35 68.9998L88.3519 69.0018L92.36 73.0107L96.3478 69.0228L96.3512 69.0194C96.7137 68.6549 97.1108 68.3327 97.5348 68.0562L94.0562 64.5775C93.0038 63.5246 91.2968 63.5234 90.2427 64.5768L90.2408 64.5787L86.9313 67.891Z" fill="#05BDFB"/>
<path fill-rule="evenodd" clip-rule="evenodd" d="M99.2925 86.495C98.8359 86.2631 98.4144 85.9588 98.0461 85.5896L93.0191 80.5595C92.6497 80.206 92.0679 80.206 91.6984 80.5595L86.6545 85.6034C86.2202 86.0398 85.7123 86.3855 85.1599 86.6288C84.5403 86.9018 83.8648 87.0458 83.1744 87.0441H82.1902L88.5602 93.414C90.5497 95.3993 93.7697 95.3993 95.7593 93.414L102.142 87.0303L101.526 87.0261C100.743 87.0286 99.9781 86.8433 99.2925 86.495ZM97.5426 88.2453C97.1162 87.9686 96.7168 87.646 96.3522 87.2807L92.3585 83.2844L88.3509 87.292L88.3487 87.2942C87.9204 87.7241 87.4441 88.0949 86.9325 88.4014L90.2508 91.7198C91.3058 92.7716 93.0127 92.7725 94.0677 91.7207L97.5426 88.2453Z" fill="#05BDFB"/>
<path fill-rule="evenodd" clip-rule="evenodd" d="M103.554 70.6914L107.41 74.5479C109.398 76.5364 109.4 79.759 107.411 81.7464L103.554 85.6034C103.467 85.5673 103.375 85.5482 103.28 85.5482H101.526C100.613 85.5461 99.7384 85.183 99.0919 84.5397L94.066 79.5148C93.1551 78.6039 91.5658 78.6039 90.6538 79.5148L85.6099 84.5588C84.9634 85.2032 84.0886 85.5652 83.1755 85.5684H81.014C80.9248 85.5695 80.8378 85.5875 80.755 85.6204L76.882 81.7475C74.8967 79.758 74.8967 76.538 76.882 74.5484L80.7635 70.6744C80.8463 70.7073 80.9333 70.7243 81.0225 70.7265H83.1755C84.0886 70.7286 84.9634 71.0917 85.6099 71.7361L90.6549 76.7779C91.5977 77.7185 93.1233 77.7185 94.066 76.7779L99.0919 71.7552C99.7384 71.1118 100.613 70.7487 101.526 70.7466H103.28C103.375 70.7456 103.467 70.7265 103.554 70.6914ZM105.719 76.2403C106.773 77.2944 106.772 79.0011 105.719 80.0535L102.618 83.1547H101.53C101.25 83.1535 100.981 83.0421 100.781 82.8442L96.0826 78.1464L100.78 73.4518C100.98 73.2539 101.25 73.1413 101.53 73.1401H102.618L105.719 76.2403ZM83.9202 73.4313L88.6378 78.1459L83.9202 82.8635C83.7227 83.0599 83.4535 83.1731 83.1702 83.1749H81.6944L78.5763 80.0569C77.5245 79.0021 77.5236 77.2957 78.5748 76.2406L81.7014 73.12H83.172C83.4518 73.1211 83.7211 73.2332 83.9202 73.4313Z" fill="#05BDFB"/>
<path d="M119.473 115.337H64.6381C64.2861 115.337 64 115.051 64 114.699V42.7748C64 42.4228 64.2861 42.1367 64.6381 42.1367H119.473C119.825 42.1367 120.111 42.4228 120.111 42.7748V114.699C120.111 115.051 119.832 115.337 119.473 115.337ZM65.2836 114.061H118.842V43.413H65.2836V114.061Z" fill="#054375"/>
<path d="M97.5566 120.509H87.6767C87.3246 120.509 87.0386 120.223 87.0386 119.871C87.0386 119.518 87.3246 119.232 87.6767 119.232H97.5566C97.9086 119.232 98.1947 119.518 98.1947 119.871C98.1947 120.223 97.9086 120.509 97.5566 120.509Z" fill="#054375"/>
<g opacity="0.1294">
<path d="M115.805 42.9069C113.935 42.8556 112.065 42.7676 110.194 42.7896C105.163 42.7382 100.124 42.7456 95.0847 42.8116C91.1239 42.8409 87.1632 43.0023 83.2024 42.7382C78.3468 42.5915 73.4912 42.2981 68.6283 42.4962C67.9461 42.5108 67.264 42.5035 66.5819 42.4742C66.1711 42.4448 65.7311 42.3862 65.357 42.5989C63.5013 43.3103 64.0807 46.1856 66.0758 46.1635C68.4449 46.3322 70.8287 46.1489 73.1978 46.2002C76.0291 46.1856 78.8529 46.4203 81.6841 46.4789C92.2462 46.545 102.815 46.589 113.378 46.3983C114.778 46.4203 116.187 46.3909 117.588 46.3616C118.747 46.4936 119.927 45.9435 119.942 44.6379C119.795 42.3862 117.375 42.9876 115.805 42.9069Z" fill="#054375"/>
</g>
<path d="M128.674 54.2168C115.398 54.2168 104.638 65.3949 104.638 79.1842C104.638 84.8907 106.487 90.1423 109.582 94.3452L106.641 106.425L116.726 100.844C120.246 102.941 124.325 104.152 128.674 104.152C141.95 104.152 152.71 92.9735 152.71 79.1842C152.71 65.3949 141.95 54.2168 128.674 54.2168Z" fill="white"/>
<path d="M106.64 107.064C106.501 107.064 106.369 107.02 106.252 106.932C106.054 106.777 105.958 106.521 106.017 106.271L108.892 94.4771C105.694 90.0249 104 84.7439 104 79.1769C104 65.0575 115.068 53.5713 128.674 53.5713C142.28 53.5713 153.348 65.0575 153.348 79.1769C153.348 93.2962 142.28 104.782 128.674 104.782C124.493 104.782 120.364 103.675 116.711 101.57L106.941 106.976C106.853 107.042 106.743 107.064 106.64 107.064ZM128.674 54.8549C115.772 54.8549 105.276 65.7689 105.276 79.1842C105.276 84.5752 106.941 89.6875 110.095 93.9637C110.205 94.1177 110.249 94.3084 110.198 94.4918L107.601 105.156L116.41 100.279C116.608 100.169 116.85 100.169 117.048 100.286C120.576 102.391 124.596 103.506 128.674 103.506C141.576 103.506 152.072 92.5921 152.072 79.1769C152.072 65.7616 141.576 54.8549 128.674 54.8549Z" fill="#054375"/>
<path d="M74.7381 97.0152C74.6794 97.0152 74.628 96.9932 74.584 96.9492C74.5034 96.8612 74.5034 96.7291 74.5914 96.6485L92.3635 79.6465C92.4515 79.5659 92.5835 79.5659 92.6642 79.6539C92.7449 79.7419 92.7449 79.8739 92.6568 79.9546L74.8848 96.9565C74.8408 96.9932 74.7894 97.0152 74.7381 97.0152Z" fill="#054375"/>
<path d="M74.5105 103.785C74.4592 103.785 74.4005 103.763 74.3638 103.727C74.2758 103.646 74.2758 103.514 74.3565 103.426C80.3196 97.2207 86.4662 91.0155 92.62 84.9716C92.708 84.891 92.84 84.891 92.9207 84.9716C93.0014 85.0523 93.0014 85.1917 92.9207 85.2724C86.7742 91.3089 80.6277 97.514 74.6646 103.719C74.6279 103.763 74.5692 103.785 74.5105 103.785Z" fill="#054375"/>
<path d="M80.4225 103.668C80.3712 103.668 80.3125 103.646 80.2758 103.609C80.1952 103.528 80.1952 103.389 80.2758 103.308L93.6911 89.7098C93.7718 89.6291 93.9111 89.6218 93.9918 89.7098C94.0725 89.7905 94.0798 89.9298 93.9918 90.0105L80.5766 103.609C80.5326 103.646 80.4739 103.668 80.4225 103.668Z" fill="#054375"/>
<path d="M86.5252 103.962C86.4738 103.962 86.4225 103.94 86.3785 103.903C86.2905 103.822 86.2905 103.69 86.3711 103.602C89.2757 100.58 92.1363 97.4336 94.8574 94.243C94.9308 94.155 95.0702 94.1403 95.1582 94.221C95.2462 94.2943 95.2609 94.4337 95.1802 94.5217C92.4517 97.7196 89.5911 100.874 86.6792 103.903C86.6426 103.94 86.5839 103.962 86.5252 103.962Z" fill="#054375"/>
<path d="M92.686 103.763C92.6347 103.763 92.5833 103.748 92.5466 103.712C92.4586 103.631 92.4513 103.499 92.5246 103.411L96.0746 99.3181C96.1553 99.2301 96.2873 99.2228 96.3753 99.2961C96.4634 99.3768 96.4707 99.5088 96.3974 99.5968L92.8473 103.69C92.8033 103.741 92.7447 103.763 92.686 103.763Z" fill="#054375"/>
<g opacity="0.1294">
<path d="M127.605 103.39C127.319 103.302 127.04 103.339 126.762 103.405C126.659 103.412 126.549 103.412 126.446 103.412C125.243 103.199 124.436 103.192 121.994 102.305C121.935 102.283 121.884 102.261 121.825 102.239C121.723 102.187 121.283 101.975 121.099 101.894C120.285 101.52 119.427 101.263 118.569 100.984C117.865 100.772 117.212 100.361 116.456 100.324C116.126 100.346 115.774 100.412 115.503 100.603C115.275 100.735 115.041 100.852 114.806 100.97C113.016 101.813 111.249 102.715 109.525 103.684C108.806 104.102 108.065 104.468 107.303 104.791C106.951 104.96 106.532 105.055 106.32 105.407C105.498 106.375 106.532 107.916 107.75 107.542C110.706 106.339 113.5 104.784 116.39 103.434C118.18 104.278 120.146 104.622 121.972 105.385C123.505 105.84 125.104 106.485 126.725 106.221C126.6 106.236 126.468 106.258 126.344 106.273C126.879 106.265 127.473 106.353 127.957 106.067C129.065 105.444 128.845 103.713 127.605 103.39Z" fill="#054375"/>
</g>
<path d="M124.043 74.8619C124.497 74.4083 125.232 74.4083 125.686 74.8619L128.349 77.5247L131.012 74.8619C131.465 74.4083 132.2 74.4083 132.654 74.8619C133.107 75.3154 133.107 76.0507 132.654 76.5042L129.991 79.167L132.654 81.8299C133.107 82.2834 133.107 83.0187 132.654 83.4722C132.2 83.9258 131.465 83.9258 131.012 83.4722L128.349 80.8094L125.686 83.4722C125.232 83.9258 124.497 83.9258 124.043 83.4722C123.59 83.0187 123.59 82.2834 124.043 81.8299L126.706 79.167L124.043 76.5042C123.59 76.0507 123.59 75.3154 124.043 74.8619Z" fill="#D0333D"/>
<path fill-rule="evenodd" clip-rule="evenodd" d="M116.735 71.0377C116.735 69.1136 118.295 67.5537 120.219 67.5537H136.478C138.402 67.5537 139.962 69.1136 139.962 71.0377V87.2964C139.962 89.2205 138.402 90.7804 136.478 90.7804H120.219C118.295 90.7804 116.735 89.2205 116.735 87.2964V71.0377ZM120.219 69.8764C119.578 69.8764 119.058 70.3963 119.058 71.0377V87.2964C119.058 87.9378 119.578 88.4577 120.219 88.4577H136.478C137.119 88.4577 137.639 87.9378 137.639 87.2964V71.0377C137.639 70.3963 137.119 69.8764 136.478 69.8764H120.219Z" fill="#D0333D"/>
</svg>
