<svg width="321" height="249" viewBox="0 0 321 249" fill="none" xmlns="http://www.w3.org/2000/svg">
<path opacity="0.3" d="M255.554 129.691C257.107 128.121 257.107 125.574 255.554 124.003L146.268 13.4834C144.56 11.7561 141.736 11.9545 140.281 13.9041L100.016 67.8431C98.821 69.4445 98.9755 71.692 100.378 73.1108L150.585 123.884C152.138 125.454 152.138 128.001 150.585 129.572L93.981 186.815C92.2737 188.541 92.4689 191.395 94.3951 192.868L147.837 233.719C149.421 234.929 151.645 234.773 153.048 233.354L255.554 129.691Z" fill="#1090F9"/>
<path opacity="0.3" d="M145.477 22.6667L254.763 133.186C255.928 134.364 255.928 136.275 254.763 137.453L152.258 241.115C151.205 242.18 149.537 242.296 148.349 241.389L94.9073 200.538C93.4627 199.434 93.3162 197.293 94.5967 195.998L151.201 138.755C153.142 136.792 153.142 133.608 151.201 131.645L100.994 80.872C99.9419 79.8078 99.8261 78.1222 100.723 76.9212L140.987 22.9822C142.078 21.52 144.196 21.3712 145.477 22.6667Z" stroke="#05BDFB" stroke-width="2"/>
<path opacity="0.3" d="M197.134 27.1727C198.239 27.1727 199.134 28.0681 199.134 29.1727L199.134 31.9259C199.134 32.8163 198.347 33.5013 197.465 33.3784V33.3784C196.74 33.2774 196.201 32.6576 196.201 31.9259L196.201 31.7369C196.201 30.8361 195.471 30.1059 194.57 30.1059L194.381 30.1059C193.49 30.1059 192.805 29.3188 192.928 28.4369V28.4369C193.029 27.7121 193.649 27.1727 194.381 27.1727L197.134 27.1727Z" fill="#1090F9"/>
<path opacity="0.3" d="M247.145 71.8766C247.698 72.8332 247.37 74.0563 246.413 74.6086L242.33 76.9664C241.278 77.5736 239.932 77.1111 239.476 75.9857L239.436 75.8861C239.061 74.9613 239.425 73.9016 240.289 73.4027L240.804 73.1055C241.76 72.5533 242.088 71.3301 241.536 70.3735L241.231 69.846C240.624 68.7943 241.087 67.4487 242.212 66.9925L242.312 66.9521C243.236 66.5772 244.296 66.9414 244.795 67.8056L247.145 71.8766Z" fill="#1090F9"/>
<path opacity="0.3" d="M149.283 212.232C149.835 213.188 149.508 214.412 148.551 214.964L144.467 217.322C143.416 217.929 142.07 217.466 141.614 216.341L141.573 216.241C141.199 215.317 141.563 214.257 142.427 213.758L142.942 213.461C143.898 212.909 144.226 211.685 143.674 210.729L143.369 210.201C142.762 209.15 143.224 207.804 144.35 207.348L144.449 207.307C145.374 206.932 146.434 207.297 146.933 208.161L149.283 212.232Z" fill="#1090F9"/>
<path opacity="0.3" d="M245.617 169.147C244.836 168.366 244.836 167.099 245.617 166.318L253.018 158.917C253.899 158.036 255.362 158.166 256.074 159.189L256.804 160.239C257.357 161.034 257.262 162.111 256.577 162.795L254.122 165.251C253.341 166.032 253.341 167.298 254.122 168.079L255.576 169.533C256.417 170.374 256.342 171.76 255.415 172.505L253.245 174.251C252.449 174.892 251.299 174.829 250.577 174.107L245.617 169.147Z" fill="#1090F9"/>
<path d="M107.294 177.314V75.8844C107.294 67.9844 113.694 61.5844 121.594 61.5844H167.744C175.644 61.5844 182.044 67.9844 182.044 75.8844V177.314C182.044 185.214 175.644 191.614 167.744 191.614H121.594C113.694 191.614 107.294 185.214 107.294 177.314Z" fill="#7CDDFD"/>
<path d="M167.844 192.484H121.494C113.184 192.484 106.424 185.724 106.424 177.414V75.7843C106.424 67.4743 113.184 60.7144 121.494 60.7144H167.844C176.154 60.7144 182.914 67.4743 182.914 75.7843V177.414C182.914 185.724 176.154 192.484 167.844 192.484ZM121.494 62.4444C114.144 62.4444 108.164 68.4244 108.164 75.7744V177.404C108.164 184.754 114.144 190.734 121.494 190.734H167.844C175.194 190.734 181.174 184.754 181.174 177.404V75.7843C181.174 68.4343 175.194 62.4543 167.844 62.4543H121.494V62.4444Z" fill="#054375"/>
<path d="M182.054 75.4044H107.294V173.464H182.054V75.4044Z" fill="white"/>
<path fill-rule="evenodd" clip-rule="evenodd" d="M157.883 140.019C161.803 136.452 164.263 131.31 164.263 125.593C164.263 114.823 155.532 106.093 144.763 106.093C133.993 106.093 125.263 114.823 125.263 125.593C125.263 131.31 127.723 136.452 131.642 140.019C131.692 140.071 131.747 140.12 131.805 140.165C135.25 143.231 139.789 145.093 144.763 145.093C149.737 145.093 154.276 143.231 157.72 140.165C157.779 140.12 157.833 140.071 157.883 140.019ZM144.763 109.093C135.65 109.093 128.263 116.48 128.263 125.593C128.263 129.8 129.837 133.64 132.429 136.554C133.61 134.849 135.136 133.401 136.916 132.308C137.644 131.861 138.407 131.479 139.194 131.164C137.104 129.516 135.763 126.961 135.763 124.093C135.763 119.122 139.792 115.093 144.763 115.093C149.733 115.093 153.763 119.122 153.763 124.093C153.763 126.961 152.421 129.516 150.331 131.164C151.119 131.479 151.881 131.861 152.609 132.308C154.39 133.401 155.915 134.849 157.096 136.554C159.688 133.64 161.263 129.8 161.263 125.593C161.263 116.48 153.875 109.093 144.763 109.093ZM154.875 138.632C153.901 137.107 152.591 135.817 151.04 134.865C149.183 133.725 147.05 133.112 144.872 133.092C144.836 133.093 144.799 133.093 144.763 133.093C144.726 133.093 144.69 133.093 144.654 133.092C142.475 133.112 140.343 133.725 138.485 134.865C136.934 135.817 135.624 137.107 134.65 138.632C137.443 140.801 140.952 142.093 144.763 142.093C148.573 142.093 152.082 140.801 154.875 138.632ZM144.862 130.092C148.13 130.039 150.763 127.373 150.763 124.093C150.763 120.779 148.076 118.093 144.763 118.093C141.449 118.093 138.763 120.779 138.763 124.093C138.763 127.373 141.395 130.039 144.663 130.092C144.696 130.092 144.729 130.092 144.763 130.092C144.796 130.092 144.829 130.092 144.862 130.092Z" fill="#054375"/>
<path d="M182.044 174.334H107.284C106.804 174.334 106.414 173.944 106.414 173.464V75.4044C106.414 74.9244 106.804 74.5344 107.284 74.5344H182.044C182.524 74.5344 182.914 74.9244 182.914 75.4044V173.464C182.914 173.944 182.534 174.334 182.044 174.334ZM108.164 172.594H181.184V76.2744H108.164V172.594Z" fill="#054375"/>
<path d="M152.164 181.384H138.694C138.214 181.384 137.824 180.994 137.824 180.514C137.824 180.034 138.214 179.644 138.694 179.644H152.164C152.644 179.644 153.034 180.034 153.034 180.514C153.034 180.994 152.644 181.384 152.164 181.384Z" fill="#054375"/>
<g opacity="0.1294">
<path d="M177.044 75.5844C174.494 75.5144 171.944 75.3944 169.394 75.4244C162.534 75.3544 155.664 75.3644 148.794 75.4544C143.394 75.4944 137.994 75.7144 132.594 75.3544C125.974 75.1544 119.354 74.7544 112.724 75.0244C111.794 75.0444 110.864 75.0344 109.934 74.9944C109.374 74.9544 108.774 74.8744 108.264 75.1644C105.734 76.1344 106.524 80.0544 109.244 80.0244C112.474 80.2544 115.724 80.0044 118.954 80.0744C122.814 80.0544 126.664 80.3744 130.524 80.4544C144.924 80.5444 159.334 80.6044 173.734 80.3444C175.644 80.3744 177.564 80.3344 179.474 80.2944C181.054 80.4744 182.664 79.7244 182.684 77.9444C182.484 74.8744 179.184 75.6944 177.044 75.5844Z" fill="#054375"/>
</g>
<path d="M126.584 88.5943C126.584 86.8943 127.964 85.5244 129.654 85.5244C131.344 85.5244 132.724 86.9043 132.724 88.5943C132.724 90.2943 131.344 91.6644 129.654 91.6644C127.964 91.6644 126.584 90.2943 126.584 88.5943Z" fill="white"/>
<path d="M129.654 92.5343C127.484 92.5343 125.714 90.7643 125.714 88.5943C125.714 86.4243 127.484 84.6544 129.654 84.6544C131.824 84.6544 133.594 86.4243 133.594 88.5943C133.594 90.7743 131.824 92.5343 129.654 92.5343ZM129.654 86.3943C128.444 86.3943 127.454 87.3843 127.454 88.5943C127.454 89.8043 128.444 90.7944 129.654 90.7944C130.864 90.7944 131.854 89.8043 131.854 88.5943C131.854 87.3843 130.864 86.3943 129.654 86.3943Z" fill="#054375"/>
<path d="M141.455 88.5943C141.455 86.8943 142.835 85.5244 144.525 85.5244C146.225 85.5244 147.595 86.9043 147.595 88.5943C147.595 90.2943 146.215 91.6644 144.525 91.6644C142.835 91.6644 141.455 90.2943 141.455 88.5943Z" fill="white"/>
<path d="M144.524 92.5343C142.354 92.5343 140.584 90.7643 140.584 88.5943C140.584 86.4243 142.354 84.6544 144.524 84.6544C146.694 84.6544 148.464 86.4243 148.464 88.5943C148.474 90.7743 146.704 92.5343 144.524 92.5343ZM144.524 86.3943C143.314 86.3943 142.324 87.3843 142.324 88.5943C142.324 89.8043 143.314 90.7944 144.524 90.7944C145.734 90.7944 146.724 89.8043 146.724 88.5943C146.734 87.3843 145.744 86.3943 144.524 86.3943Z" fill="#054375"/>
<path d="M156.334 88.5943C156.334 86.8943 157.714 85.5244 159.404 85.5244C161.104 85.5244 162.474 86.9043 162.474 88.5943C162.474 90.2943 161.094 91.6644 159.404 91.6644C157.704 91.6644 156.334 90.2943 156.334 88.5943Z" fill="white"/>
<path d="M159.404 92.5343C157.234 92.5343 155.464 90.7643 155.464 88.5943C155.464 86.4243 157.234 84.6544 159.404 84.6544C161.574 84.6544 163.344 86.4243 163.344 88.5943C163.344 90.7743 161.574 92.5343 159.404 92.5343ZM159.404 86.3943C158.194 86.3943 157.204 87.3843 157.204 88.5943C157.204 89.8043 158.194 90.7944 159.404 90.7944C160.614 90.7944 161.604 89.8043 161.604 88.5943C161.604 87.3843 160.614 86.3943 159.404 86.3943Z" fill="#054375"/>
<g opacity="0.1294">
<path d="M133.694 91.2444C133.254 90.0044 131.464 89.8244 130.674 90.8344C130.664 90.8444 130.664 90.8444 130.654 90.8444C130.544 90.9244 130.434 90.9944 130.314 91.0644C130.174 91.1144 130.024 91.1544 129.874 91.1844C129.844 91.1844 129.824 91.1844 129.794 91.1944C129.734 91.1944 129.674 91.1844 129.614 91.1844C129.554 91.1744 129.484 91.1544 129.404 91.1344C129.244 91.0944 129.124 91.0444 129.044 91.0244C128.954 90.9744 128.864 90.9244 128.774 90.8744C128.664 90.7644 128.544 90.6644 128.394 90.5744C127.044 89.6544 125.214 90.9944 125.664 92.5644C126.084 93.8144 127.574 94.3644 128.764 94.6444C130.594 95.1644 134.634 93.5844 133.694 91.2444Z" fill="#054375"/>
</g>
<g opacity="0.1294">
<path d="M148.964 91.0843C148.584 90.0043 147.034 89.7243 146.264 90.5443C146.174 90.6343 146.084 90.7143 145.984 90.8043C145.954 90.8243 145.934 90.8443 145.894 90.8643C145.264 91.1443 145.374 91.0943 144.554 91.1743C144.444 91.1743 144.344 91.1643 144.234 91.1543C144.114 91.1243 143.984 91.0843 143.894 91.0543C143.714 90.9643 143.534 90.8743 143.364 90.7643C143.334 90.7443 143.314 90.7343 143.294 90.7143C143.094 90.5343 142.914 90.3443 142.654 90.2743C141.084 89.5343 139.644 91.7043 140.884 92.8943C142.344 94.3643 144.524 94.7843 146.474 94.2143C147.744 93.8043 149.654 92.6643 148.964 91.0843Z" fill="#054375"/>
</g>
<g opacity="0.1294">
<path d="M163.744 91.4044C163.434 90.2444 161.954 89.9144 161.094 90.6644C160.984 90.7344 160.864 90.7944 160.744 90.8444C160.684 90.8744 160.624 90.8944 160.564 90.9244C160.504 90.9444 160.344 91.0044 160.164 91.0544C160.094 91.0744 160.024 91.0844 159.964 91.1044C159.824 91.1044 159.684 91.1044 159.544 91.0944C158.724 90.9244 158.734 90.8544 158.504 90.7544C157.784 90.3744 157.014 89.7344 156.144 89.9744C154.844 90.2844 154.594 92.1944 155.774 92.8344C156.454 93.1544 157.044 93.6343 157.764 93.8843C158.574 94.1843 159.464 94.2644 160.324 94.2244C161.834 94.1744 164.204 93.2944 163.744 91.4044Z" fill="#054375"/>
</g>
<path d="M121.054 149.354C120.974 149.354 120.904 149.324 120.844 149.264C120.734 149.144 120.734 148.964 120.854 148.854L145.084 125.674C145.204 125.564 145.384 125.564 145.494 125.684C145.604 125.804 145.604 125.984 145.484 126.094L121.254 149.274C121.194 149.324 121.124 149.354 121.054 149.354Z" fill="#054375"/>
<path d="M120.744 158.584C120.674 158.584 120.594 158.554 120.544 158.504C120.424 158.394 120.424 158.214 120.534 158.094C128.664 149.634 137.044 141.174 145.434 132.934C145.554 132.824 145.734 132.824 145.844 132.934C145.954 133.044 145.954 133.234 145.844 133.344C137.464 141.574 129.084 150.034 120.954 158.494C120.904 158.554 120.824 158.584 120.744 158.584Z" fill="#054375"/>
<path d="M128.804 158.424C128.734 158.424 128.654 158.394 128.604 158.344C128.494 158.234 128.494 158.044 128.604 157.934L146.894 139.394C147.004 139.284 147.194 139.274 147.304 139.394C147.414 139.504 147.424 139.694 147.304 139.804L129.014 158.344C128.954 158.394 128.874 158.424 128.804 158.424Z" fill="#054375"/>
<path d="M137.124 158.824C137.054 158.824 136.984 158.794 136.924 158.744C136.804 158.634 136.804 158.454 136.914 158.334C140.874 154.214 144.774 149.924 148.484 145.574C148.584 145.454 148.774 145.434 148.894 145.544C149.014 145.644 149.034 145.834 148.924 145.954C145.204 150.314 141.304 154.614 137.334 158.744C137.284 158.794 137.204 158.824 137.124 158.824Z" fill="#054375"/>
<path d="M145.524 158.554C145.454 158.554 145.384 158.534 145.334 158.484C145.214 158.374 145.204 158.194 145.304 158.074L150.144 152.494C150.254 152.374 150.434 152.364 150.554 152.464C150.674 152.574 150.684 152.754 150.584 152.874L145.744 158.454C145.684 158.524 145.604 158.554 145.524 158.554Z" fill="#054375"/>
<path d="M189.843 91.0045C171.743 91.0045 157.073 106.245 157.073 125.045C157.073 132.825 159.593 139.985 163.813 145.715L159.803 162.185L173.553 154.575C178.353 157.435 183.913 159.085 189.843 159.085C207.943 159.085 222.613 143.845 222.613 125.045C222.613 106.245 207.943 91.0045 189.843 91.0045Z" fill="white"/>
<path d="M159.803 163.055C159.613 163.055 159.433 162.995 159.273 162.875C159.003 162.665 158.873 162.315 158.953 161.975L162.873 145.895C158.513 139.825 156.203 132.625 156.203 125.035C156.203 105.785 171.293 90.1245 189.843 90.1245C208.393 90.1245 223.483 105.785 223.483 125.035C223.483 144.285 208.393 159.945 189.843 159.945C184.143 159.945 178.513 158.435 173.533 155.565L160.213 162.935C160.093 163.025 159.943 163.055 159.803 163.055ZM189.843 91.8745C172.253 91.8745 157.943 106.754 157.943 125.044C157.943 132.394 160.213 139.365 164.513 145.195C164.663 145.405 164.723 145.664 164.653 145.914L161.113 160.454L173.123 153.805C173.393 153.655 173.723 153.655 173.993 153.815C178.803 156.685 184.283 158.204 189.843 158.204C207.433 158.204 221.743 143.325 221.743 125.035C221.743 106.745 207.433 91.8745 189.843 91.8745Z" fill="#054375"/>
<path opacity="0.1" d="M188.874 159.045C188.484 158.925 188.104 158.975 187.724 159.065C187.584 159.075 187.434 159.075 187.294 159.075C185.654 158.785 184.554 158.775 181.224 157.565C181.144 157.535 181.074 157.505 180.994 157.475C180.854 157.405 180.254 157.115 180.004 157.005C178.894 156.495 177.724 156.145 176.554 155.765C175.594 155.475 174.704 154.915 173.674 154.865C173.224 154.895 172.744 154.985 172.374 155.245C172.064 155.425 171.744 155.585 171.424 155.745C168.984 156.895 166.574 158.125 164.224 159.445C163.244 160.015 162.234 160.515 161.194 160.955C160.714 161.185 160.144 161.315 159.854 161.795C158.734 163.115 160.144 165.215 161.804 164.705C165.834 163.065 169.644 160.945 173.584 159.105C176.024 160.255 178.704 160.725 181.194 161.765C183.284 162.385 185.464 163.265 187.674 162.905C187.504 162.925 187.324 162.955 187.154 162.975C187.884 162.965 188.694 163.085 189.354 162.695C190.864 161.845 190.564 159.485 188.874 159.045Z" fill="#054375"/>
<path d="M186.735 112.645C189.732 111.968 192.868 112.278 195.675 113.529C196.474 113.885 197.41 113.526 197.766 112.727C198.122 111.928 197.763 110.992 196.964 110.636C193.533 109.108 189.7 108.729 186.037 109.557C182.373 110.384 179.076 112.374 176.636 115.229C174.195 118.084 172.743 121.652 172.496 125.399C172.249 129.147 173.22 132.874 175.264 136.025C177.308 139.175 180.316 141.581 183.839 142.882C187.362 144.184 191.212 144.312 194.813 143.247C198.415 142.182 201.576 139.982 203.825 136.973C206.074 133.965 207.29 130.311 207.292 126.555V125.098C207.292 124.223 206.583 123.514 205.709 123.514C204.834 123.514 204.125 124.223 204.125 125.098V126.553C204.123 129.626 203.128 132.616 201.288 135.077C199.449 137.539 196.862 139.339 193.916 140.21C190.969 141.082 187.819 140.977 184.937 139.912C182.054 138.847 179.593 136.879 177.921 134.301C176.248 131.723 175.454 128.674 175.656 125.608C175.858 122.541 177.046 119.623 179.043 117.287C181.039 114.951 183.737 113.323 186.735 112.645Z" fill="#26A94D"/>
<path d="M206.829 115.007C207.447 114.388 207.446 113.385 206.828 112.767C206.209 112.149 205.206 112.15 204.588 112.769L189.875 127.497L186.245 123.867C185.626 123.249 184.624 123.249 184.006 123.867C183.387 124.485 183.387 125.488 184.006 126.106L188.756 130.856C189.053 131.153 189.455 131.32 189.876 131.32C190.296 131.32 190.698 131.153 190.995 130.856L206.829 115.007Z" fill="#26A94D"/>
</svg>
