<svg width="320" height="248" viewBox="0 0 320 248" fill="none" xmlns="http://www.w3.org/2000/svg">
<path opacity="0.3" d="M254.679 129.137C256.232 127.566 256.232 125.02 254.679 123.449L145.393 12.9292C143.685 11.2019 140.861 11.4003 139.406 13.3499L99.1415 67.2889C97.946 68.8903 98.1005 71.1378 99.5035 72.5566L149.71 123.329C151.263 124.9 151.263 127.447 149.71 129.018L93.106 186.26C91.3987 187.987 91.5939 190.841 93.5201 192.314L146.962 233.164C148.546 234.375 150.77 234.219 152.173 232.8L254.679 129.137Z" fill="#1090F9"/>
<path opacity="0.3" d="M144.602 22.1126L253.888 132.632C255.053 133.81 255.053 135.72 253.888 136.899L151.383 240.561C150.33 241.626 148.662 241.742 147.474 240.835L94.0323 199.984C92.5877 198.88 92.4412 196.739 93.7217 195.444L150.326 138.201C152.267 136.238 152.267 133.054 150.326 131.091L100.119 80.3179C99.0669 79.2538 98.9511 77.5682 99.8477 76.3671L140.112 22.4282C141.203 20.966 143.321 20.8172 144.602 22.1126Z" stroke="#05BDFB" stroke-width="2"/>
<path opacity="0.3" d="M196.259 26.6187C197.364 26.6187 198.259 27.5141 198.259 28.6187L198.259 31.3718C198.259 32.2623 197.472 32.9473 196.59 32.8244V32.8244C195.865 32.7234 195.326 32.1036 195.326 31.3718L195.326 31.1829C195.326 30.2821 194.596 29.5519 193.695 29.5519L193.506 29.5519C192.615 29.5519 191.93 28.7648 192.053 27.8828V27.8828C192.154 27.1581 192.774 26.6187 193.506 26.6187L196.259 26.6187Z" fill="#1090F9"/>
<path opacity="0.3" d="M246.27 71.3225C246.823 72.2791 246.495 73.5023 245.538 74.0546L241.454 76.4124C240.403 77.0195 239.057 76.5571 238.601 75.4317L238.56 75.332C238.186 74.4072 238.55 73.3476 239.414 72.8486L239.929 72.5515C240.885 71.9992 241.213 70.776 240.661 69.8194L240.356 69.2919C239.749 68.2403 240.211 66.8947 241.337 66.4384L241.436 66.398C242.361 66.0231 243.421 66.3873 243.92 67.2515L246.27 71.3225Z" fill="#1090F9"/>
<path opacity="0.3" d="M148.408 211.678C148.96 212.634 148.632 213.858 147.676 214.41L143.592 216.768C142.54 217.375 141.195 216.912 140.739 215.787L140.698 215.687C140.323 214.762 140.687 213.703 141.552 213.204L142.066 212.907C143.023 212.354 143.351 211.131 142.798 210.175L142.494 209.647C141.887 208.596 142.349 207.25 143.474 206.794L143.574 206.753C144.499 206.378 145.559 206.743 146.058 207.607L148.408 211.678Z" fill="#1090F9"/>
<path opacity="0.3" d="M244.741 168.593C243.96 167.812 243.96 166.545 244.741 165.764L252.143 158.363C253.024 157.482 254.487 157.612 255.199 158.635L255.929 159.685C256.482 160.48 256.386 161.557 255.702 162.241L253.246 164.697C252.465 165.478 252.465 166.744 253.246 167.525L254.7 168.979C255.542 169.82 255.467 171.205 254.54 171.951L252.37 173.697C251.574 174.337 250.424 174.275 249.702 173.553L244.741 168.593Z" fill="#1090F9"/>
<path d="M121.889 168.821V66.3289C121.889 58.3462 128.356 51.8792 136.339 51.8792H182.972C190.955 51.8792 197.422 58.3462 197.422 66.3289V168.821C197.422 176.804 190.955 183.271 182.972 183.271H136.339C128.356 183.271 121.889 176.804 121.889 168.821Z" fill="#7CDDFD"/>
<path d="M183.073 184.15H136.238C127.841 184.15 121.01 177.319 121.01 168.922V66.2278C121.01 57.8308 127.841 51 136.238 51H183.073C191.47 51 198.301 57.8308 198.301 66.2278V168.922C198.301 177.319 191.47 184.15 183.073 184.15ZM136.238 52.7481C128.811 52.7481 122.768 58.7907 122.768 66.2177V168.912C122.768 176.339 128.811 182.381 136.238 182.381H183.073C190.5 182.381 196.543 176.339 196.543 168.912V66.2278C196.543 58.8008 190.5 52.7582 183.073 52.7582H136.238V52.7481Z" fill="#054375"/>
<path d="M197.432 65.8438H121.889V164.931H197.432V65.8438Z" fill="white"/>
<path d="M197.422 165.81H121.879C121.394 165.81 121 165.416 121 164.931V65.8437C121 65.3587 121.394 64.9646 121.879 64.9646H197.422C197.907 64.9646 198.301 65.3587 198.301 65.8437V164.931C198.301 165.416 197.917 165.81 197.422 165.81ZM122.768 164.051H196.553V66.7228H122.768V164.051Z" fill="#054375"/>
<path d="M167.229 172.934H153.618C153.133 172.934 152.739 172.539 152.739 172.054C152.739 171.569 153.133 171.175 153.618 171.175H167.229C167.714 171.175 168.108 171.569 168.108 172.054C168.108 172.539 167.714 172.934 167.229 172.934Z" fill="#054375"/>
<g opacity="0.1294">
<path d="M193.061 66.0256C190.484 65.9549 187.907 65.8336 185.331 65.8639C178.399 65.7932 171.457 65.8033 164.515 65.8943C159.058 65.9347 153.602 66.157 148.145 65.7932C141.456 65.5911 134.767 65.1869 128.067 65.4598C127.127 65.48 126.188 65.4699 125.248 65.4295C124.682 65.389 124.076 65.3082 123.56 65.6012C121.004 66.5814 121.802 70.5424 124.551 70.5121C127.815 70.7445 131.099 70.4919 134.362 70.5627C138.263 70.5424 142.153 70.8658 146.054 70.9466C160.604 71.0376 175.165 71.0982 189.716 70.8355C191.646 70.8658 193.586 70.8254 195.516 70.785C197.113 70.9668 198.739 70.209 198.76 68.4103C198.558 65.3082 195.223 66.1368 193.061 66.0256Z" fill="#054375"/>
</g>
<g opacity="0.14">
<path fill-rule="evenodd" clip-rule="evenodd" d="M152.636 106.532C153.3 106.824 153.91 107.239 154.431 107.764L160.484 113.817C160.922 114.254 161.631 114.254 162.069 113.817L168.1 107.786C168.539 107.345 169.041 106.98 169.585 106.701C170.41 106.278 171.332 106.053 172.276 106.056V106.056C172.544 106.056 172.678 105.732 172.489 105.543L165.343 98.3972C162.958 96.011 159.092 96.011 156.706 98.3959L149.909 105.198C149.6 105.507 149.819 106.035 150.255 106.035V106.035C151.083 106.033 151.893 106.205 152.636 106.532ZM154.762 104.404C155.377 104.773 155.95 105.218 156.465 105.735L156.467 105.737L160.57 109.841C160.96 110.231 161.593 110.231 161.984 109.841L166.062 105.763L166.066 105.758C166.208 105.616 166.355 105.478 166.505 105.346C166.983 104.928 167.064 104.18 166.615 103.731L163.312 100.428C162.049 99.1646 160.001 99.1633 158.736 100.427L158.734 100.43L154.762 104.404Z" fill="#054375"/>
<path fill-rule="evenodd" clip-rule="evenodd" d="M169.596 126.729C169.048 126.451 168.542 126.086 168.1 125.643L162.068 119.606C161.624 119.182 160.926 119.182 160.483 119.606L154.43 125.659C153.909 126.183 153.3 126.598 152.637 126.89C151.893 127.217 151.083 127.39 150.254 127.388V127.388C149.818 127.388 149.6 127.915 149.908 128.223L156.717 135.032C159.104 137.414 162.968 137.414 165.356 135.032L172.493 127.894C172.687 127.7 172.55 127.368 172.276 127.366V127.366C171.336 127.369 170.418 127.147 169.596 126.729ZM166.622 129.703C167.072 129.253 166.99 128.504 166.51 128.086C166.358 127.954 166.211 127.815 166.067 127.672L161.982 123.584C161.592 123.193 160.958 123.193 160.568 123.584L156.466 127.685L156.463 127.688C156.255 127.897 156.037 128.095 155.811 128.28C155.308 128.692 155.21 129.463 155.67 129.923L158.746 132.999C160.012 134.261 162.06 134.262 163.326 133L166.622 129.703Z" fill="#054375"/>
<path fill-rule="evenodd" clip-rule="evenodd" d="M174.381 107.831C174.585 107.829 174.803 107.859 174.948 108.003L179.337 112.393C181.722 114.779 181.724 118.646 179.338 121.031L174.948 125.421C174.804 125.565 174.585 125.593 174.381 125.593V125.593H172.276C171.181 125.59 170.131 125.155 169.355 124.383L163.324 118.353C162.231 117.26 160.324 117.26 159.229 118.353L153.177 124.406C152.401 125.179 151.351 125.613 150.255 125.617H147.662V125.617C147.468 125.619 147.262 125.591 147.125 125.454L142.703 121.032C140.321 118.645 140.321 114.781 142.703 112.393L147.135 107.97C147.272 107.833 147.478 107.802 147.672 107.807V107.807H150.255C151.351 107.809 152.401 108.245 153.177 109.018L159.231 115.069C160.362 116.197 162.193 116.197 163.324 115.069L169.355 109.041C170.131 108.269 171.181 107.834 172.276 107.831H174.381V107.831ZM177.308 114.423C178.572 115.688 178.571 117.736 177.307 118.999L173.879 122.428C173.691 122.615 173.437 122.721 173.172 122.721H172.28C171.945 122.719 171.622 122.586 171.382 122.348L166.451 117.418C166.061 117.028 166.061 116.394 166.451 116.004L171.381 111.077C171.62 110.84 171.945 110.705 172.281 110.703H173.172C173.437 110.703 173.691 110.809 173.879 110.996L177.308 114.423ZM151.149 111.053L156.103 116.003C156.493 116.394 156.493 117.027 156.103 117.418L151.149 122.371C150.912 122.607 150.589 122.743 150.249 122.745H148.892C148.627 122.745 148.373 122.64 148.185 122.452L144.736 119.003C143.474 117.738 143.473 115.69 144.735 114.424L148.194 110.971C148.381 110.784 148.635 110.679 148.9 110.679H150.251C150.587 110.68 150.91 110.815 151.149 111.053Z" fill="#054375"/>
</g>
<path fill-rule="evenodd" clip-rule="evenodd" d="M150.591 104.488C151.255 104.78 151.865 105.196 152.387 105.72L158.439 111.774C158.877 112.211 159.586 112.211 160.024 111.774L166.055 105.743C166.494 105.301 166.996 104.936 167.54 104.657C168.365 104.234 169.287 104.009 170.231 104.012H170.957L163.298 96.3533C160.913 93.9671 157.047 93.9671 154.661 96.352L147.028 103.991H148.21C149.038 103.989 149.848 104.161 150.591 104.488ZM152.717 102.36C153.332 102.729 153.905 103.174 154.42 103.691L154.422 103.693L159.232 108.504L164.017 103.719L164.021 103.715C164.456 103.277 164.933 102.89 165.442 102.559L161.267 98.3842C160.004 97.1207 157.956 97.1193 156.691 98.3834L156.689 98.3856L152.717 102.36Z" fill="#05BDFB"/>
<path fill-rule="evenodd" clip-rule="evenodd" d="M167.551 124.685C167.003 124.407 166.497 124.042 166.055 123.599L160.023 117.563C159.579 117.138 158.881 117.138 158.438 117.563L152.385 123.615C151.864 124.139 151.255 124.554 150.592 124.846C149.848 125.173 149.038 125.346 148.209 125.344H147.028L154.672 132.988C157.059 135.37 160.923 135.37 163.311 132.988L170.97 125.327L170.231 125.322C169.291 125.325 168.374 125.103 167.551 124.685ZM165.451 126.785C164.939 126.453 164.46 126.066 164.022 125.628L159.23 120.832L154.421 125.641L154.418 125.644C153.904 126.16 153.333 126.605 152.719 126.973L156.701 130.955C157.967 132.217 160.015 132.218 161.281 130.956L165.451 126.785Z" fill="#05BDFB"/>
<path fill-rule="evenodd" clip-rule="evenodd" d="M172.665 105.721L177.292 110.349C179.677 112.735 179.679 116.602 177.293 118.987L172.665 123.615C172.56 123.572 172.449 123.549 172.336 123.549H170.231C169.136 123.546 168.086 123.111 167.31 122.339L161.279 116.309C160.186 115.216 158.279 115.216 157.184 116.309L151.132 122.362C150.356 123.135 149.306 123.569 148.211 123.573H145.617C145.51 123.574 145.405 123.596 145.306 123.636L140.658 118.988C138.276 116.601 138.276 112.737 140.658 110.349L145.316 105.7C145.415 105.74 145.52 105.76 145.627 105.763H148.211C149.306 105.765 150.356 106.201 151.132 106.974L157.186 113.025C158.317 114.153 160.148 114.153 161.279 113.025L167.31 106.997C168.086 106.225 169.136 105.79 170.231 105.787H172.336C172.449 105.786 172.56 105.763 172.665 105.721ZM175.263 112.38C176.527 113.644 176.526 115.692 175.263 116.955L171.541 120.677H170.235C169.9 120.675 169.577 120.542 169.337 120.304L163.699 114.667L169.336 109.033C169.575 108.796 169.9 108.661 170.236 108.659H171.541L175.263 112.38ZM149.104 109.009L154.765 114.666L149.104 120.327C148.867 120.563 148.544 120.699 148.204 120.701H146.433L142.691 116.959C141.429 115.694 141.428 113.646 142.69 112.38L146.442 108.635H148.206C148.542 108.637 148.865 108.771 149.104 109.009Z" fill="#05BDFB"/>
<path d="M212.64 71.8799C194.54 71.8799 179.87 87.1199 179.87 105.92C179.87 113.7 182.39 120.86 186.61 126.59L182.6 143.06L196.35 135.45C201.15 138.31 206.71 139.96 212.64 139.96C230.74 139.96 245.41 124.72 245.41 105.92C245.41 87.1199 230.74 71.8799 212.64 71.8799Z" fill="white"/>
<path d="M182.6 143.93C182.41 143.93 182.23 143.87 182.07 143.75C181.8 143.54 181.67 143.19 181.75 142.85L185.67 126.77C181.31 120.7 179 113.5 179 105.91C179 86.66 194.09 71 212.64 71C231.19 71 246.28 86.66 246.28 105.91C246.28 125.16 231.19 140.82 212.64 140.82C206.94 140.82 201.31 139.31 196.33 136.44L183.01 143.81C182.89 143.9 182.74 143.93 182.6 143.93ZM212.64 72.75C195.05 72.75 180.74 87.63 180.74 105.92C180.74 113.27 183.01 120.24 187.31 126.07C187.46 126.28 187.52 126.54 187.45 126.79L183.91 141.33L195.92 134.68C196.19 134.53 196.52 134.53 196.79 134.69C201.6 137.56 207.08 139.08 212.64 139.08C230.23 139.08 244.54 124.2 244.54 105.91C244.54 87.62 230.23 72.75 212.64 72.75Z" fill="#054375"/>
<path opacity="0.1" d="M211.671 139.92C211.281 139.8 210.901 139.85 210.521 139.94C210.381 139.95 210.231 139.95 210.091 139.95C208.451 139.66 207.351 139.65 204.021 138.44C203.941 138.41 203.871 138.38 203.791 138.35C203.651 138.28 203.051 137.99 202.801 137.88C201.691 137.37 200.521 137.02 199.351 136.64C198.391 136.35 197.501 135.79 196.471 135.74C196.021 135.77 195.541 135.86 195.171 136.12C194.861 136.3 194.541 136.46 194.221 136.62C191.781 137.77 189.371 139 187.021 140.32C186.041 140.89 185.031 141.39 183.991 141.83C183.511 142.06 182.941 142.19 182.651 142.67C181.531 143.99 182.941 146.09 184.601 145.58C188.631 143.94 192.441 141.82 196.381 139.98C198.821 141.13 201.501 141.6 203.991 142.64C206.081 143.26 208.261 144.14 210.471 143.78C210.301 143.8 210.121 143.83 209.951 143.85C210.681 143.84 211.491 143.96 212.151 143.57C213.661 142.72 213.361 140.36 211.671 139.92Z" fill="#054375"/>
<path d="M209.347 93.7846C208.957 93.3941 208.324 93.3941 207.933 93.7846L201.933 99.7846C201.543 100.175 201.543 100.808 201.933 101.199C202.324 101.589 202.957 101.589 203.347 101.199L207.64 96.9059V111.492C207.64 113.613 208.483 115.648 209.983 117.149C211.484 118.649 213.518 119.492 215.64 119.492C217.762 119.492 219.797 118.649 221.297 117.149C222.797 115.648 223.64 113.613 223.64 111.492V100.492C223.64 99.9394 223.192 99.4917 222.64 99.4917C222.088 99.4917 221.64 99.9394 221.64 100.492V111.492C221.64 113.083 221.008 114.609 219.883 115.734C218.758 116.86 217.231 117.492 215.64 117.492C214.049 117.492 212.523 116.86 211.397 115.734C210.272 114.609 209.64 113.083 209.64 111.492V96.9059L213.933 101.199C214.324 101.589 214.957 101.589 215.347 101.199C215.738 100.808 215.738 100.175 215.347 99.7846L209.347 93.7846Z" fill="#26A94D"/>
</svg>
