<svg width="209" height="161" viewBox="0 0 209 161" fill="none" xmlns="http://www.w3.org/2000/svg">
<path opacity="0.3" d="M177.604 81.1519C179.157 79.5811 179.157 77.0342 177.604 75.4634L106.842 3.90353C105.134 2.17624 102.311 2.37469 100.855 4.32429L75.6575 38.0801C74.4621 39.6815 74.6165 41.929 76.0195 43.3478L107.698 75.3839C109.252 76.9548 109.252 79.5016 107.698 81.0724L72.0208 117.152C70.3135 118.879 70.5087 121.733 72.4349 123.206L105.885 148.775C107.469 149.985 109.692 149.83 111.096 148.41L177.604 81.1519Z" fill="#1090F9"/>
<path opacity="0.3" d="M176.842 81.8169C178.007 82.995 178.007 84.9051 176.842 86.0832L110.334 153.341C109.282 154.406 107.614 154.523 106.426 153.615L72.9759 128.046C71.5313 126.941 71.3848 124.801 72.6653 123.506L108.343 87.4259C110.284 85.4624 110.284 82.2788 108.343 80.3153L76.664 48.2791C75.6118 47.215 75.496 45.5294 76.3925 44.3283L101.59 10.5726C102.682 9.11036 104.8 8.96152 106.081 10.257L176.842 81.8169Z" stroke="#05BDFB" stroke-width="2"/>
<path opacity="0.3" d="M138.974 11.928C140.076 11.928 140.969 12.8213 140.969 13.9232L140.969 15.0935C140.969 15.6865 140.445 16.1427 139.858 16.0608C139.375 15.9936 139.016 15.5808 139.016 15.0935L139.016 14.9677C139.016 14.3678 138.53 13.8815 137.93 13.8815L137.804 13.8815C137.211 13.8815 136.755 13.3573 136.837 12.7699C136.904 12.2873 137.317 11.928 137.804 11.928L138.974 11.928Z" fill="#1090F9"/>
<path opacity="0.3" d="M172.609 41.1207C173.161 42.0773 172.833 43.3005 171.877 43.8528L169.771 45.0686C169.052 45.4837 168.132 45.1675 167.82 44.3981C167.564 43.7658 167.813 43.0413 168.404 42.7002L168.556 42.6121C169.283 42.1922 169.533 41.2622 169.113 40.5348L169.025 40.3823C168.609 39.6633 168.926 38.7433 169.695 38.4314C170.327 38.175 171.052 38.424 171.393 39.0149L172.609 41.1207Z" fill="#1090F9"/>
<path opacity="0.3" d="M107.436 134.592C107.988 135.549 107.66 136.772 106.704 137.324L104.598 138.54C103.879 138.955 102.959 138.639 102.647 137.869C102.391 137.237 102.64 136.513 103.231 136.171L103.383 136.083C104.111 135.664 104.36 134.733 103.94 134.006L103.852 133.854C103.437 133.135 103.753 132.215 104.522 131.903C105.155 131.646 105.879 131.895 106.22 132.486L107.436 134.592Z" fill="#1090F9"/>
<path opacity="0.3" d="M172.397 106.95C171.616 106.169 171.616 104.903 172.397 104.121L176.5 100.019C177.271 99.2479 178.552 99.3619 179.175 100.257C179.66 100.953 179.576 101.896 178.976 102.496L178.047 103.425C177.274 104.198 177.274 105.451 178.047 106.224C178.88 107.057 178.806 108.428 177.888 109.167L177.472 109.501C176.677 110.141 175.527 110.079 174.804 109.357L172.397 106.95Z" fill="#1090F9"/>
<path d="M65.5625 118.158V43.7613C65.5625 37.9668 70.2567 33.2726 76.0512 33.2726H109.901C115.695 33.2726 120.39 37.9668 120.39 43.7613V118.158C120.39 123.952 115.695 128.646 109.901 128.646H76.0512C70.2567 128.646 65.5625 123.952 65.5625 118.158Z" fill="#7CDDFD"/>
<path d="M109.975 129.284H75.9783C69.8831 129.284 64.9248 124.326 64.9248 118.231V43.6878C64.9248 37.5927 69.8831 32.6344 75.9783 32.6344H109.975C116.07 32.6344 121.028 37.5927 121.028 43.6878V118.231C121.028 124.326 116.07 129.284 109.975 129.284ZM75.9783 33.9033C70.5872 33.9033 66.201 38.2895 66.201 43.6805V118.223C66.201 123.614 70.5872 128.001 75.9783 128.001H109.975C115.366 128.001 119.752 123.614 119.752 118.223V43.6878C119.752 38.2968 115.366 33.9106 109.975 33.9106H75.9783V33.9033Z" fill="#054375"/>
<path d="M120.397 43.4092H65.5625V115.334H120.397V43.4092Z" fill="white"/>
<path fill-rule="evenodd" clip-rule="evenodd" d="M100.664 88.9889C103.277 86.611 104.917 83.1828 104.917 79.3715C104.917 72.1918 99.0967 66.3715 91.917 66.3715C84.7373 66.3715 78.917 72.1918 78.917 79.3715C78.917 83.1828 80.5571 86.611 83.17 88.9888C83.2034 89.0237 83.2396 89.0563 83.2785 89.0865C85.575 91.13 88.601 92.3715 91.917 92.3715C95.233 92.3715 98.259 91.13 100.556 89.0864C100.594 89.0563 100.631 89.0237 100.664 88.9889ZM91.917 68.3715C85.8419 68.3715 80.917 73.2964 80.917 79.3715C80.917 82.1763 81.9668 84.736 83.6948 86.679C84.4818 85.5421 85.499 84.5766 86.6858 83.8482C87.1715 83.5501 87.6797 83.2953 88.2045 83.0854C86.8113 81.9867 85.917 80.2835 85.917 78.3715C85.917 75.0578 88.6033 72.3715 91.917 72.3715C95.2307 72.3715 97.917 75.0578 97.917 78.3715C97.917 80.2835 97.0226 81.9867 95.6294 83.0854C96.1543 83.2953 96.6625 83.5501 97.1482 83.8482C98.3349 84.5766 99.3521 85.5421 100.139 86.679C101.867 84.736 102.917 82.1764 102.917 79.3715C102.917 73.2964 97.9921 68.3715 91.917 68.3715ZM98.6588 88.064C98.0092 87.0472 97.1361 86.1874 96.1019 85.5527C94.8635 84.7925 93.4419 84.3843 91.9898 84.3711C91.9655 84.3714 91.9413 84.3715 91.917 84.3715C91.8927 84.3715 91.8684 84.3714 91.8442 84.3711C90.3921 84.3843 88.9705 84.7925 87.732 85.5527C86.6979 86.1874 85.8247 87.0472 85.1752 88.064C87.0373 89.5103 89.3766 90.3715 91.917 90.3715C94.4574 90.3715 96.7967 89.5104 98.6588 88.064ZM91.9835 82.371C94.162 82.3355 95.917 80.5584 95.917 78.3715C95.917 76.1624 94.1261 74.3715 91.917 74.3715C89.7079 74.3715 87.917 76.1624 87.917 78.3715C87.917 80.5584 89.672 82.3355 91.8505 82.371C91.8726 82.3708 91.8948 82.3708 91.917 82.3708C91.9392 82.3708 91.9613 82.3708 91.9835 82.371Z" fill="#054375"/>
<path d="M120.39 115.972H65.5551C65.203 115.972 64.917 115.686 64.917 115.334V43.4092C64.917 43.0571 65.203 42.7711 65.5551 42.7711H120.39C120.742 42.7711 121.028 43.0571 121.028 43.4092V115.334C121.028 115.686 120.749 115.972 120.39 115.972ZM66.2006 114.696H119.759V44.0473H66.2006V114.696Z" fill="#054375"/>
<path d="M98.4731 121.143H88.5932C88.2411 121.143 87.9551 120.857 87.9551 120.505C87.9551 120.152 88.2411 119.866 88.5932 119.866H98.4731C98.8251 119.866 99.1112 120.152 99.1112 120.505C99.1112 120.857 98.8251 121.143 98.4731 121.143Z" fill="#054375"/>
<g opacity="0.1294">
<path d="M116.722 43.5411C114.851 43.4897 112.981 43.4017 111.111 43.4237C106.079 43.3724 101.04 43.3797 96.0012 43.4457C92.0404 43.4751 88.0797 43.6364 84.1189 43.3724C79.2633 43.2257 74.4077 42.9323 69.5448 43.1303C68.8626 43.145 68.1805 43.1377 67.4984 43.1083C67.0877 43.079 66.6476 43.0203 66.2735 43.233C64.4178 43.9445 64.9973 46.8197 66.9923 46.7977C69.3614 46.9664 71.7452 46.783 74.1143 46.8344C76.9456 46.8197 79.7694 47.0544 82.6006 47.1131C93.1627 47.1791 103.732 47.2231 114.294 47.0324C115.695 47.0544 117.103 47.0251 118.504 46.9957C119.663 47.1278 120.844 46.5777 120.859 45.2721C120.712 43.0203 118.291 43.6218 116.722 43.5411Z" fill="#054375"/>
</g>
<path d="M129.592 54.8512C116.316 54.8512 105.556 66.0293 105.556 79.8186C105.556 85.5251 107.404 90.7767 110.499 94.9796L107.558 107.06L117.643 101.478C121.164 103.576 125.242 104.786 129.592 104.786C142.867 104.786 153.628 93.6079 153.628 79.8186C153.628 66.0293 142.867 54.8512 129.592 54.8512Z" fill="white"/>
<path d="M107.557 107.698C107.418 107.698 107.286 107.654 107.169 107.566C106.971 107.412 106.875 107.155 106.934 106.906L109.809 95.1115C106.611 90.6593 104.917 85.3783 104.917 79.8113C104.917 65.6919 115.985 54.2057 129.591 54.2057C143.197 54.2057 154.265 65.6919 154.265 79.8113C154.265 93.9306 143.197 105.417 129.591 105.417C125.41 105.417 121.281 104.309 117.628 102.204L107.858 107.61C107.77 107.676 107.66 107.698 107.557 107.698ZM129.591 55.4893C116.689 55.4893 106.193 66.4033 106.193 79.8186C106.193 85.2096 107.858 90.3219 111.012 94.5981C111.122 94.7521 111.166 94.9428 111.115 95.1262L108.518 105.791L117.327 100.913C117.525 100.803 117.767 100.803 117.965 100.921C121.493 103.026 125.513 104.141 129.591 104.141C142.493 104.141 152.989 93.2265 152.989 79.8113C152.989 66.396 142.493 55.4893 129.591 55.4893Z" fill="#054375"/>
<path d="M79.7109 53.0837C79.7109 51.8368 80.7231 50.8319 81.9627 50.8319C83.2023 50.8319 84.2144 51.8441 84.2144 53.0837C84.2144 54.3306 83.2023 55.3354 81.9627 55.3354C80.7231 55.3354 79.7109 54.3306 79.7109 53.0837Z" fill="white"/>
<path d="M81.9631 55.9735C80.3715 55.9735 79.0732 54.6752 79.0732 53.0836C79.0732 51.492 80.3715 50.1937 81.9631 50.1937C83.5548 50.1937 84.853 51.492 84.853 53.0836C84.853 54.6826 83.5548 55.9735 81.9631 55.9735ZM81.9631 51.47C81.0756 51.47 80.3495 52.1961 80.3495 53.0836C80.3495 53.9711 81.0756 54.6973 81.9631 54.6973C82.8506 54.6973 83.5767 53.9711 83.5767 53.0836C83.5767 52.1961 82.8506 51.47 81.9631 51.47Z" fill="#054375"/>
<path d="M90.6191 53.0837C90.6191 51.8368 91.6313 50.8319 92.8709 50.8319C94.1178 50.8319 95.1226 51.8441 95.1226 53.0837C95.1226 54.3306 94.1105 55.3354 92.8709 55.3354C91.6313 55.3354 90.6191 54.3306 90.6191 53.0837Z" fill="white"/>
<path d="M92.8704 55.9735C91.2787 55.9735 89.9805 54.6752 89.9805 53.0836C89.9805 51.492 91.2787 50.1937 92.8704 50.1937C94.462 50.1937 95.7602 51.492 95.7602 53.0836C95.7676 54.6826 94.4693 55.9735 92.8704 55.9735ZM92.8704 51.47C91.9829 51.47 91.2567 52.1961 91.2567 53.0836C91.2567 53.9711 91.9829 54.6973 92.8704 54.6973C93.7579 54.6973 94.484 53.9711 94.484 53.0836C94.4913 52.1961 93.7652 51.47 92.8704 51.47Z" fill="#054375"/>
<path d="M101.532 53.0837C101.532 51.8368 102.544 50.8319 103.784 50.8319C105.031 50.8319 106.036 51.8441 106.036 53.0837C106.036 54.3306 105.024 55.3354 103.784 55.3354C102.537 55.3354 101.532 54.3306 101.532 53.0837Z" fill="white"/>
<path d="M103.784 55.9735C102.193 55.9735 100.895 54.6752 100.895 53.0836C100.895 51.492 102.193 50.1937 103.784 50.1937C105.376 50.1937 106.674 51.492 106.674 53.0836C106.674 54.6826 105.376 55.9735 103.784 55.9735ZM103.784 51.47C102.897 51.47 102.171 52.1961 102.171 53.0836C102.171 53.9711 102.897 54.6973 103.784 54.6973C104.672 54.6973 105.398 53.9711 105.398 53.0836C105.398 52.1961 104.672 51.47 103.784 51.47Z" fill="#054375"/>
<g opacity="0.1294">
<path d="M84.9262 55.0273C84.6034 54.1178 83.2905 53.9858 82.7111 54.7266C82.7037 54.7339 82.7038 54.7339 82.6964 54.7339C82.6157 54.7926 82.535 54.844 82.447 54.8953C82.3443 54.932 82.2343 54.9613 82.1243 54.9833C82.1023 54.9833 82.0876 54.9833 82.0656 54.9907C82.0216 54.9907 81.9776 54.9833 81.9336 54.9833C81.8896 54.976 81.8383 54.9613 81.7796 54.9467C81.6622 54.9173 81.5742 54.8806 81.5155 54.866C81.4495 54.8293 81.3835 54.7926 81.3175 54.756C81.2368 54.6753 81.1488 54.6019 81.0388 54.5359C80.0486 53.8611 78.7063 54.844 79.0364 55.9955C79.3444 56.9124 80.4373 57.3158 81.3101 57.5211C82.6524 57.9026 85.6156 56.7437 84.9262 55.0273Z" fill="#054375"/>
</g>
<g opacity="0.1294">
<path d="M96.1267 54.91C95.8479 54.1179 94.7111 53.9125 94.1463 54.514C94.0803 54.58 94.0142 54.6387 93.9409 54.7047C93.9189 54.7193 93.9042 54.734 93.8749 54.7487C93.4128 54.9541 93.4935 54.9174 92.892 54.9761C92.8113 54.9761 92.738 54.9687 92.6573 54.9614C92.5693 54.9394 92.474 54.91 92.4079 54.888C92.2759 54.822 92.1439 54.756 92.0192 54.6753C91.9972 54.6607 91.9825 54.6533 91.9678 54.6387C91.8211 54.5066 91.6891 54.3673 91.4984 54.3159C90.3469 53.7732 89.2907 55.3648 90.2002 56.2376C91.2711 57.3158 92.87 57.6239 94.3003 57.2058C95.2318 56.9051 96.6328 56.0689 96.1267 54.91Z" fill="#054375"/>
</g>
<g opacity="0.1294">
<path d="M106.967 55.1447C106.74 54.2939 105.654 54.0518 105.024 54.6019C104.943 54.6533 104.855 54.6973 104.767 54.734C104.723 54.756 104.679 54.7706 104.635 54.7926C104.591 54.8073 104.473 54.8513 104.341 54.888C104.29 54.9027 104.239 54.91 104.195 54.9247C104.092 54.9247 103.989 54.9247 103.887 54.9173C103.285 54.7926 103.293 54.7413 103.124 54.668C102.596 54.3892 102.031 53.9198 101.393 54.0958C100.439 54.3232 100.256 55.7242 101.121 56.1936C101.62 56.4283 102.053 56.7803 102.581 56.9637C103.175 57.1838 103.828 57.2425 104.459 57.2131C105.566 57.1764 107.305 56.531 106.967 55.1447Z" fill="#054375"/>
</g>
<path d="M75.6551 97.6495C75.5964 97.6495 75.545 97.6275 75.501 97.5835C75.4203 97.4954 75.4204 97.3634 75.5084 97.2827L93.2805 80.2808C93.3685 80.2001 93.5005 80.2001 93.5812 80.2882C93.6619 80.3762 93.6619 80.5082 93.5738 80.5889L75.8018 97.5908C75.7578 97.6275 75.7064 97.6495 75.6551 97.6495Z" fill="#054375"/>
<path d="M75.4275 104.419C75.3762 104.419 75.3175 104.397 75.2808 104.361C75.1928 104.28 75.1928 104.148 75.2735 104.06C81.2366 97.8549 87.3832 91.6497 93.537 85.6059C93.625 85.5252 93.757 85.5252 93.8377 85.6059C93.9184 85.6865 93.9184 85.8259 93.8377 85.9066C87.6912 91.9431 81.5447 98.1483 75.5816 104.353C75.5449 104.397 75.4862 104.419 75.4275 104.419Z" fill="#054375"/>
<path d="M81.3391 104.302C81.2877 104.302 81.229 104.28 81.1923 104.244C81.1117 104.163 81.1117 104.023 81.1923 103.943L94.6076 90.3442C94.6883 90.2635 94.8276 90.2562 94.9083 90.3442C94.989 90.4249 94.9963 90.5642 94.9083 90.6449L81.4931 104.244C81.4491 104.28 81.3904 104.302 81.3391 104.302Z" fill="#054375"/>
<path d="M87.4422 104.596C87.3908 104.596 87.3395 104.574 87.2955 104.537C87.2075 104.456 87.2075 104.324 87.2881 104.236C90.1927 101.214 93.0532 98.0677 95.7744 94.8771C95.8478 94.7891 95.9872 94.7744 96.0752 94.8551C96.1632 94.9284 96.1778 95.0678 96.0972 95.1558C93.3686 98.3537 90.5081 101.508 87.5962 104.537C87.5596 104.574 87.5009 104.596 87.4422 104.596Z" fill="#054375"/>
<path d="M93.603 104.398C93.5516 104.398 93.5003 104.383 93.4636 104.346C93.3756 104.266 93.3683 104.133 93.4416 104.045L96.9916 99.9527C97.0723 99.8647 97.2043 99.8573 97.2923 99.9307C97.3804 100.011 97.3877 100.143 97.3144 100.231L93.7643 104.324C93.7203 104.376 93.6617 104.398 93.603 104.398Z" fill="#054375"/>
<g opacity="0.1294">
<path d="M128.522 104.024C128.236 103.936 127.957 103.973 127.679 104.039C127.576 104.046 127.466 104.046 127.363 104.046C126.16 103.833 125.353 103.826 122.911 102.939C122.852 102.917 122.801 102.895 122.742 102.873C122.64 102.821 122.2 102.608 122.016 102.528C121.202 102.154 120.344 101.897 119.486 101.618C118.782 101.406 118.129 100.995 117.373 100.958C117.043 100.98 116.691 101.046 116.42 101.237C116.192 101.369 115.958 101.486 115.723 101.604C113.933 102.447 112.166 103.349 110.442 104.317C109.723 104.736 108.982 105.102 108.22 105.425C107.867 105.594 107.449 105.689 107.237 106.041C106.415 107.009 107.449 108.55 108.667 108.176C111.623 106.973 114.417 105.418 117.307 104.068C119.097 104.912 121.063 105.256 122.889 106.019C124.422 106.474 126.021 107.119 127.642 106.855C127.517 106.87 127.385 106.892 127.261 106.907C127.796 106.899 128.39 106.987 128.874 106.701C129.982 106.078 129.762 104.347 128.522 104.024Z" fill="#054375"/>
</g>
<path d="M127.288 70.0195C129.486 69.5228 131.786 69.75 133.845 70.6674C134.431 70.9284 135.118 70.6651 135.379 70.0792C135.64 69.4934 135.376 68.8068 134.791 68.5458C132.274 67.4246 129.463 67.1468 126.776 67.7539C124.089 68.361 121.67 69.8205 119.88 71.9146C118.09 74.0087 117.025 76.6253 116.844 79.3741C116.663 82.1229 117.375 84.8567 118.874 87.1677C120.374 89.4787 122.58 91.2431 125.164 92.1977C127.748 93.1524 130.572 93.2462 133.213 92.4651C135.855 91.6841 138.174 90.07 139.823 87.8636C141.472 85.6572 142.364 82.9767 142.366 80.2219V79.1528C142.366 78.5114 141.846 77.9915 141.205 77.9915C140.563 77.9915 140.043 78.5114 140.043 79.1528V80.2206C140.042 82.4745 139.312 84.6676 137.963 86.4729C136.613 88.2781 134.716 89.5987 132.555 90.2378C130.393 90.8768 128.083 90.8001 125.969 90.019C123.855 89.2379 122.05 87.7943 120.823 85.9035C119.596 84.0126 119.013 81.7759 119.162 79.5269C119.31 77.2779 120.181 75.137 121.646 73.4237C123.11 71.7103 125.089 70.5162 127.288 70.0195Z" fill="#26A94D"/>
<path d="M142.026 71.7513C142.48 71.2975 142.479 70.5622 142.025 70.1089C141.572 69.6556 140.836 69.656 140.383 70.1097L129.591 80.9128L126.928 78.2503C126.475 77.7968 125.739 77.7968 125.286 78.2503C124.832 78.7039 124.832 79.4392 125.286 79.8927L128.77 83.3768C128.988 83.5946 129.283 83.717 129.591 83.7169C129.9 83.7168 130.195 83.5943 130.413 83.3764L142.026 71.7513Z" fill="#26A94D"/>
</svg>
