<svg width="208" height="160" viewBox="0 0 208 160" fill="none" xmlns="http://www.w3.org/2000/svg">
<path opacity="0.3" d="M176.686 80.5173C178.24 78.9465 178.24 76.3997 176.686 74.8288L105.925 3.26894C104.217 1.54166 101.393 1.74011 99.938 3.68971L74.7401 37.4455C73.5447 39.0469 73.6991 41.2944 75.1021 42.7132L106.781 74.7494C108.334 76.3202 108.334 78.867 106.781 80.4379L71.1034 116.518C69.3961 118.244 69.5914 121.099 71.5175 122.571L104.968 148.14C106.551 149.351 108.775 149.195 110.179 147.775L176.686 80.5173Z" fill="#1090F9"/>
<path opacity="0.3" d="M175.925 81.1825C177.09 82.3606 177.09 84.2707 175.925 85.4488L109.417 152.707C108.365 153.772 106.697 153.888 105.509 152.98L72.0589 127.411C70.6143 126.307 70.4678 124.166 71.7483 122.872L107.426 86.7915C109.367 84.828 109.367 81.6444 107.426 79.6809L75.747 47.6447C74.6948 46.5806 74.579 44.895 75.4755 43.6939L100.673 9.93816C101.765 8.47596 103.883 8.32712 105.164 9.62258L175.925 81.1825Z" stroke="#05BDFB" stroke-width="2"/>
<path opacity="0.3" d="M138.057 11.2937C139.159 11.2937 140.052 12.187 140.052 13.2889L140.052 14.4591C140.052 15.0522 139.528 15.5083 138.941 15.4265C138.458 15.3592 138.099 14.9465 138.099 14.4591L138.099 14.3333C138.099 13.7334 137.613 13.2471 137.013 13.2471L136.887 13.2471C136.294 13.2471 135.838 12.7229 135.92 12.1356C135.987 11.6529 136.4 11.2937 136.887 11.2937L138.057 11.2937Z" fill="#1090F9"/>
<path opacity="0.3" d="M171.692 40.4863C172.244 41.4428 171.916 42.666 170.96 43.2183L168.854 44.4341C168.135 44.8492 167.215 44.533 166.903 43.7636C166.647 43.1313 166.896 42.4069 167.487 42.0657L167.639 41.9777C168.366 41.5577 168.616 40.6277 168.196 39.9004L168.108 39.7478C167.693 39.0288 168.009 38.1088 168.778 37.7969C169.41 37.5406 170.135 37.7896 170.476 38.3804L171.692 40.4863Z" fill="#1090F9"/>
<path opacity="0.3" d="M106.519 133.958C107.071 134.914 106.744 136.137 105.787 136.69L103.681 137.906C102.962 138.321 102.042 138.004 101.73 137.235C101.474 136.603 101.723 135.878 102.314 135.537L102.466 135.449C103.194 135.029 103.443 134.099 103.023 133.372L102.935 133.219C102.52 132.5 102.836 131.58 103.605 131.268C104.238 131.012 104.962 131.261 105.303 131.852L106.519 133.958Z" fill="#1090F9"/>
<path opacity="0.3" d="M171.48 106.316C170.699 105.535 170.699 104.268 171.48 103.487L175.583 99.3849C176.354 98.6136 177.635 98.7276 178.258 99.623C178.742 100.319 178.659 101.262 178.059 101.861L177.13 102.791C176.357 103.564 176.357 104.817 177.13 105.59C177.963 106.423 177.889 107.794 176.971 108.532L176.555 108.867C175.76 109.507 174.609 109.445 173.887 108.723L171.48 106.316Z" fill="#1090F9"/>
<path d="M64.6454 117.523V43.1269C64.6454 37.3324 69.3396 32.6382 75.1341 32.6382H108.984C114.778 32.6382 119.473 37.3324 119.473 43.1269V117.523C119.473 123.318 114.778 128.012 108.984 128.012H75.1341C69.3396 128.012 64.6454 123.318 64.6454 117.523Z" fill="#7CDDFD"/>
<path d="M109.057 128.65H75.0608C68.9656 128.65 64.0073 123.692 64.0073 117.596V43.0534C64.0073 36.9583 68.9656 32 75.0608 32H109.057C115.152 32 120.111 36.9583 120.111 43.0534V117.596C120.111 123.692 115.152 128.65 109.057 128.65ZM75.0608 33.2689C69.6697 33.2689 65.2836 37.6551 65.2836 43.0461V117.589C65.2836 122.98 69.6697 127.366 75.0608 127.366H109.057C114.448 127.366 118.834 122.98 118.834 117.589V43.0534C118.834 37.6624 114.448 33.2762 109.057 33.2762H75.0608V33.2689Z" fill="#054375"/>
<path d="M119.48 42.7749H64.6454V114.699H119.48V42.7749Z" fill="white"/>
<path fill-rule="evenodd" clip-rule="evenodd" d="M90.8679 88.2734V92.4297C90.8679 92.7576 91.1338 93.0234 91.4617 93.0234H92.6492C92.9771 93.0234 93.2429 92.7576 93.2429 92.4297V88.2603C94.3418 88.2254 95.7047 88.099 96.9255 87.6412C97.8092 87.3098 98.6871 86.7819 99.3418 85.932C100.006 85.0693 100.368 83.9695 100.368 82.6328C100.368 81.2961 100.006 80.1963 99.3418 79.3336C98.6871 78.4837 97.8092 77.9558 96.9255 77.6244C95.7047 77.1666 94.3418 77.0402 93.2429 77.0054V70.4609L98.5867 70.4609C98.9146 70.4609 99.1804 70.1951 99.1804 69.8672L99.1804 68.6797C99.1804 68.3518 98.9146 68.0859 98.5867 68.0859L93.2429 68.0859V63.9297C93.2429 63.6018 92.9771 63.3359 92.6492 63.3359H91.4617C91.1338 63.3359 90.8679 63.6018 90.8679 63.9297V68.1073C89.726 68.1512 88.4215 68.2847 87.2627 68.69C86.3585 69.0062 85.4623 69.5129 84.7929 70.3406C84.1103 71.1847 83.7429 72.2649 83.7429 73.573C83.7429 74.8815 84.1099 75.966 84.765 76.8262C85.4092 77.672 86.2724 78.2235 87.1482 78.586C88.3791 79.0953 89.7482 79.2758 90.8679 79.3372V85.8984H85.5242C85.1962 85.8984 84.9304 86.1643 84.9304 86.4922V87.6797C84.9304 88.0076 85.1962 88.2734 85.5242 88.2734H90.8679ZM93.2429 85.8827C94.198 85.849 95.2206 85.744 96.0916 85.4174C96.6922 85.1922 97.1503 84.8851 97.4604 84.4826C97.7606 84.0928 97.9929 83.5227 97.9929 82.6328C97.9929 81.7429 97.7606 81.1728 97.4604 80.7831C97.1503 80.3805 96.6922 80.0735 96.0916 79.8482C95.2206 79.5216 94.198 79.4166 93.2429 79.3829V85.8827ZM90.8679 76.9576V70.4854C89.8831 70.5265 88.8901 70.6369 88.0467 70.9318C87.4141 71.153 86.9482 71.4525 86.6396 71.834C86.3443 72.1992 86.1179 72.7314 86.1179 73.573C86.1179 74.4143 86.3447 74.9806 86.6544 75.3872C86.9751 75.8082 87.4478 76.1396 88.0563 76.3914C88.9187 76.7483 89.9354 76.8986 90.8679 76.9576Z" fill="#054375"/>
<path d="M119.473 115.337H64.6381C64.2861 115.337 64 115.051 64 114.699V42.7748C64 42.4228 64.2861 42.1367 64.6381 42.1367H119.473C119.825 42.1367 120.111 42.4228 120.111 42.7748V114.699C120.111 115.051 119.832 115.337 119.473 115.337ZM65.2836 114.061H118.842V43.413H65.2836V114.061Z" fill="#054375"/>
<path d="M97.5566 120.508H87.6767C87.3246 120.508 87.0386 120.222 87.0386 119.87C87.0386 119.518 87.3246 119.232 87.6767 119.232H97.5566C97.9086 119.232 98.1947 119.518 98.1947 119.87C98.1947 120.222 97.9086 120.508 97.5566 120.508Z" fill="#054375"/>
<g opacity="0.1294">
<path d="M115.805 42.9067C113.935 42.8553 112.065 42.7673 110.194 42.7893C105.163 42.738 100.124 42.7453 95.0847 42.8113C91.1239 42.8407 87.1632 43.002 83.2024 42.738C78.3468 42.5913 73.4912 42.2979 68.6283 42.4959C67.9461 42.5106 67.264 42.5033 66.5819 42.4739C66.1711 42.4446 65.7311 42.3859 65.357 42.5986C63.5013 43.3101 64.0807 46.1853 66.0758 46.1633C68.4449 46.332 70.8287 46.1486 73.1978 46.2C76.0291 46.1853 78.8529 46.42 81.6841 46.4787C92.2462 46.5447 102.815 46.5887 113.378 46.398C114.778 46.42 116.187 46.3907 117.588 46.3613C118.747 46.4934 119.927 45.9433 119.942 44.6377C119.795 42.3859 117.375 42.9874 115.805 42.9067Z" fill="#054375"/>
</g>
<path d="M128.674 54.2168C115.398 54.2168 104.638 65.3949 104.638 79.1842C104.638 84.8907 106.487 90.1423 109.582 94.3452L106.641 106.425L116.726 100.844C120.247 102.941 124.325 104.152 128.674 104.152C141.95 104.152 152.71 92.9735 152.71 79.1842C152.71 65.3949 141.95 54.2168 128.674 54.2168Z" fill="white"/>
<path d="M106.64 107.064C106.501 107.064 106.369 107.02 106.252 106.932C106.054 106.777 105.958 106.521 106.017 106.271L108.892 94.4771C105.694 90.0249 104 84.7439 104 79.1769C104 65.0575 115.068 53.5713 128.674 53.5713C142.28 53.5713 153.348 65.0575 153.348 79.1769C153.348 93.2962 142.28 104.782 128.674 104.782C124.493 104.782 120.364 103.675 116.711 101.57L106.941 106.976C106.853 107.042 106.743 107.064 106.64 107.064ZM128.674 54.8549C115.772 54.8549 105.276 65.7689 105.276 79.1842C105.276 84.5752 106.941 89.6875 110.095 93.9637C110.205 94.1177 110.249 94.3084 110.198 94.4918L107.601 105.156L116.41 100.279C116.608 100.169 116.85 100.169 117.048 100.286C120.576 102.391 124.596 103.506 128.674 103.506C141.576 103.506 152.072 92.5921 152.072 79.1769C152.072 65.7616 141.576 54.8549 128.674 54.8549Z" fill="#054375"/>
<path d="M74.738 97.0152C74.6793 97.0152 74.6279 96.9932 74.5839 96.9492C74.5032 96.8612 74.5032 96.7291 74.5913 96.6485L92.3634 79.6465C92.4514 79.5659 92.5834 79.5659 92.6641 79.6539C92.7447 79.7419 92.7447 79.8739 92.6567 79.9546L74.8847 96.9565C74.8407 96.9932 74.7893 97.0152 74.738 97.0152Z" fill="#054375"/>
<path d="M74.5105 103.785C74.4592 103.785 74.4005 103.763 74.3638 103.726C74.2758 103.646 74.2758 103.514 74.3565 103.426C80.3196 97.2204 86.4662 91.0152 92.62 84.9714C92.708 84.8907 92.84 84.8907 92.9207 84.9714C93.0014 85.0521 93.0014 85.1914 92.9207 85.2721C86.7742 91.3086 80.6277 97.5138 74.6646 103.719C74.6279 103.763 74.5692 103.785 74.5105 103.785Z" fill="#054375"/>
<path d="M80.4224 103.668C80.3711 103.668 80.3124 103.646 80.2757 103.609C80.195 103.528 80.195 103.389 80.2757 103.308L93.691 89.7098C93.7717 89.6291 93.911 89.6218 93.9917 89.7098C94.0724 89.7905 94.0797 89.9298 93.9917 90.0105L80.5765 103.609C80.5325 103.646 80.4738 103.668 80.4224 103.668Z" fill="#054375"/>
<path d="M86.5249 103.961C86.4736 103.961 86.4223 103.939 86.3782 103.903C86.2902 103.822 86.2902 103.69 86.3709 103.602C89.2755 100.58 92.136 97.4333 94.8572 94.2427C94.9305 94.1547 95.0699 94.14 95.1579 94.2207C95.246 94.2941 95.2606 94.4334 95.1799 94.5215C92.4514 97.7194 89.5909 100.873 86.679 103.903C86.6423 103.939 86.5836 103.961 86.5249 103.961Z" fill="#054375"/>
<path d="M92.6861 103.763C92.6348 103.763 92.5834 103.749 92.5468 103.712C92.4587 103.631 92.4514 103.499 92.5247 103.411L96.0748 99.3184C96.1554 99.2303 96.2875 99.223 96.3755 99.2963C96.4635 99.377 96.4708 99.5091 96.3975 99.5971L92.8475 103.69C92.8035 103.741 92.7448 103.763 92.6861 103.763Z" fill="#054375"/>
<g opacity="0.1294">
<path d="M127.605 103.39C127.319 103.302 127.04 103.338 126.762 103.404C126.659 103.412 126.549 103.412 126.446 103.412C125.243 103.199 124.436 103.192 121.994 102.304C121.935 102.282 121.884 102.26 121.825 102.238C121.723 102.187 121.283 101.974 121.099 101.893C120.285 101.519 119.427 101.263 118.569 100.984C117.865 100.771 117.212 100.36 116.456 100.324C116.126 100.346 115.774 100.412 115.503 100.602C115.275 100.734 115.041 100.852 114.806 100.969C113.016 101.813 111.249 102.715 109.525 103.683C108.806 104.101 108.065 104.468 107.303 104.791C106.951 104.959 106.532 105.055 106.32 105.407C105.498 106.375 106.532 107.915 107.75 107.541C110.706 106.338 113.5 104.783 116.39 103.434C118.18 104.277 120.146 104.622 121.972 105.385C123.505 105.839 125.104 106.485 126.725 106.221C126.6 106.236 126.468 106.258 126.344 106.272C126.879 106.265 127.473 106.353 127.957 106.067C129.065 105.443 128.845 103.712 127.605 103.39Z" fill="#054375"/>
</g>
<path fill-rule="evenodd" clip-rule="evenodd" d="M139.938 74.3608C139.323 72.9846 138.42 71.7304 137.285 70.6765C136.149 69.6226 134.809 68.7951 133.329 68.2289H133.319C131.839 67.6628 130.257 67.3928 128.665 67.3928C127.073 67.3841 125.491 67.6715 124.011 68.2289C122.531 68.7951 121.19 69.6226 120.055 70.6765C118.919 71.7304 118.025 72.9846 117.411 74.3608C116.797 75.737 116.48 77.2177 116.48 78.7159V84.8129C116.48 85.5097 116.778 86.1717 117.299 86.6595C117.821 87.1472 118.537 87.426 119.273 87.426H121.134C121.879 87.426 122.587 87.1472 123.108 86.6595C123.629 86.1717 123.927 85.501 123.927 84.8129V80.4579C123.927 79.7611 123.629 79.0991 123.108 78.6114C122.587 78.1236 121.87 77.8449 121.134 77.8449H118.388C118.482 76.878 118.733 75.9286 119.133 75.0315C119.654 73.8644 120.418 72.8017 121.367 71.9133C122.317 71.0249 123.462 70.3194 124.718 69.8403C125.966 69.3612 127.306 69.1261 128.656 69.1348H128.674C130.024 69.1261 131.364 69.3612 132.621 69.8403C133.878 70.3194 135.013 71.0249 135.972 71.9133C136.931 72.8017 137.694 73.8644 138.216 75.0315C138.616 75.9286 138.867 76.878 138.96 77.8449H136.214C135.47 77.8449 134.762 78.1236 134.241 78.6114C133.72 79.0991 133.422 79.7698 133.422 80.4579V84.8129C133.422 85.5097 133.72 86.1717 134.241 86.6595C134.762 87.1472 135.479 87.426 136.214 87.426H138.076C138.392 87.426 138.709 87.3737 139.007 87.2779V87.426C139.007 88.1228 138.709 88.7847 138.188 89.2725C137.666 89.7603 136.95 90.039 136.214 90.039H129.521C129.009 90.039 128.591 90.4309 128.591 90.91C128.591 91.389 129.009 91.781 129.521 91.781H136.214C137.452 91.781 138.634 91.3194 139.509 90.5093C140.384 89.6906 140.868 88.5844 140.868 87.426V78.7159C140.868 77.2177 140.552 75.737 139.938 74.3608ZM121.134 79.5869C121.376 79.5869 121.619 79.6827 121.795 79.8395C121.972 80.005 122.065 80.2227 122.065 80.4579V84.8129C122.065 85.0481 121.963 85.2659 121.795 85.4313C121.619 85.5968 121.386 85.6839 121.134 85.6839H119.273C119.031 85.6839 118.789 85.5881 118.612 85.4313C118.435 85.2659 118.342 85.0481 118.342 84.8129V79.5869H121.134ZM138.997 84.8129C138.997 85.0481 138.904 85.2659 138.727 85.4313C138.551 85.5881 138.309 85.6839 138.067 85.6839H136.205C135.954 85.6839 135.721 85.5968 135.544 85.4313C135.367 85.2659 135.274 85.0481 135.274 84.8129V80.4579C135.274 80.2227 135.367 80.005 135.544 79.8395C135.721 79.6827 135.954 79.5869 136.205 79.5869H138.997V84.8129Z" fill="#0388B5"/>
</svg>
