<svg width="208" height="160" viewBox="0 0 208 160" fill="none" xmlns="http://www.w3.org/2000/svg">
<path opacity="0.3" d="M176.687 80.5173C178.24 78.9465 178.24 76.3997 176.687 74.8288L105.925 3.26894C104.217 1.54166 101.394 1.74011 99.9384 3.68971L74.7405 37.4455C73.5451 39.0469 73.6995 41.2944 75.1025 42.7132L106.781 74.7494C108.335 76.3202 108.335 78.867 106.781 80.4379L71.1038 116.518C69.3965 118.244 69.5917 121.099 71.5179 122.571L104.968 148.14C106.552 149.351 108.775 149.195 110.179 147.775L176.687 80.5173Z" fill="#1090F9"/>
<path opacity="0.3" d="M175.925 81.1825C177.09 82.3606 177.09 84.2707 175.925 85.4488L109.417 152.707C108.365 153.772 106.697 153.888 105.509 152.98L72.0589 127.411C70.6143 126.307 70.4678 124.166 71.7483 122.872L107.426 86.7915C109.367 84.828 109.367 81.6444 107.426 79.6809L75.747 47.6447C74.6948 46.5806 74.579 44.895 75.4755 43.6939L100.673 9.93816C101.765 8.47596 103.883 8.32712 105.164 9.62258L175.925 81.1825Z" stroke="#05BDFB" stroke-width="2"/>
<path opacity="0.3" d="M138.058 11.2939C139.16 11.2939 140.053 12.1872 140.053 13.2891L140.053 14.4594C140.053 15.0524 139.529 15.5086 138.942 15.4267C138.459 15.3595 138.1 14.9467 138.1 14.4594L138.1 14.3336C138.1 13.7337 137.614 13.2474 137.014 13.2474L136.888 13.2474C136.295 13.2474 135.839 12.7232 135.921 12.1358C135.988 11.6532 136.401 11.2939 136.888 11.2939L138.058 11.2939Z" fill="#1090F9"/>
<path opacity="0.3" d="M171.691 40.486C172.243 41.4426 171.915 42.6658 170.959 43.2181L168.853 44.4339C168.134 44.849 167.214 44.5328 166.902 43.7634C166.646 43.1311 166.895 42.4066 167.486 42.0655L167.638 41.9774C168.365 41.5575 168.615 40.6274 168.195 39.9001L168.107 39.7476C167.692 39.0286 168.008 38.1086 168.777 37.7967C169.409 37.5403 170.134 37.7893 170.475 38.3802L171.691 40.486Z" fill="#1090F9"/>
<path opacity="0.3" d="M106.519 133.958C107.071 134.914 106.743 136.137 105.787 136.69L103.681 137.906C102.962 138.321 102.042 138.004 101.73 137.235C101.474 136.603 101.723 135.878 102.314 135.537L102.466 135.449C103.194 135.029 103.443 134.099 103.023 133.372L102.935 133.219C102.52 132.5 102.836 131.58 103.605 131.268C104.238 131.012 104.962 131.261 105.303 131.852L106.519 133.958Z" fill="#1090F9"/>
<path opacity="0.3" d="M171.48 106.315C170.699 105.534 170.699 104.268 171.48 103.487L175.583 99.3847C176.354 98.6133 177.635 98.7273 178.258 99.6227C178.743 100.319 178.659 101.262 178.059 101.861L177.13 102.79C176.357 103.563 176.357 104.817 177.13 105.59C177.963 106.423 177.889 107.794 176.971 108.532L176.555 108.866C175.76 109.507 174.61 109.445 173.887 108.722L171.48 106.315Z" fill="#1090F9"/>
<path d="M64.6465 117.524V43.1273C64.6465 37.3329 69.3407 32.6387 75.1352 32.6387H108.985C114.779 32.6387 119.474 37.3329 119.474 43.1273V117.524C119.474 123.318 114.779 128.012 108.985 128.012H75.1352C69.3407 128.012 64.6465 123.318 64.6465 117.524Z" fill="#7CDDFD"/>
<path d="M109.058 128.65H75.0613C68.9661 128.65 64.0078 123.692 64.0078 117.596V43.0534C64.0078 36.9583 68.9661 32 75.0613 32H109.058C115.153 32 120.111 36.9583 120.111 43.0534V117.596C120.111 123.692 115.153 128.65 109.058 128.65ZM75.0613 33.2689C69.6702 33.2689 65.284 37.6551 65.284 43.0461V117.589C65.284 122.98 69.6702 127.366 75.0613 127.366H109.058C114.449 127.366 118.835 122.98 118.835 117.589V43.0534C118.835 37.6624 114.449 33.2762 109.058 33.2762H75.0613V33.2689Z" fill="#054375"/>
<path d="M119.479 42.7744H64.6445V114.699H119.479V42.7744Z" fill="white"/>
<path fill-rule="evenodd" clip-rule="evenodd" d="M90.8672 88.2734V92.4297C90.8672 92.7576 91.133 93.0234 91.4609 93.0234H92.6484C92.9764 93.0234 93.2422 92.7576 93.2422 92.4297V88.2603C94.3411 88.2254 95.704 88.099 96.9248 87.6412C97.8085 87.3098 98.6863 86.7819 99.3411 85.932C100.006 85.0693 100.367 83.9695 100.367 82.6328C100.367 81.2961 100.006 80.1963 99.3411 79.3336C98.6863 78.4837 97.8085 77.9558 96.9248 77.6244C95.704 77.1666 94.3411 77.0402 93.2422 77.0054V70.4609L98.5859 70.4609C98.9138 70.4609 99.1797 70.1951 99.1797 69.8672L99.1797 68.6797C99.1797 68.3518 98.9139 68.0859 98.5859 68.0859L93.2422 68.0859V63.9297C93.2422 63.6018 92.9764 63.3359 92.6484 63.3359H91.4609C91.133 63.3359 90.8672 63.6018 90.8672 63.9297V68.1073C89.7253 68.1512 88.4208 68.2847 87.2619 68.69C86.3578 69.0062 85.4616 69.5129 84.7922 70.3406C84.1095 71.1847 83.7422 72.2649 83.7422 73.573C83.7422 74.8815 84.1091 75.966 84.7643 76.8262C85.4085 77.672 86.2716 78.2235 87.1475 78.586C88.3784 79.0953 89.7475 79.2758 90.8672 79.3372V85.8984H85.5234C85.1955 85.8984 84.9297 86.1643 84.9297 86.4922V87.6797C84.9297 88.0076 85.1955 88.2734 85.5234 88.2734H90.8672ZM93.2422 85.8827C94.1973 85.849 95.2198 85.744 96.0908 85.4174C96.6915 85.1922 97.1495 84.8851 97.4596 84.4826C97.7599 84.0928 97.9921 83.5227 97.9921 82.6328C97.9921 81.7429 97.7599 81.1728 97.4596 80.7831C97.1495 80.3805 96.6915 80.0735 96.0908 79.8482C95.2198 79.5216 94.1973 79.4166 93.2422 79.3829V85.8827ZM90.8672 76.9576V70.4854C89.8824 70.5265 88.8893 70.6369 88.046 70.9318C87.4134 71.153 86.9474 71.4525 86.6389 71.834C86.3436 72.1992 86.1172 72.7314 86.1172 73.573C86.1172 74.4143 86.344 74.9806 86.6537 75.3872C86.9744 75.8082 87.4471 76.1396 88.0556 76.3914C88.918 76.7483 89.9347 76.8986 90.8672 76.9576Z" fill="#054375"/>
<path d="M119.473 115.337H64.6381C64.2861 115.337 64 115.051 64 114.699V42.7748C64 42.4228 64.2861 42.1367 64.6381 42.1367H119.473C119.825 42.1367 120.111 42.4228 120.111 42.7748V114.699C120.111 115.051 119.832 115.337 119.473 115.337ZM65.2836 114.061H118.842V43.413H65.2836V114.061Z" fill="#054375"/>
<path d="M97.5571 120.509H87.6772C87.3251 120.509 87.0391 120.223 87.0391 119.871C87.0391 119.518 87.3251 119.232 87.6772 119.232H97.5571C97.9091 119.232 98.1952 119.518 98.1952 119.871C98.1952 120.223 97.9091 120.509 97.5571 120.509Z" fill="#054375"/>
<g opacity="0.1294">
<path d="M115.806 42.9069C113.935 42.8556 112.065 42.7676 110.195 42.7896C105.163 42.7382 100.124 42.7456 95.0852 42.8116C91.1244 42.8409 87.1636 43.0023 83.2029 42.7382C78.3473 42.5915 73.4917 42.2981 68.6288 42.4962C67.9466 42.5108 67.2645 42.5035 66.5824 42.4742C66.1716 42.4448 65.7316 42.3862 65.3575 42.5989C63.5018 43.3103 64.0812 46.1856 66.0763 46.1635C68.4454 46.3322 70.8292 46.1489 73.1983 46.2002C76.0295 46.1856 78.8534 46.4203 81.6846 46.4789C92.2467 46.545 102.816 46.589 113.378 46.3983C114.779 46.4203 116.187 46.3909 117.588 46.3616C118.747 46.4936 119.928 45.9435 119.943 44.6379C119.796 42.3862 117.375 42.9876 115.806 42.9069Z" fill="#054375"/>
</g>
<path d="M128.675 54.2168C115.399 54.2168 104.639 65.3949 104.639 79.1842C104.639 84.8907 106.487 90.1423 109.582 94.3452L106.641 106.425L116.726 100.844C120.247 102.941 124.325 104.152 128.675 104.152C141.95 104.152 152.711 92.9735 152.711 79.1842C152.711 65.3949 141.95 54.2168 128.675 54.2168Z" fill="white"/>
<path d="M106.64 107.064C106.501 107.064 106.369 107.02 106.252 106.932C106.054 106.777 105.958 106.521 106.017 106.271L108.892 94.4771C105.694 90.0249 104 84.7439 104 79.1769C104 65.0575 115.068 53.5713 128.674 53.5713C142.28 53.5713 153.348 65.0575 153.348 79.1769C153.348 93.2962 142.28 104.782 128.674 104.782C124.493 104.782 120.364 103.675 116.711 101.57L106.941 106.976C106.853 107.042 106.743 107.064 106.64 107.064ZM128.674 54.8549C115.772 54.8549 105.276 65.7689 105.276 79.1842C105.276 84.5752 106.941 89.6875 110.095 93.9637C110.205 94.1177 110.249 94.3084 110.198 94.4918L107.601 105.156L116.41 100.279C116.608 100.169 116.85 100.169 117.048 100.286C120.576 102.391 124.596 103.506 128.674 103.506C141.576 103.506 152.072 92.5921 152.072 79.1769C152.072 65.7616 141.576 54.8549 128.674 54.8549Z" fill="#054375"/>
<path d="M74.7371 97.0152C74.6784 97.0152 74.6271 96.9932 74.5831 96.9492C74.5024 96.8612 74.5024 96.7291 74.5904 96.6485L92.3625 79.6465C92.4505 79.5659 92.5825 79.5659 92.6632 79.6539C92.7439 79.7419 92.7439 79.8739 92.6559 79.9546L74.8838 96.9565C74.8398 96.9932 74.7884 97.0152 74.7371 97.0152Z" fill="#054375"/>
<path d="M74.5105 103.785C74.4592 103.785 74.4005 103.763 74.3638 103.727C74.2758 103.646 74.2758 103.514 74.3565 103.426C80.3196 97.2207 86.4662 91.0155 92.62 84.9716C92.708 84.891 92.84 84.891 92.9207 84.9716C93.0014 85.0523 93.0014 85.1917 92.9207 85.2724C86.7742 91.3089 80.6277 97.514 74.6646 103.719C74.6279 103.763 74.5692 103.785 74.5105 103.785Z" fill="#054375"/>
<path d="M80.4221 103.668C80.3707 103.668 80.312 103.646 80.2754 103.609C80.1947 103.528 80.1947 103.389 80.2754 103.308L93.6906 89.7098C93.7713 89.6291 93.9106 89.6218 93.9913 89.7098C94.072 89.7905 94.0793 89.9298 93.9913 90.0105L80.5761 103.609C80.5321 103.646 80.4734 103.668 80.4221 103.668Z" fill="#054375"/>
<path d="M86.5242 103.962C86.4729 103.962 86.4215 103.94 86.3775 103.903C86.2895 103.822 86.2895 103.69 86.3702 103.602C89.2747 100.58 92.1353 97.4336 94.8565 94.243C94.9298 94.155 95.0692 94.1403 95.1572 94.221C95.2452 94.2943 95.2599 94.4337 95.1792 94.5217C92.4507 97.7196 89.5902 100.874 86.6783 103.903C86.6416 103.94 86.5829 103.962 86.5242 103.962Z" fill="#054375"/>
<path d="M92.686 103.763C92.6347 103.763 92.5833 103.748 92.5466 103.712C92.4586 103.631 92.4513 103.499 92.5246 103.411L96.0746 99.3181C96.1553 99.2301 96.2873 99.2228 96.3753 99.2961C96.4634 99.3768 96.4707 99.5088 96.3974 99.5968L92.8473 103.69C92.8033 103.741 92.7447 103.763 92.686 103.763Z" fill="#054375"/>
<g opacity="0.1294">
<path d="M127.605 103.39C127.319 103.302 127.04 103.339 126.762 103.405C126.659 103.412 126.549 103.412 126.446 103.412C125.243 103.199 124.436 103.192 121.994 102.305C121.935 102.283 121.884 102.261 121.825 102.239C121.723 102.187 121.283 101.975 121.099 101.894C120.285 101.52 119.427 101.263 118.569 100.984C117.865 100.772 117.212 100.361 116.456 100.324C116.126 100.346 115.774 100.412 115.503 100.603C115.275 100.735 115.041 100.852 114.806 100.97C113.016 101.813 111.249 102.715 109.525 103.684C108.806 104.102 108.065 104.468 107.303 104.791C106.951 104.96 106.532 105.055 106.32 105.407C105.498 106.375 106.532 107.916 107.75 107.542C110.706 106.339 113.5 104.784 116.39 103.434C118.18 104.278 120.146 104.622 121.972 105.385C123.505 105.84 125.104 106.485 126.725 106.221C126.6 106.236 126.468 106.258 126.344 106.273C126.879 106.265 127.473 106.353 127.957 106.067C129.065 105.444 128.845 103.713 127.605 103.39Z" fill="#054375"/>
</g>
<path d="M129.51 72.2002C129.51 71.5588 128.99 71.0389 128.349 71.0389C127.708 71.0389 127.188 71.5588 127.188 72.2002V79.1682C127.188 79.6081 127.436 80.0102 127.83 80.207L132.475 82.5296C133.049 82.8165 133.746 82.5839 134.033 82.0103C134.32 81.4366 134.087 80.739 133.514 80.4522L129.51 78.4505V72.2002Z" fill="#1954F5"/>
<path fill-rule="evenodd" clip-rule="evenodd" d="M128.349 66.3936C121.294 66.3936 115.574 72.113 115.574 79.1682C115.574 86.2235 121.294 91.9429 128.349 91.9429C135.404 91.9429 141.124 86.2235 141.124 79.1682C141.124 72.113 135.404 66.3936 128.349 66.3936ZM117.897 79.1682C117.897 73.3957 122.576 68.7162 128.349 68.7162C134.121 68.7162 138.801 73.3957 138.801 79.1682C138.801 84.9407 134.121 89.6202 128.349 89.6202C122.576 89.6202 117.897 84.9407 117.897 79.1682Z" fill="#1954F5"/>
</svg>
