<svg width="321" height="248" viewBox="0 0 321 248" fill="none" xmlns="http://www.w3.org/2000/svg">
<path opacity="0.3" d="M255.371 129.137C256.925 127.566 256.925 125.02 255.371 123.449L146.085 12.9292C144.377 11.2019 141.553 11.4003 140.098 13.3499L99.8338 67.2889C98.6384 68.8903 98.7929 71.1378 100.196 72.5566L150.402 123.329C151.956 124.9 151.956 127.447 150.402 129.018L93.7984 186.26C92.091 187.987 92.2863 190.841 94.2125 192.314L147.655 233.164C149.238 234.375 151.462 234.219 152.866 232.8L255.371 129.137Z" fill="#1090F9"/>
<path opacity="0.3" d="M254.58 132.632C255.745 133.811 255.745 135.721 254.58 136.899L152.075 240.561C151.022 241.626 149.354 241.743 148.166 240.835L94.7242 199.984C93.2796 198.88 93.1331 196.739 94.4136 195.444L151.017 138.202C152.959 136.238 152.959 133.055 151.017 131.091L100.811 80.3182C99.7588 79.2541 99.643 77.5685 100.54 76.3674L140.804 22.4285C141.895 20.9663 144.013 20.8174 145.294 22.1129L254.58 132.632Z" stroke="#05BDFB" stroke-width="2"/>
<path opacity="0.3" d="M196.95 26.6182C198.055 26.6182 198.95 27.5136 198.95 28.6182L198.95 31.3713C198.95 32.2618 198.163 32.9468 197.281 32.8239C196.556 32.7229 196.017 32.1031 196.017 31.3713L196.017 31.1824C196.017 30.2816 195.287 29.5514 194.386 29.5514L194.197 29.5514C193.306 29.5514 192.621 28.7643 192.744 27.8823C192.845 27.1576 193.465 26.6182 194.197 26.6182L196.95 26.6182Z" fill="#1090F9"/>
<path opacity="0.3" d="M246.962 71.322C247.514 72.2786 247.186 73.5018 246.23 74.0541L242.146 76.4119C241.094 77.0191 239.749 76.5566 239.293 75.4312L239.252 75.3316C238.877 74.4067 239.241 73.3471 240.106 72.8481L240.62 72.551C241.577 71.9987 241.905 70.7755 241.352 69.819L241.048 69.2915C240.441 68.2398 240.903 66.8942 242.028 66.438L242.128 66.3976C243.053 66.0227 244.113 66.3868 244.612 67.2511L246.962 71.322Z" fill="#1090F9"/>
<path opacity="0.3" d="M149.099 211.678C149.651 212.634 149.323 213.857 148.367 214.41L144.283 216.767C143.231 217.375 141.885 216.912 141.429 215.787L141.389 215.687C141.014 214.762 141.378 213.703 142.242 213.204L142.757 212.906C143.714 212.354 144.041 211.131 143.489 210.174L143.184 209.647C142.577 208.595 143.04 207.25 144.165 206.793L144.265 206.753C145.19 206.378 146.249 206.742 146.748 207.607L149.099 211.678Z" fill="#1090F9"/>
<path opacity="0.3" d="M245.434 168.593C244.653 167.812 244.653 166.545 245.434 165.764L252.835 158.363C253.716 157.482 255.179 157.612 255.891 158.635L256.621 159.685C257.174 160.48 257.079 161.557 256.394 162.241L253.939 164.697C253.158 165.478 253.158 166.744 253.939 167.525L255.392 168.979C256.234 169.82 256.159 171.205 255.232 171.951L253.062 173.697C252.266 174.337 251.116 174.275 250.394 173.553L245.434 168.593Z" fill="#1090F9"/>
<path d="M107.109 176.76V75.3303C107.109 67.4303 113.509 61.0303 121.409 61.0303H167.559C175.459 61.0303 181.859 67.4303 181.859 75.3303V176.76C181.859 184.66 175.459 191.06 167.559 191.06H121.409C113.509 191.06 107.109 184.66 107.109 176.76Z" fill="#7CDDFD"/>
<path d="M167.66 191.93H121.31C113 191.93 106.24 185.17 106.24 176.86V75.2301C106.24 66.9201 113 60.1602 121.31 60.1602H167.66C175.97 60.1602 182.73 66.9201 182.73 75.2301V176.86C182.73 185.17 175.97 191.93 167.66 191.93ZM121.31 61.8902C113.96 61.8902 107.98 67.8702 107.98 75.2202V176.85C107.98 184.2 113.96 190.18 121.31 190.18H167.66C175.01 190.18 180.99 184.2 180.99 176.85V75.2301C180.99 67.8801 175.01 61.9001 167.66 61.9001H121.31V61.8902Z" fill="#054375"/>
<path d="M181.871 74.8506H107.111V172.911H181.871V74.8506Z" fill="white"/>
<path d="M181.86 173.78H107.1C106.62 173.78 106.23 173.39 106.23 172.91V74.8505C106.23 74.3705 106.62 73.9805 107.1 73.9805H181.86C182.34 73.9805 182.73 74.3705 182.73 74.8505V172.91C182.73 173.39 182.35 173.78 181.86 173.78ZM107.98 172.04H181V75.7205H107.98V172.04Z" fill="#054375"/>
<path d="M151.981 180.83H138.511C138.031 180.83 137.641 180.44 137.641 179.96C137.641 179.48 138.031 179.09 138.511 179.09H151.981C152.461 179.09 152.851 179.48 152.851 179.96C152.851 180.44 152.461 180.83 151.981 180.83Z" fill="#054375"/>
<g opacity="0.1294">
<path d="M176.861 75.0305C174.311 74.9605 171.761 74.8405 169.211 74.8705C162.351 74.8005 155.481 74.8105 148.611 74.9005C143.211 74.9405 137.811 75.1605 132.411 74.8005C125.791 74.6005 119.171 74.2005 112.541 74.4705C111.611 74.4905 110.681 74.4805 109.751 74.4405C109.191 74.4005 108.591 74.3205 108.081 74.6105C105.551 75.5805 106.341 79.5005 109.061 79.4705C112.291 79.7005 115.541 79.4505 118.771 79.5205C122.631 79.5005 126.481 79.8205 130.341 79.9005C144.741 79.9905 159.151 80.0505 173.551 79.7905C175.461 79.8205 177.381 79.7805 179.291 79.7405C180.871 79.9205 182.481 79.1705 182.501 77.3905C182.301 74.3205 179.001 75.1405 176.861 75.0305Z" fill="#054375"/>
</g>
<path d="M126.398 88.0407C126.398 86.3407 127.778 84.9707 129.468 84.9707C131.158 84.9707 132.538 86.3507 132.538 88.0407C132.538 89.7407 131.158 91.1107 129.468 91.1107C127.778 91.1107 126.398 89.7407 126.398 88.0407Z" fill="white"/>
<path d="M129.469 91.9806C127.299 91.9806 125.529 90.2106 125.529 88.0406C125.529 85.8706 127.299 84.1006 129.469 84.1006C131.639 84.1006 133.409 85.8706 133.409 88.0406C133.409 90.2206 131.639 91.9806 129.469 91.9806ZM129.469 85.8406C128.259 85.8406 127.269 86.8306 127.269 88.0406C127.269 89.2506 128.259 90.2406 129.469 90.2406C130.679 90.2406 131.669 89.2506 131.669 88.0406C131.669 86.8306 130.679 85.8406 129.469 85.8406Z" fill="#054375"/>
<path d="M141.268 88.0407C141.268 86.3407 142.648 84.9707 144.338 84.9707C146.038 84.9707 147.408 86.3507 147.408 88.0407C147.408 89.7407 146.028 91.1107 144.338 91.1107C142.648 91.1107 141.268 89.7407 141.268 88.0407Z" fill="white"/>
<path d="M144.338 91.9806C142.168 91.9806 140.398 90.2106 140.398 88.0406C140.398 85.8706 142.168 84.1006 144.338 84.1006C146.508 84.1006 148.278 85.8706 148.278 88.0406C148.288 90.2206 146.518 91.9806 144.338 91.9806ZM144.338 85.8406C143.128 85.8406 142.138 86.8306 142.138 88.0406C142.138 89.2506 143.128 90.2406 144.338 90.2406C145.548 90.2406 146.538 89.2506 146.538 88.0406C146.548 86.8306 145.558 85.8406 144.338 85.8406Z" fill="#054375"/>
<path d="M156.148 88.0407C156.148 86.3407 157.528 84.9707 159.218 84.9707C160.918 84.9707 162.288 86.3507 162.288 88.0407C162.288 89.7407 160.908 91.1107 159.218 91.1107C157.518 91.1107 156.148 89.7407 156.148 88.0407Z" fill="white"/>
<path d="M159.219 91.9806C157.049 91.9806 155.279 90.2106 155.279 88.0406C155.279 85.8706 157.049 84.1006 159.219 84.1006C161.389 84.1006 163.159 85.8706 163.159 88.0406C163.159 90.2206 161.389 91.9806 159.219 91.9806ZM159.219 85.8406C158.009 85.8406 157.019 86.8306 157.019 88.0406C157.019 89.2506 158.009 90.2406 159.219 90.2406C160.429 90.2406 161.419 89.2506 161.419 88.0406C161.419 86.8306 160.429 85.8406 159.219 85.8406Z" fill="#054375"/>
<g opacity="0.1294">
<path d="M133.51 90.6902C133.07 89.4502 131.28 89.2702 130.49 90.2802C130.48 90.2902 130.48 90.2902 130.47 90.2902C130.36 90.3702 130.25 90.4402 130.13 90.5102C129.99 90.5602 129.84 90.6002 129.69 90.6302C129.66 90.6302 129.64 90.6302 129.61 90.6402C129.55 90.6402 129.49 90.6302 129.43 90.6302C129.37 90.6202 129.3 90.6002 129.22 90.5802C129.06 90.5402 128.94 90.4902 128.86 90.4702C128.77 90.4202 128.68 90.3702 128.59 90.3202C128.48 90.2102 128.36 90.1102 128.21 90.0202C126.86 89.1002 125.03 90.4402 125.48 92.0102C125.9 93.2602 127.39 93.8102 128.58 94.0902C130.41 94.6102 134.45 93.0302 133.51 90.6902Z" fill="#054375"/>
</g>
<g opacity="0.1294">
<path d="M148.779 90.5309C148.399 89.4509 146.849 89.1709 146.079 89.9909C145.989 90.0809 145.899 90.1609 145.799 90.2509C145.769 90.2709 145.749 90.2909 145.709 90.3109C145.079 90.5909 145.189 90.5409 144.369 90.6209C144.259 90.6209 144.159 90.6109 144.049 90.6009C143.929 90.5709 143.799 90.5309 143.709 90.5009C143.529 90.4109 143.349 90.3209 143.179 90.2109C143.149 90.1909 143.129 90.1809 143.109 90.1609C142.909 89.9809 142.729 89.7909 142.469 89.7209C140.899 88.9809 139.459 91.1509 140.699 92.3409C142.159 93.8109 144.339 94.2309 146.289 93.6609C147.559 93.2509 149.469 92.1109 148.779 90.5309Z" fill="#054375"/>
</g>
<g opacity="0.1294">
<path d="M163.559 90.8506C163.249 89.6906 161.769 89.3606 160.909 90.1106C160.799 90.1806 160.679 90.2406 160.559 90.2906C160.499 90.3206 160.439 90.3406 160.379 90.3706C160.319 90.3906 160.159 90.4506 159.979 90.5006C159.909 90.5206 159.84 90.5306 159.78 90.5506C159.64 90.5506 159.499 90.5506 159.359 90.5406C158.539 90.3706 158.55 90.3006 158.32 90.2006C157.6 89.8206 156.83 89.1806 155.96 89.4206C154.66 89.7306 154.41 91.6406 155.59 92.2806C156.27 92.6006 156.86 93.0806 157.58 93.3306C158.39 93.6306 159.28 93.7106 160.14 93.6706C161.65 93.6206 164.019 92.7406 163.559 90.8506Z" fill="#054375"/>
</g>
<path d="M120.871 148.8C120.791 148.8 120.721 148.77 120.661 148.71C120.551 148.59 120.551 148.41 120.671 148.3L144.901 125.12C145.021 125.01 145.201 125.01 145.311 125.13C145.421 125.25 145.421 125.43 145.301 125.54L121.071 148.72C121.011 148.77 120.941 148.8 120.871 148.8Z" fill="#054375"/>
<path d="M120.561 158.03C120.491 158.03 120.411 158 120.361 157.95C120.241 157.84 120.241 157.66 120.351 157.54C128.481 149.08 136.861 140.62 145.251 132.38C145.371 132.27 145.551 132.27 145.661 132.38C145.771 132.49 145.771 132.68 145.661 132.79C137.281 141.02 128.901 149.48 120.771 157.94C120.721 158 120.641 158.03 120.561 158.03Z" fill="#054375"/>
<path d="M128.62 157.87C128.55 157.87 128.47 157.84 128.42 157.79C128.31 157.68 128.31 157.49 128.42 157.38L146.71 138.84C146.82 138.73 147.01 138.72 147.12 138.84C147.23 138.95 147.24 139.14 147.12 139.25L128.83 157.79C128.77 157.84 128.69 157.87 128.62 157.87Z" fill="#054375"/>
<path d="M136.94 158.27C136.87 158.27 136.8 158.24 136.74 158.19C136.62 158.08 136.62 157.9 136.73 157.78C140.69 153.66 144.59 149.37 148.3 145.02C148.4 144.9 148.59 144.88 148.71 144.99C148.83 145.09 148.85 145.28 148.74 145.4C145.02 149.76 141.12 154.06 137.15 158.19C137.1 158.24 137.02 158.27 136.94 158.27Z" fill="#054375"/>
<path d="M145.341 158C145.271 158 145.201 157.98 145.151 157.93C145.031 157.82 145.021 157.64 145.121 157.52L149.961 151.94C150.071 151.82 150.251 151.81 150.371 151.91C150.491 152.02 150.501 152.2 150.401 152.32L145.561 157.9C145.501 157.97 145.421 158 145.341 158Z" fill="#054375"/>
<path d="M181.659 90.4502C163.559 90.4502 148.889 105.69 148.889 124.49C148.889 132.27 151.409 139.43 155.629 145.16L151.619 161.63L165.369 154.02C170.169 156.88 175.729 158.53 181.659 158.53C199.759 158.53 214.429 143.29 214.429 124.49C214.429 105.69 199.759 90.4502 181.659 90.4502Z" fill="white"/>
<path d="M151.62 162.5C151.43 162.5 151.25 162.44 151.09 162.32C150.82 162.11 150.69 161.76 150.77 161.42L154.69 145.34C150.33 139.27 148.02 132.07 148.02 124.48C148.02 105.23 163.109 89.5703 181.659 89.5703C200.209 89.5703 215.299 105.23 215.299 124.48C215.299 143.73 200.209 159.39 181.659 159.39C175.959 159.39 170.329 157.88 165.349 155.01L152.03 162.38C151.91 162.47 151.76 162.5 151.62 162.5ZM181.659 91.3203C164.069 91.3203 149.76 106.2 149.76 124.49C149.76 131.84 152.03 138.81 156.33 144.64C156.48 144.85 156.54 145.11 156.47 145.36L152.93 159.9L164.94 153.25C165.21 153.1 165.54 153.1 165.81 153.26C170.62 156.13 176.099 157.65 181.659 157.65C199.249 157.65 213.56 142.77 213.56 124.48C213.56 106.19 199.249 91.3203 181.659 91.3203Z" fill="#054375"/>
<path opacity="0.1" d="M180.691 158.491C180.301 158.371 179.921 158.421 179.541 158.511C179.401 158.521 179.251 158.521 179.111 158.521C177.471 158.231 176.371 158.221 173.041 157.011C172.961 156.981 172.891 156.951 172.811 156.921C172.671 156.851 172.071 156.561 171.821 156.451C170.711 155.941 169.541 155.591 168.371 155.211C167.411 154.921 166.521 154.361 165.491 154.311C165.041 154.341 164.561 154.431 164.191 154.691C163.881 154.871 163.561 155.031 163.241 155.191C160.801 156.341 158.391 157.571 156.041 158.891C155.061 159.461 154.051 159.961 153.011 160.401C152.531 160.631 151.961 160.761 151.671 161.241C150.551 162.561 151.961 164.661 153.621 164.151C157.651 162.511 161.461 160.391 165.401 158.551C167.841 159.701 170.521 160.171 173.011 161.211C175.101 161.831 177.281 162.711 179.491 162.351C179.321 162.371 179.141 162.401 178.971 162.421C179.701 162.411 180.511 162.531 181.171 162.141C182.681 161.291 182.381 158.931 180.691 158.491Z" fill="#054375"/>
<path d="M182.812 113.797C182.193 113.178 181.191 113.178 180.572 113.797L169.489 124.88C168.871 125.498 168.871 126.501 169.489 127.119C170.107 127.738 171.11 127.738 171.728 127.119L180.109 118.739V137.083C180.109 137.957 180.818 138.666 181.692 138.666C182.567 138.666 183.275 137.957 183.275 137.083V118.739L191.656 127.119C192.274 127.738 193.277 127.738 193.895 127.119C194.513 126.501 194.513 125.498 193.895 124.88L182.812 113.797Z" fill="#26A94D"/>
</svg>
