<svg width="208" height="198" viewBox="0 0 208 198" fill="none" xmlns="http://www.w3.org/2000/svg">
<defs>
<linearGradient id="paint0_linear_1682_3618" x1="105.206" y1="74.2066" x2="114.668" y2="64.7452" gradientUnits="userSpaceOnUse">
<stop stop-color="#8CD133"/>
<stop offset="1" stop-color="#05BDFB"/>
</linearGradient>
</defs>
<path opacity="0.3" d="M185.46 103.703C187.014 102.133 187.014 99.5881 185.46 98.0182L97.8021 9.48301C96.093 7.75679 93.2675 7.95513 91.8112 9.90352L60.0071 52.4555C58.811 54.0559 58.9655 56.302 60.3694 57.7199L100.173 97.9214C101.727 99.4913 101.727 102.037 100.173 103.606L55.3189 148.909C53.6105 150.634 53.8058 153.487 55.7332 154.958L97.9496 187.187C99.5342 188.397 101.759 188.242 103.164 186.823L185.46 103.703Z" fill="#1090F9"/>
<path opacity="0.3" d="M184.686 105.604C185.851 106.781 185.851 108.69 184.686 109.868L102.389 192.987C101.336 194.051 99.6672 194.168 98.4788 193.261L56.2624 161.032C54.8169 159.928 54.6703 157.789 55.9516 156.495L100.805 111.192C102.748 109.23 102.748 106.048 100.805 104.086L61.0022 63.8843C59.9492 62.8208 59.8333 61.1363 60.7305 59.936L92.5346 17.384C93.6268 15.9227 95.7459 15.774 97.0277 17.0686L184.686 105.604Z" stroke="#05BDFB" stroke-width="2"/>
<path opacity="0.3" d="M138.148 19.9774C139.253 19.9774 140.148 20.8728 140.148 21.9774L140.148 23.8329C140.148 24.5564 139.509 25.1129 138.792 25.0132C138.203 24.9312 137.765 24.4276 137.765 23.8329L137.765 23.6827C137.765 22.9508 137.172 22.3576 136.44 22.3576L136.285 22.3576C135.562 22.3576 135.006 21.7188 135.106 21.003C135.188 20.415 135.691 19.9774 136.285 19.9774L138.148 19.9774Z" fill="#1090F9"/>
<path opacity="0.3" d="M178.969 55.9274C179.522 56.8837 179.194 58.1062 178.237 58.658L175.287 60.3594C174.41 60.8649 173.288 60.4793 172.907 59.5418C172.595 58.7714 172.898 57.8889 173.618 57.4735L173.806 57.3652C174.693 56.8538 174.997 55.7207 174.484 54.8344L174.378 54.6495C173.871 53.7729 174.256 52.6515 175.195 52.2715C175.966 51.9592 176.851 52.2629 177.267 52.9834L178.969 55.9274Z" fill="#1090F9"/>
<path opacity="0.3" d="M107.455 169.822C108.008 170.779 107.681 172.001 106.724 172.553L103.773 174.254C102.896 174.76 101.774 174.374 101.394 173.437C101.081 172.666 101.384 171.784 102.105 171.368L102.293 171.26C103.18 170.749 103.483 169.616 102.971 168.729L102.864 168.544C102.357 167.668 102.743 166.546 103.681 166.166C104.453 165.854 105.337 166.158 105.753 166.878L107.455 169.822Z" fill="#1090F9"/>
<path opacity="0.3" d="M178.181 135.452C177.4 134.671 177.4 133.405 178.181 132.625L183.611 127.202C184.492 126.322 185.956 126.452 186.668 127.474L186.825 127.699C187.379 128.494 187.283 129.57 186.598 130.254L185.092 131.758C184.31 132.539 184.31 133.805 185.092 134.585L185.71 135.203C186.552 136.044 186.477 137.428 185.55 138.174L184.376 139.117C183.58 139.756 182.429 139.694 181.707 138.973L178.181 135.452Z" fill="#1090F9"/>
<path d="M69.002 155.662V40.2597C69.002 31.2715 76.2836 23.9898 85.2718 23.9898H137.779C146.768 23.9898 154.049 31.2715 154.049 40.2597V155.662C154.049 164.651 146.768 171.932 137.779 171.932H85.2718C76.2836 171.932 69.002 164.651 69.002 155.662Z" fill="#7CDDFD"/>
<path d="M137.893 172.922H85.1577C75.703 172.922 68.0117 165.231 68.0117 155.776V40.146C68.0117 30.6912 75.703 23 85.1577 23H137.893C147.347 23 155.039 30.6912 155.039 40.146V155.776C155.039 165.231 147.347 172.922 137.893 172.922ZM85.1577 24.9683C76.7952 24.9683 69.9914 31.7721 69.9914 40.1346V155.765C69.9914 164.127 76.7952 170.931 85.1577 170.931H137.893C146.255 170.931 153.059 164.127 153.059 155.765V40.146C153.059 31.7835 146.255 24.9797 137.893 24.9797H85.1577V24.9683Z" fill="#054375"/>
<path d="M154.061 39.7136H69.002V151.282H154.061V39.7136Z" fill="white"/>
<path d="M111.908 76V86.4038C111.908 88.0354 112.751 88.8979 114.346 88.8979C115.174 88.8979 116.228 88.7252 117.332 88.4107L118 93.0496C116.614 93.6208 114.179 94 112.703 94C108.192 94 106 91.7963 106 87.2625V76H111.908Z" fill="#054375"/>
<path d="M105 74H118L117.175 68.0774H110.923V61L105 61.8253V74Z" fill="url(#paint0_linear_1682_3618)"/>
<path d="M154.048 152.272H68.9898C68.4437 152.272 68 151.828 68 151.282V39.7136C68 39.1675 68.4437 38.7238 68.9898 38.7238H154.048C154.595 38.7238 155.038 39.1675 155.038 39.7136V151.282C155.038 151.828 154.606 152.272 154.048 152.272ZM69.9911 150.292H153.07V40.7035H69.9911V150.292Z" fill="#054375"/>
<path d="M120.053 160.293H104.728C104.182 160.293 103.738 159.849 103.738 159.303C103.738 158.757 104.182 158.313 104.728 158.313H120.053C120.599 158.313 121.043 158.757 121.043 159.303C121.043 159.849 120.599 160.293 120.053 160.293Z" fill="#054375"/>
<g opacity="0.1294">
<path d="M148.36 39.9184C145.459 39.8388 142.558 39.7022 139.657 39.7364C131.852 39.6567 124.035 39.6681 116.219 39.7705C110.075 39.816 103.931 40.0663 97.7871 39.6567C90.2551 39.4292 82.7232 38.9741 75.1799 39.2813C74.1218 39.304 73.0637 39.2927 72.0056 39.2471C71.3684 39.2016 70.6858 39.1106 70.1055 39.4406C67.227 40.5442 68.1258 45.0042 71.2205 44.97C74.8955 45.2317 78.5932 44.9473 82.2682 45.0269C86.6599 45.0042 91.0403 45.3683 95.432 45.4593C111.816 45.5617 128.211 45.6299 144.594 45.3341C146.767 45.3683 148.952 45.3228 151.125 45.2772C152.923 45.482 154.755 44.6287 154.777 42.6035C154.55 39.1106 150.795 40.0436 148.36 39.9184Z" fill="#054375"/>
</g>
<path d="M84.6571 123.851C84.5661 123.851 84.4864 123.816 84.4182 123.748C84.293 123.612 84.293 123.407 84.4296 123.282L111.997 96.9086C112.134 96.7834 112.339 96.7834 112.464 96.9199C112.589 97.0565 112.589 97.2613 112.452 97.3864L84.8847 123.76C84.8164 123.816 84.7368 123.851 84.6571 123.851Z" fill="#054375"/>
<path d="M84.3041 134.352C84.2245 134.352 84.1334 134.318 84.0765 134.261C83.94 134.136 83.94 133.931 84.0651 133.795C93.3151 124.169 102.85 114.544 112.395 105.169C112.532 105.044 112.737 105.044 112.862 105.169C112.987 105.294 112.987 105.51 112.862 105.635C103.327 114.999 93.793 124.624 84.543 134.25C84.4862 134.318 84.3951 134.352 84.3041 134.352Z" fill="#054375"/>
<path d="M93.4743 134.17C93.3946 134.17 93.3036 134.136 93.2467 134.079C93.1215 133.954 93.1215 133.738 93.2467 133.613L114.056 112.519C114.181 112.393 114.398 112.382 114.523 112.519C114.648 112.644 114.659 112.86 114.523 112.985L93.7132 134.079C93.6449 134.136 93.5539 134.17 93.4743 134.17Z" fill="#054375"/>
<path d="M102.941 134.625C102.861 134.625 102.782 134.591 102.713 134.534C102.577 134.409 102.577 134.204 102.702 134.068C107.207 129.38 111.645 124.499 115.866 119.55C115.979 119.413 116.196 119.391 116.332 119.516C116.469 119.63 116.491 119.846 116.366 119.982C112.134 124.943 107.697 129.835 103.18 134.534C103.123 134.591 103.032 134.625 102.941 134.625Z" fill="#054375"/>
<path d="M112.498 134.318C112.418 134.318 112.339 134.295 112.282 134.238C112.145 134.113 112.134 133.908 112.247 133.772L117.754 127.423C117.879 127.287 118.084 127.275 118.221 127.389C118.357 127.514 118.369 127.719 118.255 127.856L112.748 134.204C112.68 134.284 112.589 134.318 112.498 134.318Z" fill="#054375"/>
<g opacity="0.1294">
<path d="M152.717 134.875C152.274 134.739 151.841 134.796 151.409 134.898C151.25 134.91 151.079 134.91 150.92 134.91C149.054 134.58 147.802 134.568 144.014 133.192C143.922 133.157 143.843 133.123 143.752 133.089C143.593 133.01 142.91 132.68 142.625 132.554C141.363 131.974 140.031 131.576 138.7 131.144C137.608 130.814 136.595 130.177 135.423 130.12C134.911 130.154 134.365 130.256 133.944 130.552C133.592 130.757 133.228 130.939 132.864 131.121C130.087 132.429 127.345 133.829 124.672 135.331C123.557 135.979 122.408 136.548 121.224 137.049C120.678 137.31 120.03 137.458 119.7 138.004C118.425 139.506 120.03 141.895 121.918 141.315C126.503 139.449 130.838 137.037 135.321 134.944C138.097 136.252 141.146 136.787 143.979 137.97C146.357 138.676 148.838 139.677 151.352 139.267C151.159 139.29 150.954 139.324 150.76 139.347C151.591 139.335 152.513 139.472 153.263 139.028C154.981 138.061 154.64 135.376 152.717 134.875Z" fill="#054375"/>
</g>
<line x1="81" y1="110" x2="143" y2="110" stroke="#054375" stroke-width="2"/>
<line x1="81" y1="122" x2="143" y2="122" stroke="#054375" stroke-width="2"/>
<line x1="81" y1="134" x2="143" y2="134" stroke="#054375" stroke-width="2"/>
</svg>
