<svg width="320" height="248" viewBox="0 0 320 248" fill="none" xmlns="http://www.w3.org/2000/svg">
<path opacity="0.3" d="M254.679 129.137C256.232 127.566 256.232 125.02 254.679 123.449L145.393 12.9292C143.685 11.2019 140.861 11.4003 139.406 13.3499L99.1415 67.2889C97.946 68.8903 98.1005 71.1378 99.5035 72.5566L149.71 123.329C151.263 124.9 151.263 127.447 149.71 129.018L93.106 186.26C91.3987 187.987 91.5939 190.841 93.5201 192.314L146.962 233.164C148.546 234.375 150.77 234.219 152.173 232.8L254.679 129.137Z" fill="#1090F9"/>
<path opacity="0.3" d="M253.888 132.632C255.053 133.81 255.053 135.72 253.888 136.898L151.383 240.561C150.33 241.625 148.662 241.742 147.474 240.834L94.0323 199.984C92.5877 198.879 92.4412 196.739 93.7217 195.444L150.326 138.201C152.267 136.238 152.267 133.054 150.326 131.091L100.119 80.3177C99.0669 79.2536 98.9511 77.568 99.8477 76.3669L140.112 22.428C141.203 20.9658 143.321 20.8169 144.602 22.1124L253.888 132.632Z" stroke="#05BDFB" stroke-width="2"/>
<path opacity="0.3" d="M196.259 26.6185C197.364 26.6185 198.259 27.514 198.259 28.6185L198.259 31.3717C198.259 32.2622 197.472 32.9472 196.59 32.8243C195.865 32.7233 195.326 32.1035 195.326 31.3717L195.326 31.1828C195.326 30.282 194.596 29.5517 193.695 29.5517L193.506 29.5517C192.615 29.5517 191.93 28.7647 192.053 27.8827C192.154 27.1579 192.774 26.6185 193.506 26.6185L196.259 26.6185Z" fill="#1090F9"/>
<path opacity="0.3" d="M246.27 71.3224C246.823 72.279 246.495 73.5022 245.538 74.0545L241.454 76.4123C240.403 77.0194 239.057 76.557 238.601 75.4316L238.561 75.3319C238.186 74.4071 238.55 73.3475 239.414 72.8485L239.929 72.5514C240.885 71.9991 241.213 70.7759 240.661 69.8193L240.356 69.2918C239.749 68.2402 240.212 66.8945 241.337 66.4383L241.437 66.3979C242.361 66.023 243.421 66.3872 243.92 67.2514L246.27 71.3224Z" fill="#1090F9"/>
<path opacity="0.3" d="M148.408 211.678C148.96 212.634 148.632 213.857 147.676 214.41L143.592 216.767C142.54 217.375 141.195 216.912 140.739 215.787L140.698 215.687C140.323 214.762 140.687 213.703 141.552 213.204L142.066 212.906C143.023 212.354 143.351 211.131 142.798 210.174L142.494 209.647C141.887 208.595 142.349 207.25 143.474 206.793L143.574 206.753C144.499 206.378 145.559 206.742 146.058 207.607L148.408 211.678Z" fill="#1090F9"/>
<path opacity="0.3" d="M244.742 168.593C243.96 167.812 243.96 166.545 244.742 165.764L252.143 158.363C253.024 157.482 254.487 157.612 255.199 158.635L255.929 159.685C256.482 160.48 256.387 161.557 255.702 162.241L253.247 164.696C252.465 165.478 252.465 166.744 253.247 167.525L254.7 168.979C255.542 169.82 255.467 171.205 254.54 171.951L252.37 173.697C251.574 174.337 250.424 174.275 249.702 173.553L244.742 168.593Z" fill="#1090F9"/>
<path d="M104.899 179.316V75.6627C104.899 67.5895 111.44 61.0492 119.513 61.0492H166.675C174.748 61.0492 181.288 67.5895 181.288 75.6627V179.316C181.288 187.389 174.748 193.93 166.675 193.93H119.513C111.44 193.93 104.899 187.389 104.899 179.316Z" fill="#7CDDFD"/>
<path d="M166.777 194.819H119.411C110.919 194.819 104.01 187.91 104.01 179.418V75.5605C104.01 67.0683 110.919 60.1602 119.411 60.1602H166.777C175.269 60.1602 182.177 67.0683 182.177 75.5605V179.418C182.177 187.91 175.269 194.819 166.777 194.819ZM119.411 61.9281C111.9 61.9281 105.789 68.0392 105.789 75.5503V179.408C105.789 186.919 111.9 193.03 119.411 193.03H166.777C174.288 193.03 180.399 186.919 180.399 179.408V75.5605C180.399 68.0494 174.288 61.9383 166.777 61.9383H119.411V61.9281Z" fill="#054375"/>
<path d="M181.298 75.1721H104.899V175.382H181.298V75.1721Z" fill="white"/>
<path d="M181.288 176.271H104.889C104.399 176.271 104 175.872 104 175.382V75.1722C104 74.6816 104.399 74.2831 104.889 74.2831H181.288C181.778 74.2831 182.177 74.6816 182.177 75.1722V175.382C182.177 175.872 181.789 176.271 181.288 176.271ZM105.788 174.493H180.409V76.0612H105.788V174.493Z" fill="#054375"/>
<path d="M150.753 183.475H136.988C136.497 183.475 136.099 183.077 136.099 182.586C136.099 182.096 136.497 181.697 136.988 181.697H150.753C151.243 181.697 151.642 182.096 151.642 182.586C151.642 183.077 151.243 183.475 150.753 183.475Z" fill="#054375"/>
<g opacity="0.1294">
<path d="M176.178 75.3561C173.572 75.2845 170.966 75.1619 168.361 75.1926C161.35 75.121 154.33 75.1312 147.309 75.2232C141.791 75.2641 136.272 75.4889 130.754 75.121C123.989 74.9167 117.224 74.5079 110.448 74.7838C109.498 74.8042 108.547 74.794 107.597 74.7531C107.025 74.7123 106.412 74.6305 105.891 74.9269C103.305 75.9181 104.112 79.9241 106.892 79.8934C110.193 80.1285 113.514 79.873 116.815 79.9445C120.759 79.9241 124.694 80.2511 128.638 80.3328C143.354 80.4248 158.08 80.4861 172.796 80.2204C174.748 80.2511 176.71 80.2102 178.661 80.1693C180.276 80.3533 181.921 79.5868 181.942 77.7678C181.737 74.6305 178.365 75.4685 176.178 75.3561Z" fill="#054375"/>
</g>
<path d="M181.083 91.1141C162.587 91.1141 147.595 106.688 147.595 125.9C147.595 133.851 150.17 141.168 154.483 147.023L150.385 163.854L164.436 156.078C169.341 159 175.023 160.687 181.083 160.687C199.58 160.687 214.572 145.112 214.572 125.9C214.572 106.688 199.58 91.1141 181.083 91.1141Z" fill="white"/>
<path d="M150.385 164.744C150.191 164.744 150.007 164.682 149.843 164.56C149.567 164.345 149.435 163.987 149.516 163.64L153.522 147.207C149.067 141.004 146.706 133.646 146.706 125.89C146.706 106.218 162.127 90.2148 181.083 90.2148C200.04 90.2148 215.461 106.218 215.461 125.89C215.461 145.562 200.04 161.565 181.083 161.565C175.258 161.565 169.505 160.022 164.416 157.089L150.804 164.621C150.681 164.713 150.528 164.744 150.385 164.744ZM181.083 92.0032C163.108 92.0032 148.484 107.209 148.484 125.9C148.484 133.411 150.804 140.534 155.198 146.492C155.352 146.707 155.413 146.972 155.341 147.228L151.724 162.087L163.997 155.291C164.273 155.137 164.61 155.137 164.886 155.301C169.801 158.234 175.402 159.787 181.083 159.787C199.059 159.787 213.683 144.581 213.683 125.89C213.683 107.199 199.059 92.0032 181.083 92.0032Z" fill="#054375"/>
<path d="M124.612 88.6513C124.612 86.9141 126.023 85.514 127.75 85.514C129.477 85.514 130.887 86.9243 130.887 88.6513C130.887 90.3886 129.477 91.7886 127.75 91.7886C126.023 91.7886 124.612 90.3886 124.612 88.6513Z" fill="white"/>
<path d="M127.75 92.6777C125.532 92.6777 123.723 90.8689 123.723 88.6514C123.723 86.4338 125.532 84.625 127.75 84.625C129.967 84.625 131.776 86.4338 131.776 88.6514C131.776 90.8791 129.967 92.6777 127.75 92.6777ZM127.75 86.4031C126.513 86.4031 125.501 87.4148 125.501 88.6514C125.501 89.8879 126.513 90.8996 127.75 90.8996C128.986 90.8996 129.998 89.8879 129.998 88.6514C129.998 87.4148 128.986 86.4031 127.75 86.4031Z" fill="#054375"/>
<path d="M139.808 88.6513C139.808 86.9141 141.219 85.514 142.946 85.514C144.683 85.514 146.083 86.9243 146.083 88.6513C146.083 90.3886 144.673 91.7886 142.946 91.7886C141.219 91.7886 139.808 90.3886 139.808 88.6513Z" fill="white"/>
<path d="M142.946 92.6777C140.728 92.6777 138.919 90.8689 138.919 88.6514C138.919 86.4338 140.728 84.625 142.946 84.625C145.163 84.625 146.972 86.4338 146.972 88.6514C146.982 90.8791 145.173 92.6777 142.946 92.6777ZM142.946 86.4031C141.709 86.4031 140.697 87.4148 140.697 88.6514C140.697 89.8879 141.709 90.8996 142.946 90.8996C144.182 90.8996 145.194 89.8879 145.194 88.6514C145.204 87.4148 144.192 86.4031 142.946 86.4031Z" fill="#054375"/>
<path d="M155.014 88.6513C155.014 86.9141 156.425 85.514 158.152 85.514C159.889 85.514 161.289 86.9243 161.289 88.6513C161.289 90.3886 159.879 91.7886 158.152 91.7886C156.414 91.7886 155.014 90.3886 155.014 88.6513Z" fill="white"/>
<path d="M158.152 92.6777C155.934 92.6777 154.125 90.8689 154.125 88.6514C154.125 86.4338 155.934 84.625 158.152 84.625C160.369 84.625 162.178 86.4338 162.178 88.6514C162.178 90.8791 160.369 92.6777 158.152 92.6777ZM158.152 86.4031C156.915 86.4031 155.903 87.4148 155.903 88.6514C155.903 89.8879 156.915 90.8996 158.152 90.8996C159.388 90.8996 160.4 89.8879 160.4 88.6514C160.4 87.4148 159.388 86.4031 158.152 86.4031Z" fill="#054375"/>
<g opacity="0.1294">
<path d="M131.878 91.3595C131.428 90.0923 129.599 89.9083 128.792 90.9405C128.782 90.9507 128.782 90.9507 128.771 90.9507C128.659 91.0325 128.546 91.104 128.424 91.1755C128.281 91.2266 128.127 91.2675 127.974 91.2982C127.944 91.2982 127.923 91.2982 127.892 91.3084C127.831 91.3084 127.77 91.2982 127.708 91.2982C127.647 91.2879 127.576 91.2675 127.494 91.2471C127.33 91.2062 127.208 91.1551 127.126 91.1347C127.034 91.0836 126.942 91.0325 126.85 90.9814C126.738 90.869 126.615 90.7668 126.462 90.6748C125.082 89.7346 123.212 91.104 123.672 92.7084C124.101 93.9858 125.624 94.5479 126.84 94.834C128.71 95.3654 132.839 93.7508 131.878 91.3595Z" fill="#054375"/>
</g>
<g opacity="0.1294">
<path d="M147.483 91.1959C147.094 90.0922 145.51 89.8061 144.723 90.6441C144.631 90.736 144.539 90.8178 144.437 90.9098C144.407 90.9302 144.386 90.9506 144.345 90.9711C143.702 91.2572 143.814 91.2061 142.976 91.2879C142.864 91.2879 142.761 91.2776 142.649 91.2674C142.526 91.2368 142.393 91.1959 142.301 91.1652C142.118 91.0733 141.934 90.9813 141.76 90.8689C141.729 90.8484 141.709 90.8382 141.688 90.8178C141.484 90.6338 141.3 90.4397 141.034 90.3681C139.43 89.6119 137.958 91.8295 139.225 93.0456C140.718 94.5478 142.945 94.977 144.938 94.3945C146.236 93.9755 148.188 92.8105 147.483 91.1959Z" fill="#054375"/>
</g>
<g opacity="0.1294">
<path d="M162.587 91.523C162.27 90.3376 160.758 90.0003 159.879 90.7668C159.766 90.8383 159.644 90.8996 159.521 90.9507C159.46 90.9814 159.398 91.0018 159.337 91.0325C159.276 91.0529 159.112 91.1142 158.928 91.1653C158.857 91.1858 158.785 91.196 158.724 91.2164C158.581 91.2164 158.438 91.2164 158.295 91.2062C157.457 91.0325 157.467 90.9609 157.232 90.8588C156.496 90.4704 155.709 89.8164 154.82 90.0617C153.492 90.3785 153.236 92.3303 154.442 92.9844C155.137 93.3114 155.74 93.8019 156.476 94.0574C157.303 94.3639 158.213 94.4457 159.092 94.4048C160.635 94.3537 163.057 93.4544 162.587 91.523Z" fill="#054375"/>
</g>
<path d="M118.961 150.743C118.879 150.743 118.807 150.713 118.746 150.651C118.634 150.529 118.634 150.345 118.756 150.232L143.518 126.544C143.64 126.432 143.824 126.432 143.937 126.554C144.049 126.677 144.049 126.861 143.926 126.973L119.165 150.661C119.104 150.713 119.032 150.743 118.961 150.743Z" fill="#054375"/>
<path d="M118.644 160.176C118.573 160.176 118.491 160.145 118.44 160.094C118.317 159.981 118.317 159.798 118.43 159.675C126.738 151.029 135.301 142.384 143.875 133.963C143.998 133.851 144.182 133.851 144.294 133.963C144.407 134.076 144.407 134.27 144.294 134.382C135.731 142.793 127.167 151.438 118.859 160.084C118.808 160.145 118.726 160.176 118.644 160.176Z" fill="#054375"/>
<path d="M126.881 160.012C126.809 160.012 126.727 159.981 126.676 159.93C126.564 159.818 126.564 159.624 126.676 159.511L145.367 140.565C145.48 140.452 145.674 140.442 145.786 140.565C145.899 140.677 145.909 140.871 145.786 140.984L127.095 159.93C127.034 159.981 126.952 160.012 126.881 160.012Z" fill="#054375"/>
<path d="M135.383 160.421C135.312 160.421 135.24 160.39 135.179 160.339C135.056 160.227 135.056 160.043 135.169 159.92C139.215 155.71 143.201 151.326 146.992 146.88C147.094 146.758 147.289 146.737 147.411 146.85C147.534 146.952 147.554 147.146 147.442 147.269C143.64 151.724 139.655 156.119 135.598 160.339C135.547 160.39 135.465 160.421 135.383 160.421Z" fill="#054375"/>
<path d="M143.967 160.145C143.896 160.145 143.824 160.125 143.773 160.073C143.651 159.961 143.64 159.777 143.743 159.654L148.689 153.952C148.801 153.83 148.985 153.819 149.108 153.921C149.23 154.034 149.24 154.218 149.138 154.34L144.192 160.043C144.131 160.114 144.049 160.145 143.967 160.145Z" fill="#054375"/>
<g opacity="0.1294">
<path d="M180.092 160.646C179.694 160.523 179.305 160.574 178.917 160.666C178.774 160.676 178.621 160.676 178.478 160.676C176.802 160.38 175.678 160.37 172.275 159.133C172.193 159.103 172.121 159.072 172.04 159.041C171.897 158.97 171.283 158.673 171.028 158.561C169.894 158.04 168.698 157.682 167.502 157.294C166.521 156.997 165.612 156.425 164.559 156.374C164.099 156.405 163.609 156.497 163.231 156.762C162.914 156.946 162.587 157.11 162.26 157.273C159.766 158.449 157.303 159.706 154.902 161.054C153.9 161.637 152.868 162.148 151.806 162.598C151.315 162.833 150.733 162.965 150.436 163.456C149.292 164.805 150.733 166.951 152.429 166.43C156.547 164.754 160.441 162.587 164.467 160.707C166.961 161.882 169.699 162.362 172.244 163.425C174.38 164.059 176.608 164.958 178.866 164.59C178.692 164.611 178.508 164.641 178.335 164.662C179.081 164.652 179.908 164.774 180.583 164.376C182.126 163.507 181.819 161.095 180.092 160.646Z" fill="#054375"/>
</g>
<path d="M166.75 114.917C165.876 114.917 165.167 115.626 165.167 116.5C165.167 117.374 165.876 118.083 166.75 118.083H195.25C196.125 118.083 196.833 117.374 196.833 116.5C196.833 115.626 196.125 114.917 195.25 114.917H166.75Z" fill="#054375"/>
<path d="M171.5 121.25C170.626 121.25 169.917 121.959 169.917 122.833C169.917 123.708 170.626 124.417 171.5 124.417H190.5C191.375 124.417 192.083 123.708 192.083 122.833C192.083 121.959 191.375 121.25 190.5 121.25H171.5Z" fill="#054375"/>
<path d="M165.167 129.167C165.167 128.292 165.876 127.583 166.75 127.583H195.25C196.125 127.583 196.833 128.292 196.833 129.167C196.833 130.041 196.125 130.75 195.25 130.75H166.75C165.876 130.75 165.167 130.041 165.167 129.167Z" fill="#054375"/>
<path d="M171.5 133.917C170.626 133.917 169.917 134.626 169.917 135.5C169.917 136.374 170.626 137.083 171.5 137.083H190.5C191.375 137.083 192.083 136.374 192.083 135.5C192.083 134.626 191.375 133.917 190.5 133.917H171.5Z" fill="#054375"/>
</svg>
