<svg width="320" height="248" viewBox="0 0 320 248" fill="none" xmlns="http://www.w3.org/2000/svg">
<path opacity="0.3" d="M254.679 129.137C256.232 127.566 256.232 125.02 254.679 123.449L145.393 12.9292C143.685 11.2019 140.861 11.4003 139.406 13.3499L99.1415 67.2889C97.946 68.8903 98.1005 71.1378 99.5035 72.5566L149.71 123.329C151.263 124.9 151.263 127.447 149.71 129.018L93.106 186.26C91.3987 187.987 91.5939 190.841 93.5201 192.314L146.962 233.164C148.546 234.375 150.77 234.219 152.173 232.8L254.679 129.137Z" fill="#1090F9"/>
<path opacity="0.3" d="M253.888 132.632C255.053 133.81 255.053 135.72 253.888 136.899L151.383 240.561C150.33 241.626 148.662 241.742 147.474 240.835L94.0323 199.984C92.5877 198.88 92.4412 196.739 93.7217 195.444L150.326 138.201C152.267 136.238 152.267 133.054 150.326 131.091L100.119 80.3179C99.0669 79.2538 98.9511 77.5682 99.8477 76.3671L140.112 22.4282C141.203 20.966 143.321 20.8172 144.602 22.1126L253.888 132.632Z" stroke="#05BDFB" stroke-width="2"/>
<path opacity="0.3" d="M196.259 26.6187C197.364 26.6187 198.259 27.5141 198.259 28.6187L198.259 31.3718C198.259 32.2623 197.472 32.9473 196.59 32.8244C195.865 32.7234 195.326 32.1036 195.326 31.3718L195.326 31.1829C195.326 30.2821 194.596 29.5519 193.695 29.5519L193.506 29.5519C192.615 29.5519 191.93 28.7648 192.053 27.8828C192.154 27.1581 192.774 26.6187 193.506 26.6187L196.259 26.6187Z" fill="#1090F9"/>
<path opacity="0.3" d="M246.27 71.3225C246.823 72.2791 246.495 73.5023 245.538 74.0546L241.454 76.4124C240.403 77.0195 239.057 76.5571 238.601 75.4317L238.56 75.332C238.186 74.4072 238.55 73.3476 239.414 72.8486L239.929 72.5515C240.885 71.9992 241.213 70.776 240.661 69.8194L240.356 69.2919C239.749 68.2403 240.211 66.8947 241.337 66.4384L241.436 66.398C242.361 66.0231 243.421 66.3873 243.92 67.2515L246.27 71.3225Z" fill="#1090F9"/>
<path opacity="0.3" d="M148.408 211.678C148.96 212.634 148.632 213.858 147.676 214.41L143.592 216.768C142.54 217.375 141.195 216.912 140.739 215.787L140.698 215.687C140.323 214.762 140.687 213.703 141.552 213.204L142.066 212.907C143.023 212.354 143.351 211.131 142.798 210.175L142.494 209.647C141.887 208.596 142.349 207.25 143.474 206.794L143.574 206.753C144.499 206.378 145.559 206.743 146.058 207.607L148.408 211.678Z" fill="#1090F9"/>
<path opacity="0.3" d="M244.741 168.593C243.96 167.812 243.96 166.545 244.741 165.764L252.143 158.363C253.024 157.482 254.487 157.612 255.199 158.635L255.929 159.685C256.482 160.48 256.386 161.557 255.702 162.241L253.246 164.697C252.465 165.478 252.465 166.744 253.246 167.525L254.7 168.979C255.542 169.82 255.467 171.205 254.54 171.951L252.37 173.697C251.574 174.337 250.424 174.275 249.702 173.553L244.741 168.593Z" fill="#1090F9"/>
<path d="M106.419 176.76V75.3303C106.419 67.4303 112.819 61.0303 120.719 61.0303H166.869C174.769 61.0303 181.169 67.4303 181.169 75.3303V176.76C181.169 184.66 174.769 191.06 166.869 191.06H120.719C112.819 191.06 106.419 184.66 106.419 176.76Z" fill="#7CDDFD"/>
<path d="M166.969 191.93H120.619C112.309 191.93 105.549 185.17 105.549 176.86V75.2301C105.549 66.9201 112.309 60.1602 120.619 60.1602H166.969C175.279 60.1602 182.039 66.9201 182.039 75.2301V176.86C182.039 185.17 175.279 191.93 166.969 191.93ZM120.619 61.8902C113.269 61.8902 107.289 67.8702 107.289 75.2202V176.85C107.289 184.2 113.269 190.18 120.619 190.18H166.969C174.319 190.18 180.299 184.2 180.299 176.85V75.2301C180.299 67.8801 174.319 61.9001 166.969 61.9001H120.619V61.8902Z" fill="#054375"/>
<path d="M181.179 74.8503H106.419V172.91H181.179V74.8503Z" fill="white"/>
<path d="M181.169 173.78H106.409C105.929 173.78 105.539 173.39 105.539 172.91V74.8502C105.539 74.3702 105.929 73.9802 106.409 73.9802H181.169C181.649 73.9802 182.039 74.3702 182.039 74.8502V172.91C182.039 173.39 181.659 173.78 181.169 173.78ZM107.289 172.04H180.309V75.7202H107.289V172.04Z" fill="#054375"/>
<path d="M151.289 180.83H137.819C137.339 180.83 136.949 180.44 136.949 179.96C136.949 179.48 137.339 179.09 137.819 179.09H151.289C151.769 179.09 152.159 179.48 152.159 179.96C152.159 180.44 151.769 180.83 151.289 180.83Z" fill="#054375"/>
<g opacity="0.1294">
<path d="M176.169 75.03C173.619 74.96 171.069 74.84 168.519 74.87C161.659 74.8 154.789 74.81 147.919 74.9C142.519 74.94 137.119 75.1601 131.719 74.8001C125.099 74.6001 118.479 74.2 111.849 74.47C110.919 74.49 109.989 74.48 109.059 74.44C108.499 74.4 107.899 74.32 107.389 74.61C104.859 75.58 105.649 79.5 108.369 79.47C111.599 79.7 114.849 79.4501 118.079 79.5201C121.939 79.5001 125.789 79.82 129.649 79.9C144.049 79.99 158.459 80.05 172.859 79.79C174.769 79.82 176.689 79.7801 178.599 79.7401C180.179 79.9201 181.789 79.17 181.809 77.39C181.609 74.32 178.309 75.14 176.169 75.03Z" fill="#054375"/>
</g>
<path d="M180.969 90.45C162.869 90.45 148.199 105.69 148.199 124.49C148.199 132.27 150.719 139.43 154.939 145.16L150.929 161.63L164.679 154.02C169.479 156.88 175.039 158.53 180.969 158.53C199.069 158.53 213.739 143.29 213.739 124.49C213.739 105.69 199.069 90.45 180.969 90.45Z" fill="white"/>
<path d="M150.929 162.5C150.739 162.5 150.559 162.44 150.399 162.32C150.129 162.11 149.999 161.76 150.079 161.42L153.999 145.34C149.639 139.27 147.329 132.07 147.329 124.48C147.329 105.23 162.419 89.5701 180.969 89.5701C199.519 89.5701 214.609 105.23 214.609 124.48C214.609 143.73 199.519 159.39 180.969 159.39C175.269 159.39 169.639 157.88 164.659 155.01L151.339 162.38C151.219 162.47 151.069 162.5 150.929 162.5ZM180.969 91.3201C163.379 91.3201 149.069 106.2 149.069 124.49C149.069 131.84 151.339 138.81 155.639 144.64C155.789 144.85 155.849 145.11 155.779 145.36L152.239 159.9L164.249 153.25C164.519 153.1 164.849 153.1 165.119 153.26C169.929 156.13 175.409 157.65 180.969 157.65C198.559 157.65 212.869 142.77 212.869 124.48C212.869 106.19 198.559 91.3201 180.969 91.3201Z" fill="#054375"/>
<path d="M125.709 88.0402C125.709 86.3402 127.089 84.9702 128.779 84.9702C130.469 84.9702 131.849 86.3502 131.849 88.0402C131.849 89.7402 130.469 91.1102 128.779 91.1102C127.089 91.1102 125.709 89.7402 125.709 88.0402Z" fill="white"/>
<path d="M128.779 91.9801C126.609 91.9801 124.839 90.2101 124.839 88.0401C124.839 85.8701 126.609 84.1001 128.779 84.1001C130.949 84.1001 132.719 85.8701 132.719 88.0401C132.719 90.2201 130.949 91.9801 128.779 91.9801ZM128.779 85.8401C127.569 85.8401 126.579 86.8301 126.579 88.0401C126.579 89.2501 127.569 90.2401 128.779 90.2401C129.989 90.2401 130.979 89.2501 130.979 88.0401C130.979 86.8301 129.989 85.8401 128.779 85.8401Z" fill="#054375"/>
<path d="M140.579 88.0402C140.579 86.3402 141.959 84.9702 143.649 84.9702C145.349 84.9702 146.719 86.3502 146.719 88.0402C146.719 89.7402 145.339 91.1102 143.649 91.1102C141.959 91.1102 140.579 89.7402 140.579 88.0402Z" fill="white"/>
<path d="M143.649 91.9801C141.479 91.9801 139.709 90.2101 139.709 88.0401C139.709 85.8701 141.479 84.1001 143.649 84.1001C145.819 84.1001 147.589 85.8701 147.589 88.0401C147.599 90.2201 145.829 91.9801 143.649 91.9801ZM143.649 85.8401C142.439 85.8401 141.449 86.8301 141.449 88.0401C141.449 89.2501 142.439 90.2401 143.649 90.2401C144.859 90.2401 145.849 89.2501 145.849 88.0401C145.859 86.8301 144.869 85.8401 143.649 85.8401Z" fill="#054375"/>
<path d="M155.459 88.0402C155.459 86.3402 156.839 84.9702 158.529 84.9702C160.229 84.9702 161.599 86.3502 161.599 88.0402C161.599 89.7402 160.219 91.1102 158.529 91.1102C156.829 91.1102 155.459 89.7402 155.459 88.0402Z" fill="white"/>
<path d="M158.529 91.9801C156.359 91.9801 154.589 90.2101 154.589 88.0401C154.589 85.8701 156.359 84.1001 158.529 84.1001C160.699 84.1001 162.469 85.8701 162.469 88.0401C162.469 90.2201 160.699 91.9801 158.529 91.9801ZM158.529 85.8401C157.319 85.8401 156.329 86.8301 156.329 88.0401C156.329 89.2501 157.319 90.2401 158.529 90.2401C159.739 90.2401 160.729 89.2501 160.729 88.0401C160.729 86.8301 159.739 85.8401 158.529 85.8401Z" fill="#054375"/>
<g opacity="0.1294">
<path d="M132.819 90.6902C132.379 89.4502 130.589 89.2702 129.799 90.2802C129.789 90.2902 129.789 90.2902 129.779 90.2902C129.669 90.3702 129.559 90.4402 129.439 90.5102C129.299 90.5602 129.149 90.6002 128.999 90.6302C128.969 90.6302 128.949 90.6302 128.919 90.6402C128.859 90.6402 128.799 90.6302 128.739 90.6302C128.679 90.6202 128.609 90.6002 128.529 90.5802C128.369 90.5402 128.249 90.4902 128.169 90.4702C128.079 90.4202 127.989 90.3702 127.899 90.3202C127.789 90.2102 127.669 90.1102 127.519 90.0202C126.169 89.1002 124.339 90.4402 124.789 92.0102C125.209 93.2602 126.699 93.8102 127.889 94.0902C129.719 94.6102 133.759 93.0302 132.819 90.6902Z" fill="#054375"/>
</g>
<g opacity="0.1294">
<path d="M148.089 90.5302C147.709 89.4502 146.159 89.1702 145.389 89.9902C145.299 90.0802 145.209 90.1602 145.109 90.2502C145.079 90.2702 145.059 90.2902 145.019 90.3102C144.389 90.5902 144.499 90.5402 143.679 90.6202C143.569 90.6202 143.469 90.6102 143.359 90.6002C143.239 90.5702 143.109 90.5302 143.019 90.5002C142.839 90.4102 142.659 90.3202 142.489 90.2102C142.459 90.1902 142.439 90.1802 142.419 90.1602C142.219 89.9802 142.039 89.7902 141.779 89.7202C140.209 88.9802 138.769 91.1502 140.009 92.3402C141.469 93.8102 143.649 94.2302 145.599 93.6602C146.869 93.2502 148.779 92.1102 148.089 90.5302Z" fill="#054375"/>
</g>
<g opacity="0.1294">
<path d="M162.869 90.8501C162.559 89.6901 161.079 89.3601 160.219 90.1101C160.109 90.1801 159.989 90.2401 159.869 90.2901C159.809 90.3201 159.749 90.3401 159.689 90.3701C159.629 90.3901 159.469 90.4501 159.289 90.5001C159.219 90.5201 159.149 90.5301 159.089 90.5501C158.949 90.5501 158.809 90.5501 158.669 90.5401C157.849 90.3701 157.859 90.3001 157.629 90.2001C156.909 89.8201 156.139 89.1801 155.269 89.4201C153.969 89.7301 153.719 91.6401 154.899 92.2801C155.579 92.6001 156.169 93.0801 156.889 93.3301C157.699 93.6301 158.589 93.7101 159.449 93.6701C160.959 93.6201 163.329 92.7401 162.869 90.8501Z" fill="#054375"/>
</g>
<path d="M120.179 148.8C120.099 148.8 120.029 148.77 119.969 148.71C119.859 148.59 119.859 148.41 119.979 148.3L144.209 125.12C144.329 125.01 144.509 125.01 144.619 125.13C144.729 125.25 144.729 125.43 144.609 125.54L120.379 148.72C120.319 148.77 120.249 148.8 120.179 148.8Z" fill="#054375"/>
<path d="M119.869 158.03C119.799 158.03 119.719 158 119.669 157.95C119.549 157.84 119.549 157.66 119.659 157.54C127.789 149.08 136.169 140.62 144.559 132.38C144.679 132.27 144.859 132.27 144.969 132.38C145.079 132.49 145.079 132.68 144.969 132.79C136.589 141.02 128.209 149.48 120.079 157.94C120.029 158 119.949 158.03 119.869 158.03Z" fill="#054375"/>
<path d="M127.929 157.87C127.859 157.87 127.779 157.84 127.729 157.79C127.619 157.68 127.619 157.49 127.729 157.38L146.019 138.84C146.129 138.73 146.319 138.72 146.429 138.84C146.539 138.95 146.549 139.14 146.429 139.25L128.139 157.79C128.079 157.84 127.999 157.87 127.929 157.87Z" fill="#054375"/>
<path d="M136.249 158.27C136.179 158.27 136.109 158.24 136.049 158.19C135.929 158.08 135.929 157.9 136.039 157.78C139.999 153.66 143.899 149.37 147.609 145.02C147.709 144.9 147.899 144.88 148.019 144.99C148.139 145.09 148.159 145.28 148.049 145.4C144.329 149.76 140.429 154.06 136.459 158.19C136.409 158.24 136.329 158.27 136.249 158.27Z" fill="#054375"/>
<path d="M144.649 158C144.579 158 144.509 157.98 144.459 157.93C144.339 157.82 144.329 157.64 144.429 157.52L149.269 151.94C149.379 151.82 149.559 151.81 149.679 151.91C149.799 152.02 149.809 152.2 149.709 152.32L144.869 157.9C144.809 157.97 144.729 158 144.649 158Z" fill="#054375"/>
<g opacity="0.1294">
<path d="M179.999 158.49C179.609 158.37 179.229 158.42 178.849 158.51C178.709 158.52 178.559 158.52 178.419 158.52C176.779 158.23 175.679 158.22 172.349 157.01C172.269 156.98 172.199 156.95 172.119 156.92C171.979 156.85 171.379 156.56 171.129 156.45C170.019 155.94 168.849 155.59 167.679 155.21C166.719 154.92 165.829 154.36 164.799 154.31C164.349 154.34 163.869 154.43 163.499 154.69C163.189 154.87 162.869 155.03 162.549 155.19C160.109 156.34 157.699 157.57 155.349 158.89C154.369 159.46 153.359 159.96 152.319 160.4C151.839 160.63 151.269 160.76 150.979 161.24C149.859 162.56 151.269 164.66 152.929 164.15C156.959 162.51 160.769 160.39 164.709 158.55C167.149 159.7 169.829 160.17 172.319 161.21C174.409 161.83 176.589 162.71 178.799 162.35C178.629 162.37 178.449 162.4 178.279 162.42C179.009 162.41 179.819 162.53 180.479 162.14C181.989 161.29 181.689 158.93 179.999 158.49Z" fill="#054375"/>
</g>
<path d="M181.409 119.705C180.672 119.579 179.914 119.717 179.269 120.096C178.624 120.475 178.134 121.07 177.886 121.775C177.596 122.6 176.692 123.034 175.867 122.744C175.042 122.453 174.609 121.549 174.899 120.725C175.395 119.314 176.375 118.124 177.664 117.366C178.954 116.608 180.47 116.331 181.944 116.584C183.418 116.837 184.755 117.603 185.719 118.748C186.682 119.892 187.209 121.339 187.207 122.835C187.206 125.258 185.41 126.858 184.127 127.713C183.437 128.173 182.758 128.511 182.259 128.733C182.007 128.845 181.794 128.93 181.641 128.989C181.565 129.018 181.502 129.04 181.457 129.057L181.402 129.076L181.385 129.082L181.379 129.084L181.376 129.085C181.376 129.085 181.374 129.085 180.873 127.583L181.374 129.085C180.545 129.362 179.648 128.914 179.371 128.084C179.095 127.255 179.543 126.359 180.371 126.082L180.396 126.073C180.421 126.064 180.461 126.05 180.514 126.029C180.621 125.989 180.779 125.925 180.973 125.84C181.363 125.666 181.872 125.41 182.37 125.078C183.462 124.35 184.04 123.576 184.04 122.833V122.831C184.041 122.083 183.778 121.359 183.296 120.787C182.814 120.215 182.146 119.832 181.409 119.705Z" fill="#1954F5"/>
<path d="M181 132.333C180.125 132.333 179.417 133.042 179.417 133.917C179.417 134.791 180.125 135.5 181 135.5H181.016C181.89 135.5 182.599 134.791 182.599 133.917C182.599 133.042 181.89 132.333 181.016 132.333H181Z" fill="#1954F5"/>
<path fill-rule="evenodd" clip-rule="evenodd" d="M163.583 126C163.583 116.381 171.381 108.583 181 108.583C190.619 108.583 198.417 116.381 198.417 126C198.417 135.619 190.619 143.417 181 143.417C171.381 143.417 163.583 135.619 163.583 126ZM181 111.75C173.13 111.75 166.75 118.13 166.75 126C166.75 133.87 173.13 140.25 181 140.25C188.87 140.25 195.25 133.87 195.25 126C195.25 118.13 188.87 111.75 181 111.75Z" fill="#1954F5"/>
</svg>
