<svg width="320" height="248" viewBox="0 0 320 248" fill="none" xmlns="http://www.w3.org/2000/svg">
<path opacity="0.3" d="M254.679 129.137C256.232 127.566 256.232 125.02 254.679 123.449L145.393 12.9292C143.685 11.2019 140.861 11.4003 139.406 13.3499L99.1416 67.2889C97.9461 68.8903 98.1006 71.1378 99.5036 72.5566L149.71 123.329C151.263 124.9 151.263 127.447 149.71 129.018L93.1061 186.26C91.3988 187.987 91.5941 190.841 93.5202 192.314L146.962 233.164C148.546 234.375 150.77 234.219 152.173 232.8L254.679 129.137Z" fill="#1090F9"/>
<path opacity="0.3" d="M253.888 132.632C255.053 133.81 255.053 135.72 253.888 136.898L151.383 240.561C150.33 241.626 148.662 241.742 147.474 240.834L94.0323 199.984C92.5877 198.879 92.4412 196.739 93.7217 195.444L150.326 138.201C152.267 136.238 152.267 133.054 150.326 131.091L100.119 80.3178C99.0669 79.2536 98.9511 77.568 99.8477 76.367L140.112 22.428C141.203 20.9658 143.321 20.817 144.602 22.1125L253.888 132.632Z" stroke="#05BDFB" stroke-width="2"/>
<path opacity="0.3" d="M196.259 26.6185C197.364 26.6185 198.259 27.5139 198.259 28.6185L198.259 31.3717C198.259 32.2621 197.472 32.9471 196.59 32.8242C195.865 32.7232 195.326 32.1034 195.326 31.3717L195.326 31.1828C195.326 30.282 194.596 29.5517 193.695 29.5517L193.506 29.5517C192.615 29.5517 191.93 28.7647 192.053 27.8827C192.154 27.1579 192.774 26.6185 193.506 26.6185L196.259 26.6185Z" fill="#1090F9"/>
<path opacity="0.3" d="M246.27 71.3224C246.823 72.279 246.495 73.5022 245.538 74.0544L241.454 76.4122C240.403 77.0194 239.057 76.5569 238.601 75.4316L238.561 75.3319C238.186 74.4071 238.55 73.3474 239.414 72.8485L239.929 72.5514C240.885 71.9991 241.213 70.7759 240.661 69.8193L240.356 69.2918C239.749 68.2402 240.212 66.8945 241.337 66.4383L241.437 66.3979C242.361 66.023 243.421 66.3872 243.92 67.2514L246.27 71.3224Z" fill="#1090F9"/>
<path opacity="0.3" d="M148.408 211.678C148.96 212.634 148.633 213.857 147.676 214.41L143.592 216.767C142.541 217.375 141.195 216.912 140.739 215.787L140.698 215.687C140.323 214.762 140.688 213.703 141.552 213.204L142.066 212.907C143.023 212.354 143.351 211.131 142.798 210.175L142.494 209.647C141.887 208.595 142.349 207.25 143.475 206.794L143.574 206.753C144.499 206.378 145.559 206.742 146.058 207.607L148.408 211.678Z" fill="#1090F9"/>
<path opacity="0.3" d="M244.742 168.593C243.96 167.812 243.96 166.545 244.742 165.764L252.143 158.363C253.024 157.482 254.487 157.612 255.199 158.635L255.929 159.685C256.482 160.48 256.387 161.557 255.702 162.241L253.247 164.696C252.465 165.478 252.465 166.744 253.247 167.525L254.7 168.979C255.542 169.82 255.467 171.205 254.54 171.951L252.37 173.697C251.574 174.337 250.424 174.275 249.702 173.553L244.742 168.593Z" fill="#1090F9"/>
<path fill-rule="evenodd" clip-rule="evenodd" d="M116 88.7152C106.52 88.7152 98.835 96.2962 98.835 105.648V127H90V105.648C90 91.4829 101.641 80 116 80C130.359 80 142 91.4829 142 105.648V127H133.165V105.648C133.165 96.2962 125.48 88.7152 116 88.7152Z" fill="#011727"/>
<circle cx="116" cy="159" r="41" fill="white" stroke="#054375" stroke-width="2"/>
<ellipse cx="114" cy="157.5" rx="31" ry="31.5" fill="#D7DEE5"/>
<ellipse cx="116" cy="158.5" rx="31" ry="31.5" fill="#40CDFC"/>
<path fill-rule="evenodd" clip-rule="evenodd" d="M120.695 155.325C122.687 153.83 123.974 151.449 123.974 148.767C123.974 144.239 120.304 140.568 115.776 140.568C111.249 140.568 107.578 144.239 107.578 148.767C107.578 151.449 108.866 153.83 110.858 155.326V173.487C110.858 176.204 113.06 178.406 115.777 178.406C118.493 178.406 120.695 176.204 120.695 173.487V155.325Z" fill="#054375"/>
<rect x="131" y="38" width="76" height="142" rx="12" fill="#F0FBFF" stroke="#054375" stroke-width="2"/>
<path d="M153.544 79.0386L149.96 76.8108L150.024 80.9436H147.796L147.861 76.7785L144.212 79.0386L143.018 77.1982L146.892 74.9057L143.082 72.6456L144.309 70.8374L147.861 73.0653L147.796 69.0293H150.024L149.96 73.033L153.479 70.8374L154.738 72.6456L150.928 74.9057L154.803 77.1982L153.544 79.0386Z" fill="#054375"/>
<path d="M173.4 79.0645L169.816 76.8366L169.881 80.9695H167.653L167.717 76.8043L164.069 79.0645L162.874 77.2241L166.749 74.9316L162.939 72.6714L164.166 70.8633L167.717 73.0912L167.653 69.0551H169.881L169.816 73.0589L173.336 70.8633L174.595 72.6714L170.785 74.9316L174.659 77.2241L173.4 79.0645Z" fill="#054375"/>
<path d="M193.258 79.0645L189.675 76.8366L189.739 80.9695H187.511L187.576 76.8043L183.927 79.0645L182.733 77.2241L186.607 74.9316L182.797 72.6714L184.024 70.8633L187.576 73.0912L187.511 69.0551H189.739L189.675 73.0589L193.194 70.8633L194.453 72.6714L190.643 74.9316L194.518 77.2241L193.258 79.0645Z" fill="#054375"/>
<path d="M175.796 118.858C176.512 119.558 176.512 120.692 175.796 121.392L171.593 125.5L175.796 129.608C176.512 130.308 176.512 131.442 175.796 132.142C175.08 132.842 173.92 132.842 173.204 132.142L169 128.034L164.796 132.142C164.08 132.842 162.92 132.842 162.204 132.142C161.488 131.442 161.488 130.308 162.204 129.608L166.407 125.5L162.204 121.392C161.488 120.692 161.488 119.558 162.204 118.858C162.92 118.158 164.08 118.158 164.796 118.858L169 122.966L173.204 118.858C173.92 118.158 175.08 118.158 175.796 118.858Z" fill="#D0333D"/>
<path fill-rule="evenodd" clip-rule="evenodd" d="M148.833 125.5C148.833 114.615 157.862 105.792 169 105.792C180.138 105.792 189.167 114.615 189.167 125.5C189.167 136.385 180.138 145.208 169 145.208C157.862 145.208 148.833 136.385 148.833 125.5ZM169 109.375C159.887 109.375 152.5 116.594 152.5 125.5C152.5 134.406 159.887 141.625 169 141.625C178.113 141.625 185.5 134.406 185.5 125.5C185.5 116.594 178.113 109.375 169 109.375Z" fill="#D0333D"/>
<path d="M181.128 174.782C181.032 174.782 180.923 174.741 180.841 174.659C180.691 174.509 180.691 174.249 180.841 174.099L202.842 152.113C202.993 151.962 203.252 151.962 203.402 152.113C203.552 152.263 203.552 152.522 203.402 152.672L181.401 174.659C181.319 174.741 181.223 174.782 181.128 174.782Z" fill="#054375"/>
<path d="M92.2102 175C92.1599 175 92.1024 174.978 92.0593 174.935C91.9802 174.856 91.9802 174.72 92.0593 174.641L103.646 163.059C103.725 162.98 103.862 162.98 103.941 163.059C104.02 163.138 104.02 163.275 103.941 163.354L92.354 174.935C92.3108 174.978 92.2605 175 92.2102 175Z" fill="#054375"/>
<path d="M178.399 166.176C178.304 166.176 178.194 166.135 178.113 166.053C177.962 165.903 177.962 165.643 178.113 165.493L191.206 152.113C191.356 151.962 191.616 151.962 191.766 152.113C191.916 152.263 191.916 152.522 191.766 152.672L178.672 166.053C178.59 166.135 178.495 166.176 178.399 166.176Z" fill="#054375"/>
<path d="M90.2013 170C90.1532 170 90.0981 169.98 90.0568 169.939C89.9811 169.865 89.9811 169.737 90.0568 169.663L96.661 163.056C96.7367 162.981 96.8675 162.981 96.9432 163.056C97.0189 163.13 97.0189 163.258 96.9432 163.332L90.339 169.939C90.2977 169.98 90.2495 170 90.2013 170Z" fill="#054375"/>
<path d="M95.2013 177C95.1532 177 95.0981 176.98 95.0568 176.939C94.9811 176.865 94.9811 176.737 95.0568 176.663L101.661 170.056C101.737 169.981 101.868 169.981 101.943 170.056C102.019 170.13 102.019 170.258 101.943 170.332L95.339 176.939C95.2977 176.98 95.2495 177 95.2013 177Z" fill="#054375"/>
</svg>
