<svg width="208" height="160" viewBox="0 0 208 160" fill="none" xmlns="http://www.w3.org/2000/svg">
<path opacity="0.3" d="M176.686 80.5176C178.24 78.9467 178.24 76.3999 176.686 74.8291L105.925 3.26919C104.217 1.5419 101.393 1.74035 99.9379 3.68995L74.74 37.4457C73.5446 39.0472 73.699 41.2946 75.102 42.7134L106.781 74.7496C108.334 76.3204 108.334 78.8673 106.781 80.4381L71.1033 116.518C69.396 118.245 69.5912 121.099 71.5174 122.571L104.968 148.14C106.551 149.351 108.775 149.195 110.179 147.776L176.686 80.5176Z" fill="#1090F9"/>
<path opacity="0.3" d="M175.925 81.1825C177.09 82.3606 177.09 84.2707 175.925 85.4488L109.417 152.707C108.365 153.772 106.697 153.888 105.509 152.98L72.0589 127.411C70.6143 126.307 70.4678 124.166 71.7483 122.872L107.426 86.7915C109.367 84.828 109.367 81.6444 107.426 79.6809L75.747 47.6447C74.6948 46.5806 74.579 44.895 75.4755 43.6939L100.673 9.93816C101.765 8.47596 103.883 8.32712 105.164 9.62258L175.925 81.1825Z" stroke="#05BDFB" stroke-width="2"/>
<path opacity="0.3" d="M138.057 11.2937C139.159 11.2937 140.052 12.187 140.052 13.2889L140.052 14.4591C140.052 15.0522 139.528 15.5083 138.941 15.4265C138.458 15.3592 138.099 14.9465 138.099 14.4591L138.099 14.3333C138.099 13.7334 137.613 13.2471 137.013 13.2471L136.887 13.2471C136.294 13.2471 135.838 12.7229 135.92 12.1356C135.987 11.6529 136.4 11.2937 136.887 11.2937L138.057 11.2937Z" fill="#1090F9"/>
<path opacity="0.3" d="M171.692 40.4863C172.244 41.4428 171.916 42.666 170.96 43.2183L168.854 44.4341C168.135 44.8492 167.215 44.533 166.903 43.7636C166.647 43.1313 166.896 42.4069 167.487 42.0657L167.639 41.9777C168.366 41.5577 168.616 40.6277 168.196 39.9004L168.108 39.7478C167.693 39.0288 168.009 38.1088 168.778 37.7969C169.41 37.5406 170.135 37.7896 170.476 38.3804L171.692 40.4863Z" fill="#1090F9"/>
<path opacity="0.3" d="M106.519 133.958C107.071 134.914 106.744 136.137 105.787 136.69L103.681 137.906C102.962 138.321 102.042 138.004 101.73 137.235C101.474 136.603 101.723 135.878 102.314 135.537L102.466 135.449C103.194 135.029 103.443 134.099 103.023 133.372L102.935 133.219C102.52 132.5 102.836 131.58 103.605 131.268C104.238 131.012 104.962 131.261 105.303 131.852L106.519 133.958Z" fill="#1090F9"/>
<path opacity="0.3" d="M171.48 106.316C170.699 105.535 170.699 104.268 171.48 103.487L175.583 99.3849C176.354 98.6136 177.635 98.7276 178.258 99.623C178.743 100.319 178.659 101.262 178.059 101.861L177.13 102.791C176.357 103.564 176.357 104.817 177.13 105.59C177.963 106.423 177.889 107.794 176.971 108.532L176.555 108.867C175.76 109.507 174.61 109.445 173.887 108.723L171.48 106.316Z" fill="#1090F9"/>
<path d="M64.6453 117.523V43.1269C64.6453 37.3324 69.3395 32.6382 75.1339 32.6382H108.984C114.778 32.6382 119.472 37.3324 119.472 43.1269V117.523C119.472 123.318 114.778 128.012 108.984 128.012H75.1339C69.3395 128.012 64.6453 123.318 64.6453 117.523Z" fill="#7CDDFD"/>
<path d="M109.057 128.65H75.0608C68.9656 128.65 64.0073 123.692 64.0073 117.596V43.0534C64.0073 36.9583 68.9656 32 75.0608 32H109.057C115.152 32 120.111 36.9583 120.111 43.0534V117.596C120.111 123.692 115.152 128.65 109.057 128.65ZM75.0608 33.2689C69.6697 33.2689 65.2836 37.6551 65.2836 43.0461V117.589C65.2836 122.98 69.6697 127.366 75.0608 127.366H109.057C114.448 127.366 118.834 122.98 118.834 117.589V43.0534C118.834 37.6624 114.448 33.2762 109.057 33.2762H75.0608V33.2689Z" fill="#054375"/>
<path d="M119.48 42.7749H64.6453V114.699H119.48V42.7749Z" fill="white"/>
<path fill-rule="evenodd" clip-rule="evenodd" d="M90.8679 88.2734V92.4297C90.8679 92.7576 91.1338 93.0234 91.4617 93.0234H92.6492C92.9771 93.0234 93.2429 92.7576 93.2429 92.4297V88.2603C94.3418 88.2254 95.7047 88.099 96.9255 87.6412C97.8092 87.3098 98.6871 86.7819 99.3418 85.932C100.006 85.0693 100.368 83.9695 100.368 82.6328C100.368 81.2961 100.006 80.1963 99.3418 79.3336C98.6871 78.4837 97.8092 77.9558 96.9255 77.6244C95.7047 77.1666 94.3418 77.0402 93.2429 77.0054V70.4609L98.5867 70.4609C98.9146 70.4609 99.1804 70.1951 99.1804 69.8672L99.1804 68.6797C99.1804 68.3518 98.9146 68.0859 98.5867 68.0859L93.2429 68.0859V63.9297C93.2429 63.6018 92.9771 63.3359 92.6492 63.3359H91.4617C91.1338 63.3359 90.8679 63.6018 90.8679 63.9297V68.1073C89.726 68.1512 88.4215 68.2847 87.2627 68.69C86.3585 69.0062 85.4623 69.5129 84.7929 70.3406C84.1103 71.1847 83.7429 72.2649 83.7429 73.573C83.7429 74.8815 84.1099 75.966 84.765 76.8262C85.4092 77.672 86.2724 78.2235 87.1482 78.586C88.3791 79.0953 89.7482 79.2758 90.8679 79.3372V85.8984H85.5242C85.1962 85.8984 84.9304 86.1643 84.9304 86.4922V87.6797C84.9304 88.0076 85.1962 88.2734 85.5242 88.2734H90.8679ZM93.2429 85.8827C94.198 85.849 95.2206 85.744 96.0916 85.4174C96.6922 85.1922 97.1503 84.8851 97.4604 84.4826C97.7606 84.0928 97.9929 83.5227 97.9929 82.6328C97.9929 81.7429 97.7606 81.1728 97.4604 80.7831C97.1503 80.3805 96.6922 80.0735 96.0916 79.8482C95.2206 79.5216 94.198 79.4166 93.2429 79.3829V85.8827ZM90.8679 76.9576V70.4854C89.8831 70.5265 88.8901 70.6369 88.0467 70.9318C87.4141 71.153 86.9482 71.4525 86.6396 71.834C86.3443 72.1992 86.1179 72.7314 86.1179 73.573C86.1179 74.4143 86.3447 74.9806 86.6544 75.3872C86.9751 75.8082 87.4478 76.1396 88.0563 76.3914C88.9187 76.7483 89.9354 76.8986 90.8679 76.9576Z" fill="#054375"/>
<path d="M119.473 115.337H64.6381C64.2861 115.337 64 115.051 64 114.699V42.7748C64 42.4228 64.2861 42.1367 64.6381 42.1367H119.473C119.825 42.1367 120.111 42.4228 120.111 42.7748V114.699C120.111 115.051 119.832 115.337 119.473 115.337ZM65.2836 114.061H118.842V43.413H65.2836V114.061Z" fill="#054375"/>
<path d="M97.5566 120.508H87.6767C87.3246 120.508 87.0386 120.222 87.0386 119.87C87.0386 119.518 87.3246 119.232 87.6767 119.232H97.5566C97.9086 119.232 98.1947 119.518 98.1947 119.87C98.1947 120.222 97.9086 120.508 97.5566 120.508Z" fill="#054375"/>
<g opacity="0.1294">
<path d="M115.805 42.9067C113.935 42.8553 112.065 42.7673 110.194 42.7893C105.163 42.738 100.124 42.7453 95.0847 42.8113C91.1239 42.8407 87.1632 43.002 83.2024 42.738C78.3468 42.5913 73.4912 42.2979 68.6283 42.4959C67.9461 42.5106 67.264 42.5033 66.5819 42.4739C66.1711 42.4446 65.7311 42.3859 65.357 42.5986C63.5013 43.3101 64.0807 46.1853 66.0758 46.1633C68.4449 46.332 70.8287 46.1486 73.1978 46.2C76.0291 46.1853 78.8529 46.42 81.6841 46.4787C92.2462 46.5447 102.815 46.5887 113.378 46.398C114.778 46.42 116.187 46.3907 117.588 46.3613C118.747 46.4934 119.927 45.9433 119.942 44.6377C119.795 42.3859 117.375 42.9874 115.805 42.9067Z" fill="#054375"/>
</g>
<path d="M128.674 54.2168C115.398 54.2168 104.638 65.3949 104.638 79.1842C104.638 84.8907 106.487 90.1423 109.582 94.3452L106.641 106.425L116.726 100.844C120.246 102.941 124.325 104.152 128.674 104.152C141.95 104.152 152.71 92.9735 152.71 79.1842C152.71 65.3949 141.95 54.2168 128.674 54.2168Z" fill="white"/>
<path d="M106.64 107.064C106.501 107.064 106.369 107.02 106.252 106.932C106.054 106.777 105.958 106.521 106.017 106.271L108.892 94.4771C105.694 90.0249 104 84.7439 104 79.1769C104 65.0575 115.068 53.5713 128.674 53.5713C142.28 53.5713 153.348 65.0575 153.348 79.1769C153.348 93.2962 142.28 104.782 128.674 104.782C124.493 104.782 120.364 103.675 116.711 101.57L106.941 106.976C106.853 107.042 106.743 107.064 106.64 107.064ZM128.674 54.8549C115.772 54.8549 105.276 65.7689 105.276 79.1842C105.276 84.5752 106.941 89.6875 110.095 93.9637C110.205 94.1177 110.249 94.3084 110.198 94.4918L107.601 105.156L116.41 100.279C116.608 100.169 116.85 100.169 117.048 100.286C120.576 102.391 124.596 103.506 128.674 103.506C141.576 103.506 152.072 92.5921 152.072 79.1769C152.072 65.7616 141.576 54.8549 128.674 54.8549Z" fill="#054375"/>
<path d="M74.7381 97.0152C74.6794 97.0152 74.628 96.9932 74.584 96.9492C74.5034 96.8612 74.5034 96.7291 74.5914 96.6485L92.3635 79.6465C92.4515 79.5659 92.5835 79.5659 92.6642 79.6539C92.7449 79.7419 92.7449 79.8739 92.6568 79.9546L74.8848 96.9565C74.8408 96.9932 74.7894 97.0152 74.7381 97.0152Z" fill="#054375"/>
<path d="M74.5105 103.785C74.4592 103.785 74.4005 103.763 74.3638 103.726C74.2758 103.646 74.2758 103.514 74.3565 103.426C80.3196 97.2204 86.4662 91.0152 92.62 84.9714C92.708 84.8907 92.84 84.8907 92.9207 84.9714C93.0014 85.0521 93.0014 85.1914 92.9207 85.2721C86.7742 91.3086 80.6277 97.5138 74.6646 103.719C74.6279 103.763 74.5692 103.785 74.5105 103.785Z" fill="#054375"/>
<path d="M80.4225 103.668C80.3712 103.668 80.3125 103.646 80.2758 103.609C80.1952 103.528 80.1952 103.389 80.2758 103.308L93.6911 89.7098C93.7718 89.6291 93.9111 89.6218 93.9918 89.7098C94.0725 89.7905 94.0798 89.9298 93.9918 90.0105L80.5766 103.609C80.5326 103.646 80.4739 103.668 80.4225 103.668Z" fill="#054375"/>
<path d="M86.5249 103.961C86.4736 103.961 86.4223 103.939 86.3782 103.903C86.2902 103.822 86.2902 103.69 86.3709 103.602C89.2755 100.58 92.136 97.4333 94.8572 94.2427C94.9305 94.1547 95.0699 94.14 95.1579 94.2207C95.246 94.2941 95.2606 94.4334 95.1799 94.5215C92.4514 97.7194 89.5909 100.873 86.679 103.903C86.6423 103.939 86.5836 103.961 86.5249 103.961Z" fill="#054375"/>
<path d="M92.6862 103.763C92.6349 103.763 92.5836 103.749 92.5469 103.712C92.4589 103.631 92.4515 103.499 92.5249 103.411L96.0749 99.3184C96.1556 99.2303 96.2876 99.223 96.3756 99.2963C96.4636 99.377 96.471 99.5091 96.3976 99.5971L92.8476 103.69C92.8036 103.741 92.7449 103.763 92.6862 103.763Z" fill="#054375"/>
<g opacity="0.1294">
<path d="M127.605 103.39C127.319 103.302 127.04 103.338 126.762 103.404C126.659 103.412 126.549 103.412 126.446 103.412C125.243 103.199 124.436 103.192 121.994 102.304C121.935 102.282 121.884 102.26 121.825 102.238C121.723 102.187 121.283 101.974 121.099 101.893C120.285 101.519 119.427 101.263 118.569 100.984C117.865 100.771 117.212 100.36 116.456 100.324C116.126 100.346 115.774 100.412 115.503 100.602C115.275 100.734 115.041 100.852 114.806 100.969C113.016 101.813 111.249 102.715 109.525 103.683C108.806 104.101 108.065 104.468 107.303 104.791C106.951 104.959 106.532 105.055 106.32 105.407C105.498 106.375 106.532 107.915 107.75 107.541C110.706 106.338 113.5 104.783 116.39 103.434C118.18 104.277 120.146 104.622 121.972 105.385C123.505 105.839 125.104 106.485 126.725 106.221C126.6 106.236 126.468 106.258 126.344 106.272C126.879 106.265 127.473 106.353 127.957 106.067C129.065 105.443 128.845 103.712 127.605 103.39Z" fill="#054375"/>
</g>
<path d="M126.693 71.2254C128.584 70.7981 130.562 70.9936 132.333 71.7826C132.837 72.0071 133.427 71.7807 133.652 71.2768C133.877 70.7729 133.65 70.1823 133.146 69.9578C130.982 68.9935 128.564 68.7546 126.253 69.2767C123.942 69.7989 121.861 71.0542 120.322 72.8553C118.782 74.6565 117.866 76.907 117.71 79.2713C117.554 81.6355 118.167 83.9869 119.457 85.9746C120.746 87.9622 122.644 89.4798 124.866 90.3009C127.089 91.1221 129.517 91.2027 131.79 90.5309C134.062 89.8591 136.056 88.4708 137.475 86.5731C138.893 84.6754 139.66 82.3699 139.662 80.0005V79.081C139.662 78.5293 139.215 78.0821 138.663 78.0821C138.111 78.0821 137.664 78.5293 137.664 79.081V79.9994C137.663 81.938 137.035 83.8243 135.874 85.377C134.714 86.9296 133.082 88.0655 131.223 88.6152C129.364 89.1648 127.377 89.0988 125.559 88.427C123.74 87.7552 122.188 86.5135 121.133 84.8872C120.077 83.2609 119.576 81.3371 119.704 79.4027C119.831 77.4683 120.581 75.627 121.84 74.1533C123.1 72.6796 124.802 71.6526 126.693 71.2254Z" fill="#26A94D"/>
<path d="M139.37 72.7149C139.759 72.3246 139.759 71.6922 139.369 71.3023C138.979 70.9124 138.346 70.9127 137.956 71.303L128.674 80.5947L126.384 78.3048C125.994 77.9147 125.361 77.9147 124.971 78.3048C124.581 78.6948 124.581 79.3273 124.971 79.7174L127.968 82.714C128.155 82.9014 128.409 83.0066 128.674 83.0066C128.939 83.0065 129.194 82.9011 129.381 82.7136L139.37 72.7149Z" fill="#26A94D"/>
</svg>
