<svg width="320" height="248" viewBox="0 0 320 248" fill="none" xmlns="http://www.w3.org/2000/svg">
<path opacity="0.3" d="M254.68 129.137C256.233 127.566 256.233 125.02 254.68 123.449L145.394 12.9292C143.686 11.2019 140.862 11.4003 139.407 13.3499L99.1424 67.2889C97.947 68.8903 98.1015 71.1378 99.5044 72.5566L149.711 123.329C151.264 124.9 151.264 127.447 149.711 129.018L93.107 186.26C91.3996 187.987 91.5949 190.841 93.5211 192.314L146.963 233.164C148.547 234.375 150.771 234.219 152.174 232.8L254.68 129.137Z" fill="#1090F9"/>
<path opacity="0.3" d="M253.889 132.632C255.054 133.811 255.054 135.721 253.889 136.899L151.383 240.561C150.33 241.626 148.663 241.743 147.475 240.835L94.0328 199.984C92.5882 198.88 92.4417 196.739 93.7222 195.444L150.326 138.202C152.268 136.238 152.268 133.055 150.326 131.091L100.12 80.3182C99.0674 79.2541 98.9516 77.5685 99.8482 76.3674L140.112 22.4285C141.204 20.9663 143.322 20.8174 144.603 22.1129L253.889 132.632Z" stroke="#05BDFB" stroke-width="2"/>
<path opacity="0.3" d="M196.259 26.6182C197.363 26.6182 198.259 27.5136 198.259 28.6182L198.259 31.3713C198.259 32.2618 197.472 32.9468 196.59 32.8239C195.865 32.7229 195.325 32.1031 195.325 31.3713L195.325 31.1824C195.325 30.2816 194.595 29.5514 193.694 29.5514L193.505 29.5514C192.615 29.5514 191.93 28.7643 192.053 27.8823C192.154 27.1576 192.774 26.6182 193.505 26.6182L196.259 26.6182Z" fill="#1090F9"/>
<path opacity="0.3" d="M246.27 71.322C246.823 72.2786 246.495 73.5018 245.538 74.0541L241.455 76.4119C240.403 77.0191 239.057 76.5566 238.601 75.4312L238.561 75.3316C238.186 74.4067 238.55 73.3471 239.414 72.8481L239.929 72.551C240.885 71.9987 241.213 70.7755 240.661 69.819L240.356 69.2915C239.749 68.2398 240.212 66.8942 241.337 66.438L241.437 66.3976C242.361 66.0227 243.421 66.3868 243.92 67.2511L246.27 71.322Z" fill="#1090F9"/>
<path opacity="0.3" d="M148.407 211.678C148.959 212.634 148.632 213.857 147.675 214.41L143.591 216.767C142.54 217.375 141.194 216.912 140.738 215.787L140.697 215.687C140.323 214.762 140.687 213.703 141.551 213.204L142.066 212.906C143.022 212.354 143.35 211.131 142.798 210.174L142.493 209.647C141.886 208.595 142.348 207.25 143.474 206.793L143.573 206.753C144.498 206.378 145.558 206.742 146.057 207.607L148.407 211.678Z" fill="#1090F9"/>
<path opacity="0.3" d="M244.742 168.593C243.961 167.812 243.961 166.545 244.742 165.764L252.143 158.363C253.024 157.482 254.488 157.612 255.199 158.635L255.93 159.685C256.483 160.48 256.387 161.557 255.702 162.241L253.247 164.697C252.466 165.478 252.466 166.744 253.247 167.525L254.701 168.979C255.542 169.82 255.468 171.205 254.541 171.951L252.371 173.697C251.575 174.337 250.425 174.275 249.703 173.553L244.742 168.593Z" fill="#1090F9"/>
<path d="M121.889 169.129V66.6372C121.889 58.6545 128.356 52.1875 136.338 52.1875H182.972C190.954 52.1875 197.421 58.6545 197.421 66.6372V169.129C197.421 177.112 190.954 183.579 182.972 183.579H136.338C128.356 183.579 121.889 177.112 121.889 169.129Z" fill="#7CDDFD"/>
<path d="M183.073 184.458H136.238C127.841 184.458 121.01 177.628 121.01 169.231V66.5364C121.01 58.1394 127.841 51.3086 136.238 51.3086H183.073C191.47 51.3086 198.301 58.1394 198.301 66.5364V169.231C198.301 177.628 191.47 184.458 183.073 184.458ZM136.238 53.0567C128.811 53.0567 122.768 59.0993 122.768 66.5263V169.22C122.768 176.647 128.811 182.69 136.238 182.69H183.073C190.5 182.69 196.542 176.647 196.542 169.22V66.5364C196.542 59.1094 190.5 53.0668 183.073 53.0668H136.238V53.0567Z" fill="#054375"/>
<path d="M197.432 66.1523H121.889V165.239H197.432V66.1523Z" fill="white"/>
<path d="M197.422 166.118H121.879C121.394 166.118 121 165.724 121 165.239V66.1526C121 65.6675 121.394 65.2734 121.879 65.2734H197.422C197.907 65.2734 198.301 65.6675 198.301 66.1526V165.239C198.301 165.724 197.917 166.118 197.422 166.118ZM122.768 164.36H196.553V67.0317H122.768V164.36Z" fill="#054375"/>
<path d="M167.228 173.243H153.617C153.132 173.243 152.738 172.849 152.738 172.363C152.738 171.878 153.132 171.484 153.617 171.484H167.228C167.713 171.484 168.108 171.878 168.108 172.363C168.108 172.849 167.713 173.243 167.228 173.243Z" fill="#054375"/>
<g opacity="0.1294">
<path d="M193.06 66.3342C190.483 66.2635 187.907 66.1422 185.33 66.1725C178.398 66.1018 171.456 66.1119 164.514 66.2029C159.058 66.2433 153.601 66.4656 148.144 66.1018C141.455 65.8997 134.766 65.4955 128.066 65.7684C127.127 65.7886 126.187 65.7785 125.247 65.738C124.681 65.6976 124.075 65.6168 123.56 65.9098C121.003 66.89 121.801 70.851 124.55 70.8207C127.814 71.0531 131.098 70.8005 134.362 70.8712C138.262 70.851 142.152 71.1744 146.053 71.2552C160.604 71.3462 175.164 71.4068 189.715 71.1441C191.645 71.1744 193.585 71.134 195.515 71.0935C197.112 71.2754 198.739 70.5176 198.759 68.7189C198.557 65.6168 195.222 66.4454 193.06 66.3342Z" fill="#054375"/>
</g>
<path fill-rule="evenodd" clip-rule="evenodd" d="M152.074 106.222C152.637 106.498 153.157 106.867 153.608 107.32L159.478 113.192C159.904 113.616 160.591 113.616 161.016 113.192L166.865 107.342C167.237 106.968 167.656 106.65 168.108 106.396C168.958 105.917 169.924 105.661 170.915 105.664H171.62L164.191 98.2359C161.878 95.9216 158.128 95.9216 155.814 98.2347L148.411 105.643H149.558C150.438 105.641 151.298 105.843 152.074 106.222ZM154.271 104.022C154.795 104.359 155.285 104.753 155.732 105.201L155.734 105.204L160.247 109.718L164.736 105.228L164.74 105.224C165.11 104.853 165.51 104.518 165.935 104.222L162.07 100.357C160.929 99.2155 159.078 99.2141 157.935 100.356L154.271 104.022Z" fill="#054375"/>
<path fill-rule="evenodd" clip-rule="evenodd" d="M168.118 125.609C167.662 125.355 167.24 125.037 166.865 124.661L161.014 118.807C160.584 118.395 159.907 118.395 159.477 118.807L153.607 124.677C153.156 125.13 152.637 125.499 152.074 125.774C151.298 126.154 150.437 126.356 149.556 126.354H148.411L155.825 133.768C158.14 136.078 161.888 136.078 164.203 133.768L171.632 126.338L170.915 126.333C169.928 126.336 168.965 126.083 168.118 125.609ZM165.943 127.785C165.517 127.489 165.115 127.154 164.743 126.782L164.741 126.78L160.245 122.281L155.733 126.793L155.73 126.796C155.285 127.243 154.796 127.637 154.273 127.973L157.944 131.644C159.088 132.785 160.939 132.786 162.083 131.645L165.943 127.785Z" fill="#054375"/>
<path fill-rule="evenodd" clip-rule="evenodd" d="M173.276 107.321L177.764 111.81L177.766 111.81C180.079 114.125 180.079 117.875 177.765 120.188L173.276 124.677C173.174 124.635 173.067 124.613 172.957 124.613H170.915C169.853 124.61 168.835 124.188 168.082 123.439L162.233 117.591C161.173 116.531 159.323 116.531 158.261 117.591L152.391 123.461C151.639 124.211 150.62 124.633 149.558 124.636H147.042C146.938 124.637 146.837 124.658 146.741 124.697L142.233 120.189C139.922 117.874 139.922 114.126 142.233 111.81L146.75 107.302C146.847 107.34 146.948 107.36 147.052 107.362H149.558C150.62 107.365 151.639 107.787 152.391 108.537L158.263 114.405C159.36 115.5 161.136 115.5 162.233 114.405L168.082 108.56C168.835 107.811 169.853 107.388 170.915 107.386H172.957C173.067 107.384 173.174 107.362 173.276 107.321ZM175.644 113.931C176.786 115.074 176.785 116.925 175.644 118.066L172.097 121.613H170.92C170.651 121.612 170.392 121.504 170.2 121.314L170.198 121.312L164.883 115.998L170.198 110.686L170.2 110.685C170.392 110.494 170.651 110.387 170.92 110.386H172.097L175.644 113.931ZM150.273 110.662L155.612 115.998L150.273 121.336L150.272 121.338C150.082 121.526 149.824 121.634 149.551 121.636H147.923L144.357 118.07L144.355 118.069C143.215 116.925 143.215 115.076 144.355 113.931L144.357 113.93L147.931 110.362H149.553C149.822 110.363 150.081 110.472 150.273 110.662Z" fill="#054375"/>
<g clip-path="url(#clip0_3007_9385)">
<path opacity="0.2" d="M190.358 145.551L205.55 110.978L211.778 113.715L210.411 116.832L221.308 121.62L218.573 127.851L207.671 123.061L205.619 127.731L214.962 131.836L212.226 138.067L202.882 133.959L196.586 148.288C200.02 150.726 202.428 154.35 203.344 158.46C204.261 162.57 203.621 166.874 201.548 170.54C199.475 174.206 196.117 176.972 192.122 178.306C188.128 179.639 183.781 179.443 179.922 177.757C176.054 176.066 172.953 172.998 171.222 169.148C169.491 165.299 169.252 160.943 170.554 156.928C171.855 152.912 174.602 149.524 178.263 147.421C181.923 145.319 186.234 144.652 190.358 145.551ZM196.108 166.287C196.692 165.054 197.022 163.716 197.079 162.353C197.137 160.99 196.92 159.63 196.443 158.352C195.966 157.074 195.237 155.905 194.3 154.913C193.363 153.922 192.237 153.128 190.988 152.579C189.739 152.03 188.393 151.738 187.029 151.718C185.665 151.698 184.31 151.952 183.046 152.465C181.782 152.978 180.634 153.739 179.668 154.703C178.703 155.667 177.941 156.815 177.428 158.079C176.394 160.547 176.371 163.323 177.364 165.808C178.356 168.293 180.286 170.289 182.736 171.365C185.186 172.442 187.961 172.513 190.463 171.564C192.965 170.614 194.994 168.72 196.113 166.289L196.108 166.287Z" fill="#054375"/>
<path d="M202.757 104.514L201.841 104.111L201.439 105.027L186.569 138.868C182.451 138.166 178.206 138.916 174.569 141.005C170.694 143.231 167.785 146.819 166.407 151.07C165.029 155.322 165.282 159.934 167.115 164.01C168.948 168.086 172.231 171.335 176.326 173.125L176.326 173.125C180.412 174.91 185.014 175.117 189.243 173.705C193.473 172.294 197.028 169.364 199.223 165.483C201.418 161.602 202.095 157.045 201.125 152.694C200.214 148.609 197.912 144.977 194.627 142.413L200.2 129.728L208.628 133.434L209.544 133.837L209.947 132.92L212.682 126.689L213.084 125.774L212.169 125.371L203.742 121.669L204.989 118.83L214.975 123.218L215.891 123.621L216.293 122.705L219.029 116.473L219.431 115.558L218.515 115.156L208.533 110.769L209.498 108.568L209.9 107.652L208.985 107.25L202.757 104.514ZM192.009 160.311L191.829 160.691C190.79 162.706 189.041 164.272 186.912 165.08C184.656 165.936 182.153 165.872 179.943 164.901C177.733 163.93 175.992 162.13 175.097 159.888C174.201 157.646 174.222 155.143 175.155 152.916L175.155 152.916L175.159 152.907C175.622 151.767 176.309 150.731 177.18 149.862C178.05 148.992 179.086 148.305 180.227 147.843C181.367 147.381 182.589 147.151 183.819 147.169C185.049 147.187 186.264 147.451 187.39 147.946C188.517 148.441 189.533 149.157 190.378 150.051C191.223 150.945 191.88 152 192.311 153.153C192.742 154.306 192.937 155.533 192.885 156.762C192.833 157.992 192.535 159.198 192.009 160.311Z" fill="#F3CB3F" stroke="#054375" stroke-width="2"/>
</g>
<defs>
<clipPath id="clip0_3007_9385">
<rect width="81.6497" height="81.6497" fill="white" transform="translate(147.955 103.885) rotate(-6.27906)"/>
</clipPath>
</defs>
</svg>
