<svg width="320" height="248" viewBox="0 0 320 248" fill="none" xmlns="http://www.w3.org/2000/svg">
<defs>
<clipPath id="clip0_1960_8499">
<rect width="81.6497" height="81.6497" fill="white" transform="translate(147.955 103.885) rotate(-6.27906)"/>
</clipPath>
</defs>

<path opacity="0.3" d="M254.679 129.137C256.232 127.566 256.232 125.02 254.679 123.449L145.393 12.9292C143.685 11.2019 140.861 11.4003 139.406 13.3499L99.1416 67.2889C97.9461 68.8903 98.1006 71.1378 99.5036 72.5566L149.71 123.329C151.263 124.9 151.263 127.447 149.71 129.018L93.1061 186.26C91.3988 187.987 91.5941 190.841 93.5202 192.314L146.962 233.164C148.546 234.375 150.77 234.219 152.173 232.8L254.679 129.137Z" fill="#1090F9"/>
<path opacity="0.3" d="M253.888 132.632C255.053 133.81 255.053 135.72 253.888 136.898L151.383 240.561C150.33 241.625 148.662 241.742 147.474 240.834L94.0323 199.984C92.5877 198.879 92.4412 196.739 93.7217 195.444L150.326 138.201C152.267 136.238 152.267 133.054 150.326 131.091L100.119 80.3177C99.0669 79.2536 98.9511 77.568 99.8477 76.3669L140.112 22.428C141.203 20.9658 143.321 20.8169 144.602 22.1124L253.888 132.632Z" stroke="#05BDFB" stroke-width="2"/>
<path opacity="0.3" d="M196.259 26.6185C197.364 26.6185 198.259 27.514 198.259 28.6185L198.259 31.3717C198.259 32.2622 197.472 32.9472 196.59 32.8243C195.865 32.7233 195.326 32.1035 195.326 31.3717L195.326 31.1828C195.326 30.282 194.596 29.5517 193.695 29.5517L193.506 29.5517C192.615 29.5517 191.93 28.7647 192.053 27.8827C192.154 27.1579 192.774 26.6185 193.506 26.6185L196.259 26.6185Z" fill="#1090F9"/>
<path opacity="0.3" d="M246.27 71.3224C246.823 72.279 246.495 73.5022 245.538 74.0545L241.454 76.4123C240.403 77.0194 239.057 76.557 238.601 75.4316L238.561 75.3319C238.186 74.4071 238.55 73.3475 239.414 72.8485L239.929 72.5514C240.885 71.9991 241.213 70.7759 240.661 69.8193L240.356 69.2918C239.749 68.2402 240.212 66.8945 241.337 66.4383L241.437 66.3979C242.361 66.023 243.421 66.3872 243.92 67.2514L246.27 71.3224Z" fill="#1090F9"/>
<path opacity="0.3" d="M148.408 211.678C148.96 212.634 148.633 213.857 147.676 214.41L143.592 216.767C142.54 217.375 141.195 216.912 140.739 215.787L140.698 215.687C140.323 214.762 140.688 213.703 141.552 213.204L142.066 212.906C143.023 212.354 143.351 211.131 142.798 210.174L142.494 209.647C141.887 208.595 142.349 207.25 143.475 206.793L143.574 206.753C144.499 206.378 145.559 206.742 146.058 207.607L148.408 211.678Z" fill="#1090F9"/>
<path opacity="0.3" d="M244.741 168.593C243.96 167.812 243.96 166.545 244.741 165.764L252.143 158.363C253.024 157.482 254.487 157.612 255.199 158.635L255.929 159.685C256.482 160.48 256.386 161.557 255.702 162.241L253.246 164.696C252.465 165.478 252.465 166.744 253.246 167.525L254.7 168.979C255.542 169.82 255.467 171.205 254.54 171.951L252.37 173.697C251.574 174.337 250.424 174.275 249.702 173.553L244.741 168.593Z" fill="#1090F9"/>
<path d="M121.889 169.13V66.6377C121.889 58.655 128.356 52.188 136.339 52.188H182.972C190.955 52.188 197.422 58.655 197.422 66.6377V169.13C197.422 177.113 190.955 183.58 182.972 183.58H136.339C128.356 183.58 121.889 177.113 121.889 169.13Z" fill="#7CDDFD"/>
<path d="M183.073 184.459H136.238C127.841 184.459 121.01 177.628 121.01 169.231V66.5366C121.01 58.1396 127.841 51.3088 136.238 51.3088H183.073C191.47 51.3088 198.301 58.1396 198.301 66.5366V169.231C198.301 177.628 191.47 184.459 183.073 184.459ZM136.238 53.0569C128.811 53.0569 122.768 59.0996 122.768 66.5265V169.221C122.768 176.648 128.811 182.69 136.238 182.69H183.073C190.5 182.69 196.543 176.648 196.543 169.221V66.5366C196.543 59.1097 190.5 53.067 183.073 53.067H136.238V53.0569Z" fill="#054375"/>
<path d="M197.432 66.1527H121.889V165.24H197.432V66.1527Z" fill="white"/>
<path d="M197.422 166.119H121.879C121.394 166.119 121 165.725 121 165.239V66.1527C121 65.6677 121.394 65.2736 121.879 65.2736H197.422C197.907 65.2736 198.301 65.6677 198.301 66.1527V165.239C198.301 165.725 197.917 166.119 197.422 166.119ZM122.768 164.36H196.553V67.0318H122.768V164.36Z" fill="#054375"/>
<path d="M167.229 173.242H153.618C153.133 173.242 152.739 172.848 152.739 172.363C152.739 171.878 153.133 171.484 153.618 171.484H167.229C167.714 171.484 168.108 171.878 168.108 172.363C168.108 172.848 167.714 173.242 167.229 173.242Z" fill="#054375"/>
<g opacity="0.1294">
<path d="M193.06 66.3346C190.484 66.2639 187.907 66.1426 185.33 66.1729C178.399 66.1022 171.457 66.1123 164.515 66.2032C159.058 66.2436 153.602 66.466 148.145 66.1022C141.456 65.9001 134.766 65.4959 128.067 65.7687C127.127 65.7889 126.187 65.7788 125.248 65.7384C124.682 65.698 124.076 65.6172 123.56 65.9102C121.004 66.8903 121.802 70.8514 124.551 70.8211C127.814 71.0535 131.098 70.8009 134.362 70.8716C138.263 70.8514 142.153 71.1747 146.053 71.2556C160.604 71.3465 175.165 71.4071 189.716 71.1444C191.646 71.1747 193.586 71.1343 195.516 71.0939C197.112 71.2758 198.739 70.5179 198.76 68.7193C198.557 65.6172 195.223 66.4457 193.06 66.3346Z" fill="#054375"/>
</g>
<path fill-rule="evenodd" clip-rule="evenodd" d="M152.073 106.222C152.637 106.498 153.156 106.867 153.607 107.32L159.478 113.192C159.903 113.616 160.59 113.616 161.015 113.192L166.864 107.343C167.237 106.968 167.656 106.65 168.108 106.396C168.957 105.918 169.923 105.661 170.915 105.665H171.619L164.191 98.236C161.877 95.9217 158.127 95.9217 155.813 98.2348L148.41 105.644H149.557C150.437 105.641 151.297 105.843 152.073 106.222ZM154.271 104.023C154.795 104.359 155.285 104.753 155.731 105.201L155.734 105.204L160.247 109.718L164.736 105.229L164.74 105.225C165.11 104.853 165.51 104.518 165.934 104.222L162.069 100.357C160.928 99.2156 159.077 99.2142 157.934 100.356L154.271 104.023Z" fill="#054375"/>
<path fill-rule="evenodd" clip-rule="evenodd" d="M168.117 125.609C167.662 125.355 167.24 125.037 166.864 124.661L161.014 118.807C160.584 118.395 159.907 118.395 159.477 118.807L153.606 124.677C153.155 125.13 152.637 125.499 152.074 125.774C151.297 126.154 150.437 126.356 149.556 126.354H148.41L155.824 133.768C158.14 136.078 161.887 136.078 164.203 133.768L171.632 126.338L170.915 126.333C169.927 126.336 168.965 126.083 168.117 125.609ZM165.943 127.785C165.516 127.489 165.114 127.154 164.742 126.782L164.741 126.78L160.245 122.281L155.732 126.794L155.73 126.796C155.284 127.243 154.795 127.637 154.272 127.973L157.943 131.644C159.087 132.785 160.938 132.786 162.083 131.645L165.943 127.785Z" fill="#054375"/>
<path fill-rule="evenodd" clip-rule="evenodd" d="M173.275 107.322L177.763 111.81L177.765 111.811C180.078 114.125 180.078 117.875 177.764 120.188L173.275 124.677C173.174 124.635 173.066 124.613 172.956 124.613H170.915C169.852 124.61 168.834 124.188 168.082 123.439L162.232 117.591C161.172 116.531 159.322 116.531 158.261 117.591L152.39 123.461C151.638 124.211 150.62 124.633 149.557 124.636H147.041C146.938 124.638 146.836 124.659 146.74 124.697L142.232 120.189C139.922 117.874 139.922 114.126 142.232 111.811L146.75 107.302C146.846 107.34 146.948 107.36 147.051 107.362H149.557C150.62 107.365 151.638 107.787 152.39 108.537L158.262 114.405C159.359 115.5 161.135 115.5 162.232 114.405L168.082 108.56C168.834 107.811 169.852 107.388 170.915 107.386H172.956C173.066 107.385 173.174 107.362 173.275 107.322ZM175.643 113.931C176.785 115.074 176.785 116.925 175.643 118.066L172.097 121.613H170.92C170.651 121.612 170.392 121.505 170.199 121.314L170.198 121.312L164.882 115.998L170.198 110.686L170.199 110.685C170.392 110.494 170.651 110.387 170.92 110.386H172.097L175.643 113.931ZM150.273 110.662L155.611 115.998L150.273 121.336L150.271 121.338C150.082 121.526 149.824 121.634 149.55 121.636H147.922L144.356 118.07L144.355 118.069C143.215 116.925 143.214 115.076 144.354 113.931L144.356 113.93L147.93 110.362H149.553C149.822 110.364 150.081 110.472 150.273 110.662Z" fill="#054375"/>
<g clip-path="url(#clip0_1960_8499)">
<path opacity="0.2" d="M190.357 145.552L205.549 110.979L211.777 113.716L210.41 116.832L221.308 121.621L218.572 127.852L207.67 123.062L205.619 127.731L214.961 131.837L212.226 138.068L202.882 133.96L196.586 148.289C200.019 150.726 202.427 154.351 203.344 158.461C204.26 162.571 203.62 166.875 201.547 170.541C199.474 174.206 196.116 176.973 192.122 178.306C188.127 179.64 183.78 179.444 179.921 177.758C176.054 176.067 172.953 172.999 171.221 169.149C169.49 165.3 169.252 160.944 170.553 156.928C171.854 152.913 174.602 149.525 178.262 147.422C181.922 145.32 186.233 144.653 190.357 145.552ZM196.108 166.288C196.691 165.055 197.021 163.717 197.079 162.354C197.136 160.991 196.92 159.631 196.442 158.353C195.965 157.075 195.236 155.905 194.299 154.914C193.362 153.922 192.236 153.129 190.987 152.58C189.738 152.031 188.392 151.738 187.028 151.719C185.664 151.699 184.31 151.953 183.046 152.466C181.781 152.979 180.633 153.74 179.668 154.704C178.703 155.668 177.941 156.816 177.427 158.08C176.393 160.548 176.37 163.324 177.363 165.809C178.356 168.294 180.285 170.29 182.735 171.366C185.185 172.443 187.96 172.514 190.462 171.565C192.964 170.615 194.993 168.721 196.112 166.29L196.108 166.288Z" fill="#054375"/>
<path d="M202.756 104.514L201.84 104.112L201.438 105.028L186.568 138.869C182.45 138.167 178.205 138.917 174.568 141.006C170.693 143.232 167.784 146.82 166.406 151.071C165.028 155.323 165.281 159.935 167.114 164.011C168.947 168.086 172.23 171.335 176.325 173.125L176.325 173.125C180.411 174.911 185.013 175.117 189.242 173.706C193.472 172.295 197.027 169.365 199.222 165.484C201.417 161.603 202.094 157.046 201.124 152.694C200.213 148.61 197.911 144.978 194.626 142.413L200.199 129.729L208.627 133.435L209.543 133.837L209.946 132.921L212.681 126.69L213.083 125.774L212.168 125.372L203.741 121.669L204.988 118.831L214.974 123.219L215.89 123.621L216.292 122.705L219.028 116.474L219.43 115.558L218.514 115.156L208.532 110.77L209.497 108.568L209.899 107.653L208.984 107.251L202.756 104.514ZM192.008 160.311L191.828 160.692C190.789 162.707 189.04 164.273 186.912 165.081C184.655 165.937 182.152 165.873 179.942 164.902C177.732 163.931 175.992 162.131 175.096 159.889C174.2 157.647 174.221 155.143 175.154 152.917L175.154 152.917L175.158 152.907C175.621 151.767 176.308 150.732 177.179 149.862C178.049 148.993 179.085 148.306 180.226 147.844C181.366 147.381 182.588 147.152 183.818 147.17C185.048 147.187 186.263 147.452 187.389 147.947C188.516 148.442 189.532 149.157 190.377 150.052C191.222 150.946 191.879 152.001 192.31 153.154C192.741 154.306 192.936 155.534 192.884 156.763C192.832 157.993 192.534 159.199 192.008 160.311Z" fill="#F3CB3F" stroke="#054375" stroke-width="2"/>
</g>

</svg>
