<svg width="209" height="160" viewBox="0 0 209 160" fill="none" xmlns="http://www.w3.org/2000/svg">
<path opacity="0.3" d="M165.497 83.835C166.505 82.8152 166.505 81.1618 165.497 80.142L94.5486 8.39344C93.4398 7.2721 91.6067 7.40093 90.6619 8.6666L64.5227 43.6834C63.7466 44.723 63.8469 46.1821 64.7577 47.1032L97.3514 80.0646C98.3597 81.0844 98.3598 82.7377 97.3514 83.7575L60.6045 120.919C59.4961 122.04 59.6229 123.893 60.8734 124.849L95.5677 151.369C96.5957 152.155 98.0393 152.054 98.9505 151.132L165.497 83.835Z" fill="#1090F9"/>
<path opacity="0.3" d="M164.984 86.104C165.74 86.8689 165.74 88.1089 164.984 88.8737L98.4374 156.171C97.754 156.862 96.6713 156.938 95.9003 156.348L61.206 129.828C60.2681 129.111 60.173 127.722 61.0043 126.881L97.7512 89.7195C99.0117 88.4448 99.0117 86.3781 97.7512 85.1033L65.1575 52.1419C64.4744 51.4511 64.3992 50.3568 64.9813 49.5771L91.1205 14.5603C91.8291 13.611 93.2039 13.5144 94.0355 14.3554L164.984 86.104Z" stroke="#05BDFB" stroke-width="1.29839"/>
<path opacity="0.3" d="M127.571 17.2802C128.288 17.2802 128.869 17.8615 128.869 18.5786L128.869 20.3659C128.869 20.944 128.358 21.3887 127.786 21.3089C127.315 21.2434 126.965 20.841 126.965 20.3659L126.965 20.2433C126.965 19.6585 126.491 19.1844 125.906 19.1844L125.783 19.1844C125.205 19.1844 124.761 18.6735 124.84 18.1009C124.906 17.6304 125.308 17.2802 125.783 17.2802L127.571 17.2802Z" fill="#1090F9"/>
<path opacity="0.3" d="M160.038 46.3017C160.397 46.9227 160.184 47.7167 159.563 48.0753L156.912 49.606C156.229 50.0001 155.356 49.6999 155.059 48.9693L155.033 48.9046C154.79 48.3042 155.026 47.6163 155.587 47.2924L155.921 47.0995C156.542 46.741 156.755 45.9469 156.397 45.3259L156.199 44.9834C155.805 44.3007 156.105 43.4271 156.836 43.1309L156.9 43.1047C157.501 42.8613 158.189 43.0978 158.512 43.6588L160.038 46.3017Z" fill="#1090F9"/>
<path opacity="0.3" d="M96.5061 137.42C96.8646 138.041 96.6519 138.835 96.0309 139.193L93.3797 140.724C92.6969 141.118 91.8234 140.818 91.5272 140.087L91.501 140.022C91.2576 139.422 91.494 138.734 92.055 138.41L92.3892 138.217C93.0102 137.859 93.2229 137.065 92.8644 136.444L92.6667 136.101C92.2725 135.419 92.5727 134.545 93.3033 134.249L93.368 134.223C93.9684 133.979 94.6563 134.216 94.9802 134.777L96.5061 137.42Z" fill="#1090F9"/>
<path opacity="0.3" d="M159.045 109.449C158.538 108.942 158.538 108.12 159.045 107.613L163.85 102.808C164.422 102.236 165.372 102.321 165.834 102.985L166.308 103.666C166.667 104.182 166.605 104.881 166.16 105.326L164.566 106.92C164.059 107.427 164.059 108.249 164.566 108.756L165.51 109.7C166.056 110.246 166.008 111.145 165.406 111.63L163.997 112.763C163.481 113.179 162.734 113.138 162.265 112.67L159.045 109.449Z" fill="#1090F9"/>
<path d="M59.8096 116.806V43.1939C59.8096 37.4605 64.4543 32.8158 70.1877 32.8158H103.681C109.414 32.8158 114.059 37.4605 114.059 43.1939V116.806C114.059 122.539 109.414 127.184 103.681 127.184H70.1877C64.4543 127.184 59.8096 122.539 59.8096 116.806Z" fill="#7CDDFD"/>
<path d="M103.754 127.816H70.1156C64.0847 127.816 59.1787 122.91 59.1787 116.879V43.1215C59.1787 37.0906 64.0847 32.1846 70.1156 32.1846H103.754C109.785 32.1846 114.691 37.0906 114.691 43.1215V116.879C114.691 122.91 109.785 127.816 103.754 127.816ZM70.1156 33.4401C64.7814 33.4401 60.4415 37.78 60.4415 43.1142V116.871C60.4415 122.206 64.7814 126.546 70.1156 126.546H103.754C109.088 126.546 113.428 122.206 113.428 116.871V43.1215C113.428 37.7873 109.088 33.4474 103.754 33.4474H70.1156V33.4401Z" fill="#054375"/>
<path d="M114.067 42.8456H59.8105V114.012H114.067V42.8456Z" fill="white"/>
<path d="M114.06 114.644H59.8033C59.4549 114.644 59.1719 114.361 59.1719 114.013V42.8462C59.1719 42.4979 59.4549 42.2148 59.8033 42.2148H114.06C114.408 42.2148 114.691 42.4979 114.691 42.8462V114.013C114.691 114.361 114.415 114.644 114.06 114.644ZM60.4419 113.381H113.436V43.4776H60.4419V113.381Z" fill="#054375"/>
<path d="M92.3749 119.761H82.5992C82.2508 119.761 81.9678 119.478 81.9678 119.129C81.9678 118.781 82.2508 118.498 82.5992 118.498H92.3749C92.7232 118.498 93.0063 118.781 93.0063 119.129C93.0063 119.478 92.7232 119.761 92.3749 119.761Z" fill="#054375"/>
<g opacity="0.1294">
<path d="M110.927 42.9767C109.077 42.9259 107.226 42.8388 105.375 42.8605C100.397 42.8097 95.4108 42.817 90.425 42.8823C86.506 42.9113 82.587 43.071 78.6679 42.8097C73.8635 42.6646 69.0591 42.3743 64.2475 42.5702C63.5725 42.5848 62.8976 42.5775 62.2227 42.5485C61.8162 42.5194 61.3808 42.4614 61.0107 42.6719C59.1745 43.3758 59.7479 46.2207 61.7219 46.199C64.066 46.3659 66.4247 46.1844 68.7689 46.2352C71.5702 46.2207 74.3643 46.453 77.1657 46.511C87.6164 46.5763 98.0743 46.6199 108.525 46.4312C109.911 46.453 111.305 46.4239 112.691 46.3949C113.837 46.5255 115.006 45.9812 115.02 44.6894C114.875 42.4614 112.48 43.0565 110.927 42.9767Z" fill="#054375"/>
</g>
<g opacity="0.14">
<path fill-rule="evenodd" clip-rule="evenodd" d="M81.8939 72.0699C82.3704 72.2797 82.8086 72.5779 83.1833 72.9543L87.5305 77.3024C87.8452 77.6162 88.354 77.6162 88.6687 77.3024L93.0003 72.9707C93.3156 72.6533 93.6762 72.3914 94.0669 72.1912C94.6595 71.8876 95.3215 71.726 95.9997 71.7282C96.1922 71.7282 96.2886 71.4955 96.1525 71.3594L91.0203 66.2272C89.3074 64.5134 86.5304 64.5134 84.8166 66.2263L79.935 71.1119C79.7134 71.3337 79.8705 71.7126 80.1839 71.7126C80.7784 71.7112 81.3602 71.8351 81.8939 72.0699ZM83.4209 70.5416C83.8627 70.8061 84.2739 71.1261 84.6436 71.4973L84.6453 71.499L87.3926 74.2468C87.7831 74.6374 88.4163 74.6374 88.8069 74.2469L91.5366 71.5171L91.5396 71.5142C91.5596 71.494 91.5798 71.4739 91.6002 71.4541C92.0541 71.0098 92.1374 70.2617 91.6883 69.8126L89.5616 67.6858C88.6546 66.7783 87.1834 66.7774 86.2749 67.6852L86.2733 67.6869L83.4209 70.5416Z" fill="#054375"/>
<path fill-rule="evenodd" clip-rule="evenodd" d="M94.0746 86.5757C93.6811 86.3758 93.3178 86.1136 93.0003 85.7954L88.6678 81.4601C88.3494 81.1554 87.848 81.1554 87.5295 81.4601L83.1824 85.8073C82.808 86.1833 82.3703 86.4813 81.8942 86.691C81.3602 86.9263 80.778 87.0504 80.183 87.0489C79.87 87.0489 79.7132 87.4274 79.9346 87.6487L84.8248 92.5389C86.5395 94.25 89.3147 94.25 91.0294 92.5389L96.1552 87.4123C96.2945 87.273 96.1967 87.0347 95.9997 87.0334C95.3247 87.0356 94.6655 86.8759 94.0746 86.5757ZM91.6929 88.9577C92.1427 88.5079 92.0583 87.7584 91.6028 87.3144C91.5819 87.294 91.5611 87.2735 91.5404 87.2528L88.8055 84.5162C88.415 84.1254 87.7817 84.1253 87.3911 84.5159L84.6444 87.2626L84.6425 87.2645C84.5784 87.3288 84.5131 87.3916 84.4466 87.4528C83.9678 87.8936 83.868 88.6648 84.3282 89.125L86.2819 91.0787C87.1912 91.9852 88.6622 91.986 89.5715 91.0795L91.6929 88.9577Z" fill="#054375"/>
<path fill-rule="evenodd" clip-rule="evenodd" d="M97.5114 73.0028C97.6582 73.0011 97.8148 73.0226 97.9187 73.1265L101.071 76.2789C102.784 77.9927 102.785 80.7702 101.072 82.4831L97.9188 85.6359C97.8151 85.7396 97.6581 85.7597 97.5114 85.7597H95.9998C95.2129 85.7579 94.4589 85.445 93.9017 84.8905L89.5701 80.5598C88.785 79.7747 87.4152 79.7747 86.6292 80.5598L82.2821 84.9069C81.7248 85.4623 80.9709 85.7744 80.184 85.7771H78.321C78.1821 85.7788 78.0341 85.7583 77.9358 85.66L74.7599 82.484C73.0488 80.7693 73.0488 77.9941 74.7599 76.2794L77.9431 73.1023C78.0414 73.0041 78.1894 72.9821 78.3284 72.9854H80.184C80.9709 72.9872 81.7248 73.3001 82.2821 73.8555L86.6302 78.2009C87.4427 79.0116 88.7575 79.0116 89.5701 78.2009L93.9017 73.872C94.4589 73.3175 95.2129 73.0046 95.9998 73.0028H97.5114ZM99.6134 77.7376C100.521 78.646 100.521 80.117 99.6133 81.024L97.2334 83.4039C97.0459 83.5915 96.7915 83.6968 96.5263 83.6968H96.0028C95.7616 83.6958 95.5297 83.5998 95.3577 83.4292L92.0156 80.0877C91.6249 79.6971 91.6249 79.0637 92.0157 78.6732L95.3567 75.3343C95.5287 75.1637 95.7617 75.0666 96.0029 75.0656H96.5264C96.7916 75.0656 97.0459 75.1709 97.2334 75.3584L99.6134 77.7376ZM80.8258 75.3166L84.1842 78.6728C84.5749 79.0633 84.575 79.6967 84.1844 80.0873L80.8258 83.4459C80.6556 83.6151 80.4235 83.7127 80.1794 83.7142H79.3216C79.0564 83.7142 78.8021 83.6089 78.6145 83.4213L76.2201 81.0269C75.3136 80.1178 75.3127 78.6471 76.2188 77.7378L78.6207 75.3405C78.8082 75.1533 79.0623 75.0482 79.3271 75.0482H80.1809C80.4221 75.0493 80.6542 75.1458 80.8258 75.3166Z" fill="#054375"/>
</g>
<path fill-rule="evenodd" clip-rule="evenodd" d="M80.4251 70.6011C80.9017 70.8109 81.3399 71.1091 81.7145 71.4855L86.0617 75.8335C86.3765 76.1474 86.8852 76.1474 87.2 75.8335L91.5316 71.5019C91.8468 71.1845 92.2074 70.9226 92.5982 70.7224C93.1908 70.4188 93.8527 70.2571 94.531 70.2594H95.0525L89.5515 64.7584C87.8386 63.0446 85.0616 63.0446 83.3478 64.7574L77.866 70.2438H78.7152C79.3097 70.2423 79.8915 70.3663 80.4251 70.6011ZM81.9522 69.0728C82.394 69.3373 82.8052 69.6573 83.1749 70.0285L83.1766 70.0301L86.6309 73.4852L90.0679 70.0483L90.0708 70.0454C90.3833 69.7312 90.7255 69.4535 91.091 69.2151L88.0929 66.217C87.1858 65.3095 85.7146 65.3086 84.8062 66.2164L84.8045 66.2181L81.9522 69.0728Z" fill="#05BDFB"/>
<path fill-rule="evenodd" clip-rule="evenodd" d="M92.6058 85.1069C92.2123 84.907 91.8491 84.6448 91.5316 84.3266L87.1991 79.9913C86.8806 79.6866 86.3792 79.6866 86.0608 79.9913L81.7136 84.3385C81.3393 84.7145 80.9015 85.0125 80.4255 85.2222C79.8915 85.4575 79.3093 85.5816 78.7142 85.5801H77.866L83.356 91.0701C85.0708 92.7812 87.846 92.7812 89.5607 91.0701L95.0617 85.5682L94.531 85.5646C93.8559 85.5668 93.1967 85.4071 92.6058 85.1069ZM91.0976 86.6154C90.7301 86.3769 90.3859 86.0989 90.0717 85.784L86.6296 82.3398L83.1756 85.7938L83.1738 85.7957C82.8046 86.1662 82.3942 86.4858 81.9532 86.75L84.8132 89.6099C85.7224 90.5164 87.1935 90.5172 88.1028 89.6107L91.0976 86.6154Z" fill="#05BDFB"/>
<path fill-rule="evenodd" clip-rule="evenodd" d="M96.2787 71.4864L99.6024 74.8101C101.315 76.5239 101.317 79.3014 99.6029 81.0143L96.2787 84.3385C96.2036 84.3074 96.124 84.2909 96.0426 84.2909H94.531C93.7441 84.2891 92.9902 83.9761 92.4329 83.4216L88.1013 79.0909C87.3162 78.3059 85.9465 78.3059 85.1605 79.0909L80.8133 83.4381C80.2561 83.9935 79.5021 84.3055 78.7152 84.3083H76.8523C76.7754 84.3092 76.7004 84.3248 76.629 84.3531L73.2911 81.0152C71.58 79.3005 71.58 76.5253 73.2911 74.8106L76.6363 71.4717C76.7077 71.5001 76.7827 71.5147 76.8596 71.5166H78.7152C79.5021 71.5184 80.2561 71.8313 80.8133 72.3867L85.1614 76.7321C85.9739 77.5428 87.2888 77.5428 88.1013 76.7321L92.4329 72.4032C92.9902 71.8487 93.7441 71.5358 94.531 71.534H96.0426C96.124 71.533 96.2036 71.5166 96.2787 71.4864ZM98.1447 76.2688C99.0526 77.1772 99.0521 78.6482 98.1446 79.5552L95.4718 82.228H94.534C94.2929 82.227 94.061 82.131 93.889 81.9604L89.8393 77.9116L93.888 73.8655C94.06 73.6949 94.293 73.5978 94.5341 73.5968H95.4718L98.1447 76.2688ZM79.3571 73.8478L83.423 77.9111L79.3571 81.9771C79.1868 82.1463 78.9548 82.2439 78.7107 82.2454H77.4387L74.7513 79.5581C73.8448 78.649 73.844 77.1783 74.7501 76.269L77.4447 73.5794H78.7122C78.9534 73.5805 79.1854 73.677 79.3571 73.8478Z" fill="#05BDFB"/>
<path d="M124.99 47.1811C111.99 47.1811 101.454 58.1268 101.454 71.6293C101.454 77.2171 103.264 82.3596 106.295 86.475L103.415 98.3041L113.29 92.8384C116.738 94.8925 120.731 96.0776 124.99 96.0776C137.99 96.0776 148.526 85.1319 148.526 71.6293C148.526 58.1268 137.99 47.1811 124.99 47.1811Z" fill="white"/>
<path d="M103.415 98.9293C103.278 98.9293 103.149 98.8862 103.034 98.8C102.84 98.6492 102.747 98.3978 102.804 98.1536L105.62 86.6046C102.488 82.245 100.829 77.0738 100.829 71.6225C100.829 57.7967 111.667 46.5494 124.99 46.5494C138.313 46.5494 149.151 57.7967 149.151 71.6225C149.151 85.4482 138.313 96.6956 124.99 96.6956C120.896 96.6956 116.853 95.6111 113.276 93.5498L103.709 98.8431C103.623 98.9077 103.515 98.9293 103.415 98.9293ZM124.99 47.8063C112.357 47.8063 102.079 58.4934 102.079 71.6297C102.079 76.9086 103.709 81.9146 106.798 86.1018C106.905 86.2527 106.948 86.4394 106.898 86.6189L104.356 97.0619L112.981 92.2857C113.175 92.178 113.412 92.178 113.606 92.2929C117.061 94.3542 120.997 95.4459 124.99 95.4459C137.624 95.4459 147.901 84.7588 147.901 71.6225C147.901 58.4862 137.624 47.8063 124.99 47.8063Z" fill="#054375"/>
<path opacity="0.1" d="M124.294 96.0493C124.014 95.9631 123.741 95.999 123.468 96.0637C123.368 96.0708 123.26 96.0708 123.159 96.0708C121.981 95.8625 121.191 95.8554 118.8 94.9863C118.742 94.9648 118.692 94.9432 118.634 94.9217C118.534 94.8714 118.103 94.6631 117.923 94.5841C117.126 94.2178 116.286 93.9664 115.446 93.6935C114.756 93.4852 114.117 93.083 113.377 93.0471C113.054 93.0687 112.709 93.1333 112.443 93.32C112.221 93.4493 111.991 93.5642 111.761 93.6792C110.009 94.5051 108.278 95.3885 106.59 96.3366C105.886 96.746 105.161 97.1051 104.414 97.4211C104.069 97.5863 103.66 97.6796 103.451 98.0244C102.647 98.9724 103.66 100.481 104.852 100.114C107.746 98.9365 110.483 97.4139 113.312 96.0924C115.065 96.9183 116.99 97.2559 118.778 98.0028C120.279 98.4481 121.845 99.0802 123.432 98.8216C123.31 98.836 123.181 98.8575 123.059 98.8719C123.583 98.8647 124.165 98.9509 124.639 98.6708C125.723 98.0603 125.508 96.3653 124.294 96.0493Z" fill="#054375"/>
<path fill-rule="evenodd" clip-rule="evenodd" d="M128.983 63.532C127.868 63.3103 126.713 63.4241 125.663 63.859C124.613 64.2939 123.716 65.0303 123.085 65.9752C122.453 66.9201 122.116 68.031 122.116 69.1674V69.1701C122.114 69.901 122.254 70.6254 122.53 71.3023C122.639 71.57 122.577 71.8769 122.373 72.0813L117.089 77.3653V79.9407H119.243V78.5043C119.243 78.1076 119.565 77.786 119.962 77.786H121.398V76.3496C121.398 75.9529 121.72 75.6314 122.116 75.6314H123.974L124.948 74.6567C125.163 74.4421 125.479 74.3917 125.742 74.5053C126.414 74.7774 127.134 74.9159 127.859 74.9132L127.862 74.9132C128.999 74.9132 130.109 74.5762 131.054 73.9448C131.999 73.3135 132.736 72.4161 133.171 71.3662C133.605 70.3163 133.719 69.161 133.497 68.0464C133.276 66.9319 132.729 65.9081 131.925 65.1045C131.121 64.301 130.098 63.7537 128.983 63.532ZM125.639 75.9969L124.779 76.8575C124.644 76.9921 124.461 77.0678 124.271 77.0678H122.835V78.5043C122.835 78.9009 122.513 79.2225 122.116 79.2225H120.68V80.6589C120.68 81.0556 120.358 81.3771 119.962 81.3771H116.371C115.974 81.3771 115.652 81.0556 115.652 80.6589V77.0678C115.652 76.8773 115.728 76.6947 115.863 76.56L121.033 71.39C120.797 70.6735 120.677 69.9226 120.68 69.1661C120.68 67.746 121.101 66.3579 121.89 65.1772C122.68 63.9961 123.801 63.0755 125.114 62.5319C126.426 61.9883 127.87 61.846 129.263 62.1232C130.656 62.4003 131.936 63.0843 132.941 64.0888C133.945 65.0932 134.629 66.373 134.906 67.7662C135.183 69.1594 135.041 70.6035 134.498 71.9159C133.954 73.2283 133.033 74.35 131.852 75.1392C130.672 75.9281 129.283 76.3493 127.863 76.3496C127.863 76.3496 127.863 76.3496 127.862 76.3496V75.6314L127.865 76.3496C127.864 76.3496 127.864 76.3496 127.863 76.3496C127.107 76.3523 126.356 76.2329 125.639 75.9969Z" fill="#EEB412"/>
<path d="M129.658 68.4492C130.253 68.4492 130.735 67.9668 130.735 67.3718C130.735 66.7768 130.253 66.2945 129.658 66.2945C129.063 66.2945 128.58 66.7768 128.58 67.3718C128.58 67.9668 129.063 68.4492 129.658 68.4492Z" fill="#EEB412"/>
</svg>
