<svg width="320" height="248" viewBox="0 0 320 248" fill="none" xmlns="http://www.w3.org/2000/svg">
<path opacity="0.3" d="M254.679 129.137C256.232 127.566 256.232 125.02 254.679 123.449L145.393 12.9292C143.685 11.2019 140.861 11.4004 139.406 13.35L99.1415 67.2889C97.946 68.8903 98.1005 71.1378 99.5035 72.5566L149.71 123.329C151.263 124.9 151.263 127.447 149.71 129.018L93.106 186.261C91.3987 187.987 91.5939 190.841 93.5201 192.314L146.962 233.164C148.546 234.375 150.77 234.219 152.173 232.8L254.679 129.137Z" fill="#1090F9"/>
<path opacity="0.3" d="M253.889 132.632C255.054 133.811 255.054 135.721 253.889 136.899L151.383 240.561C150.33 241.626 148.663 241.743 147.475 240.835L94.0328 199.984C92.5882 198.88 92.4417 196.739 93.7222 195.444L150.326 138.202C152.268 136.238 152.268 133.055 150.326 131.091L100.12 80.3182C99.0674 79.2541 98.9516 77.5685 99.8482 76.3674L140.112 22.4285C141.204 20.9663 143.322 20.8174 144.603 22.1129L253.889 132.632Z" stroke="#05BDFB" stroke-width="2"/>
<path opacity="0.3" d="M196.259 26.6182C197.363 26.6182 198.259 27.5136 198.259 28.6182L198.259 31.3713C198.259 32.2618 197.472 32.9468 196.59 32.8239C195.865 32.7229 195.325 32.1031 195.325 31.3713L195.325 31.1824C195.325 30.2816 194.595 29.5514 193.694 29.5514L193.505 29.5514C192.615 29.5514 191.93 28.7643 192.053 27.8823C192.154 27.1576 192.774 26.6182 193.505 26.6182L196.259 26.6182Z" fill="#1090F9"/>
<path opacity="0.3" d="M246.27 71.322C246.823 72.2786 246.495 73.5018 245.538 74.0541L241.455 76.4119C240.403 77.0191 239.057 76.5566 238.601 75.4312L238.561 75.3316C238.186 74.4067 238.55 73.3471 239.414 72.8481L239.929 72.551C240.885 71.9987 241.213 70.7755 240.661 69.819L240.356 69.2915C239.749 68.2398 240.212 66.8942 241.337 66.438L241.437 66.3976C242.361 66.0227 243.421 66.3868 243.92 67.2511L246.27 71.322Z" fill="#1090F9"/>
<path opacity="0.3" d="M148.408 211.678C148.96 212.634 148.633 213.857 147.676 214.41L143.592 216.767C142.541 217.375 141.195 216.912 140.739 215.787L140.698 215.687C140.324 214.762 140.688 213.703 141.552 213.204L142.067 212.906C143.023 212.354 143.351 211.131 142.799 210.174L142.494 209.647C141.887 208.595 142.349 207.25 143.475 206.793L143.574 206.753C144.499 206.378 145.559 206.742 146.058 207.607L148.408 211.678Z" fill="#1090F9"/>
<path opacity="0.3" d="M244.741 168.593C243.96 167.812 243.96 166.545 244.741 165.764L252.142 158.363C253.023 157.482 254.487 157.612 255.198 158.635L255.929 159.685C256.482 160.48 256.386 161.557 255.701 162.241L253.246 164.697C252.465 165.478 252.465 166.744 253.246 167.525L254.7 168.979C255.541 169.82 255.467 171.205 254.54 171.951L252.37 173.697C251.574 174.337 250.424 174.275 249.702 173.553L244.741 168.593Z" fill="#1090F9"/>
<path d="M69.8511 165.789V67.6744C69.8511 60.0326 76.0419 53.8418 83.6837 53.8418H128.325C135.967 53.8418 142.158 60.0326 142.158 67.6744V165.789C142.158 173.431 135.967 179.622 128.325 179.622H83.6837C76.0419 179.622 69.8511 173.431 69.8511 165.789Z" fill="#7CDDFD"/>
<path d="M128.422 180.463H83.5872C75.5488 180.463 69.0098 173.924 69.0098 165.886V67.5775C69.0098 59.5391 75.5488 53 83.5872 53H128.422C136.461 53 143 59.5391 143 67.5775V165.886C143 173.924 136.461 180.463 128.422 180.463ZM83.5872 54.6735C76.4775 54.6735 70.6929 60.458 70.6929 67.5678V165.876C70.6929 172.986 76.4775 178.771 83.5872 178.771H128.422C135.532 178.771 141.317 172.986 141.317 165.876V67.5775C141.317 60.4677 135.532 54.6831 128.422 54.6831H83.5872V54.6735Z" fill="#054375"/>
<path d="M142.168 67.21H69.8511V162.065H142.168V67.21Z" fill="white"/>
<path d="M142.158 162.906H69.8416C69.3772 162.906 69 162.529 69 162.065V67.2097C69 66.7454 69.3772 66.3682 69.8416 66.3682H142.158C142.623 66.3682 143 66.7454 143 67.2097V162.065C143 162.529 142.632 162.906 142.158 162.906ZM70.6928 161.223H141.326V68.0513H70.6928V161.223Z" fill="#054375"/>
<path d="M113.255 169.726H100.225C99.7605 169.726 99.3833 169.349 99.3833 168.885C99.3833 168.42 99.7605 168.043 100.225 168.043H113.255C113.719 168.043 114.096 168.42 114.096 168.885C114.096 169.349 113.719 169.726 113.255 169.726Z" fill="#054375"/>
<g opacity="0.1294">
<path d="M137.321 67.3843C134.855 67.3166 132.388 67.2005 129.922 67.2295C123.286 67.1618 116.64 67.1715 109.995 67.2585C104.771 67.2972 99.5477 67.51 94.3242 67.1618C87.9206 66.9683 81.5169 66.5814 75.1036 66.8426C74.204 66.8619 73.3044 66.8522 72.4048 66.8136C71.8631 66.7749 71.2828 66.6975 70.7894 66.978C68.3421 67.9163 69.1063 71.7082 71.7374 71.6792C74.8618 71.9016 78.0056 71.6598 81.1301 71.7275C84.8639 71.7082 88.5881 72.0177 92.3219 72.0951C106.251 72.1822 120.19 72.2402 134.12 71.9887C135.967 72.0177 137.824 71.979 139.672 71.9403C141.2 72.1145 142.758 71.389 142.777 69.6671C142.584 66.6975 139.392 67.4907 137.321 67.3843Z" fill="#054375"/>
</g>
<path d="M109.909 156.495C109.842 156.495 109.764 156.466 109.716 156.417C109.6 156.311 109.6 156.137 109.706 156.021C117.57 147.837 125.677 139.654 133.792 131.683C133.908 131.576 134.082 131.576 134.189 131.683C134.295 131.789 134.295 131.973 134.189 132.079C126.083 140.04 117.977 148.224 110.112 156.407C110.064 156.466 109.987 156.495 109.909 156.495Z" fill="#054375"/>
<path d="M117.705 156.34C117.638 156.34 117.56 156.311 117.512 156.262C117.406 156.156 117.406 155.972 117.512 155.866L135.204 137.932C135.311 137.825 135.494 137.816 135.601 137.932C135.707 138.038 135.717 138.222 135.601 138.328L117.909 156.262C117.851 156.311 117.773 156.34 117.705 156.34Z" fill="#054375"/>
<path d="M125.754 156.727C125.686 156.727 125.619 156.698 125.56 156.65C125.444 156.543 125.444 156.369 125.551 156.253C129.381 152.268 133.154 148.118 136.743 143.91C136.839 143.794 137.023 143.775 137.139 143.881C137.255 143.978 137.275 144.161 137.168 144.278C133.57 148.495 129.797 152.655 125.957 156.65C125.909 156.698 125.831 156.727 125.754 156.727Z" fill="#054375"/>
<path d="M133.879 156.466C133.812 156.466 133.744 156.446 133.696 156.398C133.579 156.292 133.57 156.117 133.667 156.001L138.348 150.604C138.455 150.488 138.629 150.478 138.745 150.575C138.861 150.681 138.871 150.855 138.774 150.971L134.092 156.369C134.034 156.437 133.957 156.466 133.879 156.466Z" fill="#054375"/>
<path d="M213.269 121.873L213.281 121.872L213.33 121.867L213.513 121.848C213.669 121.832 213.888 121.811 214.139 121.786C214.642 121.738 215.28 121.679 215.815 121.637L215.817 121.637C222.185 121.168 231.815 120.537 243.136 123.369C248.751 124.772 252.812 126.54 255.884 127.878L256.001 127.929L256.003 127.93C260.772 130.019 263.192 131.217 265.705 133.32C266.82 134.253 267.707 135.145 268.529 135.972C268.846 136.292 269.154 136.601 269.462 136.9C270.576 137.982 271.761 138.999 273.576 140.028C275.542 141.141 277.324 141.742 278.472 142.074C278.723 142.147 278.92 142.341 278.995 142.592C280.426 147.343 282.474 156.959 278.203 166.788C277.459 168.508 276.593 170.051 275.681 171.426C275.454 171.768 274.999 171.872 274.646 171.662C273.068 170.723 270.759 169.257 268.125 167.236M213.269 121.873L268.594 166.625M213.269 121.873L213.269 121.873L213.267 121.873M213.269 121.873L213.267 121.873M268.125 167.236L268.594 166.625M268.125 167.236C268.126 167.236 268.126 167.236 268.126 167.237L268.594 166.625M268.125 167.236C266.447 165.952 265.219 164.889 264.242 164.044C263.857 163.712 263.512 163.413 263.194 163.147C262.061 162.204 261.249 161.664 260.094 161.334M268.594 166.625C266.935 165.356 265.737 164.32 264.764 163.478C263.011 161.96 261.986 161.074 260.306 160.593M260.094 161.334L260.306 160.593M260.094 161.334C258.852 160.979 257.796 161.014 256.407 161.393C255.232 161.712 253.866 162.262 251.982 163.02C251.554 163.192 251.1 163.375 250.615 163.568L250.614 163.568C239.66 167.925 233.87 169.962 227.988 169.344M260.094 161.334C260.094 161.334 260.094 161.334 260.094 161.334L260.306 160.593M260.306 160.593L227.988 169.344M227.988 169.344C227.988 169.344 227.988 169.344 227.989 169.344L228.068 168.578M227.988 169.344L250.33 162.853C239.328 167.228 233.725 169.173 228.068 168.578M227.988 169.344C227.481 169.292 226.834 169.207 226.003 169.099C224.125 168.854 221.308 168.487 217.041 168.085M227.988 169.344L217.041 168.085M227.988 169.344L228.068 168.578M227.988 169.344L228.068 168.578M217.041 168.085C216.278 168.014 215.911 167.984 215.532 167.953L215.444 167.946C215.029 167.912 214.568 167.874 213.557 167.779L217.041 168.085ZM213.267 121.873C212.638 121.934 212.087 121.987 211.642 122.03C211.008 122.09 210.591 122.13 210.475 122.144C208.071 122.369 199.048 122.204 191.396 121.37C191.383 121.368 191.369 121.367 191.355 121.365C190.796 121.301 189.177 121.116 187.961 122.117L187.96 122.117C187.238 122.713 186.91 123.518 186.756 124.152C186.637 124.648 186.613 125.086 186.609 125.323C186.602 125.362 186.599 125.402 186.598 125.443C186.588 127.098 187.48 128.312 187.844 128.806L187.848 128.812L187.848 128.812L187.853 128.818C189.26 130.694 191.487 131.881 193.279 132.592C194.187 132.953 195.01 133.203 195.608 133.362C195.907 133.442 196.15 133.5 196.321 133.538C196.406 133.557 196.473 133.571 196.52 133.581L196.575 133.591L196.59 133.594L196.594 133.595L196.596 133.596L196.597 133.596C196.597 133.596 196.597 133.596 196.739 132.839L196.597 133.596L196.598 133.596C202.64 134.724 207.868 134.601 211.654 134.471C211.841 134.464 212.023 134.458 212.201 134.451C213.855 134.393 215.16 134.347 216.128 134.417C216.663 134.456 217.03 134.527 217.267 134.62C217.485 134.705 217.513 134.775 217.516 134.783C217.534 134.827 217.57 135.059 217.231 135.593C216.918 136.087 216.391 136.669 215.703 137.286C214.333 138.514 212.46 139.764 210.822 140.597C209.013 141.515 207.167 142.09 204.267 142.576L204.266 142.577C199.811 143.333 194.694 144.188 188.606 142.942C182.28 141.64 174.998 138.084 171.545 136.398L171.488 136.37C171.488 136.37 171.488 136.37 171.488 136.37C171.303 136.279 170.005 135.644 168.32 135.181C166.662 134.725 164.481 134.395 162.609 135.067L162.609 135.067L162.602 135.07C162.59 135.074 162.576 135.079 162.562 135.084C162.047 135.274 160.669 135.783 159.843 137.171L159.834 137.186C159.83 137.192 159.827 137.199 159.822 137.207C159.663 137.487 159.037 138.586 159.289 139.922L159.289 139.923C159.569 141.396 160.762 142.523 162.257 143.047C162.19 143.802 162.249 144.766 162.736 145.706C163.137 146.482 163.704 147 164.385 147.429C164.92 147.766 165.564 148.069 166.262 148.397C166.412 148.468 166.564 148.539 166.719 148.613C167.959 149.209 169.755 150.116 171.933 151.394C173.896 153.549 175.642 155.272 176.966 156.517L213.267 121.873ZM189.608 163.114C190.619 163.259 191.49 163.384 191.833 163.436L176.966 156.518C179.478 158.885 181.082 160.287 182.244 161.128C183.43 161.987 184.199 162.294 185.03 162.44C185.407 162.511 187.745 162.846 189.608 163.114Z" fill="white" stroke="#054375" stroke-width="1.54" stroke-linejoin="round"/>
<path d="M218.111 154.751C216.158 154.823 214.178 154.832 212.225 154.651C209.548 154.408 205.303 153.715 200.342 151.762C198.499 151.033 196.702 150.195 194.795 149.304C192.255 148.116 189.624 146.882 186.818 145.928C186.589 145.847 184.526 145.172 181.877 145.406C181.482 145.442 181.152 145.496 180.859 145.559C178.081 143.11 175.037 141.373 171.8 140.419C168.976 139.59 166.748 139.563 165.153 140.347C164.529 140.653 163.961 141.067 163.457 141.589C163.337 141.715 163.337 141.913 163.457 142.03C163.585 142.147 163.787 142.147 163.906 142.03C164.364 141.571 164.869 141.193 165.428 140.914C166.858 140.203 168.939 140.248 171.598 141.031C174.615 141.922 177.466 143.516 180.089 145.757C179.263 146.027 178.933 146.369 178.787 146.513C177.98 147.369 177.659 148.665 177.998 149.736C178.438 151.141 179.859 151.789 180.41 152.05C182.876 153.184 185.306 154.525 187.653 155.813C191.164 157.748 194.786 159.747 198.637 161.124C201.323 162.087 206.302 163.87 213.298 166.427C213.334 166.436 213.371 166.445 213.408 166.445C213.536 166.445 213.664 166.364 213.71 166.238C213.774 166.076 213.683 165.895 213.518 165.832C206.513 163.276 201.534 161.493 198.848 160.53C195.052 159.171 191.449 157.19 187.965 155.264C185.608 153.967 183.169 152.617 180.666 151.474C180.199 151.258 178.961 150.69 178.603 149.556C178.337 148.701 178.603 147.63 179.245 146.945C179.419 146.765 179.933 146.216 181.904 146.036C184.462 145.802 186.488 146.495 186.58 146.522C189.349 147.468 191.962 148.692 194.493 149.871C196.4 150.762 198.206 151.609 200.076 152.347C204.065 153.913 208.237 154.931 212.142 155.282C214.123 155.462 216.14 155.498 218.13 155.381C218.304 155.372 218.441 155.219 218.432 155.048C218.423 154.877 218.258 154.741 218.093 154.751H218.111Z" fill="#054375"/>
<path d="M260.984 160.521C260.883 160.521 260.782 160.476 260.718 160.386C260.617 160.242 260.654 160.044 260.791 159.945C261.442 159.495 262.038 158.964 262.552 158.37C263.551 157.217 264.266 155.804 264.624 154.274C264.661 154.103 264.835 153.995 265.009 154.04C265.183 154.076 265.293 154.247 265.247 154.418C264.871 156.047 264.101 157.55 263.038 158.784C262.488 159.414 261.855 159.981 261.158 160.467C261.103 160.503 261.039 160.521 260.975 160.521H260.984Z" fill="#054375"/>
<path d="M237.476 144.731C237.402 144.731 237.338 144.713 237.283 144.668C237.146 144.56 237.118 144.362 237.228 144.227C238.127 143.084 239.135 142.057 240.245 141.157C246.012 136.494 253.191 136.341 256.959 136.665C257.133 136.683 257.262 136.836 257.252 137.007C257.234 137.178 257.078 137.313 256.904 137.295C253.237 136.98 246.25 137.133 240.657 141.643C239.584 142.508 238.603 143.507 237.741 144.605C237.677 144.686 237.586 144.731 237.485 144.731H237.476Z" fill="#054375"/>
<path d="M191.21 162.565C191.21 162.565 191.119 162.565 191.073 162.538C188.441 161.349 185.847 160.008 183.362 158.55C179.951 156.542 176.669 154.273 173.597 151.789C173.46 151.681 173.441 151.483 173.551 151.348C173.661 151.213 173.863 151.195 174.001 151.303C177.045 153.769 180.3 156.02 183.683 158.009C186.149 159.459 188.716 160.791 191.33 161.961C191.495 162.033 191.559 162.222 191.485 162.376C191.43 162.493 191.311 162.556 191.192 162.556L191.21 162.565Z" fill="#054375"/>
<path d="M218.257 134.808C218.166 134.808 218.074 134.772 218.01 134.691C217.9 134.556 217.918 134.358 218.065 134.25C218.826 133.656 220.339 132.884 221.174 132.407C223.09 131.335 225.18 130.606 227.399 130.228C227.574 130.201 227.739 130.318 227.766 130.489C227.794 130.66 227.684 130.822 227.5 130.849C225.355 131.209 223.328 131.92 221.485 132.947C220.679 133.397 219.192 134.151 218.459 134.727C218.404 134.772 218.331 134.799 218.257 134.799V134.808Z" fill="#054375"/>
<path d="M117 102.086C118.667 99.5859 124.1 94.1859 132.5 92.5859" stroke="#054375" stroke-width="2"/>
<path d="M170 93.8359C172.999 94.0293 180.392 96.0347 185.978 102.509" stroke="#054375" stroke-width="2"/>
<circle cx="108" cy="118.663" r="17" fill="#F7E06E"/>
<ellipse cx="152" cy="94.0859" rx="17" ry="14" fill="#F7E06E"/>
<circle cx="200" cy="118.086" r="17" fill="#F7E06E"/>
<circle cx="105.062" cy="117.148" r="16.0624" fill="#F9EC76" stroke="#054375" stroke-width="2"/>
<path fill-rule="evenodd" clip-rule="evenodd" d="M103.928 124.757V126.557C103.928 126.841 104.158 127.071 104.442 127.071H104.957C105.241 127.071 105.471 126.841 105.471 126.557V124.749C106.279 124.725 107.301 124.629 108.213 124.247C108.851 123.979 109.465 123.559 109.916 122.904C110.368 122.246 110.614 121.412 110.614 120.385C110.614 119.359 110.368 118.524 109.916 117.867C109.465 117.212 108.851 116.792 108.213 116.524C107.301 116.141 106.279 116.046 105.471 116.022V110.357L109.328 110.357C109.612 110.357 109.842 110.126 109.842 109.842L109.842 109.328C109.842 109.044 109.612 108.814 109.328 108.814L105.471 108.814V107.014C105.471 106.73 105.241 106.5 104.957 106.5H104.442C104.158 106.5 103.928 106.73 103.928 107.014V108.828C103.084 108.859 102.106 108.963 101.242 109.301C100.588 109.558 99.9596 109.961 99.4984 110.6C99.0341 111.243 98.7852 112.061 98.7852 113.061C98.7852 114.063 99.0343 114.886 99.4812 115.543C99.9252 116.196 100.53 116.634 101.161 116.927C102.078 117.352 103.104 117.493 103.928 117.538V123.214H100.071C99.7868 123.214 99.5566 123.444 99.5566 123.728V124.243C99.5566 124.527 99.7868 124.757 100.071 124.757H103.928ZM105.471 123.204C106.184 123.181 106.958 123.1 107.615 122.824C108.049 122.642 108.398 122.387 108.644 122.029C108.889 121.674 109.071 121.159 109.071 120.385C109.071 119.612 108.889 119.096 108.644 118.741C108.398 118.384 108.049 118.129 107.615 117.947C106.958 117.671 106.184 117.59 105.471 117.566V123.204ZM103.928 115.992V110.373C103.19 110.403 102.439 110.489 101.804 110.738C101.349 110.916 100.994 111.164 100.749 111.503C100.508 111.838 100.328 112.324 100.328 113.061C100.328 113.798 100.508 114.309 100.757 114.676C101.009 115.047 101.369 115.323 101.81 115.527C102.461 115.829 103.232 115.948 103.928 115.992Z" fill="#054375"/>
<path d="M167.125 93.1483C167.125 96.3789 165.417 99.3727 162.519 101.591C159.621 103.81 155.574 105.211 151.062 105.211C146.551 105.211 142.504 103.81 139.605 101.591C136.708 99.3727 135 96.3789 135 93.1483C135 89.9178 136.708 86.924 139.605 84.7059C142.504 82.487 146.551 81.0859 151.062 81.0859C155.574 81.0859 159.621 82.487 162.519 84.7059C165.417 86.924 167.125 89.9178 167.125 93.1483Z" fill="#F9EC76" stroke="#054375" stroke-width="2"/>
<path fill-rule="evenodd" clip-rule="evenodd" d="M149.928 98.9728V100.351C149.928 100.568 150.158 100.745 150.442 100.745H150.957C151.241 100.745 151.471 100.568 151.471 100.351V98.9668C152.279 98.9485 153.301 98.8752 154.213 98.5823C154.851 98.3771 155.465 98.0558 155.916 97.5542C156.368 97.0509 156.614 96.4119 156.614 95.6262C156.614 94.8405 156.368 94.2014 155.916 93.6981C155.465 93.1966 154.851 92.8752 154.213 92.6701C153.301 92.3771 152.279 92.3038 151.471 92.2856V87.9485L155.328 87.9485C155.612 87.9485 155.842 87.7723 155.842 87.5548L155.842 87.1611C155.842 86.9436 155.612 86.7674 155.328 86.7674L151.471 86.7674V85.3893C151.471 85.1719 151.241 84.9956 150.957 84.9956H150.442C150.158 84.9956 149.928 85.1719 149.928 85.3893V86.778C149.084 86.8022 148.106 86.8815 147.242 87.1407C146.588 87.3367 145.96 87.6459 145.498 88.1348C145.034 88.6271 144.785 89.2529 144.785 90.019C144.785 90.7857 145.034 91.4161 145.481 91.9192C145.925 92.4191 146.53 92.7543 147.161 92.9783C148.078 93.3037 149.104 93.4118 149.928 93.4459V97.7917H146.071C145.787 97.7917 145.557 97.9679 145.557 98.1854V98.5791C145.557 98.7966 145.787 98.9728 146.071 98.9728H149.928ZM151.471 97.7843C152.184 97.7663 152.958 97.7044 153.615 97.4932C154.049 97.3539 154.398 97.1584 154.644 96.8848C154.889 96.613 155.071 96.2185 155.071 95.6262C155.071 95.0338 154.889 94.6393 154.644 94.3675C154.398 94.0939 154.049 93.8985 153.615 93.7591C152.958 93.5479 152.184 93.4861 151.471 93.4681V97.7843ZM149.928 92.2625V87.9608C149.19 87.9838 148.439 88.0502 147.804 88.2405C147.349 88.3771 146.994 88.5669 146.749 88.8263C146.508 89.0825 146.328 89.4545 146.328 90.019C146.328 90.5828 146.508 90.9741 146.757 91.255C147.009 91.5392 147.369 91.7504 147.81 91.9066C148.461 92.1379 149.232 92.2293 149.928 92.2625Z" fill="#054375"/>
<circle cx="197.062" cy="117.148" r="16.0624" fill="#F9EC76" stroke="#054375" stroke-width="2"/>
<path fill-rule="evenodd" clip-rule="evenodd" d="M195.928 124.757V126.557C195.928 126.841 196.158 127.071 196.442 127.071H196.957C197.241 127.071 197.471 126.841 197.471 126.557V124.749C198.279 124.725 199.301 124.629 200.213 124.247C200.851 123.979 201.465 123.559 201.916 122.904C202.368 122.246 202.614 121.412 202.614 120.385C202.614 119.359 202.368 118.524 201.916 117.867C201.465 117.212 200.851 116.792 200.213 116.524C199.301 116.141 198.279 116.046 197.471 116.022V110.357L201.328 110.357C201.612 110.357 201.842 110.126 201.842 109.842L201.842 109.328C201.842 109.044 201.612 108.814 201.328 108.814L197.471 108.814V107.014C197.471 106.73 197.241 106.5 196.957 106.5H196.442C196.158 106.5 195.928 106.73 195.928 107.014V108.828C195.084 108.859 194.106 108.963 193.242 109.301C192.588 109.558 191.96 109.961 191.498 110.6C191.034 111.243 190.785 112.061 190.785 113.061C190.785 114.063 191.034 114.886 191.481 115.543C191.925 116.196 192.53 116.634 193.161 116.927C194.078 117.352 195.104 117.493 195.928 117.538V123.214H192.071C191.787 123.214 191.557 123.444 191.557 123.728V124.243C191.557 124.527 191.787 124.757 192.071 124.757H195.928ZM197.471 123.204C198.184 123.181 198.958 123.1 199.615 122.824C200.049 122.642 200.398 122.387 200.644 122.029C200.889 121.674 201.071 121.159 201.071 120.385C201.071 119.612 200.889 119.096 200.644 118.741C200.398 118.384 200.049 118.129 199.615 117.947C198.958 117.671 198.184 117.59 197.471 117.566V123.204ZM195.928 115.992V110.373C195.19 110.403 194.439 110.489 193.804 110.738C193.349 110.916 192.994 111.164 192.749 111.503C192.508 111.838 192.328 112.324 192.328 113.061C192.328 113.798 192.508 114.309 192.757 114.676C193.009 115.047 193.369 115.323 193.81 115.527C194.461 115.829 195.232 115.948 195.928 115.992Z" fill="#054375"/>
<circle cx="197.062" cy="117.148" r="16.0624" fill="#F9EC76" stroke="#054375" stroke-width="2"/>
<path fill-rule="evenodd" clip-rule="evenodd" d="M195.928 124.757V126.557C195.928 126.841 196.158 127.071 196.442 127.071H196.957C197.241 127.071 197.471 126.841 197.471 126.557V124.749C198.279 124.725 199.301 124.629 200.213 124.247C200.851 123.979 201.465 123.559 201.916 122.904C202.368 122.246 202.614 121.412 202.614 120.385C202.614 119.359 202.368 118.524 201.916 117.867C201.465 117.212 200.851 116.792 200.213 116.524C199.301 116.141 198.279 116.046 197.471 116.022V110.357L201.328 110.357C201.612 110.357 201.842 110.126 201.842 109.842L201.842 109.328C201.842 109.044 201.612 108.814 201.328 108.814L197.471 108.814V107.014C197.471 106.73 197.241 106.5 196.957 106.5H196.442C196.158 106.5 195.928 106.73 195.928 107.014V108.828C195.084 108.859 194.106 108.963 193.242 109.301C192.588 109.558 191.96 109.961 191.498 110.6C191.034 111.243 190.785 112.061 190.785 113.061C190.785 114.063 191.034 114.886 191.481 115.543C191.925 116.196 192.53 116.634 193.161 116.927C194.078 117.352 195.104 117.493 195.928 117.538V123.214H192.071C191.787 123.214 191.557 123.444 191.557 123.728V124.243C191.557 124.527 191.787 124.757 192.071 124.757H195.928ZM197.471 123.204C198.184 123.181 198.958 123.1 199.615 122.824C200.049 122.642 200.398 122.387 200.644 122.029C200.889 121.674 201.071 121.159 201.071 120.385C201.071 119.612 200.889 119.096 200.644 118.741C200.398 118.384 200.049 118.129 199.615 117.947C198.958 117.671 198.184 117.59 197.471 117.566V123.204ZM195.928 115.992V110.373C195.19 110.403 194.439 110.489 193.804 110.738C193.349 110.916 192.994 111.164 192.749 111.503C192.508 111.838 192.328 112.324 192.328 113.061C192.328 113.798 192.508 114.309 192.757 114.676C193.009 115.047 193.369 115.323 193.81 115.527C194.461 115.829 195.232 115.948 195.928 115.992Z" fill="#054375"/>
</svg>
