<svg width="320" height="244" viewBox="0 0 320 244" fill="none" xmlns="http://www.w3.org/2000/svg">
<path opacity="0.3" d="M255.679 127.477C257.232 125.906 257.232 123.359 255.679 121.789L146.393 11.269C144.685 9.54172 141.861 9.74018 140.406 11.6898L100.141 65.6287C98.946 67.2301 99.1005 69.4776 100.503 70.8964L150.71 121.669C152.263 123.24 152.263 125.787 150.71 127.358L94.106 184.6C92.3987 186.327 92.5939 189.181 94.5201 190.653L147.962 231.504C149.546 232.715 151.77 232.559 153.173 231.14L255.679 127.477Z" fill="#1090F9"/>
<path opacity="0.3" d="M254.889 130.972C256.054 132.15 256.054 134.06 254.889 135.238L152.383 238.901C151.33 239.965 149.663 240.082 148.475 239.174L95.0328 198.323C93.5882 197.219 93.4417 195.079 94.7222 193.784L151.326 136.541C153.268 134.577 153.268 131.394 151.326 129.43L101.12 78.6575C100.067 77.5934 99.9516 75.9078 100.848 74.7067L141.112 20.7678C142.204 19.3056 144.322 19.1568 145.603 20.4522L254.889 130.972Z" stroke="#05BDFB" stroke-width="2"/>
<path opacity="0.3" d="M197.259 24.9585C198.363 24.9585 199.259 25.8539 199.259 26.9585L199.259 29.7117C199.259 30.6021 198.472 31.2871 197.59 31.1642C196.865 31.0632 196.325 30.4434 196.325 29.7117L196.325 29.5227C196.325 28.6219 195.595 27.8917 194.694 27.8917L194.505 27.8917C193.615 27.8917 192.93 27.1046 193.053 26.2227C193.154 25.4979 193.774 24.9585 194.505 24.9585L197.259 24.9585Z" fill="#1090F9"/>
<path opacity="0.3" d="M247.27 69.6624C247.823 70.619 247.495 71.8421 246.538 72.3944L242.455 74.7522C241.403 75.3594 240.057 74.8969 239.601 73.7715L239.561 73.6719C239.186 72.7471 239.55 71.6874 240.414 71.1885L240.929 70.8913C241.885 70.3391 242.213 69.1159 241.661 68.1593L241.356 67.6318C240.749 66.5801 241.212 65.2345 242.337 64.7783L242.437 64.7379C243.361 64.363 244.421 64.7272 244.92 65.5914L247.27 69.6624Z" fill="#1090F9"/>
<path opacity="0.3" d="M149.408 210.017C149.96 210.974 149.633 212.197 148.676 212.749L144.592 215.107C143.541 215.714 142.195 215.252 141.739 214.127L141.698 214.027C141.324 213.102 141.688 212.042 142.552 211.543L143.067 211.246C144.023 210.694 144.351 209.471 143.799 208.514L143.494 207.987C142.887 206.935 143.349 205.589 144.475 205.133L144.574 205.093C145.499 204.718 146.559 205.082 147.058 205.946L149.408 210.017Z" fill="#1090F9"/>
<path opacity="0.3" d="M245.741 166.933C244.96 166.152 244.96 164.885 245.741 164.104L253.142 156.703C254.023 155.822 255.487 155.952 256.198 156.975L256.929 158.025C257.482 158.82 257.386 159.896 256.701 160.581L254.246 163.036C253.465 163.817 253.465 165.084 254.246 165.865L255.7 167.319C256.541 168.16 256.467 169.545 255.54 170.291L253.37 172.037C252.574 172.677 251.424 172.615 250.702 171.893L245.741 166.933Z" fill="#1090F9"/>
<rect x="61.9943" y="72.418" width="94.0377" height="136.454" rx="4" transform="rotate(-15 61.9943 72.418)" fill="white" stroke="#054375" stroke-width="2"/>
<rect opacity="0.14" x="63.3516" y="75.1616" width="89.6351" height="129.651" rx="1" transform="rotate(-15 63.3516 75.1616)" fill="#054375"/>
<rect x="49.2521" y="65.0611" width="94.0377" height="136.454" rx="4" transform="rotate(-15 49.2521 65.0611)" fill="white" stroke="#054375" stroke-width="2"/>
<path d="M99.7272 200.735C99.673 200.75 99.605 200.743 99.5462 200.709C99.4383 200.647 99.399 200.5 99.4612 200.392L102.71 194.766C102.772 194.658 102.919 194.619 103.027 194.681C103.134 194.743 103.174 194.89 103.111 194.998L99.8631 200.624C99.8292 200.683 99.7813 200.721 99.7272 200.735Z" fill="#054375"/>
<path d="M143.017 189.136C142.963 189.151 142.895 189.144 142.836 189.11C142.728 189.048 142.689 188.901 142.751 188.793L146 183.167C146.062 183.059 146.209 183.02 146.317 183.082C146.424 183.144 146.464 183.291 146.401 183.399L143.153 189.025C143.119 189.084 143.071 189.122 143.017 189.136Z" fill="#054375"/>
<path d="M121.373 194.935C121.319 194.95 121.25 194.943 121.192 194.909C121.084 194.847 121.044 194.7 121.107 194.592L124.355 188.966C124.417 188.858 124.564 188.819 124.672 188.881C124.78 188.943 124.819 189.09 124.757 189.198L121.509 194.824C121.475 194.883 121.427 194.921 121.373 194.935Z" fill="#054375"/>
<path d="M164.663 183.336C164.609 183.35 164.541 183.344 164.482 183.31C164.374 183.247 164.335 183.101 164.397 182.993L167.645 177.367C167.707 177.259 167.854 177.219 167.962 177.282C168.07 177.344 168.109 177.491 168.047 177.599L164.799 183.225C164.765 183.284 164.717 183.321 164.663 183.336Z" fill="#054375"/>
<path d="M105.138 199.285C105.084 199.3 105.016 199.293 104.957 199.259C104.849 199.197 104.81 199.05 104.872 198.942L108.121 193.316C108.183 193.208 108.33 193.169 108.438 193.231C108.545 193.294 108.585 193.44 108.523 193.548L105.274 199.174C105.24 199.233 105.192 199.271 105.138 199.285Z" fill="#054375"/>
<path d="M148.428 187.686C148.374 187.7 148.306 187.694 148.247 187.66C148.14 187.598 148.1 187.451 148.162 187.343L151.411 181.717C151.473 181.609 151.62 181.569 151.728 181.632C151.836 181.694 151.875 181.841 151.813 181.949L148.564 187.575C148.53 187.634 148.482 187.671 148.428 187.686Z" fill="#054375"/>
<path d="M126.783 193.486C126.729 193.5 126.661 193.494 126.602 193.46C126.494 193.397 126.455 193.25 126.517 193.143L129.765 187.516C129.827 187.409 129.974 187.369 130.082 187.431C130.19 187.494 130.229 187.641 130.167 187.748L126.919 193.375C126.885 193.433 126.837 193.471 126.783 193.486Z" fill="#054375"/>
<path d="M170.075 181.886C170.021 181.901 169.953 181.894 169.894 181.86C169.786 181.798 169.747 181.651 169.809 181.543L173.057 175.917C173.119 175.809 173.266 175.77 173.374 175.832C173.482 175.894 173.521 176.041 173.459 176.149L170.211 181.775C170.177 181.834 170.129 181.872 170.075 181.886Z" fill="#054375"/>
<path d="M110.55 197.835C110.496 197.85 110.428 197.843 110.369 197.809C110.262 197.747 110.222 197.6 110.284 197.492L113.533 191.866C113.595 191.758 113.742 191.719 113.85 191.781C113.958 191.843 113.997 191.99 113.935 192.098L110.686 197.724C110.652 197.783 110.605 197.821 110.55 197.835Z" fill="#054375"/>
<path d="M153.84 186.236C153.786 186.25 153.718 186.244 153.659 186.21C153.552 186.147 153.512 186 153.575 185.893L156.823 180.266C156.885 180.159 157.032 180.119 157.14 180.181C157.248 180.244 157.287 180.391 157.225 180.498L153.976 186.125C153.942 186.183 153.895 186.221 153.84 186.236Z" fill="#054375"/>
<path d="M132.194 192.036C132.14 192.05 132.072 192.044 132.013 192.01C131.905 191.948 131.866 191.801 131.928 191.693L135.176 186.067C135.239 185.959 135.385 185.92 135.493 185.982C135.601 186.044 135.64 186.191 135.578 186.299L132.33 191.925C132.296 191.984 132.248 192.021 132.194 192.036Z" fill="#054375"/>
<path d="M175.486 180.436C175.432 180.45 175.364 180.444 175.305 180.41C175.197 180.347 175.158 180.201 175.22 180.093L182.697 167.141C182.759 167.034 182.906 166.994 183.014 167.057C183.122 167.119 183.161 167.266 183.099 167.373L175.622 180.325C175.588 180.384 175.54 180.421 175.486 180.436Z" fill="#054375"/>
<path d="M115.962 196.386C115.907 196.4 115.839 196.393 115.781 196.359C115.673 196.297 115.633 196.15 115.696 196.043L118.944 190.416C119.006 190.309 119.153 190.269 119.261 190.331C119.369 190.394 119.408 190.541 119.346 190.648L116.098 196.275C116.064 196.333 116.016 196.371 115.962 196.386Z" fill="#054375"/>
<path d="M159.252 184.786C159.197 184.8 159.129 184.794 159.071 184.76C158.963 184.698 158.923 184.551 158.986 184.443L162.234 178.817C162.296 178.709 162.443 178.67 162.551 178.732C162.659 178.794 162.698 178.941 162.636 179.049L159.388 184.675C159.354 184.734 159.306 184.771 159.252 184.786Z" fill="#054375"/>
<path d="M137.606 190.586C137.552 190.6 137.484 190.594 137.425 190.56C137.317 190.497 137.278 190.351 137.34 190.243L140.588 184.617C140.651 184.509 140.798 184.469 140.905 184.532C141.013 184.594 141.053 184.741 140.99 184.849L137.742 190.475C137.708 190.534 137.66 190.571 137.606 190.586Z" fill="#054375"/>
<path d="M180.897 178.986C180.843 179 180.775 178.994 180.716 178.96C180.608 178.897 180.569 178.75 180.631 178.643L183.879 173.016C183.942 172.909 184.089 172.869 184.196 172.931C184.304 172.994 184.344 173.141 184.281 173.248L181.033 178.875C180.999 178.933 180.951 178.971 180.897 178.986Z" fill="#054375"/>
<path d="M178.124 168.636C178.07 168.65 178.001 168.643 177.943 168.609C177.835 168.547 177.795 168.4 177.858 168.293L181.106 162.666C181.168 162.559 181.315 162.519 181.423 162.581C181.531 162.644 181.57 162.791 181.508 162.898L178.26 168.525C178.226 168.583 178.178 168.621 178.124 168.636Z" fill="#054375"/>
<path d="M166.938 126.891C166.884 126.906 166.816 126.899 166.757 126.865C166.649 126.803 166.61 126.656 166.672 126.548L169.92 120.922C169.983 120.814 170.13 120.775 170.237 120.837C170.345 120.899 170.385 121.046 170.322 121.154L167.074 126.78C167.04 126.839 166.992 126.877 166.938 126.891Z" fill="#054375"/>
<path d="M157.698 92.4046C157.644 92.4191 157.576 92.4125 157.517 92.3785C157.409 92.3163 157.37 92.1694 157.432 92.0616L160.68 86.4354C160.742 86.3275 160.889 86.2882 160.997 86.3504C161.105 86.4127 161.144 86.5596 161.082 86.6674L157.834 92.2936C157.8 92.3524 157.752 92.3901 157.698 92.4046Z" fill="#054375"/>
<path d="M172.331 147.015C172.277 147.03 172.208 147.023 172.15 146.989C172.042 146.927 172.002 146.78 172.065 146.672L175.313 141.046C175.375 140.938 175.522 140.899 175.63 140.961C175.738 141.024 175.777 141.17 175.715 141.278L172.467 146.904C172.433 146.963 172.385 147.001 172.331 147.015Z" fill="#054375"/>
<path d="M161.145 105.271C161.091 105.286 161.023 105.279 160.964 105.245C160.856 105.183 160.817 105.036 160.879 104.928L164.128 99.3021C164.19 99.1942 164.337 99.1549 164.444 99.2171C164.552 99.2794 164.592 99.4263 164.529 99.5341L161.281 105.16C161.247 105.219 161.199 105.257 161.145 105.271Z" fill="#054375"/>
<path d="M152.239 72.0306C152.185 72.0451 152.117 72.0385 152.058 72.0045C151.95 71.9423 151.911 71.7954 151.973 71.6876L155.221 66.0613C155.284 65.9535 155.43 65.9142 155.538 65.9764C155.646 66.0387 155.685 66.1855 155.623 66.2934L152.375 71.9196C152.341 71.9784 152.293 72.0161 152.239 72.0306Z" fill="#054375"/>
<path d="M176.193 161.428C176.139 161.443 176.071 161.436 176.012 161.402C175.904 161.34 175.865 161.193 175.927 161.085L179.175 155.459C179.238 155.351 179.385 155.312 179.492 155.374C179.6 155.436 179.64 155.583 179.577 155.691L176.329 161.317C176.295 161.376 176.247 161.414 176.193 161.428Z" fill="#054375"/>
<path d="M165.007 119.684C164.953 119.699 164.885 119.692 164.826 119.658C164.719 119.596 164.679 119.449 164.742 119.341L167.99 113.715C168.052 113.607 168.199 113.568 168.307 113.63C168.415 113.692 168.454 113.839 168.392 113.947L165.143 119.573C165.109 119.632 165.062 119.67 165.007 119.684Z" fill="#054375"/>
<path d="M156.1 86.4432C156.046 86.4577 155.978 86.4511 155.919 86.4171C155.811 86.3549 155.772 86.208 155.834 86.1002L159.083 80.4739C159.145 80.3661 159.292 80.3268 159.4 80.389C159.507 80.4513 159.547 80.5981 159.484 80.706L156.236 86.3322C156.202 86.391 156.154 86.4287 156.1 86.4432Z" fill="#054375"/>
<path d="M170.4 139.81C170.346 139.824 170.278 139.818 170.219 139.784C170.111 139.722 170.072 139.575 170.134 139.467L173.382 133.841C173.445 133.733 173.592 133.693 173.699 133.756C173.807 133.818 173.847 133.965 173.784 134.073L170.536 139.699C170.502 139.758 170.454 139.795 170.4 139.81Z" fill="#054375"/>
<path d="M159.214 98.0657C159.16 98.0802 159.092 98.0736 159.033 98.0397C158.926 97.9774 158.886 97.8305 158.949 97.7227L162.197 92.0965C162.259 91.9887 162.406 91.9493 162.514 92.0116C162.622 92.0738 162.661 92.2207 162.599 92.3285L159.35 97.9547C159.316 98.0135 159.269 98.0512 159.214 98.0657Z" fill="#054375"/>
<path d="M150.307 64.825C150.253 64.8395 150.185 64.8329 150.126 64.7989C150.018 64.7367 149.979 64.5898 150.041 64.482L153.29 58.8558C153.352 58.748 153.499 58.7086 153.607 58.7708C153.714 58.8331 153.754 58.98 153.692 59.0878L150.443 64.714C150.409 64.7728 150.361 64.8105 150.307 64.825Z" fill="#054375"/>
<path d="M174.261 154.222C174.207 154.237 174.139 154.23 174.08 154.196C173.973 154.134 173.933 153.987 173.995 153.879L177.244 148.253C177.306 148.145 177.453 148.106 177.561 148.168C177.669 148.231 177.708 148.377 177.646 148.485L174.397 154.111C174.363 154.17 174.315 154.208 174.261 154.222Z" fill="#054375"/>
<path d="M163.077 112.479C163.023 112.493 162.955 112.487 162.896 112.453C162.788 112.391 162.749 112.244 162.811 112.136L166.059 106.51C166.121 106.402 166.268 106.362 166.376 106.425C166.484 106.487 166.523 106.634 166.461 106.742L163.213 112.368C163.179 112.427 163.131 112.464 163.077 112.479Z" fill="#054375"/>
<path d="M154.17 79.2376C154.115 79.2521 154.047 79.2455 153.989 79.2115C153.881 79.1493 153.841 79.0024 153.904 78.8946L157.152 73.2684C157.214 73.1606 157.361 73.1212 157.469 73.1834C157.577 73.2457 157.616 73.3926 157.554 73.5004L154.306 79.1266C154.272 79.1854 154.224 79.2231 154.17 79.2376Z" fill="#054375"/>
<path d="M168.468 132.602C168.414 132.617 168.346 132.61 168.287 132.576C168.18 132.514 168.14 132.367 168.202 132.259L171.451 126.633C171.513 126.525 171.66 126.486 171.768 126.548C171.876 126.61 171.915 126.757 171.853 126.865L168.604 132.491C168.57 132.55 168.522 132.588 168.468 132.602Z" fill="#054375"/>
<path d="M148.377 57.6175C148.322 57.632 148.254 57.6254 148.196 57.5914C148.088 57.5292 148.048 57.3823 148.111 57.2745L151.359 51.6483C151.421 51.5404 151.568 51.5011 151.676 51.5633C151.784 51.6256 151.823 51.7725 151.761 51.8803L148.513 57.5065C148.479 57.5653 148.431 57.603 148.377 57.6175Z" fill="#054375"/>
<path d="M117.772 57.9778L61.8271 72.9683L63.244 78.2559L119.189 63.2654L117.772 57.9778Z" fill="#7CDDFD"/>
<path d="M119.372 63.9459L63.4263 78.9364C63.0553 79.0358 62.673 78.8151 62.5736 78.4441L61.1568 73.1564C61.0573 72.7854 61.278 72.4031 61.6491 72.3037L117.594 57.3132C117.965 57.2138 118.348 57.4345 118.447 57.8056L119.864 63.0932C119.963 63.4642 119.743 63.8465 119.372 63.9459ZM63.7462 77.409L118.346 62.779L117.29 58.8364L62.6898 73.4665L63.7462 77.409Z" fill="#054375"/>
<path d="M127.922 95.8567L71.9766 110.847L73.3934 116.135L129.339 101.144L127.922 95.8567Z" fill="#7CDDFD"/>
<path d="M129.522 101.825L73.5767 116.815C73.2057 116.915 72.8234 116.694 72.724 116.323L71.3072 111.035C71.2077 110.664 71.4284 110.282 71.7995 110.183L127.745 95.1921C128.116 95.0927 128.498 95.3134 128.597 95.6845L130.014 100.972C130.114 101.343 129.893 101.725 129.522 101.825ZM73.8966 115.288L128.497 100.658L127.44 96.7154L72.8402 111.345L73.8966 115.288Z" fill="#054375"/>
<path d="M99.5795 76.382L65.21 85.5913L66.6268 90.8789L100.996 81.6697L99.5795 76.382Z" fill="white"/>
<path d="M101.185 82.3409L66.815 91.5502C66.444 91.6496 66.0617 91.4289 65.9623 91.0578L64.5454 85.7702C64.446 85.3991 64.6667 85.0169 65.0378 84.9174L99.4073 75.7082C99.7783 75.6087 100.161 75.8294 100.26 76.2005L101.677 81.4881C101.776 81.8592 101.556 82.2415 101.185 82.3409ZM67.1271 90.0249L100.152 81.176L99.0952 77.2335L66.0707 86.0824L67.1271 90.0249Z" fill="#054375"/>
<path d="M109.73 114.262L75.3604 123.472L76.7772 128.759L111.147 119.55L109.73 114.262Z" fill="white"/>
<path d="M111.335 120.221L76.9654 129.431C76.5943 129.53 76.2121 129.309 76.1127 128.938L74.6958 123.651C74.5964 123.28 74.8171 122.897 75.1882 122.798L109.558 113.589C109.929 113.489 110.311 113.71 110.41 114.081L111.827 119.369C111.927 119.74 111.706 120.122 111.335 120.221ZM77.2775 127.905L110.302 119.056L109.246 115.114L76.2211 123.963L77.2775 127.905Z" fill="#054375"/>
<path d="M124.534 83.2185L68.5889 98.209L70.0057 103.497L125.951 88.5061L124.534 83.2185Z" fill="#7CDDFD"/>
<path d="M126.132 89.1793L70.1871 104.17C69.816 104.269 69.4338 104.049 69.3343 103.677L67.9175 98.3898C67.8181 98.0188 68.0388 97.6365 68.4098 97.5371L124.355 82.5466C124.726 82.4472 125.108 82.6679 125.208 83.0389L126.625 88.3266C126.724 88.6976 126.503 89.0799 126.132 89.1793ZM70.5069 102.642L125.107 88.0124L124.051 84.0698L69.4505 98.6999L70.5069 102.642Z" fill="#054375"/>
<path d="M134.684 121.097L78.7393 136.088L80.1561 141.376L136.101 126.385L134.684 121.097Z" fill="#7CDDFD"/>
<path d="M136.283 127.058L80.3375 142.048C79.9664 142.148 79.5841 141.927 79.4847 141.556L78.0679 136.268C77.9685 135.897 78.1892 135.515 78.5602 135.415L134.505 120.425C134.876 120.326 135.259 120.546 135.358 120.917L136.775 126.205C136.874 126.576 136.654 126.958 136.283 127.058ZM80.6573 140.521L135.257 125.891L134.201 121.948L79.6009 136.578L80.6573 140.521Z" fill="#054375"/>
<rect opacity="0.1" x="243.227" y="117.513" width="82.044" height="56.5303" transform="rotate(98.4748 243.227 117.513)" fill="#02223B"/>
<path d="M216.633 188.163L226.549 121.611L181.522 114.902L171.605 181.454L216.633 188.163Z" fill="white"/>
<rect x="238.919" y="110.418" width="81.925" height="55.6837" transform="rotate(99.1388 238.919 110.418)" fill="#DAF0BC"/>
<rect x="196.834" y="114.112" width="26.2934" height="32.5174" transform="rotate(8.4748 196.834 114.112)" fill="#EDF7DE"/>
<path d="M203.941 148.021L203.942 148.021C205.023 148.204 206.112 148.37 207.218 148.487C207.595 148.529 207.969 148.569 208.342 148.609C209.074 148.688 209.799 148.766 210.529 148.855L210.541 148.857L210.553 148.858C210.58 148.86 210.609 148.863 210.652 148.869L210.656 148.869C210.695 148.874 210.747 148.881 210.802 148.885L211.566 148.953L211.665 148.2C211.787 147.275 211.91 146.331 212.034 145.386C212.158 144.443 212.281 143.501 212.402 142.578L212.402 142.578C212.775 139.736 213.173 136.677 212.566 133.805L212.566 133.805C212.416 133.097 212.166 132.249 211.573 131.621C210.859 130.863 209.85 130.657 208.898 130.792C207.955 130.926 207.011 131.397 206.295 132.08C204.937 133.376 204.261 135.207 203.717 136.763C202.569 140.037 201.542 143.346 200.622 146.676L200.416 147.421L201.173 147.56C201.727 147.661 202.3 147.754 202.862 147.844C203.229 147.903 203.591 147.961 203.941 148.021Z" fill="#BDEEFE" stroke="#0864B0" stroke-width="1.5"/>
<path opacity="0.12" d="M215.701 125.669C215.533 125.371 215.05 125.502 214.982 125.856C214.904 126.227 214.37 127.051 214.042 127.665C213.329 128.873 212.176 129.753 210.502 130.274C209.948 130.405 208.645 130.49 207.523 130.278C207.281 130.235 206.947 130.07 206.415 129.857C206.281 129.795 206.119 129.787 205.973 129.853C205.502 130.032 205.422 130.78 205.86 130.972C207.62 131.944 209.904 131.895 211.87 131.119C212.681 130.693 213.529 130.201 214.043 129.368C214.031 129.396 213.954 129.496 213.982 129.471C214.355 129.046 214.679 128.578 214.954 128.079C215.249 127.619 215.511 126.788 215.564 126.549C215.639 126.266 215.855 125.934 215.701 125.669Z" fill="#0864B0"/>
<path opacity="0.12" d="M210.979 135.049C210.922 135.796 210.938 135.816 210.824 136.856C210.786 137.083 210.733 137.307 210.69 137.534C210.701 137.507 210.715 137.464 210.728 137.426C210.568 138.134 210.58 138.887 210.447 139.611C210.007 141.992 209.598 144.372 209.143 146.75C209.072 147.131 209.007 147.513 208.941 147.895C209.575 147.965 210.212 148.042 210.85 148.119C210.87 148.122 210.894 148.126 210.914 148.13C211.279 146.22 211.604 144.305 211.875 142.386C212.268 139.627 212.491 138.076 212.448 136.845C212.554 135.656 212.469 135.027 212.386 134.609C212.277 133.88 212.009 133.209 211.685 132.587C211.508 132.296 211.421 131.849 211.058 131.789C210.601 131.696 210.196 132.34 210.458 132.754C211.032 133.896 210.978 134.172 210.979 135.049Z" fill="#0864B0"/>
<path d="M208.528 132.226C207.757 132.105 207.002 131.841 206.311 131.436C205.853 131.172 205.52 130.898 205.255 130.589C204.708 129.95 204.392 129.051 204.289 127.848C204.223 127.104 204.252 126.445 204.379 125.825C204.531 125.075 204.837 124.309 205.32 123.477C206.135 122.074 207.187 120.959 208.36 120.247C209.706 119.434 211.22 119.171 212.509 119.531C213.768 119.88 214.807 121.044 215.356 122.712C215.786 124.019 215.822 125.573 215.459 127.198C215.314 127.844 215.131 128.397 214.899 128.879C214.147 130.437 212.635 131.677 210.953 132.112C210.173 132.321 209.341 132.353 208.528 132.226Z" stroke="#0864B0" stroke-width="1.5"/>
<rect x="196.834" y="114.112" width="26.2934" height="32.5174" transform="rotate(8.4748 196.834 114.112)" stroke="#C7E89B" stroke-width="1.5"/>
<rect x="192.098" y="150.777" width="24.9309" height="28.7067" transform="rotate(8.4748 192.098 150.777)" fill="#EDF7DE" stroke="#C7E89B" stroke-width="1.5"/>
<path d="M195.295 171.662C196.151 170.434 196.71 169.025 196.928 167.545C197.036 166.826 197.303 166.139 197.711 165.537C198.119 164.935 198.657 164.432 199.285 164.065" stroke="#0864B0" stroke-width="1.5" stroke-linecap="round" stroke-linejoin="round"/>
<path d="M201.725 168.26C201.365 170.699 200.388 173.006 198.887 174.963" stroke="#0864B0" stroke-width="1.5" stroke-linecap="round" stroke-linejoin="round"/>
<path d="M199.326 167.902C199.421 167.266 199.765 166.693 200.281 166.311C200.798 165.928 201.446 165.766 202.082 165.861C202.718 165.956 203.291 166.299 203.674 166.816C204.057 167.333 204.218 167.981 204.124 168.617C203.76 171.09 202.851 173.452 201.461 175.53" stroke="#0864B0" stroke-width="1.5" stroke-linecap="round" stroke-linejoin="round"/>
<path d="M207.89 173.469C208.365 172.126 208.71 170.741 208.921 169.332C209.205 167.424 208.72 165.48 207.571 163.93C206.423 162.379 204.705 161.348 202.797 161.064C200.888 160.779 198.945 161.265 197.394 162.413C195.844 163.562 194.813 165.279 194.529 167.188C194.409 168.005 194.148 168.796 193.759 169.525" stroke="#0864B0" stroke-width="1.5" stroke-linecap="round" stroke-linejoin="round"/>
<path d="M198.729 170.265C198.282 171.488 197.643 172.632 196.837 173.654" stroke="#0864B0" stroke-width="1.5" stroke-linecap="round" stroke-linejoin="round"/>
<path d="M201.834 163.411C202.037 163.416 202.239 163.434 202.44 163.462C203.712 163.652 204.857 164.339 205.622 165.373C206.388 166.407 206.712 167.702 206.522 168.975C206.402 169.776 206.232 170.57 206.015 171.351" stroke="#0864B0" stroke-width="1.5" stroke-linecap="round" stroke-linejoin="round"/>
<path d="M205.2 173.681C205.021 174.107 204.828 174.53 204.622 174.936" stroke="#0864B0" stroke-width="1.5" stroke-linecap="round" stroke-linejoin="round"/>
<rect x="239.13" y="111.853" width="80.8102" height="56.5303" transform="rotate(98.4748 239.13 111.853)" stroke="#C7E89B" stroke-width="1.5" stroke-linecap="round"/>
<rect opacity="0.1" x="151.851" y="42.187" width="79.4105" height="54.7158" transform="rotate(4.75474 151.851 42.187)" fill="#02223B"/>
<path d="M221.317 53.559L156.415 48.1606L152.763 92.0722L217.665 97.4705L221.317 53.559Z" fill="white"/>
<rect x="144.268" y="34.6899" width="79.4105" height="54.7158" transform="rotate(4.75474 144.268 34.6899)" fill="#DAF0BC"/>
<path d="M221.317 53.559L156.415 48.1606L152.763 92.0722L217.665 97.4705L221.317 53.559Z" fill="#EDF7DE"/>
<path d="M172.264 87.0287L172.265 87.0288C173.205 87.1164 174.154 87.1901 175.114 87.2191C175.441 87.2311 175.765 87.2418 176.087 87.2524C176.72 87.2733 177.347 87.294 177.979 87.3235L177.991 87.3241L178.003 87.3243C178.024 87.3246 178.047 87.3256 178.085 87.3275L178.089 87.3276C178.122 87.3293 178.169 87.3315 178.218 87.3322L178.986 87.3432L179.028 86.5845C179.075 85.749 179.12 84.9495 179.165 84.15C179.209 83.349 179.254 82.548 179.301 81.711L179.301 81.7108C179.439 79.2502 179.587 76.5807 178.876 74.135L178.876 74.135C178.701 73.533 178.427 72.7987 177.857 72.2795C177.166 71.6479 176.25 71.5333 175.417 71.7156C174.591 71.8962 173.791 72.3739 173.205 73.0226C172.1 74.2448 171.632 75.886 171.266 77.2535C170.489 80.1401 169.819 83.0492 169.241 85.9696L169.092 86.7277L169.856 86.8098C170.34 86.8616 170.84 86.9043 171.329 86.946C171.648 86.9732 171.962 87 172.264 87.0287Z" fill="#BDEEFE" stroke="#054375" stroke-width="1.5"/>
<path opacity="0.12" d="M180.947 66.9827C180.783 66.7381 180.377 66.881 180.341 67.1898C180.298 67.5132 179.893 68.2546 179.65 68.803C179.115 69.8859 178.181 70.715 176.778 71.2696C176.31 71.4176 175.197 71.5734 174.22 71.4638C174.01 71.4416 173.712 71.3219 173.242 71.173C173.124 71.1281 172.984 71.1319 172.863 71.1974C172.469 71.3816 172.449 72.0286 172.837 72.1658C174.411 72.8872 176.368 72.6995 178.006 71.9076C178.676 71.4894 179.372 71.013 179.76 70.2652C179.752 70.2896 179.692 70.3803 179.714 70.357C180.008 69.9685 180.255 69.5462 180.46 69.1002C180.683 68.6859 180.855 67.9557 180.886 67.747C180.931 67.4993 181.096 67.201 180.947 66.9827Z" fill="#0864B0"/>
<path opacity="0.12" d="M177.493 75.3381C177.492 75.9836 177.507 75.9995 177.475 76.8995C177.457 77.0969 177.426 77.2932 177.404 77.4902C177.411 77.4666 177.421 77.4286 177.43 77.3954C177.337 78.0134 177.396 78.6594 177.328 79.2892C177.103 81.3612 176.904 83.4307 176.666 85.5016C176.629 85.8333 176.597 86.1654 176.565 86.4975C177.114 86.5175 177.666 86.5428 178.219 86.568C178.236 86.5696 178.257 86.5715 178.274 86.573C178.465 84.9105 178.622 83.245 178.732 81.5801C178.893 79.1868 178.985 77.8407 178.87 76.7867C178.884 75.7589 178.771 75.2245 178.673 74.871C178.533 74.2516 178.26 73.6932 177.941 73.1792C177.771 72.9407 177.668 72.5624 177.353 72.5342C176.954 72.4839 176.647 73.0632 176.899 73.4013C177.464 74.3452 177.436 74.5854 177.493 75.3381Z" fill="#0864B0"/>
<rect width="25.4403" height="29.7919" transform="matrix(0.996917 0.0784582 -0.0875698 0.996158 163.224 56.501)" stroke="#C7E89B" stroke-width="1.5" stroke-linecap="round"/>
<rect width="20.8122" height="13.2126" transform="matrix(0.996917 0.0784582 -0.0875698 0.996158 193.165 75.2769)" stroke="#C7E89B" stroke-width="1.5" stroke-linecap="round"/>
<line x1="195.237" y1="60.4778" x2="214.491" y2="62.0793" stroke="#C7E89B" stroke-width="1.5" stroke-linecap="round"/>
<line x1="194.563" y1="68.5745" x2="213.817" y2="70.1759" stroke="#C7E89B" stroke-width="1.5" stroke-linecap="round"/>
<rect x="146.199" y="36.6216" width="77.6507" height="53.9258" transform="rotate(4.75474 146.199 36.6216)" stroke="#C7E89B" stroke-width="1.5" stroke-linecap="round"/>
<circle cx="176.782" cy="66.7314" r="4.25" stroke="#054375" stroke-width="1.5"/>
<circle opacity="0.1" cx="162" cy="117.593" r="42.3127" fill="#02223B"/>
<circle cx="160" cy="113.406" r="41.3127" fill="white" stroke="#054375" stroke-width="2"/>
<path d="M141.448 77.5902C141.394 77.6047 141.326 77.598 141.267 77.5641C141.159 77.5018 141.12 77.355 141.182 77.2471L144.43 71.6209C144.492 71.5131 144.639 71.4737 144.747 71.536C144.855 71.5982 144.894 71.7451 144.832 71.8529L141.584 77.4792C141.55 77.538 141.502 77.5757 141.448 77.5902Z" fill="#054375"/>
<g opacity="0.15">
<path fill-rule="evenodd" clip-rule="evenodd" d="M180.35 96.7877C179.749 96.6339 179.118 96.6438 178.522 96.8162L137.766 108.295L137.759 108.297C137.068 108.488 136.452 108.886 135.994 109.438C135.535 109.992 135.258 110.675 135.201 111.392C135.143 112.109 135.308 112.827 135.674 113.447C136.036 114.063 136.578 114.553 137.227 114.851L155.941 123.705L164.794 142.418C165.093 143.067 165.583 143.609 166.198 143.972C166.818 144.337 167.536 144.502 168.253 144.445C168.971 144.387 169.653 144.11 170.207 143.651C170.759 143.194 171.158 142.578 171.348 141.886L171.35 141.879L182.829 101.124C183.002 100.528 183.011 99.8966 182.858 99.2954C182.703 98.6909 182.389 98.1391 181.947 97.6979C181.506 97.2567 180.954 96.9423 180.35 96.7877ZM179.475 100.175L179.494 100.178C179.49 100.179 179.486 100.179 179.483 100.179L179.475 100.175ZM138.69 111.671L179.456 100.189L167.978 140.943L167.974 140.956L167.963 140.931L159.364 122.756L168.384 113.736C169.068 113.053 169.068 111.945 168.384 111.261C167.701 110.578 166.593 110.578 165.909 111.261L156.889 120.282L138.714 111.682L138.69 111.671Z" fill="#9E6C00"/>
</g>
<path fill-rule="evenodd" clip-rule="evenodd" d="M179.35 93.7877C178.749 93.6339 178.118 93.6438 177.522 93.8162L136.766 105.295L136.759 105.297C136.068 105.488 135.452 105.886 134.994 106.438C134.535 106.992 134.258 107.675 134.201 108.392C134.143 109.109 134.308 109.827 134.674 110.447C135.036 111.063 135.578 111.553 136.227 111.851L154.941 120.705L163.794 139.418C164.093 140.067 164.583 140.609 165.198 140.972C165.818 141.337 166.536 141.502 167.253 141.445C167.971 141.387 168.653 141.11 169.207 140.651C169.759 140.194 170.158 139.578 170.348 138.886L170.35 138.879L181.829 98.124C182.002 97.528 182.011 96.8966 181.858 96.2954C181.703 95.6909 181.389 95.1391 180.947 94.6979C180.506 94.2567 179.954 93.9423 179.35 93.7877ZM178.475 97.1749L178.494 97.1783C178.49 97.1794 178.486 97.1795 178.483 97.1785L178.475 97.1749ZM137.69 108.671L178.456 97.1891L166.978 137.943L166.974 137.956L166.963 137.931L158.364 119.756L167.384 110.736C168.068 110.053 168.068 108.945 167.384 108.261C166.701 107.578 165.593 107.578 164.909 108.261L155.889 117.282L137.714 108.682L137.69 108.671Z" fill="#EEB412"/>
</svg>
