<svg width="320" height="248" viewBox="0 0 320 248" fill="none" xmlns="http://www.w3.org/2000/svg">
<path opacity="0.3" d="M254.679 129.137C256.232 127.566 256.232 125.02 254.679 123.449L145.393 12.9292C143.685 11.2019 140.861 11.4004 139.406 13.35L99.1415 67.2889C97.946 68.8903 98.1005 71.1378 99.5035 72.5566L149.71 123.329C151.263 124.9 151.263 127.447 149.71 129.018L93.106 186.261C91.3987 187.987 91.5939 190.841 93.5201 192.314L146.962 233.164C148.546 234.375 150.77 234.219 152.173 232.8L254.679 129.137Z" fill="#1090F9"/>
<path opacity="0.3" d="M253.889 132.633C255.054 133.811 255.054 135.721 253.889 136.899L151.383 240.561C150.33 241.626 148.663 241.743 147.475 240.835L94.0328 199.984C92.5882 198.88 92.4417 196.739 93.7222 195.444L150.326 138.202C152.268 136.238 152.268 133.055 150.326 131.091L100.12 80.3182C99.0674 79.2541 98.9516 77.5685 99.8482 76.3674L140.112 22.4285C141.204 20.9663 143.322 20.8174 144.603 22.1129L253.889 132.633Z" stroke="#05BDFB" stroke-width="2"/>
<path opacity="0.3" d="M196.259 26.6182C197.363 26.6182 198.259 27.5136 198.259 28.6182L198.259 31.3713C198.259 32.2618 197.472 32.9468 196.59 32.8239C195.865 32.7229 195.325 32.1031 195.325 31.3713L195.325 31.1824C195.325 30.2816 194.595 29.5514 193.694 29.5514L193.505 29.5514C192.615 29.5514 191.93 28.7643 192.053 27.8823C192.154 27.1576 192.774 26.6182 193.505 26.6182L196.259 26.6182Z" fill="#1090F9"/>
<path opacity="0.3" d="M246.27 71.322C246.823 72.2786 246.495 73.5018 245.538 74.0541L241.455 76.4119C240.403 77.0191 239.057 76.5566 238.601 75.4312L238.561 75.3316C238.186 74.4067 238.55 73.3471 239.414 72.8481L239.929 72.551C240.885 71.9987 241.213 70.7755 240.661 69.819L240.356 69.2915C239.749 68.2398 240.212 66.8942 241.337 66.438L241.437 66.3976C242.361 66.0227 243.421 66.3868 243.92 67.2511L246.27 71.322Z" fill="#1090F9"/>
<path opacity="0.3" d="M148.408 211.678C148.96 212.634 148.633 213.857 147.676 214.41L143.592 216.767C142.541 217.375 141.195 216.912 140.739 215.787L140.698 215.687C140.324 214.762 140.688 213.703 141.552 213.204L142.067 212.907C143.023 212.354 143.351 211.131 142.799 210.174L142.494 209.647C141.887 208.595 142.349 207.25 143.475 206.793L143.574 206.753C144.499 206.378 145.559 206.742 146.058 207.607L148.408 211.678Z" fill="#1090F9"/>
<path opacity="0.3" d="M244.741 168.593C243.96 167.812 243.96 166.545 244.741 165.764L252.142 158.363C253.023 157.482 254.487 157.612 255.198 158.635L255.929 159.685C256.482 160.48 256.386 161.557 255.701 162.241L253.246 164.697C252.465 165.478 252.465 166.744 253.246 167.525L254.7 168.979C255.541 169.82 255.467 171.206 254.54 171.951L252.37 173.697C251.574 174.338 250.424 174.275 249.702 173.553L244.741 168.593Z" fill="#1090F9"/>
<path d="M96.5005 181.5L73.5005 181.5L73.5005 159.234" stroke="#7AB72A" stroke-width="5" stroke-linecap="round"/>
<path d="M73.5005 76.7662L73.5005 54.4999L96.5005 54.4999" stroke="#7AB72A" stroke-width="5" stroke-linecap="round"/>
<path d="M215.5 54.4999L235.5 54.4999L235.5 76.7662" stroke="#7AB72A" stroke-width="5" stroke-linecap="round"/>
<path d="M235.5 159.234L235.5 181.5L215.5 181.5" stroke="#7AB72A" stroke-width="5" stroke-linecap="round"/>
<rect opacity="0.1" x="91" y="71.473" width="138" height="95.0854" fill="#02223B"/>
<path d="M212.946 81.1618H99.7693V157.735H212.946V81.1618Z" fill="white"/>
<rect x="93.6349" y="75.6201" width="121.152" height="79.0486" fill="#DAF0BC"/>
<path d="M212.946 81.1618H99.7693V157.735H212.946V81.1618Z" fill="#EDF7DE"/>
<path d="M132.853 145.641L132.855 145.641L137.791 144.813L137.78 145.561C137.781 145.561 137.782 145.561 137.783 145.561C138.347 145.534 138.908 145.506 139.468 145.478C140.569 145.423 141.664 145.368 142.766 145.328L142.778 145.328L142.79 145.327C142.838 145.324 142.887 145.322 142.952 145.32L142.956 145.32C143.016 145.318 143.089 145.315 143.164 145.31L143.93 145.257L143.909 144.498C143.871 143.091 143.833 141.686 143.795 140.282L143.795 140.258C143.757 138.845 143.718 137.433 143.68 136.018L143.68 136.018C143.564 131.72 143.433 127.17 141.887 123.135L141.887 123.135C141.504 122.133 140.963 121.015 140.018 120.288C138.897 119.422 137.488 119.35 136.201 119.746C134.922 120.139 133.708 121.005 132.859 122.118C131.221 124.263 130.662 127.034 130.221 129.473C129.295 134.571 128.554 139.693 127.977 144.822L127.89 145.59L128.659 145.608C129.501 145.629 130.359 145.63 131.205 145.632C131.762 145.633 132.314 145.634 132.853 145.641Z" fill="#BDEEFE" stroke="#0864B0" stroke-width="1.5"/>
<path opacity="0.12" d="M144.96 110.223C144.641 109.823 143.958 110.129 143.94 110.669C143.913 111.236 143.317 112.578 142.975 113.563C142.205 115.515 140.708 117.085 138.357 118.248C137.569 118.572 135.664 119.002 133.956 118.953C133.589 118.945 133.056 118.78 132.22 118.59C132.008 118.529 131.767 118.556 131.567 118.687C130.912 119.063 130.969 120.186 131.661 120.368C134.491 121.39 137.854 120.783 140.577 119.176C141.675 118.355 142.813 117.43 143.377 116.079C143.366 116.123 143.276 116.288 143.311 116.245C143.763 115.53 144.131 114.763 144.421 113.961C144.748 113.211 144.941 111.922 144.964 111.556C145.007 111.12 145.249 110.58 144.96 110.223Z" fill="#0864B0"/>
<path opacity="0.12" d="M140.184 125.191C140.275 126.309 140.303 126.334 140.378 127.898C140.375 128.242 140.35 128.586 140.339 128.931C140.349 128.889 140.36 128.822 140.37 128.763C140.299 129.846 140.494 130.957 140.467 132.057C140.375 135.678 140.329 139.291 140.215 142.911C140.2 143.491 140.192 144.071 140.184 144.651C141.138 144.606 142.098 144.57 143.058 144.535C143.088 144.535 143.125 144.535 143.155 144.535C143.246 141.629 143.278 138.722 143.228 135.822C143.162 131.654 143.128 129.31 142.776 127.501C142.653 125.719 142.381 124.81 142.159 124.212C141.828 123.16 141.274 122.232 140.649 121.387C140.32 120.999 140.086 120.359 139.536 120.355C138.839 120.326 138.391 121.373 138.875 121.922C139.991 123.475 139.977 123.895 140.184 125.191Z" fill="#0864B0"/>
<path d="M135.901 121.594C134.734 121.596 133.557 121.383 132.44 120.947C131.701 120.664 131.146 120.338 130.681 119.943C129.723 119.128 129.044 117.873 128.61 116.12C128.339 115.036 128.227 114.056 128.27 113.11C128.318 111.966 128.591 110.761 129.109 109.419C129.984 107.155 131.278 105.261 132.843 103.934C134.642 102.417 136.818 101.673 138.807 101.902C140.749 102.122 142.557 103.599 143.76 105.936C144.702 107.766 145.118 110.053 144.963 112.539C144.901 113.528 144.76 114.389 144.531 115.155C143.784 117.633 141.841 119.821 139.457 120.857C138.354 121.349 137.132 121.592 135.901 121.594Z" stroke="#0864B0" stroke-width="1.5"/>
<rect width="44.2102" height="51.7726" transform="matrix(0.99999 -0.00444692 -0.00469625 0.999989 112.761 94.6243)" stroke="#C7E89B" stroke-width="1.5" stroke-linecap="round"/>
<line x1="168.221" y1="97.4531" x2="202.902" y2="97.4531" stroke="#C7E89B" stroke-width="1.5" stroke-linecap="round"/>
<line x1="168.221" y1="111.573" x2="202.902" y2="111.573" stroke="#C7E89B" stroke-width="1.5" stroke-linecap="round"/>
<line x1="169.309" y1="125.525" x2="203.99" y2="125.525" stroke="#C7E89B" stroke-width="1.5" stroke-linecap="round"/>
<line x1="170.414" y1="138.78" x2="205.094" y2="138.78" stroke="#C7E89B" stroke-width="1.5" stroke-linecap="round"/>
<rect x="96.6959" y="71" width="121.716" height="85.3621" stroke="#C7E89B" stroke-width="1.5" stroke-linecap="round"/>
</svg>
