<svg width="320" height="248" viewBox="0 0 320 248" fill="none" xmlns="http://www.w3.org/2000/svg">
<path opacity="0.3" d="M254.679 129.137C256.232 127.566 256.232 125.02 254.679 123.449L145.393 12.9292C143.685 11.2019 140.861 11.4003 139.406 13.3499L99.1416 67.2889C97.9461 68.8903 98.1006 71.1378 99.5036 72.5566L149.71 123.329C151.263 124.9 151.263 127.447 149.71 129.018L93.1061 186.26C91.3988 187.987 91.5941 190.841 93.5202 192.314L146.962 233.164C148.546 234.375 150.77 234.219 152.173 232.8L254.679 129.137Z" fill="#1090F9"/>
<path opacity="0.3" d="M253.888 132.632C255.053 133.81 255.053 135.72 253.888 136.898L151.383 240.561C150.33 241.625 148.662 241.742 147.474 240.834L94.0323 199.983C92.5877 198.879 92.4412 196.739 93.7217 195.444L150.326 138.201C152.267 136.238 152.267 133.054 150.326 131.09L100.119 80.3176C99.0669 79.2535 98.9511 77.5679 99.8477 76.3668L140.112 22.4279C141.203 20.9657 143.321 20.8169 144.602 22.1123L253.888 132.632Z" stroke="#05BDFB" stroke-width="2"/>
<path opacity="0.3" d="M196.259 26.6185C197.364 26.6185 198.259 27.514 198.259 28.6185L198.259 31.3717C198.259 32.2622 197.472 32.9472 196.59 32.8243C195.865 32.7233 195.326 32.1035 195.326 31.3717L195.326 31.1828C195.326 30.282 194.596 29.5517 193.695 29.5517L193.506 29.5517C192.615 29.5517 191.93 28.7647 192.053 27.8827C192.154 27.1579 192.774 26.6185 193.506 26.6185L196.259 26.6185Z" fill="#1090F9"/>
<path opacity="0.3" d="M246.27 71.3223C246.823 72.2789 246.495 73.5021 245.538 74.0544L241.454 76.4122C240.403 77.0194 239.057 76.5569 238.601 75.4315L238.561 75.3319C238.186 74.4071 238.55 73.3474 239.414 72.8484L239.929 72.5513C240.885 71.999 241.213 70.7758 240.661 69.8193L240.356 69.2918C239.749 68.2401 240.212 66.8945 241.337 66.4383L241.437 66.3979C242.361 66.023 243.421 66.3871 243.92 67.2514L246.27 71.3223Z" fill="#1090F9"/>
<path opacity="0.3" d="M148.408 211.678C148.96 212.634 148.633 213.857 147.676 214.41L143.592 216.767C142.541 217.375 141.195 216.912 140.739 215.787L140.698 215.687C140.323 214.762 140.688 213.703 141.552 213.204L142.066 212.907C143.023 212.354 143.351 211.131 142.798 210.174L142.494 209.647C141.887 208.595 142.349 207.25 143.475 206.793L143.574 206.753C144.499 206.378 145.559 206.742 146.058 207.607L148.408 211.678Z" fill="#1090F9"/>
<path opacity="0.3" d="M244.741 168.593C243.96 167.812 243.96 166.545 244.741 165.764L252.143 158.363C253.024 157.482 254.487 157.612 255.199 158.635L255.929 159.685C256.482 160.48 256.386 161.557 255.702 162.241L253.246 164.696C252.465 165.478 252.465 166.744 253.246 167.525L254.7 168.979C255.542 169.82 255.467 171.205 254.54 171.951L252.37 173.697C251.574 174.337 250.424 174.275 249.702 173.553L244.741 168.593Z" fill="#1090F9"/>
<rect opacity="0.1" x="82.4821" y="71.568" width="166.011" height="114.386" transform="rotate(4.75474 82.4821 71.568)" fill="#02223B"/>
<path d="M227.705 95.3417L92.0245 84.0562L84.389 175.855L220.07 187.141L227.705 95.3417Z" fill="white"/>
<rect x="85.2305" y="76.8007" width="145.744" height="95.0938" transform="rotate(4.75474 85.2305 76.8007)" fill="#DAF0BC"/>
<path d="M227.705 95.3417L92.0245 84.0562L84.389 175.855L220.07 187.141L227.705 95.3417Z" fill="#EDF7DE"/>
<path d="M125.284 164.503L125.285 164.503C127.244 164.686 129.209 164.838 131.192 164.898C131.871 164.923 132.546 164.945 133.219 164.968C134.546 165.011 135.866 165.055 137.191 165.117L137.204 165.118L137.216 165.118C137.276 165.119 137.338 165.122 137.415 165.125L137.42 165.126C137.492 165.129 137.578 165.133 137.666 165.134L138.433 165.145L138.476 164.387C138.571 162.695 138.665 161.006 138.76 159.316L138.761 159.292L138.762 159.272C138.857 157.581 138.952 155.891 139.047 154.198L139.047 154.198C139.336 149.029 139.629 143.587 138.187 138.623L138.187 138.623C137.829 137.389 137.301 136.027 136.271 135.089C135.055 133.976 133.426 133.753 131.88 134.091C130.343 134.428 128.831 135.326 127.724 136.551C125.577 138.927 124.638 142.155 123.865 145.039C122.247 151.055 120.849 157.118 119.646 163.207L119.496 163.965L120.261 164.047C121.267 164.155 122.292 164.242 123.304 164.328C123.972 164.385 124.635 164.442 125.284 164.503Z" fill="#BDEEFE" stroke="#0864B0" stroke-width="1.5"/>
<path opacity="0.12" d="M143.308 123.403C142.966 122.891 142.117 123.19 142.042 123.836C141.952 124.512 141.104 126.062 140.596 127.208C139.479 129.472 137.527 131.205 134.592 132.365C133.616 132.674 131.288 133 129.246 132.771C128.807 132.724 128.184 132.474 127.202 132.163C126.953 132.069 126.661 132.077 126.408 132.214C125.586 132.599 125.542 133.952 126.354 134.238C129.644 135.746 133.737 135.354 137.161 133.699C138.56 132.824 140.016 131.828 140.827 130.265C140.81 130.316 140.685 130.506 140.731 130.457C141.345 129.645 141.862 128.762 142.29 127.83C142.757 126.964 143.116 125.437 143.18 125.001C143.276 124.483 143.62 123.859 143.308 123.403Z" fill="#0864B0"/>
<path opacity="0.12" d="M136.091 140.87C136.088 142.22 136.12 142.253 136.054 144.135C136.016 144.547 135.951 144.958 135.904 145.369C135.92 145.32 135.94 145.241 135.958 145.171C135.765 146.463 135.888 147.814 135.745 149.13C135.275 153.462 134.859 157.788 134.361 162.118C134.285 162.811 134.218 163.505 134.151 164.2C135.298 164.241 136.453 164.294 137.608 164.347C137.643 164.35 137.688 164.354 137.723 164.357C138.123 160.882 138.451 157.4 138.68 153.92C139.017 148.916 139.21 146.102 138.968 143.899C138.999 141.75 138.763 140.633 138.557 139.894C138.264 138.599 137.693 137.432 137.028 136.357C136.672 135.858 136.455 135.068 135.797 135.009C134.964 134.904 134.323 136.115 134.848 136.821C136.031 138.795 135.972 139.297 136.091 140.87Z" fill="#0864B0"/>
<path d="M131.314 136.131C129.914 136.017 128.523 135.645 127.229 135.01C126.37 134.597 125.737 134.151 125.22 133.632C124.152 132.559 123.464 130.987 123.118 128.841C122.901 127.515 122.864 126.329 123.011 125.199C123.182 123.832 123.629 122.415 124.384 120.858C125.659 118.231 127.399 116.089 129.408 114.654C131.716 113.015 134.399 112.341 136.76 112.813C139.067 113.271 141.087 115.221 142.295 118.143C143.242 120.431 143.514 123.215 143.079 126.179C142.907 127.359 142.652 128.376 142.301 129.272C141.158 132.168 138.611 134.598 135.65 135.602C134.278 136.082 132.789 136.252 131.314 136.131Z" stroke="#0864B0" stroke-width="1.5"/>
<rect width="53.184" height="62.2813" transform="matrix(0.996917 0.0784582 -0.0875698 0.996158 106.259 101.493)" stroke="#C7E89B" stroke-width="1.5" stroke-linecap="round"/>
<line x1="172.304" y1="110.552" x2="214.184" y2="114.035" stroke="#C7E89B" stroke-width="1.5" stroke-linecap="round"/>
<line x1="170.896" y1="127.48" x2="212.775" y2="130.963" stroke="#C7E89B" stroke-width="1.5" stroke-linecap="round"/>
<line x1="170.81" y1="144.315" x2="212.69" y2="147.798" stroke="#C7E89B" stroke-width="1.5" stroke-linecap="round"/>
<line x1="170.81" y1="160.315" x2="212.69" y2="163.798" stroke="#C7E89B" stroke-width="1.5" stroke-linecap="round"/>
<rect x="89.3578" y="71.568" width="146.421" height="102.689" transform="rotate(4.75474 89.3578 71.568)" stroke="#C7E89B" stroke-width="1.5" stroke-linecap="round"/>
</svg>
