<svg width="208" height="161" viewBox="0 0 208 161" fill="none" xmlns="http://www.w3.org/2000/svg">
<path opacity="0.3" d="M176.686 81.2868C178.24 79.716 178.24 77.1692 176.686 75.5983L105.925 4.03848C104.217 2.31119 101.393 2.50964 99.9379 4.45924L74.74 38.215C73.5446 39.8164 73.699 42.0639 75.102 43.4827L106.781 75.5189C108.334 77.0897 108.334 79.6366 106.781 81.2074L71.1033 117.287C69.396 119.014 69.5912 121.868 71.5174 123.34L104.968 148.91C106.551 150.12 108.775 149.965 110.179 148.545L176.686 81.2868Z" fill="#1090F9"/>
<path opacity="0.3" d="M105.164 10.3914L175.925 81.9513C177.09 83.1294 177.09 85.0395 175.925 86.2176L109.417 153.476C108.365 154.54 106.697 154.657 105.509 153.749L72.0589 128.18C70.6143 127.076 70.4678 124.935 71.7483 123.64L107.426 87.5603C109.367 85.5968 109.367 82.4132 107.426 80.4497L75.747 48.4135C74.6948 47.3494 74.579 45.6638 75.4755 44.4627L100.673 10.707C101.765 9.24476 103.883 9.09592 105.164 10.3914Z" stroke="#05BDFB" stroke-width="2"/>
<path opacity="0.3" d="M138.057 12.063C139.159 12.063 140.052 12.9563 140.052 14.0582L140.052 15.2284C140.052 15.8214 139.528 16.2776 138.941 16.1958V16.1958C138.458 16.1285 138.099 15.7157 138.099 15.2284L138.099 15.1026C138.099 14.5027 137.613 14.0164 137.013 14.0164L136.887 14.0164C136.294 14.0164 135.838 13.4922 135.92 12.9049V12.9049C135.987 12.4222 136.4 12.063 136.887 12.063L138.057 12.063Z" fill="#1090F9"/>
<path opacity="0.3" d="M171.692 41.2555C172.244 42.2121 171.916 43.4353 170.96 43.9876L168.854 45.2034C168.135 45.6185 167.215 45.3023 166.903 44.5329V44.5329C166.647 43.9006 166.896 43.1761 167.487 42.835L167.639 42.7469C168.366 42.327 168.616 41.397 168.196 40.6696L168.108 40.5171C167.693 39.7981 168.009 38.8781 168.778 38.5662V38.5662C169.41 38.3099 170.135 38.5589 170.476 39.1497L171.692 41.2555Z" fill="#1090F9"/>
<path opacity="0.3" d="M106.519 134.727C107.071 135.684 106.743 136.907 105.787 137.459L103.681 138.675C102.962 139.09 102.042 138.774 101.73 138.004V138.004C101.474 137.372 101.723 136.648 102.314 136.306L102.466 136.218C103.194 135.798 103.443 134.868 103.023 134.141L102.935 133.989C102.52 133.27 102.836 132.35 103.605 132.038V132.038C104.238 131.781 104.962 132.03 105.303 132.621L106.519 134.727Z" fill="#1090F9"/>
<path opacity="0.3" d="M171.48 107.085C170.699 106.304 170.699 105.037 171.48 104.256L175.583 100.154C176.354 99.3829 177.635 99.4969 178.258 100.392V100.392C178.743 101.088 178.659 102.031 178.059 102.631L177.13 103.56C176.357 104.333 176.357 105.586 177.13 106.359V106.359C177.963 107.192 177.889 108.563 176.971 109.302L176.555 109.636C175.76 110.276 174.61 110.214 173.887 109.492L171.48 107.085Z" fill="#1090F9"/>
<path d="M64.6455 118.292V43.8961C64.6455 38.1017 69.3397 33.4075 75.1342 33.4075H108.984C114.778 33.4075 119.473 38.1017 119.473 43.8961V118.292C119.473 124.087 114.778 128.781 108.984 128.781H75.1342C69.3397 128.781 64.6455 124.087 64.6455 118.292Z" fill="#7CDDFD"/>
<path d="M109.057 129.419H75.0608C68.9656 129.419 64.0073 124.461 64.0073 118.366V43.8227C64.0073 37.7276 68.9656 32.7693 75.0608 32.7693H109.057C115.152 32.7693 120.111 37.7276 120.111 43.8227V118.366C120.111 124.461 115.152 129.419 109.057 129.419ZM75.0608 34.0382C69.6697 34.0382 65.2836 38.4244 65.2836 43.8154V118.358C65.2836 123.749 69.6697 128.136 75.0608 128.136H109.057C114.448 128.136 118.834 123.749 118.834 118.358V43.8227C118.834 38.4317 114.448 34.0455 109.057 34.0455H75.0608V34.0382Z" fill="#054375"/>
<path d="M119.48 43.5442H64.6455V115.469H119.48V43.5442Z" fill="white"/>
<g opacity="0.14">
<path fill-rule="evenodd" clip-rule="evenodd" d="M86.8636 72.1369C87.4165 72.3803 87.925 72.7263 88.3597 73.163L93.4036 78.208C93.7688 78.5721 94.3591 78.5721 94.7243 78.208L99.7502 73.1821C100.116 72.8138 100.534 72.5099 100.988 72.2776C101.675 71.9253 102.443 71.7378 103.23 71.7404V71.7404C103.454 71.7404 103.565 71.4704 103.408 71.3125L97.4528 65.3577C95.4653 63.3692 92.2432 63.3692 90.2547 65.3566L84.5907 71.0254C84.3336 71.2827 84.5159 71.7223 84.8796 71.7223V71.7223C85.5694 71.7207 86.2444 71.8644 86.8636 72.1369ZM88.6354 70.3636C89.148 70.6705 89.6251 71.0418 90.0541 71.4725L90.056 71.4744L93.357 74.7761C93.7475 75.1667 94.3807 75.1667 94.7712 74.7761L98.0519 71.4955L98.0553 71.4921C98.1251 71.4219 98.1962 71.3532 98.2686 71.2861C98.7344 70.8544 98.8167 70.1065 98.3675 69.6574L95.7603 67.0502C94.7079 65.9972 93.0009 65.9961 91.9468 67.0495L91.9449 67.0514L88.6354 70.3636Z" fill="#054375"/>
<path fill-rule="evenodd" clip-rule="evenodd" d="M100.997 88.9677C100.54 88.7357 100.119 88.4315 99.7502 88.0623L94.7232 83.0322C94.3538 82.6786 93.772 82.6786 93.4025 83.0322L88.3586 88.0761C87.9243 88.5124 87.4164 88.8582 86.864 89.1015C86.2444 89.3744 85.5689 89.5184 84.8785 89.5168V89.5168C84.5153 89.5168 84.3334 89.9559 84.5902 90.2127L90.2643 95.8867C92.2538 97.872 95.4738 97.872 97.4634 95.8867L103.411 89.9384C103.572 89.7767 103.459 89.5003 103.23 89.4987V89.4987C102.447 89.5013 101.682 89.316 100.997 88.9677ZM98.3732 91.5915C98.823 91.1416 98.7397 90.3924 98.2723 89.961C98.199 89.8934 98.127 89.8242 98.0563 89.7533L94.7697 86.4646C94.3792 86.0739 93.7458 86.0738 93.3552 86.4644L90.055 89.7647L90.0528 89.7669C89.9298 89.8902 89.803 90.0088 89.6724 90.1223C89.1814 90.5494 89.0826 91.3201 89.5428 91.7803L91.9549 94.1924C93.0099 95.2442 94.7168 95.2451 95.7718 94.1934L98.3732 91.5915Z" fill="#054375"/>
<path fill-rule="evenodd" clip-rule="evenodd" d="M104.984 73.2193C105.155 73.2174 105.336 73.2423 105.457 73.3628L109.115 77.0205C111.102 79.009 111.104 82.2317 109.115 84.2191L105.457 87.8772C105.337 87.9976 105.154 88.0209 104.984 88.0209V88.0209H103.23C102.317 88.0188 101.443 87.6557 100.796 87.0123L95.7701 81.9875C94.8592 81.0766 93.2699 81.0766 92.3579 81.9875L87.314 87.0314C86.6675 87.6759 85.7927 88.0379 84.8796 88.0411H82.7181V88.0411C82.5569 88.043 82.3852 88.0192 82.2712 87.9052L78.5861 84.2202C76.6008 82.2306 76.6008 79.0106 78.5861 77.0211L82.2796 73.3347C82.3937 73.2208 82.5654 73.1953 82.7266 73.1991V73.1991H84.8796C85.7927 73.2012 86.6675 73.5643 87.314 74.2087L92.359 79.2505C93.3018 80.1912 94.8274 80.1912 95.7701 79.2505L100.796 74.2279C101.443 73.5845 102.317 73.2214 103.23 73.2193H104.984V73.2193ZM107.423 78.713C108.477 79.767 108.476 81.4738 107.423 82.5262L104.615 85.3345C104.427 85.522 104.173 85.6274 103.908 85.6274H103.234C102.954 85.6262 102.685 85.5148 102.485 85.3168L98.4942 81.3264C98.1035 80.9358 98.1036 80.3024 98.4943 79.9119L102.484 75.9245C102.684 75.7266 102.954 75.6139 103.234 75.6128H103.908C104.173 75.6128 104.427 75.7181 104.615 75.9056L107.423 78.713ZM85.6243 75.904L89.6344 79.9115C90.0251 80.302 90.0252 80.9353 89.6346 81.3259L85.6243 85.3362C85.4268 85.5325 85.1576 85.6458 84.8743 85.6476H83.8127C83.5475 85.6476 83.2931 85.5422 83.1056 85.3547L80.2804 82.5295C79.2286 81.4747 79.2277 79.7683 80.2789 78.7132L83.1127 75.8848C83.3002 75.6977 83.5543 75.5926 83.8192 75.5926H84.8761C85.1559 75.5938 85.4252 75.7059 85.6243 75.904Z" fill="#054375"/>
</g>
<path fill-rule="evenodd" clip-rule="evenodd" d="M85.1595 70.4336C85.7124 70.6769 86.2209 71.0229 86.6556 71.4596L91.6995 76.5046C92.0647 76.8688 92.655 76.8688 93.0202 76.5046L98.0461 71.4787C98.4118 71.1105 98.8302 70.8065 99.2836 70.5742C99.9712 70.222 100.739 70.0345 101.526 70.037H102.131L95.7487 63.6543C93.7612 61.6659 90.5391 61.6659 88.5506 63.6533L82.1902 70.019H83.1755C83.8653 70.0173 84.5403 70.1611 85.1595 70.4336ZM86.9313 68.6603C87.4439 68.9671 87.921 69.3385 88.35 69.7691L88.3519 69.7711L92.36 73.7799L96.3478 69.7921L96.3512 69.7887C96.7137 69.4242 97.1108 69.102 97.5348 68.8254L94.0562 65.3468C93.0038 64.2938 91.2968 64.2927 90.2427 65.3461L90.2408 65.348L86.9313 68.6603Z" fill="#05BDFB"/>
<path fill-rule="evenodd" clip-rule="evenodd" d="M99.2925 87.2643C98.8359 87.0324 98.4144 86.7281 98.0461 86.3589L93.0191 81.3288C92.6497 80.9753 92.0679 80.9753 91.6984 81.3288L86.6545 86.3727C86.2202 86.809 85.7123 87.1548 85.1599 87.3981C84.5403 87.6711 83.8648 87.8151 83.1744 87.8134H82.1902L88.5602 94.1833C90.5497 96.1686 93.7697 96.1686 95.7593 94.1833L102.142 87.7996L101.526 87.7953C100.743 87.7979 99.9781 87.6126 99.2925 87.2643ZM97.5426 89.0145C97.1162 88.7379 96.7168 88.4153 96.3522 88.05L92.3585 84.0537L88.3509 88.0613L88.3487 88.0635C87.9204 88.4934 87.4441 88.8642 86.9325 89.1707L90.2508 92.4891C91.3058 93.5408 93.0127 93.5417 94.0677 92.49L97.5426 89.0145Z" fill="#05BDFB"/>
<path fill-rule="evenodd" clip-rule="evenodd" d="M103.554 71.4607L107.41 75.3172C109.398 77.3057 109.4 80.5283 107.411 82.5157L103.554 86.3727C103.467 86.3366 103.375 86.3175 103.28 86.3175H101.526C100.613 86.3154 99.7384 85.9523 99.0919 85.3089L94.066 80.2841C93.1551 79.3732 91.5658 79.3732 90.6538 80.2841L85.6099 85.3281C84.9634 85.9725 84.0886 86.3345 83.1755 86.3377H81.014C80.9248 86.3388 80.8378 86.3568 80.755 86.3897L76.882 82.5168C74.8967 80.5272 74.8967 77.3072 76.882 75.3177L80.7635 71.4437C80.8463 71.4766 80.9333 71.4936 81.0225 71.4957H83.1755C84.0886 71.4979 84.9634 71.8609 85.6099 72.5054L90.6549 77.5472C91.5977 78.4878 93.1233 78.4878 94.066 77.5472L99.0919 72.5245C99.7384 71.8811 100.613 71.518 101.526 71.5159H103.28C103.375 71.5148 103.467 71.4957 103.554 71.4607ZM105.719 77.0096C106.773 78.0637 106.772 79.7704 105.719 80.8228L102.618 83.924H101.53C101.25 83.9228 100.981 83.8114 100.781 83.6135L96.0826 78.9157L100.78 74.2211C100.98 74.0232 101.25 73.9106 101.53 73.9094H102.618L105.719 77.0096ZM83.9202 74.2006L88.6378 78.9152L83.9202 83.6328C83.7227 83.8292 83.4535 83.9424 83.1702 83.9442H81.6944L78.5763 80.8261C77.5245 79.7713 77.5236 78.065 78.5748 77.0098L81.7014 73.8892H83.172C83.4518 73.8904 83.7211 74.0025 83.9202 74.2006Z" fill="#05BDFB"/>
<path d="M119.473 116.107H64.6381C64.2861 116.107 64 115.821 64 115.469V43.5441C64 43.1921 64.2861 42.906 64.6381 42.906H119.473C119.825 42.906 120.111 43.1921 120.111 43.5441V115.469C120.111 115.821 119.832 116.107 119.473 116.107ZM65.2836 114.83H118.842V44.1823H65.2836V114.83Z" fill="#054375"/>
<path d="M97.5566 121.277H87.6767C87.3246 121.277 87.0386 120.991 87.0386 120.639C87.0386 120.287 87.3246 120.001 87.6767 120.001H97.5566C97.9086 120.001 98.1947 120.287 98.1947 120.639C98.1947 120.991 97.9086 121.277 97.5566 121.277Z" fill="#054375"/>
<g opacity="0.1294">
<path d="M115.805 43.676C113.935 43.6246 112.065 43.5366 110.194 43.5586C105.163 43.5073 100.124 43.5146 95.0847 43.5806C91.1239 43.61 87.1632 43.7713 83.2024 43.5073C78.3468 43.3606 73.4912 43.0672 68.6283 43.2652C67.9461 43.2799 67.264 43.2726 66.5819 43.2432C66.1711 43.2139 65.7311 43.1552 65.357 43.3679C63.5013 44.0794 64.0807 46.9546 66.0758 46.9326C68.4449 47.1013 70.8287 46.9179 73.1978 46.9693C76.0291 46.9546 78.8529 47.1893 81.6841 47.248C92.2462 47.314 102.815 47.358 113.378 47.1673C114.778 47.1893 116.187 47.16 117.588 47.1306C118.747 47.2627 119.927 46.7125 119.942 45.407C119.795 43.1552 117.375 43.7566 115.805 43.676Z" fill="#054375"/>
</g>
<path d="M128.674 54.9861C115.398 54.9861 104.638 66.1642 104.638 79.9535C104.638 85.66 106.487 90.9116 109.582 95.1144L106.641 107.195L116.726 101.613C120.246 103.711 124.325 104.921 128.674 104.921C141.95 104.921 152.71 93.7428 152.71 79.9535C152.71 66.1642 141.95 54.9861 128.674 54.9861Z" fill="white"/>
<path d="M106.64 107.833C106.501 107.833 106.369 107.789 106.252 107.701C106.054 107.547 105.958 107.29 106.017 107.041L108.892 95.2464C105.694 90.7942 104 85.5132 104 79.9462C104 65.8268 115.068 54.3406 128.674 54.3406C142.28 54.3406 153.348 65.8268 153.348 79.9462C153.348 94.0655 142.28 105.552 128.674 105.552C124.493 105.552 120.364 104.444 116.711 102.339L106.941 107.745C106.853 107.811 106.743 107.833 106.64 107.833ZM128.674 55.6242C115.772 55.6242 105.276 66.5382 105.276 79.9535C105.276 85.3445 106.941 90.4568 110.095 94.733C110.205 94.887 110.249 95.0777 110.198 95.2611L107.601 105.926L116.41 101.048C116.608 100.938 116.85 100.938 117.048 101.056C120.576 103.161 124.596 104.275 128.674 104.275C141.576 104.275 152.072 93.3614 152.072 79.9462C152.072 66.5309 141.576 55.6242 128.674 55.6242Z" fill="#054375"/>
<path d="M74.7381 97.7845C74.6794 97.7845 74.628 97.7625 74.584 97.7185C74.5034 97.6305 74.5034 97.4984 74.5914 97.4177L92.3635 80.4158C92.4515 80.3351 92.5835 80.3351 92.6642 80.4232C92.7449 80.5112 92.7449 80.6432 92.6568 80.7239L74.8848 97.7258C74.8408 97.7625 74.7894 97.7845 74.7381 97.7845Z" fill="#054375"/>
<path d="M74.5105 104.554C74.4592 104.554 74.4005 104.532 74.3638 104.496C74.2758 104.415 74.2758 104.283 74.3565 104.195C80.3196 97.9897 86.4662 91.7845 92.62 85.7407C92.708 85.66 92.84 85.66 92.9207 85.7407C93.0014 85.8214 93.0014 85.9607 92.9207 86.0414C86.7742 92.0779 80.6277 98.2831 74.6646 104.488C74.6279 104.532 74.5692 104.554 74.5105 104.554Z" fill="#054375"/>
<path d="M80.4225 104.437C80.3712 104.437 80.3125 104.415 80.2758 104.378C80.1952 104.298 80.1952 104.158 80.2758 104.078L93.6911 90.4791C93.7718 90.3984 93.9111 90.391 93.9918 90.4791C94.0725 90.5597 94.0798 90.6991 93.9918 90.7798L80.5766 104.378C80.5326 104.415 80.4739 104.437 80.4225 104.437Z" fill="#054375"/>
<path d="M86.5252 104.731C86.4738 104.731 86.4225 104.709 86.3785 104.672C86.2905 104.591 86.2905 104.459 86.3711 104.371C89.2757 101.349 92.1363 98.2026 94.8574 95.012C94.9308 94.924 95.0702 94.9093 95.1582 94.99C95.2462 95.0634 95.2609 95.2027 95.1802 95.2907C92.4517 98.4887 89.5911 101.643 86.6792 104.672C86.6426 104.709 86.5839 104.731 86.5252 104.731Z" fill="#054375"/>
<path d="M92.686 104.532C92.6347 104.532 92.5833 104.518 92.5466 104.481C92.4586 104.4 92.4513 104.268 92.5246 104.18L96.0746 100.088C96.1553 99.9996 96.2873 99.9923 96.3753 100.066C96.4634 100.146 96.4707 100.278 96.3974 100.366L92.8473 104.459C92.8033 104.51 92.7447 104.532 92.686 104.532Z" fill="#054375"/>
<g opacity="0.1294">
<path d="M127.605 104.159C127.319 104.071 127.04 104.108 126.762 104.174C126.659 104.181 126.549 104.181 126.446 104.181C125.243 103.968 124.436 103.961 121.994 103.073C121.935 103.051 121.884 103.029 121.825 103.007C121.723 102.956 121.283 102.743 121.099 102.663C120.285 102.289 119.427 102.032 118.569 101.753C117.865 101.54 117.212 101.13 116.456 101.093C116.126 101.115 115.774 101.181 115.503 101.372C115.275 101.504 115.041 101.621 114.806 101.738C113.016 102.582 111.249 103.484 109.525 104.452C108.806 104.87 108.065 105.237 107.303 105.56C106.951 105.729 106.532 105.824 106.32 106.176C105.498 107.144 106.532 108.684 107.75 108.31C110.706 107.108 113.5 105.553 116.39 104.203C118.18 105.046 120.146 105.391 121.972 106.154C123.505 106.609 125.104 107.254 126.725 106.99C126.6 107.005 126.468 107.027 126.344 107.042C126.879 107.034 127.473 107.122 127.957 106.836C129.065 106.213 128.845 104.482 127.605 104.159Z" fill="#054375"/>
</g>
<path fill-rule="evenodd" clip-rule="evenodd" d="M118.896 78.7758C118.896 74.197 122.608 70.4851 127.187 70.4851C131.766 70.4851 135.478 74.197 135.478 78.7758C135.478 81.0138 134.591 83.0448 133.15 84.5364C133.112 84.5646 133.076 84.5959 133.041 84.6302C133.007 84.6645 132.976 84.7006 132.948 84.7383C131.456 86.1797 129.425 87.0664 127.187 87.0664C122.608 87.0664 118.896 83.3546 118.896 78.7758ZM133.722 86.7253C131.945 88.1881 129.669 89.0664 127.187 89.0664C121.504 89.0664 116.896 84.4592 116.896 78.7758C116.896 73.0924 121.504 68.4851 127.187 68.4851C132.871 68.4851 137.478 73.0924 137.478 78.7758C137.478 81.2574 136.599 83.5338 135.137 85.3111L139.507 89.682C139.898 90.0725 139.898 90.7057 139.507 91.0962C139.117 91.4867 138.484 91.4867 138.093 91.0962L133.722 86.7253Z" fill="#1954F5"/>
</svg>
