<svg width="213" height="109" viewBox="0 0 213 109" fill="none" xmlns="http://www.w3.org/2000/svg">
<g clip-path="url(#clip0_752_339)">
<rect x="52.7549" y="5" width="108" height="28.0391" rx="8" fill="#F5F7F9"/>
<path d="M79.6812 22.6869L76.3968 20.6703L76.456 24.4112H74.4143L74.4735 20.6411L71.13 22.6869L70.0352 21.0211L73.5858 18.946L70.0943 16.9002L71.2187 15.2636L74.4735 17.2802L74.4143 13.627H76.456L76.3968 17.2509L79.622 15.2636L80.776 16.9002L77.2845 18.946L80.8352 21.0211L79.6812 22.6869Z" fill="#A9E9FF"/>
<path d="M100.201 22.6869L96.9163 20.6703L96.9755 24.4112H94.9339L94.993 20.6411L91.6495 22.6869L90.5547 21.0211L94.1054 18.946L90.6139 16.9002L91.7382 15.2636L94.993 17.2802L94.9339 13.627H96.9755L96.9163 17.2509L100.142 15.2636L101.296 16.9002L97.804 18.946L101.355 21.0211L100.201 22.6869Z" fill="#A9E9FF"/>
<path d="M120.721 22.6869L117.437 20.6703L117.496 24.4112H115.454L115.514 20.6411L112.17 22.6869L111.075 21.0211L114.626 18.946L111.134 16.9002L112.259 15.2636L115.514 17.2802L115.454 13.627H117.496L117.437 17.2509L120.662 15.2636L121.816 16.9002L118.325 18.946L121.875 21.0211L120.721 22.6869Z" fill="#A9E9FF"/>
<path d="M141.242 22.6869L137.957 20.6703L138.017 24.4112H135.975L136.034 20.6411L132.69 22.6869L131.596 21.0211L135.146 18.946L131.655 16.9002L132.779 15.2636L136.034 17.2802L135.975 13.627H138.017L137.957 17.2509L141.183 15.2636L142.337 16.9002L138.845 18.946L142.396 21.0211L141.242 22.6869Z" fill="#A9E9FF"/>
<path d="M128.711 40.8649V62.9863H122.43V40.8649C122.43 32.4525 116.011 25.6122 108.114 25.6122C100.217 25.6122 93.7974 32.4525 93.7974 40.8649V62.9863H87.5166V40.8649C87.5166 28.8171 96.7562 19.0196 108.114 19.0196C119.472 19.0196 128.711 28.8171 128.711 40.8649Z" fill="url(#paint0_linear_752_339)"/>
<path d="M79.6279 98.5566C79.6279 100.766 81.4188 102.557 83.6279 102.557H132.599C134.808 102.557 136.599 100.766 136.599 98.5566V54.6759C136.599 52.4668 134.808 50.6759 132.599 50.6759H83.6279C81.4188 50.6759 79.6279 52.4668 79.6279 54.6759V98.5566Z" fill="#CFF3FF"/>
<path fill-rule="evenodd" clip-rule="evenodd" d="M110.035 76.1902C111.14 75.3601 111.855 74.0385 111.855 72.5499C111.855 70.0371 109.818 68 107.305 68C104.792 68 102.755 70.0371 102.755 72.5499C102.755 74.0385 103.47 75.3601 104.575 76.1902V86.27C104.575 87.7777 105.797 89 107.305 89C108.813 89 110.035 87.7777 110.035 86.27V76.1902Z" fill="#05BDFB"/>
<path opacity="0.2" fill-rule="evenodd" clip-rule="evenodd" d="M71.0139 68.0449C69.2141 68.0449 66.2066 68.7398 63.3764 69.5134C60.4811 70.3 57.5622 71.2309 55.8459 71.7947C55.1283 72.0329 54.4921 72.4698 54.0104 73.0552C53.5287 73.6405 53.221 74.3506 53.1227 75.1039C51.5681 86.8435 55.1755 95.5439 59.5525 101.3C61.4086 103.762 63.6217 105.93 66.1179 107.732C67.1247 108.448 68.0586 108.996 68.8515 109.371C69.5819 109.717 70.367 110 71.0139 110C71.6608 110 72.4433 109.717 73.1763 109.371C74.1322 108.904 75.0468 108.355 75.9099 107.732C78.4062 105.93 80.6193 103.762 82.4753 101.3C86.8523 95.5439 90.4597 86.8435 88.9051 75.1039C88.807 74.3503 88.4994 73.6398 88.0177 73.0539C87.536 72.4681 86.8997 72.0307 86.1819 71.792C83.6904 70.9708 81.1795 70.2101 78.6514 69.5107C75.8212 68.7424 72.8137 68.0449 71.0139 68.0449Z" fill="#D7DEE5"/>
<path d="M64.1662 70.2175L64.1673 70.2172C66.8406 69.4863 69.5659 68.8652 71.1375 68.8652C72.7089 68.8652 75.4327 69.4884 78.1072 70.2146C80.4672 70.8677 82.8112 71.578 85.1372 72.3448C85.676 72.5243 86.1542 72.8529 86.5166 73.2938C86.8792 73.7349 87.1111 74.2704 87.1851 74.8387L87.1853 74.8404C88.6155 85.6431 85.2993 93.6156 81.2973 98.8796L81.2953 98.8821C79.5985 101.134 77.5753 103.116 75.2935 104.764L75.2933 104.764C74.5192 105.323 73.6992 105.815 72.8422 106.234C72.1691 106.552 71.5657 106.751 71.1375 106.751C70.7081 106.751 70.1002 106.551 69.4293 106.233L69.4287 106.232C68.7318 105.903 67.8942 105.413 66.9795 104.762C64.6985 103.115 62.676 101.133 60.9796 98.8821L60.9777 98.8796C56.9757 93.6156 53.6595 85.6431 55.0897 74.8404L55.0899 74.839C55.164 74.2709 55.3959 73.7359 55.7585 73.2952C56.1208 72.8548 56.5987 72.5265 57.1372 72.3475C58.7433 71.8198 61.4679 70.9508 64.1662 70.2175Z" fill="url(#paint1_linear_752_339)" stroke="url(#paint2_linear_752_339)" stroke-width="1.5"/>
<mask id="path-11-inside-1_752_339" fill="white">
<path fill-rule="evenodd" clip-rule="evenodd" d="M63.3764 68.3317C66.2066 67.5582 69.2141 66.8633 71.0139 66.8633C72.8137 66.8633 75.8212 67.5608 78.6514 68.3291C81.1795 69.0285 83.6904 69.7892 86.1819 70.6104C86.8997 70.8491 87.536 71.2865 88.0177 71.8723C88.4994 72.4581 88.807 73.1686 88.9051 73.9222C90.4598 85.6618 86.8523 94.3623 82.4753 100.118C80.6193 102.58 78.4062 104.748 75.9099 106.55C75.0468 107.174 74.1322 107.722 73.1763 108.189C72.4433 108.535 71.6608 108.818 71.0139 108.818C70.367 108.818 69.5819 108.535 68.8515 108.189C68.0586 107.814 67.1247 107.266 66.1179 106.55C63.6217 104.748 61.4086 102.58 59.5525 100.118C55.1755 94.3623 51.5681 85.6618 53.1227 73.9222C53.221 73.169 53.5287 72.4589 54.0104 71.8735C54.4921 71.2881 55.1283 70.8513 55.8459 70.613C57.5622 70.0493 60.4811 69.1184 63.3764 68.3317ZM63.9695 69.4931C66.6257 68.7669 69.4483 68.1146 71.1375 68.1146C72.8266 68.1146 75.6493 68.7694 78.3054 69.4907C80.6781 70.1472 83.0346 70.8613 85.373 71.6323C86.0467 71.8564 86.6438 72.2669 87.0959 72.8169C87.548 73.3668 87.8367 74.0338 87.9288 74.7413C89.3878 85.762 86.0021 93.9297 81.8943 99.3329C80.1523 101.644 78.0753 103.68 75.7325 105.371C74.9224 105.957 74.0641 106.471 73.1669 106.91C72.479 107.235 71.7446 107.501 71.1375 107.501C70.5303 107.501 69.7935 107.235 69.108 106.91C68.3638 106.558 67.4874 106.043 66.5424 105.371C64.1997 103.68 62.1226 101.644 60.3806 99.3329C56.2728 93.9297 52.8871 85.762 54.3461 74.7413C54.4384 74.0342 54.7272 73.3676 55.1793 72.818C55.6314 72.2685 56.2284 71.8584 56.9019 71.6347C58.5128 71.1055 61.2522 70.2316 63.9695 69.4931Z"/>
</mask>
<path fill-rule="evenodd" clip-rule="evenodd" d="M63.3764 68.3317C66.2066 67.5582 69.2141 66.8633 71.0139 66.8633C72.8137 66.8633 75.8212 67.5608 78.6514 68.3291C81.1795 69.0285 83.6904 69.7892 86.1819 70.6104C86.8997 70.8491 87.536 71.2865 88.0177 71.8723C88.4994 72.4581 88.807 73.1686 88.9051 73.9222C90.4598 85.6618 86.8523 94.3623 82.4753 100.118C80.6193 102.58 78.4062 104.748 75.9099 106.55C75.0468 107.174 74.1322 107.722 73.1763 108.189C72.4433 108.535 71.6608 108.818 71.0139 108.818C70.367 108.818 69.5819 108.535 68.8515 108.189C68.0586 107.814 67.1247 107.266 66.1179 106.55C63.6217 104.748 61.4086 102.58 59.5525 100.118C55.1755 94.3623 51.5681 85.6618 53.1227 73.9222C53.221 73.169 53.5287 72.4589 54.0104 71.8735C54.4921 71.2881 55.1283 70.8513 55.8459 70.613C57.5622 70.0493 60.4811 69.1184 63.3764 68.3317ZM63.9695 69.4931C66.6257 68.7669 69.4483 68.1146 71.1375 68.1146C72.8266 68.1146 75.6493 68.7694 78.3054 69.4907C80.6781 70.1472 83.0346 70.8613 85.373 71.6323C86.0467 71.8564 86.6438 72.2669 87.0959 72.8169C87.548 73.3668 87.8367 74.0338 87.9288 74.7413C89.3878 85.762 86.0021 93.9297 81.8943 99.3329C80.1523 101.644 78.0753 103.68 75.7325 105.371C74.9224 105.957 74.0641 106.471 73.1669 106.91C72.479 107.235 71.7446 107.501 71.1375 107.501C70.5303 107.501 69.7935 107.235 69.108 106.91C68.3638 106.558 67.4874 106.043 66.5424 105.371C64.1997 103.68 62.1226 101.644 60.3806 99.3329C56.2728 93.9297 52.8871 85.762 54.3461 74.7413C54.4384 74.0342 54.7272 73.3676 55.1793 72.818C55.6314 72.2685 56.2284 71.8584 56.9019 71.6347C58.5128 71.1055 61.2522 70.2316 63.9695 69.4931Z" fill="#F5F7F9"/>
<path d="M63.3764 68.3317L63.9008 70.2617L63.9037 70.2609L63.3764 68.3317ZM78.6514 68.3291L79.1847 66.4015L79.1754 66.3989L78.6514 68.3291ZM86.1819 70.6104L86.813 68.7126L86.808 68.7109L86.1819 70.6104ZM88.9051 73.9222L86.9219 74.1805L86.9224 74.1848L88.9051 73.9222ZM82.4753 100.118L80.8834 98.9074L80.8783 98.9141L82.4753 100.118ZM75.9099 106.55L74.7394 104.929L74.7388 104.929L75.9099 106.55ZM73.1763 108.189L74.0303 109.998L74.0424 109.992L74.0543 109.986L73.1763 108.189ZM68.8515 108.189L69.708 106.382L69.7065 106.381L68.8515 108.189ZM66.1179 106.55L64.9473 108.172L64.9531 108.176L64.959 108.18L66.1179 106.55ZM59.5525 100.118L61.1495 98.914L61.1444 98.9074L59.5525 100.118ZM53.1227 73.9222L55.1054 74.1848L55.1059 74.1811L53.1227 73.9222ZM54.0104 71.8735L55.5547 73.1444L55.5547 73.1444L54.0104 71.8735ZM55.8459 70.613L55.2217 68.7129L55.2157 68.7149L55.8459 70.613ZM63.9695 69.4931L64.494 71.4231L64.4969 71.4223L63.9695 69.4931ZM78.3054 69.4907L78.8388 67.5631L78.8295 67.5606L78.3054 69.4907ZM85.373 71.6323L86.0042 69.7345L85.9992 69.7328L85.373 71.6323ZM87.9288 74.7413L85.9455 74.9995L85.9461 75.0038L87.9288 74.7413ZM81.8943 99.3329L80.3021 98.1225L80.2971 98.1292L81.8943 99.3329ZM75.7325 105.371L74.5617 103.75L74.5612 103.75L75.7325 105.371ZM73.1669 106.91L74.0211 108.718L74.0332 108.713L74.0451 108.707L73.1669 106.91ZM69.108 106.91L69.9647 105.103L69.9632 105.102L69.108 106.91ZM66.5424 105.371L65.3716 106.993L65.3775 106.997L65.3833 107.001L66.5424 105.371ZM60.3806 99.3329L61.9778 98.1292L61.9728 98.1225L60.3806 99.3329ZM54.3461 74.7413L56.3289 75.0038L56.3293 75.0001L54.3461 74.7413ZM56.9019 71.6347L56.2777 69.7347L56.2716 69.7366L56.9019 71.6347ZM71.0139 64.8633C68.9007 64.8633 65.6336 65.6414 62.8491 66.4025L63.9037 70.2609C66.7795 69.4749 69.5275 68.8633 71.0139 68.8633V64.8633ZM79.1754 66.3989C76.3957 65.6443 73.1268 64.8633 71.0139 64.8633V68.8633C72.5006 68.8633 75.2468 69.4772 78.1274 70.2592L79.1754 66.3989ZM86.808 68.7109C84.2858 67.8796 81.7439 67.1095 79.1847 66.4015L78.1181 70.2567C80.615 70.9475 83.095 71.6988 85.5558 72.5099L86.808 68.7109ZM89.5625 70.602C88.8421 69.7259 87.8894 69.0705 86.813 68.7126L85.5508 72.5082C85.91 72.6277 86.2299 72.847 86.4729 73.1425L89.5625 70.602ZM90.8884 73.664C90.7419 72.5394 90.2828 71.4781 89.5625 70.602L86.4729 73.1425C86.716 73.4382 86.872 73.7978 86.9219 74.1805L90.8884 73.664ZM84.0673 101.329C88.7266 95.2017 92.5194 85.9807 90.8878 73.6597L86.9224 74.1848C88.4001 85.343 84.978 93.5229 80.8834 98.9074L84.0673 101.329ZM77.0805 108.172C79.7393 106.253 82.0961 103.944 84.0724 101.322L80.8783 98.9141C79.1425 101.217 77.0731 103.244 74.7394 104.929L77.0805 108.172ZM74.0543 109.986C75.1129 109.469 76.1255 108.862 77.081 108.172L74.7388 104.929C73.9681 105.486 73.1516 105.975 72.2983 106.392L74.0543 109.986ZM71.0139 110.818C72.1353 110.818 73.2627 110.36 74.0303 109.998L72.3223 106.381C71.624 106.71 71.1862 106.818 71.0139 106.818V110.818ZM67.995 109.996C68.7641 110.361 69.893 110.818 71.0139 110.818V106.818C70.841 106.818 70.3997 106.71 69.708 106.382L67.995 109.996ZM64.959 108.18C66.0439 108.952 67.0792 109.563 67.9965 109.997L69.7065 106.381C69.0379 106.065 68.2056 105.581 67.2768 104.92L64.959 108.18ZM57.9554 101.322C59.9318 103.944 62.2886 106.253 64.9473 108.172L67.2885 104.929C64.9548 103.244 62.8853 101.217 61.1495 98.9141L57.9554 101.322ZM51.14 73.6597C49.5084 85.9807 53.3012 95.2017 57.9605 101.329L61.1444 98.9074C57.0498 93.5229 53.6277 85.343 55.1054 74.1848L51.14 73.6597ZM52.4661 70.6027C51.7456 71.4782 51.2862 72.5392 51.1395 73.6634L55.1059 74.1811C55.1558 73.7988 55.3118 73.4396 55.5547 73.1444L52.4661 70.6027ZM55.2157 68.7149C54.1394 69.0722 53.1866 69.727 52.4661 70.6027L55.5547 73.1444C55.7976 72.8493 56.1172 72.6303 56.476 72.5112L55.2157 68.7149ZM62.852 66.4017C59.9078 67.2016 56.9513 68.1448 55.2217 68.7129L56.47 72.5131C58.1732 71.9537 61.0544 71.0351 63.9008 70.2617L62.852 66.4017ZM71.1375 66.1146C69.1348 66.1146 66.0526 66.8502 63.4421 67.5639L64.4969 71.4223C67.1988 70.6837 69.7618 70.1146 71.1375 70.1146V66.1146ZM78.8295 67.5606C76.2238 66.853 73.1398 66.1146 71.1375 66.1146V70.1146C72.5135 70.1146 75.0747 70.6858 77.7813 71.4208L78.8295 67.5606ZM85.9992 69.7328C83.6301 68.9518 81.2427 68.2283 78.8388 67.5631L77.772 71.4182C80.1135 72.0662 82.4391 72.7709 84.7468 73.5317L85.9992 69.7328ZM88.6409 71.5468C87.9502 70.7066 87.0366 70.0779 86.0042 69.7345L84.7417 73.53C85.0567 73.6348 85.3375 73.8273 85.5509 74.0869L88.6409 71.5468ZM89.912 74.4831C89.7717 73.4048 89.3315 72.387 88.6409 71.5468L85.5509 74.0869C85.7645 74.3467 85.9017 74.6629 85.9455 74.9995L89.912 74.4831ZM83.4864 100.543C87.8765 94.7688 91.4475 86.0807 89.9115 74.4788L85.9461 75.0038C87.3282 85.4432 84.1278 93.0905 80.3022 98.1225L83.4864 100.543ZM76.9032 106.993C79.4086 105.184 81.6293 103.008 83.4915 100.537L80.2971 98.1292C78.6754 100.281 76.742 102.176 74.5617 103.75L76.9032 106.993ZM74.0451 108.707C75.0449 108.218 76.0013 107.644 76.9038 106.992L74.5612 103.75C73.8435 104.269 73.0833 104.725 72.2887 105.113L74.0451 108.707ZM71.1375 109.501C72.2192 109.501 73.2985 109.06 74.0211 108.718L72.3127 105.101C71.6595 105.41 71.2699 105.501 71.1375 105.501V109.501ZM68.2513 108.717C68.9755 109.06 70.0563 109.501 71.1375 109.501V105.501C71.0044 105.501 70.6115 105.409 69.9647 105.103L68.2513 108.717ZM65.3833 107.001C66.4064 107.729 67.3842 108.307 68.2529 108.718L69.9632 105.102C69.3434 104.809 68.5684 104.358 67.7015 103.741L65.3833 107.001ZM58.7835 100.537C60.6457 103.008 62.8664 105.184 65.3716 106.993L67.7132 103.75C65.533 102.176 63.5996 100.281 61.9778 98.1292L58.7835 100.537ZM52.3634 74.4788C50.8274 86.0807 54.3984 94.7688 58.7885 100.543L61.9728 98.1225C58.1471 93.0905 54.9468 85.4432 56.3288 75.0038L52.3634 74.4788ZM53.6348 71.5474C52.944 72.3871 52.5036 73.4045 52.363 74.4825L56.3293 75.0001C56.3732 74.6638 56.5104 74.348 56.7238 74.0887L53.6348 71.5474ZM56.2716 69.7366C55.2393 70.0794 54.3257 70.7076 53.6348 71.5474L56.7238 74.0887C56.937 73.8294 57.2176 73.6373 57.5322 73.5328L56.2716 69.7366ZM63.445 67.5631C60.6787 68.3149 57.9016 69.2011 56.2777 69.7347L57.5262 73.5348C59.1239 73.0099 61.8256 72.1483 64.494 71.4231L63.445 67.5631Z" fill="url(#paint3_linear_752_339)" mask="url(#path-11-inside-1_752_339)"/>
<circle cx="70.7549" cy="87" r="7" fill="url(#paint4_linear_752_339)"/>
<path d="M78.4194 81.4211C78.7043 81.0958 78.7041 80.5686 78.4189 80.2436C78.1337 79.9186 77.6716 79.9188 77.3867 80.2442L70.6039 87.9895L68.9306 86.0807C68.6455 85.7555 68.1834 85.7555 67.8984 86.0807C67.6133 86.4058 67.6133 86.933 67.8984 87.2582L70.088 89.7561C70.2249 89.9123 70.4107 90.0001 70.6043 90C70.798 89.9999 70.9836 89.9121 71.1205 89.7558L78.4194 81.4211Z" fill="#05BDFB"/>
<path d="M123.755 99.2437L134.041 90" stroke="#05BDFB" stroke-width="0.8" stroke-linecap="round"/>
<path d="M124.783 106.433L141.24 91.0273" stroke="#05BDFB" stroke-width="0.8" stroke-linecap="round"/>
</g>
<defs>
<linearGradient id="paint0_linear_752_339" x1="108.114" y1="62.9863" x2="108.114" y2="19.0196" gradientUnits="userSpaceOnUse">
<stop stop-color="#CEF3FF"/>
<stop offset="1" stop-color="#62D7FF"/>
</linearGradient>
<linearGradient id="paint1_linear_752_339" x1="66.5894" y1="80.345" x2="85.4963" y2="115.882" gradientUnits="userSpaceOnUse">
<stop stop-color="#EEF3F5"/>
<stop offset="1" stop-color="white"/>
</linearGradient>
<linearGradient id="paint2_linear_752_339" x1="66.0519" y1="76.0313" x2="83.3393" y2="109.417" gradientUnits="userSpaceOnUse">
<stop stop-color="#C2F0FF"/>
<stop offset="1" stop-color="#D0F1FF"/>
</linearGradient>
<linearGradient id="paint3_linear_752_339" x1="50.5739" y1="71.2395" x2="94.0116" y2="111.11" gradientUnits="userSpaceOnUse">
<stop stop-color="#5ED6FF"/>
<stop offset="1" stop-color="#A4E7FE"/>
</linearGradient>
<linearGradient id="paint4_linear_752_339" x1="68.8458" y1="83.8182" x2="80.3003" y2="97.1818" gradientUnits="userSpaceOnUse">
<stop stop-color="#BAEEFF"/>
<stop offset="1" stop-color="#DCF6FF"/>
</linearGradient>
<clipPath id="clip0_752_339">
<rect width="212" height="109" fill="white" transform="translate(0.754883)"/>
</clipPath>
</defs>
</svg>
