<svg width="208" height="160" viewBox="0 0 208 160" fill="none" xmlns="http://www.w3.org/2000/svg">
<path opacity="0.3" d="M176.687 80.5173C178.24 78.9465 178.24 76.3997 176.687 74.8288L105.925 3.26894C104.217 1.54166 101.394 1.74011 99.9384 3.68971L74.7405 37.4455C73.5451 39.0469 73.6995 41.2944 75.1025 42.7132L106.781 74.7494C108.335 76.3202 108.335 78.867 106.781 80.4379L71.1038 116.518C69.3965 118.244 69.5917 121.099 71.5179 122.571L104.968 148.14C106.552 149.351 108.775 149.195 110.179 147.775L176.687 80.5173Z" fill="#1090F9"/>
<path opacity="0.3" d="M175.925 81.1825C177.09 82.3606 177.09 84.2707 175.925 85.4488L109.417 152.707C108.365 153.772 106.697 153.888 105.509 152.98L72.0589 127.411C70.6143 126.307 70.4678 124.166 71.7483 122.872L107.426 86.7915C109.367 84.828 109.367 81.6444 107.426 79.6809L75.747 47.6447C74.6948 46.5806 74.579 44.895 75.4755 43.6939L100.673 9.93816C101.765 8.47596 103.883 8.32712 105.164 9.62258L175.925 81.1825Z" stroke="#05BDFB" stroke-width="2"/>
<path opacity="0.3" d="M138.058 11.293C139.16 11.293 140.053 12.1862 140.053 13.2882L140.053 14.4584C140.053 15.0514 139.529 15.5076 138.942 15.4258C138.459 15.3585 138.1 14.9457 138.1 14.4584L138.1 14.3326C138.1 13.7327 137.614 13.2464 137.014 13.2464L136.888 13.2464C136.295 13.2464 135.839 12.7222 135.921 12.1349C135.988 11.6522 136.401 11.293 136.888 11.293L138.058 11.293Z" fill="#1090F9"/>
<path opacity="0.3" d="M171.691 40.486C172.243 41.4426 171.915 42.6658 170.959 43.2181L168.853 44.4339C168.134 44.849 167.214 44.5328 166.902 43.7634C166.646 43.1311 166.895 42.4066 167.486 42.0655L167.638 41.9774C168.365 41.5575 168.615 40.6274 168.195 39.9001L168.107 39.7476C167.692 39.0286 168.008 38.1086 168.777 37.7967C169.409 37.5403 170.134 37.7893 170.475 38.3802L171.691 40.486Z" fill="#1090F9"/>
<path opacity="0.3" d="M106.519 133.957C107.071 134.913 106.743 136.136 105.787 136.689L103.681 137.905C102.962 138.32 102.042 138.003 101.73 137.234C101.474 136.602 101.723 135.877 102.314 135.536L102.466 135.448C103.194 135.028 103.443 134.098 103.023 133.371L102.935 133.218C102.52 132.499 102.836 131.579 103.605 131.267C104.238 131.011 104.962 131.26 105.303 131.851L106.519 133.957Z" fill="#1090F9"/>
<path opacity="0.3" d="M171.48 106.316C170.699 105.535 170.699 104.269 171.48 103.488L175.583 99.3856C176.354 98.6143 177.635 98.7283 178.258 99.6237C178.743 100.32 178.659 101.263 178.059 101.862L177.13 102.791C176.357 103.564 176.357 104.818 177.13 105.591C177.963 106.424 177.889 107.795 176.971 108.533L176.555 108.867C175.76 109.508 174.61 109.446 173.887 108.723L171.48 106.316Z" fill="#1090F9"/>
<path d="M122.825 83.5558C122.817 83.556 122.807 83.5538 122.8 83.5515C122.762 83.5377 122.744 83.4984 122.755 83.4608L127.722 69.276C127.735 69.2383 127.775 69.2198 127.812 69.2312C127.85 69.245 127.868 69.2843 127.857 69.3219L122.891 83.5068C122.882 83.5368 122.855 83.555 122.825 83.5558Z" fill="#054375"/>
<path d="M121.831 79.8293C121.823 79.8295 121.813 79.8273 121.806 79.825C121.768 79.8111 121.75 79.7718 121.761 79.7342L126.727 65.5494C126.741 65.5117 126.781 65.4932 126.818 65.5046C126.856 65.5185 126.874 65.5577 126.863 65.5954L121.897 79.7802C121.887 79.8103 121.861 79.8284 121.831 79.8293Z" fill="#054375"/>
<path d="M120.091 76.3488C120.083 76.349 120.073 76.3468 120.066 76.3445C120.028 76.3306 120.009 76.2914 120.021 76.2538L124.987 62.0689C125.001 62.0312 125.04 62.0127 125.078 62.0241C125.116 62.038 125.134 62.0773 125.123 62.1149L120.156 76.2997C120.147 76.3298 120.12 76.348 120.091 76.3488Z" fill="#054375"/>
<path d="M122.964 88.5422C122.956 88.5424 122.946 88.5402 122.939 88.5379C122.901 88.524 122.882 88.4847 122.894 88.4471L127.86 74.2623C127.874 74.2246 127.913 74.2061 127.951 74.2175C127.989 74.2314 128.007 74.2706 127.996 74.3082L123.029 88.4931C123.02 88.5232 122.993 88.5413 122.964 88.5422Z" fill="#054375"/>
<path d="M123.102 93.5285C123.095 93.5287 123.085 93.5265 123.077 93.5242C123.04 93.5103 123.021 93.4711 123.033 93.4334L127.999 79.2486C128.013 79.2109 128.052 79.1924 128.09 79.2038C128.127 79.2177 128.146 79.257 128.134 79.2946L123.168 93.4794C123.159 93.5095 123.132 93.5277 123.102 93.5285Z" fill="#054375"/>
<path d="M123.241 98.5148C123.234 98.515 123.224 98.5128 123.216 98.5105C123.178 98.4967 123.16 98.4574 123.171 98.4198L128.138 84.2349C128.151 84.1973 128.191 84.1788 128.228 84.1901C128.266 84.204 128.284 84.2433 128.273 84.2809L123.307 98.4657C123.298 98.4958 123.271 98.514 123.241 98.5148Z" fill="#054375"/>
<path d="M123.38 103.499C123.372 103.499 123.362 103.497 123.355 103.495C123.317 103.481 123.298 103.442 123.31 103.404L128.276 89.2193C128.29 89.1816 128.329 89.1631 128.367 89.1745C128.405 89.1884 128.423 89.2277 128.412 89.2653L123.445 103.45C123.436 103.48 123.409 103.498 123.38 103.499Z" fill="#054375"/>
<path d="M123.518 108.486C123.511 108.486 123.501 108.484 123.493 108.481C123.456 108.467 123.437 108.428 123.449 108.39L128.415 94.2056C128.429 94.168 128.468 94.1495 128.506 94.1608C128.543 94.1747 128.562 94.214 128.55 94.2516L123.584 108.436C123.575 108.467 123.548 108.485 123.518 108.486Z" fill="#054375"/>
<path d="M114.656 58.8938C116.648 50.1755 122.261 32.9627 128.783 33.8578C130.791 40.921 129.682 56.9916 133 58.8938C137.146 61.2715 142.698 68.4746 143.331 74.2091C143.837 78.7967 167.203 84.8855 178.823 87.3565C173.435 95.9116 153.058 112.099 114.656 108.406C66.6545 103.791 55.6204 109.875 51.6847 105.749C47.773 101.648 51.0119 100.31 54.7086 98.7838L54.777 98.7556C57.7569 97.5248 67.451 93.7204 71.9256 91.9721C64.6632 93.5106 49.7449 95.6645 48.1706 91.9721C46.732 88.5979 54.6834 84.7378 61.0416 83.2607C55.6847 82.8524 48.8876 81.364 48.1706 77.496C47.1025 71.7335 60.1887 70.2929 66.8653 70.2929C61.0085 70.1297 49.0701 68.7124 48.1706 64.3486C47.0463 58.8938 60.8916 54.8377 65.5302 56.8658C70.1687 58.8938 104.747 73.3699 114.656 58.8938Z" fill="#F0FBFF"/>
<rect x="52.9218" y="25.6723" width="66.959" height="103.104" rx="14.5" transform="rotate(-1.81847 52.9218 25.6723)" fill="#03A7DD" stroke="#05BDFB" stroke-width="3"/>
<path d="M63.8418 48.6439V40.9785H70.9962" stroke="#A2D959" stroke-width="3"/>
<path d="M103.702 38.9355L111.367 38.9355L111.367 46.601" stroke="#A2D959" stroke-width="3"/>
<path d="M113.412 93.1041L113.412 100.77L106.258 100.77" stroke="#A2D959" stroke-width="3"/>
<path d="M73.5521 102.813L65.8867 102.812L65.8867 95.1471" stroke="#A2D959" stroke-width="3"/>
<rect x="52.9218" y="25.6723" width="66.959" height="103.104" rx="14.5" transform="rotate(-1.81847 52.9218 25.6723)" stroke="#05BDFB" stroke-width="3"/>
<g filter="url(#filter0_f_3553_5510)">
<path fill-rule="evenodd" clip-rule="evenodd" d="M124.122 110.592L124.169 112.082C124.449 120.914 117.517 128.301 108.685 128.581L70.7447 129.786C61.9889 130.064 54.6532 123.253 54.2539 114.53C56.9193 111.149 66.9824 108.296 72.3512 107.177C75.091 107.763 82.5939 108.919 90.687 108.863C98.78 108.807 105.065 105.796 107.196 104.297C116.091 105.064 120.745 108.286 123.081 109.902C123.498 110.191 123.841 110.429 124.122 110.592Z" fill="#054375"/>
<path d="M72.5293 107.357C74.6379 106.557 74.5639 96.4993 74.2633 91.5703H104.019C103.298 95.7992 105.892 101.904 107.279 104.428C104.273 106.119 96.3895 109.672 88.8985 110.357C81.4075 111.043 74.8644 108.643 72.5293 107.357Z" fill="#F0FBFF"/>
<path d="M65.8972 78.1647C62.8968 70.9204 67.1474 68.501 69.6477 68.1968C69.0226 61.5047 72.0647 48.0223 89.2336 47.6292C106.402 47.2361 108.935 61.1771 108.055 68.1968C114.376 69.6709 110.972 75.8482 110.903 78.1647C110.847 80.0178 107.916 82.3998 106.458 83.3592C106.875 89.1621 104.013 100.768 89.2336 100.768C74.4539 100.768 71.0368 89.1621 71.1757 83.3592C70.6664 84.6461 68.8976 85.4089 65.8972 78.1647Z" fill="#F0FBFF"/>
<path d="M92.2594 102.937C82.2725 105.014 75.5154 98.176 74.5742 95.1465C85.869 103.739 98.6994 98.7268 103.703 95.1465C103.257 96.4449 102.246 100.859 92.2594 102.937Z" fill="#D7DEE5"/>
<path d="M88.1194 66.6254C86.4142 71.8589 83.9581 82.3885 87.7753 82.6392C91.5925 82.8898 91.8229 81.7658 91.4609 81.1725" stroke="#054375"/>
<path d="M80.1944 73.9848C80.1944 74.7152 79.3936 74.7062 78.4058 74.7062C77.418 74.7062 76.6172 74.7152 76.6172 73.9848C76.6172 73.2543 77.418 72.6621 78.4058 72.6621C79.3936 72.6621 80.1944 73.2543 80.1944 73.9848Z" fill="#054375"/>
<path d="M99.1026 73.9848C99.1026 74.7152 98.3018 74.7062 97.314 74.7062C96.3262 74.7062 95.5254 74.7152 95.5254 73.9848C95.5254 73.2543 96.3262 72.6621 97.314 72.6621C98.3018 72.6621 99.1026 73.2543 99.1026 73.9848Z" fill="#054375"/>
<path d="M86.3281 89.0156C86.9269 89.7869 88.5828 90.8667 90.4163 89.0156" stroke="#054375"/>
<path d="M70.1341 73.1732L69.2084 68.574C62.3784 61.8441 66.9647 41.5018 67.42 46.8551C67.8754 52.2085 79.3232 39.2494 84.0283 42.7674C88.7334 46.2853 95.7546 41.7592 103.192 47.8774C110.629 53.9955 109.748 62.4665 108.686 66.4433C107.836 69.6246 105.903 72.2555 105.043 73.1732H103.98C103.98 71.9496 104.559 68.5424 103.98 66.4433C103.222 63.6901 102.766 56.8073 89.1063 56.8073C84.3038 56.8073 82.0419 62.1636 80.3032 60.937C78.7854 59.8663 72.6685 64.5651 72.0191 67.2965V73.1732H70.1341Z" fill="#054375"/>
</g>
<rect opacity="0.1" x="169.834" y="27.6777" width="64.6877" height="44.5714" transform="rotate(98.4748 169.834 27.6777)" fill="#02223B"/>
<path d="M148.867 83.3807L156.686 30.9082L121.184 25.6184L113.365 78.0909L148.867 83.3807Z" fill="white"/>
<rect x="166.438" y="22.084" width="64.5939" height="43.9039" transform="rotate(99.1388 166.438 22.084)" fill="#DAF0BC"/>
<rect x="133.256" y="24.9941" width="20.7311" height="25.6384" transform="rotate(8.4748 133.256 24.9941)" fill="#EDF7DE"/>
<path d="M138.99 50.2229L138.991 50.2231L141.528 49.8288L141.4 50.5654C141.401 50.5655 141.402 50.5656 141.402 50.5656C141.68 50.5965 141.954 50.6261 142.227 50.6555C142.762 50.7133 143.291 50.7703 143.824 50.8352L143.836 50.8367L143.849 50.8377C143.864 50.8391 143.882 50.8412 143.914 50.8452L143.918 50.8456C143.946 50.8491 143.987 50.8542 144.031 50.8581L144.795 50.9261L144.894 50.1726L145.164 48.114L145.434 46.0556L145.434 46.0554C145.706 43.9801 146.003 41.7062 145.551 39.5658L145.551 39.5657C145.44 39.0406 145.249 38.3761 144.778 37.8779C144.203 37.2678 143.394 37.1075 142.649 37.2133C141.911 37.318 141.178 37.6848 140.623 38.2146C139.585 39.2045 139.076 40.5944 138.68 41.7278C137.838 44.1301 137.084 46.5579 136.409 49.0012L136.203 49.746L136.96 49.8847C137.367 49.9594 137.792 50.0277 138.206 50.0942C138.474 50.1374 138.738 50.1799 138.99 50.2229ZM143.395 50.0331L143.39 50.0671L143.959 50.107L143.959 50.107L144.142 50.1199L144.253 49.3816C144.249 49.3812 144.244 49.3808 144.239 49.3802C144.297 48.9405 144.354 48.501 144.412 48.0615C144.502 47.3756 144.592 46.6897 144.682 46.0028C144.957 43.905 145.231 41.7564 144.808 39.7551C144.702 39.2526 144.541 38.7499 144.207 38.3972C143.446 37.5883 142.014 37.8939 141.136 38.7307C140.258 39.5675 139.8 40.7747 139.396 41.9314L143.395 50.0331Z" fill="#BDEEFE" stroke="#0864B0" stroke-width="1.5"/>
<path opacity="0.12" d="M147.648 33.657C147.525 33.4391 147.171 33.5347 147.121 33.7944C147.064 34.066 146.673 34.6693 146.433 35.1191C145.911 36.0039 145.066 36.6483 143.84 37.0299C143.435 37.126 142.48 37.1878 141.659 37.033C141.482 37.0009 141.237 36.8805 140.847 36.7244C140.75 36.6789 140.631 36.6732 140.524 36.7212C140.178 36.8526 140.12 37.4001 140.441 37.541C141.73 38.2525 143.403 38.2171 144.842 37.6489C145.436 37.3364 146.057 36.9763 146.434 36.3665C146.425 36.3867 146.369 36.4599 146.389 36.4415C146.663 36.1305 146.899 35.7879 147.101 35.4225C147.317 35.0852 147.509 34.4766 147.548 34.3015C147.602 34.0943 147.761 33.8516 147.648 33.657Z" fill="#0864B0"/>
<path opacity="0.12" d="M144.19 40.5268C144.148 41.0743 144.16 41.0887 144.076 41.8503C144.048 42.0166 144.01 42.1811 143.978 42.3468C143.986 42.3273 143.996 42.2957 144.006 42.2681C143.888 42.7864 143.898 43.3382 143.8 43.8681C143.478 45.6116 143.178 47.3546 142.845 49.0964C142.794 49.3754 142.745 49.6551 142.697 49.9348C143.161 49.9865 143.628 50.0429 144.095 50.0992C144.11 50.1016 144.128 50.1046 144.142 50.1069C144.409 48.7087 144.648 47.3058 144.846 45.9003C145.134 43.8802 145.297 42.7441 145.266 41.8427C145.343 40.9717 145.281 40.5112 145.22 40.2051C145.141 39.6709 144.944 39.1798 144.707 38.7237C144.578 38.5106 144.513 38.1832 144.248 38.1393C143.913 38.0715 143.616 38.5435 143.808 38.8462C144.228 39.6827 144.189 39.8846 144.19 40.5268Z" fill="#0864B0"/>
<path d="M142.396 38.4586C141.831 38.37 141.278 38.1767 140.772 37.8799C140.436 37.6866 140.193 37.4864 139.999 37.2599C139.598 36.7921 139.366 36.1336 139.291 35.2524C139.243 34.7078 139.264 34.2253 139.357 33.7712C139.468 33.2218 139.693 32.6604 140.046 32.051C140.643 31.0239 141.414 30.2073 142.273 29.6858C143.258 29.0905 144.368 28.898 145.312 29.1612C146.234 29.4168 146.995 30.2692 147.396 31.4914C147.711 32.4486 147.737 33.5863 147.471 34.7761C147.366 35.2496 147.232 35.6548 147.062 36.0074C146.511 37.1483 145.403 38.057 144.172 38.375C143.6 38.5283 142.991 38.552 142.396 38.4586Z" stroke="#0864B0" stroke-width="1.5"/>
<rect x="133.256" y="24.9941" width="20.7311" height="25.6384" transform="rotate(8.4748 133.256 24.9941)" stroke="#C7E89B" stroke-width="1.5"/>
<rect x="129.657" y="54.0828" width="19.3395" height="22.3165" transform="rotate(8.4748 129.657 54.0828)" fill="#EDF7DE" stroke="#C7E89B" stroke-width="1.5"/>
<path d="M132.039 70.3726C132.714 69.405 133.154 68.2939 133.326 67.1269C133.411 66.5597 133.622 66.0188 133.944 65.5439C134.266 65.0691 134.69 64.6725 135.185 64.3832" stroke="#0864B0" stroke-width="1.5" stroke-linecap="round" stroke-linejoin="round"/>
<path d="M137.11 67.6899C136.826 69.6132 136.056 71.4323 134.872 72.9749" stroke="#0864B0" stroke-width="1.5" stroke-linecap="round" stroke-linejoin="round"/>
<path d="M135.218 67.4088C135.293 66.9072 135.564 66.4559 135.971 66.154C136.379 65.8522 136.89 65.7246 137.391 65.7994C137.893 65.8741 138.344 66.145 138.646 66.5526C138.948 66.9601 139.075 67.4708 139.001 67.9724C138.714 69.9225 137.997 71.7844 136.902 73.4231" stroke="#0864B0" stroke-width="1.5" stroke-linecap="round" stroke-linejoin="round"/>
<path d="M141.972 71.7981C142.346 70.7391 142.618 69.6468 142.784 68.536C143.008 67.0312 142.626 65.499 141.72 64.2764C140.815 63.0539 139.461 62.2411 137.956 62.0169C136.451 61.7927 134.919 62.1754 133.696 63.0809C132.474 63.9864 131.661 65.3404 131.437 66.8452C131.342 67.4899 131.137 68.1134 130.83 68.688" stroke="#0864B0" stroke-width="1.5" stroke-linecap="round" stroke-linejoin="round"/>
<path d="M134.747 69.2707C134.395 70.2347 133.892 71.1365 133.256 71.9423" stroke="#0864B0" stroke-width="1.5" stroke-linecap="round" stroke-linejoin="round"/>
<path d="M137.197 63.8674C137.356 63.872 137.516 63.8856 137.674 63.9083C138.677 64.0578 139.58 64.5997 140.184 65.4147C140.787 66.2298 141.042 67.2512 140.893 68.2544C140.798 68.8866 140.665 69.5123 140.493 70.128" stroke="#0864B0" stroke-width="1.5" stroke-linecap="round" stroke-linejoin="round"/>
<path d="M139.85 71.9648C139.71 72.3003 139.557 72.634 139.395 72.9542" stroke="#0864B0" stroke-width="1.5" stroke-linecap="round" stroke-linejoin="round"/>
<rect x="166.605" y="23.2148" width="63.7149" height="44.5714" transform="rotate(98.4748 166.605 23.2148)" stroke="#C7E89B" stroke-width="1.5" stroke-linecap="round"/>
<defs>
<filter id="filter0_f_3553_5510" x="50.2539" y="38.1523" width="77.9238" height="95.6426" filterUnits="userSpaceOnUse" color-interpolation-filters="sRGB">
<feFlood flood-opacity="0" result="BackgroundImageFix"/>
<feBlend mode="normal" in="SourceGraphic" in2="BackgroundImageFix" result="shape"/>
<feGaussianBlur stdDeviation="2" result="effect1_foregroundBlur_3553_5510"/>
</filter>
</defs>
</svg>
