<svg width="320" height="408" viewBox="0 0 320 408" fill="none" xmlns="http://www.w3.org/2000/svg">
<g clip-path="url(#clip0_656_9633)">
<path opacity="0.3" d="M400.759 206.89C402.322 205.329 402.322 202.798 400.759 201.237L209.517 10.2487C207.798 8.53216 204.957 8.72937 203.492 10.6669L131.193 106.313C129.99 107.905 130.145 110.138 131.557 111.548L221.163 201.035C222.726 202.596 222.726 205.127 221.163 206.688L120.059 307.658C118.341 309.374 118.538 312.21 120.476 313.674L216.427 386.103C218.02 387.306 220.258 387.151 221.671 385.741L400.759 206.89Z" fill="#1090F9"/>
<path opacity="0.3" d="M399.901 209.259C401.073 210.43 401.073 212.328 399.901 213.499L220.813 392.35C219.753 393.408 218.075 393.524 216.88 392.621L120.929 320.192C119.475 319.094 119.328 316.967 120.616 315.68L221.72 214.711C223.674 212.759 223.674 209.595 221.72 207.644L132.114 118.157C131.055 117.1 130.939 115.424 131.841 114.231L204.14 18.5844C205.239 17.1313 207.37 16.9834 208.659 18.2708L399.901 209.259Z" stroke="#05BDFB" stroke-width="2"/>
<path opacity="0.3" d="M300.244 28.6528C301.349 28.6528 302.244 29.5483 302.244 30.6528L302.244 37.237C302.244 38.4499 301.173 39.3836 299.971 39.2183L298.953 39.0781C297.963 38.9419 297.226 38.096 297.226 37.0968L297.226 35.6088C297.226 34.5042 296.33 33.6088 295.226 33.6088L293.531 33.6088C292.315 33.6088 291.38 32.5331 291.55 31.3293L291.685 30.3734C291.824 29.3866 292.669 28.6528 293.665 28.6528L300.244 28.6528Z" fill="#1090F9"/>
<path opacity="0.3" d="M217.653 342.53C218.21 343.483 217.884 344.7 216.925 345.247L207.304 350.732C206.249 351.334 204.895 350.869 204.434 349.746L203.301 346.985C202.923 346.064 203.286 345.011 204.152 344.517L207.327 342.707C208.287 342.16 208.612 340.944 208.055 339.99L206.025 336.518C205.413 335.471 205.873 334.133 207.001 333.682L209.821 332.553C210.749 332.181 211.816 332.546 212.32 333.408L217.653 342.53Z" fill="#1090F9"/>
<rect x="1.54746" y="1.45222" width="231.223" height="347.817" rx="14.5" transform="matrix(0.999509 -0.0313376 0.0321332 0.999484 -0.0459044 28.0038)" fill="#03A7DD" stroke="#05BDFB" stroke-width="3"/>
<path d="M41.7402 108.71V83.3655H65.6934" stroke="#A2D959" stroke-width="3"/>
<path d="M175.193 76.6069L200.857 76.6069L200.857 101.951" stroke="#A2D959" stroke-width="3"/>
<path d="M207.701 255.705L207.701 281.049L183.748 281.049" stroke="#A2D959" stroke-width="3"/>
<path d="M74.248 287.808L48.584 287.808L48.584 262.464" stroke="#A2D959" stroke-width="3"/>
<path fill-rule="evenodd" clip-rule="evenodd" d="M243.558 313.525L244.902 355.332C245.186 364.164 238.256 371.548 229.424 371.825L27.3004 378.162C18.4681 378.439 11.078 371.504 10.7941 362.672L9.63281 326.551C18.5492 315.368 52.2498 305.933 70.2281 302.234C79.4011 304.17 104.521 307.995 131.617 307.809C158.713 307.623 179.756 297.666 186.89 292.711C216.671 295.246 232.254 305.899 240.073 311.245C241.47 312.2 242.619 312.985 243.558 313.525Z" fill="#054375"/>
<path d="M70.8262 302.832C77.8858 300.187 77.638 266.933 76.6317 250.636H176.255C173.84 264.618 182.525 284.804 187.17 293.149C177.107 298.739 150.711 310.485 125.631 312.752C100.551 315.019 78.6443 307.084 70.8262 302.832Z" fill="#F0FBFF" stroke="#054375" stroke-width="2"/>
<path d="M48.6172 206.316C38.5718 182.365 52.8027 174.365 61.1739 173.36C59.0812 151.234 69.2662 106.657 126.748 105.357C184.23 104.058 192.71 150.151 189.764 173.36C210.925 178.233 199.531 198.657 199.298 206.316C199.112 212.443 189.299 220.319 184.416 223.491C185.811 242.677 176.231 281.049 126.748 281.049C77.2653 281.049 65.8248 242.677 66.2898 223.491C64.5845 227.746 58.6625 230.268 48.6172 206.316Z" fill="#F0FBFF" stroke="#054375" stroke-width="2"/>
<path d="M64.2468 189.606L61.1465 174.379C38.2732 152.098 53.6325 84.7489 55.1574 102.473C56.6823 120.197 95.0206 77.2919 110.778 88.939C126.535 100.586 150.049 85.6013 174.955 105.857C199.862 126.113 196.912 154.159 193.354 167.325C190.507 177.857 184.035 186.568 181.155 189.606H177.597C177.597 185.555 179.534 174.274 177.597 167.325C175.055 158.21 173.53 135.422 127.784 135.422C111.7 135.422 104.126 153.156 98.3027 149.095C93.2197 145.55 72.7343 161.107 70.5597 170.15V189.606H64.2468Z" fill="#054375"/>
<path d="M123.018 168.16C117.309 185.464 109.086 220.278 121.866 221.107C134.646 221.935 135.418 218.219 134.206 216.257" stroke="#054375" stroke-width="2"/>
<path d="M96.4902 192.494C96.4902 194.909 93.8092 194.879 90.502 194.879C87.1947 194.879 84.5137 194.909 84.5137 192.494C84.5137 190.079 87.1947 188.121 90.502 188.121C93.8092 188.121 96.4902 190.079 96.4902 192.494Z" fill="#054375"/>
<path d="M159.795 192.494C159.795 194.909 157.114 194.879 153.807 194.879C150.499 194.879 147.818 194.909 147.818 192.494C147.818 190.079 150.499 188.121 153.807 188.121C157.114 188.121 159.795 190.079 159.795 192.494Z" fill="#054375"/>
<path d="M117.021 242.188C119.026 244.738 124.57 248.308 130.709 242.188" stroke="#054375" stroke-width="2"/>
<rect x="1.54746" y="1.45222" width="231.223" height="347.817" rx="14.5" transform="matrix(0.999509 -0.0313376 0.0321332 0.999484 -0.0439512 28.0038)" stroke="#05BDFB" stroke-width="3"/>
<path d="M136.5 294.589C102.9 303.279 81.1667 274.173 78 261.5C107 294.589 161.2 283 175 260.5C173.5 265.931 170.1 285.898 136.5 294.589Z" fill="#D7DEE5"/>
</g>
<defs>
<clipPath id="clip0_656_9633">
<rect width="320" height="408" fill="white"/>
</clipPath>
</defs>
</svg>
