<svg width="320" height="248" viewBox="0 0 320 248" fill="none" xmlns="http://www.w3.org/2000/svg">
<path opacity="0.3" d="M271.679 124.477C273.232 122.906 273.232 120.36 271.679 118.789L162.393 8.2691C160.685 6.54181 157.861 6.74027 156.406 8.68988L116.142 62.6288C114.946 64.2302 115.101 66.4777 116.504 67.8965L166.71 118.669C168.263 120.24 168.263 122.787 166.71 124.358L110.106 181.6C108.399 183.327 108.594 186.181 110.52 187.654L163.962 228.504C165.546 229.715 167.77 229.559 169.173 228.14L271.679 124.477Z" fill="#1090F9"/>
<path opacity="0.3" d="M270.888 127.972C272.053 129.15 272.053 131.06 270.888 132.238L168.383 235.901C167.33 236.965 165.662 237.082 164.474 236.174L111.032 195.324C109.588 194.219 109.441 192.079 110.722 190.784L167.326 133.541C169.267 131.578 169.267 128.394 167.326 126.431L117.119 75.6577C116.067 74.5936 115.951 72.908 116.848 71.7069L157.112 17.768C158.203 16.3057 160.321 16.1569 161.602 17.4524L270.888 127.972Z" stroke="#05BDFB" stroke-width="2"/>
<path opacity="0.3" d="M213.259 21.9585C214.364 21.9585 215.259 22.8539 215.259 23.9585L215.259 26.7117C215.259 27.6021 214.472 28.2871 213.59 28.1642C212.865 28.0632 212.326 27.4434 212.326 26.7117L212.326 26.5227C212.326 25.6219 211.596 24.8917 210.695 24.8917L210.506 24.8917C209.615 24.8917 208.93 24.1046 209.053 23.2227C209.154 22.4979 209.774 21.9585 210.506 21.9585L213.259 21.9585Z" fill="#1090F9"/>
<path opacity="0.3" d="M263.27 66.6623C263.823 67.6189 263.495 68.8421 262.538 69.3944L258.454 71.7522C257.403 72.3593 256.057 71.8969 255.601 70.7715L255.561 70.6718C255.186 69.747 255.55 68.6874 256.414 68.1884L256.929 67.8913C257.885 67.339 258.213 66.1158 257.661 65.1592L257.356 64.6317C256.749 63.5801 257.212 62.2345 258.337 61.7782L258.437 61.7378C259.361 61.3629 260.421 61.7271 260.92 62.5913L263.27 66.6623Z" fill="#1090F9"/>
<path opacity="0.3" d="M165.408 207.018C165.96 207.974 165.633 209.197 164.676 209.75L160.592 212.107C159.541 212.715 158.195 212.252 157.739 211.127L157.698 211.027C157.323 210.102 157.688 209.043 158.552 208.544L159.066 208.246C160.023 207.694 160.351 206.471 159.798 205.514L159.494 204.987C158.887 203.935 159.349 202.59 160.475 202.133L160.574 202.093C161.499 201.718 162.559 202.082 163.058 202.947L165.408 207.018Z" fill="#1090F9"/>
<path opacity="0.3" d="M261.741 163.933C260.96 163.152 260.96 161.885 261.741 161.104L269.143 153.703C270.024 152.822 271.487 152.952 272.199 153.975L272.929 155.025C273.482 155.82 273.386 156.896 272.702 157.581L270.246 160.036C269.465 160.817 269.465 162.084 270.246 162.865L271.7 164.319C272.542 165.16 272.467 166.545 271.54 167.291L269.37 169.037C268.574 169.677 267.424 169.615 266.702 168.893L261.741 163.933Z" fill="#1090F9"/>
<path d="M178.423 137.657C178.408 137.658 178.388 137.653 178.374 137.649C178.3 137.622 178.264 137.545 178.286 137.471L188.004 109.714C188.032 109.64 188.108 109.604 188.182 109.626C188.256 109.653 188.292 109.73 188.27 109.804L178.551 137.561C178.533 137.62 178.481 137.655 178.423 137.657Z" fill="#054375"/>
<path d="M176.474 130.362C176.46 130.362 176.44 130.358 176.425 130.353C176.352 130.326 176.315 130.249 176.338 130.176L186.056 102.418C186.083 102.344 186.16 102.308 186.234 102.33C186.307 102.358 186.344 102.434 186.321 102.508L176.603 130.266C176.585 130.324 176.533 130.36 176.474 130.362Z" fill="#054375"/>
<path d="M173.07 123.552C173.055 123.553 173.036 123.549 173.021 123.544C172.947 123.517 172.911 123.44 172.933 123.366L182.652 95.609C182.679 95.5352 182.756 95.499 182.829 95.5213C182.903 95.5485 182.939 95.6253 182.917 95.6989L173.199 123.456C173.181 123.515 173.128 123.551 173.07 123.552Z" fill="#054375"/>
<path d="M178.694 147.414C178.679 147.414 178.659 147.41 178.645 147.405C178.571 147.378 178.535 147.301 178.557 147.228L188.276 119.47C188.303 119.396 188.379 119.36 188.453 119.382C188.527 119.41 188.563 119.486 188.541 119.56L178.822 147.318C178.805 147.376 178.752 147.412 178.694 147.414Z" fill="#054375"/>
<path d="M178.965 157.17C178.95 157.17 178.931 157.166 178.916 157.162C178.842 157.135 178.806 157.058 178.828 156.984L188.547 129.227C188.574 129.153 188.651 129.117 188.724 129.139C188.798 129.166 188.834 129.243 188.812 129.316L179.093 157.074C179.076 157.133 179.023 157.168 178.965 157.17Z" fill="#054375"/>
<path d="M179.236 166.927C179.221 166.928 179.202 166.924 179.187 166.919C179.113 166.892 179.077 166.815 179.099 166.742L188.818 138.984C188.845 138.91 188.922 138.874 188.995 138.896C189.069 138.923 189.105 139 189.083 139.074L179.364 166.831C179.347 166.89 179.294 166.926 179.236 166.927Z" fill="#054375"/>
<path d="M179.507 176.682C179.492 176.683 179.473 176.678 179.458 176.674C179.384 176.647 179.348 176.57 179.37 176.496L189.089 148.739C189.116 148.665 189.193 148.629 189.266 148.651C189.34 148.678 189.376 148.755 189.354 148.829L179.635 176.586C179.618 176.645 179.565 176.681 179.507 176.682Z" fill="#054375"/>
<path d="M179.778 186.439C179.763 186.439 179.744 186.435 179.729 186.43C179.655 186.403 179.619 186.326 179.641 186.253L189.36 158.495C189.387 158.421 189.464 158.385 189.537 158.408C189.611 158.435 189.647 158.512 189.625 158.585L179.907 186.343C179.889 186.402 179.836 186.437 179.778 186.439Z" fill="#054375"/>
<path d="M162.436 89.3972C166.333 72.3369 177.317 38.6541 190.079 40.4057C194.009 54.2273 191.84 85.675 198.331 89.3972C206.445 94.0501 217.31 108.145 218.548 119.367C219.538 128.344 265.262 140.259 288 145.094C277.456 161.835 237.582 193.511 162.436 186.285C68.5039 177.254 46.9119 189.159 39.2103 181.085C31.5558 173.061 37.8939 170.443 45.1278 167.456L45.2616 167.4C51.0928 164.992 70.0626 157.547 78.8186 154.126C64.6073 157.137 35.4145 161.352 32.3338 154.126C29.5187 147.523 45.0784 139.97 57.5204 137.08C47.0379 136.281 33.7369 133.368 32.3338 125.799C30.2437 114.522 55.8514 111.703 68.9165 111.703C57.4557 111.384 34.094 108.611 32.3338 100.071C30.1337 89.3972 57.2269 81.4601 66.3038 85.4286C75.3807 89.3972 143.044 117.725 162.436 89.3972Z" fill="#F0FBFF"/>
<rect x="40.1506" y="22.9971" width="133.899" height="204.63" rx="14.5" transform="rotate(-1.81847 40.1506 22.9971)" fill="#03A7DD" stroke="#05BDFB" stroke-width="3"/>
<path d="M63 69.34V54.34H77" stroke="#A2D959" stroke-width="3"/>
<path d="M141 50.34L156 50.34L156 65.34" stroke="#A2D959" stroke-width="3"/>
<path d="M160 156.34L160 171.34L146 171.34" stroke="#A2D959" stroke-width="3"/>
<path d="M82 175.34L67 175.34L67 160.34" stroke="#A2D959" stroke-width="3"/>
<path fill-rule="evenodd" clip-rule="evenodd" d="M180.957 190.561L181.535 208.777C181.816 217.61 174.883 224.997 166.051 225.277L61.2049 228.606C52.3728 228.886 44.9857 221.954 44.7053 213.122L44.2338 198.271C49.4449 191.652 69.1424 186.068 79.6503 183.879C85.0117 185.024 99.6938 187.288 115.531 187.178C131.367 187.068 143.667 181.175 147.836 178.242C165.243 179.743 174.35 186.048 178.921 189.211C179.737 189.777 180.409 190.242 180.957 190.561Z" fill="#054375"/>
<path d="M80 184.233C84.1261 182.667 83.9814 162.985 83.3932 153.34H141.621C140.209 161.615 145.285 173.562 148 178.501C142.118 181.81 126.691 188.762 112.032 190.104C97.3733 191.445 84.5695 186.749 80 184.233Z" fill="#F0FBFF"/>
<path d="M67.0194 127.109C61.1481 112.933 69.4658 108.199 74.3585 107.603C73.1353 94.5081 79.0883 68.1251 112.685 67.3559C146.282 66.5867 151.238 93.867 149.516 107.603C161.884 110.488 155.225 122.576 155.089 127.109C154.98 130.735 149.245 135.397 146.39 137.274C147.206 148.629 141.606 171.34 112.685 171.34C83.7635 171.34 77.0768 148.629 77.3486 137.274C76.3519 139.792 72.8907 141.285 67.0194 127.109Z" fill="#F0FBFF"/>
<path d="M118.607 175.584C99.0643 179.649 85.8418 166.268 84 160.34C106.102 177.155 131.209 167.346 141 160.34C140.128 162.881 138.15 171.519 118.607 175.584Z" fill="#D7DEE5"/>
<path d="M110.506 104.526C107.169 114.768 102.363 135.372 109.833 135.863C117.302 136.353 117.753 134.154 117.045 132.993" stroke="#054375"/>
<path d="M95 118.928C95 120.358 93.433 120.34 91.5 120.34C89.567 120.34 88 120.358 88 118.928C88 117.499 89.567 116.34 91.5 116.34C93.433 116.34 95 117.499 95 118.928Z" fill="#054375"/>
<path d="M132 118.928C132 120.358 130.433 120.34 128.5 120.34C126.567 120.34 125 120.358 125 118.928C125 117.499 126.567 116.34 128.5 116.34C130.433 116.34 132 117.499 132 118.928Z" fill="#054375"/>
<path d="M107 148.34C108.172 149.849 111.412 151.962 115 148.34" stroke="#054375"/>
<rect x="40.1523" y="22.9967" width="133.899" height="204.63" rx="14.5" transform="rotate(-1.81847 40.1523 22.9967)" stroke="#05BDFB" stroke-width="3"/>
<path d="M75.3121 117.34L73.5005 108.34C60.1353 95.1705 69.11 55.3637 70.001 65.8395C70.892 76.3152 93.2936 50.9563 102.501 57.8403C111.708 64.7244 125.447 55.8676 140.001 67.8398C154.554 79.8121 152.83 96.3886 150.751 104.17C149.088 110.396 145.306 115.544 143.623 117.34H141.544C141.544 114.945 142.676 108.278 141.544 104.17C140.059 98.7829 139.168 85.3143 112.438 85.3143C103.04 85.3143 98.6138 95.7957 95.2114 93.3955C92.2414 91.3004 80.2714 100.495 79.0007 105.84V117.34H75.3121Z" fill="#054375"/>
</svg>
