<svg width="213" height="109" viewBox="0 0 213 109" fill="none" xmlns="http://www.w3.org/2000/svg">
<rect x="15.2549" y="47.4609" width="184" height="48.9591" rx="7.5" fill="white" stroke="url(#paint0_linear_752_1775)"/>
<path d="M28.0899 65.8541C28.0605 65.7294 28.0165 65.5461 27.9579 65.3041C27.9065 65.0547 27.8479 64.7907 27.7819 64.5121C27.7159 64.2261 27.6535 63.9657 27.5949 63.7311C27.5362 63.4891 27.4959 63.3131 27.4739 63.2031H27.4299C27.4079 63.3131 27.3675 63.4891 27.3089 63.7311C27.2575 63.9657 27.1989 64.2261 27.1329 64.5121C27.0669 64.7907 27.0045 65.0547 26.9459 65.3041C26.8872 65.5534 26.8432 65.7441 26.8139 65.8761L26.3299 67.9551H24.5699L22.8649 61.9491H24.4929L25.1859 64.6111C25.2372 64.7944 25.2812 65.0144 25.3179 65.2711C25.3619 65.5277 25.4022 65.7771 25.4389 66.0191C25.4755 66.2537 25.5012 66.4407 25.5159 66.5801H25.5599C25.5672 66.4774 25.5819 66.3417 25.6039 66.1731C25.6259 65.9971 25.6515 65.8174 25.6809 65.6341C25.7175 65.4507 25.7469 65.2857 25.7689 65.1391C25.7982 64.9851 25.8202 64.8824 25.8349 64.8311L26.5719 61.9491H28.3759L29.0799 64.8311C29.1092 64.9337 29.1422 65.0987 29.1789 65.3261C29.2229 65.5534 29.2595 65.7844 29.2889 66.0191C29.3255 66.2537 29.3439 66.4407 29.3439 66.5801H29.3879C29.4025 66.4554 29.4282 66.2757 29.4649 66.0411C29.5015 65.7991 29.5419 65.5461 29.5859 65.2821C29.6372 65.0181 29.6885 64.7944 29.7399 64.6111L30.4549 61.9491H32.0609L30.3339 67.9551H28.5519L28.0899 65.8541ZM37.5108 65.8541C37.4814 65.7294 37.4374 65.5461 37.3788 65.3041C37.3274 65.0547 37.2688 64.7907 37.2028 64.5121C37.1368 64.2261 37.0744 63.9657 37.0158 63.7311C36.9571 63.4891 36.9168 63.3131 36.8948 63.2031H36.8508C36.8288 63.3131 36.7884 63.4891 36.7298 63.7311C36.6784 63.9657 36.6198 64.2261 36.5538 64.5121C36.4878 64.7907 36.4254 65.0547 36.3668 65.3041C36.3081 65.5534 36.2641 65.7441 36.2348 65.8761L35.7508 67.9551H33.9908L32.2858 61.9491H33.9138L34.6068 64.6111C34.6581 64.7944 34.7021 65.0144 34.7388 65.2711C34.7828 65.5277 34.8231 65.7771 34.8598 66.0191C34.8964 66.2537 34.9221 66.4407 34.9368 66.5801H34.9808C34.9881 66.4774 35.0028 66.3417 35.0248 66.1731C35.0468 65.9971 35.0724 65.8174 35.1018 65.6341C35.1384 65.4507 35.1678 65.2857 35.1898 65.1391C35.2191 64.9851 35.2411 64.8824 35.2558 64.8311L35.9928 61.9491H37.7968L38.5008 64.8311C38.5301 64.9337 38.5631 65.0987 38.5998 65.3261C38.6438 65.5534 38.6804 65.7844 38.7098 66.0191C38.7464 66.2537 38.7648 66.4407 38.7648 66.5801H38.8088C38.8234 66.4554 38.8491 66.2757 38.8858 66.0411C38.9224 65.7991 38.9628 65.5461 39.0068 65.2821C39.0581 65.0181 39.1094 64.7944 39.1608 64.6111L39.8758 61.9491H41.4818L39.7548 67.9551H37.9728L37.5108 65.8541ZM46.9317 65.8541C46.9023 65.7294 46.8583 65.5461 46.7997 65.3041C46.7483 65.0547 46.6897 64.7907 46.6237 64.5121C46.5577 64.2261 46.4953 63.9657 46.4367 63.7311C46.378 63.4891 46.3377 63.3131 46.3157 63.2031H46.2717C46.2497 63.3131 46.2093 63.4891 46.1507 63.7311C46.0993 63.9657 46.0407 64.2261 45.9747 64.5121C45.9087 64.7907 45.8463 65.0547 45.7877 65.3041C45.729 65.5534 45.685 65.7441 45.6557 65.8761L45.1717 67.9551H43.4117L41.7067 61.9491H43.3347L44.0277 64.6111C44.079 64.7944 44.123 65.0144 44.1597 65.2711C44.2037 65.5277 44.244 65.7771 44.2807 66.0191C44.3173 66.2537 44.343 66.4407 44.3577 66.5801H44.4017C44.409 66.4774 44.4237 66.3417 44.4457 66.1731C44.4677 65.9971 44.4933 65.8174 44.5227 65.6341C44.5593 65.4507 44.5887 65.2857 44.6107 65.1391C44.64 64.9851 44.662 64.8824 44.6767 64.8311L45.4137 61.9491H47.2177L47.9217 64.8311C47.951 64.9337 47.984 65.0987 48.0207 65.3261C48.0647 65.5534 48.1013 65.7844 48.1307 66.0191C48.1673 66.2537 48.1857 66.4407 48.1857 66.5801H48.2297C48.2443 66.4554 48.27 66.2757 48.3067 66.0411C48.3433 65.7991 48.3837 65.5461 48.4277 65.2821C48.479 65.0181 48.5303 64.7944 48.5817 64.6111L49.2967 61.9491H50.9027L49.1757 67.9551H47.3937L46.9317 65.8541ZM56.9466 67.9551H51.4576V66.8001L53.4266 64.8091C53.8226 64.3984 54.1416 64.0574 54.3836 63.7861C54.6256 63.5074 54.8016 63.2581 54.9116 63.0381C55.0216 62.8107 55.0766 62.5687 55.0766 62.3121C55.0766 61.9967 54.9886 61.7621 54.8126 61.6081C54.6439 61.4541 54.4129 61.3771 54.1196 61.3771C53.8189 61.3771 53.5256 61.4467 53.2396 61.5861C52.9536 61.7254 52.6529 61.9234 52.3376 62.1801L51.4356 61.1131C51.6629 60.9151 51.9012 60.7317 52.1506 60.5631C52.4072 60.3944 52.7006 60.2587 53.0306 60.1561C53.3679 60.0461 53.7712 59.9911 54.2406 59.9911C54.7539 59.9911 55.1939 60.0864 55.5606 60.2771C55.9346 60.4604 56.2206 60.7134 56.4186 61.0361C56.6239 61.3514 56.7266 61.7107 56.7266 62.1141C56.7266 62.4441 56.6752 62.7484 56.5726 63.0271C56.4772 63.3057 56.3342 63.5771 56.1436 63.8411C55.9602 64.0977 55.7329 64.3654 55.4616 64.6441C55.1902 64.9154 54.8822 65.2124 54.5376 65.5351L53.5256 66.4811V66.5581H56.9466V67.9551ZM57.9395 67.1851C57.9395 66.8477 58.0312 66.6131 58.2145 66.4811C58.3978 66.3417 58.6215 66.2721 58.8855 66.2721C59.1422 66.2721 59.3622 66.3417 59.5455 66.4811C59.7288 66.6131 59.8205 66.8477 59.8205 67.1851C59.8205 67.5077 59.7288 67.7424 59.5455 67.8891C59.3622 68.0284 59.1422 68.0981 58.8855 68.0981C58.6215 68.0981 58.3978 68.0284 58.2145 67.8891C58.0312 67.7424 57.9395 67.5077 57.9395 67.1851ZM63.8372 66.7561C64.0206 66.7561 64.1966 66.7377 64.3652 66.7011C64.5339 66.6644 64.7026 66.6204 64.8712 66.5691V67.7901C64.6952 67.8634 64.4752 67.9257 64.2112 67.9771C63.9546 68.0357 63.6722 68.0651 63.3642 68.0651C63.0049 68.0651 62.6822 68.0064 62.3962 67.8891C62.1176 67.7717 61.8939 67.5701 61.7252 67.2841C61.5639 66.9907 61.4832 66.5874 61.4832 66.0741V63.1811H60.7022V62.4881L61.6042 61.9381L62.0772 60.6731H63.1222V61.9491H64.8052V63.1811H63.1222V66.0741C63.1222 66.3014 63.1882 66.4737 63.3202 66.5911C63.4522 66.7011 63.6246 66.7561 63.8372 66.7561ZM69.4318 61.8391C69.5124 61.8391 69.6078 61.8427 69.7178 61.8501C69.8278 61.8574 69.9158 61.8684 69.9818 61.8831L69.8608 63.4231C69.8094 63.4084 69.7324 63.3974 69.6298 63.3901C69.5344 63.3754 69.4501 63.3681 69.3768 63.3681C69.1641 63.3681 68.9588 63.3974 68.7608 63.4561C68.5628 63.5074 68.3831 63.5917 68.2218 63.7091C68.0678 63.8264 67.9431 63.9841 67.8478 64.1821C67.7598 64.3727 67.7158 64.6111 67.7158 64.8971V67.9551H66.0768V61.9491H67.3198L67.5618 62.9611H67.6388C67.7561 62.7557 67.9028 62.5687 68.0788 62.4001C68.2548 62.2314 68.4564 62.0957 68.6838 61.9931C68.9184 61.8904 69.1678 61.8391 69.4318 61.8391ZM72.7109 61.9491V67.9551H71.0719V61.9491H72.7109ZM71.8969 59.5951C72.1389 59.5951 72.3479 59.6537 72.5239 59.7711C72.6999 59.8811 72.7879 60.0901 72.7879 60.3981C72.7879 60.6987 72.6999 60.9077 72.5239 61.0251C72.3479 61.1424 72.1389 61.2011 71.8969 61.2011C71.6475 61.2011 71.4349 61.1424 71.2589 61.0251C71.0902 60.9077 71.0059 60.6987 71.0059 60.3981C71.0059 60.0901 71.0902 59.8811 71.2589 59.7711C71.4349 59.6537 71.6475 59.5951 71.8969 59.5951ZM76.0624 61.5421C76.0624 61.7694 76.0551 61.9931 76.0404 62.2131C76.0258 62.4331 76.0111 62.6054 75.9964 62.7301H76.0624C76.2238 62.4807 76.4401 62.2717 76.7114 62.1031C76.9828 61.9271 77.3348 61.8391 77.7674 61.8391C78.4421 61.8391 78.9884 62.1031 79.4064 62.6311C79.8244 63.1517 80.0334 63.9217 80.0334 64.9411C80.0334 65.6231 79.9344 66.1987 79.7364 66.6681C79.5458 67.1301 79.2781 67.4784 78.9334 67.7131C78.5888 67.9477 78.1854 68.0651 77.7234 68.0651C77.2834 68.0651 76.9351 67.9881 76.6784 67.8341C76.4291 67.6727 76.2238 67.4931 76.0624 67.2951H75.9524L75.6774 67.9551H74.4234V59.5951H76.0624V61.5421ZM77.2394 63.1481C76.9534 63.1481 76.7261 63.2067 76.5574 63.3241C76.3888 63.4414 76.2641 63.6211 76.1834 63.8631C76.1101 64.0977 76.0698 64.3947 76.0624 64.7541V64.9301C76.0624 65.5094 76.1468 65.9567 76.3154 66.2721C76.4914 66.5801 76.8068 66.7341 77.2614 66.7341C77.5988 66.7341 77.8664 66.5801 78.0644 66.2721C78.2624 65.9567 78.3614 65.5057 78.3614 64.9191C78.3614 64.3324 78.2588 63.8924 78.0534 63.5991C77.8554 63.2984 77.5841 63.1481 77.2394 63.1481ZM83.8484 61.8281C84.655 61.8281 85.271 62.0041 85.6964 62.3561C86.129 62.7007 86.3454 63.2324 86.3454 63.9511V67.9551H85.2014L84.8824 67.1411H84.8384C84.6697 67.3537 84.4937 67.5297 84.3104 67.6691C84.1344 67.8084 83.929 67.9074 83.6944 67.9661C83.467 68.0321 83.1847 68.0651 82.8474 68.0651C82.4954 68.0651 82.1764 67.9991 81.8904 67.8671C81.6117 67.7277 81.3917 67.5187 81.2304 67.2401C81.069 66.9541 80.9884 66.5947 80.9884 66.1621C80.9884 65.5241 81.212 65.0547 81.6594 64.7541C82.1067 64.4461 82.7777 64.2774 83.6724 64.2481L84.7174 64.2151V63.9511C84.7174 63.6357 84.633 63.4047 84.4644 63.2581C84.303 63.1114 84.0757 63.0381 83.7824 63.0381C83.489 63.0381 83.203 63.0821 82.9244 63.1701C82.6457 63.2507 82.367 63.3534 82.0884 63.4781L81.5494 62.3671C81.872 62.1984 82.2277 62.0664 82.6164 61.9711C83.0124 61.8757 83.423 61.8281 83.8484 61.8281ZM84.0794 65.1941C83.5514 65.2087 83.1847 65.3041 82.9794 65.4801C82.774 65.6561 82.6714 65.8871 82.6714 66.1731C82.6714 66.4224 82.7447 66.6021 82.8914 66.7121C83.038 66.8147 83.2287 66.8661 83.4634 66.8661C83.8154 66.8661 84.1124 66.7634 84.3544 66.5581C84.5964 66.3454 84.7174 66.0484 84.7174 65.6671V65.1721L84.0794 65.1941ZM91.433 61.8391C92.0784 61.8391 92.5954 62.0151 92.984 62.3671C93.3727 62.7117 93.567 63.2691 93.567 64.0391V67.9551H91.928V64.4461C91.928 64.0134 91.851 63.6907 91.697 63.4781C91.543 63.2581 91.2974 63.1481 90.96 63.1481C90.4614 63.1481 90.1204 63.3204 89.937 63.6651C89.7537 64.0024 89.662 64.4901 89.662 65.1281V67.9551H88.023V61.9491H89.277L89.497 62.7191H89.585C89.717 62.5137 89.8784 62.3487 90.069 62.2241C90.2597 62.0921 90.4724 61.9967 90.707 61.9381C90.9417 61.8721 91.1837 61.8391 91.433 61.8391ZM97.6945 68.0651C97.1005 68.0651 96.5945 67.9587 96.1765 67.7461C95.7585 67.5261 95.4395 67.1887 95.2195 66.7341C94.9995 66.2794 94.8895 65.6964 94.8895 64.9851C94.8895 64.2517 95.0142 63.6541 95.2635 63.1921C95.5129 62.7301 95.8575 62.3891 96.2975 62.1691C96.7449 61.9491 97.2582 61.8391 97.8375 61.8391C98.2482 61.8391 98.6039 61.8794 98.9045 61.9601C99.2125 62.0407 99.4802 62.1361 99.7075 62.2461L99.2235 63.5111C98.9669 63.4084 98.7249 63.3241 98.4975 63.2581C98.2775 63.1921 98.0575 63.1591 97.8375 63.1591C97.5515 63.1591 97.3132 63.2287 97.1225 63.3681C96.9319 63.5001 96.7889 63.7017 96.6935 63.9731C96.6055 64.2371 96.5615 64.5707 96.5615 64.9741C96.5615 65.3701 96.6092 65.7001 96.7045 65.9641C96.8072 66.2207 96.9539 66.4151 97.1445 66.5471C97.3352 66.6717 97.5662 66.7341 97.8375 66.7341C98.1822 66.7341 98.4865 66.6901 98.7505 66.6021C99.0145 66.5067 99.2712 66.3784 99.5205 66.2171V67.6141C99.2712 67.7754 99.0072 67.8891 98.7285 67.9551C98.4572 68.0284 98.1125 68.0651 97.6945 68.0651ZM106.359 64.9411C106.359 65.4397 106.289 65.8834 106.15 66.2721C106.018 66.6607 105.824 66.9907 105.567 67.2621C105.318 67.5261 105.013 67.7277 104.654 67.8671C104.295 67.9991 103.888 68.0651 103.433 68.0651C103.015 68.0651 102.626 67.9991 102.267 67.8671C101.915 67.7277 101.611 67.5261 101.354 67.2621C101.097 66.9907 100.896 66.6607 100.749 66.2721C100.61 65.8834 100.54 65.4397 100.54 64.9411C100.54 64.2737 100.657 63.7127 100.892 63.2581C101.127 62.7961 101.464 62.4441 101.904 62.2021C102.344 61.9601 102.865 61.8391 103.466 61.8391C104.031 61.8391 104.529 61.9601 104.962 62.2021C105.395 62.4441 105.736 62.7961 105.985 63.2581C106.234 63.7127 106.359 64.2737 106.359 64.9411ZM102.212 64.9411C102.212 65.3371 102.252 65.6707 102.333 65.9421C102.421 66.2061 102.557 66.4077 102.74 66.5471C102.923 66.6791 103.162 66.7451 103.455 66.7451C103.748 66.7451 103.983 66.6791 104.159 66.5471C104.342 66.4077 104.474 66.2061 104.555 65.9421C104.643 65.6707 104.687 65.3371 104.687 64.9411C104.687 64.5451 104.643 64.2151 104.555 63.9511C104.474 63.6871 104.342 63.4891 104.159 63.3571C103.976 63.2251 103.737 63.1591 103.444 63.1591C103.011 63.1591 102.696 63.3094 102.498 63.6101C102.307 63.9034 102.212 64.3471 102.212 64.9411ZM113.169 64.9411C113.169 65.4397 113.1 65.8834 112.96 66.2721C112.828 66.6607 112.634 66.9907 112.377 67.2621C112.128 67.5261 111.824 67.7277 111.464 67.8671C111.105 67.9991 110.698 68.0651 110.243 68.0651C109.825 68.0651 109.437 67.9991 109.077 67.8671C108.725 67.7277 108.421 67.5261 108.164 67.2621C107.908 66.9907 107.706 66.6607 107.559 66.2721C107.42 65.8834 107.35 65.4397 107.35 64.9411C107.35 64.2737 107.468 63.7127 107.702 63.2581C107.937 62.7961 108.274 62.4441 108.714 62.2021C109.154 61.9601 109.675 61.8391 110.276 61.8391C110.841 61.8391 111.34 61.9601 111.772 62.2021C112.205 62.4441 112.546 62.7961 112.795 63.2581C113.045 63.7127 113.169 64.2737 113.169 64.9411ZM109.022 64.9411C109.022 65.3371 109.063 65.6707 109.143 65.9421C109.231 66.2061 109.367 66.4077 109.55 66.5471C109.734 66.6791 109.972 66.7451 110.265 66.7451C110.559 66.7451 110.793 66.6791 110.969 66.5471C111.153 66.4077 111.285 66.2061 111.365 65.9421C111.453 65.6707 111.497 65.3371 111.497 64.9411C111.497 64.5451 111.453 64.2151 111.365 63.9511C111.285 63.6871 111.153 63.4891 110.969 63.3571C110.786 63.2251 110.548 63.1591 110.254 63.1591C109.822 63.1591 109.506 63.3094 109.308 63.6101C109.118 63.9034 109.022 64.3471 109.022 64.9411ZM117.934 61.8391C118.579 61.8391 119.096 62.0151 119.485 62.3671C119.874 62.7117 120.068 63.2691 120.068 64.0391V67.9551H118.429V64.4461C118.429 64.0134 118.352 63.6907 118.198 63.4781C118.044 63.2581 117.798 63.1481 117.461 63.1481C116.962 63.1481 116.621 63.3204 116.438 63.6651C116.255 64.0024 116.163 64.4901 116.163 65.1281V67.9551H114.524V61.9491H115.778L115.998 62.7191H116.086C116.218 62.5137 116.379 62.3487 116.57 62.2241C116.761 62.0921 116.973 61.9967 117.208 61.9381C117.443 61.8721 117.685 61.8391 117.934 61.8391ZM123.393 67.9551H121.754V59.5951H123.393V67.9551ZM126.744 61.9491V67.9551H125.105V61.9491H126.744ZM125.93 59.5951C126.172 59.5951 126.381 59.6537 126.557 59.7711C126.733 59.8811 126.821 60.0901 126.821 60.3981C126.821 60.6987 126.733 60.9077 126.557 61.0251C126.381 61.1424 126.172 61.2011 125.93 61.2011C125.681 61.2011 125.468 61.1424 125.292 61.0251C125.123 60.9077 125.039 60.6987 125.039 60.3981C125.039 60.0901 125.123 59.8811 125.292 59.7711C125.468 59.6537 125.681 59.5951 125.93 59.5951ZM131.867 61.8391C132.512 61.8391 133.029 62.0151 133.418 62.3671C133.806 62.7117 134.001 63.2691 134.001 64.0391V67.9551H132.362V64.4461C132.362 64.0134 132.285 63.6907 132.131 63.4781C131.977 63.2581 131.731 63.1481 131.394 63.1481C130.895 63.1481 130.554 63.3204 130.371 63.6651C130.187 64.0024 130.096 64.4901 130.096 65.1281V67.9551H128.457V61.9491H129.711L129.931 62.7191H130.019C130.151 62.5137 130.312 62.3487 130.503 62.2241C130.693 62.0921 130.906 61.9967 131.141 61.9381C131.375 61.8721 131.617 61.8391 131.867 61.8391ZM138.161 61.8391C138.718 61.8391 139.195 61.9454 139.591 62.1581C139.994 62.3707 140.306 62.6787 140.526 63.0821C140.746 63.4854 140.856 63.9804 140.856 64.5671V65.3591H136.984C136.999 65.8211 137.134 66.1841 137.391 66.4481C137.655 66.7121 138.018 66.8441 138.48 66.8441C138.869 66.8441 139.221 66.8074 139.536 66.7341C139.851 66.6534 140.178 66.5324 140.515 66.3711V67.6361C140.222 67.7827 139.91 67.8891 139.58 67.9551C139.257 68.0284 138.865 68.0651 138.403 68.0651C137.802 68.0651 137.27 67.9551 136.808 67.7351C136.346 67.5077 135.983 67.1667 135.719 66.7121C135.455 66.2574 135.323 65.6854 135.323 64.9961C135.323 64.2921 135.44 63.7091 135.675 63.2471C135.917 62.7777 136.251 62.4257 136.676 62.1911C137.101 61.9564 137.596 61.8391 138.161 61.8391ZM138.172 63.0051C137.857 63.0051 137.593 63.1077 137.38 63.3131C137.175 63.5184 137.054 63.8374 137.017 64.2701H139.316C139.316 64.0281 139.272 63.8117 139.184 63.6211C139.103 63.4304 138.979 63.2801 138.81 63.1701C138.641 63.0601 138.429 63.0051 138.172 63.0051ZM141.954 67.1851C141.954 66.8477 142.046 66.6131 142.229 66.4811C142.412 66.3417 142.636 66.2721 142.9 66.2721C143.157 66.2721 143.377 66.3417 143.56 66.4811C143.743 66.6131 143.835 66.8477 143.835 67.1851C143.835 67.5077 143.743 67.7424 143.56 67.8891C143.377 68.0284 143.157 68.0981 142.9 68.0981C142.636 68.0981 142.412 68.0284 142.229 67.8891C142.046 67.7424 141.954 67.5077 141.954 67.1851ZM147.764 68.0651C147.17 68.0651 146.664 67.9587 146.246 67.7461C145.828 67.5261 145.509 67.1887 145.289 66.7341C145.069 66.2794 144.959 65.6964 144.959 64.9851C144.959 64.2517 145.084 63.6541 145.333 63.1921C145.582 62.7301 145.927 62.3891 146.367 62.1691C146.814 61.9491 147.328 61.8391 147.907 61.8391C148.318 61.8391 148.673 61.8794 148.974 61.9601C149.282 62.0407 149.55 62.1361 149.777 62.2461L149.293 63.5111C149.036 63.4084 148.794 63.3241 148.567 63.2581C148.347 63.1921 148.127 63.1591 147.907 63.1591C147.621 63.1591 147.383 63.2287 147.192 63.3681C147.001 63.5001 146.858 63.7017 146.763 63.9731C146.675 64.2371 146.631 64.5707 146.631 64.9741C146.631 65.3701 146.679 65.7001 146.774 65.9641C146.877 66.2207 147.023 66.4151 147.214 66.5471C147.405 66.6717 147.636 66.7341 147.907 66.7341C148.252 66.7341 148.556 66.6901 148.82 66.6021C149.084 66.5067 149.341 66.3784 149.59 66.2171V67.6141C149.341 67.7754 149.077 67.8891 148.798 67.9551C148.527 68.0284 148.182 68.0651 147.764 68.0651ZM156.428 64.9411C156.428 65.4397 156.359 65.8834 156.219 66.2721C156.087 66.6607 155.893 66.9907 155.636 67.2621C155.387 67.5261 155.083 67.7277 154.723 67.8671C154.364 67.9991 153.957 68.0651 153.502 68.0651C153.084 68.0651 152.696 67.9991 152.336 67.8671C151.984 67.7277 151.68 67.5261 151.423 67.2621C151.167 66.9907 150.965 66.6607 150.818 66.2721C150.679 65.8834 150.609 65.4397 150.609 64.9411C150.609 64.2737 150.727 63.7127 150.961 63.2581C151.196 62.7961 151.533 62.4441 151.973 62.2021C152.413 61.9601 152.934 61.8391 153.535 61.8391C154.1 61.8391 154.599 61.9601 155.031 62.2021C155.464 62.4441 155.805 62.7961 156.054 63.2581C156.304 63.7127 156.428 64.2737 156.428 64.9411ZM152.281 64.9411C152.281 65.3371 152.322 65.6707 152.402 65.9421C152.49 66.2061 152.626 66.4077 152.809 66.5471C152.993 66.6791 153.231 66.7451 153.524 66.7451C153.818 66.7451 154.052 66.6791 154.228 66.5471C154.412 66.4077 154.544 66.2061 154.624 65.9421C154.712 65.6707 154.756 65.3371 154.756 64.9411C154.756 64.5451 154.712 64.2151 154.624 63.9511C154.544 63.6871 154.412 63.4891 154.228 63.3571C154.045 63.2251 153.807 63.1591 153.513 63.1591C153.081 63.1591 152.765 63.3094 152.567 63.6101C152.377 63.9034 152.281 64.3471 152.281 64.9411ZM164.834 61.8391C165.516 61.8391 166.029 62.0151 166.374 62.3671C166.726 62.7117 166.902 63.2691 166.902 64.0391V67.9551H165.263V64.4461C165.263 64.0134 165.189 63.6907 165.043 63.4781C164.896 63.2581 164.669 63.1481 164.361 63.1481C163.928 63.1481 163.62 63.3021 163.437 63.6101C163.253 63.9181 163.162 64.3617 163.162 64.9411V67.9551H161.523V64.4461C161.523 64.1601 161.49 63.9217 161.424 63.7311C161.358 63.5404 161.259 63.3974 161.127 63.3021C160.995 63.1994 160.826 63.1481 160.621 63.1481C160.32 63.1481 160.082 63.2251 159.906 63.3791C159.73 63.5331 159.605 63.7567 159.532 64.0501C159.458 64.3434 159.422 64.7027 159.422 65.1281V67.9551H157.783V61.9491H159.037L159.257 62.7191H159.345C159.469 62.5137 159.623 62.3487 159.807 62.2241C159.99 62.0921 160.192 61.9967 160.412 61.9381C160.639 61.8721 160.866 61.8391 161.094 61.8391C161.534 61.8391 161.908 61.9124 162.216 62.0591C162.524 62.1984 162.758 62.4184 162.92 62.7191H163.063C163.246 62.4111 163.499 62.1874 163.822 62.0481C164.152 61.9087 164.489 61.8391 164.834 61.8391ZM168.358 67.1851C168.358 66.8477 168.45 66.6131 168.633 66.4811C168.817 66.3417 169.04 66.2721 169.304 66.2721C169.561 66.2721 169.781 66.3417 169.964 66.4811C170.148 66.6131 170.239 66.8477 170.239 67.1851C170.239 67.5077 170.148 67.7424 169.964 67.8891C169.781 68.0284 169.561 68.0981 169.304 68.0981C169.04 68.0981 168.817 68.0284 168.633 67.8891C168.45 67.7424 168.358 67.5077 168.358 67.1851ZM173.365 61.5421C173.365 61.7694 173.358 61.9931 173.343 62.2131C173.328 62.4331 173.314 62.6054 173.299 62.7301H173.365C173.526 62.4807 173.743 62.2717 174.014 62.1031C174.285 61.9271 174.637 61.8391 175.07 61.8391C175.745 61.8391 176.291 62.1031 176.709 62.6311C177.127 63.1517 177.336 63.9217 177.336 64.9411C177.336 65.6231 177.237 66.1987 177.039 66.6681C176.848 67.1301 176.581 67.4784 176.236 67.7131C175.891 67.9477 175.488 68.0651 175.026 68.0651C174.586 68.0651 174.238 67.9881 173.981 67.8341C173.732 67.6727 173.526 67.4931 173.365 67.2951H173.255L172.98 67.9551H171.726V59.5951H173.365V61.5421ZM174.542 63.1481C174.256 63.1481 174.029 63.2067 173.86 63.3241C173.691 63.4414 173.567 63.6211 173.486 63.8631C173.413 64.0977 173.372 64.3947 173.365 64.7541V64.9301C173.365 65.5094 173.449 65.9567 173.618 66.2721C173.794 66.5801 174.109 66.7341 174.564 66.7341C174.901 66.7341 175.169 66.5801 175.367 66.2721C175.565 65.9567 175.664 65.5057 175.664 64.9191C175.664 64.3324 175.561 63.8924 175.356 63.5991C175.158 63.2984 174.887 63.1481 174.542 63.1481ZM182.042 61.8391C182.123 61.8391 182.218 61.8427 182.328 61.8501C182.438 61.8574 182.526 61.8684 182.592 61.8831L182.471 63.4231C182.42 63.4084 182.343 63.3974 182.24 63.3901C182.145 63.3754 182.06 63.3681 181.987 63.3681C181.774 63.3681 181.569 63.3974 181.371 63.4561C181.173 63.5074 180.993 63.5917 180.832 63.7091C180.678 63.8264 180.553 63.9841 180.458 64.1821C180.37 64.3727 180.326 64.6111 180.326 64.8971V67.9551H178.687V61.9491H179.93L180.172 62.9611H180.249C180.366 62.7557 180.513 62.5687 180.689 62.4001C180.865 62.2314 181.067 62.0957 181.294 61.9931C181.529 61.8904 181.778 61.8391 182.042 61.8391ZM187.312 60.1011L184.386 67.9551H182.901L185.827 60.1011H187.312ZM26.1429 83.7561C26.3262 83.7561 26.5022 83.7377 26.6709 83.7011C26.8395 83.6644 27.0082 83.6204 27.1769 83.5691V84.7901C27.0009 84.8634 26.7809 84.9257 26.5169 84.9771C26.2602 85.0357 25.9779 85.0651 25.6699 85.0651C25.3105 85.0651 24.9879 85.0064 24.7019 84.8891C24.4232 84.7717 24.1995 84.5701 24.0309 84.2841C23.8695 83.9907 23.7889 83.5874 23.7889 83.0741V80.1811H23.0079V79.4881L23.9099 78.9381L24.3829 77.6731H25.4279V78.9491H27.1109V80.1811H25.4279V83.0741C25.4279 83.3014 25.4939 83.4737 25.6259 83.5911C25.7579 83.7011 25.9302 83.7561 26.1429 83.7561ZM31.7374 78.8391C31.8181 78.8391 31.9134 78.8427 32.0234 78.8501C32.1334 78.8574 32.2214 78.8684 32.2874 78.8831L32.1664 80.4231C32.1151 80.4084 32.0381 80.3974 31.9354 80.3901C31.8401 80.3754 31.7557 80.3681 31.6824 80.3681C31.4697 80.3681 31.2644 80.3974 31.0664 80.4561C30.8684 80.5074 30.6887 80.5917 30.5274 80.7091C30.3734 80.8264 30.2487 80.9841 30.1534 81.1821C30.0654 81.3727 30.0214 81.6111 30.0214 81.8971V84.9551H28.3824V78.9491H29.6254L29.8674 79.9611H29.9444C30.0617 79.7557 30.2084 79.5687 30.3844 79.4001C30.5604 79.2314 30.7621 79.0957 30.9894 78.9931C31.2241 78.8904 31.4734 78.8391 31.7374 78.8391ZM35.0165 78.9491V84.9551H33.3775V78.9491H35.0165ZM34.2025 76.5951C34.4445 76.5951 34.6535 76.6537 34.8295 76.7711C35.0055 76.8811 35.0935 77.0901 35.0935 77.3981C35.0935 77.6987 35.0055 77.9077 34.8295 78.0251C34.6535 78.1424 34.4445 78.2011 34.2025 78.2011C33.9532 78.2011 33.7405 78.1424 33.5645 78.0251C33.3959 77.9077 33.3115 77.6987 33.3115 77.3981C33.3115 77.0901 33.3959 76.8811 33.5645 76.7711C33.7405 76.6537 33.9532 76.5951 34.2025 76.5951ZM38.3681 78.5421C38.3681 78.7694 38.3608 78.9931 38.3461 79.2131C38.3314 79.4331 38.3168 79.6054 38.3021 79.7301H38.3681C38.5294 79.4807 38.7458 79.2717 39.0171 79.1031C39.2884 78.9271 39.6404 78.8391 40.0731 78.8391C40.7478 78.8391 41.2941 79.1031 41.7121 79.6311C42.1301 80.1517 42.3391 80.9217 42.3391 81.9411C42.3391 82.6231 42.2401 83.1987 42.0421 83.6681C41.8514 84.1301 41.5838 84.4784 41.2391 84.7131C40.8944 84.9477 40.4911 85.0651 40.0291 85.0651C39.5891 85.0651 39.2408 84.9881 38.9841 84.8341C38.7348 84.6727 38.5294 84.4931 38.3681 84.2951H38.2581L37.9831 84.9551H36.7291V76.5951H38.3681V78.5421ZM39.5451 80.1481C39.2591 80.1481 39.0318 80.2067 38.8631 80.3241C38.6944 80.4414 38.5698 80.6211 38.4891 80.8631C38.4158 81.0977 38.3754 81.3947 38.3681 81.7541V81.9301C38.3681 82.5094 38.4524 82.9567 38.6211 83.2721C38.7971 83.5801 39.1124 83.7341 39.5671 83.7341C39.9044 83.7341 40.1721 83.5801 40.3701 83.2721C40.5681 82.9567 40.6671 82.5057 40.6671 81.9191C40.6671 81.3324 40.5644 80.8924 40.3591 80.5991C40.1611 80.2984 39.8898 80.1481 39.5451 80.1481ZM46.154 78.8281C46.9607 78.8281 47.5767 79.0041 48.002 79.3561C48.4347 79.7007 48.651 80.2324 48.651 80.9511V84.9551H47.507L47.188 84.1411H47.144C46.9754 84.3537 46.7994 84.5297 46.616 84.6691C46.44 84.8084 46.2347 84.9074 46 84.9661C45.7727 85.0321 45.4904 85.0651 45.153 85.0651C44.801 85.0651 44.482 84.9991 44.196 84.8671C43.9174 84.7277 43.6974 84.5187 43.536 84.2401C43.3747 83.9541 43.294 83.5947 43.294 83.1621C43.294 82.5241 43.5177 82.0547 43.965 81.7541C44.4124 81.4461 45.0834 81.2774 45.978 81.2481L47.023 81.2151V80.9511C47.023 80.6357 46.9387 80.4047 46.77 80.2581C46.6087 80.1114 46.3814 80.0381 46.088 80.0381C45.7947 80.0381 45.5087 80.0821 45.23 80.1701C44.9514 80.2507 44.6727 80.3534 44.394 80.4781L43.855 79.3671C44.1777 79.1984 44.5334 79.0664 44.922 78.9711C45.318 78.8757 45.7287 78.8281 46.154 78.8281ZM46.385 82.1941C45.857 82.2087 45.4904 82.3041 45.285 82.4801C45.0797 82.6561 44.977 82.8871 44.977 83.1731C44.977 83.4224 45.0504 83.6021 45.197 83.7121C45.3437 83.8147 45.5344 83.8661 45.769 83.8661C46.121 83.8661 46.418 83.7634 46.66 83.5581C46.902 83.3454 47.023 83.0484 47.023 82.6671V82.1721L46.385 82.1941ZM53.7387 78.8391C54.384 78.8391 54.901 79.0151 55.2897 79.3671C55.6784 79.7117 55.8727 80.2691 55.8727 81.0391V84.9551H54.2337V81.4461C54.2337 81.0134 54.1567 80.6907 54.0027 80.4781C53.8487 80.2581 53.603 80.1481 53.2657 80.1481C52.767 80.1481 52.426 80.3204 52.2427 80.6651C52.0594 81.0024 51.9677 81.4901 51.9677 82.1281V84.9551H50.3287V78.9491H51.5827L51.8027 79.7191H51.8907C52.0227 79.5137 52.184 79.3487 52.3747 79.2241C52.5654 79.0921 52.778 78.9967 53.0127 78.9381C53.2474 78.8721 53.4894 78.8391 53.7387 78.8391ZM60.0002 85.0651C59.4062 85.0651 58.9002 84.9587 58.4822 84.7461C58.0642 84.5261 57.7452 84.1887 57.5252 83.7341C57.3052 83.2794 57.1952 82.6964 57.1952 81.9851C57.1952 81.2517 57.3199 80.6541 57.5692 80.1921C57.8185 79.7301 58.1632 79.3891 58.6032 79.1691C59.0505 78.9491 59.5639 78.8391 60.1432 78.8391C60.5539 78.8391 60.9095 78.8794 61.2102 78.9601C61.5182 79.0407 61.7859 79.1361 62.0132 79.2461L61.5292 80.5111C61.2725 80.4084 61.0305 80.3241 60.8032 80.2581C60.5832 80.1921 60.3632 80.1591 60.1432 80.1591C59.8572 80.1591 59.6189 80.2287 59.4282 80.3681C59.2375 80.5001 59.0945 80.7017 58.9992 80.9731C58.9112 81.2371 58.8672 81.5707 58.8672 81.9741C58.8672 82.3701 58.9149 82.7001 59.0102 82.9641C59.1129 83.2207 59.2595 83.4151 59.4502 83.5471C59.6409 83.6717 59.8719 83.7341 60.1432 83.7341C60.4879 83.7341 60.7922 83.6901 61.0562 83.6021C61.3202 83.5067 61.5769 83.3784 61.8262 83.2171V84.6141C61.5769 84.7754 61.3129 84.8891 61.0342 84.9551C60.7629 85.0284 60.4182 85.0651 60.0002 85.0651ZM68.6646 81.9411C68.6646 82.4397 68.5949 82.8834 68.4556 83.2721C68.3236 83.6607 68.1293 83.9907 67.8726 84.2621C67.6233 84.5261 67.3189 84.7277 66.9596 84.8671C66.6003 84.9991 66.1933 85.0651 65.7386 85.0651C65.3206 85.0651 64.9319 84.9991 64.5726 84.8671C64.2206 84.7277 63.9163 84.5261 63.6596 84.2621C63.4029 83.9907 63.2013 83.6607 63.0546 83.2721C62.9153 82.8834 62.8456 82.4397 62.8456 81.9411C62.8456 81.2737 62.9629 80.7127 63.1976 80.2581C63.4323 79.7961 63.7696 79.4441 64.2096 79.2021C64.6496 78.9601 65.1703 78.8391 65.7716 78.8391C66.3363 78.8391 66.8349 78.9601 67.2676 79.2021C67.7003 79.4441 68.0413 79.7961 68.2906 80.2581C68.5399 80.7127 68.6646 81.2737 68.6646 81.9411ZM64.5176 81.9411C64.5176 82.3371 64.5579 82.6707 64.6386 82.9421C64.7266 83.2061 64.8623 83.4077 65.0456 83.5471C65.2289 83.6791 65.4673 83.7451 65.7606 83.7451C66.0539 83.7451 66.2886 83.6791 66.4646 83.5471C66.6479 83.4077 66.7799 83.2061 66.8606 82.9421C66.9486 82.6707 66.9926 82.3371 66.9926 81.9411C66.9926 81.5451 66.9486 81.2151 66.8606 80.9511C66.7799 80.6871 66.6479 80.4891 66.4646 80.3571C66.2813 80.2251 66.0429 80.1591 65.7496 80.1591C65.3169 80.1591 65.0016 80.3094 64.8036 80.6101C64.6129 80.9034 64.5176 81.3471 64.5176 81.9411ZM69.4911 82.6781V81.3361H72.3731V82.6781H69.4911ZM75.2031 78.9491V84.9551H73.5641V78.9491H75.2031ZM74.3891 76.5951C74.6311 76.5951 74.8401 76.6537 75.0161 76.7711C75.1921 76.8811 75.2801 77.0901 75.2801 77.3981C75.2801 77.6987 75.1921 77.9077 75.0161 78.0251C74.8401 78.1424 74.6311 78.2011 74.3891 78.2011C74.1397 78.2011 73.9271 78.1424 73.7511 78.0251C73.5824 77.9077 73.4981 77.6987 73.4981 77.3981C73.4981 77.0901 73.5824 76.8811 73.7511 76.7711C73.9271 76.6537 74.1397 76.5951 74.3891 76.5951ZM78.5546 78.5421C78.5546 78.7694 78.5473 78.9931 78.5326 79.2131C78.518 79.4331 78.5033 79.6054 78.4886 79.7301H78.5546C78.716 79.4807 78.9323 79.2717 79.2036 79.1031C79.475 78.9271 79.827 78.8391 80.2596 78.8391C80.9343 78.8391 81.4806 79.1031 81.8986 79.6311C82.3166 80.1517 82.5256 80.9217 82.5256 81.9411C82.5256 82.6231 82.4266 83.1987 82.2286 83.6681C82.038 84.1301 81.7703 84.4784 81.4256 84.7131C81.081 84.9477 80.6776 85.0651 80.2156 85.0651C79.7756 85.0651 79.4273 84.9881 79.1706 84.8341C78.9213 84.6727 78.716 84.4931 78.5546 84.2951H78.4446L78.1696 84.9551H76.9156V76.5951H78.5546V78.5421ZM79.7316 80.1481C79.4456 80.1481 79.2183 80.2067 79.0496 80.3241C78.881 80.4414 78.7563 80.6211 78.6756 80.8631C78.6023 81.0977 78.562 81.3947 78.5546 81.7541V81.9301C78.5546 82.5094 78.639 82.9567 78.8076 83.2721C78.9836 83.5801 79.299 83.7341 79.7536 83.7341C80.091 83.7341 80.3586 83.5801 80.5566 83.2721C80.7546 82.9567 80.8536 82.5057 80.8536 81.9191C80.8536 81.3324 80.751 80.8924 80.5456 80.5991C80.3476 80.2984 80.0763 80.1481 79.7316 80.1481ZM87.5066 77.1011L84.5806 84.9551H83.0956L86.0216 77.1011H87.5066ZM92.6115 83.1731C92.6115 83.5764 92.5162 83.9211 92.3255 84.2071C92.1348 84.4857 91.8488 84.6984 91.4675 84.8451C91.0862 84.9917 90.6132 85.0651 90.0485 85.0651C89.6305 85.0651 89.2712 85.0357 88.9705 84.9771C88.6698 84.9257 88.3692 84.8377 88.0685 84.7131V83.3601C88.3912 83.5067 88.7395 83.6277 89.1135 83.7231C89.4875 83.8184 89.8175 83.8661 90.1035 83.8661C90.4262 83.8661 90.6535 83.8184 90.7855 83.7231C90.9248 83.6277 90.9945 83.5031 90.9945 83.3491C90.9945 83.2464 90.9652 83.1547 90.9065 83.0741C90.8552 82.9934 90.7378 82.9017 90.5545 82.7991C90.3712 82.6964 90.0852 82.5644 89.6965 82.4031C89.3225 82.2417 89.0145 82.0841 88.7725 81.9301C88.5305 81.7687 88.3508 81.5781 88.2335 81.3581C88.1162 81.1307 88.0575 80.8484 88.0575 80.5111C88.0575 79.9537 88.2738 79.5357 88.7065 79.2571C89.1392 78.9784 89.7148 78.8391 90.4335 78.8391C90.8075 78.8391 91.1632 78.8757 91.5005 78.9491C91.8378 79.0224 92.1862 79.1434 92.5455 79.3121L92.0505 80.4891C91.8525 80.4011 91.6618 80.3241 91.4785 80.2581C91.2952 80.1921 91.1155 80.1407 90.9395 80.1041C90.7708 80.0674 90.5948 80.0491 90.4115 80.0491C90.1695 80.0491 89.9862 80.0821 89.8615 80.1481C89.7442 80.2141 89.6855 80.3131 89.6855 80.4451C89.6855 80.5404 89.7148 80.6284 89.7735 80.7091C89.8395 80.7824 89.9605 80.8631 90.1365 80.9511C90.3198 81.0391 90.5875 81.1564 90.9395 81.3031C91.2842 81.4424 91.5812 81.5891 91.8305 81.7431C92.0798 81.8897 92.2705 82.0767 92.4025 82.3041C92.5418 82.5241 92.6115 82.8137 92.6115 83.1731ZM96.3633 78.8391C96.9206 78.8391 97.3973 78.9454 97.7933 79.1581C98.1966 79.3707 98.5083 79.6787 98.7283 80.0821C98.9483 80.4854 99.0583 80.9804 99.0583 81.5671V82.3591H95.1863C95.2009 82.8211 95.3366 83.1841 95.5933 83.4481C95.8573 83.7121 96.2203 83.8441 96.6823 83.8441C97.0709 83.8441 97.4229 83.8074 97.7383 83.7341C98.0536 83.6534 98.3799 83.5324 98.7173 83.3711V84.6361C98.4239 84.7827 98.1123 84.8891 97.7823 84.9551C97.4596 85.0284 97.0673 85.0651 96.6053 85.0651C96.0039 85.0651 95.4723 84.9551 95.0103 84.7351C94.5483 84.5077 94.1853 84.1667 93.9213 83.7121C93.6573 83.2574 93.5253 82.6854 93.5253 81.9961C93.5253 81.2921 93.6426 80.7091 93.8773 80.2471C94.1193 79.7777 94.4529 79.4257 94.8783 79.1911C95.3036 78.9564 95.7986 78.8391 96.3633 78.8391ZM96.3743 80.0051C96.0589 80.0051 95.7949 80.1077 95.5823 80.3131C95.3769 80.5184 95.2559 80.8374 95.2193 81.2701H97.5183C97.5183 81.0281 97.4743 80.8117 97.3863 80.6211C97.3056 80.4304 97.1809 80.2801 97.0123 80.1701C96.8436 80.0601 96.6309 80.0051 96.3743 80.0051ZM103.742 78.8391C103.823 78.8391 103.918 78.8427 104.028 78.8501C104.138 78.8574 104.226 78.8684 104.292 78.8831L104.171 80.4231C104.12 80.4084 104.043 80.3974 103.94 80.3901C103.845 80.3754 103.761 80.3681 103.687 80.3681C103.475 80.3681 103.269 80.3974 103.071 80.4561C102.873 80.5074 102.694 80.5917 102.532 80.7091C102.378 80.8264 102.254 80.9841 102.158 81.1821C102.07 81.3727 102.026 81.6111 102.026 81.8971V84.9551H100.387V78.9491H101.63L101.872 79.9611H101.949C102.067 79.7557 102.213 79.5687 102.389 79.4001C102.565 79.2314 102.767 79.0957 102.994 78.9931C103.229 78.8904 103.478 78.8391 103.742 78.8391ZM106.812 84.9551L104.524 78.9491H106.24L107.395 82.3701C107.439 82.5021 107.476 82.6414 107.505 82.7881C107.542 82.9347 107.568 83.0777 107.582 83.2171C107.604 83.3564 107.619 83.4847 107.626 83.6021H107.67C107.678 83.4774 107.692 83.3454 107.714 83.2061C107.736 83.0667 107.762 82.9274 107.791 82.7881C107.828 82.6414 107.868 82.5021 107.912 82.3701L109.067 78.9491H110.783L108.495 84.9551H106.812ZM113.284 78.9491V84.9551H111.645V78.9491H113.284ZM112.47 76.5951C112.712 76.5951 112.921 76.6537 113.097 76.7711C113.273 76.8811 113.361 77.0901 113.361 77.3981C113.361 77.6987 113.273 77.9077 113.097 78.0251C112.921 78.1424 112.712 78.2011 112.47 78.2011C112.221 78.2011 112.008 78.1424 111.832 78.0251C111.663 77.9077 111.579 77.6987 111.579 77.3981C111.579 77.0901 111.663 76.8811 111.832 76.7711C112.008 76.6537 112.221 76.5951 112.47 76.5951ZM117.439 85.0651C116.845 85.0651 116.339 84.9587 115.921 84.7461C115.503 84.5261 115.184 84.1887 114.964 83.7341C114.744 83.2794 114.634 82.6964 114.634 81.9851C114.634 81.2517 114.758 80.6541 115.008 80.1921C115.257 79.7301 115.602 79.3891 116.042 79.1691C116.489 78.9491 117.002 78.8391 117.582 78.8391C117.992 78.8391 118.348 78.8794 118.649 78.9601C118.957 79.0407 119.224 79.1361 119.452 79.2461L118.968 80.5111C118.711 80.4084 118.469 80.3241 118.242 80.2581C118.022 80.1921 117.802 80.1591 117.582 80.1591C117.296 80.1591 117.057 80.2287 116.867 80.3681C116.676 80.5001 116.533 80.7017 116.438 80.9731C116.35 81.2371 116.306 81.5707 116.306 81.9741C116.306 82.3701 116.353 82.7001 116.449 82.9641C116.551 83.2207 116.698 83.4151 116.889 83.5471C117.079 83.6717 117.31 83.7341 117.582 83.7341C117.926 83.7341 118.231 83.6901 118.495 83.6021C118.759 83.5067 119.015 83.3784 119.265 83.2171V84.6141C119.015 84.7754 118.751 84.8891 118.473 84.9551C118.201 85.0284 117.857 85.0651 117.439 85.0651ZM123.122 78.8391C123.679 78.8391 124.156 78.9454 124.552 79.1581C124.955 79.3707 125.267 79.6787 125.487 80.0821C125.707 80.4854 125.817 80.9804 125.817 81.5671V82.3591H121.945C121.96 82.8211 122.095 83.1841 122.352 83.4481C122.616 83.7121 122.979 83.8441 123.441 83.8441C123.83 83.8441 124.182 83.8074 124.497 83.7341C124.812 83.6534 125.139 83.5324 125.476 83.3711V84.6361C125.183 84.7827 124.871 84.8891 124.541 84.9551C124.218 85.0284 123.826 85.0651 123.364 85.0651C122.763 85.0651 122.231 84.9551 121.769 84.7351C121.307 84.5077 120.944 84.1667 120.68 83.7121C120.416 83.2574 120.284 82.6854 120.284 81.9961C120.284 81.2921 120.401 80.7091 120.636 80.2471C120.878 79.7777 121.212 79.4257 121.637 79.1911C122.062 78.9564 122.557 78.8391 123.122 78.8391ZM123.133 80.0051C122.818 80.0051 122.554 80.1077 122.341 80.3131C122.136 80.5184 122.015 80.8374 121.978 81.2701H124.277C124.277 81.0281 124.233 80.8117 124.145 80.6211C124.064 80.4304 123.94 80.2801 123.771 80.1701C123.602 80.0601 123.39 80.0051 123.133 80.0051ZM131.337 83.1731C131.337 83.5764 131.242 83.9211 131.051 84.2071C130.86 84.4857 130.574 84.6984 130.193 84.8451C129.812 84.9917 129.339 85.0651 128.774 85.0651C128.356 85.0651 127.997 85.0357 127.696 84.9771C127.395 84.9257 127.095 84.8377 126.794 84.7131V83.3601C127.117 83.5067 127.465 83.6277 127.839 83.7231C128.213 83.8184 128.543 83.8661 128.829 83.8661C129.152 83.8661 129.379 83.8184 129.511 83.7231C129.65 83.6277 129.72 83.5031 129.72 83.3491C129.72 83.2464 129.691 83.1547 129.632 83.0741C129.581 82.9934 129.463 82.9017 129.28 82.7991C129.097 82.6964 128.811 82.5644 128.422 82.4031C128.048 82.2417 127.74 82.0841 127.498 81.9301C127.256 81.7687 127.076 81.5781 126.959 81.3581C126.842 81.1307 126.783 80.8484 126.783 80.5111C126.783 79.9537 126.999 79.5357 127.432 79.2571C127.865 78.9784 128.44 78.8391 129.159 78.8391C129.533 78.8391 129.889 78.8757 130.226 78.9491C130.563 79.0224 130.912 79.1434 131.271 79.3121L130.776 80.4891C130.578 80.4011 130.387 80.3241 130.204 80.2581C130.021 80.1921 129.841 80.1407 129.665 80.1041C129.496 80.0674 129.32 80.0491 129.137 80.0491C128.895 80.0491 128.712 80.0821 128.587 80.1481C128.47 80.2141 128.411 80.3131 128.411 80.4451C128.411 80.5404 128.44 80.6284 128.499 80.7091C128.565 80.7824 128.686 80.8631 128.862 80.9511C129.045 81.0391 129.313 81.1564 129.665 81.3031C130.01 81.4424 130.307 81.5891 130.556 81.7431C130.805 81.8897 130.996 82.0767 131.128 82.3041C131.267 82.5241 131.337 82.8137 131.337 83.1731ZM136.244 77.1011L133.318 84.9551H131.833L134.759 77.1011H136.244Z" fill="#05BDFB"/>
<ellipse cx="174.755" cy="93.9225" rx="4" ry="3.99672" fill="url(#paint1_linear_752_1775)"/>
<path d="M180.505 93.9228C180.505 97.0956 177.931 99.6679 174.755 99.6679C171.579 99.6679 169.005 97.0956 169.005 93.9228C169.005 90.7501 171.579 88.1777 174.755 88.1777C177.931 88.1777 180.505 90.7501 180.505 93.9228Z" stroke="url(#paint2_linear_752_1775)" stroke-width="0.5"/>
<path d="M182.505 93.9231C182.505 98.1995 179.035 101.667 174.755 101.667C170.474 101.667 167.005 98.1995 167.005 93.9231C167.005 89.6467 170.474 86.1797 174.755 86.1797C179.035 86.1797 182.505 89.6467 182.505 93.9231Z" stroke="url(#paint3_linear_752_1775)" stroke-width="0.5"/>
<path fill-rule="evenodd" clip-rule="evenodd" d="M179.64 107.251C179.504 107.701 178.879 107.731 178.7 107.296L173.317 94.2192C173.138 93.7847 173.603 93.3659 174.016 93.5889L186.436 100.286C186.849 100.508 186.756 101.126 186.296 101.216L181.457 102.173C181.276 102.209 181.129 102.342 181.075 102.519L179.64 107.251Z" fill="url(#paint4_linear_752_1775)"/>
<path d="M98.7549 16.9863H63.7549C57.1275 16.9863 51.7549 22.3589 51.7549 28.9863V46.9618" stroke="#05BDFB" stroke-width="0.8"/>
<ellipse cx="99.7549" cy="16.985" rx="4" ry="3.99672" fill="#CDF2FF"/>
<rect x="98.7549" width="101" height="32" rx="8" fill="#F5F7F9"/>
<circle cx="181.755" cy="16" r="10" fill="#CDF2FF"/>
<path d="M180.921 16.417C181.283 16.901 181.838 17.2039 182.441 17.2471C183.044 17.2903 183.636 17.0695 184.063 16.642L185.313 15.392C186.103 14.5745 186.091 13.2751 185.288 12.4715C184.484 11.6679 183.185 11.6566 182.367 12.4461L181.651 13.1586" stroke="#05BDFB" stroke-linecap="round" stroke-linejoin="round"/>
<path d="M182.588 15.5835C182.226 15.0995 181.672 14.7966 181.069 14.7534C180.466 14.7102 179.874 14.931 179.447 15.3585L178.197 16.6085C177.407 17.426 177.418 18.7254 178.222 19.529C179.026 20.3326 180.325 20.3439 181.142 19.5543L181.855 18.8418" stroke="#05BDFB" stroke-linecap="round" stroke-linejoin="round"/>
<rect x="106.755" y="10" width="57" height="4" rx="2" fill="#D7DEE5"/>
<rect x="136.755" y="18" width="27" height="4" rx="2" fill="#D7DEE5"/>
<defs>
<linearGradient id="paint0_linear_752_1775" x1="4.82805" y1="61.1734" x2="217.182" y2="100.296" gradientUnits="userSpaceOnUse">
<stop offset="0.0118019" stop-color="#05BDFB" stop-opacity="0.25"/>
<stop offset="1" stop-color="#05BDFB" stop-opacity="0.21"/>
</linearGradient>
<linearGradient id="paint1_linear_752_1775" x1="170.755" y1="86.9282" x2="175.72" y2="96.4388" gradientUnits="userSpaceOnUse">
<stop stop-color="#05BDFB" stop-opacity="0.37"/>
<stop offset="1" stop-color="#05BDFB" stop-opacity="0.13"/>
</linearGradient>
<linearGradient id="paint2_linear_752_1775" x1="163.255" y1="86.429" x2="184.747" y2="97.9342" gradientUnits="userSpaceOnUse">
<stop stop-color="#05BDFB" stop-opacity="0.35"/>
<stop offset="1" stop-color="#05BDFB" stop-opacity="0.25"/>
</linearGradient>
<linearGradient id="paint3_linear_752_1775" x1="164.755" y1="84.9305" x2="189.244" y2="99.9361" gradientUnits="userSpaceOnUse">
<stop stop-color="#05BDFB" stop-opacity="0.2"/>
<stop offset="1" stop-color="#05BDFB" stop-opacity="0.05"/>
</linearGradient>
<linearGradient id="paint4_linear_752_1775" x1="172.399" y1="100.575" x2="198.881" y2="111.874" gradientUnits="userSpaceOnUse">
<stop stop-color="#05BDFB"/>
<stop offset="1" stop-color="#9DE6FF"/>
</linearGradient>
</defs>
</svg>
