<svg width="320" height="248" viewBox="0 0 320 248" fill="none" xmlns="http://www.w3.org/2000/svg">
<defs>
<linearGradient id="paint0_linear_661_8022" x1="160.994" y1="98.3449" x2="170.554" y2="88.7844" gradientUnits="userSpaceOnUse">
<stop stop-color="#8CD133"/>
<stop offset="1" stop-color="#05BDFB"/>
</linearGradient>
<clipPath id="clip0_661_8022">
<rect width="81.6497" height="81.6497" fill="white" transform="translate(73 85.1325) rotate(-15)"/>
</clipPath>
</defs>
<path opacity="0.3" d="M254.679 129.137C256.232 127.566 256.232 125.02 254.679 123.449L145.393 12.9292C143.685 11.2019 140.861 11.4003 139.406 13.3499L99.1415 67.2889C97.946 68.8903 98.1005 71.1378 99.5035 72.5566L149.71 123.329C151.263 124.9 151.263 127.447 149.71 129.018L93.106 186.26C91.3987 187.987 91.5939 190.841 93.5201 192.314L146.962 233.164C148.546 234.375 150.77 234.219 152.173 232.8L254.679 129.137Z" fill="#1090F9"/>
<path opacity="0.3" d="M253.888 132.632C255.053 133.81 255.053 135.72 253.888 136.898L151.383 240.561C150.33 241.625 148.662 241.742 147.474 240.834L94.0323 199.984C92.5877 198.879 92.4412 196.739 93.7217 195.444L150.326 138.201C152.267 136.238 152.267 133.054 150.326 131.091L100.119 80.3177C99.0669 79.2536 98.9511 77.568 99.8477 76.3669L140.112 22.428C141.203 20.9658 143.321 20.8169 144.602 22.1124L253.888 132.632Z" stroke="#05BDFB" stroke-width="2"/>
<path opacity="0.3" d="M196.259 26.6185C197.364 26.6185 198.259 27.5139 198.259 28.6185L198.259 31.3716C198.259 32.2621 197.472 32.9471 196.59 32.8242C195.865 32.7232 195.326 32.1034 195.326 31.3716L195.326 31.1827C195.326 30.2819 194.596 29.5517 193.695 29.5517L193.506 29.5517C192.615 29.5517 191.93 28.7646 192.053 27.8827C192.154 27.1579 192.774 26.6185 193.506 26.6185L196.259 26.6185Z" fill="#1090F9"/>
<path opacity="0.3" d="M246.27 71.3223C246.823 72.2789 246.495 73.5021 245.538 74.0544L241.454 76.4122C240.403 77.0194 239.057 76.5569 238.601 75.4315L238.561 75.3319C238.186 74.4071 238.55 73.3474 239.414 72.8484L239.929 72.5513C240.885 71.999 241.213 70.7758 240.661 69.8193L240.356 69.2918C239.749 68.2401 240.212 66.8945 241.337 66.4383L241.437 66.3979C242.361 66.023 243.421 66.3871 243.92 67.2514L246.27 71.3223Z" fill="#1090F9"/>
<path opacity="0.3" d="M148.408 211.678C148.96 212.634 148.632 213.857 147.676 214.41L143.592 216.767C142.54 217.375 141.195 216.912 140.739 215.787L140.698 215.687C140.323 214.762 140.687 213.703 141.552 213.204L142.066 212.906C143.023 212.354 143.351 211.131 142.798 210.174L142.494 209.647C141.887 208.595 142.349 207.25 143.474 206.793L143.574 206.753C144.499 206.378 145.559 206.742 146.058 207.607L148.408 211.678Z" fill="#1090F9"/>
<path opacity="0.3" d="M244.742 168.593C243.96 167.812 243.96 166.545 244.742 165.764L252.143 158.363C253.024 157.482 254.487 157.612 255.199 158.635L255.929 159.685C256.482 160.48 256.387 161.557 255.702 162.241L253.247 164.696C252.465 165.478 252.465 166.744 253.247 167.525L254.7 168.979C255.542 169.82 255.467 171.205 254.54 171.951L252.37 173.697C251.574 174.337 250.424 174.275 249.702 173.553L244.742 168.593Z" fill="#1090F9"/>
<path d="M128.329 169.13V66.6377C128.329 58.655 134.796 52.188 142.779 52.188H189.412C197.395 52.188 203.862 58.655 203.862 66.6377V169.13C203.862 177.113 197.395 183.58 189.412 183.58H142.779C134.796 183.58 128.329 177.113 128.329 169.13Z" fill="#7CDDFD"/>
<path d="M189.513 184.459H142.678C134.28 184.459 127.45 177.628 127.45 169.231V66.5367C127.45 58.1397 134.28 51.3089 142.678 51.3089H189.513C197.91 51.3089 204.741 58.1397 204.741 66.5367V169.231C204.741 177.628 197.91 184.459 189.513 184.459ZM142.678 53.057C135.251 53.057 129.208 59.0996 129.208 66.5266V169.221C129.208 176.648 135.251 182.69 142.678 182.69H189.513C196.94 182.69 202.982 176.648 202.982 169.221V66.5367C202.982 59.1097 196.94 53.0671 189.513 53.0671H142.678V53.057Z" fill="#054375"/>
<path d="M203.872 66.1527H128.329V165.24H203.872V66.1527Z" fill="white"/>
<path d="M167.766 100.157V110.67C167.766 112.318 168.617 113.19 170.229 113.19C171.065 113.19 172.131 113.016 173.246 112.698L173.921 117.385C172.52 117.962 170.06 118.346 168.569 118.346C164.011 118.346 161.796 116.119 161.796 111.538V100.157H167.766Z" fill="#054375"/>
<path d="M160.785 98.1361H173.921L173.087 92.1515H166.77V85L160.785 85.834V98.1361Z" fill="url(#paint0_linear_661_8022)"/>
<g opacity="0.1294">
<path d="M146.528 141.7C145.986 140.628 143.777 140.472 142.802 141.345C142.79 141.354 142.79 141.354 142.777 141.354C142.642 141.423 142.506 141.484 142.358 141.544C142.185 141.587 142 141.622 141.815 141.648C141.778 141.648 141.753 141.648 141.716 141.656C141.642 141.656 141.568 141.648 141.494 141.648C141.42 141.639 141.334 141.622 141.235 141.605C141.037 141.57 140.889 141.527 140.791 141.509C140.679 141.466 140.568 141.423 140.457 141.38C140.322 141.285 140.174 141.198 139.989 141.12C138.323 140.325 136.064 141.484 136.62 142.841C137.138 143.921 138.977 144.397 140.445 144.639C142.703 145.089 147.688 143.723 146.528 141.7Z" fill="#054375"/>
</g>
<path d="M144.827 141.247L142.322 139.637L142.371 142.51H140.206L140.255 139.637L137.701 141.247L136.534 139.389L139.282 137.755L136.534 136.096L137.726 134.263L140.255 135.873L140.206 133H142.371L142.322 135.897L144.852 134.263L146.043 136.096L143.295 137.755L146.043 139.389L144.827 141.247Z" fill="#054375"/>
<g opacity="0.1294">
<path d="M162.695 141.7C162.153 140.628 159.944 140.472 158.969 141.345C158.957 141.354 158.957 141.354 158.944 141.354C158.809 141.423 158.673 141.484 158.525 141.544C158.352 141.587 158.167 141.622 157.982 141.648C157.945 141.648 157.92 141.648 157.883 141.656C157.809 141.656 157.735 141.648 157.661 141.648C157.587 141.639 157.501 141.622 157.402 141.605C157.204 141.57 157.056 141.527 156.958 141.509C156.846 141.466 156.735 141.423 156.624 141.38C156.489 141.285 156.341 141.198 156.155 141.12C154.49 140.325 152.231 141.484 152.787 142.841C153.305 143.921 155.144 144.397 156.612 144.639C158.87 145.089 163.855 143.723 162.695 141.7Z" fill="#054375"/>
</g>
<path d="M160.994 141.247L158.489 139.637L158.538 142.51H156.373L156.422 139.637L153.868 141.247L152.701 139.389L155.449 137.755L152.701 136.096L153.893 134.263L156.422 135.873L156.373 133H158.538L158.489 135.897L161.019 134.263L162.21 136.096L159.462 137.755L162.21 139.389L160.994 141.247Z" fill="#054375"/>
<g opacity="0.1294">
<path d="M178.863 141.7C178.32 140.628 176.111 140.472 175.136 141.345C175.124 141.354 175.124 141.354 175.111 141.354C174.976 141.423 174.84 141.484 174.692 141.544C174.519 141.587 174.334 141.622 174.149 141.648C174.112 141.648 174.087 141.648 174.05 141.656C173.976 141.656 173.902 141.648 173.828 141.648C173.754 141.639 173.668 141.622 173.569 141.605C173.372 141.57 173.223 141.527 173.125 141.509C173.014 141.466 172.903 141.423 172.792 141.38C172.656 141.285 172.508 141.198 172.323 141.12C170.657 140.325 168.399 141.484 168.954 142.841C169.472 143.921 171.311 144.397 172.779 144.639C175.037 145.089 180.023 143.723 178.863 141.7Z" fill="#054375"/>
</g>
<path d="M177.162 141.247L174.657 139.637L174.705 142.51H172.541L172.589 139.637L170.036 141.247L168.868 139.389L171.616 137.755L168.868 136.096L170.06 134.263L172.589 135.873L172.541 133H174.705L174.657 135.897L177.186 134.263L178.378 136.096L175.629 137.755L178.378 139.389L177.162 141.247Z" fill="#054375"/>
<g opacity="0.1294">
<path d="M195.03 141.7C194.487 140.628 192.278 140.472 191.303 141.345C191.291 141.354 191.291 141.354 191.278 141.354C191.143 141.423 191.007 141.484 190.859 141.544C190.686 141.587 190.501 141.622 190.316 141.648C190.279 141.648 190.254 141.648 190.217 141.656C190.143 141.656 190.069 141.648 189.995 141.648C189.921 141.639 189.835 141.622 189.736 141.605C189.539 141.57 189.39 141.527 189.292 141.509C189.181 141.466 189.07 141.423 188.959 141.38C188.823 141.285 188.675 141.198 188.49 141.12C186.824 140.325 184.566 141.484 185.121 142.841C185.639 143.921 187.478 144.397 188.946 144.639C191.204 145.089 196.19 143.723 195.03 141.7Z" fill="#054375"/>
</g>
<path d="M193.329 141.247L190.824 139.637L190.872 142.51H188.708L188.756 139.637L186.203 141.247L185.035 139.389L187.783 137.755L185.035 136.096L186.227 134.263L188.756 135.873L188.708 133H190.872L190.824 135.897L193.353 134.263L194.545 136.096L191.796 137.755L194.545 139.389L193.329 141.247Z" fill="#054375"/>
<path d="M203.862 166.119H128.319C127.834 166.119 127.44 165.725 127.44 165.24V66.1527C127.44 65.6677 127.834 65.2736 128.319 65.2736H203.862C204.347 65.2736 204.741 65.6677 204.741 66.1527V165.24C204.741 165.725 204.357 166.119 203.862 166.119ZM129.208 164.36H202.993V67.0318H129.208V164.36Z" fill="#054375"/>
<path d="M173.669 173.242H160.058C159.573 173.242 159.179 172.848 159.179 172.363C159.179 171.878 159.573 171.484 160.058 171.484H173.669C174.154 171.484 174.548 171.878 174.548 172.363C174.548 172.848 174.154 173.242 173.669 173.242Z" fill="#054375"/>
<g opacity="0.1294">
<path d="M199.5 66.3346C196.924 66.2639 194.347 66.1426 191.77 66.1729C184.838 66.1022 177.896 66.1123 170.955 66.2032C165.498 66.2436 160.041 66.466 154.585 66.1022C147.896 65.9001 141.206 65.4959 134.507 65.7687C133.567 65.7889 132.627 65.7788 131.688 65.7384C131.122 65.698 130.515 65.6172 130 65.9102C127.444 66.8903 128.242 70.8514 130.99 70.8211C134.254 71.0535 137.538 70.8009 140.802 70.8716C144.703 70.8514 148.593 71.1747 152.493 71.2556C167.044 71.3465 181.605 71.4071 196.156 71.1444C198.086 71.1747 200.026 71.1343 201.956 71.0939C203.552 71.2758 205.179 70.5179 205.199 68.7193C204.997 65.6172 201.663 66.4457 199.5 66.3346Z" fill="#054375"/>
</g>
<path d="M120.003 140.877C119.922 140.877 119.851 140.847 119.79 140.786C119.679 140.665 119.679 140.483 119.801 140.372L144.284 116.949C144.406 116.838 144.587 116.838 144.699 116.959C144.81 117.08 144.81 117.262 144.688 117.373L120.205 140.796C120.144 140.847 120.073 140.877 120.003 140.877Z" fill="#054375"/>
<path d="M119.689 150.204C119.619 150.204 119.538 150.173 119.487 150.123C119.366 150.012 119.366 149.83 119.477 149.709C127.692 141.16 136.16 132.611 144.638 124.285C144.759 124.174 144.941 124.174 145.052 124.285C145.163 124.396 145.163 124.588 145.052 124.699C136.584 133.016 128.117 141.564 119.902 150.113C119.851 150.173 119.77 150.204 119.689 150.204Z" fill="#054375"/>
<path d="M127.834 150.042C127.763 150.042 127.682 150.012 127.632 149.961C127.521 149.85 127.521 149.658 127.632 149.547L146.113 130.813C146.224 130.702 146.416 130.692 146.528 130.813C146.639 130.924 146.649 131.116 146.528 131.227L128.046 149.961C127.985 150.012 127.905 150.042 127.834 150.042Z" fill="#054375"/>
<path d="M136.241 150.446C136.17 150.446 136.099 150.416 136.039 150.365C135.918 150.254 135.918 150.072 136.029 149.951C140.03 145.788 143.971 141.453 147.72 137.057C147.821 136.936 148.013 136.916 148.134 137.027C148.255 137.128 148.276 137.32 148.164 137.441C144.405 141.847 140.465 146.192 136.453 150.365C136.403 150.416 136.322 150.446 136.241 150.446Z" fill="#054375"/>
<path d="M144.729 150.173C144.658 150.173 144.587 150.153 144.537 150.103C144.415 149.992 144.405 149.81 144.506 149.688L149.397 144.05C149.508 143.929 149.69 143.919 149.811 144.02C149.933 144.131 149.943 144.313 149.842 144.434L144.951 150.072C144.89 150.143 144.81 150.173 144.729 150.173Z" fill="#054375"/>
<path opacity="0.2" d="M124.4 123.165L134.174 86.6887L140.745 88.4495L139.866 91.7376L151.364 94.8183L149.605 101.393L138.103 98.3106L136.783 103.237L146.64 105.878L144.881 112.452L135.022 109.808L130.971 124.926C134.735 126.815 137.664 130.033 139.193 133.956C140.722 137.88 140.742 142.231 139.249 146.169C137.756 150.106 134.856 153.35 131.11 155.274C127.364 157.197 123.037 157.663 118.967 156.582C114.888 155.497 111.358 152.934 109.063 149.392C106.768 145.849 105.872 141.58 106.549 137.413C107.227 133.247 109.429 129.481 112.728 126.848C116.027 124.215 120.187 122.902 124.4 123.165ZM133.228 142.79C133.617 141.483 133.741 140.11 133.591 138.754C133.441 137.398 133.021 136.086 132.355 134.896C131.69 133.705 130.792 132.659 129.716 131.822C128.639 130.984 127.406 130.37 126.088 130.017C124.77 129.664 123.395 129.578 122.044 129.766C120.693 129.953 119.393 130.41 118.221 131.108C117.049 131.807 116.029 132.733 115.221 133.832C114.414 134.932 113.835 136.182 113.518 137.509C112.871 140.105 113.269 142.853 114.627 145.158C115.985 147.464 118.195 149.144 120.78 149.837C123.365 150.53 126.118 150.179 128.447 148.862C130.776 147.544 132.495 145.364 133.232 142.791L133.228 142.79Z" fill="#054375"/>
<g clip-path="url(#clip0_661_8022)">
<path d="M129.705 103.804L138.597 106.189L139.564 106.448L139.822 105.482L141.581 98.9076L141.84 97.942L140.874 97.6832L131.983 95.3009L132.785 92.3062L143.322 95.1294L144.288 95.3883L144.546 94.4219L146.306 87.8477L146.564 86.882L145.598 86.6233L135.066 83.8012L135.687 81.4785L135.945 80.5131L134.979 80.2545L128.408 78.4937L127.442 78.2349L127.183 79.2008L117.616 114.906C113.439 114.836 109.358 116.221 106.08 118.837C102.587 121.625 100.255 125.612 99.5378 130.024C98.8207 134.435 99.7693 138.955 102.199 142.706C104.629 146.457 108.367 149.17 112.686 150.319L112.686 150.319C116.995 151.464 121.576 150.971 125.542 148.934C129.509 146.898 132.579 143.463 134.16 139.294C135.741 135.125 135.72 130.518 134.101 126.364C132.581 122.465 129.755 119.224 126.119 117.187L129.705 103.804ZM126.245 135.275L126.125 135.679C125.403 137.828 123.912 139.641 121.93 140.762C119.83 141.951 117.346 142.267 115.014 141.642C112.682 141.017 110.689 139.502 109.464 137.422C108.239 135.342 107.88 132.864 108.464 130.522L108.464 130.522L108.467 130.512C108.752 129.315 109.274 128.187 110.003 127.195C110.732 126.204 111.652 125.368 112.709 124.738C113.766 124.108 114.938 123.696 116.157 123.527C117.376 123.358 118.616 123.435 119.805 123.754C120.993 124.072 122.106 124.626 123.077 125.382C124.048 126.137 124.858 127.08 125.458 128.154C126.058 129.229 126.437 130.412 126.573 131.635C126.708 132.858 126.596 134.096 126.245 135.275Z" fill="#F3CB3F" stroke="#054375" stroke-width="2"/>
</g>
<rect opacity="0.2" x="204.236" y="71.5183" width="5.05236" height="92.9633" fill="#054375"/>
<path d="M213.64 77.88C195.54 77.88 180.87 93.12 180.87 111.92C180.87 119.7 183.39 126.86 187.61 132.59L183.6 149.06L197.35 141.45C202.15 144.31 207.71 145.96 213.64 145.96C231.74 145.96 246.41 130.72 246.41 111.92C246.41 93.12 231.74 77.88 213.64 77.88Z" fill="white"/>
<path d="M183.6 149.93C183.41 149.93 183.23 149.87 183.07 149.75C182.8 149.54 182.67 149.19 182.75 148.85L186.67 132.77C182.31 126.7 180 119.5 180 111.91C180 92.66 195.09 77 213.64 77C232.19 77 247.28 92.66 247.28 111.91C247.28 131.16 232.19 146.82 213.64 146.82C207.94 146.82 202.31 145.31 197.33 142.44L184.01 149.81C183.89 149.9 183.74 149.93 183.6 149.93ZM213.64 78.75C196.05 78.75 181.74 93.63 181.74 111.92C181.74 119.27 184.01 126.24 188.31 132.07C188.46 132.28 188.52 132.54 188.45 132.79L184.91 147.33L196.92 140.68C197.19 140.53 197.52 140.53 197.79 140.69C202.6 143.56 208.08 145.08 213.64 145.08C231.23 145.08 245.54 130.2 245.54 111.91C245.54 93.62 231.23 78.75 213.64 78.75Z" fill="#054375"/>
<path opacity="0.1" d="M212.671 145.92C212.281 145.8 211.901 145.85 211.521 145.94C211.381 145.95 211.231 145.95 211.091 145.95C209.451 145.66 208.351 145.65 205.021 144.44C204.941 144.41 204.871 144.38 204.791 144.35C204.651 144.28 204.051 143.99 203.801 143.88C202.691 143.37 201.521 143.02 200.351 142.64C199.391 142.35 198.501 141.79 197.471 141.74C197.021 141.77 196.541 141.86 196.171 142.12C195.861 142.3 195.541 142.46 195.221 142.62C192.781 143.77 190.371 145 188.021 146.32C187.041 146.89 186.031 147.39 184.991 147.83C184.511 148.06 183.941 148.19 183.651 148.67C182.531 149.99 183.941 152.09 185.601 151.58C189.631 149.94 193.441 147.82 197.381 145.98C199.821 147.13 202.501 147.6 204.991 148.64C207.081 149.26 209.261 150.14 211.471 149.78C211.301 149.8 211.121 149.83 210.951 149.85C211.681 149.84 212.491 149.96 213.151 149.57C214.661 148.72 214.361 146.36 212.671 145.92Z" fill="#054375"/>
<path d="M210.531 99.5209C213.529 98.8437 216.665 99.1536 219.472 100.404C220.27 100.76 221.206 100.401 221.562 99.6024C221.918 98.8036 221.559 97.8676 220.76 97.5117C217.33 95.9831 213.497 95.6044 209.833 96.4321C206.17 97.2598 202.872 99.2496 200.432 102.105C197.992 104.96 196.54 108.527 196.293 112.275C196.046 116.022 197.017 119.749 199.061 122.9C201.105 126.051 204.113 128.456 207.636 129.758C211.159 131.06 215.008 131.187 218.61 130.122C222.212 129.058 225.373 126.857 227.621 123.849C229.87 120.841 231.086 117.186 231.088 113.431V111.973C231.088 111.099 230.38 110.39 229.505 110.39C228.631 110.39 227.922 111.099 227.922 111.973V113.429C227.92 116.502 226.925 119.492 225.085 121.953C223.245 124.414 220.659 126.215 217.712 127.086C214.765 127.957 211.616 127.852 208.733 126.788C205.851 125.723 203.39 123.754 201.717 121.177C200.045 118.599 199.25 115.549 199.453 112.483C199.655 109.417 200.843 106.498 202.839 104.162C204.836 101.826 207.534 100.198 210.531 99.5209Z" fill="#26A94D"/>
<path d="M230.625 101.882C231.243 101.263 231.243 100.261 230.624 99.6428C230.006 99.0248 229.003 99.0253 228.385 99.644L213.671 114.372L210.041 110.743C209.423 110.124 208.421 110.124 207.802 110.743C207.184 111.361 207.184 112.363 207.802 112.982L212.552 117.732C212.849 118.029 213.252 118.196 213.672 118.195C214.092 118.195 214.495 118.028 214.792 117.731L230.625 101.882Z" fill="#26A94D"/>
</svg>
