<svg width="321" height="244" viewBox="0 0 321 244" fill="none" xmlns="http://www.w3.org/2000/svg">
<defs>
<linearGradient id="paint0_linear_2605_16533" x1="161.59" y1="96.3454" x2="171.15" y2="86.7849" gradientUnits="userSpaceOnUse">
<stop stop-color="#8CD133"/>
<stop offset="1" stop-color="#05BDFB"/>
</linearGradient>
<clipPath id="clip0_2605_16533">
<rect width="81.6497" height="81.6497" fill="white" transform="translate(73.5957 83.1323) rotate(-15)"/>
</clipPath>
</defs>
<path opacity="0.3" d="M255.275 127.137C256.828 125.566 256.828 123.02 255.275 121.449L145.988 10.9292C144.28 9.20188 141.457 9.40033 140.001 11.3499L99.7373 65.2889C98.5419 66.8903 98.6963 69.1378 100.099 70.5566L150.306 121.329C151.859 122.9 151.859 125.447 150.306 127.018L93.7018 184.26C91.9945 185.987 92.1898 188.841 94.1159 190.314L147.558 231.164C149.142 232.375 151.365 232.219 152.769 230.8L255.275 127.137Z" fill="#1090F9"/>
<path opacity="0.3" d="M254.484 130.632C255.649 131.81 255.649 133.72 254.484 134.898L151.978 238.561C150.926 239.625 149.258 239.742 148.07 238.834L94.628 197.984C93.1834 196.879 93.0369 194.739 94.3174 193.444L150.921 136.201C152.863 134.238 152.863 131.054 150.921 129.091L100.715 78.3177C99.6627 77.2536 99.5468 75.568 100.443 74.3669L140.707 20.428C141.799 18.9658 143.917 18.8169 145.198 20.1124L254.484 130.632Z" stroke="#05BDFB" stroke-width="2"/>
<path opacity="0.3" d="M196.855 24.6187C197.959 24.6187 198.855 25.5141 198.855 26.6187L198.855 29.3718C198.855 30.2623 198.068 30.9473 197.186 30.8244C196.461 30.7234 195.922 30.1036 195.922 29.3718L195.922 29.1829C195.922 28.2821 195.191 27.5519 194.291 27.5519L194.102 27.5519C193.211 27.5519 192.526 26.7648 192.649 25.8828C192.75 25.1581 193.37 24.6187 194.102 24.6187L196.855 24.6187Z" fill="#1090F9"/>
<path opacity="0.3" d="M246.866 69.3225C247.418 70.2791 247.091 71.5023 246.134 72.0546L242.05 74.4124C240.999 75.0195 239.653 74.5571 239.197 73.4317L239.156 73.332C238.781 72.4072 239.146 71.3476 240.01 70.8486L240.524 70.5515C241.481 69.9992 241.809 68.776 241.256 67.8194L240.952 67.2919C240.345 66.2403 240.807 64.8947 241.933 64.4384L242.032 64.398C242.957 64.0231 244.017 64.3873 244.516 65.2515L246.866 69.3225Z" fill="#1090F9"/>
<path opacity="0.3" d="M149.004 209.678C149.556 210.634 149.228 211.857 148.272 212.41L144.188 214.767C143.136 215.375 141.791 214.912 141.334 213.787L141.294 213.687C140.919 212.762 141.283 211.703 142.147 211.204L142.662 210.906C143.619 210.354 143.946 209.131 143.394 208.174L143.09 207.647C142.482 206.595 142.945 205.25 144.07 204.793L144.17 204.753C145.095 204.378 146.154 204.742 146.653 205.607L149.004 209.678Z" fill="#1090F9"/>
<path opacity="0.3" d="M245.337 166.593C244.556 165.812 244.556 164.545 245.337 163.764L252.739 156.363C253.619 155.482 255.083 155.612 255.794 156.635L256.525 157.685C257.078 158.48 256.982 159.557 256.297 160.241L253.842 162.697C253.061 163.478 253.061 164.744 253.842 165.525L255.296 166.979C256.137 167.82 256.063 169.205 255.136 169.951L252.966 171.697C252.17 172.337 251.02 172.275 250.298 171.553L245.337 166.593Z" fill="#1090F9"/>
<path d="M128.925 167.13V64.6377C128.925 56.655 135.392 50.188 143.375 50.188H190.008C197.991 50.188 204.458 56.655 204.458 64.6377V167.13C204.458 175.113 197.991 181.58 190.008 181.58H143.375C135.392 181.58 128.925 175.113 128.925 167.13Z" fill="#7CDDFD"/>
<path d="M190.109 182.459H143.273C134.876 182.459 128.046 175.628 128.046 167.231V64.5369C128.046 56.1399 134.876 49.3091 143.273 49.3091H190.109C198.506 49.3091 205.337 56.1399 205.337 64.5369V167.231C205.337 175.628 198.506 182.459 190.109 182.459ZM143.273 51.0572C135.846 51.0572 129.804 57.0998 129.804 64.5268V167.221C129.804 174.648 135.846 180.691 143.273 180.691H190.109C197.536 180.691 203.578 174.648 203.578 167.221V64.5369C203.578 57.1099 197.536 51.0673 190.109 51.0673H143.273V51.0572Z" fill="#054375"/>
<path d="M204.468 64.1528H128.925V163.24H204.468V64.1528Z" fill="white"/>
<path d="M168.362 98.1577V108.67C168.362 110.319 169.213 111.191 170.825 111.191C171.661 111.191 172.727 111.016 173.842 110.698L174.517 115.386C173.116 115.963 170.656 116.346 169.165 116.346C164.607 116.346 162.392 114.119 162.392 109.538V98.1577H168.362Z" fill="#054375"/>
<path d="M161.381 96.1366H174.517L173.683 90.152H167.366V83.0005L161.381 83.8345V96.1366Z" fill="url(#paint0_linear_2605_16533)"/>
<g opacity="0.1294">
<path d="M147.124 139.7C146.581 138.628 144.373 138.473 143.398 139.346C143.385 139.355 143.385 139.355 143.373 139.355C143.237 139.424 143.102 139.484 142.954 139.545C142.781 139.588 142.596 139.623 142.411 139.649C142.374 139.649 142.349 139.649 142.312 139.657C142.238 139.657 142.164 139.649 142.09 139.649C142.016 139.64 141.929 139.623 141.831 139.605C141.633 139.571 141.485 139.528 141.386 139.51C141.275 139.467 141.164 139.424 141.053 139.381C140.918 139.285 140.769 139.199 140.584 139.121C138.918 138.326 136.66 139.484 137.216 140.842C137.734 141.922 139.572 142.398 141.041 142.64C143.299 143.089 148.284 141.723 147.124 139.7Z" fill="#054375"/>
</g>
<path d="M145.423 139.247L142.918 137.637L142.967 140.51H140.802L140.851 137.637L138.297 139.247L137.13 137.39L139.878 135.755L137.13 134.096L138.321 132.263L140.851 133.873L140.802 131H142.967L142.918 133.898L145.448 132.263L146.639 134.096L143.891 135.755L146.639 137.39L145.423 139.247Z" fill="#054375"/>
<g opacity="0.1294">
<path d="M163.291 139.7C162.748 138.628 160.54 138.473 159.565 139.346C159.552 139.355 159.553 139.355 159.54 139.355C159.404 139.424 159.269 139.484 159.121 139.545C158.948 139.588 158.763 139.623 158.578 139.649C158.541 139.649 158.516 139.649 158.479 139.657C158.405 139.657 158.331 139.649 158.257 139.649C158.183 139.64 158.096 139.623 157.998 139.605C157.8 139.571 157.652 139.528 157.553 139.51C157.442 139.467 157.331 139.424 157.22 139.381C157.085 139.285 156.937 139.199 156.751 139.121C155.086 138.326 152.827 139.484 153.383 140.842C153.901 141.922 155.74 142.398 157.208 142.64C159.466 143.089 164.451 141.723 163.291 139.7Z" fill="#054375"/>
</g>
<path d="M161.59 139.247L159.085 137.637L159.134 140.51H156.969L157.018 137.637L154.464 139.247L153.297 137.39L156.045 135.755L153.297 134.096L154.489 132.263L157.018 133.873L156.969 131H159.134L159.085 133.898L161.615 132.263L162.806 134.096L160.058 135.755L162.806 137.39L161.59 139.247Z" fill="#054375"/>
<g opacity="0.1294">
<path d="M179.459 139.7C178.916 138.628 176.707 138.473 175.732 139.346C175.72 139.355 175.72 139.355 175.707 139.355C175.572 139.424 175.436 139.484 175.288 139.545C175.115 139.588 174.93 139.623 174.745 139.649C174.708 139.649 174.683 139.649 174.646 139.657C174.572 139.657 174.498 139.649 174.424 139.649C174.35 139.64 174.264 139.623 174.165 139.605C173.967 139.571 173.819 139.528 173.721 139.51C173.61 139.467 173.499 139.424 173.387 139.381C173.252 139.285 173.104 139.199 172.919 139.121C171.253 138.326 168.995 139.484 169.55 140.842C170.068 141.922 171.907 142.398 173.375 142.64C175.633 143.089 180.618 141.723 179.459 139.7Z" fill="#054375"/>
</g>
<path d="M177.757 139.247L175.252 137.637L175.301 140.51H173.136L173.185 137.637L170.631 139.247L169.464 137.39L172.212 135.755L169.464 134.096L170.656 132.263L173.185 133.873L173.136 131H175.301L175.252 133.898L177.782 132.263L178.974 134.096L176.225 135.755L178.974 137.39L177.757 139.247Z" fill="#054375"/>
<g opacity="0.1294">
<path d="M195.626 139.7C195.083 138.628 192.874 138.473 191.899 139.346C191.887 139.355 191.887 139.355 191.874 139.355C191.739 139.424 191.603 139.484 191.455 139.545C191.282 139.588 191.097 139.623 190.912 139.649C190.875 139.649 190.85 139.649 190.813 139.657C190.739 139.657 190.665 139.649 190.591 139.649C190.517 139.64 190.431 139.623 190.332 139.605C190.134 139.571 189.986 139.528 189.888 139.51C189.777 139.467 189.666 139.424 189.554 139.381C189.419 139.285 189.271 139.199 189.086 139.121C187.42 138.326 185.162 139.484 185.717 140.842C186.235 141.922 188.074 142.398 189.542 142.64C191.8 143.089 196.785 141.723 195.626 139.7Z" fill="#054375"/>
</g>
<path d="M193.924 139.247L191.419 137.637L191.468 140.51H189.303L189.352 137.637L186.798 139.247L185.631 137.39L188.379 135.755L185.631 134.096L186.823 132.263L189.352 133.873L189.303 131H191.468L191.419 133.898L193.949 132.263L195.141 134.096L192.392 135.755L195.141 137.39L193.924 139.247Z" fill="#054375"/>
<path d="M204.457 164.119H128.915C128.43 164.119 128.036 163.725 128.036 163.24V64.153C128.036 63.668 128.43 63.2739 128.915 63.2739H204.457C204.942 63.2739 205.337 63.668 205.337 64.153V163.24C205.337 163.725 204.953 164.119 204.457 164.119ZM129.804 162.361H203.588V65.0322H129.804V162.361Z" fill="#054375"/>
<path d="M174.265 171.243H160.654C160.168 171.243 159.774 170.849 159.774 170.363C159.774 169.878 160.168 169.484 160.654 169.484H174.265C174.75 169.484 175.144 169.878 175.144 170.363C175.144 170.849 174.75 171.243 174.265 171.243Z" fill="#054375"/>
<g opacity="0.1294">
<path d="M200.096 64.3347C197.519 64.264 194.943 64.1427 192.366 64.173C185.434 64.1023 178.492 64.1124 171.55 64.2033C166.094 64.2438 160.637 64.4661 155.181 64.1023C148.491 63.9002 141.802 63.496 135.103 63.7688C134.163 63.7891 133.223 63.779 132.283 63.7385C131.717 63.6981 131.111 63.6173 130.596 63.9103C128.039 64.8905 128.838 68.8515 131.586 68.8212C134.85 69.0536 138.134 68.801 141.398 68.8717C145.298 68.8515 149.189 69.1749 153.089 69.2557C167.64 69.3466 182.201 69.4073 196.751 69.1445C198.681 69.1749 200.621 69.1345 202.551 69.094C204.148 69.2759 205.775 68.5181 205.795 66.7194C205.593 63.6173 202.258 64.4459 200.096 64.3347Z" fill="#054375"/>
</g>
<path d="M120.598 138.877C120.518 138.877 120.447 138.847 120.386 138.786C120.275 138.665 120.275 138.483 120.396 138.372L144.88 114.949C145.001 114.838 145.183 114.838 145.294 114.959C145.406 115.081 145.405 115.263 145.284 115.374L120.801 138.796C120.74 138.847 120.669 138.877 120.598 138.877Z" fill="#054375"/>
<path d="M120.285 148.204C120.214 148.204 120.134 148.174 120.083 148.123C119.962 148.012 119.962 147.83 120.073 147.709C128.288 139.16 136.756 130.612 145.234 122.286C145.355 122.174 145.537 122.174 145.648 122.286C145.759 122.397 145.759 122.589 145.648 122.7C137.18 131.016 128.713 139.565 120.497 148.113C120.447 148.174 120.366 148.204 120.285 148.204Z" fill="#054375"/>
<path d="M128.43 148.042C128.359 148.042 128.278 148.012 128.227 147.961C128.116 147.85 128.116 147.658 128.227 147.547L146.709 128.813C146.82 128.702 147.012 128.692 147.123 128.813C147.234 128.924 147.244 129.116 147.123 129.227L128.642 147.961C128.581 148.012 128.5 148.042 128.43 148.042Z" fill="#054375"/>
<path d="M136.837 148.446C136.766 148.446 136.695 148.416 136.635 148.365C136.513 148.254 136.513 148.072 136.624 147.951C140.626 143.788 144.567 139.453 148.316 135.057C148.417 134.936 148.609 134.916 148.73 135.027C148.851 135.128 148.871 135.32 148.76 135.441C145.001 139.847 141.061 144.192 137.049 148.365C136.998 148.416 136.918 148.446 136.837 148.446Z" fill="#054375"/>
<path d="M145.325 148.174C145.254 148.174 145.183 148.154 145.133 148.103C145.011 147.992 145.001 147.81 145.102 147.689L149.993 142.05C150.104 141.929 150.286 141.919 150.407 142.02C150.529 142.131 150.539 142.313 150.438 142.434L145.547 148.073C145.486 148.144 145.406 148.174 145.325 148.174Z" fill="#054375"/>
<path opacity="0.2" d="M124.995 121.166L134.769 84.6889L141.341 86.4496L140.462 89.7377L151.96 92.8185L150.201 99.3927L138.698 96.3107L137.378 101.237L147.235 103.878L145.476 110.453L135.618 107.809L131.567 122.926C135.33 124.815 138.26 128.033 139.789 131.956C141.318 135.88 141.338 140.232 139.845 144.169C138.352 148.107 135.452 151.351 131.706 153.274C127.959 155.197 123.633 155.663 119.563 154.582C115.484 153.497 111.954 150.934 109.659 147.392C107.364 143.849 106.468 139.58 107.145 135.413C107.822 131.247 110.024 127.481 113.323 124.848C116.622 122.215 120.783 120.902 124.995 121.166ZM133.823 140.79C134.213 139.483 134.336 138.111 134.187 136.755C134.037 135.399 133.617 134.087 132.951 132.896C132.285 131.705 131.388 130.66 130.311 129.822C129.235 128.984 128.001 128.37 126.684 128.017C125.366 127.664 123.991 127.579 122.64 127.766C121.288 127.954 119.988 128.41 118.817 129.108C117.645 129.807 116.625 130.733 115.817 131.833C115.009 132.932 114.43 134.182 114.114 135.509C113.466 138.106 113.865 140.853 115.223 143.159C116.581 145.464 118.79 147.145 121.375 147.837C123.96 148.53 126.714 148.18 129.043 146.862C131.372 145.544 133.091 143.364 133.828 140.791L133.823 140.79Z" fill="#054375"/>
<g clip-path="url(#clip0_2605_16533)">
<path d="M130.3 101.804L139.193 104.189L140.159 104.448L140.418 103.482L142.177 96.9074L142.435 95.9417L141.47 95.683L132.579 93.3007L133.381 90.306L143.917 93.1292L144.884 93.3881L145.142 92.4217L146.901 85.8475L147.16 84.8818L146.194 84.6231L135.662 81.801L136.283 79.4783L136.54 78.5129L135.575 78.2542L129.004 76.4934L128.038 76.2346L127.779 77.2006L118.212 112.906C114.035 112.836 109.954 114.22 106.675 116.837C103.182 119.625 100.851 123.612 100.134 128.023C99.4165 132.435 100.365 136.955 102.795 140.706C105.225 144.457 108.963 147.17 113.282 148.319L113.282 148.319C117.591 149.464 122.172 148.97 126.138 146.934C130.104 144.898 133.175 141.463 134.756 137.294C136.337 133.125 136.315 128.518 134.697 124.364C133.177 120.464 130.351 117.224 126.714 115.187L130.3 101.804ZM126.841 133.275L126.72 133.678C125.999 135.828 124.508 137.641 122.526 138.762C120.425 139.951 117.942 140.267 115.61 139.642C113.278 139.017 111.285 137.502 110.06 135.422C108.835 133.342 108.476 130.864 109.06 128.522L109.06 128.522L109.063 128.511C109.348 127.314 109.87 126.187 110.599 125.195C111.327 124.203 112.247 123.368 113.304 122.738C114.361 122.108 115.534 121.696 116.753 121.527C117.972 121.358 119.212 121.435 120.401 121.753C121.589 122.072 122.702 122.625 123.673 123.381C124.644 124.137 125.454 125.08 126.054 126.154C126.654 127.228 127.033 128.412 127.168 129.635C127.304 130.858 127.192 132.096 126.841 133.275Z" fill="#F3CB3F" stroke="#054375" stroke-width="2"/>
</g>
<rect opacity="0.2" x="204.831" y="69.5186" width="5.05236" height="92.9633" fill="#054375"/>
<path d="M214.236 75.8799C196.136 75.8799 181.466 91.1199 181.466 109.92C181.466 117.7 183.986 124.86 188.206 130.59L184.196 147.06L197.946 139.45C202.746 142.31 208.306 143.96 214.236 143.96C232.336 143.96 247.006 128.72 247.006 109.92C247.006 91.1199 232.336 75.8799 214.236 75.8799Z" fill="white"/>
<path d="M184.196 147.93C184.006 147.93 183.826 147.87 183.666 147.75C183.396 147.54 183.266 147.19 183.346 146.85L187.266 130.77C182.906 124.7 180.596 117.5 180.596 109.91C180.596 90.66 195.686 75 214.236 75C232.786 75 247.876 90.66 247.876 109.91C247.876 129.16 232.786 144.82 214.236 144.82C208.536 144.82 202.906 143.31 197.926 140.44L184.606 147.81C184.486 147.9 184.336 147.93 184.196 147.93ZM214.236 76.75C196.646 76.75 182.336 91.63 182.336 109.92C182.336 117.27 184.606 124.24 188.906 130.07C189.056 130.28 189.116 130.54 189.046 130.79L185.506 145.33L197.516 138.68C197.786 138.53 198.116 138.53 198.386 138.69C203.196 141.56 208.676 143.08 214.236 143.08C231.826 143.08 246.136 128.2 246.136 109.91C246.136 91.62 231.826 76.75 214.236 76.75Z" fill="#054375"/>
<path opacity="0.1" d="M213.267 143.92C212.877 143.8 212.497 143.85 212.117 143.94C211.977 143.95 211.827 143.95 211.687 143.95C210.047 143.66 208.947 143.65 205.617 142.44C205.537 142.41 205.467 142.38 205.387 142.35C205.247 142.28 204.647 141.99 204.397 141.88C203.287 141.37 202.117 141.02 200.947 140.64C199.987 140.35 199.097 139.79 198.067 139.74C197.617 139.77 197.137 139.86 196.767 140.12C196.457 140.3 196.137 140.46 195.817 140.62C193.377 141.77 190.967 143 188.617 144.32C187.637 144.89 186.627 145.39 185.587 145.83C185.107 146.06 184.537 146.19 184.247 146.67C183.127 147.99 184.537 150.09 186.197 149.58C190.227 147.94 194.037 145.82 197.977 143.98C200.417 145.13 203.097 145.6 205.587 146.64C207.677 147.26 209.857 148.14 212.067 147.78C211.897 147.8 211.717 147.83 211.547 147.85C212.277 147.84 213.087 147.96 213.747 147.57C215.257 146.72 214.957 144.36 213.267 143.92Z" fill="#054375"/>
<path d="M216.179 101.5C216.179 100.626 215.47 99.9168 214.596 99.9168C213.721 99.9168 213.012 100.626 213.012 101.5V111C213.012 111.6 213.351 112.148 213.888 112.416L220.221 115.583C221.003 115.974 221.954 115.657 222.345 114.875C222.736 114.093 222.419 113.142 221.637 112.751L216.179 110.022V101.5Z" fill="#EEB412"/>
<path fill-rule="evenodd" clip-rule="evenodd" d="M214.596 93.5835C204.977 93.5835 197.179 101.381 197.179 111C197.179 120.619 204.977 128.417 214.596 128.417C224.215 128.417 232.012 120.619 232.012 111C232.012 101.381 224.215 93.5835 214.596 93.5835ZM200.346 111C200.346 103.13 206.726 96.7502 214.596 96.7502C222.466 96.7502 228.846 103.13 228.846 111C228.846 118.87 222.466 125.25 214.596 125.25C206.726 125.25 200.346 118.87 200.346 111Z" fill="#EEB412"/>
</svg>
