<svg width="320" height="248" viewBox="0 0 320 248" fill="none" xmlns="http://www.w3.org/2000/svg">
<defs>
<linearGradient id="paint0_linear_661_7859" x1="129.994" y1="98.3449" x2="139.554" y2="88.7844" gradientUnits="userSpaceOnUse">
<stop stop-color="#8CD133"/>
<stop offset="1" stop-color="#05BDFB"/>
</linearGradient>
<clipPath id="clip0_661_7859">
<rect width="81.6497" height="81.6497" fill="white" transform="translate(42 85.1325) rotate(-15)"/>
</clipPath>
</defs>
<path opacity="0.3" d="M254.679 129.137C256.232 127.566 256.232 125.02 254.679 123.449L145.393 12.9292C143.685 11.2019 140.861 11.4003 139.406 13.3499L99.1415 67.2889C97.946 68.8903 98.1005 71.1378 99.5035 72.5566L149.71 123.329C151.263 124.9 151.263 127.447 149.71 129.018L93.106 186.26C91.3987 187.987 91.5939 190.841 93.5201 192.314L146.962 233.164C148.546 234.375 150.77 234.219 152.173 232.8L254.679 129.137Z" fill="#1090F9"/>
<path opacity="0.3" d="M253.888 132.632C255.053 133.81 255.053 135.72 253.888 136.898L151.383 240.561C150.33 241.625 148.662 241.742 147.474 240.834L94.0323 199.984C92.5877 198.879 92.4412 196.739 93.7217 195.444L150.326 138.201C152.267 136.238 152.267 133.054 150.326 131.091L100.119 80.3177C99.0669 79.2536 98.9511 77.568 99.8477 76.3669L140.112 22.428C141.203 20.9658 143.321 20.8169 144.602 22.1124L253.888 132.632Z" stroke="#05BDFB" stroke-width="2"/>
<path opacity="0.3" d="M196.259 26.6185C197.364 26.6185 198.259 27.5139 198.259 28.6185L198.259 31.3716C198.259 32.2621 197.472 32.9471 196.59 32.8242C195.865 32.7232 195.326 32.1034 195.326 31.3716L195.326 31.1827C195.326 30.2819 194.596 29.5517 193.695 29.5517L193.506 29.5517C192.615 29.5517 191.93 28.7646 192.053 27.8827C192.154 27.1579 192.774 26.6185 193.506 26.6185L196.259 26.6185Z" fill="#1090F9"/>
<path opacity="0.3" d="M246.27 71.3223C246.823 72.2789 246.495 73.5021 245.538 74.0544L241.454 76.4122C240.403 77.0194 239.057 76.5569 238.601 75.4315L238.56 75.3319C238.186 74.4071 238.55 73.3474 239.414 72.8484L239.929 72.5513C240.885 71.999 241.213 70.7758 240.661 69.8193L240.356 69.2918C239.749 68.2401 240.211 66.8945 241.337 66.4383L241.436 66.3979C242.361 66.023 243.421 66.3871 243.92 67.2514L246.27 71.3223Z" fill="#1090F9"/>
<path opacity="0.3" d="M148.408 211.678C148.96 212.634 148.632 213.857 147.676 214.41L143.592 216.767C142.54 217.375 141.195 216.912 140.739 215.787L140.698 215.687C140.323 214.762 140.687 213.703 141.552 213.204L142.066 212.907C143.023 212.354 143.351 211.131 142.798 210.174L142.494 209.647C141.887 208.595 142.349 207.25 143.474 206.793L143.574 206.753C144.499 206.378 145.559 206.742 146.058 207.607L148.408 211.678Z" fill="#1090F9"/>
<path opacity="0.3" d="M244.741 168.593C243.96 167.812 243.96 166.545 244.741 165.764L252.143 158.363C253.024 157.482 254.487 157.612 255.199 158.635L255.929 159.685C256.482 160.48 256.386 161.557 255.702 162.241L253.246 164.696C252.465 165.478 252.465 166.744 253.246 167.525L254.7 168.979C255.542 169.82 255.467 171.205 254.54 171.951L252.37 173.697C251.574 174.337 250.424 174.275 249.702 173.553L244.741 168.593Z" fill="#1090F9"/>
<path opacity="0.2" fill-rule="evenodd" clip-rule="evenodd" d="M196.476 69.4974C191.496 69.4974 183.174 71.4053 175.343 73.5292C167.331 75.689 159.255 78.2449 154.506 79.7928C152.52 80.4469 150.76 81.6465 149.427 83.2537C148.094 84.8609 147.242 86.8106 146.97 88.8787C142.669 121.111 152.651 145 164.762 160.803C169.898 167.563 176.022 173.516 182.929 178.463C185.715 180.429 188.299 181.934 190.493 182.963C192.514 183.914 194.686 184.691 196.476 184.691C198.266 184.691 200.431 183.914 202.46 182.963C205.105 181.681 207.635 180.175 210.024 178.463C216.931 173.516 223.055 167.563 228.191 160.803C240.302 145 250.284 121.111 245.982 88.8787C245.71 86.8096 244.859 84.8588 243.527 83.2503C242.194 81.6419 240.433 80.441 238.447 79.7856C231.553 77.5308 224.605 75.4423 217.609 73.522C209.778 71.4125 201.456 69.4974 196.476 69.4974Z" fill="#054375"/>
<path d="M175.603 70.4528L175.605 70.4524C183.458 68.3224 191.652 66.4555 196.476 66.4555C201.301 66.4555 209.492 68.3291 217.347 70.4451C224.326 72.3609 231.257 74.4444 238.135 76.6937C239.942 77.2904 241.544 78.3832 242.757 79.8465C243.969 81.31 244.744 83.0848 244.991 84.967L244.991 84.9691C249.253 116.908 239.366 140.535 227.397 156.153L227.394 156.156C222.319 162.837 216.267 168.72 209.441 173.609L209.441 173.609C207.101 175.286 204.621 176.762 202.029 178.019C200.021 178.959 198.029 179.649 196.476 179.649C194.921 179.649 192.92 178.958 190.918 178.016L190.918 178.016C188.786 177.016 186.254 175.544 183.509 173.607C176.684 168.718 170.633 162.836 165.558 156.156L165.556 156.153C153.587 140.535 143.699 116.908 147.962 84.9691L147.962 84.9673C148.209 83.0861 148.984 81.3125 150.196 79.8502C151.409 78.3882 153.01 77.2966 154.817 76.7012C159.56 75.1553 167.617 72.6059 175.603 70.4528Z" fill="#1090F9" stroke="#054375" stroke-width="2"/>
<path d="M203.192 102.349C201.236 100.707 198.76 99.8077 196.203 99.8115C193.647 99.8077 191.171 100.707 189.215 102.349C187.259 103.992 185.949 106.272 185.517 108.785C185.084 111.299 185.558 113.884 186.853 116.083C188.149 118.282 190.183 119.952 192.595 120.798L189.823 135.126C189.722 135.646 189.738 136.182 189.869 136.696C189.999 137.21 190.243 137.689 190.58 138.098C190.918 138.507 191.343 138.837 191.823 139.064C192.303 139.29 192.828 139.408 193.36 139.409H199.047C199.579 139.409 200.105 139.292 200.586 139.066C201.068 138.84 201.493 138.51 201.831 138.101C202.17 137.691 202.414 137.212 202.545 136.698C202.676 136.184 202.692 135.647 202.591 135.126L199.812 120.798C202.224 119.952 204.258 118.282 205.553 116.083C206.849 113.884 207.322 111.299 206.89 108.785C206.458 106.272 205.148 103.992 203.192 102.349Z" fill="#054375"/>
<path opacity="0.2" d="M226 134C213 169 204 168.5 197 179V180L208.5 174L217.5 167L226 157.5L237.5 139.5C239.5 133.333 243.7 120.6 244.5 119C245.3 117.4 245.833 105 246 99L244.5 84.5L241 78.5L234 76C236 86.8333 239 99 226 134Z" fill="#054375"/>
<path d="M97.3289 169.13V66.6377C97.3289 58.655 103.796 52.188 111.779 52.188H158.412C166.395 52.188 172.862 58.655 172.862 66.6377V169.13C172.862 177.113 166.395 183.58 158.412 183.58H111.779C103.796 183.58 97.3289 177.113 97.3289 169.13Z" fill="#7CDDFD"/>
<path d="M158.513 184.459H111.678C103.28 184.459 96.4497 177.628 96.4497 169.231V66.5367C96.4497 58.1397 103.28 51.3089 111.678 51.3089H158.513C166.91 51.3089 173.741 58.1397 173.741 66.5367V169.231C173.741 177.628 166.91 184.459 158.513 184.459ZM111.678 53.057C104.251 53.057 98.2079 59.0996 98.2079 66.5266V169.221C98.2079 176.648 104.251 182.69 111.678 182.69H158.513C165.94 182.69 171.982 176.648 171.982 169.221V66.5367C171.982 59.1097 165.94 53.0671 158.513 53.0671H111.678V53.057Z" fill="#054375"/>
<path d="M172.872 66.1527H97.3289V165.24H172.872V66.1527Z" fill="white"/>
<path d="M136.766 100.157V110.67C136.766 112.318 137.617 113.19 139.229 113.19C140.066 113.19 141.131 113.016 142.246 112.698L142.922 117.385C141.521 117.962 139.06 118.346 137.569 118.346C133.011 118.346 130.796 116.119 130.796 111.538V100.157H136.766Z" fill="#054375"/>
<path d="M129.786 98.1361H142.922L142.088 92.1515H135.77V85L129.786 85.834V98.1361Z" fill="url(#paint0_linear_661_7859)"/>
<g opacity="0.1294">
<path d="M115.528 141.7C114.986 140.628 112.777 140.472 111.802 141.345C111.79 141.354 111.79 141.354 111.777 141.354C111.642 141.423 111.506 141.484 111.358 141.544C111.185 141.587 111 141.622 110.815 141.648C110.778 141.648 110.753 141.648 110.716 141.656C110.642 141.656 110.568 141.648 110.494 141.648C110.42 141.639 110.334 141.622 110.235 141.605C110.037 141.57 109.889 141.527 109.791 141.509C109.679 141.466 109.568 141.423 109.457 141.38C109.322 141.285 109.174 141.198 108.989 141.12C107.323 140.325 105.064 141.484 105.62 142.841C106.138 143.921 107.977 144.397 109.445 144.639C111.703 145.089 116.688 143.723 115.528 141.7Z" fill="#054375"/>
</g>
<path d="M113.827 141.247L111.322 139.637L111.371 142.51H109.206L109.255 139.637L106.701 141.247L105.534 139.389L108.282 137.755L105.534 136.096L106.726 134.263L109.255 135.873L109.206 133H111.371L111.322 135.897L113.852 134.263L115.043 136.096L112.295 137.755L115.043 139.389L113.827 141.247Z" fill="#054375"/>
<g opacity="0.1294">
<path d="M131.695 141.7C131.153 140.628 128.944 140.472 127.969 141.345C127.957 141.354 127.957 141.354 127.944 141.354C127.809 141.423 127.673 141.484 127.525 141.544C127.352 141.587 127.167 141.622 126.982 141.648C126.945 141.648 126.92 141.648 126.883 141.656C126.809 141.656 126.735 141.648 126.661 141.648C126.587 141.639 126.501 141.622 126.402 141.605C126.204 141.57 126.056 141.527 125.958 141.509C125.846 141.466 125.735 141.423 125.624 141.38C125.489 141.285 125.341 141.198 125.155 141.12C123.49 140.325 121.231 141.484 121.787 142.841C122.305 143.921 124.144 144.397 125.612 144.639C127.87 145.089 132.855 143.723 131.695 141.7Z" fill="#054375"/>
</g>
<path d="M129.994 141.247L127.489 139.637L127.538 142.51H125.373L125.422 139.637L122.868 141.247L121.701 139.389L124.449 137.755L121.701 136.096L122.893 134.263L125.422 135.873L125.373 133H127.538L127.489 135.897L130.019 134.263L131.21 136.096L128.462 137.755L131.21 139.389L129.994 141.247Z" fill="#054375"/>
<g opacity="0.1294">
<path d="M147.863 141.7C147.32 140.628 145.111 140.472 144.136 141.345C144.124 141.354 144.124 141.354 144.111 141.354C143.976 141.423 143.84 141.484 143.692 141.544C143.519 141.587 143.334 141.622 143.149 141.648C143.112 141.648 143.087 141.648 143.05 141.656C142.976 141.656 142.902 141.648 142.828 141.648C142.754 141.639 142.668 141.622 142.569 141.605C142.372 141.57 142.223 141.527 142.125 141.509C142.014 141.466 141.903 141.423 141.792 141.38C141.656 141.285 141.508 141.198 141.323 141.12C139.657 140.325 137.399 141.484 137.954 142.841C138.472 143.921 140.311 144.397 141.779 144.639C144.037 145.089 149.023 143.723 147.863 141.7Z" fill="#054375"/>
</g>
<path d="M146.162 141.247L143.657 139.637L143.705 142.51H141.541L141.589 139.637L139.036 141.247L137.868 139.389L140.616 137.755L137.868 136.096L139.06 134.263L141.589 135.873L141.541 133H143.705L143.657 135.897L146.186 134.263L147.378 136.096L144.629 137.755L147.378 139.389L146.162 141.247Z" fill="#054375"/>
<g opacity="0.1294">
<path d="M164.03 141.7C163.487 140.628 161.278 140.472 160.303 141.345C160.291 141.354 160.291 141.354 160.278 141.354C160.143 141.423 160.007 141.484 159.859 141.544C159.686 141.587 159.501 141.622 159.316 141.648C159.279 141.648 159.254 141.648 159.217 141.656C159.143 141.656 159.069 141.648 158.995 141.648C158.921 141.639 158.835 141.622 158.736 141.605C158.539 141.57 158.39 141.527 158.292 141.509C158.181 141.466 158.07 141.423 157.959 141.38C157.823 141.285 157.675 141.198 157.49 141.12C155.824 140.325 153.566 141.484 154.121 142.841C154.639 143.921 156.478 144.397 157.946 144.639C160.204 145.089 165.19 143.723 164.03 141.7Z" fill="#054375"/>
</g>
<path d="M162.329 141.247L159.824 139.637L159.872 142.51H157.708L157.756 139.637L155.203 141.247L154.035 139.389L156.783 137.755L154.035 136.096L155.227 134.263L157.756 135.873L157.708 133H159.872L159.824 135.897L162.353 134.263L163.545 136.096L160.796 137.755L163.545 139.389L162.329 141.247Z" fill="#054375"/>
<path d="M172.862 166.119H97.3188C96.8338 166.119 96.4397 165.725 96.4397 165.24V66.1527C96.4397 65.6677 96.8338 65.2736 97.3188 65.2736H172.862C173.347 65.2736 173.741 65.6677 173.741 66.1527V165.24C173.741 165.725 173.357 166.119 172.862 166.119ZM98.208 164.36H171.993V67.0318H98.208V164.36Z" fill="#054375"/>
<path d="M142.669 173.242H129.058C128.573 173.242 128.179 172.848 128.179 172.363C128.179 171.878 128.573 171.484 129.058 171.484H142.669C143.154 171.484 143.548 171.878 143.548 172.363C143.548 172.848 143.154 173.242 142.669 173.242Z" fill="#054375"/>
<g opacity="0.1294">
<path d="M168.5 66.3346C165.924 66.2639 163.347 66.1426 160.77 66.1729C153.838 66.1022 146.896 66.1123 139.955 66.2032C134.498 66.2436 129.041 66.466 123.585 66.1022C116.896 65.9001 110.206 65.4959 103.507 65.7687C102.567 65.7889 101.627 65.7788 100.688 65.7384C100.122 65.698 99.5155 65.6172 99.0002 65.9102C96.4437 66.8903 97.2419 70.8514 99.9904 70.8211C103.254 71.0535 106.538 70.8009 109.802 70.8716C113.703 70.8514 117.593 71.1747 121.493 71.2556C136.044 71.3465 150.605 71.4071 165.156 71.1444C167.086 71.1747 169.026 71.1343 170.956 71.0939C172.552 71.2758 174.179 70.5179 174.199 68.7193C173.997 65.6172 170.663 66.4457 168.5 66.3346Z" fill="#054375"/>
</g>
<path d="M89.0026 140.877C88.9218 140.877 88.851 140.847 88.7904 140.786C88.6792 140.665 88.6792 140.483 88.8005 140.372L113.284 116.949C113.406 116.838 113.587 116.838 113.699 116.959C113.81 117.08 113.81 117.262 113.688 117.373L89.2047 140.796C89.1441 140.847 89.0733 140.877 89.0026 140.877Z" fill="#054375"/>
<path d="M88.6894 150.204C88.6186 150.204 88.5378 150.173 88.4873 150.123C88.366 150.012 88.366 149.83 88.4772 149.709C96.6923 141.16 105.16 132.611 113.638 124.285C113.759 124.174 113.941 124.174 114.052 124.285C114.163 124.396 114.163 124.588 114.052 124.699C105.584 133.016 97.1167 141.564 88.9016 150.113C88.8511 150.173 88.7702 150.204 88.6894 150.204Z" fill="#054375"/>
<path d="M96.8338 150.042C96.7631 150.042 96.6822 150.012 96.6317 149.961C96.5206 149.85 96.5206 149.658 96.6317 149.547L115.113 130.813C115.224 130.702 115.416 130.692 115.528 130.813C115.639 130.924 115.649 131.116 115.528 131.227L97.046 149.961C96.9854 150.012 96.9045 150.042 96.8338 150.042Z" fill="#054375"/>
<path d="M105.241 150.446C105.17 150.446 105.099 150.416 105.039 150.365C104.918 150.254 104.918 150.072 105.029 149.951C109.03 145.788 112.971 141.453 116.72 137.057C116.821 136.936 117.013 136.916 117.134 137.027C117.255 137.128 117.276 137.32 117.164 137.441C113.405 141.847 109.465 146.192 105.453 150.365C105.403 150.416 105.322 150.446 105.241 150.446Z" fill="#054375"/>
<path d="M113.729 150.173C113.658 150.173 113.587 150.153 113.537 150.103C113.415 149.992 113.405 149.81 113.506 149.688L118.397 144.05C118.508 143.929 118.69 143.919 118.811 144.02C118.933 144.131 118.943 144.313 118.842 144.434L113.951 150.072C113.89 150.143 113.81 150.173 113.729 150.173Z" fill="#054375"/>
<path opacity="0.2" d="M93.3998 123.165L103.174 86.6887L109.745 88.4495L108.866 91.7376L120.364 94.8183L118.605 101.393L107.103 98.3106L105.783 103.237L115.64 105.878L113.881 112.452L104.022 109.808L99.9711 124.926C103.735 126.815 106.664 130.033 108.193 133.956C109.722 137.88 109.742 142.231 108.249 146.169C106.756 150.106 103.856 153.35 100.11 155.274C96.3637 157.197 92.0374 157.663 87.9675 156.582C83.8882 155.497 80.358 152.934 78.063 149.392C75.7679 145.849 74.872 141.58 75.5493 137.413C76.2266 133.247 78.4287 129.481 81.7278 126.848C85.0268 124.215 89.187 122.902 93.3998 123.165ZM102.228 142.79C102.617 141.483 102.741 140.11 102.591 138.754C102.441 137.398 102.021 136.086 101.355 134.896C100.69 133.705 99.7922 132.659 98.7157 131.822C97.6393 130.984 96.4057 130.37 95.088 130.017C93.7703 129.664 92.3952 129.578 91.0439 129.766C89.6927 129.953 88.3928 130.41 87.2209 131.108C86.0491 131.807 85.0292 132.733 84.2215 133.832C83.4138 134.932 82.8347 136.182 82.5184 137.509C81.8708 140.105 82.2689 142.853 83.6271 145.158C84.9852 147.464 87.1947 149.144 89.7797 149.837C92.3646 150.53 95.1182 150.179 97.4473 148.862C99.7765 147.544 101.495 145.364 102.232 142.791L102.228 142.79Z" fill="#054375"/>
<g clip-path="url(#clip0_661_7859)">
<path d="M98.7045 103.804L107.597 106.189L108.564 106.448L108.822 105.482L110.581 98.9076L110.84 97.942L109.874 97.6832L100.983 95.3009L101.785 92.3062L112.322 95.1294L113.288 95.3883L113.546 94.4219L115.306 87.8477L115.564 86.882L114.598 86.6233L104.066 83.8012L104.687 81.4785L104.945 80.5131L103.979 80.2545L97.4081 78.4937L96.4422 78.2349L96.1834 79.2008L86.6162 114.906C82.4393 114.836 78.3578 116.221 75.0795 118.837C71.5866 121.625 69.2549 125.612 68.5378 130.024C67.8207 134.435 68.7693 138.955 71.1993 142.706C73.6293 146.457 77.367 149.17 81.6861 150.319L81.6863 150.319C85.9953 151.464 90.5759 150.971 94.5422 148.934C98.5086 146.898 101.579 143.463 103.16 139.294C104.741 135.125 104.72 130.518 103.101 126.364C101.581 122.465 98.7551 119.224 95.1186 117.187L98.7045 103.804ZM95.2449 135.275L95.1247 135.679C94.4034 137.828 92.912 139.641 90.9305 140.762C88.8295 141.951 86.3457 142.267 84.0141 141.642C81.6824 141.017 79.6894 139.502 78.4643 137.422C77.2392 135.342 76.8801 132.864 77.4642 130.522L77.4643 130.522L77.4667 130.512C77.752 129.315 78.2744 128.187 79.003 127.195C79.7315 126.204 80.6515 125.368 81.7085 124.738C82.7655 124.108 83.9381 123.696 85.157 123.527C86.3758 123.358 87.6162 123.435 88.8048 123.754C89.9934 124.072 91.1061 124.626 92.0771 125.382C93.0481 126.137 93.8577 127.08 94.4581 128.154C95.0585 129.229 95.4374 130.412 95.5726 131.635C95.7077 132.858 95.5963 134.096 95.2449 135.275Z" fill="#F3CB3F" stroke="#054375" stroke-width="2"/>
</g>
<rect opacity="0.2" x="173.236" y="71.5183" width="5.05236" height="92.9633" fill="#054375"/>
</svg>
