<svg width="320" height="248" viewBox="0 0 320 248" fill="none" xmlns="http://www.w3.org/2000/svg">
<path opacity="0.3" d="M254.679 129.137C256.232 127.566 256.232 125.02 254.679 123.449L145.393 12.9291C143.685 11.2018 140.861 11.4003 139.406 13.3499L99.1415 67.2888C97.946 68.8902 98.1005 71.1377 99.5035 72.5565L149.71 123.329C151.263 124.9 151.263 127.447 149.71 129.018L93.106 186.26C91.3987 187.987 91.5939 190.841 93.5201 192.314L146.962 233.164C148.546 234.375 150.77 234.219 152.173 232.8L254.679 129.137Z" fill="#1090F9"/>
<path opacity="0.3" d="M253.889 132.632C255.054 133.811 255.054 135.721 253.889 136.899L151.383 240.561C150.33 241.626 148.663 241.743 147.475 240.835L94.0328 199.984C92.5882 198.88 92.4417 196.739 93.7222 195.444L150.326 138.202C152.268 136.238 152.268 133.055 150.326 131.091L100.12 80.3181C99.0674 79.254 98.9516 77.5684 99.8482 76.3673L140.112 22.4284C141.204 20.9662 143.322 20.8174 144.603 22.1128L253.889 132.632Z" stroke="#05BDFB" stroke-width="2"/>
<path opacity="0.3" d="M196.259 26.6181C197.363 26.6181 198.259 27.5135 198.259 28.6181L198.259 31.3713C198.259 32.2617 197.472 32.9467 196.59 32.8238C195.865 32.7228 195.325 32.103 195.325 31.3713L195.325 31.1823C195.325 30.2816 194.595 29.5513 193.694 29.5513L193.505 29.5513C192.615 29.5513 191.93 28.7642 192.053 27.8823C192.154 27.1575 192.774 26.6181 193.505 26.6181L196.259 26.6181Z" fill="#1090F9"/>
<path opacity="0.3" d="M246.27 71.322C246.823 72.2786 246.495 73.5017 245.538 74.054L241.455 76.4118C240.403 77.019 239.057 76.5565 238.601 75.4311L238.561 75.3315C238.186 74.4067 238.55 73.347 239.414 72.8481L239.929 72.5509C240.885 71.9987 241.213 70.7755 240.661 69.8189L240.356 69.2914C239.749 68.2397 240.212 66.8941 241.337 66.4379L241.437 66.3975C242.361 66.0226 243.421 66.3868 243.92 67.251L246.27 71.322Z" fill="#1090F9"/>
<path opacity="0.3" d="M148.408 211.677C148.96 212.634 148.633 213.857 147.676 214.409L143.592 216.767C142.541 217.374 141.195 216.912 140.739 215.787L140.698 215.687C140.324 214.762 140.688 213.702 141.552 213.204L142.067 212.906C143.023 212.354 143.351 211.131 142.799 210.174L142.494 209.647C141.887 208.595 142.349 207.25 143.475 206.793L143.574 206.753C144.499 206.378 145.559 206.742 146.058 207.606L148.408 211.677Z" fill="#1090F9"/>
<path opacity="0.3" d="M244.741 168.593C243.96 167.812 243.96 166.545 244.741 165.764L252.142 158.363C253.023 157.482 254.487 157.612 255.198 158.635L255.929 159.685C256.482 160.48 256.386 161.557 255.701 162.241L253.246 164.697C252.465 165.478 252.465 166.744 253.246 167.525L254.7 168.979C255.541 169.82 255.467 171.205 254.54 171.951L252.37 173.697C251.574 174.337 250.424 174.275 249.702 173.553L244.741 168.593Z" fill="#1090F9"/>
<path d="M69.8513 165.789V67.6743C69.8513 60.0324 76.0421 53.8416 83.6839 53.8416H128.326C135.967 53.8416 142.158 60.0324 142.158 67.6743V165.789C142.158 173.431 135.967 179.622 128.326 179.622H83.6839C76.0421 179.622 69.8513 173.431 69.8513 165.789Z" fill="#7CDDFD"/>
<path d="M128.422 180.463H83.5872C75.5488 180.463 69.0098 173.924 69.0098 165.886V67.5775C69.0098 59.5391 75.5488 53 83.5872 53H128.422C136.461 53 143 59.5391 143 67.5775V165.886C143 173.924 136.461 180.463 128.422 180.463ZM83.5872 54.6735C76.4775 54.6735 70.6929 60.458 70.6929 67.5678V165.876C70.6929 172.986 76.4775 178.771 83.5872 178.771H128.422C135.532 178.771 141.317 172.986 141.317 165.876V67.5775C141.317 60.4677 135.532 54.6831 128.422 54.6831H83.5872V54.6735Z" fill="#054375"/>
<path d="M142.168 67.2097H69.8513V162.065H142.168V67.2097Z" fill="white"/>
<path d="M142.158 162.906H69.8416C69.3772 162.906 69 162.529 69 162.065V67.2097C69 66.7454 69.3772 66.3682 69.8416 66.3682H142.158C142.623 66.3682 143 66.7454 143 67.2097V162.065C143 162.529 142.632 162.906 142.158 162.906ZM70.6928 161.223H141.326V68.0513H70.6928V161.223Z" fill="#054375"/>
<path d="M113.255 169.726H100.225C99.7608 169.726 99.3835 169.349 99.3835 168.885C99.3835 168.42 99.7608 168.043 100.225 168.043H113.255C113.719 168.043 114.096 168.42 114.096 168.885C114.096 169.349 113.719 169.726 113.255 169.726Z" fill="#054375"/>
<g opacity="0.1294">
<path d="M137.322 67.384C134.855 67.3163 132.388 67.2002 129.922 67.2293C123.286 67.1615 116.64 67.1712 109.995 67.2583C104.772 67.297 99.548 67.5098 94.3245 67.1615C87.9208 66.9681 81.5172 66.5812 75.1039 66.8423C74.2043 66.8617 73.3047 66.852 72.4051 66.8133C71.8634 66.7746 71.283 66.6972 70.7897 66.9778C68.3424 67.9161 69.1065 71.7079 71.7376 71.6789C74.8621 71.9014 78.0059 71.6596 81.1303 71.7273C84.8641 71.7079 88.5883 72.0175 92.3222 72.0949C106.252 72.1819 120.191 72.24 134.12 71.9885C135.967 72.0175 137.825 71.9788 139.672 71.9401C141.201 72.1142 142.758 71.3887 142.777 69.6669C142.584 66.6972 139.392 67.4904 137.322 67.384Z" fill="#054375"/>
</g>
<path d="M109.909 156.495C109.842 156.495 109.764 156.466 109.716 156.417C109.6 156.311 109.6 156.137 109.706 156.021C117.57 147.837 125.677 139.654 133.792 131.683C133.908 131.577 134.082 131.577 134.189 131.683C134.295 131.789 134.295 131.973 134.189 132.08C126.083 140.041 117.977 148.224 110.112 156.408C110.064 156.466 109.987 156.495 109.909 156.495Z" fill="#054375"/>
<path d="M117.706 156.34C117.638 156.34 117.561 156.311 117.512 156.262C117.406 156.156 117.406 155.972 117.512 155.866L135.204 137.932C135.311 137.825 135.495 137.816 135.601 137.932C135.707 138.038 135.717 138.222 135.601 138.328L117.909 156.262C117.851 156.311 117.773 156.34 117.706 156.34Z" fill="#054375"/>
<path d="M125.754 156.727C125.686 156.727 125.618 156.698 125.56 156.649C125.444 156.543 125.444 156.369 125.551 156.253C129.381 152.267 133.154 148.118 136.742 143.91C136.839 143.794 137.023 143.774 137.139 143.881C137.255 143.978 137.274 144.161 137.168 144.277C133.57 148.495 129.797 152.654 125.957 156.649C125.909 156.698 125.831 156.727 125.754 156.727Z" fill="#054375"/>
<path d="M133.879 156.466C133.812 156.466 133.744 156.446 133.696 156.398C133.579 156.291 133.57 156.117 133.667 156.001L138.348 150.604C138.455 150.488 138.629 150.478 138.745 150.575C138.861 150.681 138.871 150.855 138.774 150.971L134.092 156.369C134.034 156.437 133.957 156.466 133.879 156.466Z" fill="#054375"/>
<path d="M161.851 165.789V67.6742C161.851 60.0324 168.042 53.8416 175.684 53.8416H220.326C227.967 53.8416 234.158 60.0324 234.158 67.6742V165.789C234.158 173.431 227.967 179.622 220.326 179.622H175.684C168.042 179.622 161.851 173.431 161.851 165.789Z" fill="#7CDDFD"/>
<path d="M220.422 180.463H175.587C167.549 180.463 161.01 173.924 161.01 165.886V67.5774C161.01 59.539 167.549 52.9999 175.587 52.9999H220.422C228.461 52.9999 235 59.539 235 67.5774V165.886C235 173.924 228.461 180.463 220.422 180.463ZM175.587 54.6734C168.477 54.6734 162.693 60.458 162.693 67.5677V165.876C162.693 172.986 168.477 178.771 175.587 178.771H220.422C227.532 178.771 233.317 172.986 233.317 165.876V67.5774C233.317 60.4676 227.532 54.6831 220.422 54.6831H175.587V54.6734Z" fill="#054375"/>
<path d="M234.168 67.2097H161.851V162.065H234.168V67.2097Z" fill="white"/>
<path d="M234.158 162.906H161.842C161.377 162.906 161 162.529 161 162.065V67.2097C161 66.7454 161.377 66.3681 161.842 66.3681H234.158C234.623 66.3681 235 66.7454 235 67.2097V162.065C235 162.529 234.632 162.906 234.158 162.906ZM162.693 161.223H233.326V68.0512H162.693V161.223Z" fill="#054375"/>
<path d="M205.255 169.726H192.225C191.761 169.726 191.384 169.349 191.384 168.885C191.384 168.42 191.761 168.043 192.225 168.043H205.255C205.719 168.043 206.096 168.42 206.096 168.885C206.096 169.349 205.719 169.726 205.255 169.726Z" fill="#054375"/>
<g opacity="0.1294">
<path d="M229.322 67.384C226.855 67.3163 224.388 67.2002 221.922 67.2292C215.286 67.1615 208.64 67.1711 201.995 67.2582C196.772 67.2969 191.548 67.5097 186.324 67.1615C179.921 66.968 173.517 66.5811 167.104 66.8423C166.204 66.8616 165.305 66.8519 164.405 66.8133C163.863 66.7746 163.283 66.6972 162.79 66.9777C160.342 67.916 161.107 71.7079 163.738 71.6789C166.862 71.9013 170.006 71.6595 173.13 71.7272C176.864 71.7079 180.588 72.0174 184.322 72.0948C198.252 72.1819 212.191 72.2399 226.12 71.9884C227.967 72.0174 229.825 71.9787 231.672 71.94C233.201 72.1142 234.758 71.3887 234.777 69.6668C234.584 66.6972 231.392 67.4904 229.322 67.384Z" fill="#054375"/>
</g>
<path d="M201.909 156.495C201.842 156.495 201.764 156.466 201.716 156.417C201.6 156.311 201.6 156.137 201.706 156.021C209.57 147.837 217.677 139.654 225.792 131.683C225.908 131.576 226.082 131.576 226.189 131.683C226.295 131.789 226.295 131.973 226.189 132.079C218.083 140.04 209.977 148.224 202.112 156.407C202.064 156.466 201.987 156.495 201.909 156.495Z" fill="#054375"/>
<path d="M209.706 156.34C209.638 156.34 209.561 156.311 209.512 156.262C209.406 156.156 209.406 155.972 209.512 155.866L227.204 137.932C227.311 137.825 227.495 137.816 227.601 137.932C227.707 138.038 227.717 138.222 227.601 138.328L209.909 156.262C209.851 156.311 209.773 156.34 209.706 156.34Z" fill="#054375"/>
<path d="M217.754 156.727C217.686 156.727 217.618 156.698 217.56 156.649C217.444 156.543 217.444 156.369 217.551 156.253C221.381 152.267 225.154 148.118 228.742 143.91C228.839 143.794 229.023 143.774 229.139 143.881C229.255 143.977 229.274 144.161 229.168 144.277C225.57 148.495 221.797 152.654 217.957 156.649C217.909 156.698 217.831 156.727 217.754 156.727Z" fill="#054375"/>
<path d="M225.879 156.466C225.812 156.466 225.744 156.446 225.696 156.398C225.579 156.291 225.57 156.117 225.667 156.001L230.348 150.604C230.455 150.488 230.629 150.478 230.745 150.575C230.861 150.681 230.871 150.855 230.774 150.971L226.092 156.369C226.034 156.436 225.957 156.466 225.879 156.466Z" fill="#054375"/>
<path d="M117 102.086C118.667 99.5861 124.1 94.1861 132.5 92.5861" stroke="#054375" stroke-width="2"/>
<path d="M170 93.8361C172.998 94.0294 180.392 96.0348 185.977 102.509" stroke="#054375" stroke-width="2"/>
<circle cx="108" cy="118.663" r="17" fill="#F7E06E"/>
<ellipse cx="152" cy="94.0861" rx="17" ry="14" fill="#F7E06E"/>
<circle cx="200" cy="118.086" r="17" fill="#F7E06E"/>
<circle cx="105.062" cy="117.148" r="16.0624" fill="#F9EC76" stroke="#054375" stroke-width="2"/>
<path fill-rule="evenodd" clip-rule="evenodd" d="M103.928 124.757V126.557C103.928 126.841 104.158 127.071 104.442 127.071H104.957C105.241 127.071 105.471 126.841 105.471 126.557V124.749C106.279 124.725 107.301 124.63 108.213 124.247C108.851 123.979 109.465 123.559 109.916 122.904C110.368 122.247 110.614 121.412 110.614 120.386C110.614 119.359 110.368 118.525 109.916 117.867C109.465 117.212 108.851 116.792 108.213 116.524C107.301 116.142 106.279 116.046 105.471 116.022V110.357L109.328 110.357C109.612 110.357 109.842 110.127 109.842 109.843L109.842 109.328C109.842 109.044 109.612 108.814 109.328 108.814L105.471 108.814V107.014C105.471 106.73 105.241 106.5 104.957 106.5H104.442C104.158 106.5 103.928 106.73 103.928 107.014V108.828C103.084 108.86 102.106 108.963 101.242 109.302C100.588 109.558 99.9596 109.962 99.4984 110.6C99.0341 111.243 98.7852 112.061 98.7852 113.061C98.7852 114.063 99.0343 114.886 99.4812 115.543C99.9252 116.196 100.53 116.634 101.161 116.927C102.078 117.352 103.104 117.493 103.928 117.538V123.214H100.071C99.7868 123.214 99.5566 123.444 99.5566 123.728V124.243C99.5566 124.527 99.7868 124.757 100.071 124.757H103.928ZM105.471 123.205C106.184 123.181 106.958 123.1 107.615 122.824C108.049 122.642 108.398 122.387 108.644 122.03C108.889 121.675 109.071 121.159 109.071 120.386C109.071 119.612 108.889 119.097 108.644 118.741C108.398 118.384 108.049 118.129 107.615 117.947C106.958 117.671 106.184 117.59 105.471 117.567V123.205ZM103.928 115.992V110.373C103.19 110.403 102.439 110.49 101.804 110.738C101.349 110.917 100.994 111.165 100.749 111.503C100.508 111.838 100.328 112.324 100.328 113.061C100.328 113.798 100.508 114.309 100.757 114.676C101.009 115.047 101.369 115.323 101.81 115.527C102.461 115.829 103.232 115.949 103.928 115.992Z" fill="#054375"/>
<path d="M167.125 93.1485C167.125 96.379 165.417 99.3728 162.519 101.591C159.621 103.81 155.574 105.211 151.062 105.211C146.551 105.211 142.504 103.81 139.605 101.591C136.708 99.3728 135 96.379 135 93.1485C135 89.9179 136.708 86.9241 139.605 84.706C142.504 82.4871 146.551 81.0861 151.062 81.0861C155.574 81.0861 159.621 82.4871 162.519 84.706C165.417 86.9241 167.125 89.9179 167.125 93.1485Z" fill="#F9EC76" stroke="#054375" stroke-width="2"/>
<path fill-rule="evenodd" clip-rule="evenodd" d="M149.928 98.9733V100.351C149.928 100.569 150.158 100.745 150.442 100.745H150.957C151.241 100.745 151.471 100.569 151.471 100.351V98.9673C152.279 98.949 153.301 98.8757 154.213 98.5827C154.851 98.3776 155.465 98.0562 155.916 97.5547C156.368 97.0514 156.614 96.4124 156.614 95.6267C156.614 94.841 156.368 94.2019 155.916 93.6986C155.465 93.1971 154.851 92.8757 154.213 92.6706C153.301 92.3776 152.279 92.3043 151.471 92.286V87.949L155.328 87.949C155.612 87.949 155.842 87.7728 155.842 87.5553L155.842 87.1616C155.842 86.9441 155.612 86.7679 155.328 86.7679L151.471 86.7679V85.3898C151.471 85.1724 151.241 84.9961 150.957 84.9961H150.442C150.158 84.9961 149.928 85.1724 149.928 85.3898V86.7785C149.084 86.8027 148.106 86.882 147.242 87.1412C146.588 87.3372 145.96 87.6464 145.498 88.1353C145.034 88.6276 144.785 89.2534 144.785 90.0195C144.785 90.7862 145.034 91.4165 145.481 91.9197C145.925 92.4196 146.53 92.7548 147.161 92.9788C148.078 93.3042 149.104 93.4123 149.928 93.4464V97.7921H146.071C145.787 97.7921 145.557 97.9684 145.557 98.1859V98.5796C145.557 98.797 145.787 98.9733 146.071 98.9733H149.928ZM151.471 97.7848C152.184 97.7668 152.958 97.7049 153.615 97.4937C154.049 97.3544 154.398 97.1589 154.644 96.8853C154.889 96.6135 155.071 96.219 155.071 95.6267C155.071 95.0343 154.889 94.6398 154.644 94.368C154.398 94.0944 154.049 93.899 153.615 93.7596C152.958 93.5484 152.184 93.4866 151.471 93.4685V97.7848ZM149.928 92.263V87.9613C149.19 87.9843 148.439 88.0506 147.804 88.241C147.349 88.3776 146.994 88.5674 146.749 88.8268C146.508 89.083 146.328 89.455 146.328 90.0195C146.328 90.5833 146.508 90.9746 146.757 91.2555C147.009 91.5397 147.369 91.7509 147.81 91.9071C148.461 92.1384 149.232 92.2298 149.928 92.263Z" fill="#054375"/>
<circle cx="197.062" cy="117.148" r="16.0624" fill="#F9EC76" stroke="#054375" stroke-width="2"/>
<path fill-rule="evenodd" clip-rule="evenodd" d="M195.928 124.757V126.557C195.928 126.841 196.158 127.071 196.442 127.071H196.957C197.241 127.071 197.471 126.841 197.471 126.557V124.749C198.279 124.725 199.301 124.63 200.213 124.247C200.851 123.979 201.465 123.559 201.916 122.904C202.368 122.247 202.614 121.412 202.614 120.386C202.614 119.359 202.368 118.525 201.916 117.867C201.465 117.212 200.851 116.792 200.213 116.524C199.301 116.142 198.279 116.046 197.471 116.022V110.357L201.328 110.357C201.612 110.357 201.842 110.127 201.842 109.843L201.842 109.328C201.842 109.044 201.612 108.814 201.328 108.814L197.471 108.814V107.014C197.471 106.73 197.241 106.5 196.957 106.5H196.442C196.158 106.5 195.928 106.73 195.928 107.014V108.828C195.084 108.86 194.106 108.963 193.242 109.302C192.588 109.558 191.96 109.962 191.498 110.6C191.034 111.243 190.785 112.061 190.785 113.061C190.785 114.063 191.034 114.886 191.481 115.543C191.925 116.196 192.53 116.634 193.161 116.927C194.078 117.352 195.104 117.493 195.928 117.538V123.214H192.071C191.787 123.214 191.557 123.444 191.557 123.728V124.243C191.557 124.527 191.787 124.757 192.071 124.757H195.928ZM197.471 123.205C198.184 123.181 198.958 123.1 199.615 122.824C200.049 122.642 200.398 122.387 200.644 122.03C200.889 121.675 201.071 121.159 201.071 120.386C201.071 119.612 200.889 119.097 200.644 118.741C200.398 118.384 200.049 118.129 199.615 117.947C198.958 117.671 198.184 117.59 197.471 117.567V123.205ZM195.928 115.992V110.373C195.19 110.403 194.439 110.49 193.804 110.738C193.349 110.917 192.994 111.165 192.749 111.503C192.508 111.838 192.328 112.324 192.328 113.061C192.328 113.798 192.508 114.309 192.757 114.676C193.009 115.047 193.369 115.323 193.81 115.527C194.461 115.829 195.232 115.949 195.928 115.992Z" fill="#054375"/>
</svg>
