<svg width="208" height="160" viewBox="0 0 208 160" fill="none" xmlns="http://www.w3.org/2000/svg">
<path opacity="0.3" d="M176.686 80.5173C178.24 78.9465 178.24 76.3997 176.686 74.8288L105.925 3.26894C104.217 1.54166 101.393 1.74011 99.9379 3.68971L74.74 37.4455C73.5446 39.0469 73.699 41.2944 75.102 42.7132L106.781 74.7494C108.334 76.3202 108.334 78.867 106.781 80.4379L71.1033 116.518C69.396 118.244 69.5912 121.099 71.5174 122.571L104.968 148.14C106.551 149.351 108.775 149.195 110.179 147.775L176.686 80.5173Z" fill="#1090F9"/>
<path opacity="0.3" d="M175.925 81.1825C177.09 82.3606 177.09 84.2707 175.925 85.4488L109.417 152.707C108.365 153.772 106.697 153.888 105.509 152.98L72.0589 127.411C70.6143 126.307 70.4678 124.166 71.7483 122.872L107.426 86.7915C109.367 84.828 109.367 81.6444 107.426 79.6809L75.747 47.6447C74.6948 46.5806 74.579 44.895 75.4755 43.6939L100.673 9.93816C101.765 8.47596 103.883 8.32712 105.164 9.62258L175.925 81.1825Z" stroke="#05BDFB" stroke-width="2"/>
<path opacity="0.3" d="M138.057 11.293C139.159 11.293 140.052 12.1862 140.052 13.2882L140.052 14.4584C140.052 15.0514 139.528 15.5076 138.941 15.4258C138.458 15.3585 138.099 14.9457 138.099 14.4584L138.099 14.3326C138.099 13.7327 137.613 13.2464 137.013 13.2464L136.887 13.2464C136.294 13.2464 135.838 12.7222 135.92 12.1349C135.987 11.6522 136.4 11.293 136.887 11.293L138.057 11.293Z" fill="#1090F9"/>
<path opacity="0.3" d="M171.692 40.486C172.244 41.4426 171.916 42.6658 170.96 43.2181L168.854 44.4339C168.135 44.849 167.215 44.5328 166.903 43.7634C166.647 43.1311 166.896 42.4066 167.487 42.0655L167.639 41.9774C168.366 41.5575 168.616 40.6274 168.196 39.9001L168.108 39.7476C167.693 39.0286 168.009 38.1086 168.778 37.7967C169.41 37.5403 170.135 37.7893 170.476 38.3802L171.692 40.486Z" fill="#1090F9"/>
<path opacity="0.3" d="M106.519 133.957C107.071 134.913 106.743 136.136 105.787 136.689L103.681 137.905C102.962 138.32 102.042 138.003 101.73 137.234C101.474 136.602 101.723 135.877 102.314 135.536L102.466 135.448C103.194 135.028 103.443 134.098 103.023 133.371L102.935 133.218C102.52 132.499 102.836 131.579 103.605 131.267C104.238 131.011 104.962 131.26 105.303 131.851L106.519 133.957Z" fill="#1090F9"/>
<path opacity="0.3" d="M171.48 106.316C170.699 105.535 170.699 104.269 171.48 103.488L175.583 99.3856C176.354 98.6143 177.635 98.7283 178.258 99.6237C178.743 100.32 178.659 101.263 178.059 101.862L177.13 102.791C176.357 103.564 176.357 104.818 177.13 105.591C177.963 106.424 177.889 107.795 176.971 108.533L176.555 108.867C175.76 109.508 174.61 109.446 173.887 108.723L171.48 106.316Z" fill="#1090F9"/>
<rect x="66.3638" y="41" width="86.6363" height="60.5504" rx="7" fill="white" stroke="#054375" stroke-width="2"/>
<path d="M68.5894 47.3032C68.5427 47.3032 68.4892 47.283 68.4492 47.2427C68.3757 47.1687 68.3757 47.0409 68.4492 46.9669L72.2833 43.1063C72.3568 43.0323 72.4837 43.0323 72.5572 43.1063C72.6307 43.1803 72.6307 43.308 72.5572 43.382L68.723 47.2427C68.683 47.283 68.6362 47.3032 68.5894 47.3032Z" fill="#054375"/>
<path d="M83.6456 51.1324C83.5988 51.1324 83.5454 51.1122 83.5053 51.0719C83.4318 50.9979 83.4318 50.8701 83.5053 50.7961L91.2225 43.1063C91.296 43.0323 91.4229 43.0323 91.4964 43.1063C91.5699 43.1803 91.5699 43.308 91.4964 43.382L83.7792 51.0719C83.7391 51.1122 83.6923 51.1324 83.6456 51.1324Z" fill="#054375"/>
<path d="M68.0616 51.6954C68.0148 51.6954 67.9614 51.6752 67.9213 51.6349C67.8478 51.5609 67.8478 51.4331 67.9213 51.3591L76.0708 43.1063C76.1443 43.0323 76.2712 43.0323 76.3447 43.1063C76.4182 43.1803 76.4182 43.308 76.3447 43.382L68.1952 51.6349C68.1551 51.6752 68.1084 51.6954 68.0616 51.6954Z" fill="#054375"/>
<path d="M88.3228 50.3177C88.2761 50.3177 88.2226 50.2975 88.1825 50.2571C88.1091 50.1831 88.1091 50.0553 88.1825 49.9814L95.0105 43.1063C95.084 43.0323 95.2109 43.0323 95.2844 43.1063C95.3579 43.1803 95.3579 43.308 95.2844 43.382L88.4564 50.2571C88.4164 50.2975 88.3696 50.3177 88.3228 50.3177Z" fill="#054375"/>
<path d="M69.6305 53.8022C69.5838 53.8022 69.5303 53.782 69.4902 53.7417C69.4168 53.6677 69.4168 53.5399 69.4902 53.4659L79.8589 43.1063C79.9324 43.0323 80.0593 43.0323 80.1328 43.1063C80.2063 43.1803 80.2063 43.308 80.1328 43.382L69.7641 53.7417C69.724 53.782 69.6773 53.8022 69.6305 53.8022Z" fill="#054375"/>
<path d="M92.8682 49.5548C92.8215 49.5548 92.768 49.5347 92.728 49.4943C92.6545 49.4203 92.6545 49.2925 92.728 49.2186L98.7983 43.1063C98.8718 43.0323 98.9987 43.0323 99.0722 43.1063C99.1457 43.1803 99.1457 43.308 99.0722 43.382L93.0019 49.4943C92.9618 49.5347 92.915 49.5548 92.8682 49.5548Z" fill="#054375"/>
<path d="M74.6685 52.7723C74.6217 52.7723 74.5683 52.7522 74.5282 52.7118C74.4547 52.6378 74.4547 52.51 74.5282 52.436L83.6471 43.1063C83.7205 43.0323 83.8475 43.0323 83.921 43.1063C83.9944 43.1803 83.9944 43.308 83.921 43.382L74.8021 52.7118C74.762 52.7522 74.7153 52.7723 74.6685 52.7723Z" fill="#054375"/>
<path d="M97.4806 48.7719C97.4338 48.7719 97.3804 48.7517 97.3403 48.7113C97.2668 48.6373 97.2668 48.5096 97.3403 48.4356L100.669 45.0366L102.586 43.1063C102.66 43.0323 102.787 43.0323 102.86 43.1063C102.934 43.1803 102.934 43.308 102.86 43.382L97.6142 48.7113C97.5741 48.7517 97.5273 48.7719 97.4806 48.7719Z" fill="#054375"/>
<path d="M79.2989 51.8231C79.2522 51.8231 79.1987 51.8029 79.1587 51.7626C79.0852 51.6886 79.0852 51.5608 79.1587 51.4868L87.4349 43.1063C87.5084 43.0323 87.6353 43.0323 87.7088 43.1063C87.7823 43.1803 87.7823 43.308 87.7088 43.382L79.4325 51.7626C79.3925 51.8029 79.3457 51.8231 79.2989 51.8231Z" fill="#054375"/>
<path d="M101.941 48.0475C101.894 48.0475 101.841 48.0273 101.801 47.987C101.727 47.913 101.727 47.7852 101.801 47.7112L106.374 43.1063C106.448 43.0323 106.574 43.0323 106.648 43.1063C106.721 43.1803 106.721 43.308 106.648 43.382L102.075 47.987C102.034 48.0273 101.988 48.0475 101.941 48.0475Z" fill="#054375"/>
<rect width="87.9604" height="60.4895" rx="8" transform="matrix(0.985447 -0.169984 0.167724 0.985834 56.4297 56.4766)" fill="#D7DEE5"/>
<rect x="1.15317" y="0.81585" width="86.6251" height="60.4417" rx="7" transform="matrix(0.985447 -0.169984 0.167724 0.985834 53.8799 58.6509)" fill="white" stroke="#054375" stroke-width="2"/>
<path d="M139.361 92.5872L69.333 104.805L70.113 109.338L140.141 97.1201L139.361 92.5872Z" fill="#7CDDFD"/>
<path d="M140.242 97.7045L70.2143 109.922C69.7499 110.003 69.328 109.81 69.2733 109.492L68.4933 104.959C68.4385 104.641 68.7714 104.317 69.2359 104.236L139.264 92.0184C139.728 91.9374 140.15 92.13 140.205 92.4481L140.985 96.9811C141.04 97.2992 140.707 97.6235 140.242 97.7045ZM70.112 108.601L139.845 96.6966L139.264 93.3168L69.5304 105.221L70.112 108.601Z" fill="#054375"/>
<rect width="18.1856" height="12.2024" rx="2" transform="matrix(0.98456 -0.175048 0.172726 0.98497 64.606 81.3242)" fill="#F5DA57"/>
</svg>
