<svg width="320" height="245" viewBox="0 0 320 245" fill="none" xmlns="http://www.w3.org/2000/svg">
<path opacity="0.3" d="M254.68 127.266C256.233 125.695 256.233 123.149 254.68 121.578L145.393 11.0581C143.685 9.33079 140.861 9.52924 139.406 11.4788L99.142 65.4178C97.9465 67.0192 98.101 69.2667 99.504 70.6855L149.71 121.458C151.264 123.029 151.264 125.576 149.71 127.147L93.1065 184.389C91.3991 186.116 91.5944 188.97 93.5206 190.443L146.963 231.293C148.546 232.504 150.77 232.348 152.174 230.929L254.68 127.266Z" fill="#1090F9"/>
<path opacity="0.3" d="M144.603 20.2413L253.889 130.761C255.054 131.939 255.054 133.849 253.889 135.027L151.383 238.69C150.33 239.754 148.663 239.871 147.475 238.963L94.0328 198.112C92.5882 197.008 92.4417 194.868 93.7222 193.573L150.326 136.33C152.268 134.367 152.268 131.183 150.326 129.219L100.12 78.4466C99.0674 77.3825 98.9516 75.6969 99.8482 74.4958L140.112 20.5569C141.204 19.0947 143.322 18.9458 144.603 20.2413Z" stroke="#05BDFB" stroke-width="2"/>
<path opacity="0.3" d="M196.26 24.7476C197.364 24.7476 198.26 25.643 198.26 26.7476L198.26 29.5007C198.26 30.3912 197.473 31.0762 196.591 30.9533V30.9533C195.866 30.8523 195.326 30.2325 195.326 29.5007L195.326 29.3118C195.326 28.411 194.596 27.6808 193.695 27.6808L193.506 27.6808C192.616 27.6808 191.931 26.8937 192.054 26.0117V26.0117C192.155 25.287 192.775 24.7476 193.506 24.7476L196.26 24.7476Z" fill="#1090F9"/>
<path opacity="0.3" d="M246.271 69.4514C246.823 70.408 246.496 71.6312 245.539 72.1835L241.455 74.5413C240.403 75.1485 239.058 74.686 238.602 73.5606L238.561 73.461C238.186 72.5361 238.55 71.4765 239.415 70.9775L239.929 70.6804C240.886 70.1281 241.214 68.9049 240.661 67.9483L240.357 67.4208C239.75 66.3692 240.212 65.0236 241.338 64.5674L241.437 64.527C242.362 64.1521 243.422 64.5162 243.921 65.3804L246.271 69.4514Z" fill="#1090F9"/>
<path opacity="0.3" d="M148.409 209.806C148.961 210.763 148.633 211.986 147.677 212.538L143.593 214.896C142.541 215.503 141.196 215.041 140.739 213.916L140.699 213.816C140.324 212.891 140.688 211.831 141.552 211.333L142.067 211.035C143.024 210.483 143.351 209.26 142.799 208.303L142.495 207.776C141.887 206.724 142.35 205.379 143.475 204.922L143.575 204.882C144.5 204.507 145.559 204.871 146.058 205.735L148.409 209.806Z" fill="#1090F9"/>
<path opacity="0.3" d="M244.742 166.722C243.961 165.941 243.961 164.674 244.742 163.893L252.143 156.492C253.024 155.611 254.488 155.741 255.199 156.764L255.93 157.814C256.483 158.609 256.387 159.686 255.702 160.37L253.247 162.825C252.466 163.607 252.466 164.873 253.247 165.654L254.701 167.108C255.542 167.949 255.468 169.334 254.541 170.08L252.371 171.826C251.575 172.466 250.425 172.404 249.703 171.682L244.742 166.722Z" fill="#1090F9"/>
<path d="M199.601 168.117L98.1706 168.117C90.2706 168.117 83.8706 160.755 83.8706 151.667L83.8706 98.5794C83.8706 89.4918 90.2706 82.1298 98.1706 82.1298L199.601 82.1298C207.501 82.1298 213.901 89.4918 213.901 98.5794L213.901 151.667C213.901 160.755 207.501 168.117 199.601 168.117Z" fill="#7CDDFD"/>
<path d="M214.77 98.4646L214.77 151.782C214.77 161.341 208.01 169.118 199.7 169.118L98.0705 169.118C89.7605 169.118 83.0005 161.341 83.0005 151.782L83.0005 98.4646C83.0005 88.9054 89.7605 81.1292 98.0705 81.1292L199.7 81.1292C208.01 81.1292 214.77 88.9054 214.77 98.4646ZM84.7305 151.782C84.7305 160.237 90.7105 167.116 98.0605 167.116L199.69 167.116C207.04 167.116 213.02 160.237 213.02 151.782L213.02 98.4646C213.02 90.0097 207.04 83.1307 199.69 83.1307L98.0705 83.1307C90.7205 83.1307 84.7405 90.0097 84.7405 98.4646L84.7405 151.782L84.7305 151.782Z" fill="#054375"/>
<path d="M97.6904 82.1183L97.6904 168.117L195.75 168.117L195.75 82.1183L97.6904 82.1183Z" fill="white"/>
<path d="M196.62 82.1297L196.62 168.128C196.62 168.68 196.23 169.129 195.75 169.129L97.6903 169.129C97.2103 169.129 96.8203 168.68 96.8203 168.128L96.8203 82.1297C96.8203 81.5775 97.2103 81.1289 97.6903 81.1289L195.75 81.1289C196.23 81.1289 196.62 81.566 196.62 82.1297ZM194.88 167.116L194.88 83.1189L98.5603 83.1189L98.5603 167.116L194.88 167.116Z" fill="#054375"/>
<path d="M203.671 116.501L203.671 131.996C203.671 132.548 203.281 132.997 202.801 132.997C202.321 132.997 201.931 132.548 201.931 131.996L201.931 116.501C201.931 115.949 202.321 115.501 202.801 115.501C203.281 115.501 203.671 115.949 203.671 116.501Z" fill="#054375"/>
<path d="M151.863 122.129V137.735C151.863 140.182 153.127 141.476 155.519 141.476C156.761 141.476 158.342 141.217 159.998 140.745L161 147.703C158.921 148.56 155.269 149.129 153.055 149.129C146.289 149.129 143 145.823 143 139.023V122.129H151.863Z" fill="#054375"/>
<path d="M142 119.129H161L159.794 110.017H150.657V99.1289L142 100.399V119.129Z" fill="url(#paint0_linear_469_44797)"/>
<g opacity="0.1294">
<path d="M181.314 88.7796C178.764 88.7096 176.214 88.5896 173.664 88.6196C166.804 88.5496 159.934 88.5596 153.064 88.6496C147.664 88.6896 142.264 88.9096 136.864 88.5496C130.244 88.3496 123.624 87.9496 116.994 88.2196C116.064 88.2396 115.134 88.2296 114.204 88.1896C113.644 88.1496 113.044 88.0696 112.534 88.3596C110.004 89.3296 110.794 93.2496 113.514 93.2196C116.744 93.4496 119.994 93.1996 123.224 93.2696C127.084 93.2496 130.934 93.5696 134.794 93.6496C149.194 93.7396 163.604 93.7996 178.004 93.5396C179.914 93.5696 181.834 93.5296 183.744 93.4896C185.324 93.6696 186.934 92.9196 186.954 91.1396C186.754 88.0696 183.454 88.8896 181.314 88.7796Z" fill="#054375"/>
</g>
<path d="M209.641 105.009C191.541 105.009 176.871 120.249 176.871 139.049C176.871 146.829 179.391 153.989 183.611 159.719L179.601 176.189L193.351 168.579C198.151 171.439 203.711 173.089 209.641 173.089C227.741 173.089 242.411 157.849 242.411 139.049C242.411 120.249 227.741 105.009 209.641 105.009Z" fill="white"/>
<path d="M179.6 177.059C179.41 177.059 179.23 176.999 179.07 176.879C178.8 176.669 178.67 176.319 178.75 175.979L182.67 159.899C178.31 153.829 176 146.629 176 139.039C176 119.789 191.09 104.129 209.64 104.129C228.19 104.129 243.28 119.789 243.28 139.039C243.28 158.289 228.19 173.949 209.64 173.949C203.94 173.949 198.31 172.439 193.33 169.569L180.01 176.939C179.89 177.029 179.74 177.059 179.6 177.059ZM209.64 105.879C192.05 105.879 177.74 120.759 177.74 139.049C177.74 146.399 180.01 153.369 184.31 159.199C184.46 159.409 184.521 159.669 184.451 159.919L180.91 174.459L192.92 167.809C193.19 167.659 193.52 167.659 193.79 167.819C198.6 170.689 204.08 172.209 209.64 172.209C227.23 172.209 241.54 157.329 241.54 139.039C241.54 120.749 227.23 105.879 209.64 105.879Z" fill="#054375"/>
<path d="M102.602 152.89C102.522 152.89 102.452 152.86 102.392 152.8C102.282 152.68 102.282 152.5 102.402 152.39L126.632 129.21C126.752 129.1 126.932 129.1 127.042 129.22C127.152 129.34 127.152 129.52 127.032 129.63L102.802 152.81C102.742 152.86 102.672 152.89 102.602 152.89Z" fill="#054375"/>
<path d="M102.292 162.12C102.222 162.12 102.142 162.09 102.092 162.04C101.972 161.93 101.972 161.75 102.082 161.63C110.212 153.17 118.592 144.71 126.982 136.47C127.102 136.36 127.282 136.36 127.392 136.47C127.502 136.58 127.502 136.77 127.392 136.88C119.012 145.11 110.632 153.57 102.502 162.03C102.452 162.09 102.372 162.12 102.292 162.12Z" fill="#054375"/>
<path d="M110.352 161.961C110.282 161.961 110.202 161.931 110.152 161.881C110.042 161.771 110.042 161.581 110.152 161.471L128.442 142.931C128.552 142.821 128.742 142.811 128.852 142.931C128.962 143.041 128.972 143.231 128.852 143.341L110.562 161.881C110.502 161.931 110.422 161.961 110.352 161.961Z" fill="#054375"/>
<path d="M118.672 162.361C118.602 162.361 118.532 162.331 118.472 162.281C118.352 162.171 118.352 161.991 118.462 161.871C122.422 157.751 126.322 153.461 130.032 149.111C130.132 148.991 130.322 148.971 130.442 149.081C130.562 149.181 130.582 149.371 130.472 149.491C126.752 153.851 122.852 158.151 118.882 162.281C118.832 162.331 118.752 162.361 118.672 162.361Z" fill="#054375"/>
<path d="M127.072 162.09C127.002 162.09 126.932 162.07 126.882 162.02C126.762 161.91 126.752 161.73 126.852 161.61L131.692 156.03C131.802 155.91 131.982 155.9 132.102 156C132.222 156.11 132.232 156.29 132.132 156.41L127.292 161.99C127.232 162.06 127.152 162.09 127.072 162.09Z" fill="#054375"/>
<g opacity="0.1294">
<path d="M184.999 170.619C184.609 170.499 184.229 170.549 183.849 170.639C183.709 170.649 183.559 170.649 183.419 170.649C181.779 170.359 180.679 170.349 177.349 169.139C177.269 169.109 177.199 169.079 177.119 169.049C176.979 168.979 176.379 168.689 176.129 168.579C175.019 168.069 173.849 167.719 172.679 167.339C171.719 167.049 170.829 166.489 169.799 166.439C169.349 166.469 168.869 166.559 168.499 166.819C168.189 166.999 167.869 167.159 167.549 167.319C165.109 168.469 162.699 169.699 160.349 171.019C159.369 171.589 158.359 172.089 157.319 172.529C156.839 172.759 156.269 172.889 155.979 173.369C154.859 174.689 156.269 176.789 157.929 176.279C161.959 174.639 165.769 172.519 169.709 170.679C172.149 171.829 174.829 172.299 177.319 173.339C179.409 173.959 181.589 174.839 183.799 174.479C183.629 174.499 183.449 174.529 183.279 174.549C184.009 174.539 184.819 174.659 185.479 174.269C186.989 173.419 186.689 171.059 184.999 170.619Z" fill="#054375"/>
</g>
<path d="M173.991 177.78C172.178 177.71 170.365 177.59 168.552 177.62C163.675 177.55 158.79 177.56 153.906 177.65C150.067 177.69 146.228 177.91 142.389 177.55C137.682 177.35 132.976 176.95 128.262 177.22C127.601 177.24 126.94 177.23 126.278 177.19C125.88 177.15 125.454 177.07 125.091 177.36C123.292 178.33 123.854 182.25 125.788 182.22C128.084 182.45 130.395 182.2 132.691 182.27C135.435 182.25 138.173 182.57 140.917 182.65C151.155 182.74 161.4 182.8 171.637 182.54C172.995 182.57 174.36 182.53 175.718 182.49C176.842 182.67 177.986 181.92 178 180.14C177.858 177.07 175.512 177.89 173.991 177.78Z" fill="#054375"/>
<path d="M149.651 168.02C149.581 168.423 149.461 168.826 149.491 169.229C149.421 170.312 149.431 171.398 149.521 172.483C149.561 173.336 149.781 174.19 149.421 175.043C149.221 176.089 148.821 177.134 149.091 178.182C149.111 178.329 149.101 178.476 149.061 178.623C149.021 178.711 148.941 178.806 149.231 178.887C150.201 179.286 154.121 179.161 154.091 178.732C154.321 178.221 154.071 177.708 154.141 177.198C154.121 176.588 154.441 175.98 154.521 175.37C154.611 173.095 154.671 170.818 154.411 168.543C154.441 168.241 154.401 167.938 154.361 167.636C154.541 167.386 153.791 167.132 152.011 167.129C148.941 167.161 149.761 167.682 149.651 168.02Z" fill="#054375"/>
<path d="M206.531 126.65C209.528 125.973 212.664 126.283 215.471 127.534C216.27 127.89 217.206 127.531 217.562 126.732C217.918 125.933 217.559 124.997 216.76 124.641C213.33 123.113 209.497 122.734 205.833 123.562C202.17 124.389 198.872 126.379 196.432 129.234C193.992 132.089 192.54 135.656 192.293 139.404C192.046 143.152 193.016 146.879 195.061 150.029C197.105 153.18 200.113 155.586 203.636 156.887C207.159 158.189 211.008 158.317 214.61 157.252C218.211 156.187 221.372 153.986 223.621 150.978C225.87 147.97 227.086 144.316 227.088 140.56V139.102C227.088 138.228 226.379 137.519 225.505 137.519C224.63 137.519 223.922 138.228 223.922 139.102V140.558C223.92 143.631 222.925 146.621 221.085 149.082C219.245 151.543 216.659 153.344 213.712 154.215C210.765 155.086 207.616 154.982 204.733 153.917C201.851 152.852 199.39 150.884 197.717 148.306C196.045 145.728 195.25 142.679 195.452 139.612C195.655 136.546 196.843 133.627 198.839 131.291C200.836 128.956 203.534 127.328 206.531 126.65Z" fill="#26A94D"/>
<path d="M226.625 129.011C227.243 128.393 227.243 127.39 226.624 126.772C226.005 126.154 225.003 126.155 224.385 126.773L209.671 141.502L206.041 137.872C205.423 137.254 204.42 137.254 203.802 137.872C203.184 138.49 203.184 139.493 203.802 140.111L208.552 144.861C208.849 145.158 209.252 145.325 209.672 145.325C210.092 145.325 210.495 145.158 210.792 144.861L226.625 129.011Z" fill="#26A94D"/>
<defs>
<linearGradient id="paint0_linear_469_44797" x1="142.302" y1="119.447" x2="156.839" y2="105.637" gradientUnits="userSpaceOnUse">
<stop stop-color="#8CD133"/>
<stop offset="1" stop-color="#05BDFB"/>
</linearGradient>
</defs>
</svg>
