<svg width="320" height="248" viewBox="0 0 320 248" fill="none" xmlns="http://www.w3.org/2000/svg">
<path opacity="0.3" d="M254.678 129.137C256.231 127.566 256.231 125.02 254.678 123.449L145.392 12.9292C143.684 11.2019 140.86 11.4004 139.405 13.35L99.1405 67.2889C97.945 68.8903 98.0995 71.1378 99.5025 72.5566L149.709 123.329C151.262 124.9 151.262 127.447 149.709 129.018L93.105 186.261C91.3977 187.987 91.593 190.841 93.5191 192.314L146.961 233.164C148.545 234.375 150.769 234.219 152.172 232.8L254.678 129.137Z" fill="#1090F9"/>
<path opacity="0.3" d="M253.889 132.632C255.054 133.811 255.054 135.721 253.889 136.899L151.383 240.561C150.33 241.626 148.663 241.743 147.475 240.835L94.0328 199.984C92.5882 198.88 92.4417 196.739 93.7222 195.444L150.326 138.202C152.268 136.238 152.268 133.055 150.326 131.091L100.12 80.3182C99.0674 79.2541 98.9516 77.5685 99.8482 76.3674L140.112 22.4285C141.204 20.9663 143.322 20.8174 144.603 22.1129L253.889 132.632Z" stroke="#05BDFB" stroke-width="2"/>
<path opacity="0.3" d="M196.259 26.6182C197.363 26.6182 198.259 27.5136 198.259 28.6182L198.259 31.3713C198.259 32.2618 197.472 32.9468 196.59 32.8239C195.865 32.7229 195.325 32.1031 195.325 31.3713L195.325 31.1824C195.325 30.2816 194.595 29.5514 193.694 29.5514L193.505 29.5514C192.615 29.5514 191.93 28.7643 192.053 27.8823C192.154 27.1576 192.774 26.6182 193.505 26.6182L196.259 26.6182Z" fill="#1090F9"/>
<path opacity="0.3" d="M246.27 71.322C246.823 72.2786 246.495 73.5018 245.538 74.0541L241.455 76.4119C240.403 77.0191 239.057 76.5566 238.601 75.4312L238.561 75.3316C238.186 74.4067 238.55 73.3471 239.414 72.8481L239.929 72.551C240.885 71.9987 241.213 70.7755 240.661 69.819L240.356 69.2915C239.749 68.2398 240.212 66.8942 241.337 66.438L241.437 66.3976C242.361 66.0227 243.421 66.3868 243.92 67.2511L246.27 71.322Z" fill="#1090F9"/>
<path opacity="0.3" d="M148.407 211.678C148.959 212.634 148.632 213.857 147.675 214.41L143.591 216.767C142.54 217.375 141.194 216.912 140.738 215.787L140.697 215.687C140.323 214.762 140.687 213.703 141.551 213.204L142.066 212.906C143.022 212.354 143.35 211.131 142.798 210.174L142.493 209.647C141.886 208.595 142.348 207.25 143.474 206.793L143.573 206.753C144.498 206.378 145.558 206.742 146.057 207.607L148.407 211.678Z" fill="#1090F9"/>
<path opacity="0.3" d="M244.74 168.593C243.959 167.812 243.959 166.545 244.74 165.764L252.141 158.363C253.022 157.482 254.486 157.612 255.197 158.635L255.928 159.685C256.481 160.48 256.385 161.557 255.7 162.241L253.245 164.697C252.464 165.478 252.464 166.744 253.245 167.525L254.699 168.979C255.54 169.82 255.466 171.205 254.539 171.951L252.369 173.697C251.573 174.337 250.423 174.275 249.701 173.553L244.74 168.593Z" fill="#1090F9"/>
<path d="M69.8516 165.789V67.6744C69.8516 60.0326 76.0424 53.8418 83.6842 53.8418H128.326C135.968 53.8418 142.159 60.0326 142.159 67.6744V165.789C142.159 173.431 135.968 179.622 128.326 179.622H83.6842C76.0424 179.622 69.8516 173.431 69.8516 165.789Z" fill="#7CDDFD"/>
<path d="M128.422 180.463H83.5872C75.5488 180.463 69.0098 173.924 69.0098 165.886V67.5775C69.0098 59.5391 75.5488 53 83.5872 53H128.422C136.461 53 143 59.5391 143 67.5775V165.886C143 173.924 136.461 180.463 128.422 180.463ZM83.5872 54.6735C76.4775 54.6735 70.6929 60.458 70.6929 67.5678V165.876C70.6929 172.986 76.4775 178.771 83.5872 178.771H128.422C135.532 178.771 141.317 172.986 141.317 165.876V67.5775C141.317 60.4677 135.532 54.6831 128.422 54.6831H83.5872V54.6735Z" fill="#054375"/>
<path d="M142.168 67.21H69.8516V162.065H142.168V67.21Z" fill="white"/>
<path d="M142.158 162.906H69.8416C69.3772 162.906 69 162.529 69 162.065V67.2097C69 66.7454 69.3772 66.3682 69.8416 66.3682H142.158C142.623 66.3682 143 66.7454 143 67.2097V162.065C143 162.529 142.632 162.906 142.158 162.906ZM70.6928 161.223H141.326V68.0513H70.6928V161.223Z" fill="#054375"/>
<path d="M113.254 169.726H100.224C99.7601 169.726 99.3828 169.349 99.3828 168.885C99.3828 168.42 99.7601 168.043 100.224 168.043H113.254C113.718 168.043 114.096 168.42 114.096 168.885C114.096 169.349 113.718 169.726 113.254 169.726Z" fill="#054375"/>
<g opacity="0.1294">
<path d="M137.322 67.3843C134.856 67.3166 132.389 67.2005 129.923 67.2295C123.287 67.1618 116.641 67.1715 109.996 67.2585C104.772 67.2972 99.5487 67.51 94.3252 67.1618C87.9216 66.9683 81.5179 66.5814 75.1046 66.8426C74.205 66.8619 73.3054 66.8522 72.4058 66.8136C71.8641 66.7749 71.2837 66.6975 70.7904 66.978C68.3431 67.9163 69.1073 71.7082 71.7384 71.6792C74.8628 71.9016 78.0066 71.6598 81.131 71.7275C84.8649 71.7082 88.5891 72.0177 92.3229 72.0951C106.252 72.1822 120.191 72.2402 134.121 71.9887C135.968 72.0177 137.825 71.979 139.673 71.9403C141.201 72.1145 142.759 71.389 142.778 69.6671C142.585 66.6975 139.393 67.4907 137.322 67.3843Z" fill="#054375"/>
</g>
<path d="M109.909 156.495C109.841 156.495 109.764 156.466 109.715 156.418C109.599 156.311 109.599 156.137 109.706 156.021C117.57 147.838 125.676 139.654 133.792 131.683C133.908 131.577 134.082 131.577 134.188 131.683C134.295 131.79 134.295 131.974 134.188 132.08C126.082 140.041 117.976 148.224 110.112 156.408C110.064 156.466 109.986 156.495 109.909 156.495Z" fill="#054375"/>
<path d="M117.705 156.34C117.637 156.34 117.56 156.311 117.511 156.263C117.405 156.156 117.405 155.973 117.511 155.866L135.204 137.932C135.31 137.826 135.494 137.816 135.6 137.932C135.707 138.039 135.716 138.222 135.6 138.329L117.908 156.263C117.85 156.311 117.773 156.34 117.705 156.34Z" fill="#054375"/>
<path d="M125.754 156.726C125.687 156.726 125.619 156.697 125.561 156.649C125.445 156.543 125.445 156.369 125.551 156.252C129.382 152.267 133.154 148.117 136.743 143.909C136.84 143.793 137.024 143.774 137.14 143.88C137.256 143.977 137.275 144.161 137.169 144.277C133.57 148.495 129.798 152.654 125.958 156.649C125.909 156.697 125.832 156.726 125.754 156.726Z" fill="#054375"/>
<path d="M133.878 156.466C133.811 156.466 133.743 156.446 133.695 156.398C133.579 156.292 133.569 156.117 133.666 156.001L138.347 150.604C138.454 150.488 138.628 150.478 138.744 150.575C138.86 150.681 138.87 150.855 138.773 150.971L134.091 156.369C134.033 156.437 133.956 156.466 133.878 156.466Z" fill="#054375"/>
<path d="M161.852 165.789V67.6744C161.852 60.0326 168.042 53.8418 175.684 53.8418H220.326C227.968 53.8418 234.159 60.0326 234.159 67.6744V165.789C234.159 173.431 227.968 179.622 220.326 179.622H175.684C168.042 179.622 161.852 173.431 161.852 165.789Z" fill="#7CDDFD"/>
<path d="M220.422 180.463H175.587C167.549 180.463 161.01 173.924 161.01 165.886V67.5775C161.01 59.5391 167.549 53 175.587 53H220.422C228.461 53 235 59.5391 235 67.5775V165.886C235 173.924 228.461 180.463 220.422 180.463ZM175.587 54.6735C168.477 54.6735 162.693 60.458 162.693 67.5678V165.876C162.693 172.986 168.477 178.771 175.587 178.771H220.422C227.532 178.771 233.317 172.986 233.317 165.876V67.5775C233.317 60.4677 227.532 54.6831 220.422 54.6831H175.587V54.6735Z" fill="#054375"/>
<path d="M234.168 67.21H161.852V162.065H234.168V67.21Z" fill="white"/>
<path d="M234.158 162.906H161.842C161.377 162.906 161 162.529 161 162.065V67.2097C161 66.7454 161.377 66.3682 161.842 66.3682H234.158C234.623 66.3682 235 66.7454 235 67.2097V162.065C235 162.529 234.632 162.906 234.158 162.906ZM162.693 161.223H233.326V68.0513H162.693V161.223Z" fill="#054375"/>
<path d="M205.254 169.726H192.224C191.76 169.726 191.383 169.349 191.383 168.885C191.383 168.42 191.76 168.043 192.224 168.043H205.254C205.718 168.043 206.096 168.42 206.096 168.885C206.096 169.349 205.718 169.726 205.254 169.726Z" fill="#054375"/>
<g opacity="0.1294">
<path d="M229.322 67.3843C226.856 67.3166 224.389 67.2005 221.923 67.2295C215.287 67.1618 208.641 67.1715 201.996 67.2585C196.772 67.2972 191.549 67.51 186.325 67.1618C179.922 66.9683 173.518 66.5814 167.105 66.8426C166.205 66.8619 165.305 66.8522 164.406 66.8136C163.864 66.7749 163.284 66.6975 162.79 66.978C160.343 67.9163 161.107 71.7082 163.738 71.6792C166.863 71.9016 170.007 71.6598 173.131 71.7275C176.865 71.7082 180.589 72.0177 184.323 72.0951C198.252 72.1822 212.191 72.2402 226.121 71.9887C227.968 72.0177 229.825 71.979 231.673 71.9403C233.201 72.1145 234.759 71.389 234.778 69.6671C234.585 66.6975 231.393 67.4907 229.322 67.3843Z" fill="#054375"/>
</g>
<path d="M201.909 156.495C201.841 156.495 201.764 156.466 201.715 156.418C201.599 156.311 201.599 156.137 201.706 156.021C209.57 147.838 217.676 139.654 225.792 131.683C225.908 131.577 226.082 131.577 226.188 131.683C226.295 131.79 226.295 131.974 226.188 132.08C218.082 140.041 209.976 148.224 202.112 156.408C202.064 156.466 201.986 156.495 201.909 156.495Z" fill="#054375"/>
<path d="M209.705 156.34C209.637 156.34 209.56 156.311 209.511 156.263C209.405 156.156 209.405 155.973 209.511 155.866L227.204 137.932C227.31 137.826 227.494 137.816 227.6 137.932C227.707 138.039 227.716 138.222 227.6 138.329L209.908 156.263C209.85 156.311 209.773 156.34 209.705 156.34Z" fill="#054375"/>
<path d="M217.754 156.726C217.687 156.726 217.619 156.697 217.561 156.649C217.445 156.543 217.445 156.369 217.551 156.252C221.382 152.267 225.154 148.117 228.743 143.909C228.84 143.793 229.024 143.774 229.14 143.88C229.256 143.977 229.275 144.161 229.169 144.277C225.57 148.495 221.798 152.654 217.958 156.649C217.909 156.697 217.832 156.726 217.754 156.726Z" fill="#054375"/>
<path d="M225.878 156.466C225.811 156.466 225.743 156.446 225.695 156.398C225.579 156.292 225.569 156.117 225.666 156.001L230.347 150.604C230.454 150.488 230.628 150.478 230.744 150.575C230.86 150.681 230.87 150.855 230.773 150.971L226.091 156.369C226.033 156.437 225.956 156.466 225.878 156.466Z" fill="#054375"/>
<path d="M117 102.086C118.667 99.5859 124.1 94.1859 132.5 92.5859" stroke="#054375" stroke-width="2"/>
<path d="M169.999 93.8359C172.998 94.0293 180.391 96.0347 185.977 102.509" stroke="#054375" stroke-width="2"/>
<circle cx="108" cy="118.663" r="17" fill="#F7E06E"/>
<ellipse cx="152" cy="94.0859" rx="17" ry="14" fill="#F7E06E"/>
<circle cx="200" cy="118.086" r="17" fill="#F7E06E"/>
<circle cx="105.062" cy="117.148" r="16.0624" fill="#F9EC76" stroke="#054375" stroke-width="2"/>
<path fill-rule="evenodd" clip-rule="evenodd" d="M103.926 124.757V126.557C103.926 126.841 104.156 127.072 104.44 127.072H104.955C105.239 127.072 105.469 126.841 105.469 126.557V124.749C106.277 124.726 107.299 124.63 108.211 124.247C108.849 123.979 109.463 123.559 109.914 122.904C110.366 122.247 110.612 121.412 110.612 120.386C110.612 119.36 110.366 118.525 109.914 117.867C109.463 117.212 108.849 116.793 108.211 116.525C107.299 116.142 106.277 116.046 105.469 116.022V110.357L109.326 110.357C109.61 110.357 109.84 110.127 109.84 109.843L109.84 109.329C109.84 109.045 109.61 108.814 109.326 108.814L105.469 108.814V107.014C105.469 106.73 105.239 106.5 104.955 106.5H104.44C104.156 106.5 103.926 106.73 103.926 107.014V108.828C103.082 108.86 102.104 108.963 101.24 109.302C100.586 109.558 99.9576 109.962 99.4964 110.601C99.0322 111.244 98.7832 112.061 98.7832 113.062C98.7832 114.063 99.0323 114.887 99.4792 115.544C99.9233 116.197 100.528 116.635 101.159 116.927C102.076 117.352 103.102 117.493 103.926 117.538V123.214H100.069C99.7849 123.214 99.5546 123.445 99.5546 123.729V124.243C99.5546 124.527 99.7849 124.757 100.069 124.757H103.926ZM105.469 123.205C106.182 123.181 106.956 123.101 107.613 122.825C108.047 122.643 108.397 122.387 108.642 122.03C108.887 121.675 109.069 121.16 109.069 120.386C109.069 119.612 108.887 119.097 108.642 118.742C108.397 118.384 108.047 118.129 107.613 117.947C106.956 117.671 106.182 117.59 105.469 117.567V123.205ZM103.926 115.992V110.373C103.188 110.403 102.437 110.49 101.802 110.739C101.347 110.917 100.992 111.165 100.747 111.504C100.506 111.838 100.326 112.324 100.326 113.062C100.326 113.798 100.506 114.309 100.755 114.676C101.007 115.047 101.367 115.323 101.808 115.527C102.459 115.829 103.23 115.949 103.926 115.992Z" fill="#054375"/>
<path d="M167.125 93.1483C167.125 96.3789 165.417 99.3727 162.519 101.591C159.621 103.81 155.574 105.211 151.062 105.211C146.551 105.211 142.504 103.81 139.605 101.591C136.708 99.3727 135 96.3789 135 93.1483C135 89.9178 136.708 86.924 139.605 84.7059C142.504 82.487 146.551 81.0859 151.062 81.0859C155.574 81.0859 159.621 82.487 162.519 84.7059C165.417 86.924 167.125 89.9178 167.125 93.1483Z" fill="#F9EC76" stroke="#054375" stroke-width="2"/>
<path fill-rule="evenodd" clip-rule="evenodd" d="M149.926 98.9733V100.351C149.926 100.569 150.156 100.745 150.44 100.745H150.955C151.239 100.745 151.469 100.569 151.469 100.351V98.9673C152.277 98.949 153.299 98.8757 154.211 98.5827C154.849 98.3776 155.463 98.0562 155.914 97.5547C156.366 97.0514 156.612 96.4124 156.612 95.6267C156.612 94.841 156.366 94.2019 155.914 93.6986C155.463 93.1971 154.849 92.8757 154.211 92.6706C153.299 92.3776 152.277 92.3043 151.469 92.286V87.949L155.326 87.949C155.61 87.949 155.84 87.7728 155.84 87.5553L155.84 87.1616C155.84 86.9441 155.61 86.7679 155.326 86.7679L151.469 86.7679V85.3898C151.469 85.1724 151.239 84.9961 150.955 84.9961H150.44C150.156 84.9961 149.926 85.1724 149.926 85.3898V86.7785C149.082 86.8027 148.104 86.882 147.24 87.1412C146.586 87.3372 145.958 87.6464 145.496 88.1353C145.032 88.6276 144.783 89.2534 144.783 90.0195C144.783 90.7862 145.032 91.4165 145.479 91.9197C145.923 92.4196 146.528 92.7548 147.159 92.9788C148.076 93.3042 149.102 93.4123 149.926 93.4464V97.7921H146.069C145.785 97.7921 145.555 97.9684 145.555 98.1859V98.5796C145.555 98.797 145.785 98.9733 146.069 98.9733H149.926ZM151.469 97.7848C152.182 97.7668 152.956 97.7049 153.613 97.4937C154.047 97.3544 154.397 97.1589 154.642 96.8853C154.887 96.6135 155.069 96.219 155.069 95.6267C155.069 95.0343 154.887 94.6398 154.642 94.368C154.397 94.0944 154.047 93.899 153.613 93.7596C152.956 93.5484 152.182 93.4866 151.469 93.4685V97.7848ZM149.926 92.263V87.9613C149.188 87.9843 148.437 88.0506 147.802 88.241C147.347 88.3776 146.992 88.5674 146.747 88.8268C146.506 89.083 146.326 89.455 146.326 90.0195C146.326 90.5833 146.506 90.9746 146.755 91.2555C147.007 91.5397 147.367 91.7509 147.808 91.9071C148.459 92.1384 149.23 92.2298 149.926 92.263Z" fill="#054375"/>
<circle cx="197.062" cy="117.148" r="16.0624" fill="#F9EC76" stroke="#054375" stroke-width="2"/>
<path fill-rule="evenodd" clip-rule="evenodd" d="M195.926 124.757V126.557C195.926 126.841 196.156 127.072 196.44 127.072H196.955C197.239 127.072 197.469 126.841 197.469 126.557V124.749C198.277 124.726 199.299 124.63 200.211 124.247C200.849 123.979 201.463 123.559 201.914 122.904C202.366 122.247 202.612 121.412 202.612 120.386C202.612 119.36 202.366 118.525 201.914 117.867C201.463 117.212 200.849 116.793 200.211 116.525C199.299 116.142 198.277 116.046 197.469 116.022V110.357L201.326 110.357C201.61 110.357 201.84 110.127 201.84 109.843L201.84 109.329C201.84 109.045 201.61 108.814 201.326 108.814L197.469 108.814V107.014C197.469 106.73 197.239 106.5 196.955 106.5H196.44C196.156 106.5 195.926 106.73 195.926 107.014V108.828C195.082 108.86 194.104 108.963 193.24 109.302C192.586 109.558 191.958 109.962 191.496 110.601C191.032 111.244 190.783 112.061 190.783 113.062C190.783 114.063 191.032 114.887 191.479 115.544C191.923 116.197 192.528 116.635 193.159 116.927C194.076 117.352 195.102 117.493 195.926 117.538V123.214H192.069C191.785 123.214 191.555 123.445 191.555 123.729V124.243C191.555 124.527 191.785 124.757 192.069 124.757H195.926ZM197.469 123.205C198.182 123.181 198.956 123.101 199.613 122.825C200.047 122.643 200.397 122.387 200.642 122.03C200.887 121.675 201.069 121.16 201.069 120.386C201.069 119.612 200.887 119.097 200.642 118.742C200.397 118.384 200.047 118.129 199.613 117.947C198.956 117.671 198.182 117.59 197.469 117.567V123.205ZM195.926 115.992V110.373C195.188 110.403 194.437 110.49 193.802 110.739C193.347 110.917 192.992 111.165 192.747 111.504C192.506 111.838 192.326 112.324 192.326 113.062C192.326 113.798 192.506 114.309 192.755 114.676C193.007 115.047 193.367 115.323 193.808 115.527C194.459 115.829 195.23 115.949 195.926 115.992Z" fill="#054375"/>
<circle cx="197.062" cy="117.148" r="16.0624" fill="#F9EC76" stroke="#054375" stroke-width="2"/>
<path fill-rule="evenodd" clip-rule="evenodd" d="M195.926 124.757V126.557C195.926 126.841 196.156 127.072 196.44 127.072H196.955C197.239 127.072 197.469 126.841 197.469 126.557V124.749C198.277 124.726 199.299 124.63 200.211 124.247C200.849 123.979 201.463 123.559 201.914 122.904C202.366 122.247 202.612 121.412 202.612 120.386C202.612 119.36 202.366 118.525 201.914 117.867C201.463 117.212 200.849 116.793 200.211 116.525C199.299 116.142 198.277 116.046 197.469 116.022V110.357L201.326 110.357C201.61 110.357 201.84 110.127 201.84 109.843L201.84 109.329C201.84 109.045 201.61 108.814 201.326 108.814L197.469 108.814V107.014C197.469 106.73 197.239 106.5 196.955 106.5H196.44C196.156 106.5 195.926 106.73 195.926 107.014V108.828C195.082 108.86 194.104 108.963 193.24 109.302C192.586 109.558 191.958 109.962 191.496 110.601C191.032 111.244 190.783 112.061 190.783 113.062C190.783 114.063 191.032 114.887 191.479 115.544C191.923 116.197 192.528 116.635 193.159 116.927C194.076 117.352 195.102 117.493 195.926 117.538V123.214H192.069C191.785 123.214 191.555 123.445 191.555 123.729V124.243C191.555 124.527 191.785 124.757 192.069 124.757H195.926ZM197.469 123.205C198.182 123.181 198.956 123.101 199.613 122.825C200.047 122.643 200.397 122.387 200.642 122.03C200.887 121.675 201.069 121.16 201.069 120.386C201.069 119.612 200.887 119.097 200.642 118.742C200.397 118.384 200.047 118.129 199.613 117.947C198.956 117.671 198.182 117.59 197.469 117.567V123.205ZM195.926 115.992V110.373C195.188 110.403 194.437 110.49 193.802 110.739C193.347 110.917 192.992 111.165 192.747 111.504C192.506 111.838 192.326 112.324 192.326 113.062C192.326 113.798 192.506 114.309 192.755 114.676C193.007 115.047 193.367 115.323 193.808 115.527C194.459 115.829 195.23 115.949 195.926 115.992Z" fill="#054375"/>
</svg>
