<svg width="252" height="240" viewBox="0 0 252 240" fill="none" xmlns="http://www.w3.org/2000/svg">
<path opacity="0.3" d="M225.288 125.099C226.842 123.528 226.842 120.982 225.288 119.412L117.806 10.8023C116.097 9.0757 113.273 9.27407 111.817 11.2229L72.2592 64.1738C71.0633 65.7747 71.2178 68.0212 72.6213 69.4395L121.959 119.295C123.513 120.865 123.513 123.411 121.959 124.981L66.3363 181.188C64.6283 182.913 64.8237 185.767 66.7506 187.238L119.255 227.341C120.839 228.551 123.064 228.395 124.468 226.977L225.288 125.099Z" fill="#1090F9"/>
<path opacity="0.3" d="M224.499 128.456C225.664 129.634 225.664 131.543 224.499 132.721L123.679 234.599C122.626 235.663 120.957 235.78 119.769 234.872L67.2646 194.77C65.8194 193.666 65.6729 191.526 66.9539 190.232L122.577 134.025C124.519 132.063 124.519 128.88 122.577 126.917L73.2389 77.0621C72.1862 75.9984 72.0704 74.3135 72.9673 73.1128L112.525 20.1619C113.617 18.7003 115.735 18.5515 117.017 19.8465L224.499 128.456Z" stroke="#05BDFB" stroke-width="2"/>
<path opacity="0.3" d="M167.795 24.215C168.899 24.215 169.795 25.1104 169.795 26.215L169.795 28.8891C169.795 29.7656 169.02 30.4399 168.152 30.319C167.439 30.2196 166.907 29.6095 166.907 28.8891L166.907 28.7055C166.907 27.8189 166.189 27.1001 165.302 27.1001L165.115 27.1001C164.239 27.1001 163.565 26.3258 163.686 25.4583C163.786 24.7455 164.395 24.215 165.115 24.215L167.795 24.215Z" fill="#1090F9"/>
<path opacity="0.3" d="M218.12 80.9464C218.673 81.9028 218.345 83.1255 217.388 83.6775L213.427 85.9626C212.375 86.5694 211.02 86.0855 210.564 84.9604C210.189 84.0358 210.546 82.9604 211.411 82.4618L211.866 82.199C212.823 81.6471 213.151 80.4243 212.598 79.4679L212.333 79.0092C211.725 77.9578 212.188 76.6127 213.313 76.1568L213.352 76.141C214.277 75.7663 215.337 76.1306 215.837 76.9947L218.12 80.9464Z" fill="#1090F9"/>
<path opacity="0.3" d="M130.399 206.212C130.951 207.169 130.624 208.391 129.667 208.943L125.706 211.228C124.654 211.835 123.299 211.351 122.843 210.226C122.468 209.302 122.825 208.226 123.69 207.728L124.145 207.465C125.102 206.913 125.429 205.69 124.877 204.734L124.612 204.275C124.004 203.224 124.467 201.879 125.592 201.423L125.631 201.407C126.556 201.032 127.616 201.396 128.115 202.261L130.399 206.212Z" fill="#1090F9"/>
<path opacity="0.3" d="M215.574 163.884C214.792 163.104 214.792 161.838 215.574 161.057L222.81 153.827C223.691 152.946 225.155 153.076 225.867 154.098L226.549 155.078C227.102 155.872 227.006 156.949 226.321 157.633L223.946 160.007C223.164 160.787 223.164 162.053 223.946 162.834L225.329 164.216C226.171 165.057 226.096 166.442 225.168 167.187L223.083 168.864C222.287 169.504 221.136 169.442 220.414 168.721L215.574 163.884Z" fill="#1090F9"/>
<path d="M199.171 114.569C199.171 116.775 199.081 118.935 198.901 121.073C198.394 127.273 197.179 133.181 195.345 138.739C193.578 139.549 191.654 139.898 189.899 140.72C186.681 142.205 183.35 143.78 181.088 146.515C178.095 150.138 177.42 155.28 174.303 158.791C172.683 160.625 170.443 161.953 169.284 164.102C168.26 165.992 168.227 168.243 168.058 170.403C167.9 172.462 167.529 174.657 166.156 176.187C154.398 183.681 140.276 187.889 125.085 187.889C84.1719 187.889 51 157.306 51 114.58C51 113.646 51.0113 112.713 51.045 111.79C51.7089 90.6355 59.9006 72.3279 73.1221 59.5003C73.876 60.468 75.35 60.693 76.5428 60.333C80.4248 59.1852 83.688 55.9558 87.2437 54.0429C89.4154 52.8727 91.6659 51.8374 93.9839 50.9485C95.8068 50.2509 98.0122 50.0933 99.6101 48.8781C100.229 48.4055 100.702 47.6853 100.668 46.9089C100.578 44.8047 97.2471 45.2211 95.6605 44.9623C100.612 43.0044 105.878 41.5978 111.391 40.7989C114.958 40.2813 118.638 40 122.407 40C126.829 40 131.195 40.3713 135.471 41.0915C143.37 42.4192 150.921 44.9285 157.897 48.4618C150.392 44.726 141.998 47.8879 134.11 50.7122C131.072 51.8037 128.078 52.9627 125.085 54.1554C123.364 54.8418 121.755 55.7758 120.281 56.8897C119.268 57.6662 117.895 58.105 116.702 58.2288C115.982 58.2963 115.24 58.2063 114.632 57.8012C113.225 56.8785 113.934 55.5845 113.653 54.4367C113.372 53.289 112.134 52.5914 110.941 52.5463C109.76 52.5013 108.623 52.9627 107.532 53.4128C103.976 54.8981 100.42 56.3834 96.8645 57.8687C95.4692 58.4538 93.7926 59.5115 94.1977 61.0193C94.4452 61.9308 95.3679 62.4709 96.3131 62.4259C97.9672 62.3584 99.1037 61.1769 100.375 60.2992C101.624 59.4215 103.177 58.7801 104.707 59.3427C105.439 59.6128 106.058 60.1979 106.271 60.9406C106.744 62.5609 105.337 63.8212 103.976 64.5301C101.534 65.8016 99.1487 64.6313 96.6057 65.6666C88.414 68.986 79.9072 72.5305 74.1235 79.2144C73.4259 80.0133 72.7507 80.9135 73.2684 82.2637C73.786 83.5915 75.2038 84.3342 76.6215 84.2104C79.4796 83.9516 81.19 81.5548 83.2829 79.8782C87.5701 76.435 94.0739 76.1087 98.6874 79.0793C102.097 81.2848 104.764 85.1556 108.803 85.5157C111.177 85.7295 114.024 84.7618 115.555 86.7984C116.68 88.2837 116.365 90.4329 114.969 91.6819C108.848 97.1506 100.285 94.5175 93.2525 91.5019C85.6347 88.2387 76.8578 84.548 69.6113 90.6692C68.2273 91.8395 67.0908 93.2798 66.2019 94.8551C62.8487 100.83 62.905 107.559 63.1413 114.119C63.2425 116.988 63.3888 119.925 64.4578 122.592C65.5268 125.259 67.6985 127.656 70.5115 128.218C74.6636 129.051 79.3446 125.878 82.9791 128.049C85.1846 129.366 85.9835 132.157 86.231 134.711C86.4673 137.265 86.3773 139.943 87.5251 142.25C88.6278 144.455 90.732 145.997 91.936 148.146C93.1512 150.307 93.3538 152.861 93.8601 155.291C95.548 163.325 101.14 170.448 108.544 174.004C109.861 176.074 113.687 175.287 115.431 173.554C117.175 171.821 117.681 169.233 117.963 166.791C118.244 164.349 118.401 161.795 119.684 159.691C121.147 157.294 124.016 155.606 124.354 152.805C124.669 150.205 122.621 147.932 122.16 145.367C121.552 142.025 123.701 138.75 126.312 136.567C128.922 134.385 132.051 132.865 134.526 130.525C135.494 129.614 136.36 128.5 136.979 127.284C138.262 124.775 136.18 121.849 133.378 122.187C130.97 122.48 128.574 122.367 126.492 121.219C124.039 119.858 122.509 117.303 121.338 114.76C119.673 111.103 118.503 107.221 117.895 103.249C117.648 101.629 119.729 100.706 120.731 102C122.295 104.014 123.6 106.22 124.624 108.549C126.211 112.184 127.448 116.572 133.029 116.302C134.785 116.212 136.473 115.616 137.969 114.693C141.131 112.735 145.508 110.98 146.296 106.738C146.622 104.948 145.857 103.081 144.248 102.259C140.839 100.526 137.868 105.432 134.177 101.955C133.243 101.089 132.602 99.9411 132.242 98.7146C131.398 95.8228 134.166 93.1897 137.013 94.1687L151.843 99.2773C155.399 100.504 159.101 101.832 161.599 104.633C165.02 108.47 165.335 114.052 166.528 119.059C166.966 120.859 167.878 122.963 170.027 122.705C170.815 122.603 171.512 122.153 171.996 121.534C174.213 118.733 174.247 115.053 175.406 111.779C176.666 108.223 180.312 104.701 184.216 107.559C185.195 108.279 185.938 109.269 186.456 110.361L190.135 118.024C191.08 120.015 194.163 118.946 193.612 116.808C193.612 116.786 193.612 116.763 193.601 116.752C193.083 114.862 192.003 113.106 191.879 111.148C191.71 108.414 193.432 105.984 194.782 103.609C195.896 101.652 196.785 99.221 196.223 97.1393L197.089 96.9255C198.473 102.54 199.204 108.437 199.204 114.558L199.171 114.569Z" fill="#CAECFC" stroke="#284573" stroke-width="2"/>
<path d="M197.044 96.9367L196.178 97.1505C196.054 96.7117 195.874 96.2841 195.604 95.879C194.681 94.4612 193.027 93.7298 191.733 92.6496C188.369 89.8478 188.042 83.839 190.709 80.3621C193.455 85.5269 195.604 91.0743 197.044 96.9367Z" fill="#2394E0" stroke="#294571" stroke-miterlimit="10"/>
<path d="M196.177 97.1505C196.74 99.2322 195.851 101.663 194.737 103.621C193.387 106.006 191.665 108.437 191.834 111.16C191.958 113.118 193.038 114.862 193.556 116.763C193.556 116.775 193.556 116.797 193.567 116.82C194.129 118.946 191.046 120.015 190.09 118.035L186.41 110.372C185.893 109.281 185.15 108.29 184.171 107.57C180.267 104.723 176.621 108.234 175.36 111.79C174.202 115.053 174.168 118.744 171.951 121.546C171.456 122.164 170.758 122.615 169.982 122.716C167.833 122.975 166.921 120.87 166.482 119.07C165.29 114.063 164.975 108.493 161.554 104.645C159.056 101.843 155.354 100.515 151.798 99.2885L136.968 94.1799C134.121 93.201 131.353 95.8453 132.197 98.7259C132.557 99.9524 133.209 101.089 134.132 101.967C137.823 105.444 140.805 100.549 144.203 102.27C145.812 103.092 146.577 104.96 146.251 106.749C145.474 110.991 141.086 112.746 137.924 114.704C136.427 115.627 134.74 116.223 132.984 116.313C127.414 116.583 126.177 112.195 124.579 108.56C123.566 106.231 122.25 104.026 120.685 102.012C119.684 100.706 117.591 101.64 117.85 103.261C118.457 107.233 119.628 111.115 121.293 114.772C122.463 117.315 123.994 119.88 126.447 121.231C128.54 122.378 130.936 122.491 133.333 122.198C136.135 121.861 138.217 124.786 136.934 127.296C136.315 128.5 135.46 129.613 134.481 130.536C132.005 132.877 128.877 134.396 126.267 136.579C123.656 138.762 121.507 142.036 122.114 145.378C122.587 147.944 124.635 150.228 124.309 152.816C123.96 155.606 121.102 157.305 119.639 159.702C118.356 161.806 118.187 164.361 117.917 166.802C117.636 169.244 117.118 171.832 115.386 173.565C113.641 175.298 109.816 176.086 108.499 174.015C101.095 170.459 95.5027 163.337 93.8149 155.303C93.3085 152.883 93.106 150.318 91.8907 148.157C90.6867 146.008 88.5826 144.467 87.4798 142.261C86.3321 139.966 86.4334 137.276 86.1858 134.722C85.9383 132.168 85.1393 129.377 82.9339 128.061C79.2994 125.889 74.6297 129.062 70.4663 128.229C67.642 127.667 65.4703 125.27 64.4126 122.603C63.3548 119.937 63.1973 117 63.096 114.13C62.8597 107.57 62.8035 100.841 66.1567 94.8663C67.0344 93.291 68.1821 91.8507 69.5661 90.6805C76.8126 84.5704 85.5782 88.25 93.2073 91.5131C100.24 94.5288 108.803 97.1618 114.924 91.6932C116.308 90.4554 116.623 88.295 115.509 86.8097C113.979 84.7842 111.132 85.7407 108.758 85.5269C104.718 85.1668 102.052 81.296 98.6421 79.0906C94.0287 76.1087 87.5248 76.4463 83.2377 79.8895C81.1448 81.5661 79.4457 83.9628 76.5763 84.2216C75.1585 84.3454 73.7407 83.6027 73.2231 82.275C72.6943 80.9359 73.3694 80.0357 74.0783 79.2256C79.862 72.553 88.3688 69.0085 96.5605 65.6778C99.1035 64.6426 101.489 65.8128 103.931 64.5413C105.292 63.8212 106.688 62.5721 106.226 60.9518C106.012 60.1979 105.394 59.6128 104.662 59.354C103.132 58.8026 101.579 59.4327 100.33 60.3104C99.0585 61.1881 97.9332 62.3809 96.2679 62.4371C95.3227 62.4709 94.3888 61.9308 94.1525 61.0306C93.7474 59.5228 95.424 58.4538 96.8193 57.8799C100.375 56.3946 103.931 54.9093 107.486 53.424C108.578 52.9739 109.714 52.5013 110.896 52.5576C112.077 52.6026 113.326 53.3002 113.608 54.448C113.889 55.5957 113.169 56.8897 114.587 57.8124C115.194 58.2062 115.937 58.3075 116.657 58.24C117.861 58.105 119.234 57.6661 120.235 56.901C121.709 55.787 123.318 54.853 125.04 54.1667C128.033 52.9739 131.026 51.8149 134.064 50.7234C141.952 47.8991 150.358 44.7372 157.852 48.473C171.76 55.5057 183.361 66.578 190.686 80.3621C188.019 83.839 188.346 89.859 191.71 92.6496C193.015 93.7298 194.658 94.4612 195.581 95.879C195.851 96.2841 196.031 96.7117 196.155 97.1505H196.177Z" fill="#05BDFB"/>
<path d="M189.888 140.72C191.654 139.909 193.578 139.561 195.334 138.739C190.068 154.594 179.682 167.556 166.145 176.176C167.518 174.645 167.889 172.451 168.047 170.392C168.216 168.243 168.249 165.992 169.273 164.091C170.432 161.941 172.671 160.614 174.292 158.78C177.409 155.269 178.084 150.126 181.077 146.503C183.339 143.769 186.669 142.205 189.888 140.708V140.72Z" fill="#05BDFB"/>
<path d="M100.668 46.9089C100.702 47.6853 100.229 48.4055 99.6102 48.8781C98.0123 50.1046 95.8069 50.2509 93.984 50.9485C91.666 51.8374 89.4156 52.8726 87.2439 54.0429C83.6881 55.9558 80.4362 59.1852 76.5429 60.3329C75.3389 60.693 73.8648 60.468 73.1222 59.5003C79.5473 53.2665 87.1538 48.3267 95.6494 44.9735C97.2359 45.2323 100.578 44.8047 100.657 46.9202L100.668 46.9089Z" fill="#05BDFB"/>
<path d="M135.46 41.1026C131.184 40.3825 126.829 40.0112 122.396 40.0112C118.638 40.0112 114.958 40.2812 111.391 40.7988C76.9816 45.8286 52.2265 74.342 51.045 111.779C51.0113 112.701 51 113.635 51 114.569C51 157.294 84.1719 187.878 125.074 187.878C163.883 187.878 195.716 160.366 198.901 121.073C199.081 118.935 199.159 116.775 199.159 114.569C199.159 76.4687 170.646 47.0214 135.449 41.1026H135.46Z" stroke="#294571" stroke-width="2" stroke-linecap="round" stroke-linejoin="round"/>
<path d="M190.72 80.3621C188.053 83.8278 188.379 89.859 191.744 92.6496C193.049 93.7298 194.692 94.4612 195.626 95.879C197.122 98.1745 196.11 101.246 194.759 103.621C193.409 106.006 191.687 108.437 191.856 111.16C191.98 113.118 193.06 114.873 193.578 116.763C193.578 116.786 193.578 116.797 193.589 116.82C194.152 118.958 191.069 120.027 190.112 118.035L186.444 110.372C185.915 109.281 185.184 108.29 184.205 107.57C180.3 104.723 176.654 108.234 175.394 111.79C174.235 115.053 174.201 118.744 171.985 121.546C171.501 122.164 170.792 122.615 170.015 122.716C167.866 122.975 166.944 120.87 166.516 119.07C165.323 114.063 165.008 108.482 161.587 104.645C159.089 101.843 155.376 100.515 151.832 99.2885L137.001 94.1799C134.154 93.201 131.386 95.834 132.241 98.7259C132.601 99.9524 133.243 101.089 134.177 101.967C137.868 105.443 140.849 100.549 144.248 102.27C145.868 103.092 146.622 104.971 146.296 106.749C145.508 110.991 141.131 112.746 137.969 114.704C136.472 115.627 134.784 116.223 133.029 116.313C127.459 116.583 126.21 112.195 124.624 108.56C123.6 106.231 122.294 104.026 120.741 102.012C119.74 100.718 117.647 101.64 117.895 103.261C118.514 107.233 119.673 111.115 121.338 114.772C122.508 117.326 124.038 119.88 126.491 121.231C128.584 122.378 130.981 122.491 133.389 122.198C136.191 121.861 138.273 124.786 136.99 127.296C136.371 128.5 135.505 129.613 134.537 130.536C132.061 132.877 128.933 134.396 126.323 136.579C123.712 138.762 121.563 142.036 122.171 145.378C122.643 147.944 124.68 150.228 124.365 152.816C124.027 155.606 121.158 157.294 119.695 159.702C118.412 161.795 118.243 164.361 117.962 166.802C117.681 169.244 117.163 171.832 115.43 173.565C113.686 175.298 109.86 176.086 108.544 174.015C101.14 170.459 95.5475 163.337 93.8597 155.291C93.3533 152.872 93.1508 150.307 91.9355 148.157C90.7315 146.008 88.6273 144.467 87.5246 142.261C86.3769 139.966 86.4781 137.276 86.2306 134.722C85.983 132.168 85.1841 129.377 82.9899 128.061C79.3554 125.889 74.6745 129.062 70.5223 128.229C67.7093 127.667 65.5376 125.27 64.4686 122.603C63.3996 119.936 63.2533 117 63.1521 114.13C62.9158 107.57 62.8595 100.841 66.2127 94.8663C67.1016 93.291 68.2381 91.8507 69.6222 90.6804C76.8687 84.5592 85.6455 88.2499 93.2633 91.5131C100.296 94.5287 108.859 97.1618 114.98 91.6931C116.364 90.4554 116.679 88.2949 115.565 86.8096C114.035 84.7842 111.188 85.7407 108.814 85.5381C104.774 85.178 102.108 81.296 98.6982 79.1018C94.0847 76.1199 87.5809 76.4575 83.2937 79.8895C81.2008 81.5773 79.5017 83.9628 76.6324 84.2216C75.2146 84.3454 73.7968 83.6027 73.2792 82.2749C72.7503 80.9359 73.4367 80.0357 74.1343 79.2368C79.918 72.5642 88.4248 69.0197 96.6165 65.7003C99.1708 64.6651 101.556 65.8353 103.987 64.5638C105.348 63.8549 106.755 62.5946 106.282 60.9743C106.068 60.2204 105.45 59.6353 104.718 59.3765C103.188 58.8251 101.635 59.4552 100.386 60.3329C99.1258 61.2218 97.9893 62.4033 96.3352 62.4596C95.39 62.4934 94.456 61.9645 94.2197 61.0531C93.8147 59.5452 95.4913 58.4875 96.8865 57.9024C100.442 56.4171 103.998 54.9318 107.554 53.4465C108.645 52.9964 109.782 52.5238 110.963 52.5688C112.145 52.6138 113.394 53.3115 113.675 54.4592C113.956 55.5957 113.236 56.901 114.654 57.8236C115.262 58.2175 116.004 58.3187 116.724 58.24C117.928 58.1162 119.301 57.6661 120.303 56.901C121.777 55.7757 123.386 54.8418 125.107 54.1666C128.1 52.9739 131.094 51.8149 134.12 50.7347C142.008 47.9103 150.414 44.7484 157.919 48.4842" stroke="#294571" stroke-width="0.5" stroke-linecap="round" stroke-linejoin="round"/>
<path d="M73.1783 59.5566C73.8535 60.7268 75.2488 60.7043 76.5428 60.3217C80.4248 59.174 83.688 55.9446 87.2438 54.0317C89.4267 52.8614 91.6772 51.8262 93.9839 50.9373C95.818 50.2396 98.0122 50.0821 99.6101 48.8668C100.229 48.3942 100.702 47.6741 100.668 46.8977C100.578 44.6472 97.2246 45.2774 95.8068 44.8948" stroke="#294571" stroke-width="0.5" stroke-linecap="round" stroke-linejoin="round"/>
<path d="M165.976 176.367C167.495 174.837 167.889 172.541 168.058 170.392C168.226 168.243 168.26 165.992 169.284 164.091C170.443 161.941 172.682 160.614 174.303 158.78C177.42 155.269 178.095 150.127 181.088 146.503C183.35 143.769 186.68 142.194 189.898 140.708C191.665 139.898 193.589 139.549 195.345 138.728" stroke="#294571" stroke-width="0.5" stroke-linecap="round" stroke-linejoin="round"/>
<path d="M69.1499 70.6851C69.42 70.37 69.7013 70.055 69.9938 69.7512" stroke="#294571" stroke-width="0.5" stroke-linecap="round" stroke-linejoin="round"/>
<path d="M67.361 72.9131C67.631 72.553 67.9011 72.2042 68.1711 71.8553" stroke="#294571" stroke-width="0.5" stroke-linecap="round" stroke-linejoin="round"/>
<path d="M63.7381 147.437C52.9022 125.777 51.3831 98.3658 65.2685 76.0075C65.6398 75.4223 66.0111 74.8372 66.3937 74.2746" stroke="#294571" stroke-width="0.5" stroke-linecap="round" stroke-linejoin="round"/>
<path d="M65.6507 151.038C65.3919 150.577 65.1331 150.104 64.8743 149.631" stroke="#294571" stroke-width="0.5" stroke-linecap="round" stroke-linejoin="round"/>
<path d="M134.076 44.3546C134.987 44.4446 135.91 44.5572 136.822 44.6697" stroke="#294571" stroke-width="0.5" stroke-linecap="round" stroke-linejoin="round"/>
<path d="M108.342 45.6149C115.678 44.1408 123.195 43.6345 130.666 44.0733" stroke="#294571" stroke-width="0.5" stroke-linecap="round" stroke-linejoin="round"/>
<path d="M189.977 135.138C190.686 134.868 191.395 134.598 192.093 134.34" stroke="#294571" stroke-width="0.5" stroke-linecap="round" stroke-linejoin="round"/>
<path d="M173.515 152.591C173.684 152.309 173.842 152.017 173.999 151.724C175.473 148.911 176.283 145.749 178.072 143.116C180.267 139.887 184.666 137.378 188.29 135.769" stroke="#294571" stroke-width="0.5" stroke-linecap="round" stroke-linejoin="round"/>
<path d="M171.288 155.854C171.727 155.291 172.154 154.718 172.548 154.121" stroke="#294571" stroke-width="0.5" stroke-linecap="round" stroke-linejoin="round"/>
<path d="M169.115 158.532C169.442 158.138 169.768 157.744 170.094 157.351" stroke="#294571" stroke-width="0.5" stroke-linecap="round" stroke-linejoin="round"/>
<path d="M126.739 140.461C127.324 139.943 128.033 139.617 128.821 139.628" stroke="#294571" stroke-width="0.5" stroke-linecap="round" stroke-linejoin="round"/>
<path d="M122.959 162.189C123.634 161.345 124.343 160.512 124.984 159.646C126.38 157.778 127.561 155.606 127.55 153.277C127.539 151.511 126.83 149.834 126.211 148.18C125.592 146.526 125.029 144.759 125.333 143.015" stroke="#294571" stroke-width="0.5" stroke-linecap="round" stroke-linejoin="round"/>
<path d="M120.247 166.442C120.416 166.026 120.607 165.632 120.821 165.25C120.967 164.98 121.125 164.721 121.293 164.462" stroke="#294571" stroke-width="0.5" stroke-linecap="round" stroke-linejoin="round"/>
<path d="M120.044 171.945C119.729 171.225 119.594 170.459 119.583 169.694" stroke="#294571" stroke-width="0.5" stroke-linecap="round" stroke-linejoin="round"/>
<path d="M155.85 104.431C155.354 104.138 154.848 103.88 154.319 103.666" stroke="#294571" stroke-width="0.5" stroke-linecap="round" stroke-linejoin="round"/>
<path d="M163.444 119.486C163.208 118.823 163.005 118.147 162.825 117.472C161.914 114.119 161.351 110.563 159.382 107.716C158.977 107.131 158.516 106.591 158.009 106.085" stroke="#294571" stroke-width="0.5" stroke-linecap="round" stroke-linejoin="round"/>
<path d="M165.493 123.481C165.02 122.851 164.615 122.153 164.266 121.433" stroke="#294571" stroke-width="0.5" stroke-linecap="round" stroke-linejoin="round"/>
<path d="M168.294 125.99C167.867 125.754 167.462 125.484 167.09 125.18" stroke="#294571" stroke-width="0.5" stroke-linecap="round" stroke-linejoin="round"/>
<path d="M81.7527 91.1081C82.8104 91.2769 83.8456 91.5582 84.8246 91.9745" stroke="#294571" stroke-width="0.5" stroke-linecap="round" stroke-linejoin="round"/>
<path d="M74.6969 91.8395C76.0134 91.3219 77.4087 91.0406 78.8153 90.9619" stroke="#294571" stroke-width="0.5" stroke-linecap="round" stroke-linejoin="round"/>
<path d="M120.821 150.048C120.596 149.418 120.225 148.844 119.718 148.405" stroke="#294571" stroke-width="0.5" stroke-linecap="round" stroke-linejoin="round"/>
<path d="M114.79 164.226C115.623 159.804 120.034 157.396 120.99 153.075" stroke="#294571" stroke-width="0.5" stroke-linecap="round" stroke-linejoin="round"/>
<path d="M113.934 169.267C114.148 168.547 114.283 167.815 114.384 167.073" stroke="#294571" stroke-width="0.5" stroke-linecap="round" stroke-linejoin="round"/>
<path d="M81.9438 75.9062C86.366 72.868 91.1595 70.37 96.1893 68.5021" stroke="#294571" stroke-width="0.5" stroke-linecap="round" stroke-linejoin="round"/>
<path d="M166.167 56.4285C166.786 56.9348 167.382 57.4749 167.956 58.0263" stroke="#294571" stroke-width="0.5" stroke-linecap="round" stroke-linejoin="round"/>
<path d="M161.104 53.1202C162.037 53.5928 162.938 54.1104 163.804 54.6843" stroke="#294571" stroke-width="0.5" stroke-linecap="round" stroke-linejoin="round"/>
<path d="M144.54 50.476C149.244 49.8121 154.105 50.3072 158.561 51.995" stroke="#294571" stroke-width="0.5" stroke-linecap="round" stroke-linejoin="round"/>
<path d="M138.835 51.8375C139.724 51.5787 140.602 51.3424 141.502 51.1173" stroke="#294571" stroke-width="0.5" stroke-linecap="round" stroke-linejoin="round"/>
<path d="M182.056 72.6655C181.538 71.9453 181.043 71.2027 180.582 70.4375" stroke="#294571" stroke-width="0.5" stroke-linecap="round" stroke-linejoin="round"/>
<path d="M185.724 83.0852C186.061 81.6899 187.085 79.4282 186.579 78.0217C186.129 76.7727 184.542 76.1988 183.89 75.0623" stroke="#294571" stroke-width="0.5" stroke-linecap="round" stroke-linejoin="round"/>
<path d="M185.848 90.6917C185.128 89.1726 185.004 87.4848 185.195 85.8307" stroke="#294571" stroke-width="0.5" stroke-linecap="round" stroke-linejoin="round"/>
<path d="M187.873 145.074C188.57 144.68 189.291 144.32 190.022 143.994" stroke="#294571" stroke-width="0.5" stroke-linecap="round" stroke-linejoin="round"/>
<path d="M184.318 148.011C184.734 147.482 185.196 146.998 185.713 146.56" stroke="#294571" stroke-width="0.5" stroke-linecap="round" stroke-linejoin="round"/>
<path d="M175.755 161.986C179.322 158.858 180.773 154.504 182.832 150.397" stroke="#294571" stroke-width="0.5" stroke-linecap="round" stroke-linejoin="round"/>
<path d="M81.3702 54.7518C85.1735 51.9725 89.3931 49.767 93.8491 48.2367" stroke="#294571" stroke-width="0.5" stroke-linecap="round" stroke-linejoin="round"/>
<path d="M117.052 114.029C116.061 111.272 115.443 108.392 115.206 105.466C115.037 103.384 114.621 99.9524 116.782 98.6809" stroke="#294571" stroke-width="0.5" stroke-linecap="round" stroke-linejoin="round"/>
<path d="M120.439 120.882C119.685 119.723 119.009 118.508 118.402 117.27" stroke="#294571" stroke-width="0.5" stroke-linecap="round" stroke-linejoin="round"/>
<path d="M182.472 102.664C184.171 102.889 185.803 103.531 187.187 104.532" stroke="#294571" stroke-width="0.5" stroke-linecap="round" stroke-linejoin="round"/>
<path d="M172.042 107.311C173.684 104.791 176.408 103.126 179.378 102.687" stroke="#294571" stroke-width="0.5" stroke-linecap="round" stroke-linejoin="round"/>
<path d="M170.297 114.479C170.139 113.14 170.252 111.779 170.612 110.485" stroke="#294571" stroke-width="0.5" stroke-linecap="round" stroke-linejoin="round"/>
<path d="M93.2413 153.187C93.939 152.377 94.6254 151.556 95.323 150.745" stroke="#294571" stroke-width="0.5" stroke-linecap="round" stroke-linejoin="round"/>
<path d="M93.871 155.033C94.5574 154.279 95.255 153.513 95.9414 152.76" stroke="#294571" stroke-width="0.5" stroke-linecap="round" stroke-linejoin="round"/>
<path d="M94.4786 157.384C94.9625 156.484 95.6151 155.685 96.4028 155.044" stroke="#294571" stroke-width="0.5" stroke-linecap="round" stroke-linejoin="round"/>
<path d="M95.1434 159.702C95.8411 158.836 96.55 157.969 97.2476 157.103" stroke="#294571" stroke-width="0.5" stroke-linecap="round" stroke-linejoin="round"/>
<path d="M95.9983 162.02C96.6847 160.996 97.3711 159.984 98.0687 158.96" stroke="#294571" stroke-width="0.5" stroke-linecap="round" stroke-linejoin="round"/>
<path d="M97.4379 163.652C97.9892 162.785 98.5406 161.908 99.092 161.041" stroke="#294571" stroke-width="0.5" stroke-linecap="round" stroke-linejoin="round"/>
<path d="M98.5752 165.914C99.1153 164.766 99.7792 163.686 100.578 162.695" stroke="#294571" stroke-width="0.5" stroke-linecap="round" stroke-linejoin="round"/>
<path d="M99.8685 167.388C100.341 166.544 100.802 165.711 101.275 164.867" stroke="#294571" stroke-width="0.5" stroke-linecap="round" stroke-linejoin="round"/>
<path d="M101.208 168.457C101.669 167.669 102.119 166.881 102.581 166.094" stroke="#294571" stroke-width="0.5" stroke-linecap="round" stroke-linejoin="round"/>
<path d="M102.772 169.402C103.064 168.682 103.357 167.95 103.649 167.23" stroke="#294571" stroke-width="0.5" stroke-linecap="round" stroke-linejoin="round"/>
<path d="M103.605 170.786C104.122 169.773 104.651 168.76 105.169 167.736" stroke="#294571" stroke-width="0.5" stroke-linecap="round" stroke-linejoin="round"/>
<path d="M105.349 171.742C105.72 170.786 106.102 169.829 106.474 168.873" stroke="#294571" stroke-width="0.5" stroke-linecap="round" stroke-linejoin="round"/>
<path d="M106.463 172.474C106.913 171.652 107.363 170.831 107.813 170.009" stroke="#294571" stroke-width="0.5" stroke-linecap="round" stroke-linejoin="round"/>
<path d="M107.891 173.318C108.184 172.597 108.465 171.866 108.758 171.146" stroke="#294571" stroke-width="0.5" stroke-linecap="round" stroke-linejoin="round"/>
<path d="M109.016 174.623C109.444 173.486 109.883 172.361 110.31 171.225" stroke="#294571" stroke-width="0.5" stroke-linecap="round" stroke-linejoin="round"/>
<path d="M110.378 174.567C110.749 173.88 110.997 173.138 111.098 172.361" stroke="#294571" stroke-width="0.5" stroke-linecap="round" stroke-linejoin="round"/>
<path d="M63.9852 99.8061C65.1667 99.0747 66.3595 98.3546 67.541 97.6232" stroke="#294571" stroke-width="0.5" stroke-linecap="round" stroke-linejoin="round"/>
<path d="M63.5687 102.518C64.6602 101.877 65.7629 101.246 66.8544 100.605" stroke="#294571" stroke-width="0.5" stroke-linecap="round" stroke-linejoin="round"/>
<path d="M63.1754 105.005C64.2219 104.318 65.2683 103.621 66.3036 102.934" stroke="#294571" stroke-width="0.5" stroke-linecap="round" stroke-linejoin="round"/>
<path d="M63.2875 107.705C64.2889 106.974 65.2791 106.231 66.2806 105.5" stroke="#294571" stroke-width="0.5" stroke-linecap="round" stroke-linejoin="round"/>
<path d="M63.0171 110.305C64.1986 109.573 65.3801 108.842 66.5728 108.11" stroke="#294571" stroke-width="0.5" stroke-linecap="round" stroke-linejoin="round"/>
<path d="M63.0292 112.465L65.7747 110.901" stroke="#294571" stroke-width="0.5" stroke-linecap="round" stroke-linejoin="round"/>
<path d="M63.0852 114.614C63.9741 114.164 64.8743 113.703 65.7633 113.253" stroke="#294571" stroke-width="0.5" stroke-linecap="round" stroke-linejoin="round"/>
<path d="M63.3666 116.932C64.1542 116.561 64.9307 116.19 65.7183 115.818" stroke="#294571" stroke-width="0.5" stroke-linecap="round" stroke-linejoin="round"/>
<path d="M63.3666 119.003C64.188 118.53 65.0207 118.046 65.8421 117.574" stroke="#294571" stroke-width="0.5" stroke-linecap="round" stroke-linejoin="round"/>
<path d="M63.8951 120.904C64.5365 120.477 65.1892 120.049 65.8305 119.633" stroke="#294571" stroke-width="0.5" stroke-linecap="round" stroke-linejoin="round"/>
<path d="M64.6599 122.851C65.245 122.457 65.8302 122.063 66.4153 121.669" stroke="#294571" stroke-width="0.5" stroke-linecap="round" stroke-linejoin="round"/>
<path d="M65.8423 124.685C66.4049 124.167 66.9675 123.639 67.5414 123.121" stroke="#294571" stroke-width="0.5" stroke-linecap="round" stroke-linejoin="round"/>
<path d="M67.2147 126.632C67.6536 125.934 68.2049 125.315 68.8463 124.797" stroke="#294571" stroke-width="0.5" stroke-linecap="round" stroke-linejoin="round"/>
<path d="M68.5312 127.239C69.2401 126.44 69.9378 125.653 70.6467 124.854" stroke="#294571" stroke-width="0.5" stroke-linecap="round" stroke-linejoin="round"/>
<path d="M69.9718 127.892C70.4219 127.386 70.872 126.879 71.3221 126.373" stroke="#294571" stroke-width="0.5" stroke-linecap="round" stroke-linejoin="round"/>
<path d="M71.3442 128.286C71.6593 128.049 71.9181 127.746 72.0981 127.408" stroke="#294571" stroke-width="0.5" stroke-linecap="round" stroke-linejoin="round"/>
<path d="M84.1042 128.983C84.4981 128.657 84.8919 128.331 85.2745 128.004" stroke="#294571" stroke-width="0.5" stroke-linecap="round" stroke-linejoin="round"/>
<path d="M84.7679 130.221C85.4768 129.625 86.1857 129.028 86.8946 128.432" stroke="#294571" stroke-width="0.5" stroke-linecap="round" stroke-linejoin="round"/>
<path d="M85.6229 131.481C86.4331 130.795 87.2545 130.097 88.0647 129.411" stroke="#294571" stroke-width="0.5" stroke-linecap="round" stroke-linejoin="round"/>
<path d="M86.0734 133.484C86.726 132.854 87.4799 132.325 88.2901 131.909" stroke="#294571" stroke-width="0.5" stroke-linecap="round" stroke-linejoin="round"/>
<path d="M86.3888 135.105C86.9289 134.677 87.4578 134.261 87.9979 133.833" stroke="#294571" stroke-width="0.5" stroke-linecap="round" stroke-linejoin="round"/>
<path d="M86.4789 137.164C87.1765 136.601 87.8854 136.039 88.5831 135.476" stroke="#294571" stroke-width="0.5" stroke-linecap="round" stroke-linejoin="round"/>
<path d="M86.614 139.065C87.4354 138.345 88.2569 137.614 89.0783 136.894" stroke="#294571" stroke-width="0.5" stroke-linecap="round" stroke-linejoin="round"/>
<path d="M86.9174 141.046C87.7838 140.45 88.6502 139.864 89.5166 139.268" stroke="#294571" stroke-width="0.5" stroke-linecap="round" stroke-linejoin="round"/>
<path d="M87.9185 143.173C88.6161 142.464 89.4263 141.856 90.3039 141.372" stroke="#294571" stroke-width="0.5" stroke-linecap="round" stroke-linejoin="round"/>
<path d="M89.2689 144.714L91.4181 143.274" stroke="#294571" stroke-width="0.5" stroke-linecap="round" stroke-linejoin="round"/>
<path d="M90.9458 146.256C91.4859 145.862 92.0373 145.468 92.5774 145.086" stroke="#294571" stroke-width="0.5" stroke-linecap="round" stroke-linejoin="round"/>
<path d="M91.9808 148.022C92.6447 147.505 93.3086 146.987 93.9725 146.481" stroke="#294571" stroke-width="0.5" stroke-linecap="round" stroke-linejoin="round"/>
<path d="M93.016 150.307C93.5786 149.946 94.1187 149.53 94.6026 149.069" stroke="#294571" stroke-width="0.5" stroke-linecap="round" stroke-linejoin="round"/>
<path d="M121.012 101.607C121.529 101.078 122.047 100.549 122.565 100.02" stroke="#294571" stroke-width="0.5" stroke-linecap="round" stroke-linejoin="round"/>
<path d="M121.789 103.283C122.452 102.462 123.105 101.64 123.769 100.819" stroke="#294571" stroke-width="0.5" stroke-linecap="round" stroke-linejoin="round"/>
<path d="M122.936 104.96C123.498 104.127 124.061 103.306 124.624 102.473" stroke="#294571" stroke-width="0.5" stroke-linecap="round" stroke-linejoin="round"/>
<path d="M123.465 106.535C124.163 105.534 124.861 104.532 125.558 103.531" stroke="#294571" stroke-width="0.5" stroke-linecap="round" stroke-linejoin="round"/>
<path d="M124.118 108.099C124.771 107.143 125.423 106.186 126.076 105.23" stroke="#294571" stroke-width="0.5" stroke-linecap="round" stroke-linejoin="round"/>
<path d="M125.029 109.269C125.715 108.268 126.402 107.255 127.088 106.254" stroke="#294571" stroke-width="0.5" stroke-linecap="round" stroke-linejoin="round"/>
<path d="M125.929 111.486C126.796 110.35 127.673 109.224 128.54 108.088" stroke="#294571" stroke-width="0.5" stroke-linecap="round" stroke-linejoin="round"/>
<path d="M127.043 113.14C127.932 111.801 128.821 110.473 129.71 109.134" stroke="#294571" stroke-width="0.5" stroke-linecap="round" stroke-linejoin="round"/>
<path d="M128.281 114.49L130.767 110.057" stroke="#294571" stroke-width="0.5" stroke-linecap="round" stroke-linejoin="round"/>
<path d="M129.71 115.526C130.408 114.13 131.105 112.746 131.803 111.351" stroke="#294571" stroke-width="0.5" stroke-linecap="round" stroke-linejoin="round"/>
<path d="M131.049 116.066C131.87 114.625 132.703 113.196 133.524 111.756" stroke="#294571" stroke-width="0.5" stroke-linecap="round" stroke-linejoin="round"/>
<path d="M132.703 116.302C133.525 114.862 134.358 113.433 135.179 111.992" stroke="#294571" stroke-width="0.5" stroke-linecap="round" stroke-linejoin="round"/>
<path d="M135.066 115.537C135.719 114.367 136.371 113.185 137.024 112.015" stroke="#294571" stroke-width="0.5" stroke-linecap="round" stroke-linejoin="round"/>
<path d="M137.035 115.019C137.778 114.153 138.318 113.118 138.599 112.015" stroke="#294571" stroke-width="0.5" stroke-linecap="round" stroke-linejoin="round"/>
<path d="M139.713 113.736C140.129 112.904 140.557 112.071 140.973 111.238" stroke="#294571" stroke-width="0.5" stroke-linecap="round" stroke-linejoin="round"/>
<path d="M141.738 112.274C141.952 111.756 142.177 111.227 142.391 110.71" stroke="#294571" stroke-width="0.5" stroke-linecap="round" stroke-linejoin="round"/>
<path d="M73.3585 82.2075C73.8986 81.7011 74.4387 81.1835 74.9676 80.6772" stroke="#294571" stroke-width="0.5" stroke-linecap="round" stroke-linejoin="round"/>
<path d="M74.4156 83.1977L75.4621 82.0049" stroke="#294571" stroke-width="0.5" stroke-linecap="round" stroke-linejoin="round"/>
<path d="M75.7661 84.1204C76.1037 83.6703 76.4525 83.2202 76.7901 82.7814" stroke="#294571" stroke-width="0.5" stroke-linecap="round" stroke-linejoin="round"/>
<path d="M77.2517 84.0641C77.6118 83.614 77.9719 83.1639 78.3319 82.7026" stroke="#294571" stroke-width="0.5" stroke-linecap="round" stroke-linejoin="round"/>
<path d="M87.8965 77.6165C88.8304 77.0089 89.6969 76.3112 90.4733 75.5123" stroke="#294571" stroke-width="0.5" stroke-linecap="round" stroke-linejoin="round"/>
<path d="M90.7545 77.4027L92.5661 75.7261" stroke="#294571" stroke-width="0.5" stroke-linecap="round" stroke-linejoin="round"/>
<path d="M92.4984 77.2564C93.0273 76.6938 93.6349 76.2212 94.31 75.8611" stroke="#294571" stroke-width="0.5" stroke-linecap="round" stroke-linejoin="round"/>
<path d="M94.9401 77.4027C95.4802 77.1439 96.009 76.8964 96.5491 76.6376" stroke="#294571" stroke-width="0.5" stroke-linecap="round" stroke-linejoin="round"/>
<path d="M96.3467 78.0329C97.0668 77.7516 97.787 77.459 98.5071 77.1777" stroke="#294571" stroke-width="0.5" stroke-linecap="round" stroke-linejoin="round"/>
<path d="M98.0236 78.6742L99.7002 78.1229" stroke="#294571" stroke-width="0.5" stroke-linecap="round" stroke-linejoin="round"/>
<path d="M99.7784 79.822C100.409 79.5632 101.027 79.2931 101.658 79.0343" stroke="#294571" stroke-width="0.5" stroke-linecap="round" stroke-linejoin="round"/>
<path d="M100.882 80.8235C101.557 80.5197 102.232 80.2159 102.907 79.912" stroke="#294571" stroke-width="0.5" stroke-linecap="round" stroke-linejoin="round"/>
<path d="M102.142 81.9374C102.873 81.7237 103.582 81.4198 104.235 81.026" stroke="#294571" stroke-width="0.5" stroke-linecap="round" stroke-linejoin="round"/>
<path d="M103.616 83.0289C104.313 82.8376 104.977 82.5113 105.551 82.0724" stroke="#294571" stroke-width="0.5" stroke-linecap="round" stroke-linejoin="round"/>
<path d="M104.73 83.9966C105.495 83.6816 106.26 83.3665 107.025 83.0627" stroke="#294571" stroke-width="0.5" stroke-linecap="round" stroke-linejoin="round"/>
<path d="M106.632 84.9305C107.51 84.4804 108.399 84.0304 109.276 83.5803" stroke="#294571" stroke-width="0.5" stroke-linecap="round" stroke-linejoin="round"/>
<path d="M108.488 85.4819C109.399 84.953 110.311 84.4242 111.222 83.8953" stroke="#294571" stroke-width="0.5" stroke-linecap="round" stroke-linejoin="round"/>
<path d="M110.558 85.6507C111.256 85.3131 111.942 84.9193 112.606 84.5029" stroke="#294571" stroke-width="0.5" stroke-linecap="round" stroke-linejoin="round"/>
<path d="M112.899 85.707C113.225 85.2794 113.664 84.9418 114.159 84.728" stroke="#294571" stroke-width="0.5" stroke-linecap="round" stroke-linejoin="round"/>
<path d="M136.079 94.0224C136.946 93.3135 137.801 92.6159 138.667 91.907" stroke="#294571" stroke-width="0.5" stroke-linecap="round" stroke-linejoin="round"/>
<path d="M138.15 94.4613C139.106 93.7637 140.062 93.066 141.008 92.3571" stroke="#294571" stroke-width="0.5" stroke-linecap="round" stroke-linejoin="round"/>
<path d="M140.952 95.3052C141.75 94.6526 142.561 93.9887 143.36 93.3361" stroke="#294571" stroke-width="0.5" stroke-linecap="round" stroke-linejoin="round"/>
<path d="M143.426 96.3404C144.27 95.5865 145.204 94.9114 146.194 94.3488" stroke="#294571" stroke-width="0.5" stroke-linecap="round" stroke-linejoin="round"/>
<path d="M146.093 97.4432C147.05 96.633 148.006 95.8341 148.962 95.0239" stroke="#294571" stroke-width="0.5" stroke-linecap="round" stroke-linejoin="round"/>
<path d="M148.4 98.1858C149.311 97.4882 150.223 96.7905 151.134 96.0929" stroke="#294571" stroke-width="0.5" stroke-linecap="round" stroke-linejoin="round"/>
<path d="M151.326 98.9622C152.305 98.197 153.284 97.4431 154.263 96.678" stroke="#294571" stroke-width="0.5" stroke-linecap="round" stroke-linejoin="round"/>
<path d="M154.229 100.099C154.938 99.4798 155.647 98.8609 156.356 98.2421" stroke="#294571" stroke-width="0.5" stroke-linecap="round" stroke-linejoin="round"/>
<path d="M156.761 101.078C157.47 100.481 158.19 99.8962 158.899 99.2998" stroke="#294571" stroke-width="0.5" stroke-linecap="round" stroke-linejoin="round"/>
<path d="M158.831 101.967C159.518 101.505 160.148 100.988 160.722 100.402" stroke="#294571" stroke-width="0.5" stroke-linecap="round" stroke-linejoin="round"/>
<path d="M160.407 102.889C161.048 102.439 161.701 102 162.342 101.55" stroke="#294571" stroke-width="0.5" stroke-linecap="round" stroke-linejoin="round"/>
<path d="M161.509 104.116C162.24 103.654 162.983 103.193 163.714 102.72" stroke="#294571" stroke-width="0.5" stroke-linecap="round" stroke-linejoin="round"/>
<path d="M162.488 105.747C163.4 105.399 164.277 104.96 165.099 104.431" stroke="#294571" stroke-width="0.5" stroke-linecap="round" stroke-linejoin="round"/>
<path d="M163.602 107.379C164.323 107.008 165.043 106.636 165.752 106.265" stroke="#294571" stroke-width="0.5" stroke-linecap="round" stroke-linejoin="round"/>
<path d="M164.255 109.213C164.953 108.774 165.639 108.335 166.337 107.897" stroke="#294571" stroke-width="0.5" stroke-linecap="round" stroke-linejoin="round"/>
<path d="M165.121 111.148C165.706 110.856 166.28 110.563 166.865 110.271" stroke="#294571" stroke-width="0.5" stroke-linecap="round" stroke-linejoin="round"/>
<path d="M165.436 113.534C166.022 113.185 166.607 112.836 167.192 112.488" stroke="#294571" stroke-width="0.5" stroke-linecap="round" stroke-linejoin="round"/>
<path d="M165.695 115.424C166.37 115.031 167.034 114.625 167.709 114.232" stroke="#294571" stroke-width="0.5" stroke-linecap="round" stroke-linejoin="round"/>
<path d="M166.224 116.775C167.046 116.505 167.845 116.167 168.598 115.773" stroke="#294571" stroke-width="0.5" stroke-linecap="round" stroke-linejoin="round"/>
<path d="M166.685 118.834C167.214 118.474 167.754 118.114 168.283 117.742" stroke="#294571" stroke-width="0.5" stroke-linecap="round" stroke-linejoin="round"/>
<path d="M167.158 120.218C167.687 119.835 168.227 119.453 168.756 119.059" stroke="#294571" stroke-width="0.5" stroke-linecap="round" stroke-linejoin="round"/>
<path d="M168.058 121.624C168.486 121.231 168.925 120.837 169.352 120.443" stroke="#294571" stroke-width="0.5" stroke-linecap="round" stroke-linejoin="round"/>
<path d="M168.89 122.412C169.261 122.255 169.554 121.928 169.655 121.534" stroke="#294571" stroke-width="0.5" stroke-linecap="round" stroke-linejoin="round"/>
<path d="M184.351 107.514C185.004 107.143 185.656 106.771 186.298 106.389" stroke="#294571" stroke-width="0.5" stroke-linecap="round" stroke-linejoin="round"/>
<path d="M185.521 108.617C186.264 108.167 187.007 107.705 187.738 107.255" stroke="#294571" stroke-width="0.5" stroke-linecap="round" stroke-linejoin="round"/>
<path d="M186.703 110.057C187.558 109.596 188.368 109.044 189.122 108.425" stroke="#294571" stroke-width="0.5" stroke-linecap="round" stroke-linejoin="round"/>
<path d="M187.367 111.655C188.234 111.149 189.055 110.563 189.82 109.922" stroke="#294571" stroke-width="0.5" stroke-linecap="round" stroke-linejoin="round"/>
<path d="M188.458 113.77C189.066 113.275 189.674 112.769 190.281 112.274" stroke="#294571" stroke-width="0.5" stroke-linecap="round" stroke-linejoin="round"/>
<path d="M188.987 115.537C189.763 114.929 190.551 114.31 191.328 113.703" stroke="#294571" stroke-width="0.5" stroke-linecap="round" stroke-linejoin="round"/>
<path d="M189.831 116.583C189.831 116.583 189.831 116.73 189.887 116.741C190.619 116.145 191.361 115.537 192.093 114.941" stroke="#294571" stroke-width="0.5" stroke-linecap="round" stroke-linejoin="round"/>
<path d="M190.641 118.102C191.395 117.394 192.149 116.696 192.903 115.987" stroke="#294571" stroke-width="0.5" stroke-linecap="round" stroke-linejoin="round"/>
<path d="M94.4907 61.0981C94.8508 60.693 95.2109 60.2992 95.5709 59.8941" stroke="#294571" stroke-width="0.5" stroke-linecap="round" stroke-linejoin="round"/>
<path d="M95.4247 61.9083C95.9986 61.1432 96.5724 60.3668 97.1463 59.6016" stroke="#294571" stroke-width="0.5" stroke-linecap="round" stroke-linejoin="round"/>
<path d="M96.9203 62.0545L98.023 59.9616" stroke="#294571" stroke-width="0.5" stroke-linecap="round" stroke-linejoin="round"/>
<path d="M102.344 59.174C102.986 58.6114 103.593 58.0037 104.156 57.3736" stroke="#294571" stroke-width="0.5" stroke-linecap="round" stroke-linejoin="round"/>
<path d="M104.178 59.039C104.718 58.5439 105.247 58.0488 105.787 57.5424" stroke="#294571" stroke-width="0.5" stroke-linecap="round" stroke-linejoin="round"/>
<path d="M105.417 59.6916C105.934 59.2752 106.441 58.8589 106.958 58.4426" stroke="#294571" stroke-width="0.5" stroke-linecap="round" stroke-linejoin="round"/>
<path d="M106.181 60.7155C106.744 60.2654 107.059 60.0179 107.633 59.5565" stroke="#294571" stroke-width="0.5" stroke-linecap="round" stroke-linejoin="round"/>
<path d="M106.227 62.0658C106.868 61.6495 107.498 61.2219 108.139 60.8055" stroke="#294571" stroke-width="0.5" stroke-linecap="round" stroke-linejoin="round"/>
<path d="M105.821 63.5061C106.609 63.0898 107.374 62.6284 108.105 62.1108" stroke="#294571" stroke-width="0.5" stroke-linecap="round" stroke-linejoin="round"/>
<path d="M74.7419 60.5355C75.2596 59.6579 75.7772 58.7914 76.2948 57.9138" stroke="#294571" stroke-width="0.5" stroke-linecap="round" stroke-linejoin="round"/>
<path d="M76.3397 60.1304C76.9699 59.1515 77.6 58.1725 78.2189 57.1823" stroke="#294571" stroke-width="0.5" stroke-linecap="round" stroke-linejoin="round"/>
<path d="M78.5792 59.2078C78.9843 58.5326 79.3331 57.835 79.6482 57.1261" stroke="#294571" stroke-width="0.5" stroke-linecap="round" stroke-linejoin="round"/>
<path d="M168.992 164.946C170.163 164.248 171.322 163.539 172.492 162.842" stroke="#294571" stroke-width="0.5" stroke-linecap="round" stroke-linejoin="round"/>
<path d="M168.486 167.174C168.486 167.174 168.407 167.106 168.396 167.151C168.385 167.196 168.441 167.241 168.486 167.241C168.531 167.241 168.576 167.208 168.621 167.174C169.78 166.206 171.04 165.351 172.357 164.631" stroke="#294571" stroke-width="0.5" stroke-linecap="round" stroke-linejoin="round"/>
<path d="M168.452 169.154C169.633 168.457 170.781 167.68 171.85 166.836" stroke="#294571" stroke-width="0.5" stroke-linecap="round" stroke-linejoin="round"/>
<path d="M168.17 171.045C169.521 170.313 170.826 169.503 172.086 168.614" stroke="#294571" stroke-width="0.5" stroke-linecap="round" stroke-linejoin="round"/>
<path d="M167.912 173.171C169.071 172.417 170.23 171.652 171.389 170.898" stroke="#294571" stroke-width="0.5" stroke-linecap="round" stroke-linejoin="round"/>
<path d="M133.727 105.173C131.814 104.285 130.329 102.518 129.778 100.47C129.226 98.4333 129.62 96.1603 130.835 94.4275" stroke="#294571" stroke-width="0.5" stroke-linecap="round" stroke-linejoin="round"/>
<path d="M138.352 105.376C139.398 104.858 140.478 104.341 141.637 104.251C142.796 104.161 144.079 104.622 144.63 105.657" stroke="#294571" stroke-width="0.5" stroke-linecap="round" stroke-linejoin="round"/>
<path d="M191.643 104.003C192.453 102.844 193.275 101.663 193.635 100.301C193.995 98.9397 193.792 97.3419 192.78 96.3629" stroke="#294571" stroke-width="0.5" stroke-linecap="round" stroke-linejoin="round"/>
<path d="M112.697 59.2302C113.338 60.8843 115.397 61.627 117.141 61.3344C118.897 61.0419 120.393 59.9504 121.777 58.8364C123.161 57.7224 124.545 56.5297 126.222 55.9558" stroke="#294571" stroke-width="0.5" stroke-linecap="round" stroke-linejoin="round"/>
<path d="M167.707 178.159L181.713 194.769C181.947 195.037 182.371 194.968 182.499 194.639L212.903 116.674L167.701 178.168L167.707 178.159Z" fill="#CAECFC" stroke="#284573"/>
<path opacity="0.14" d="M171.634 178.208L182.896 193.58L210.563 121.968L171.625 178.201L171.634 178.208Z" fill="#284573"/>
<path d="M212.78 116.721L150.033 174.722C148.797 175.87 149.583 177.937 151.278 177.959L167.707 178.159L212.78 116.721Z" fill="#E6F6FF" stroke="#284573"/>
<path d="M177.761 186.971L171.536 178.701M179.625 184.558L173.401 176.288M181.386 181.893L175.162 173.623M183.251 179.48L177.026 171.21M185.012 176.815L178.787 168.546M186.829 174.28L180.605 166.01M188.386 171.841L182.161 163.572" stroke="#284573" stroke-linecap="round"/>
<path d="M176.246 177.377L181.811 194.132C181.943 194.548 182.53 194.563 182.688 194.159L190.933 172.912L176.248 177.393L176.246 177.377Z" fill="#CAECFC" stroke="#284573"/>
<path d="M162.471 184.078L153 201.975M172.059 190.959L167.648 199.39L163.237 207.821M161.66 197.281L152.868 213.866" stroke="#4C86B1" stroke-linecap="round"/>
<path d="M157.513 151.781L165.578 167.751C166.508 169.593 168.755 170.332 170.597 169.402L197.063 156.037C198.905 155.107 199.644 152.86 198.714 151.018L190.649 135.048C189.719 133.206 187.472 132.467 185.63 133.397L159.164 146.762C157.322 147.692 156.583 149.939 157.513 151.781Z" fill="white"/>
<path d="M157.188 152.656L165.628 169.369C166.441 170.978 168.403 171.624 170.012 170.811L196.74 157.314C198.349 156.502 198.994 154.539 198.182 152.93L189.742 136.217C188.929 134.608 186.967 133.962 185.358 134.775L158.63 148.272C157.021 149.084 156.376 151.047 157.188 152.656Z" fill="white" stroke="#284573"/>
<path d="M193.741 152.637L166.983 166.214L167.854 167.934L194.613 154.357L193.741 152.637Z" fill="#9DDBFB"/>
<path d="M194.728 154.575L167.97 168.152C167.788 168.239 167.601 168.222 167.538 168.101L166.667 166.382C166.604 166.261 166.695 166.09 166.876 166.003L193.635 152.426C193.816 152.34 194.003 152.356 194.066 152.477L194.937 154.196C195 154.317 194.91 154.489 194.728 154.575ZM167.777 167.631L194.451 154.217L193.794 152.936L167.12 166.35L167.777 167.631Z" fill="#284573"/>
<path d="M162.616 158.217L164.097 161.112C164.332 161.572 164.895 161.754 165.354 161.519L170.523 158.875C170.983 158.641 171.164 158.078 170.93 157.619L169.449 154.723C169.214 154.264 168.652 154.082 168.192 154.317L163.023 156.96C162.564 157.195 162.382 157.758 162.616 158.217Z" fill="#ECD861"/>
<path d="M201.179 169.752L176.253 177.368L211.625 118.645C211.891 118.211 212.554 118.441 212.488 118.946L206.413 163.617C206.018 166.504 203.983 168.898 201.202 169.742L201.179 169.752Z" fill="#E6F6FF" stroke="#284573"/>
</svg>
